G04 #@! TF.GenerationSoftware,KiCad,Pcbnew,5.1.5*
G04 #@! TF.CreationDate,2020-04-11T22:51:57+02:00*
G04 #@! TF.ProjectId,h_bridge,685f6272-6964-4676-952e-6b696361645f,rev?*
G04 #@! TF.SameCoordinates,Original*
G04 #@! TF.FileFunction,Soldermask,Bot*
G04 #@! TF.FilePolarity,Negative*
%FSLAX46Y46*%
G04 Gerber Fmt 4.6, Leading zero omitted, Abs format (unit mm)*
G04 Created by KiCad (PCBNEW 5.1.5) date 2020-04-11 22:51:57*
%MOMM*%
%LPD*%
G04 APERTURE LIST*
%ADD10C,0.100000*%
G04 APERTURE END LIST*
D10*
G36*
X141186823Y-148151313D02*
G01*
X141347242Y-148199976D01*
X141479906Y-148270886D01*
X141495078Y-148278996D01*
X141624659Y-148385341D01*
X141731004Y-148514922D01*
X141731005Y-148514924D01*
X141810024Y-148662758D01*
X141858687Y-148823177D01*
X141875117Y-148990000D01*
X141858687Y-149156823D01*
X141810024Y-149317242D01*
X141739114Y-149449906D01*
X141731004Y-149465078D01*
X141624659Y-149594659D01*
X141495078Y-149701004D01*
X141495076Y-149701005D01*
X141347242Y-149780024D01*
X141186823Y-149828687D01*
X141061804Y-149841000D01*
X140178196Y-149841000D01*
X140053177Y-149828687D01*
X139892758Y-149780024D01*
X139744924Y-149701005D01*
X139744922Y-149701004D01*
X139615341Y-149594659D01*
X139508996Y-149465078D01*
X139500886Y-149449906D01*
X139429976Y-149317242D01*
X139381313Y-149156823D01*
X139364883Y-148990000D01*
X139381313Y-148823177D01*
X139429976Y-148662758D01*
X139508995Y-148514924D01*
X139508996Y-148514922D01*
X139615341Y-148385341D01*
X139744922Y-148278996D01*
X139760094Y-148270886D01*
X139892758Y-148199976D01*
X140053177Y-148151313D01*
X140178196Y-148139000D01*
X141061804Y-148139000D01*
X141186823Y-148151313D01*
G37*
G36*
X133566823Y-148151313D02*
G01*
X133727242Y-148199976D01*
X133859906Y-148270886D01*
X133875078Y-148278996D01*
X134004659Y-148385341D01*
X134111004Y-148514922D01*
X134111005Y-148514924D01*
X134190024Y-148662758D01*
X134238687Y-148823177D01*
X134255117Y-148990000D01*
X134238687Y-149156823D01*
X134190024Y-149317242D01*
X134119114Y-149449906D01*
X134111004Y-149465078D01*
X134004659Y-149594659D01*
X133875078Y-149701004D01*
X133875076Y-149701005D01*
X133727242Y-149780024D01*
X133566823Y-149828687D01*
X133441804Y-149841000D01*
X132558196Y-149841000D01*
X132433177Y-149828687D01*
X132272758Y-149780024D01*
X132124924Y-149701005D01*
X132124922Y-149701004D01*
X131995341Y-149594659D01*
X131888996Y-149465078D01*
X131880886Y-149449906D01*
X131809976Y-149317242D01*
X131761313Y-149156823D01*
X131744883Y-148990000D01*
X131761313Y-148823177D01*
X131809976Y-148662758D01*
X131888995Y-148514924D01*
X131888996Y-148514922D01*
X131995341Y-148385341D01*
X132124922Y-148278996D01*
X132140094Y-148270886D01*
X132272758Y-148199976D01*
X132433177Y-148151313D01*
X132558196Y-148139000D01*
X133441804Y-148139000D01*
X133566823Y-148151313D01*
G37*
G36*
X113233512Y-146853927D02*
G01*
X113382812Y-146883624D01*
X113546784Y-146951544D01*
X113694354Y-147050147D01*
X113819853Y-147175646D01*
X113918456Y-147323216D01*
X113986376Y-147487188D01*
X114021000Y-147661259D01*
X114021000Y-147838741D01*
X113986376Y-148012812D01*
X113918456Y-148176784D01*
X113819853Y-148324354D01*
X113694354Y-148449853D01*
X113546784Y-148548456D01*
X113382812Y-148616376D01*
X113233512Y-148646073D01*
X113208742Y-148651000D01*
X113031258Y-148651000D01*
X113006488Y-148646073D01*
X112857188Y-148616376D01*
X112693216Y-148548456D01*
X112545646Y-148449853D01*
X112420147Y-148324354D01*
X112321544Y-148176784D01*
X112253624Y-148012812D01*
X112219000Y-147838741D01*
X112219000Y-147661259D01*
X112253624Y-147487188D01*
X112321544Y-147323216D01*
X112420147Y-147175646D01*
X112545646Y-147050147D01*
X112693216Y-146951544D01*
X112857188Y-146883624D01*
X113006488Y-146853927D01*
X113031258Y-146849000D01*
X113208742Y-146849000D01*
X113233512Y-146853927D01*
G37*
G36*
X110693512Y-146853927D02*
G01*
X110842812Y-146883624D01*
X111006784Y-146951544D01*
X111154354Y-147050147D01*
X111279853Y-147175646D01*
X111378456Y-147323216D01*
X111446376Y-147487188D01*
X111481000Y-147661259D01*
X111481000Y-147838741D01*
X111446376Y-148012812D01*
X111378456Y-148176784D01*
X111279853Y-148324354D01*
X111154354Y-148449853D01*
X111006784Y-148548456D01*
X110842812Y-148616376D01*
X110693512Y-148646073D01*
X110668742Y-148651000D01*
X110491258Y-148651000D01*
X110466488Y-148646073D01*
X110317188Y-148616376D01*
X110153216Y-148548456D01*
X110005646Y-148449853D01*
X109880147Y-148324354D01*
X109781544Y-148176784D01*
X109713624Y-148012812D01*
X109679000Y-147838741D01*
X109679000Y-147661259D01*
X109713624Y-147487188D01*
X109781544Y-147323216D01*
X109880147Y-147175646D01*
X110005646Y-147050147D01*
X110153216Y-146951544D01*
X110317188Y-146883624D01*
X110466488Y-146853927D01*
X110491258Y-146849000D01*
X110668742Y-146849000D01*
X110693512Y-146853927D01*
G37*
G36*
X106401000Y-148651000D02*
G01*
X104599000Y-148651000D01*
X104599000Y-146849000D01*
X106401000Y-146849000D01*
X106401000Y-148651000D01*
G37*
G36*
X108153512Y-146853927D02*
G01*
X108302812Y-146883624D01*
X108466784Y-146951544D01*
X108614354Y-147050147D01*
X108739853Y-147175646D01*
X108838456Y-147323216D01*
X108906376Y-147487188D01*
X108941000Y-147661259D01*
X108941000Y-147838741D01*
X108906376Y-148012812D01*
X108838456Y-148176784D01*
X108739853Y-148324354D01*
X108614354Y-148449853D01*
X108466784Y-148548456D01*
X108302812Y-148616376D01*
X108153512Y-148646073D01*
X108128742Y-148651000D01*
X107951258Y-148651000D01*
X107926488Y-148646073D01*
X107777188Y-148616376D01*
X107613216Y-148548456D01*
X107465646Y-148449853D01*
X107340147Y-148324354D01*
X107241544Y-148176784D01*
X107173624Y-148012812D01*
X107139000Y-147838741D01*
X107139000Y-147661259D01*
X107173624Y-147487188D01*
X107241544Y-147323216D01*
X107340147Y-147175646D01*
X107465646Y-147050147D01*
X107613216Y-146951544D01*
X107777188Y-146883624D01*
X107926488Y-146853927D01*
X107951258Y-146849000D01*
X108128742Y-146849000D01*
X108153512Y-146853927D01*
G37*
G36*
X144219059Y-145280024D02*
G01*
X144335734Y-145303232D01*
X144545203Y-145389997D01*
X144733720Y-145515960D01*
X144894040Y-145676280D01*
X145020003Y-145864797D01*
X145103601Y-146066619D01*
X145106768Y-146074267D01*
X145148323Y-146283175D01*
X145151000Y-146296636D01*
X145151000Y-146523364D01*
X145107070Y-146744218D01*
X145106768Y-146745733D01*
X145029043Y-146933380D01*
X145020003Y-146955203D01*
X144894040Y-147143720D01*
X144733720Y-147304040D01*
X144545203Y-147430003D01*
X144335734Y-147516768D01*
X144236635Y-147536480D01*
X144113365Y-147561000D01*
X143886635Y-147561000D01*
X143763365Y-147536480D01*
X143664266Y-147516768D01*
X143454797Y-147430003D01*
X143266280Y-147304040D01*
X143105960Y-147143720D01*
X142979997Y-146955203D01*
X142970958Y-146933380D01*
X142893232Y-146745733D01*
X142892931Y-146744218D01*
X142849000Y-146523364D01*
X142849000Y-146296636D01*
X142851678Y-146283175D01*
X142893232Y-146074267D01*
X142896400Y-146066619D01*
X142979997Y-145864797D01*
X143105960Y-145676280D01*
X143266280Y-145515960D01*
X143454797Y-145389997D01*
X143664266Y-145303232D01*
X143780941Y-145280024D01*
X143886635Y-145259000D01*
X144113365Y-145259000D01*
X144219059Y-145280024D01*
G37*
G36*
X184736719Y-145463520D02*
G01*
X184925880Y-145520901D01*
X184925883Y-145520902D01*
X185018333Y-145570318D01*
X185100212Y-145614083D01*
X185253015Y-145739485D01*
X185378417Y-145892288D01*
X185471599Y-146066619D01*
X185528980Y-146255780D01*
X185543500Y-146403206D01*
X185543500Y-146596793D01*
X185528980Y-146744219D01*
X185497195Y-146849000D01*
X185471598Y-146933383D01*
X185422182Y-147025833D01*
X185378417Y-147107712D01*
X185253015Y-147260515D01*
X185100212Y-147385917D01*
X184925881Y-147479099D01*
X184736720Y-147536480D01*
X184540000Y-147555855D01*
X184343281Y-147536480D01*
X184154120Y-147479099D01*
X183979788Y-147385917D01*
X183826985Y-147260515D01*
X183701583Y-147107712D01*
X183608401Y-146933381D01*
X183551020Y-146744220D01*
X183536500Y-146596794D01*
X183536500Y-146403207D01*
X183551020Y-146255781D01*
X183608401Y-146066620D01*
X183608402Y-146066617D01*
X183657818Y-145974167D01*
X183701583Y-145892288D01*
X183826985Y-145739485D01*
X183979788Y-145614083D01*
X184154119Y-145520901D01*
X184343280Y-145463520D01*
X184540000Y-145444145D01*
X184736719Y-145463520D01*
G37*
G36*
X154986719Y-145463520D02*
G01*
X155175880Y-145520901D01*
X155175883Y-145520902D01*
X155268333Y-145570318D01*
X155350212Y-145614083D01*
X155503015Y-145739485D01*
X155628417Y-145892288D01*
X155721599Y-146066619D01*
X155778980Y-146255780D01*
X155793500Y-146403206D01*
X155793500Y-146596793D01*
X155778980Y-146744219D01*
X155747195Y-146849000D01*
X155721598Y-146933383D01*
X155672182Y-147025833D01*
X155628417Y-147107712D01*
X155503015Y-147260515D01*
X155350212Y-147385917D01*
X155175881Y-147479099D01*
X154986720Y-147536480D01*
X154790000Y-147555855D01*
X154593281Y-147536480D01*
X154404120Y-147479099D01*
X154229788Y-147385917D01*
X154076985Y-147260515D01*
X153951583Y-147107712D01*
X153858401Y-146933381D01*
X153801020Y-146744220D01*
X153786500Y-146596794D01*
X153786500Y-146403207D01*
X153801020Y-146255781D01*
X153858401Y-146066620D01*
X153858402Y-146066617D01*
X153907818Y-145974167D01*
X153951583Y-145892288D01*
X154076985Y-145739485D01*
X154229788Y-145614083D01*
X154404119Y-145520901D01*
X154593280Y-145463520D01*
X154790000Y-145444145D01*
X154986719Y-145463520D01*
G37*
G36*
X157526719Y-145463520D02*
G01*
X157715880Y-145520901D01*
X157715883Y-145520902D01*
X157808333Y-145570318D01*
X157890212Y-145614083D01*
X158043015Y-145739485D01*
X158168417Y-145892288D01*
X158261599Y-146066619D01*
X158318980Y-146255780D01*
X158333500Y-146403206D01*
X158333500Y-146596793D01*
X158318980Y-146744219D01*
X158287195Y-146849000D01*
X158261598Y-146933383D01*
X158212182Y-147025833D01*
X158168417Y-147107712D01*
X158043015Y-147260515D01*
X157890212Y-147385917D01*
X157715881Y-147479099D01*
X157526720Y-147536480D01*
X157330000Y-147555855D01*
X157133281Y-147536480D01*
X156944120Y-147479099D01*
X156769788Y-147385917D01*
X156616985Y-147260515D01*
X156491583Y-147107712D01*
X156398401Y-146933381D01*
X156341020Y-146744220D01*
X156326500Y-146596794D01*
X156326500Y-146403207D01*
X156341020Y-146255781D01*
X156398401Y-146066620D01*
X156398402Y-146066617D01*
X156447818Y-145974167D01*
X156491583Y-145892288D01*
X156616985Y-145739485D01*
X156769788Y-145614083D01*
X156944119Y-145520901D01*
X157133280Y-145463520D01*
X157330000Y-145444145D01*
X157526719Y-145463520D01*
G37*
G36*
X195486719Y-145463520D02*
G01*
X195675880Y-145520901D01*
X195675883Y-145520902D01*
X195768333Y-145570318D01*
X195850212Y-145614083D01*
X196003015Y-145739485D01*
X196128417Y-145892288D01*
X196221599Y-146066619D01*
X196278980Y-146255780D01*
X196293500Y-146403206D01*
X196293500Y-146596793D01*
X196278980Y-146744219D01*
X196247195Y-146849000D01*
X196221598Y-146933383D01*
X196172182Y-147025833D01*
X196128417Y-147107712D01*
X196003015Y-147260515D01*
X195850212Y-147385917D01*
X195675881Y-147479099D01*
X195486720Y-147536480D01*
X195290000Y-147555855D01*
X195093281Y-147536480D01*
X194904120Y-147479099D01*
X194729788Y-147385917D01*
X194576985Y-147260515D01*
X194451583Y-147107712D01*
X194358401Y-146933381D01*
X194301020Y-146744220D01*
X194286500Y-146596794D01*
X194286500Y-146403207D01*
X194301020Y-146255781D01*
X194358401Y-146066620D01*
X194358402Y-146066617D01*
X194407818Y-145974167D01*
X194451583Y-145892288D01*
X194576985Y-145739485D01*
X194729788Y-145614083D01*
X194904119Y-145520901D01*
X195093280Y-145463520D01*
X195290000Y-145444145D01*
X195486719Y-145463520D01*
G37*
G36*
X198026719Y-145463520D02*
G01*
X198215880Y-145520901D01*
X198215883Y-145520902D01*
X198308333Y-145570318D01*
X198390212Y-145614083D01*
X198543015Y-145739485D01*
X198668417Y-145892288D01*
X198761599Y-146066619D01*
X198818980Y-146255780D01*
X198833500Y-146403206D01*
X198833500Y-146596793D01*
X198818980Y-146744219D01*
X198787195Y-146849000D01*
X198761598Y-146933383D01*
X198712182Y-147025833D01*
X198668417Y-147107712D01*
X198543015Y-147260515D01*
X198390212Y-147385917D01*
X198215881Y-147479099D01*
X198026720Y-147536480D01*
X197830000Y-147555855D01*
X197633281Y-147536480D01*
X197444120Y-147479099D01*
X197269788Y-147385917D01*
X197116985Y-147260515D01*
X196991583Y-147107712D01*
X196898401Y-146933381D01*
X196841020Y-146744220D01*
X196826500Y-146596794D01*
X196826500Y-146403207D01*
X196841020Y-146255781D01*
X196898401Y-146066620D01*
X196898402Y-146066617D01*
X196947818Y-145974167D01*
X196991583Y-145892288D01*
X197116985Y-145739485D01*
X197269788Y-145614083D01*
X197444119Y-145520901D01*
X197633280Y-145463520D01*
X197830000Y-145444145D01*
X198026719Y-145463520D01*
G37*
G36*
X168276719Y-145463520D02*
G01*
X168465880Y-145520901D01*
X168465883Y-145520902D01*
X168558333Y-145570318D01*
X168640212Y-145614083D01*
X168793015Y-145739485D01*
X168918417Y-145892288D01*
X169011599Y-146066619D01*
X169068980Y-146255780D01*
X169083500Y-146403206D01*
X169083500Y-146596793D01*
X169068980Y-146744219D01*
X169037195Y-146849000D01*
X169011598Y-146933383D01*
X168962182Y-147025833D01*
X168918417Y-147107712D01*
X168793015Y-147260515D01*
X168640212Y-147385917D01*
X168465881Y-147479099D01*
X168276720Y-147536480D01*
X168080000Y-147555855D01*
X167883281Y-147536480D01*
X167694120Y-147479099D01*
X167519788Y-147385917D01*
X167366985Y-147260515D01*
X167241583Y-147107712D01*
X167148401Y-146933381D01*
X167091020Y-146744220D01*
X167076500Y-146596794D01*
X167076500Y-146403207D01*
X167091020Y-146255781D01*
X167148401Y-146066620D01*
X167148402Y-146066617D01*
X167197818Y-145974167D01*
X167241583Y-145892288D01*
X167366985Y-145739485D01*
X167519788Y-145614083D01*
X167694119Y-145520901D01*
X167883280Y-145463520D01*
X168080000Y-145444145D01*
X168276719Y-145463520D01*
G37*
G36*
X165736719Y-145463520D02*
G01*
X165925880Y-145520901D01*
X165925883Y-145520902D01*
X166018333Y-145570318D01*
X166100212Y-145614083D01*
X166253015Y-145739485D01*
X166378417Y-145892288D01*
X166471599Y-146066619D01*
X166528980Y-146255780D01*
X166543500Y-146403206D01*
X166543500Y-146596793D01*
X166528980Y-146744219D01*
X166497195Y-146849000D01*
X166471598Y-146933383D01*
X166422182Y-147025833D01*
X166378417Y-147107712D01*
X166253015Y-147260515D01*
X166100212Y-147385917D01*
X165925881Y-147479099D01*
X165736720Y-147536480D01*
X165540000Y-147555855D01*
X165343281Y-147536480D01*
X165154120Y-147479099D01*
X164979788Y-147385917D01*
X164826985Y-147260515D01*
X164701583Y-147107712D01*
X164608401Y-146933381D01*
X164551020Y-146744220D01*
X164536500Y-146596794D01*
X164536500Y-146403207D01*
X164551020Y-146255781D01*
X164608401Y-146066620D01*
X164608402Y-146066617D01*
X164657818Y-145974167D01*
X164701583Y-145892288D01*
X164826985Y-145739485D01*
X164979788Y-145614083D01*
X165154119Y-145520901D01*
X165343280Y-145463520D01*
X165540000Y-145444145D01*
X165736719Y-145463520D01*
G37*
G36*
X187276719Y-145463520D02*
G01*
X187465880Y-145520901D01*
X187465883Y-145520902D01*
X187558333Y-145570318D01*
X187640212Y-145614083D01*
X187793015Y-145739485D01*
X187918417Y-145892288D01*
X188011599Y-146066619D01*
X188068980Y-146255780D01*
X188083500Y-146403206D01*
X188083500Y-146596793D01*
X188068980Y-146744219D01*
X188037195Y-146849000D01*
X188011598Y-146933383D01*
X187962182Y-147025833D01*
X187918417Y-147107712D01*
X187793015Y-147260515D01*
X187640212Y-147385917D01*
X187465881Y-147479099D01*
X187276720Y-147536480D01*
X187080000Y-147555855D01*
X186883281Y-147536480D01*
X186694120Y-147479099D01*
X186519788Y-147385917D01*
X186366985Y-147260515D01*
X186241583Y-147107712D01*
X186148401Y-146933381D01*
X186091020Y-146744220D01*
X186076500Y-146596794D01*
X186076500Y-146403207D01*
X186091020Y-146255781D01*
X186148401Y-146066620D01*
X186148402Y-146066617D01*
X186197818Y-145974167D01*
X186241583Y-145892288D01*
X186366985Y-145739485D01*
X186519788Y-145614083D01*
X186694119Y-145520901D01*
X186883280Y-145463520D01*
X187080000Y-145444145D01*
X187276719Y-145463520D01*
G37*
G36*
X193753500Y-147551000D02*
G01*
X191746500Y-147551000D01*
X191746500Y-145449000D01*
X193753500Y-145449000D01*
X193753500Y-147551000D01*
G37*
G36*
X153253500Y-147551000D02*
G01*
X151246500Y-147551000D01*
X151246500Y-145449000D01*
X153253500Y-145449000D01*
X153253500Y-147551000D01*
G37*
G36*
X164003500Y-147551000D02*
G01*
X161996500Y-147551000D01*
X161996500Y-145449000D01*
X164003500Y-145449000D01*
X164003500Y-147551000D01*
G37*
G36*
X183003500Y-147551000D02*
G01*
X180996500Y-147551000D01*
X180996500Y-145449000D01*
X183003500Y-145449000D01*
X183003500Y-147551000D01*
G37*
G36*
X133566823Y-145611313D02*
G01*
X133727242Y-145659976D01*
X133757746Y-145676281D01*
X133875078Y-145738996D01*
X134004659Y-145845341D01*
X134111004Y-145974922D01*
X134111005Y-145974924D01*
X134190024Y-146122758D01*
X134238687Y-146283177D01*
X134255117Y-146450000D01*
X134238687Y-146616823D01*
X134190024Y-146777242D01*
X134133161Y-146883625D01*
X134111004Y-146925078D01*
X134004659Y-147054659D01*
X133875078Y-147161004D01*
X133875076Y-147161005D01*
X133727242Y-147240024D01*
X133566823Y-147288687D01*
X133441804Y-147301000D01*
X132558196Y-147301000D01*
X132433177Y-147288687D01*
X132272758Y-147240024D01*
X132124924Y-147161005D01*
X132124922Y-147161004D01*
X131995341Y-147054659D01*
X131888996Y-146925078D01*
X131866839Y-146883625D01*
X131809976Y-146777242D01*
X131761313Y-146616823D01*
X131744883Y-146450000D01*
X131761313Y-146283177D01*
X131809976Y-146122758D01*
X131888995Y-145974924D01*
X131888996Y-145974922D01*
X131995341Y-145845341D01*
X132124922Y-145738996D01*
X132242254Y-145676281D01*
X132272758Y-145659976D01*
X132433177Y-145611313D01*
X132558196Y-145599000D01*
X133441804Y-145599000D01*
X133566823Y-145611313D01*
G37*
G36*
X141186823Y-145611313D02*
G01*
X141347242Y-145659976D01*
X141377746Y-145676281D01*
X141495078Y-145738996D01*
X141624659Y-145845341D01*
X141731004Y-145974922D01*
X141731005Y-145974924D01*
X141810024Y-146122758D01*
X141858687Y-146283177D01*
X141875117Y-146450000D01*
X141858687Y-146616823D01*
X141810024Y-146777242D01*
X141753161Y-146883625D01*
X141731004Y-146925078D01*
X141624659Y-147054659D01*
X141495078Y-147161004D01*
X141495076Y-147161005D01*
X141347242Y-147240024D01*
X141186823Y-147288687D01*
X141061804Y-147301000D01*
X140178196Y-147301000D01*
X140053177Y-147288687D01*
X139892758Y-147240024D01*
X139744924Y-147161005D01*
X139744922Y-147161004D01*
X139615341Y-147054659D01*
X139508996Y-146925078D01*
X139486839Y-146883625D01*
X139429976Y-146777242D01*
X139381313Y-146616823D01*
X139364883Y-146450000D01*
X139381313Y-146283177D01*
X139429976Y-146122758D01*
X139508995Y-145974924D01*
X139508996Y-145974922D01*
X139615341Y-145845341D01*
X139744922Y-145738996D01*
X139862254Y-145676281D01*
X139892758Y-145659976D01*
X140053177Y-145611313D01*
X140178196Y-145599000D01*
X141061804Y-145599000D01*
X141186823Y-145611313D01*
G37*
G36*
X136334468Y-144403565D02*
G01*
X136373138Y-144415296D01*
X136408777Y-144434346D01*
X136440017Y-144459983D01*
X136465654Y-144491223D01*
X136484704Y-144526862D01*
X136496435Y-144565532D01*
X136501000Y-144611888D01*
X136501000Y-145263112D01*
X136496435Y-145309468D01*
X136484704Y-145348138D01*
X136465654Y-145383777D01*
X136440017Y-145415017D01*
X136408777Y-145440654D01*
X136373138Y-145459704D01*
X136334468Y-145471435D01*
X136288112Y-145476000D01*
X135211888Y-145476000D01*
X135165532Y-145471435D01*
X135126862Y-145459704D01*
X135091223Y-145440654D01*
X135059983Y-145415017D01*
X135034346Y-145383777D01*
X135015296Y-145348138D01*
X135003565Y-145309468D01*
X134999000Y-145263112D01*
X134999000Y-144611888D01*
X135003565Y-144565532D01*
X135015296Y-144526862D01*
X135034346Y-144491223D01*
X135059983Y-144459983D01*
X135091223Y-144434346D01*
X135126862Y-144415296D01*
X135165532Y-144403565D01*
X135211888Y-144399000D01*
X136288112Y-144399000D01*
X136334468Y-144403565D01*
G37*
G36*
X120566823Y-143651313D02*
G01*
X120727242Y-143699976D01*
X120824884Y-143752167D01*
X120875078Y-143778996D01*
X121004659Y-143885341D01*
X121111004Y-144014922D01*
X121111005Y-144014924D01*
X121190024Y-144162758D01*
X121238687Y-144323177D01*
X121255117Y-144490000D01*
X121238687Y-144656823D01*
X121190024Y-144817242D01*
X121135113Y-144919973D01*
X121111004Y-144965078D01*
X121004659Y-145094659D01*
X120875078Y-145201004D01*
X120875076Y-145201005D01*
X120727242Y-145280024D01*
X120566823Y-145328687D01*
X120441804Y-145341000D01*
X119558196Y-145341000D01*
X119433177Y-145328687D01*
X119272758Y-145280024D01*
X119124924Y-145201005D01*
X119124922Y-145201004D01*
X118995341Y-145094659D01*
X118888996Y-144965078D01*
X118864887Y-144919973D01*
X118809976Y-144817242D01*
X118761313Y-144656823D01*
X118744883Y-144490000D01*
X118761313Y-144323177D01*
X118809976Y-144162758D01*
X118888995Y-144014924D01*
X118888996Y-144014922D01*
X118995341Y-143885341D01*
X119124922Y-143778996D01*
X119175116Y-143752167D01*
X119272758Y-143699976D01*
X119433177Y-143651313D01*
X119558196Y-143639000D01*
X120441804Y-143639000D01*
X120566823Y-143651313D01*
G37*
G36*
X128186823Y-143651313D02*
G01*
X128347242Y-143699976D01*
X128444884Y-143752167D01*
X128495078Y-143778996D01*
X128624659Y-143885341D01*
X128731004Y-144014922D01*
X128731005Y-144014924D01*
X128810024Y-144162758D01*
X128858687Y-144323177D01*
X128875117Y-144490000D01*
X128858687Y-144656823D01*
X128810024Y-144817242D01*
X128755113Y-144919973D01*
X128731004Y-144965078D01*
X128624659Y-145094659D01*
X128495078Y-145201004D01*
X128495076Y-145201005D01*
X128347242Y-145280024D01*
X128186823Y-145328687D01*
X128061804Y-145341000D01*
X127178196Y-145341000D01*
X127053177Y-145328687D01*
X126892758Y-145280024D01*
X126744924Y-145201005D01*
X126744922Y-145201004D01*
X126615341Y-145094659D01*
X126508996Y-144965078D01*
X126484887Y-144919973D01*
X126429976Y-144817242D01*
X126381313Y-144656823D01*
X126364883Y-144490000D01*
X126381313Y-144323177D01*
X126429976Y-144162758D01*
X126508995Y-144014924D01*
X126508996Y-144014922D01*
X126615341Y-143885341D01*
X126744922Y-143778996D01*
X126795116Y-143752167D01*
X126892758Y-143699976D01*
X127053177Y-143651313D01*
X127178196Y-143639000D01*
X128061804Y-143639000D01*
X128186823Y-143651313D01*
G37*
G36*
X206306564Y-143239389D02*
G01*
X206497833Y-143318615D01*
X206497835Y-143318616D01*
X206669973Y-143433635D01*
X206816365Y-143580027D01*
X206855770Y-143639000D01*
X206931385Y-143752167D01*
X207010611Y-143943436D01*
X207051000Y-144146484D01*
X207051000Y-144353516D01*
X207010611Y-144556564D01*
X206931385Y-144747833D01*
X206931384Y-144747835D01*
X206816365Y-144919973D01*
X206669973Y-145066365D01*
X206497835Y-145181384D01*
X206497834Y-145181385D01*
X206497833Y-145181385D01*
X206306564Y-145260611D01*
X206103516Y-145301000D01*
X205896484Y-145301000D01*
X205693436Y-145260611D01*
X205502167Y-145181385D01*
X205502166Y-145181385D01*
X205502165Y-145181384D01*
X205330027Y-145066365D01*
X205183635Y-144919973D01*
X205068616Y-144747835D01*
X205068615Y-144747833D01*
X204989389Y-144556564D01*
X204949000Y-144353516D01*
X204949000Y-144146484D01*
X204989389Y-143943436D01*
X205068615Y-143752167D01*
X205144231Y-143639000D01*
X205183635Y-143580027D01*
X205330027Y-143433635D01*
X205502165Y-143318616D01*
X205502167Y-143318615D01*
X205693436Y-143239389D01*
X205896484Y-143199000D01*
X206103516Y-143199000D01*
X206306564Y-143239389D01*
G37*
G36*
X216306564Y-143239389D02*
G01*
X216497833Y-143318615D01*
X216497835Y-143318616D01*
X216669973Y-143433635D01*
X216816365Y-143580027D01*
X216855770Y-143639000D01*
X216931385Y-143752167D01*
X217010611Y-143943436D01*
X217051000Y-144146484D01*
X217051000Y-144353516D01*
X217010611Y-144556564D01*
X216931385Y-144747833D01*
X216931384Y-144747835D01*
X216816365Y-144919973D01*
X216669973Y-145066365D01*
X216497835Y-145181384D01*
X216497834Y-145181385D01*
X216497833Y-145181385D01*
X216306564Y-145260611D01*
X216103516Y-145301000D01*
X215896484Y-145301000D01*
X215693436Y-145260611D01*
X215502167Y-145181385D01*
X215502166Y-145181385D01*
X215502165Y-145181384D01*
X215330027Y-145066365D01*
X215183635Y-144919973D01*
X215068616Y-144747835D01*
X215068615Y-144747833D01*
X214989389Y-144556564D01*
X214949000Y-144353516D01*
X214949000Y-144146484D01*
X214989389Y-143943436D01*
X215068615Y-143752167D01*
X215144231Y-143639000D01*
X215183635Y-143580027D01*
X215330027Y-143433635D01*
X215502165Y-143318616D01*
X215502167Y-143318615D01*
X215693436Y-143239389D01*
X215896484Y-143199000D01*
X216103516Y-143199000D01*
X216306564Y-143239389D01*
G37*
G36*
X141186823Y-143071313D02*
G01*
X141347242Y-143119976D01*
X141479906Y-143190886D01*
X141495078Y-143198996D01*
X141624659Y-143305341D01*
X141731004Y-143434922D01*
X141731005Y-143434924D01*
X141810024Y-143582758D01*
X141858687Y-143743177D01*
X141875117Y-143910000D01*
X141858687Y-144076823D01*
X141810024Y-144237242D01*
X141764092Y-144323175D01*
X141731004Y-144385078D01*
X141624659Y-144514659D01*
X141495078Y-144621004D01*
X141495076Y-144621005D01*
X141347242Y-144700024D01*
X141186823Y-144748687D01*
X141061804Y-144761000D01*
X140178196Y-144761000D01*
X140053177Y-144748687D01*
X139892758Y-144700024D01*
X139744924Y-144621005D01*
X139744922Y-144621004D01*
X139615341Y-144514659D01*
X139508996Y-144385078D01*
X139475908Y-144323175D01*
X139429976Y-144237242D01*
X139381313Y-144076823D01*
X139364883Y-143910000D01*
X139381313Y-143743177D01*
X139429976Y-143582758D01*
X139508995Y-143434924D01*
X139508996Y-143434922D01*
X139615341Y-143305341D01*
X139744922Y-143198996D01*
X139760094Y-143190886D01*
X139892758Y-143119976D01*
X140053177Y-143071313D01*
X140178196Y-143059000D01*
X141061804Y-143059000D01*
X141186823Y-143071313D01*
G37*
G36*
X133566823Y-143071313D02*
G01*
X133727242Y-143119976D01*
X133859906Y-143190886D01*
X133875078Y-143198996D01*
X134004659Y-143305341D01*
X134111004Y-143434922D01*
X134111005Y-143434924D01*
X134190024Y-143582758D01*
X134238687Y-143743177D01*
X134255117Y-143910000D01*
X134238687Y-144076823D01*
X134190024Y-144237242D01*
X134144092Y-144323175D01*
X134111004Y-144385078D01*
X134004659Y-144514659D01*
X133875078Y-144621004D01*
X133875076Y-144621005D01*
X133727242Y-144700024D01*
X133566823Y-144748687D01*
X133441804Y-144761000D01*
X132558196Y-144761000D01*
X132433177Y-144748687D01*
X132272758Y-144700024D01*
X132124924Y-144621005D01*
X132124922Y-144621004D01*
X131995341Y-144514659D01*
X131888996Y-144385078D01*
X131855908Y-144323175D01*
X131809976Y-144237242D01*
X131761313Y-144076823D01*
X131744883Y-143910000D01*
X131761313Y-143743177D01*
X131809976Y-143582758D01*
X131888995Y-143434924D01*
X131888996Y-143434922D01*
X131995341Y-143305341D01*
X132124922Y-143198996D01*
X132140094Y-143190886D01*
X132272758Y-143119976D01*
X132433177Y-143071313D01*
X132558196Y-143059000D01*
X133441804Y-143059000D01*
X133566823Y-143071313D01*
G37*
G36*
X136334468Y-142528565D02*
G01*
X136373138Y-142540296D01*
X136408777Y-142559346D01*
X136440017Y-142584983D01*
X136465654Y-142616223D01*
X136484704Y-142651862D01*
X136496435Y-142690532D01*
X136501000Y-142736888D01*
X136501000Y-143388112D01*
X136496435Y-143434468D01*
X136484704Y-143473138D01*
X136465654Y-143508777D01*
X136440017Y-143540017D01*
X136408777Y-143565654D01*
X136373138Y-143584704D01*
X136334468Y-143596435D01*
X136288112Y-143601000D01*
X135211888Y-143601000D01*
X135165532Y-143596435D01*
X135126862Y-143584704D01*
X135091223Y-143565654D01*
X135059983Y-143540017D01*
X135034346Y-143508777D01*
X135015296Y-143473138D01*
X135003565Y-143434468D01*
X134999000Y-143388112D01*
X134999000Y-142736888D01*
X135003565Y-142690532D01*
X135015296Y-142651862D01*
X135034346Y-142616223D01*
X135059983Y-142584983D01*
X135091223Y-142559346D01*
X135126862Y-142540296D01*
X135165532Y-142528565D01*
X135211888Y-142524000D01*
X136288112Y-142524000D01*
X136334468Y-142528565D01*
G37*
G36*
X128186823Y-141111313D02*
G01*
X128347242Y-141159976D01*
X128470764Y-141226000D01*
X128495078Y-141238996D01*
X128624659Y-141345341D01*
X128731004Y-141474922D01*
X128731005Y-141474924D01*
X128810024Y-141622758D01*
X128858687Y-141783177D01*
X128875117Y-141950000D01*
X128858687Y-142116823D01*
X128810024Y-142277242D01*
X128739114Y-142409906D01*
X128731004Y-142425078D01*
X128624659Y-142554659D01*
X128495078Y-142661004D01*
X128495076Y-142661005D01*
X128347242Y-142740024D01*
X128186823Y-142788687D01*
X128061804Y-142801000D01*
X127178196Y-142801000D01*
X127053177Y-142788687D01*
X126892758Y-142740024D01*
X126744924Y-142661005D01*
X126744922Y-142661004D01*
X126615341Y-142554659D01*
X126508996Y-142425078D01*
X126500886Y-142409906D01*
X126429976Y-142277242D01*
X126381313Y-142116823D01*
X126364883Y-141950000D01*
X126381313Y-141783177D01*
X126429976Y-141622758D01*
X126508995Y-141474924D01*
X126508996Y-141474922D01*
X126615341Y-141345341D01*
X126744922Y-141238996D01*
X126769236Y-141226000D01*
X126892758Y-141159976D01*
X127053177Y-141111313D01*
X127178196Y-141099000D01*
X128061804Y-141099000D01*
X128186823Y-141111313D01*
G37*
G36*
X120566823Y-141111313D02*
G01*
X120727242Y-141159976D01*
X120850764Y-141226000D01*
X120875078Y-141238996D01*
X121004659Y-141345341D01*
X121111004Y-141474922D01*
X121111005Y-141474924D01*
X121190024Y-141622758D01*
X121238687Y-141783177D01*
X121255117Y-141950000D01*
X121238687Y-142116823D01*
X121190024Y-142277242D01*
X121119114Y-142409906D01*
X121111004Y-142425078D01*
X121004659Y-142554659D01*
X120875078Y-142661004D01*
X120875076Y-142661005D01*
X120727242Y-142740024D01*
X120566823Y-142788687D01*
X120441804Y-142801000D01*
X119558196Y-142801000D01*
X119433177Y-142788687D01*
X119272758Y-142740024D01*
X119124924Y-142661005D01*
X119124922Y-142661004D01*
X118995341Y-142554659D01*
X118888996Y-142425078D01*
X118880886Y-142409906D01*
X118809976Y-142277242D01*
X118761313Y-142116823D01*
X118744883Y-141950000D01*
X118761313Y-141783177D01*
X118809976Y-141622758D01*
X118888995Y-141474924D01*
X118888996Y-141474922D01*
X118995341Y-141345341D01*
X119124922Y-141238996D01*
X119149236Y-141226000D01*
X119272758Y-141159976D01*
X119433177Y-141111313D01*
X119558196Y-141099000D01*
X120441804Y-141099000D01*
X120566823Y-141111313D01*
G37*
G36*
X141186823Y-140531313D02*
G01*
X141347242Y-140579976D01*
X141479906Y-140650886D01*
X141495078Y-140658996D01*
X141624659Y-140765341D01*
X141731004Y-140894922D01*
X141731005Y-140894924D01*
X141810024Y-141042758D01*
X141858687Y-141203177D01*
X141875117Y-141370000D01*
X141858687Y-141536823D01*
X141810024Y-141697242D01*
X141764092Y-141783175D01*
X141731004Y-141845078D01*
X141624659Y-141974659D01*
X141495078Y-142081004D01*
X141495076Y-142081005D01*
X141347242Y-142160024D01*
X141186823Y-142208687D01*
X141061804Y-142221000D01*
X140178196Y-142221000D01*
X140053177Y-142208687D01*
X139892758Y-142160024D01*
X139744924Y-142081005D01*
X139744922Y-142081004D01*
X139615341Y-141974659D01*
X139508996Y-141845078D01*
X139475908Y-141783175D01*
X139429976Y-141697242D01*
X139381313Y-141536823D01*
X139364883Y-141370000D01*
X139381313Y-141203177D01*
X139429976Y-141042758D01*
X139508995Y-140894924D01*
X139508996Y-140894922D01*
X139615341Y-140765341D01*
X139744922Y-140658996D01*
X139760094Y-140650886D01*
X139892758Y-140579976D01*
X140053177Y-140531313D01*
X140178196Y-140519000D01*
X141061804Y-140519000D01*
X141186823Y-140531313D01*
G37*
G36*
X133566823Y-140531313D02*
G01*
X133727242Y-140579976D01*
X133859906Y-140650886D01*
X133875078Y-140658996D01*
X134004659Y-140765341D01*
X134111004Y-140894922D01*
X134111005Y-140894924D01*
X134190024Y-141042758D01*
X134238687Y-141203177D01*
X134255117Y-141370000D01*
X134238687Y-141536823D01*
X134190024Y-141697242D01*
X134144092Y-141783175D01*
X134111004Y-141845078D01*
X134004659Y-141974659D01*
X133875078Y-142081004D01*
X133875076Y-142081005D01*
X133727242Y-142160024D01*
X133566823Y-142208687D01*
X133441804Y-142221000D01*
X132558196Y-142221000D01*
X132433177Y-142208687D01*
X132272758Y-142160024D01*
X132124924Y-142081005D01*
X132124922Y-142081004D01*
X131995341Y-141974659D01*
X131888996Y-141845078D01*
X131855908Y-141783175D01*
X131809976Y-141697242D01*
X131761313Y-141536823D01*
X131744883Y-141370000D01*
X131761313Y-141203177D01*
X131809976Y-141042758D01*
X131888995Y-140894924D01*
X131888996Y-140894922D01*
X131995341Y-140765341D01*
X132124922Y-140658996D01*
X132140094Y-140650886D01*
X132272758Y-140579976D01*
X132433177Y-140531313D01*
X132558196Y-140519000D01*
X133441804Y-140519000D01*
X133566823Y-140531313D01*
G37*
G36*
X144584468Y-140153565D02*
G01*
X144623138Y-140165296D01*
X144658777Y-140184346D01*
X144690017Y-140209983D01*
X144715654Y-140241223D01*
X144734704Y-140276862D01*
X144746435Y-140315532D01*
X144751000Y-140361888D01*
X144751000Y-141013112D01*
X144746435Y-141059468D01*
X144734704Y-141098138D01*
X144715654Y-141133777D01*
X144690017Y-141165017D01*
X144658777Y-141190654D01*
X144623138Y-141209704D01*
X144584468Y-141221435D01*
X144538112Y-141226000D01*
X143461888Y-141226000D01*
X143415532Y-141221435D01*
X143376862Y-141209704D01*
X143341223Y-141190654D01*
X143309983Y-141165017D01*
X143284346Y-141133777D01*
X143265296Y-141098138D01*
X143253565Y-141059468D01*
X143249000Y-141013112D01*
X143249000Y-140361888D01*
X143253565Y-140315532D01*
X143265296Y-140276862D01*
X143284346Y-140241223D01*
X143309983Y-140209983D01*
X143341223Y-140184346D01*
X143376862Y-140165296D01*
X143415532Y-140153565D01*
X143461888Y-140149000D01*
X144538112Y-140149000D01*
X144584468Y-140153565D01*
G37*
G36*
X120566823Y-138571313D02*
G01*
X120727242Y-138619976D01*
X120808065Y-138663177D01*
X120875078Y-138698996D01*
X121004659Y-138805341D01*
X121111004Y-138934922D01*
X121111005Y-138934924D01*
X121190024Y-139082758D01*
X121238687Y-139243177D01*
X121255117Y-139410000D01*
X121238687Y-139576823D01*
X121190024Y-139737242D01*
X121119114Y-139869906D01*
X121111004Y-139885078D01*
X121004659Y-140014659D01*
X120875078Y-140121004D01*
X120875076Y-140121005D01*
X120727242Y-140200024D01*
X120566823Y-140248687D01*
X120441804Y-140261000D01*
X119558196Y-140261000D01*
X119433177Y-140248687D01*
X119272758Y-140200024D01*
X119124924Y-140121005D01*
X119124922Y-140121004D01*
X118995341Y-140014659D01*
X118888996Y-139885078D01*
X118880886Y-139869906D01*
X118809976Y-139737242D01*
X118761313Y-139576823D01*
X118744883Y-139410000D01*
X118761313Y-139243177D01*
X118809976Y-139082758D01*
X118888995Y-138934924D01*
X118888996Y-138934922D01*
X118995341Y-138805341D01*
X119124922Y-138698996D01*
X119191935Y-138663177D01*
X119272758Y-138619976D01*
X119433177Y-138571313D01*
X119558196Y-138559000D01*
X120441804Y-138559000D01*
X120566823Y-138571313D01*
G37*
G36*
X128186823Y-138571313D02*
G01*
X128347242Y-138619976D01*
X128428065Y-138663177D01*
X128495078Y-138698996D01*
X128624659Y-138805341D01*
X128731004Y-138934922D01*
X128731005Y-138934924D01*
X128810024Y-139082758D01*
X128858687Y-139243177D01*
X128875117Y-139410000D01*
X128858687Y-139576823D01*
X128810024Y-139737242D01*
X128739114Y-139869906D01*
X128731004Y-139885078D01*
X128624659Y-140014659D01*
X128495078Y-140121004D01*
X128495076Y-140121005D01*
X128347242Y-140200024D01*
X128186823Y-140248687D01*
X128061804Y-140261000D01*
X127178196Y-140261000D01*
X127053177Y-140248687D01*
X126892758Y-140200024D01*
X126744924Y-140121005D01*
X126744922Y-140121004D01*
X126615341Y-140014659D01*
X126508996Y-139885078D01*
X126500886Y-139869906D01*
X126429976Y-139737242D01*
X126381313Y-139576823D01*
X126364883Y-139410000D01*
X126381313Y-139243177D01*
X126429976Y-139082758D01*
X126508995Y-138934924D01*
X126508996Y-138934922D01*
X126615341Y-138805341D01*
X126744922Y-138698996D01*
X126811935Y-138663177D01*
X126892758Y-138619976D01*
X127053177Y-138571313D01*
X127178196Y-138559000D01*
X128061804Y-138559000D01*
X128186823Y-138571313D01*
G37*
G36*
X220345170Y-133997879D02*
G01*
X220639868Y-134056498D01*
X221195067Y-134286469D01*
X221456276Y-134461004D01*
X221694733Y-134620335D01*
X222119665Y-135045267D01*
X222262565Y-135259133D01*
X222453531Y-135544933D01*
X222683502Y-136100132D01*
X222723457Y-136301000D01*
X222800740Y-136689527D01*
X222800740Y-137290473D01*
X222767022Y-137459983D01*
X222683502Y-137879868D01*
X222453531Y-138435067D01*
X222301112Y-138663177D01*
X222119665Y-138934733D01*
X221694733Y-139359665D01*
X221480867Y-139502565D01*
X221195067Y-139693531D01*
X220639868Y-139923502D01*
X220345170Y-139982121D01*
X220050473Y-140040740D01*
X219449527Y-140040740D01*
X219154830Y-139982121D01*
X218860132Y-139923502D01*
X218304933Y-139693531D01*
X218019133Y-139502565D01*
X217805267Y-139359665D01*
X217380335Y-138934733D01*
X217198888Y-138663177D01*
X217046469Y-138435067D01*
X216816498Y-137879868D01*
X216732978Y-137459983D01*
X216699260Y-137290473D01*
X216699260Y-136689527D01*
X216776543Y-136301000D01*
X216816498Y-136100132D01*
X217046469Y-135544933D01*
X217237435Y-135259133D01*
X217380335Y-135045267D01*
X217805267Y-134620335D01*
X218043724Y-134461004D01*
X218304933Y-134286469D01*
X218860132Y-134056498D01*
X219154830Y-133997879D01*
X219449527Y-133939260D01*
X220050473Y-133939260D01*
X220345170Y-133997879D01*
G37*
G36*
X141186823Y-137991313D02*
G01*
X141347242Y-138039976D01*
X141479906Y-138110886D01*
X141495078Y-138118996D01*
X141624659Y-138225341D01*
X141731004Y-138354922D01*
X141731005Y-138354924D01*
X141810024Y-138502758D01*
X141858687Y-138663177D01*
X141875117Y-138830000D01*
X141858687Y-138996823D01*
X141810024Y-139157242D01*
X141795471Y-139184468D01*
X141731004Y-139305078D01*
X141624659Y-139434659D01*
X141495078Y-139541004D01*
X141495076Y-139541005D01*
X141347242Y-139620024D01*
X141186823Y-139668687D01*
X141061804Y-139681000D01*
X140178196Y-139681000D01*
X140053177Y-139668687D01*
X139892758Y-139620024D01*
X139744924Y-139541005D01*
X139744922Y-139541004D01*
X139615341Y-139434659D01*
X139508996Y-139305078D01*
X139444529Y-139184468D01*
X139429976Y-139157242D01*
X139381313Y-138996823D01*
X139364883Y-138830000D01*
X139381313Y-138663177D01*
X139429976Y-138502758D01*
X139508995Y-138354924D01*
X139508996Y-138354922D01*
X139615341Y-138225341D01*
X139744922Y-138118996D01*
X139760094Y-138110886D01*
X139892758Y-138039976D01*
X140053177Y-137991313D01*
X140178196Y-137979000D01*
X141061804Y-137979000D01*
X141186823Y-137991313D01*
G37*
G36*
X133566823Y-137991313D02*
G01*
X133727242Y-138039976D01*
X133859906Y-138110886D01*
X133875078Y-138118996D01*
X134004659Y-138225341D01*
X134111004Y-138354922D01*
X134111005Y-138354924D01*
X134190024Y-138502758D01*
X134238687Y-138663177D01*
X134255117Y-138830000D01*
X134238687Y-138996823D01*
X134190024Y-139157242D01*
X134175471Y-139184468D01*
X134111004Y-139305078D01*
X134004659Y-139434659D01*
X133875078Y-139541004D01*
X133875076Y-139541005D01*
X133727242Y-139620024D01*
X133566823Y-139668687D01*
X133441804Y-139681000D01*
X132558196Y-139681000D01*
X132433177Y-139668687D01*
X132272758Y-139620024D01*
X132124924Y-139541005D01*
X132124922Y-139541004D01*
X131995341Y-139434659D01*
X131888996Y-139305078D01*
X131824529Y-139184468D01*
X131809976Y-139157242D01*
X131761313Y-138996823D01*
X131744883Y-138830000D01*
X131761313Y-138663177D01*
X131809976Y-138502758D01*
X131888995Y-138354924D01*
X131888996Y-138354922D01*
X131995341Y-138225341D01*
X132124922Y-138118996D01*
X132140094Y-138110886D01*
X132272758Y-138039976D01*
X132433177Y-137991313D01*
X132558196Y-137979000D01*
X133441804Y-137979000D01*
X133566823Y-137991313D01*
G37*
G36*
X144584468Y-138278565D02*
G01*
X144623138Y-138290296D01*
X144658777Y-138309346D01*
X144690017Y-138334983D01*
X144715654Y-138366223D01*
X144734704Y-138401862D01*
X144746435Y-138440532D01*
X144751000Y-138486888D01*
X144751000Y-139138112D01*
X144746435Y-139184468D01*
X144734704Y-139223138D01*
X144715654Y-139258777D01*
X144690017Y-139290017D01*
X144658777Y-139315654D01*
X144623138Y-139334704D01*
X144584468Y-139346435D01*
X144538112Y-139351000D01*
X143461888Y-139351000D01*
X143415532Y-139346435D01*
X143376862Y-139334704D01*
X143341223Y-139315654D01*
X143309983Y-139290017D01*
X143284346Y-139258777D01*
X143265296Y-139223138D01*
X143253565Y-139184468D01*
X143249000Y-139138112D01*
X143249000Y-138486888D01*
X143253565Y-138440532D01*
X143265296Y-138401862D01*
X143284346Y-138366223D01*
X143309983Y-138334983D01*
X143341223Y-138309346D01*
X143376862Y-138290296D01*
X143415532Y-138278565D01*
X143461888Y-138274000D01*
X144538112Y-138274000D01*
X144584468Y-138278565D01*
G37*
G36*
X113868228Y-137471703D02*
G01*
X114023100Y-137535853D01*
X114162481Y-137628985D01*
X114281015Y-137747519D01*
X114374147Y-137886900D01*
X114438297Y-138041772D01*
X114471000Y-138206184D01*
X114471000Y-138373816D01*
X114438297Y-138538228D01*
X114374147Y-138693100D01*
X114281015Y-138832481D01*
X114162481Y-138951015D01*
X114023100Y-139044147D01*
X113868228Y-139108297D01*
X113703816Y-139141000D01*
X113536184Y-139141000D01*
X113371772Y-139108297D01*
X113216900Y-139044147D01*
X113077519Y-138951015D01*
X112958985Y-138832481D01*
X112865853Y-138693100D01*
X112801703Y-138538228D01*
X112769000Y-138373816D01*
X112769000Y-138206184D01*
X112801703Y-138041772D01*
X112865853Y-137886900D01*
X112958985Y-137747519D01*
X113077519Y-137628985D01*
X113216900Y-137535853D01*
X113371772Y-137471703D01*
X113536184Y-137439000D01*
X113703816Y-137439000D01*
X113868228Y-137471703D01*
G37*
G36*
X106248228Y-137471703D02*
G01*
X106403100Y-137535853D01*
X106542481Y-137628985D01*
X106661015Y-137747519D01*
X106754147Y-137886900D01*
X106818297Y-138041772D01*
X106851000Y-138206184D01*
X106851000Y-138373816D01*
X106818297Y-138538228D01*
X106754147Y-138693100D01*
X106661015Y-138832481D01*
X106542481Y-138951015D01*
X106403100Y-139044147D01*
X106248228Y-139108297D01*
X106083816Y-139141000D01*
X105916184Y-139141000D01*
X105751772Y-139108297D01*
X105596900Y-139044147D01*
X105457519Y-138951015D01*
X105338985Y-138832481D01*
X105245853Y-138693100D01*
X105181703Y-138538228D01*
X105149000Y-138373816D01*
X105149000Y-138206184D01*
X105181703Y-138041772D01*
X105245853Y-137886900D01*
X105338985Y-137747519D01*
X105457519Y-137628985D01*
X105596900Y-137535853D01*
X105751772Y-137471703D01*
X105916184Y-137439000D01*
X106083816Y-137439000D01*
X106248228Y-137471703D01*
G37*
G36*
X124334468Y-137403565D02*
G01*
X124373138Y-137415296D01*
X124408777Y-137434346D01*
X124440017Y-137459983D01*
X124465654Y-137491223D01*
X124484704Y-137526862D01*
X124496435Y-137565532D01*
X124501000Y-137611888D01*
X124501000Y-138263112D01*
X124496435Y-138309468D01*
X124484704Y-138348138D01*
X124465654Y-138383777D01*
X124440017Y-138415017D01*
X124408777Y-138440654D01*
X124373138Y-138459704D01*
X124334468Y-138471435D01*
X124288112Y-138476000D01*
X123211888Y-138476000D01*
X123165532Y-138471435D01*
X123126862Y-138459704D01*
X123091223Y-138440654D01*
X123059983Y-138415017D01*
X123034346Y-138383777D01*
X123015296Y-138348138D01*
X123003565Y-138309468D01*
X122999000Y-138263112D01*
X122999000Y-137611888D01*
X123003565Y-137565532D01*
X123015296Y-137526862D01*
X123034346Y-137491223D01*
X123059983Y-137459983D01*
X123091223Y-137434346D01*
X123126862Y-137415296D01*
X123165532Y-137403565D01*
X123211888Y-137399000D01*
X124288112Y-137399000D01*
X124334468Y-137403565D01*
G37*
G36*
X128186823Y-136031313D02*
G01*
X128347242Y-136079976D01*
X128428065Y-136123177D01*
X128495078Y-136158996D01*
X128624659Y-136265341D01*
X128731004Y-136394922D01*
X128731005Y-136394924D01*
X128810024Y-136542758D01*
X128810025Y-136542761D01*
X128817771Y-136568295D01*
X128858687Y-136703177D01*
X128875117Y-136870000D01*
X128858687Y-137036823D01*
X128810024Y-137197242D01*
X128760191Y-137290472D01*
X128731004Y-137345078D01*
X128624659Y-137474659D01*
X128495078Y-137581004D01*
X128495076Y-137581005D01*
X128347242Y-137660024D01*
X128186823Y-137708687D01*
X128061804Y-137721000D01*
X127178196Y-137721000D01*
X127053177Y-137708687D01*
X126892758Y-137660024D01*
X126744924Y-137581005D01*
X126744922Y-137581004D01*
X126615341Y-137474659D01*
X126508996Y-137345078D01*
X126479809Y-137290472D01*
X126429976Y-137197242D01*
X126381313Y-137036823D01*
X126364883Y-136870000D01*
X126381313Y-136703177D01*
X126422229Y-136568295D01*
X126429975Y-136542761D01*
X126429976Y-136542758D01*
X126508995Y-136394924D01*
X126508996Y-136394922D01*
X126615341Y-136265341D01*
X126744922Y-136158996D01*
X126811935Y-136123177D01*
X126892758Y-136079976D01*
X127053177Y-136031313D01*
X127178196Y-136019000D01*
X128061804Y-136019000D01*
X128186823Y-136031313D01*
G37*
G36*
X120566823Y-136031313D02*
G01*
X120727242Y-136079976D01*
X120808065Y-136123177D01*
X120875078Y-136158996D01*
X121004659Y-136265341D01*
X121111004Y-136394922D01*
X121111005Y-136394924D01*
X121190024Y-136542758D01*
X121190025Y-136542761D01*
X121197771Y-136568295D01*
X121238687Y-136703177D01*
X121255117Y-136870000D01*
X121238687Y-137036823D01*
X121190024Y-137197242D01*
X121140191Y-137290472D01*
X121111004Y-137345078D01*
X121004659Y-137474659D01*
X120875078Y-137581004D01*
X120875076Y-137581005D01*
X120727242Y-137660024D01*
X120566823Y-137708687D01*
X120441804Y-137721000D01*
X119558196Y-137721000D01*
X119433177Y-137708687D01*
X119272758Y-137660024D01*
X119124924Y-137581005D01*
X119124922Y-137581004D01*
X118995341Y-137474659D01*
X118888996Y-137345078D01*
X118859809Y-137290472D01*
X118809976Y-137197242D01*
X118761313Y-137036823D01*
X118744883Y-136870000D01*
X118761313Y-136703177D01*
X118802229Y-136568295D01*
X118809975Y-136542761D01*
X118809976Y-136542758D01*
X118888995Y-136394924D01*
X118888996Y-136394922D01*
X118995341Y-136265341D01*
X119124922Y-136158996D01*
X119191935Y-136123177D01*
X119272758Y-136079976D01*
X119433177Y-136031313D01*
X119558196Y-136019000D01*
X120441804Y-136019000D01*
X120566823Y-136031313D01*
G37*
G36*
X145151000Y-137401000D02*
G01*
X142849000Y-137401000D01*
X142849000Y-135099000D01*
X145151000Y-135099000D01*
X145151000Y-137401000D01*
G37*
G36*
X133566823Y-135451313D02*
G01*
X133727242Y-135499976D01*
X133833112Y-135556565D01*
X133875078Y-135578996D01*
X134004659Y-135685341D01*
X134111004Y-135814922D01*
X134111005Y-135814924D01*
X134190024Y-135962758D01*
X134238687Y-136123177D01*
X134255117Y-136290000D01*
X134238687Y-136456823D01*
X134190024Y-136617242D01*
X134151387Y-136689527D01*
X134111004Y-136765078D01*
X134004659Y-136894659D01*
X133875078Y-137001004D01*
X133875076Y-137001005D01*
X133727242Y-137080024D01*
X133566823Y-137128687D01*
X133441804Y-137141000D01*
X132558196Y-137141000D01*
X132433177Y-137128687D01*
X132272758Y-137080024D01*
X132124924Y-137001005D01*
X132124922Y-137001004D01*
X131995341Y-136894659D01*
X131888996Y-136765078D01*
X131848613Y-136689527D01*
X131809976Y-136617242D01*
X131761313Y-136456823D01*
X131744883Y-136290000D01*
X131761313Y-136123177D01*
X131809976Y-135962758D01*
X131888995Y-135814924D01*
X131888996Y-135814922D01*
X131995341Y-135685341D01*
X132124922Y-135578996D01*
X132166888Y-135556565D01*
X132272758Y-135499976D01*
X132433177Y-135451313D01*
X132558196Y-135439000D01*
X133441804Y-135439000D01*
X133566823Y-135451313D01*
G37*
G36*
X141186823Y-135451313D02*
G01*
X141347242Y-135499976D01*
X141453112Y-135556565D01*
X141495078Y-135578996D01*
X141624659Y-135685341D01*
X141731004Y-135814922D01*
X141731005Y-135814924D01*
X141810024Y-135962758D01*
X141858687Y-136123177D01*
X141875117Y-136290000D01*
X141858687Y-136456823D01*
X141810024Y-136617242D01*
X141771387Y-136689527D01*
X141731004Y-136765078D01*
X141624659Y-136894659D01*
X141495078Y-137001004D01*
X141495076Y-137001005D01*
X141347242Y-137080024D01*
X141186823Y-137128687D01*
X141061804Y-137141000D01*
X140178196Y-137141000D01*
X140053177Y-137128687D01*
X139892758Y-137080024D01*
X139744924Y-137001005D01*
X139744922Y-137001004D01*
X139615341Y-136894659D01*
X139508996Y-136765078D01*
X139468613Y-136689527D01*
X139429976Y-136617242D01*
X139381313Y-136456823D01*
X139364883Y-136290000D01*
X139381313Y-136123177D01*
X139429976Y-135962758D01*
X139508995Y-135814924D01*
X139508996Y-135814922D01*
X139615341Y-135685341D01*
X139744922Y-135578996D01*
X139786888Y-135556565D01*
X139892758Y-135499976D01*
X140053177Y-135451313D01*
X140178196Y-135439000D01*
X141061804Y-135439000D01*
X141186823Y-135451313D01*
G37*
G36*
X113868228Y-134931703D02*
G01*
X114023100Y-134995853D01*
X114162481Y-135088985D01*
X114281015Y-135207519D01*
X114374147Y-135346900D01*
X114438297Y-135501772D01*
X114471000Y-135666184D01*
X114471000Y-135833816D01*
X114438297Y-135998228D01*
X114374147Y-136153100D01*
X114281015Y-136292481D01*
X114162481Y-136411015D01*
X114023100Y-136504147D01*
X113868228Y-136568297D01*
X113703816Y-136601000D01*
X113536184Y-136601000D01*
X113371772Y-136568297D01*
X113216900Y-136504147D01*
X113077519Y-136411015D01*
X112958985Y-136292481D01*
X112865853Y-136153100D01*
X112801703Y-135998228D01*
X112769000Y-135833816D01*
X112769000Y-135666184D01*
X112801703Y-135501772D01*
X112865853Y-135346900D01*
X112958985Y-135207519D01*
X113077519Y-135088985D01*
X113216900Y-134995853D01*
X113371772Y-134931703D01*
X113536184Y-134899000D01*
X113703816Y-134899000D01*
X113868228Y-134931703D01*
G37*
G36*
X124334468Y-135528565D02*
G01*
X124373138Y-135540296D01*
X124408777Y-135559346D01*
X124440017Y-135584983D01*
X124465654Y-135616223D01*
X124484704Y-135651862D01*
X124496435Y-135690532D01*
X124501000Y-135736888D01*
X124501000Y-136388112D01*
X124496435Y-136434468D01*
X124484704Y-136473138D01*
X124465654Y-136508777D01*
X124440017Y-136540017D01*
X124408777Y-136565654D01*
X124373138Y-136584704D01*
X124334468Y-136596435D01*
X124288112Y-136601000D01*
X123211888Y-136601000D01*
X123165532Y-136596435D01*
X123126862Y-136584704D01*
X123091223Y-136565654D01*
X123059983Y-136540017D01*
X123034346Y-136508777D01*
X123015296Y-136473138D01*
X123003565Y-136434468D01*
X122999000Y-136388112D01*
X122999000Y-135736888D01*
X123003565Y-135690532D01*
X123015296Y-135651862D01*
X123034346Y-135616223D01*
X123059983Y-135584983D01*
X123091223Y-135559346D01*
X123126862Y-135540296D01*
X123165532Y-135528565D01*
X123211888Y-135524000D01*
X124288112Y-135524000D01*
X124334468Y-135528565D01*
G37*
G36*
X106851000Y-136601000D02*
G01*
X105149000Y-136601000D01*
X105149000Y-134899000D01*
X106851000Y-134899000D01*
X106851000Y-136601000D01*
G37*
G36*
X175095170Y-130377879D02*
G01*
X175389868Y-130436498D01*
X175945067Y-130666469D01*
X176127293Y-130788229D01*
X176444733Y-131000335D01*
X176869665Y-131425267D01*
X176944257Y-131536903D01*
X177203531Y-131924933D01*
X177433502Y-132480132D01*
X177550740Y-133069528D01*
X177550740Y-133670472D01*
X177433502Y-134259868D01*
X177203531Y-134815067D01*
X177049716Y-135045267D01*
X176869665Y-135314733D01*
X176444733Y-135739665D01*
X176303825Y-135833816D01*
X175945067Y-136073531D01*
X175389868Y-136303502D01*
X175095170Y-136362121D01*
X174800473Y-136420740D01*
X174199527Y-136420740D01*
X173904830Y-136362121D01*
X173610132Y-136303502D01*
X173054933Y-136073531D01*
X172696175Y-135833816D01*
X172555267Y-135739665D01*
X172130335Y-135314733D01*
X171950284Y-135045267D01*
X171796469Y-134815067D01*
X171566498Y-134259868D01*
X171449260Y-133670472D01*
X171449260Y-133069528D01*
X171566498Y-132480132D01*
X171796469Y-131924933D01*
X172055743Y-131536903D01*
X172130335Y-131425267D01*
X172555267Y-131000335D01*
X172872707Y-130788229D01*
X173054933Y-130666469D01*
X173610132Y-130436498D01*
X173904830Y-130377879D01*
X174199527Y-130319260D01*
X174800473Y-130319260D01*
X175095170Y-130377879D01*
G37*
G36*
X211306564Y-134239389D02*
G01*
X211420225Y-134286469D01*
X211497835Y-134318616D01*
X211514872Y-134330000D01*
X211669973Y-134433635D01*
X211816365Y-134580027D01*
X211931385Y-134752167D01*
X212010611Y-134943436D01*
X212051000Y-135146484D01*
X212051000Y-135353516D01*
X212010611Y-135556564D01*
X211934769Y-135739664D01*
X211931384Y-135747835D01*
X211816365Y-135919973D01*
X211669973Y-136066365D01*
X211497835Y-136181384D01*
X211497834Y-136181385D01*
X211497833Y-136181385D01*
X211306564Y-136260611D01*
X211103516Y-136301000D01*
X210896484Y-136301000D01*
X210693436Y-136260611D01*
X210502167Y-136181385D01*
X210502166Y-136181385D01*
X210502165Y-136181384D01*
X210330027Y-136066365D01*
X210183635Y-135919973D01*
X210068616Y-135747835D01*
X210065231Y-135739664D01*
X209989389Y-135556564D01*
X209949000Y-135353516D01*
X209949000Y-135146484D01*
X209989389Y-134943436D01*
X210068615Y-134752167D01*
X210183635Y-134580027D01*
X210330027Y-134433635D01*
X210485128Y-134330000D01*
X210502165Y-134318616D01*
X210579775Y-134286469D01*
X210693436Y-134239389D01*
X210896484Y-134199000D01*
X211103516Y-134199000D01*
X211306564Y-134239389D01*
G37*
G36*
X207051000Y-136301000D02*
G01*
X204949000Y-136301000D01*
X204949000Y-134199000D01*
X207051000Y-134199000D01*
X207051000Y-136301000D01*
G37*
G36*
X128186823Y-133491313D02*
G01*
X128347242Y-133539976D01*
X128428065Y-133583177D01*
X128495078Y-133618996D01*
X128624659Y-133725341D01*
X128731004Y-133854922D01*
X128731005Y-133854924D01*
X128810024Y-134002758D01*
X128858687Y-134163177D01*
X128875117Y-134330000D01*
X128858687Y-134496823D01*
X128810024Y-134657242D01*
X128759285Y-134752167D01*
X128731004Y-134805078D01*
X128624659Y-134934659D01*
X128495078Y-135041004D01*
X128495076Y-135041005D01*
X128347242Y-135120024D01*
X128186823Y-135168687D01*
X128061804Y-135181000D01*
X127178196Y-135181000D01*
X127053177Y-135168687D01*
X126892758Y-135120024D01*
X126744924Y-135041005D01*
X126744922Y-135041004D01*
X126615341Y-134934659D01*
X126508996Y-134805078D01*
X126480715Y-134752167D01*
X126429976Y-134657242D01*
X126381313Y-134496823D01*
X126364883Y-134330000D01*
X126381313Y-134163177D01*
X126429976Y-134002758D01*
X126508995Y-133854924D01*
X126508996Y-133854922D01*
X126615341Y-133725341D01*
X126744922Y-133618996D01*
X126811935Y-133583177D01*
X126892758Y-133539976D01*
X127053177Y-133491313D01*
X127178196Y-133479000D01*
X128061804Y-133479000D01*
X128186823Y-133491313D01*
G37*
G36*
X120566823Y-133491313D02*
G01*
X120727242Y-133539976D01*
X120808065Y-133583177D01*
X120875078Y-133618996D01*
X121004659Y-133725341D01*
X121111004Y-133854922D01*
X121111005Y-133854924D01*
X121190024Y-134002758D01*
X121238687Y-134163177D01*
X121255117Y-134330000D01*
X121238687Y-134496823D01*
X121190024Y-134657242D01*
X121139285Y-134752167D01*
X121111004Y-134805078D01*
X121004659Y-134934659D01*
X120875078Y-135041004D01*
X120875076Y-135041005D01*
X120727242Y-135120024D01*
X120566823Y-135168687D01*
X120441804Y-135181000D01*
X119558196Y-135181000D01*
X119433177Y-135168687D01*
X119272758Y-135120024D01*
X119124924Y-135041005D01*
X119124922Y-135041004D01*
X118995341Y-134934659D01*
X118888996Y-134805078D01*
X118860715Y-134752167D01*
X118809976Y-134657242D01*
X118761313Y-134496823D01*
X118744883Y-134330000D01*
X118761313Y-134163177D01*
X118809976Y-134002758D01*
X118888995Y-133854924D01*
X118888996Y-133854922D01*
X118995341Y-133725341D01*
X119124922Y-133618996D01*
X119191935Y-133583177D01*
X119272758Y-133539976D01*
X119433177Y-133491313D01*
X119558196Y-133479000D01*
X120441804Y-133479000D01*
X120566823Y-133491313D01*
G37*
G36*
X186423758Y-131391000D02*
G01*
X186531579Y-131412447D01*
X186832042Y-131536903D01*
X187102451Y-131717585D01*
X187332415Y-131947549D01*
X187513097Y-132217958D01*
X187637553Y-132518421D01*
X187701000Y-132837391D01*
X187701000Y-133162609D01*
X187637553Y-133481579D01*
X187513097Y-133782042D01*
X187332415Y-134052451D01*
X187102451Y-134282415D01*
X186832042Y-134463097D01*
X186531579Y-134587553D01*
X186463976Y-134601000D01*
X186212611Y-134651000D01*
X185887389Y-134651000D01*
X185636024Y-134601000D01*
X185568421Y-134587553D01*
X185267958Y-134463097D01*
X184997549Y-134282415D01*
X184767585Y-134052451D01*
X184586903Y-133782042D01*
X184462447Y-133481579D01*
X184399000Y-133162609D01*
X184399000Y-132837391D01*
X184462447Y-132518421D01*
X184586903Y-132217958D01*
X184767585Y-131947549D01*
X184997549Y-131717585D01*
X185267958Y-131536903D01*
X185568421Y-131412447D01*
X185676242Y-131391000D01*
X185887389Y-131349000D01*
X186212611Y-131349000D01*
X186423758Y-131391000D01*
G37*
G36*
X200401000Y-134651000D02*
G01*
X197099000Y-134651000D01*
X197099000Y-131349000D01*
X200401000Y-131349000D01*
X200401000Y-134651000D01*
G37*
G36*
X151373758Y-131391000D02*
G01*
X151481579Y-131412447D01*
X151782042Y-131536903D01*
X152052451Y-131717585D01*
X152282415Y-131947549D01*
X152463097Y-132217958D01*
X152587553Y-132518421D01*
X152651000Y-132837391D01*
X152651000Y-133162609D01*
X152587553Y-133481579D01*
X152463097Y-133782042D01*
X152282415Y-134052451D01*
X152052451Y-134282415D01*
X151782042Y-134463097D01*
X151481579Y-134587553D01*
X151413976Y-134601000D01*
X151162611Y-134651000D01*
X150837389Y-134651000D01*
X150586024Y-134601000D01*
X150518421Y-134587553D01*
X150217958Y-134463097D01*
X149947549Y-134282415D01*
X149717585Y-134052451D01*
X149536903Y-133782042D01*
X149412447Y-133481579D01*
X149349000Y-133162609D01*
X149349000Y-132837391D01*
X149412447Y-132518421D01*
X149536903Y-132217958D01*
X149717585Y-131947549D01*
X149947549Y-131717585D01*
X150217958Y-131536903D01*
X150518421Y-131412447D01*
X150626242Y-131391000D01*
X150837389Y-131349000D01*
X151162611Y-131349000D01*
X151373758Y-131391000D01*
G37*
G36*
X165351000Y-134651000D02*
G01*
X162049000Y-134651000D01*
X162049000Y-131349000D01*
X165351000Y-131349000D01*
X165351000Y-134651000D01*
G37*
G36*
X141186823Y-132911313D02*
G01*
X141347242Y-132959976D01*
X141479906Y-133030886D01*
X141495078Y-133038996D01*
X141624659Y-133145341D01*
X141731004Y-133274922D01*
X141731005Y-133274924D01*
X141810024Y-133422758D01*
X141858687Y-133583177D01*
X141875117Y-133750000D01*
X141858687Y-133916823D01*
X141810024Y-134077242D01*
X141764092Y-134163175D01*
X141731004Y-134225078D01*
X141624659Y-134354659D01*
X141495078Y-134461004D01*
X141495076Y-134461005D01*
X141347242Y-134540024D01*
X141186823Y-134588687D01*
X141061804Y-134601000D01*
X140178196Y-134601000D01*
X140053177Y-134588687D01*
X139892758Y-134540024D01*
X139744924Y-134461005D01*
X139744922Y-134461004D01*
X139615341Y-134354659D01*
X139508996Y-134225078D01*
X139475908Y-134163175D01*
X139429976Y-134077242D01*
X139381313Y-133916823D01*
X139364883Y-133750000D01*
X139381313Y-133583177D01*
X139429976Y-133422758D01*
X139508995Y-133274924D01*
X139508996Y-133274922D01*
X139615341Y-133145341D01*
X139744922Y-133038996D01*
X139760094Y-133030886D01*
X139892758Y-132959976D01*
X140053177Y-132911313D01*
X140178196Y-132899000D01*
X141061804Y-132899000D01*
X141186823Y-132911313D01*
G37*
G36*
X134251000Y-134601000D02*
G01*
X131749000Y-134601000D01*
X131749000Y-132899000D01*
X134251000Y-132899000D01*
X134251000Y-134601000D01*
G37*
G36*
X120566823Y-130951313D02*
G01*
X120727242Y-130999976D01*
X120859906Y-131070886D01*
X120875078Y-131078996D01*
X121004659Y-131185341D01*
X121111004Y-131314922D01*
X121111005Y-131314924D01*
X121190024Y-131462758D01*
X121238687Y-131623177D01*
X121255117Y-131790000D01*
X121238687Y-131956823D01*
X121190024Y-132117242D01*
X121136190Y-132217958D01*
X121111004Y-132265078D01*
X121004659Y-132394659D01*
X120875078Y-132501004D01*
X120875076Y-132501005D01*
X120727242Y-132580024D01*
X120566823Y-132628687D01*
X120441804Y-132641000D01*
X119558196Y-132641000D01*
X119433177Y-132628687D01*
X119272758Y-132580024D01*
X119124924Y-132501005D01*
X119124922Y-132501004D01*
X118995341Y-132394659D01*
X118888996Y-132265078D01*
X118863810Y-132217958D01*
X118809976Y-132117242D01*
X118761313Y-131956823D01*
X118744883Y-131790000D01*
X118761313Y-131623177D01*
X118809976Y-131462758D01*
X118888995Y-131314924D01*
X118888996Y-131314922D01*
X118995341Y-131185341D01*
X119124922Y-131078996D01*
X119140094Y-131070886D01*
X119272758Y-130999976D01*
X119433177Y-130951313D01*
X119558196Y-130939000D01*
X120441804Y-130939000D01*
X120566823Y-130951313D01*
G37*
G36*
X128186823Y-130951313D02*
G01*
X128347242Y-130999976D01*
X128479906Y-131070886D01*
X128495078Y-131078996D01*
X128624659Y-131185341D01*
X128731004Y-131314922D01*
X128731005Y-131314924D01*
X128810024Y-131462758D01*
X128858687Y-131623177D01*
X128875117Y-131790000D01*
X128858687Y-131956823D01*
X128810024Y-132117242D01*
X128756190Y-132217958D01*
X128731004Y-132265078D01*
X128624659Y-132394659D01*
X128495078Y-132501004D01*
X128495076Y-132501005D01*
X128347242Y-132580024D01*
X128186823Y-132628687D01*
X128061804Y-132641000D01*
X127178196Y-132641000D01*
X127053177Y-132628687D01*
X126892758Y-132580024D01*
X126744924Y-132501005D01*
X126744922Y-132501004D01*
X126615341Y-132394659D01*
X126508996Y-132265078D01*
X126483810Y-132217958D01*
X126429976Y-132117242D01*
X126381313Y-131956823D01*
X126364883Y-131790000D01*
X126381313Y-131623177D01*
X126429976Y-131462758D01*
X126508995Y-131314924D01*
X126508996Y-131314922D01*
X126615341Y-131185341D01*
X126744922Y-131078996D01*
X126760094Y-131070886D01*
X126892758Y-130999976D01*
X127053177Y-130951313D01*
X127178196Y-130939000D01*
X128061804Y-130939000D01*
X128186823Y-130951313D01*
G37*
G36*
X222800740Y-132420740D02*
G01*
X216699260Y-132420740D01*
X216699260Y-126319260D01*
X222800740Y-126319260D01*
X222800740Y-132420740D01*
G37*
G36*
X106248228Y-129721703D02*
G01*
X106403100Y-129785853D01*
X106542481Y-129878985D01*
X106661015Y-129997519D01*
X106754147Y-130136900D01*
X106818297Y-130291772D01*
X106851000Y-130456184D01*
X106851000Y-130623816D01*
X106818297Y-130788228D01*
X106754147Y-130943100D01*
X106661015Y-131082481D01*
X106542481Y-131201015D01*
X106403100Y-131294147D01*
X106248228Y-131358297D01*
X106083816Y-131391000D01*
X105916184Y-131391000D01*
X105751772Y-131358297D01*
X105596900Y-131294147D01*
X105457519Y-131201015D01*
X105338985Y-131082481D01*
X105245853Y-130943100D01*
X105181703Y-130788228D01*
X105149000Y-130623816D01*
X105149000Y-130456184D01*
X105181703Y-130291772D01*
X105245853Y-130136900D01*
X105338985Y-129997519D01*
X105457519Y-129878985D01*
X105596900Y-129785853D01*
X105751772Y-129721703D01*
X105916184Y-129689000D01*
X106083816Y-129689000D01*
X106248228Y-129721703D01*
G37*
G36*
X113868228Y-129721703D02*
G01*
X114023100Y-129785853D01*
X114162481Y-129878985D01*
X114281015Y-129997519D01*
X114374147Y-130136900D01*
X114438297Y-130291772D01*
X114471000Y-130456184D01*
X114471000Y-130623816D01*
X114438297Y-130788228D01*
X114374147Y-130943100D01*
X114281015Y-131082481D01*
X114162481Y-131201015D01*
X114023100Y-131294147D01*
X113868228Y-131358297D01*
X113703816Y-131391000D01*
X113536184Y-131391000D01*
X113371772Y-131358297D01*
X113216900Y-131294147D01*
X113077519Y-131201015D01*
X112958985Y-131082481D01*
X112865853Y-130943100D01*
X112801703Y-130788228D01*
X112769000Y-130623816D01*
X112769000Y-130456184D01*
X112801703Y-130291772D01*
X112865853Y-130136900D01*
X112958985Y-129997519D01*
X113077519Y-129878985D01*
X113216900Y-129785853D01*
X113371772Y-129721703D01*
X113536184Y-129689000D01*
X113703816Y-129689000D01*
X113868228Y-129721703D01*
G37*
G36*
X121251000Y-130101000D02*
G01*
X118749000Y-130101000D01*
X118749000Y-128399000D01*
X121251000Y-128399000D01*
X121251000Y-130101000D01*
G37*
G36*
X128186823Y-128411313D02*
G01*
X128347242Y-128459976D01*
X128479906Y-128530886D01*
X128495078Y-128538996D01*
X128624659Y-128645341D01*
X128731004Y-128774922D01*
X128731005Y-128774924D01*
X128810024Y-128922758D01*
X128858687Y-129083177D01*
X128875117Y-129250000D01*
X128858687Y-129416823D01*
X128810024Y-129577242D01*
X128750288Y-129689000D01*
X128731004Y-129725078D01*
X128624659Y-129854659D01*
X128495078Y-129961004D01*
X128495076Y-129961005D01*
X128347242Y-130040024D01*
X128186823Y-130088687D01*
X128061804Y-130101000D01*
X127178196Y-130101000D01*
X127053177Y-130088687D01*
X126892758Y-130040024D01*
X126744924Y-129961005D01*
X126744922Y-129961004D01*
X126615341Y-129854659D01*
X126508996Y-129725078D01*
X126489712Y-129689000D01*
X126429976Y-129577242D01*
X126381313Y-129416823D01*
X126364883Y-129250000D01*
X126381313Y-129083177D01*
X126429976Y-128922758D01*
X126508995Y-128774924D01*
X126508996Y-128774922D01*
X126615341Y-128645341D01*
X126744922Y-128538996D01*
X126760094Y-128530886D01*
X126892758Y-128459976D01*
X127053177Y-128411313D01*
X127178196Y-128399000D01*
X128061804Y-128399000D01*
X128186823Y-128411313D01*
G37*
G36*
X113868228Y-127181703D02*
G01*
X114023100Y-127245853D01*
X114162481Y-127338985D01*
X114281015Y-127457519D01*
X114374147Y-127596900D01*
X114438297Y-127751772D01*
X114471000Y-127916184D01*
X114471000Y-128083816D01*
X114438297Y-128248228D01*
X114374147Y-128403100D01*
X114281015Y-128542481D01*
X114162481Y-128661015D01*
X114023100Y-128754147D01*
X113868228Y-128818297D01*
X113703816Y-128851000D01*
X113536184Y-128851000D01*
X113371772Y-128818297D01*
X113216900Y-128754147D01*
X113077519Y-128661015D01*
X112958985Y-128542481D01*
X112865853Y-128403100D01*
X112801703Y-128248228D01*
X112769000Y-128083816D01*
X112769000Y-127916184D01*
X112801703Y-127751772D01*
X112865853Y-127596900D01*
X112958985Y-127457519D01*
X113077519Y-127338985D01*
X113216900Y-127245853D01*
X113371772Y-127181703D01*
X113536184Y-127149000D01*
X113703816Y-127149000D01*
X113868228Y-127181703D01*
G37*
G36*
X106851000Y-128851000D02*
G01*
X105149000Y-128851000D01*
X105149000Y-127149000D01*
X106851000Y-127149000D01*
X106851000Y-128851000D01*
G37*
G36*
X177550740Y-128800740D02*
G01*
X171449260Y-128800740D01*
X171449260Y-122699260D01*
X177550740Y-122699260D01*
X177550740Y-128800740D01*
G37*
G36*
X151375256Y-124391298D02*
G01*
X151481579Y-124412447D01*
X151782042Y-124536903D01*
X152052451Y-124717585D01*
X152282415Y-124947549D01*
X152463097Y-125217958D01*
X152559202Y-125449975D01*
X152587553Y-125518422D01*
X152636586Y-125764924D01*
X152651000Y-125837391D01*
X152651000Y-126162609D01*
X152587553Y-126481579D01*
X152463097Y-126782042D01*
X152282415Y-127052451D01*
X152052451Y-127282415D01*
X151782042Y-127463097D01*
X151481579Y-127587553D01*
X151434588Y-127596900D01*
X151162611Y-127651000D01*
X150837389Y-127651000D01*
X150565412Y-127596900D01*
X150518421Y-127587553D01*
X150217958Y-127463097D01*
X149947549Y-127282415D01*
X149717585Y-127052451D01*
X149536903Y-126782042D01*
X149412447Y-126481579D01*
X149349000Y-126162609D01*
X149349000Y-125837391D01*
X149363415Y-125764924D01*
X149412447Y-125518422D01*
X149440799Y-125449975D01*
X149536903Y-125217958D01*
X149717585Y-124947549D01*
X149947549Y-124717585D01*
X150217958Y-124536903D01*
X150518421Y-124412447D01*
X150624744Y-124391298D01*
X150837389Y-124349000D01*
X151162611Y-124349000D01*
X151375256Y-124391298D01*
G37*
G36*
X165351000Y-127651000D02*
G01*
X162049000Y-127651000D01*
X162049000Y-124349000D01*
X165351000Y-124349000D01*
X165351000Y-127651000D01*
G37*
G36*
X200401000Y-127651000D02*
G01*
X197099000Y-127651000D01*
X197099000Y-124349000D01*
X200401000Y-124349000D01*
X200401000Y-127651000D01*
G37*
G36*
X186425256Y-124391298D02*
G01*
X186531579Y-124412447D01*
X186832042Y-124536903D01*
X187102451Y-124717585D01*
X187332415Y-124947549D01*
X187513097Y-125217958D01*
X187609202Y-125449975D01*
X187637553Y-125518422D01*
X187686586Y-125764924D01*
X187701000Y-125837391D01*
X187701000Y-126162609D01*
X187637553Y-126481579D01*
X187513097Y-126782042D01*
X187332415Y-127052451D01*
X187102451Y-127282415D01*
X186832042Y-127463097D01*
X186531579Y-127587553D01*
X186484588Y-127596900D01*
X186212611Y-127651000D01*
X185887389Y-127651000D01*
X185615412Y-127596900D01*
X185568421Y-127587553D01*
X185267958Y-127463097D01*
X184997549Y-127282415D01*
X184767585Y-127052451D01*
X184586903Y-126782042D01*
X184462447Y-126481579D01*
X184399000Y-126162609D01*
X184399000Y-125837391D01*
X184413415Y-125764924D01*
X184462447Y-125518422D01*
X184490799Y-125449975D01*
X184586903Y-125217958D01*
X184767585Y-124947549D01*
X184997549Y-124717585D01*
X185267958Y-124536903D01*
X185568421Y-124412447D01*
X185674744Y-124391298D01*
X185887389Y-124349000D01*
X186212611Y-124349000D01*
X186425256Y-124391298D01*
G37*
G36*
X133566823Y-125401313D02*
G01*
X133727242Y-125449976D01*
X133855293Y-125518421D01*
X133875078Y-125528996D01*
X134004659Y-125635341D01*
X134111004Y-125764922D01*
X134111005Y-125764924D01*
X134190024Y-125912758D01*
X134238687Y-126073177D01*
X134255117Y-126240000D01*
X134238687Y-126406823D01*
X134190024Y-126567242D01*
X134119114Y-126699906D01*
X134111004Y-126715078D01*
X134004659Y-126844659D01*
X133875078Y-126951004D01*
X133875076Y-126951005D01*
X133727242Y-127030024D01*
X133566823Y-127078687D01*
X133441804Y-127091000D01*
X132558196Y-127091000D01*
X132433177Y-127078687D01*
X132272758Y-127030024D01*
X132124924Y-126951005D01*
X132124922Y-126951004D01*
X131995341Y-126844659D01*
X131888996Y-126715078D01*
X131880886Y-126699906D01*
X131809976Y-126567242D01*
X131761313Y-126406823D01*
X131744883Y-126240000D01*
X131761313Y-126073177D01*
X131809976Y-125912758D01*
X131888995Y-125764924D01*
X131888996Y-125764922D01*
X131995341Y-125635341D01*
X132124922Y-125528996D01*
X132144707Y-125518421D01*
X132272758Y-125449976D01*
X132433177Y-125401313D01*
X132558196Y-125389000D01*
X133441804Y-125389000D01*
X133566823Y-125401313D01*
G37*
G36*
X141186823Y-125401313D02*
G01*
X141347242Y-125449976D01*
X141475293Y-125518421D01*
X141495078Y-125528996D01*
X141624659Y-125635341D01*
X141731004Y-125764922D01*
X141731005Y-125764924D01*
X141810024Y-125912758D01*
X141858687Y-126073177D01*
X141875117Y-126240000D01*
X141858687Y-126406823D01*
X141810024Y-126567242D01*
X141739114Y-126699906D01*
X141731004Y-126715078D01*
X141624659Y-126844659D01*
X141495078Y-126951004D01*
X141495076Y-126951005D01*
X141347242Y-127030024D01*
X141186823Y-127078687D01*
X141061804Y-127091000D01*
X140178196Y-127091000D01*
X140053177Y-127078687D01*
X139892758Y-127030024D01*
X139744924Y-126951005D01*
X139744922Y-126951004D01*
X139615341Y-126844659D01*
X139508996Y-126715078D01*
X139500886Y-126699906D01*
X139429976Y-126567242D01*
X139381313Y-126406823D01*
X139364883Y-126240000D01*
X139381313Y-126073177D01*
X139429976Y-125912758D01*
X139508995Y-125764924D01*
X139508996Y-125764922D01*
X139615341Y-125635341D01*
X139744922Y-125528996D01*
X139764707Y-125518421D01*
X139892758Y-125449976D01*
X140053177Y-125401313D01*
X140178196Y-125389000D01*
X141061804Y-125389000D01*
X141186823Y-125401313D01*
G37*
G36*
X144224549Y-122531116D02*
G01*
X144335734Y-122553232D01*
X144545203Y-122639997D01*
X144733720Y-122765960D01*
X144894040Y-122926280D01*
X144944746Y-123002167D01*
X145020004Y-123114799D01*
X145106768Y-123324267D01*
X145148323Y-123533175D01*
X145151000Y-123546636D01*
X145151000Y-123773364D01*
X145106768Y-123995734D01*
X145020003Y-124205203D01*
X144894040Y-124393720D01*
X144733720Y-124554040D01*
X144545203Y-124680003D01*
X144335734Y-124766768D01*
X144224549Y-124788884D01*
X144113365Y-124811000D01*
X143886635Y-124811000D01*
X143775451Y-124788884D01*
X143664266Y-124766768D01*
X143454797Y-124680003D01*
X143266280Y-124554040D01*
X143105960Y-124393720D01*
X142979997Y-124205203D01*
X142893232Y-123995734D01*
X142849000Y-123773364D01*
X142849000Y-123546636D01*
X142851678Y-123533175D01*
X142893232Y-123324267D01*
X142979996Y-123114799D01*
X143055254Y-123002167D01*
X143105960Y-122926280D01*
X143266280Y-122765960D01*
X143454797Y-122639997D01*
X143664266Y-122553232D01*
X143775451Y-122531116D01*
X143886635Y-122509000D01*
X144113365Y-122509000D01*
X144224549Y-122531116D01*
G37*
G36*
X207051000Y-124551000D02*
G01*
X204949000Y-124551000D01*
X204949000Y-122449000D01*
X207051000Y-122449000D01*
X207051000Y-124551000D01*
G37*
G36*
X133566823Y-122861313D02*
G01*
X133727242Y-122909976D01*
X133859906Y-122980886D01*
X133875078Y-122988996D01*
X134004659Y-123095341D01*
X134111004Y-123224922D01*
X134111005Y-123224924D01*
X134190024Y-123372758D01*
X134238687Y-123533177D01*
X134255117Y-123700000D01*
X134238687Y-123866823D01*
X134190024Y-124027242D01*
X134119114Y-124159906D01*
X134111004Y-124175078D01*
X134004659Y-124304659D01*
X133875078Y-124411004D01*
X133875076Y-124411005D01*
X133727242Y-124490024D01*
X133566823Y-124538687D01*
X133441804Y-124551000D01*
X132558196Y-124551000D01*
X132433177Y-124538687D01*
X132272758Y-124490024D01*
X132124924Y-124411005D01*
X132124922Y-124411004D01*
X131995341Y-124304659D01*
X131888996Y-124175078D01*
X131880886Y-124159906D01*
X131809976Y-124027242D01*
X131761313Y-123866823D01*
X131744883Y-123700000D01*
X131761313Y-123533177D01*
X131809976Y-123372758D01*
X131888995Y-123224924D01*
X131888996Y-123224922D01*
X131995341Y-123095341D01*
X132124922Y-122988996D01*
X132140094Y-122980886D01*
X132272758Y-122909976D01*
X132433177Y-122861313D01*
X132558196Y-122849000D01*
X133441804Y-122849000D01*
X133566823Y-122861313D01*
G37*
G36*
X141186823Y-122861313D02*
G01*
X141347242Y-122909976D01*
X141479906Y-122980886D01*
X141495078Y-122988996D01*
X141624659Y-123095341D01*
X141731004Y-123224922D01*
X141731005Y-123224924D01*
X141810024Y-123372758D01*
X141858687Y-123533177D01*
X141875117Y-123700000D01*
X141858687Y-123866823D01*
X141810024Y-124027242D01*
X141739114Y-124159906D01*
X141731004Y-124175078D01*
X141624659Y-124304659D01*
X141495078Y-124411004D01*
X141495076Y-124411005D01*
X141347242Y-124490024D01*
X141186823Y-124538687D01*
X141061804Y-124551000D01*
X140178196Y-124551000D01*
X140053177Y-124538687D01*
X139892758Y-124490024D01*
X139744924Y-124411005D01*
X139744922Y-124411004D01*
X139615341Y-124304659D01*
X139508996Y-124175078D01*
X139500886Y-124159906D01*
X139429976Y-124027242D01*
X139381313Y-123866823D01*
X139364883Y-123700000D01*
X139381313Y-123533177D01*
X139429976Y-123372758D01*
X139508995Y-123224924D01*
X139508996Y-123224922D01*
X139615341Y-123095341D01*
X139744922Y-122988996D01*
X139760094Y-122980886D01*
X139892758Y-122909976D01*
X140053177Y-122861313D01*
X140178196Y-122849000D01*
X141061804Y-122849000D01*
X141186823Y-122861313D01*
G37*
G36*
X211306564Y-122489389D02*
G01*
X211497833Y-122568615D01*
X211497835Y-122568616D01*
X211669973Y-122683635D01*
X211816365Y-122830027D01*
X211922585Y-122988996D01*
X211931385Y-123002167D01*
X212010611Y-123193436D01*
X212051000Y-123396484D01*
X212051000Y-123603516D01*
X212010611Y-123806564D01*
X211985651Y-123866823D01*
X211931384Y-123997835D01*
X211816365Y-124169973D01*
X211669973Y-124316365D01*
X211497835Y-124431384D01*
X211497834Y-124431385D01*
X211497833Y-124431385D01*
X211306564Y-124510611D01*
X211103516Y-124551000D01*
X210896484Y-124551000D01*
X210693436Y-124510611D01*
X210502167Y-124431385D01*
X210502166Y-124431385D01*
X210502165Y-124431384D01*
X210330027Y-124316365D01*
X210183635Y-124169973D01*
X210068616Y-123997835D01*
X210014349Y-123866823D01*
X209989389Y-123806564D01*
X209949000Y-123603516D01*
X209949000Y-123396484D01*
X209989389Y-123193436D01*
X210068615Y-123002167D01*
X210077416Y-122988996D01*
X210183635Y-122830027D01*
X210330027Y-122683635D01*
X210502165Y-122568616D01*
X210502167Y-122568615D01*
X210693436Y-122489389D01*
X210896484Y-122449000D01*
X211103516Y-122449000D01*
X211306564Y-122489389D01*
G37*
G36*
X119863512Y-121353927D02*
G01*
X120012812Y-121383624D01*
X120176784Y-121451544D01*
X120324354Y-121550147D01*
X120449853Y-121675646D01*
X120548456Y-121823216D01*
X120616376Y-121987188D01*
X120651000Y-122161259D01*
X120651000Y-122338741D01*
X120616376Y-122512812D01*
X120548456Y-122676784D01*
X120449853Y-122824354D01*
X120324354Y-122949853D01*
X120176784Y-123048456D01*
X120012812Y-123116376D01*
X119863512Y-123146073D01*
X119838742Y-123151000D01*
X119661258Y-123151000D01*
X119636488Y-123146073D01*
X119487188Y-123116376D01*
X119323216Y-123048456D01*
X119175646Y-122949853D01*
X119050147Y-122824354D01*
X118951544Y-122676784D01*
X118883624Y-122512812D01*
X118849000Y-122338741D01*
X118849000Y-122161259D01*
X118883624Y-121987188D01*
X118951544Y-121823216D01*
X119050147Y-121675646D01*
X119175646Y-121550147D01*
X119323216Y-121451544D01*
X119487188Y-121383624D01*
X119636488Y-121353927D01*
X119661258Y-121349000D01*
X119838742Y-121349000D01*
X119863512Y-121353927D01*
G37*
G36*
X136334468Y-121653565D02*
G01*
X136373138Y-121665296D01*
X136408777Y-121684346D01*
X136440017Y-121709983D01*
X136465654Y-121741223D01*
X136484704Y-121776862D01*
X136496435Y-121815532D01*
X136501000Y-121861888D01*
X136501000Y-122513112D01*
X136496435Y-122559468D01*
X136484704Y-122598138D01*
X136465654Y-122633777D01*
X136440017Y-122665017D01*
X136408777Y-122690654D01*
X136373138Y-122709704D01*
X136334468Y-122721435D01*
X136288112Y-122726000D01*
X135211888Y-122726000D01*
X135165532Y-122721435D01*
X135126862Y-122709704D01*
X135091223Y-122690654D01*
X135059983Y-122665017D01*
X135034346Y-122633777D01*
X135015296Y-122598138D01*
X135003565Y-122559468D01*
X134999000Y-122513112D01*
X134999000Y-121861888D01*
X135003565Y-121815532D01*
X135015296Y-121776862D01*
X135034346Y-121741223D01*
X135059983Y-121709983D01*
X135091223Y-121684346D01*
X135126862Y-121665296D01*
X135165532Y-121653565D01*
X135211888Y-121649000D01*
X136288112Y-121649000D01*
X136334468Y-121653565D01*
G37*
G36*
X141186823Y-120321313D02*
G01*
X141347242Y-120369976D01*
X141479906Y-120440886D01*
X141495078Y-120448996D01*
X141624659Y-120555341D01*
X141731004Y-120684922D01*
X141731005Y-120684924D01*
X141810024Y-120832758D01*
X141858687Y-120993177D01*
X141875117Y-121160000D01*
X141858687Y-121326823D01*
X141810024Y-121487242D01*
X141776400Y-121550148D01*
X141731004Y-121635078D01*
X141624659Y-121764659D01*
X141495078Y-121871004D01*
X141495076Y-121871005D01*
X141347242Y-121950024D01*
X141186823Y-121998687D01*
X141061804Y-122011000D01*
X140178196Y-122011000D01*
X140053177Y-121998687D01*
X139892758Y-121950024D01*
X139744924Y-121871005D01*
X139744922Y-121871004D01*
X139615341Y-121764659D01*
X139508996Y-121635078D01*
X139463600Y-121550148D01*
X139429976Y-121487242D01*
X139381313Y-121326823D01*
X139364883Y-121160000D01*
X139381313Y-120993177D01*
X139429976Y-120832758D01*
X139508995Y-120684924D01*
X139508996Y-120684922D01*
X139615341Y-120555341D01*
X139744922Y-120448996D01*
X139760094Y-120440886D01*
X139892758Y-120369976D01*
X140053177Y-120321313D01*
X140178196Y-120309000D01*
X141061804Y-120309000D01*
X141186823Y-120321313D01*
G37*
G36*
X133566823Y-120321313D02*
G01*
X133727242Y-120369976D01*
X133859906Y-120440886D01*
X133875078Y-120448996D01*
X134004659Y-120555341D01*
X134111004Y-120684922D01*
X134111005Y-120684924D01*
X134190024Y-120832758D01*
X134238687Y-120993177D01*
X134255117Y-121160000D01*
X134238687Y-121326823D01*
X134190024Y-121487242D01*
X134156400Y-121550148D01*
X134111004Y-121635078D01*
X134004659Y-121764659D01*
X133875078Y-121871004D01*
X133875076Y-121871005D01*
X133727242Y-121950024D01*
X133566823Y-121998687D01*
X133441804Y-122011000D01*
X132558196Y-122011000D01*
X132433177Y-121998687D01*
X132272758Y-121950024D01*
X132124924Y-121871005D01*
X132124922Y-121871004D01*
X131995341Y-121764659D01*
X131888996Y-121635078D01*
X131843600Y-121550148D01*
X131809976Y-121487242D01*
X131761313Y-121326823D01*
X131744883Y-121160000D01*
X131761313Y-120993177D01*
X131809976Y-120832758D01*
X131888995Y-120684924D01*
X131888996Y-120684922D01*
X131995341Y-120555341D01*
X132124922Y-120448996D01*
X132140094Y-120440886D01*
X132272758Y-120369976D01*
X132433177Y-120321313D01*
X132558196Y-120309000D01*
X133441804Y-120309000D01*
X133566823Y-120321313D01*
G37*
G36*
X126748228Y-119681703D02*
G01*
X126903100Y-119745853D01*
X127042481Y-119838985D01*
X127161015Y-119957519D01*
X127254147Y-120096900D01*
X127318297Y-120251772D01*
X127351000Y-120416184D01*
X127351000Y-120583816D01*
X127318297Y-120748228D01*
X127254147Y-120903100D01*
X127161015Y-121042481D01*
X127042481Y-121161015D01*
X126903100Y-121254147D01*
X126748228Y-121318297D01*
X126583816Y-121351000D01*
X126416184Y-121351000D01*
X126251772Y-121318297D01*
X126096900Y-121254147D01*
X125957519Y-121161015D01*
X125838985Y-121042481D01*
X125745853Y-120903100D01*
X125681703Y-120748228D01*
X125649000Y-120583816D01*
X125649000Y-120416184D01*
X125681703Y-120251772D01*
X125745853Y-120096900D01*
X125838985Y-119957519D01*
X125957519Y-119838985D01*
X126096900Y-119745853D01*
X126251772Y-119681703D01*
X126416184Y-119649000D01*
X126583816Y-119649000D01*
X126748228Y-119681703D01*
G37*
G36*
X124851000Y-121351000D02*
G01*
X123149000Y-121351000D01*
X123149000Y-119649000D01*
X124851000Y-119649000D01*
X124851000Y-121351000D01*
G37*
G36*
X136334468Y-119778565D02*
G01*
X136373138Y-119790296D01*
X136408777Y-119809346D01*
X136440017Y-119834983D01*
X136465654Y-119866223D01*
X136484704Y-119901862D01*
X136496435Y-119940532D01*
X136501000Y-119986888D01*
X136501000Y-120638112D01*
X136496435Y-120684468D01*
X136484704Y-120723138D01*
X136465654Y-120758777D01*
X136440017Y-120790017D01*
X136408777Y-120815654D01*
X136373138Y-120834704D01*
X136334468Y-120846435D01*
X136288112Y-120851000D01*
X135211888Y-120851000D01*
X135165532Y-120846435D01*
X135126862Y-120834704D01*
X135091223Y-120815654D01*
X135059983Y-120790017D01*
X135034346Y-120758777D01*
X135015296Y-120723138D01*
X135003565Y-120684468D01*
X134999000Y-120638112D01*
X134999000Y-119986888D01*
X135003565Y-119940532D01*
X135015296Y-119901862D01*
X135034346Y-119866223D01*
X135059983Y-119834983D01*
X135091223Y-119809346D01*
X135126862Y-119790296D01*
X135165532Y-119778565D01*
X135211888Y-119774000D01*
X136288112Y-119774000D01*
X136334468Y-119778565D01*
G37*
G36*
X120651000Y-120611000D02*
G01*
X118849000Y-120611000D01*
X118849000Y-118809000D01*
X120651000Y-118809000D01*
X120651000Y-120611000D01*
G37*
G36*
X141186823Y-117781313D02*
G01*
X141347242Y-117829976D01*
X141479906Y-117900886D01*
X141495078Y-117908996D01*
X141624659Y-118015341D01*
X141731004Y-118144922D01*
X141731005Y-118144924D01*
X141810024Y-118292758D01*
X141858687Y-118453177D01*
X141875117Y-118620000D01*
X141858687Y-118786823D01*
X141810024Y-118947242D01*
X141739114Y-119079906D01*
X141731004Y-119095078D01*
X141624659Y-119224659D01*
X141495078Y-119331004D01*
X141495076Y-119331005D01*
X141347242Y-119410024D01*
X141186823Y-119458687D01*
X141061804Y-119471000D01*
X140178196Y-119471000D01*
X140053177Y-119458687D01*
X139892758Y-119410024D01*
X139744924Y-119331005D01*
X139744922Y-119331004D01*
X139615341Y-119224659D01*
X139508996Y-119095078D01*
X139500886Y-119079906D01*
X139429976Y-118947242D01*
X139381313Y-118786823D01*
X139364883Y-118620000D01*
X139381313Y-118453177D01*
X139429976Y-118292758D01*
X139508995Y-118144924D01*
X139508996Y-118144922D01*
X139615341Y-118015341D01*
X139744922Y-117908996D01*
X139760094Y-117900886D01*
X139892758Y-117829976D01*
X140053177Y-117781313D01*
X140178196Y-117769000D01*
X141061804Y-117769000D01*
X141186823Y-117781313D01*
G37*
G36*
X133566823Y-117781313D02*
G01*
X133727242Y-117829976D01*
X133859906Y-117900886D01*
X133875078Y-117908996D01*
X134004659Y-118015341D01*
X134111004Y-118144922D01*
X134111005Y-118144924D01*
X134190024Y-118292758D01*
X134238687Y-118453177D01*
X134255117Y-118620000D01*
X134238687Y-118786823D01*
X134190024Y-118947242D01*
X134119114Y-119079906D01*
X134111004Y-119095078D01*
X134004659Y-119224659D01*
X133875078Y-119331004D01*
X133875076Y-119331005D01*
X133727242Y-119410024D01*
X133566823Y-119458687D01*
X133441804Y-119471000D01*
X132558196Y-119471000D01*
X132433177Y-119458687D01*
X132272758Y-119410024D01*
X132124924Y-119331005D01*
X132124922Y-119331004D01*
X131995341Y-119224659D01*
X131888996Y-119095078D01*
X131880886Y-119079906D01*
X131809976Y-118947242D01*
X131761313Y-118786823D01*
X131744883Y-118620000D01*
X131761313Y-118453177D01*
X131809976Y-118292758D01*
X131888995Y-118144924D01*
X131888996Y-118144922D01*
X131995341Y-118015341D01*
X132124922Y-117908996D01*
X132140094Y-117900886D01*
X132272758Y-117829976D01*
X132433177Y-117781313D01*
X132558196Y-117769000D01*
X133441804Y-117769000D01*
X133566823Y-117781313D01*
G37*
G36*
X144584468Y-117403565D02*
G01*
X144623138Y-117415296D01*
X144658777Y-117434346D01*
X144690017Y-117459983D01*
X144715654Y-117491223D01*
X144734704Y-117526862D01*
X144746435Y-117565532D01*
X144751000Y-117611888D01*
X144751000Y-118263112D01*
X144746435Y-118309468D01*
X144734704Y-118348138D01*
X144715654Y-118383777D01*
X144690017Y-118415017D01*
X144658777Y-118440654D01*
X144623138Y-118459704D01*
X144584468Y-118471435D01*
X144538112Y-118476000D01*
X143461888Y-118476000D01*
X143415532Y-118471435D01*
X143376862Y-118459704D01*
X143341223Y-118440654D01*
X143309983Y-118415017D01*
X143284346Y-118383777D01*
X143265296Y-118348138D01*
X143253565Y-118309468D01*
X143249000Y-118263112D01*
X143249000Y-117611888D01*
X143253565Y-117565532D01*
X143265296Y-117526862D01*
X143284346Y-117491223D01*
X143309983Y-117459983D01*
X143341223Y-117434346D01*
X143376862Y-117415296D01*
X143415532Y-117403565D01*
X143461888Y-117399000D01*
X144538112Y-117399000D01*
X144584468Y-117403565D01*
G37*
G36*
X133566823Y-115241313D02*
G01*
X133727242Y-115289976D01*
X133776612Y-115316365D01*
X133875078Y-115368996D01*
X134004659Y-115475341D01*
X134111004Y-115604922D01*
X134111005Y-115604924D01*
X134190024Y-115752758D01*
X134238687Y-115913177D01*
X134255117Y-116080000D01*
X134238687Y-116246823D01*
X134190024Y-116407242D01*
X134175471Y-116434468D01*
X134111004Y-116555078D01*
X134004659Y-116684659D01*
X133875078Y-116791004D01*
X133875076Y-116791005D01*
X133727242Y-116870024D01*
X133566823Y-116918687D01*
X133441804Y-116931000D01*
X132558196Y-116931000D01*
X132433177Y-116918687D01*
X132272758Y-116870024D01*
X132124924Y-116791005D01*
X132124922Y-116791004D01*
X131995341Y-116684659D01*
X131888996Y-116555078D01*
X131824529Y-116434468D01*
X131809976Y-116407242D01*
X131761313Y-116246823D01*
X131744883Y-116080000D01*
X131761313Y-115913177D01*
X131809976Y-115752758D01*
X131888995Y-115604924D01*
X131888996Y-115604922D01*
X131995341Y-115475341D01*
X132124922Y-115368996D01*
X132223388Y-115316365D01*
X132272758Y-115289976D01*
X132433177Y-115241313D01*
X132558196Y-115229000D01*
X133441804Y-115229000D01*
X133566823Y-115241313D01*
G37*
G36*
X141186823Y-115241313D02*
G01*
X141347242Y-115289976D01*
X141396612Y-115316365D01*
X141495078Y-115368996D01*
X141624659Y-115475341D01*
X141731004Y-115604922D01*
X141731005Y-115604924D01*
X141810024Y-115752758D01*
X141858687Y-115913177D01*
X141875117Y-116080000D01*
X141858687Y-116246823D01*
X141810024Y-116407242D01*
X141795471Y-116434468D01*
X141731004Y-116555078D01*
X141624659Y-116684659D01*
X141495078Y-116791004D01*
X141495076Y-116791005D01*
X141347242Y-116870024D01*
X141186823Y-116918687D01*
X141061804Y-116931000D01*
X140178196Y-116931000D01*
X140053177Y-116918687D01*
X139892758Y-116870024D01*
X139744924Y-116791005D01*
X139744922Y-116791004D01*
X139615341Y-116684659D01*
X139508996Y-116555078D01*
X139444529Y-116434468D01*
X139429976Y-116407242D01*
X139381313Y-116246823D01*
X139364883Y-116080000D01*
X139381313Y-115913177D01*
X139429976Y-115752758D01*
X139508995Y-115604924D01*
X139508996Y-115604922D01*
X139615341Y-115475341D01*
X139744922Y-115368996D01*
X139843388Y-115316365D01*
X139892758Y-115289976D01*
X140053177Y-115241313D01*
X140178196Y-115229000D01*
X141061804Y-115229000D01*
X141186823Y-115241313D01*
G37*
G36*
X144584468Y-115528565D02*
G01*
X144623138Y-115540296D01*
X144658777Y-115559346D01*
X144690017Y-115584983D01*
X144715654Y-115616223D01*
X144734704Y-115651862D01*
X144746435Y-115690532D01*
X144751000Y-115736888D01*
X144751000Y-116388112D01*
X144746435Y-116434468D01*
X144734704Y-116473138D01*
X144715654Y-116508777D01*
X144690017Y-116540017D01*
X144658777Y-116565654D01*
X144623138Y-116584704D01*
X144584468Y-116596435D01*
X144538112Y-116601000D01*
X143461888Y-116601000D01*
X143415532Y-116596435D01*
X143376862Y-116584704D01*
X143341223Y-116565654D01*
X143309983Y-116540017D01*
X143284346Y-116508777D01*
X143265296Y-116473138D01*
X143253565Y-116434468D01*
X143249000Y-116388112D01*
X143249000Y-115736888D01*
X143253565Y-115690532D01*
X143265296Y-115651862D01*
X143284346Y-115616223D01*
X143309983Y-115584983D01*
X143341223Y-115559346D01*
X143376862Y-115540296D01*
X143415532Y-115528565D01*
X143461888Y-115524000D01*
X144538112Y-115524000D01*
X144584468Y-115528565D01*
G37*
G36*
X124301000Y-115753500D02*
G01*
X122199000Y-115753500D01*
X122199000Y-113746500D01*
X124301000Y-113746500D01*
X124301000Y-115753500D01*
G37*
G36*
X206306564Y-113489389D02*
G01*
X206497833Y-113568615D01*
X206497835Y-113568616D01*
X206669973Y-113683635D01*
X206816365Y-113830027D01*
X206924073Y-113991223D01*
X206931385Y-114002167D01*
X207010611Y-114193436D01*
X207051000Y-114396484D01*
X207051000Y-114603516D01*
X207010611Y-114806564D01*
X206931385Y-114997833D01*
X206931384Y-114997835D01*
X206816365Y-115169973D01*
X206669973Y-115316365D01*
X206497835Y-115431384D01*
X206497834Y-115431385D01*
X206497833Y-115431385D01*
X206306564Y-115510611D01*
X206103516Y-115551000D01*
X205896484Y-115551000D01*
X205693436Y-115510611D01*
X205502167Y-115431385D01*
X205502166Y-115431385D01*
X205502165Y-115431384D01*
X205330027Y-115316365D01*
X205183635Y-115169973D01*
X205068616Y-114997835D01*
X205068615Y-114997833D01*
X204989389Y-114806564D01*
X204949000Y-114603516D01*
X204949000Y-114396484D01*
X204989389Y-114193436D01*
X205068615Y-114002167D01*
X205075928Y-113991223D01*
X205183635Y-113830027D01*
X205330027Y-113683635D01*
X205502165Y-113568616D01*
X205502167Y-113568615D01*
X205693436Y-113489389D01*
X205896484Y-113449000D01*
X206103516Y-113449000D01*
X206306564Y-113489389D01*
G37*
G36*
X216306564Y-113489389D02*
G01*
X216497833Y-113568615D01*
X216497835Y-113568616D01*
X216669973Y-113683635D01*
X216816365Y-113830027D01*
X216924073Y-113991223D01*
X216931385Y-114002167D01*
X217010611Y-114193436D01*
X217051000Y-114396484D01*
X217051000Y-114603516D01*
X217010611Y-114806564D01*
X216931385Y-114997833D01*
X216931384Y-114997835D01*
X216816365Y-115169973D01*
X216669973Y-115316365D01*
X216497835Y-115431384D01*
X216497834Y-115431385D01*
X216497833Y-115431385D01*
X216306564Y-115510611D01*
X216103516Y-115551000D01*
X215896484Y-115551000D01*
X215693436Y-115510611D01*
X215502167Y-115431385D01*
X215502166Y-115431385D01*
X215502165Y-115431384D01*
X215330027Y-115316365D01*
X215183635Y-115169973D01*
X215068616Y-114997835D01*
X215068615Y-114997833D01*
X214989389Y-114806564D01*
X214949000Y-114603516D01*
X214949000Y-114396484D01*
X214989389Y-114193436D01*
X215068615Y-114002167D01*
X215075928Y-113991223D01*
X215183635Y-113830027D01*
X215330027Y-113683635D01*
X215502165Y-113568616D01*
X215502167Y-113568615D01*
X215693436Y-113489389D01*
X215896484Y-113449000D01*
X216103516Y-113449000D01*
X216306564Y-113489389D01*
G37*
G36*
X120584468Y-113903565D02*
G01*
X120623138Y-113915296D01*
X120658777Y-113934346D01*
X120690017Y-113959983D01*
X120715654Y-113991223D01*
X120734704Y-114026862D01*
X120746435Y-114065532D01*
X120751000Y-114111888D01*
X120751000Y-114763112D01*
X120746435Y-114809468D01*
X120734704Y-114848138D01*
X120715654Y-114883777D01*
X120690017Y-114915017D01*
X120658777Y-114940654D01*
X120623138Y-114959704D01*
X120584468Y-114971435D01*
X120538112Y-114976000D01*
X119461888Y-114976000D01*
X119415532Y-114971435D01*
X119376862Y-114959704D01*
X119341223Y-114940654D01*
X119309983Y-114915017D01*
X119284346Y-114883777D01*
X119265296Y-114848138D01*
X119253565Y-114809468D01*
X119249000Y-114763112D01*
X119249000Y-114111888D01*
X119253565Y-114065532D01*
X119265296Y-114026862D01*
X119284346Y-113991223D01*
X119309983Y-113959983D01*
X119341223Y-113934346D01*
X119376862Y-113915296D01*
X119415532Y-113903565D01*
X119461888Y-113899000D01*
X120538112Y-113899000D01*
X120584468Y-113903565D01*
G37*
G36*
X145151000Y-114651000D02*
G01*
X142849000Y-114651000D01*
X142849000Y-112349000D01*
X145151000Y-112349000D01*
X145151000Y-114651000D01*
G37*
G36*
X133566823Y-112701313D02*
G01*
X133727242Y-112749976D01*
X133859906Y-112820886D01*
X133875078Y-112828996D01*
X134004659Y-112935341D01*
X134111004Y-113064922D01*
X134111005Y-113064924D01*
X134190024Y-113212758D01*
X134238687Y-113373177D01*
X134255117Y-113540000D01*
X134238687Y-113706823D01*
X134190024Y-113867242D01*
X134148794Y-113944377D01*
X134111004Y-114015078D01*
X134004659Y-114144659D01*
X133875078Y-114251004D01*
X133875076Y-114251005D01*
X133727242Y-114330024D01*
X133566823Y-114378687D01*
X133441804Y-114391000D01*
X132558196Y-114391000D01*
X132433177Y-114378687D01*
X132272758Y-114330024D01*
X132124924Y-114251005D01*
X132124922Y-114251004D01*
X131995341Y-114144659D01*
X131888996Y-114015078D01*
X131851206Y-113944377D01*
X131809976Y-113867242D01*
X131761313Y-113706823D01*
X131744883Y-113540000D01*
X131761313Y-113373177D01*
X131809976Y-113212758D01*
X131888995Y-113064924D01*
X131888996Y-113064922D01*
X131995341Y-112935341D01*
X132124922Y-112828996D01*
X132140094Y-112820886D01*
X132272758Y-112749976D01*
X132433177Y-112701313D01*
X132558196Y-112689000D01*
X133441804Y-112689000D01*
X133566823Y-112701313D01*
G37*
G36*
X141186823Y-112701313D02*
G01*
X141347242Y-112749976D01*
X141479906Y-112820886D01*
X141495078Y-112828996D01*
X141624659Y-112935341D01*
X141731004Y-113064922D01*
X141731005Y-113064924D01*
X141810024Y-113212758D01*
X141858687Y-113373177D01*
X141875117Y-113540000D01*
X141858687Y-113706823D01*
X141810024Y-113867242D01*
X141768794Y-113944377D01*
X141731004Y-114015078D01*
X141624659Y-114144659D01*
X141495078Y-114251004D01*
X141495076Y-114251005D01*
X141347242Y-114330024D01*
X141186823Y-114378687D01*
X141061804Y-114391000D01*
X140178196Y-114391000D01*
X140053177Y-114378687D01*
X139892758Y-114330024D01*
X139744924Y-114251005D01*
X139744922Y-114251004D01*
X139615341Y-114144659D01*
X139508996Y-114015078D01*
X139471206Y-113944377D01*
X139429976Y-113867242D01*
X139381313Y-113706823D01*
X139364883Y-113540000D01*
X139381313Y-113373177D01*
X139429976Y-113212758D01*
X139508995Y-113064924D01*
X139508996Y-113064922D01*
X139615341Y-112935341D01*
X139744922Y-112828996D01*
X139760094Y-112820886D01*
X139892758Y-112749976D01*
X140053177Y-112701313D01*
X140178196Y-112689000D01*
X141061804Y-112689000D01*
X141186823Y-112701313D01*
G37*
G36*
X107115331Y-110478211D02*
G01*
X107443092Y-110613974D01*
X107738070Y-110811072D01*
X107988928Y-111061930D01*
X108186026Y-111356908D01*
X108321789Y-111684669D01*
X108391000Y-112032616D01*
X108391000Y-112387384D01*
X108321789Y-112735331D01*
X108186026Y-113063092D01*
X107988928Y-113358070D01*
X107738070Y-113608928D01*
X107443092Y-113806026D01*
X107115331Y-113941789D01*
X106767384Y-114011000D01*
X106412616Y-114011000D01*
X106064669Y-113941789D01*
X105736908Y-113806026D01*
X105441930Y-113608928D01*
X105191072Y-113358070D01*
X104993974Y-113063092D01*
X104858211Y-112735331D01*
X104789000Y-112387384D01*
X104789000Y-112032616D01*
X104858211Y-111684669D01*
X104993974Y-111356908D01*
X105191072Y-111061930D01*
X105441930Y-110811072D01*
X105736908Y-110613974D01*
X106064669Y-110478211D01*
X106412616Y-110409000D01*
X106767384Y-110409000D01*
X107115331Y-110478211D01*
G37*
G36*
X126834468Y-112403565D02*
G01*
X126873138Y-112415296D01*
X126908777Y-112434346D01*
X126940017Y-112459983D01*
X126965654Y-112491223D01*
X126984704Y-112526862D01*
X126996435Y-112565532D01*
X127001000Y-112611888D01*
X127001000Y-113263112D01*
X126996435Y-113309468D01*
X126984704Y-113348138D01*
X126965654Y-113383777D01*
X126940017Y-113415017D01*
X126908777Y-113440654D01*
X126873138Y-113459704D01*
X126834468Y-113471435D01*
X126788112Y-113476000D01*
X125711888Y-113476000D01*
X125665532Y-113471435D01*
X125626862Y-113459704D01*
X125591223Y-113440654D01*
X125559983Y-113415017D01*
X125534346Y-113383777D01*
X125515296Y-113348138D01*
X125503565Y-113309468D01*
X125499000Y-113263112D01*
X125499000Y-112611888D01*
X125503565Y-112565532D01*
X125515296Y-112526862D01*
X125534346Y-112491223D01*
X125559983Y-112459983D01*
X125591223Y-112434346D01*
X125626862Y-112415296D01*
X125665532Y-112403565D01*
X125711888Y-112399000D01*
X126788112Y-112399000D01*
X126834468Y-112403565D01*
G37*
G36*
X123395936Y-111211340D02*
G01*
X123494220Y-111221020D01*
X123683381Y-111278401D01*
X123857712Y-111371583D01*
X124010515Y-111496985D01*
X124135917Y-111649788D01*
X124229099Y-111824119D01*
X124286480Y-112013280D01*
X124305855Y-112210000D01*
X124286480Y-112406720D01*
X124229099Y-112595881D01*
X124135917Y-112770212D01*
X124010515Y-112923015D01*
X123857712Y-113048417D01*
X123683381Y-113141599D01*
X123494220Y-113198980D01*
X123395936Y-113208660D01*
X123346795Y-113213500D01*
X123153205Y-113213500D01*
X123104064Y-113208660D01*
X123005780Y-113198980D01*
X122816619Y-113141599D01*
X122642288Y-113048417D01*
X122489485Y-112923015D01*
X122364083Y-112770212D01*
X122270901Y-112595881D01*
X122213520Y-112406720D01*
X122194145Y-112210000D01*
X122213520Y-112013280D01*
X122270901Y-111824119D01*
X122364083Y-111649788D01*
X122489485Y-111496985D01*
X122642288Y-111371583D01*
X122816619Y-111278401D01*
X123005780Y-111221020D01*
X123104064Y-111211340D01*
X123153205Y-111206500D01*
X123346795Y-111206500D01*
X123395936Y-111211340D01*
G37*
G36*
X120584468Y-112028565D02*
G01*
X120623138Y-112040296D01*
X120658777Y-112059346D01*
X120690017Y-112084983D01*
X120715654Y-112116223D01*
X120734704Y-112151862D01*
X120746435Y-112190532D01*
X120751000Y-112236888D01*
X120751000Y-112888112D01*
X120746435Y-112934468D01*
X120734704Y-112973138D01*
X120715654Y-113008777D01*
X120690017Y-113040017D01*
X120658777Y-113065654D01*
X120623138Y-113084704D01*
X120584468Y-113096435D01*
X120538112Y-113101000D01*
X119461888Y-113101000D01*
X119415532Y-113096435D01*
X119376862Y-113084704D01*
X119341223Y-113065654D01*
X119309983Y-113040017D01*
X119284346Y-113008777D01*
X119265296Y-112973138D01*
X119253565Y-112934468D01*
X119249000Y-112888112D01*
X119249000Y-112236888D01*
X119253565Y-112190532D01*
X119265296Y-112151862D01*
X119284346Y-112116223D01*
X119309983Y-112084983D01*
X119341223Y-112059346D01*
X119376862Y-112040296D01*
X119415532Y-112028565D01*
X119461888Y-112024000D01*
X120538112Y-112024000D01*
X120584468Y-112028565D01*
G37*
G36*
X182116720Y-110963520D02*
G01*
X182305881Y-111020901D01*
X182480212Y-111114083D01*
X182633015Y-111239485D01*
X182758417Y-111392288D01*
X182801632Y-111473138D01*
X182851598Y-111566617D01*
X182851599Y-111566620D01*
X182908980Y-111755781D01*
X182912353Y-111790025D01*
X182923500Y-111903206D01*
X182923500Y-112096795D01*
X182921586Y-112116223D01*
X182908980Y-112244220D01*
X182851599Y-112433381D01*
X182758417Y-112607712D01*
X182633015Y-112760515D01*
X182480212Y-112885917D01*
X182410806Y-112923015D01*
X182305883Y-112979098D01*
X182305880Y-112979099D01*
X182116719Y-113036480D01*
X181920000Y-113055855D01*
X181723280Y-113036480D01*
X181534119Y-112979099D01*
X181359788Y-112885917D01*
X181206985Y-112760515D01*
X181081583Y-112607712D01*
X181037818Y-112525833D01*
X180988402Y-112433383D01*
X180977972Y-112399000D01*
X180931020Y-112244219D01*
X180916500Y-112096793D01*
X180916500Y-111903206D01*
X180931020Y-111755780D01*
X180988401Y-111566619D01*
X181081583Y-111392288D01*
X181206985Y-111239485D01*
X181359788Y-111114083D01*
X181534120Y-111020901D01*
X181723281Y-110963520D01*
X181920000Y-110944145D01*
X182116720Y-110963520D01*
G37*
G36*
X154406720Y-110963520D02*
G01*
X154595881Y-111020901D01*
X154770212Y-111114083D01*
X154923015Y-111239485D01*
X155048417Y-111392288D01*
X155091632Y-111473138D01*
X155141598Y-111566617D01*
X155141599Y-111566620D01*
X155198980Y-111755781D01*
X155202353Y-111790025D01*
X155213500Y-111903206D01*
X155213500Y-112096795D01*
X155211586Y-112116223D01*
X155198980Y-112244220D01*
X155141599Y-112433381D01*
X155048417Y-112607712D01*
X154923015Y-112760515D01*
X154770212Y-112885917D01*
X154700806Y-112923015D01*
X154595883Y-112979098D01*
X154595880Y-112979099D01*
X154406719Y-113036480D01*
X154210000Y-113055855D01*
X154013280Y-113036480D01*
X153824119Y-112979099D01*
X153649788Y-112885917D01*
X153496985Y-112760515D01*
X153371583Y-112607712D01*
X153327818Y-112525833D01*
X153278402Y-112433383D01*
X153267972Y-112399000D01*
X153221020Y-112244219D01*
X153206500Y-112096793D01*
X153206500Y-111903206D01*
X153221020Y-111755780D01*
X153278401Y-111566619D01*
X153371583Y-111392288D01*
X153496985Y-111239485D01*
X153649788Y-111114083D01*
X153824120Y-111020901D01*
X154013281Y-110963520D01*
X154210000Y-110944145D01*
X154406720Y-110963520D01*
G37*
G36*
X165156720Y-110963520D02*
G01*
X165345881Y-111020901D01*
X165520212Y-111114083D01*
X165673015Y-111239485D01*
X165798417Y-111392288D01*
X165841632Y-111473138D01*
X165891598Y-111566617D01*
X165891599Y-111566620D01*
X165948980Y-111755781D01*
X165952353Y-111790025D01*
X165963500Y-111903206D01*
X165963500Y-112096795D01*
X165961586Y-112116223D01*
X165948980Y-112244220D01*
X165891599Y-112433381D01*
X165798417Y-112607712D01*
X165673015Y-112760515D01*
X165520212Y-112885917D01*
X165450806Y-112923015D01*
X165345883Y-112979098D01*
X165345880Y-112979099D01*
X165156719Y-113036480D01*
X164960000Y-113055855D01*
X164763280Y-113036480D01*
X164574119Y-112979099D01*
X164399788Y-112885917D01*
X164246985Y-112760515D01*
X164121583Y-112607712D01*
X164077818Y-112525833D01*
X164028402Y-112433383D01*
X164017972Y-112399000D01*
X163971020Y-112244219D01*
X163956500Y-112096793D01*
X163956500Y-111903206D01*
X163971020Y-111755780D01*
X164028401Y-111566619D01*
X164121583Y-111392288D01*
X164246985Y-111239485D01*
X164399788Y-111114083D01*
X164574120Y-111020901D01*
X164763281Y-110963520D01*
X164960000Y-110944145D01*
X165156720Y-110963520D01*
G37*
G36*
X192866720Y-110963520D02*
G01*
X193055881Y-111020901D01*
X193230212Y-111114083D01*
X193383015Y-111239485D01*
X193508417Y-111392288D01*
X193551632Y-111473138D01*
X193601598Y-111566617D01*
X193601599Y-111566620D01*
X193658980Y-111755781D01*
X193662353Y-111790025D01*
X193673500Y-111903206D01*
X193673500Y-112096795D01*
X193671586Y-112116223D01*
X193658980Y-112244220D01*
X193601599Y-112433381D01*
X193508417Y-112607712D01*
X193383015Y-112760515D01*
X193230212Y-112885917D01*
X193160806Y-112923015D01*
X193055883Y-112979098D01*
X193055880Y-112979099D01*
X192866719Y-113036480D01*
X192670000Y-113055855D01*
X192473280Y-113036480D01*
X192284119Y-112979099D01*
X192109788Y-112885917D01*
X191956985Y-112760515D01*
X191831583Y-112607712D01*
X191787818Y-112525833D01*
X191738402Y-112433383D01*
X191727972Y-112399000D01*
X191681020Y-112244219D01*
X191666500Y-112096793D01*
X191666500Y-111903206D01*
X191681020Y-111755780D01*
X191738401Y-111566619D01*
X191831583Y-111392288D01*
X191956985Y-111239485D01*
X192109788Y-111114083D01*
X192284120Y-111020901D01*
X192473281Y-110963520D01*
X192670000Y-110944145D01*
X192866720Y-110963520D01*
G37*
G36*
X195406720Y-110963520D02*
G01*
X195595881Y-111020901D01*
X195770212Y-111114083D01*
X195923015Y-111239485D01*
X196048417Y-111392288D01*
X196091632Y-111473138D01*
X196141598Y-111566617D01*
X196141599Y-111566620D01*
X196198980Y-111755781D01*
X196202353Y-111790025D01*
X196213500Y-111903206D01*
X196213500Y-112096795D01*
X196211586Y-112116223D01*
X196198980Y-112244220D01*
X196141599Y-112433381D01*
X196048417Y-112607712D01*
X195923015Y-112760515D01*
X195770212Y-112885917D01*
X195700806Y-112923015D01*
X195595883Y-112979098D01*
X195595880Y-112979099D01*
X195406719Y-113036480D01*
X195210000Y-113055855D01*
X195013280Y-113036480D01*
X194824119Y-112979099D01*
X194649788Y-112885917D01*
X194496985Y-112760515D01*
X194371583Y-112607712D01*
X194327818Y-112525833D01*
X194278402Y-112433383D01*
X194267972Y-112399000D01*
X194221020Y-112244219D01*
X194206500Y-112096793D01*
X194206500Y-111903206D01*
X194221020Y-111755780D01*
X194278401Y-111566619D01*
X194371583Y-111392288D01*
X194496985Y-111239485D01*
X194649788Y-111114083D01*
X194824120Y-111020901D01*
X195013281Y-110963520D01*
X195210000Y-110944145D01*
X195406720Y-110963520D01*
G37*
G36*
X184656720Y-110963520D02*
G01*
X184845881Y-111020901D01*
X185020212Y-111114083D01*
X185173015Y-111239485D01*
X185298417Y-111392288D01*
X185341632Y-111473138D01*
X185391598Y-111566617D01*
X185391599Y-111566620D01*
X185448980Y-111755781D01*
X185452353Y-111790025D01*
X185463500Y-111903206D01*
X185463500Y-112096795D01*
X185461586Y-112116223D01*
X185448980Y-112244220D01*
X185391599Y-112433381D01*
X185298417Y-112607712D01*
X185173015Y-112760515D01*
X185020212Y-112885917D01*
X184950806Y-112923015D01*
X184845883Y-112979098D01*
X184845880Y-112979099D01*
X184656719Y-113036480D01*
X184460000Y-113055855D01*
X184263280Y-113036480D01*
X184074119Y-112979099D01*
X183899788Y-112885917D01*
X183746985Y-112760515D01*
X183621583Y-112607712D01*
X183577818Y-112525833D01*
X183528402Y-112433383D01*
X183517972Y-112399000D01*
X183471020Y-112244219D01*
X183456500Y-112096793D01*
X183456500Y-111903206D01*
X183471020Y-111755780D01*
X183528401Y-111566619D01*
X183621583Y-111392288D01*
X183746985Y-111239485D01*
X183899788Y-111114083D01*
X184074120Y-111020901D01*
X184263281Y-110963520D01*
X184460000Y-110944145D01*
X184656720Y-110963520D01*
G37*
G36*
X162616720Y-110963520D02*
G01*
X162805881Y-111020901D01*
X162980212Y-111114083D01*
X163133015Y-111239485D01*
X163258417Y-111392288D01*
X163301632Y-111473138D01*
X163351598Y-111566617D01*
X163351599Y-111566620D01*
X163408980Y-111755781D01*
X163412353Y-111790025D01*
X163423500Y-111903206D01*
X163423500Y-112096795D01*
X163421586Y-112116223D01*
X163408980Y-112244220D01*
X163351599Y-112433381D01*
X163258417Y-112607712D01*
X163133015Y-112760515D01*
X162980212Y-112885917D01*
X162910806Y-112923015D01*
X162805883Y-112979098D01*
X162805880Y-112979099D01*
X162616719Y-113036480D01*
X162420000Y-113055855D01*
X162223280Y-113036480D01*
X162034119Y-112979099D01*
X161859788Y-112885917D01*
X161706985Y-112760515D01*
X161581583Y-112607712D01*
X161537818Y-112525833D01*
X161488402Y-112433383D01*
X161477972Y-112399000D01*
X161431020Y-112244219D01*
X161416500Y-112096793D01*
X161416500Y-111903206D01*
X161431020Y-111755780D01*
X161488401Y-111566619D01*
X161581583Y-111392288D01*
X161706985Y-111239485D01*
X161859788Y-111114083D01*
X162034120Y-111020901D01*
X162223281Y-110963520D01*
X162420000Y-110944145D01*
X162616720Y-110963520D01*
G37*
G36*
X151866720Y-110963520D02*
G01*
X152055881Y-111020901D01*
X152230212Y-111114083D01*
X152383015Y-111239485D01*
X152508417Y-111392288D01*
X152551632Y-111473138D01*
X152601598Y-111566617D01*
X152601599Y-111566620D01*
X152658980Y-111755781D01*
X152662353Y-111790025D01*
X152673500Y-111903206D01*
X152673500Y-112096795D01*
X152671586Y-112116223D01*
X152658980Y-112244220D01*
X152601599Y-112433381D01*
X152508417Y-112607712D01*
X152383015Y-112760515D01*
X152230212Y-112885917D01*
X152160806Y-112923015D01*
X152055883Y-112979098D01*
X152055880Y-112979099D01*
X151866719Y-113036480D01*
X151670000Y-113055855D01*
X151473280Y-113036480D01*
X151284119Y-112979099D01*
X151109788Y-112885917D01*
X150956985Y-112760515D01*
X150831583Y-112607712D01*
X150787818Y-112525833D01*
X150738402Y-112433383D01*
X150727972Y-112399000D01*
X150681020Y-112244219D01*
X150666500Y-112096793D01*
X150666500Y-111903206D01*
X150681020Y-111755780D01*
X150738401Y-111566619D01*
X150831583Y-111392288D01*
X150956985Y-111239485D01*
X151109788Y-111114083D01*
X151284120Y-111020901D01*
X151473281Y-110963520D01*
X151670000Y-110944145D01*
X151866720Y-110963520D01*
G37*
G36*
X168503500Y-113051000D02*
G01*
X166496500Y-113051000D01*
X166496500Y-110949000D01*
X168503500Y-110949000D01*
X168503500Y-113051000D01*
G37*
G36*
X188003500Y-113051000D02*
G01*
X185996500Y-113051000D01*
X185996500Y-110949000D01*
X188003500Y-110949000D01*
X188003500Y-113051000D01*
G37*
G36*
X198753500Y-113051000D02*
G01*
X196746500Y-113051000D01*
X196746500Y-110949000D01*
X198753500Y-110949000D01*
X198753500Y-113051000D01*
G37*
G36*
X157753500Y-113051000D02*
G01*
X155746500Y-113051000D01*
X155746500Y-110949000D01*
X157753500Y-110949000D01*
X157753500Y-113051000D01*
G37*
G36*
X141186823Y-110161313D02*
G01*
X141347242Y-110209976D01*
X141479906Y-110280886D01*
X141495078Y-110288996D01*
X141624659Y-110395341D01*
X141731004Y-110524922D01*
X141731005Y-110524924D01*
X141810024Y-110672758D01*
X141858687Y-110833177D01*
X141875117Y-111000000D01*
X141858687Y-111166823D01*
X141810024Y-111327242D01*
X141752710Y-111434468D01*
X141731004Y-111475078D01*
X141624659Y-111604659D01*
X141495078Y-111711004D01*
X141495076Y-111711005D01*
X141347242Y-111790024D01*
X141186823Y-111838687D01*
X141061804Y-111851000D01*
X140178196Y-111851000D01*
X140053177Y-111838687D01*
X139892758Y-111790024D01*
X139744924Y-111711005D01*
X139744922Y-111711004D01*
X139615341Y-111604659D01*
X139508996Y-111475078D01*
X139487290Y-111434468D01*
X139429976Y-111327242D01*
X139381313Y-111166823D01*
X139364883Y-111000000D01*
X139381313Y-110833177D01*
X139429976Y-110672758D01*
X139508995Y-110524924D01*
X139508996Y-110524922D01*
X139615341Y-110395341D01*
X139744922Y-110288996D01*
X139760094Y-110280886D01*
X139892758Y-110209976D01*
X140053177Y-110161313D01*
X140178196Y-110149000D01*
X141061804Y-110149000D01*
X141186823Y-110161313D01*
G37*
G36*
X134251000Y-111851000D02*
G01*
X131749000Y-111851000D01*
X131749000Y-110149000D01*
X134251000Y-110149000D01*
X134251000Y-111851000D01*
G37*
G36*
X126834468Y-110528565D02*
G01*
X126873138Y-110540296D01*
X126908777Y-110559346D01*
X126940017Y-110584983D01*
X126965654Y-110616223D01*
X126984704Y-110651862D01*
X126996435Y-110690532D01*
X127001000Y-110736888D01*
X127001000Y-111388112D01*
X126996435Y-111434468D01*
X126984704Y-111473138D01*
X126965654Y-111508777D01*
X126940017Y-111540017D01*
X126908777Y-111565654D01*
X126873138Y-111584704D01*
X126834468Y-111596435D01*
X126788112Y-111601000D01*
X125711888Y-111601000D01*
X125665532Y-111596435D01*
X125626862Y-111584704D01*
X125591223Y-111565654D01*
X125559983Y-111540017D01*
X125534346Y-111508777D01*
X125515296Y-111473138D01*
X125503565Y-111434468D01*
X125499000Y-111388112D01*
X125499000Y-110736888D01*
X125503565Y-110690532D01*
X125515296Y-110651862D01*
X125534346Y-110616223D01*
X125559983Y-110584983D01*
X125591223Y-110559346D01*
X125626862Y-110540296D01*
X125665532Y-110528565D01*
X125711888Y-110524000D01*
X126788112Y-110524000D01*
X126834468Y-110528565D01*
G37*
G36*
X123395936Y-108671340D02*
G01*
X123494220Y-108681020D01*
X123683381Y-108738401D01*
X123857712Y-108831583D01*
X124010515Y-108956985D01*
X124135917Y-109109788D01*
X124229099Y-109284119D01*
X124286480Y-109473280D01*
X124305855Y-109670000D01*
X124286480Y-109866720D01*
X124229099Y-110055881D01*
X124135917Y-110230212D01*
X124010515Y-110383015D01*
X123857712Y-110508417D01*
X123683381Y-110601599D01*
X123494220Y-110658980D01*
X123395936Y-110668660D01*
X123346795Y-110673500D01*
X123153205Y-110673500D01*
X123104064Y-110668660D01*
X123005780Y-110658980D01*
X122816619Y-110601599D01*
X122642288Y-110508417D01*
X122489485Y-110383015D01*
X122364083Y-110230212D01*
X122270901Y-110055881D01*
X122213520Y-109866720D01*
X122194145Y-109670000D01*
X122213520Y-109473280D01*
X122270901Y-109284119D01*
X122364083Y-109109788D01*
X122489485Y-108956985D01*
X122642288Y-108831583D01*
X122816619Y-108738401D01*
X123005780Y-108681020D01*
X123104064Y-108671340D01*
X123153205Y-108666500D01*
X123346795Y-108666500D01*
X123395936Y-108671340D01*
G37*
G36*
X128601000Y-109351000D02*
G01*
X126899000Y-109351000D01*
X126899000Y-107649000D01*
X128601000Y-107649000D01*
X128601000Y-109351000D01*
G37*
G36*
X127998228Y-105181703D02*
G01*
X128153100Y-105245853D01*
X128292481Y-105338985D01*
X128411015Y-105457519D01*
X128504147Y-105596900D01*
X128568297Y-105751772D01*
X128601000Y-105916184D01*
X128601000Y-106083816D01*
X128568297Y-106248228D01*
X128504147Y-106403100D01*
X128411015Y-106542481D01*
X128292481Y-106661015D01*
X128153100Y-106754147D01*
X127998228Y-106818297D01*
X127833816Y-106851000D01*
X127666184Y-106851000D01*
X127501772Y-106818297D01*
X127346900Y-106754147D01*
X127207519Y-106661015D01*
X127088985Y-106542481D01*
X126995853Y-106403100D01*
X126931703Y-106248228D01*
X126899000Y-106083816D01*
X126899000Y-105916184D01*
X126931703Y-105751772D01*
X126995853Y-105596900D01*
X127088985Y-105457519D01*
X127207519Y-105338985D01*
X127346900Y-105245853D01*
X127501772Y-105181703D01*
X127666184Y-105149000D01*
X127833816Y-105149000D01*
X127998228Y-105181703D01*
G37*
M02*
