G04 #@! TF.GenerationSoftware,KiCad,Pcbnew,5.1.5*
G04 #@! TF.CreationDate,2020-04-11T15:37:30+02:00*
G04 #@! TF.ProjectId,h_bridge,685f6272-6964-4676-952e-6b696361645f,rev?*
G04 #@! TF.SameCoordinates,Original*
G04 #@! TF.FileFunction,Soldermask,Bot*
G04 #@! TF.FilePolarity,Negative*
%FSLAX46Y46*%
G04 Gerber Fmt 4.6, Leading zero omitted, Abs format (unit mm)*
G04 Created by KiCad (PCBNEW 5.1.5) date 2020-04-11 15:37:30*
%MOMM*%
%LPD*%
G04 APERTURE LIST*
%ADD10C,0.100000*%
G04 APERTURE END LIST*
D10*
G36*
X142686823Y-148151313D02*
G01*
X142847242Y-148199976D01*
X142979906Y-148270886D01*
X142995078Y-148278996D01*
X143124659Y-148385341D01*
X143231004Y-148514922D01*
X143231005Y-148514924D01*
X143310024Y-148662758D01*
X143358687Y-148823177D01*
X143375117Y-148990000D01*
X143358687Y-149156823D01*
X143310024Y-149317242D01*
X143239114Y-149449906D01*
X143231004Y-149465078D01*
X143124659Y-149594659D01*
X142995078Y-149701004D01*
X142995076Y-149701005D01*
X142847242Y-149780024D01*
X142686823Y-149828687D01*
X142561804Y-149841000D01*
X141678196Y-149841000D01*
X141553177Y-149828687D01*
X141392758Y-149780024D01*
X141244924Y-149701005D01*
X141244922Y-149701004D01*
X141115341Y-149594659D01*
X141008996Y-149465078D01*
X141000886Y-149449906D01*
X140929976Y-149317242D01*
X140881313Y-149156823D01*
X140864883Y-148990000D01*
X140881313Y-148823177D01*
X140929976Y-148662758D01*
X141008995Y-148514924D01*
X141008996Y-148514922D01*
X141115341Y-148385341D01*
X141244922Y-148278996D01*
X141260094Y-148270886D01*
X141392758Y-148199976D01*
X141553177Y-148151313D01*
X141678196Y-148139000D01*
X142561804Y-148139000D01*
X142686823Y-148151313D01*
G37*
G36*
X135066823Y-148151313D02*
G01*
X135227242Y-148199976D01*
X135359906Y-148270886D01*
X135375078Y-148278996D01*
X135504659Y-148385341D01*
X135611004Y-148514922D01*
X135611005Y-148514924D01*
X135690024Y-148662758D01*
X135738687Y-148823177D01*
X135755117Y-148990000D01*
X135738687Y-149156823D01*
X135690024Y-149317242D01*
X135619114Y-149449906D01*
X135611004Y-149465078D01*
X135504659Y-149594659D01*
X135375078Y-149701004D01*
X135375076Y-149701005D01*
X135227242Y-149780024D01*
X135066823Y-149828687D01*
X134941804Y-149841000D01*
X134058196Y-149841000D01*
X133933177Y-149828687D01*
X133772758Y-149780024D01*
X133624924Y-149701005D01*
X133624922Y-149701004D01*
X133495341Y-149594659D01*
X133388996Y-149465078D01*
X133380886Y-149449906D01*
X133309976Y-149317242D01*
X133261313Y-149156823D01*
X133244883Y-148990000D01*
X133261313Y-148823177D01*
X133309976Y-148662758D01*
X133388995Y-148514924D01*
X133388996Y-148514922D01*
X133495341Y-148385341D01*
X133624922Y-148278996D01*
X133640094Y-148270886D01*
X133772758Y-148199976D01*
X133933177Y-148151313D01*
X134058196Y-148139000D01*
X134941804Y-148139000D01*
X135066823Y-148151313D01*
G37*
G36*
X108153512Y-146853927D02*
G01*
X108302812Y-146883624D01*
X108466784Y-146951544D01*
X108614354Y-147050147D01*
X108739853Y-147175646D01*
X108838456Y-147323216D01*
X108906376Y-147487188D01*
X108941000Y-147661259D01*
X108941000Y-147838741D01*
X108906376Y-148012812D01*
X108838456Y-148176784D01*
X108739853Y-148324354D01*
X108614354Y-148449853D01*
X108466784Y-148548456D01*
X108302812Y-148616376D01*
X108153512Y-148646073D01*
X108128742Y-148651000D01*
X107951258Y-148651000D01*
X107926488Y-148646073D01*
X107777188Y-148616376D01*
X107613216Y-148548456D01*
X107465646Y-148449853D01*
X107340147Y-148324354D01*
X107241544Y-148176784D01*
X107173624Y-148012812D01*
X107139000Y-147838741D01*
X107139000Y-147661259D01*
X107173624Y-147487188D01*
X107241544Y-147323216D01*
X107340147Y-147175646D01*
X107465646Y-147050147D01*
X107613216Y-146951544D01*
X107777188Y-146883624D01*
X107926488Y-146853927D01*
X107951258Y-146849000D01*
X108128742Y-146849000D01*
X108153512Y-146853927D01*
G37*
G36*
X106401000Y-148651000D02*
G01*
X104599000Y-148651000D01*
X104599000Y-146849000D01*
X106401000Y-146849000D01*
X106401000Y-148651000D01*
G37*
G36*
X113233512Y-146853927D02*
G01*
X113382812Y-146883624D01*
X113546784Y-146951544D01*
X113694354Y-147050147D01*
X113819853Y-147175646D01*
X113918456Y-147323216D01*
X113986376Y-147487188D01*
X114021000Y-147661259D01*
X114021000Y-147838741D01*
X113986376Y-148012812D01*
X113918456Y-148176784D01*
X113819853Y-148324354D01*
X113694354Y-148449853D01*
X113546784Y-148548456D01*
X113382812Y-148616376D01*
X113233512Y-148646073D01*
X113208742Y-148651000D01*
X113031258Y-148651000D01*
X113006488Y-148646073D01*
X112857188Y-148616376D01*
X112693216Y-148548456D01*
X112545646Y-148449853D01*
X112420147Y-148324354D01*
X112321544Y-148176784D01*
X112253624Y-148012812D01*
X112219000Y-147838741D01*
X112219000Y-147661259D01*
X112253624Y-147487188D01*
X112321544Y-147323216D01*
X112420147Y-147175646D01*
X112545646Y-147050147D01*
X112693216Y-146951544D01*
X112857188Y-146883624D01*
X113006488Y-146853927D01*
X113031258Y-146849000D01*
X113208742Y-146849000D01*
X113233512Y-146853927D01*
G37*
G36*
X110693512Y-146853927D02*
G01*
X110842812Y-146883624D01*
X111006784Y-146951544D01*
X111154354Y-147050147D01*
X111279853Y-147175646D01*
X111378456Y-147323216D01*
X111446376Y-147487188D01*
X111481000Y-147661259D01*
X111481000Y-147838741D01*
X111446376Y-148012812D01*
X111378456Y-148176784D01*
X111279853Y-148324354D01*
X111154354Y-148449853D01*
X111006784Y-148548456D01*
X110842812Y-148616376D01*
X110693512Y-148646073D01*
X110668742Y-148651000D01*
X110491258Y-148651000D01*
X110466488Y-148646073D01*
X110317188Y-148616376D01*
X110153216Y-148548456D01*
X110005646Y-148449853D01*
X109880147Y-148324354D01*
X109781544Y-148176784D01*
X109713624Y-148012812D01*
X109679000Y-147838741D01*
X109679000Y-147661259D01*
X109713624Y-147487188D01*
X109781544Y-147323216D01*
X109880147Y-147175646D01*
X110005646Y-147050147D01*
X110153216Y-146951544D01*
X110317188Y-146883624D01*
X110466488Y-146853927D01*
X110491258Y-146849000D01*
X110668742Y-146849000D01*
X110693512Y-146853927D01*
G37*
G36*
X145719059Y-145280024D02*
G01*
X145835734Y-145303232D01*
X146045203Y-145389997D01*
X146233720Y-145515960D01*
X146394040Y-145676280D01*
X146435945Y-145738996D01*
X146520004Y-145864799D01*
X146606768Y-146074267D01*
X146648323Y-146283175D01*
X146651000Y-146296636D01*
X146651000Y-146523364D01*
X146606768Y-146745734D01*
X146520003Y-146955203D01*
X146394040Y-147143720D01*
X146233720Y-147304040D01*
X146045203Y-147430003D01*
X145835734Y-147516768D01*
X145724549Y-147538884D01*
X145613365Y-147561000D01*
X145386635Y-147561000D01*
X145275451Y-147538884D01*
X145164266Y-147516768D01*
X144954797Y-147430003D01*
X144766280Y-147304040D01*
X144605960Y-147143720D01*
X144479997Y-146955203D01*
X144393232Y-146745734D01*
X144349000Y-146523364D01*
X144349000Y-146296636D01*
X144351678Y-146283175D01*
X144393232Y-146074267D01*
X144479996Y-145864799D01*
X144564055Y-145738996D01*
X144605960Y-145676280D01*
X144766280Y-145515960D01*
X144954797Y-145389997D01*
X145164266Y-145303232D01*
X145280941Y-145280024D01*
X145386635Y-145259000D01*
X145613365Y-145259000D01*
X145719059Y-145280024D01*
G37*
G36*
X135066823Y-145611313D02*
G01*
X135227242Y-145659976D01*
X135257746Y-145676281D01*
X135375078Y-145738996D01*
X135504659Y-145845341D01*
X135611004Y-145974922D01*
X135611005Y-145974924D01*
X135690024Y-146122758D01*
X135738687Y-146283177D01*
X135755117Y-146450000D01*
X135738687Y-146616823D01*
X135690024Y-146777242D01*
X135633161Y-146883625D01*
X135611004Y-146925078D01*
X135504659Y-147054659D01*
X135375078Y-147161004D01*
X135375076Y-147161005D01*
X135227242Y-147240024D01*
X135066823Y-147288687D01*
X134941804Y-147301000D01*
X134058196Y-147301000D01*
X133933177Y-147288687D01*
X133772758Y-147240024D01*
X133624924Y-147161005D01*
X133624922Y-147161004D01*
X133495341Y-147054659D01*
X133388996Y-146925078D01*
X133366839Y-146883625D01*
X133309976Y-146777242D01*
X133261313Y-146616823D01*
X133244883Y-146450000D01*
X133261313Y-146283177D01*
X133309976Y-146122758D01*
X133388995Y-145974924D01*
X133388996Y-145974922D01*
X133495341Y-145845341D01*
X133624922Y-145738996D01*
X133742254Y-145676281D01*
X133772758Y-145659976D01*
X133933177Y-145611313D01*
X134058196Y-145599000D01*
X134941804Y-145599000D01*
X135066823Y-145611313D01*
G37*
G36*
X142686823Y-145611313D02*
G01*
X142847242Y-145659976D01*
X142877746Y-145676281D01*
X142995078Y-145738996D01*
X143124659Y-145845341D01*
X143231004Y-145974922D01*
X143231005Y-145974924D01*
X143310024Y-146122758D01*
X143358687Y-146283177D01*
X143375117Y-146450000D01*
X143358687Y-146616823D01*
X143310024Y-146777242D01*
X143253161Y-146883625D01*
X143231004Y-146925078D01*
X143124659Y-147054659D01*
X142995078Y-147161004D01*
X142995076Y-147161005D01*
X142847242Y-147240024D01*
X142686823Y-147288687D01*
X142561804Y-147301000D01*
X141678196Y-147301000D01*
X141553177Y-147288687D01*
X141392758Y-147240024D01*
X141244924Y-147161005D01*
X141244922Y-147161004D01*
X141115341Y-147054659D01*
X141008996Y-146925078D01*
X140986839Y-146883625D01*
X140929976Y-146777242D01*
X140881313Y-146616823D01*
X140864883Y-146450000D01*
X140881313Y-146283177D01*
X140929976Y-146122758D01*
X141008995Y-145974924D01*
X141008996Y-145974922D01*
X141115341Y-145845341D01*
X141244922Y-145738996D01*
X141362254Y-145676281D01*
X141392758Y-145659976D01*
X141553177Y-145611313D01*
X141678196Y-145599000D01*
X142561804Y-145599000D01*
X142686823Y-145611313D01*
G37*
G36*
X137834468Y-144403565D02*
G01*
X137873138Y-144415296D01*
X137908777Y-144434346D01*
X137940017Y-144459983D01*
X137965654Y-144491223D01*
X137984704Y-144526862D01*
X137996435Y-144565532D01*
X138001000Y-144611888D01*
X138001000Y-145263112D01*
X137996435Y-145309468D01*
X137984704Y-145348138D01*
X137965654Y-145383777D01*
X137940017Y-145415017D01*
X137908777Y-145440654D01*
X137873138Y-145459704D01*
X137834468Y-145471435D01*
X137788112Y-145476000D01*
X136711888Y-145476000D01*
X136665532Y-145471435D01*
X136626862Y-145459704D01*
X136591223Y-145440654D01*
X136559983Y-145415017D01*
X136534346Y-145383777D01*
X136515296Y-145348138D01*
X136503565Y-145309468D01*
X136499000Y-145263112D01*
X136499000Y-144611888D01*
X136503565Y-144565532D01*
X136515296Y-144526862D01*
X136534346Y-144491223D01*
X136559983Y-144459983D01*
X136591223Y-144434346D01*
X136626862Y-144415296D01*
X136665532Y-144403565D01*
X136711888Y-144399000D01*
X137788112Y-144399000D01*
X137834468Y-144403565D01*
G37*
G36*
X128186823Y-143651313D02*
G01*
X128347242Y-143699976D01*
X128428065Y-143743177D01*
X128495078Y-143778996D01*
X128624659Y-143885341D01*
X128731004Y-144014922D01*
X128731005Y-144014924D01*
X128810024Y-144162758D01*
X128858687Y-144323177D01*
X128875117Y-144490000D01*
X128858687Y-144656823D01*
X128810024Y-144817242D01*
X128749014Y-144931384D01*
X128731004Y-144965078D01*
X128624659Y-145094659D01*
X128495078Y-145201004D01*
X128495076Y-145201005D01*
X128347242Y-145280024D01*
X128186823Y-145328687D01*
X128061804Y-145341000D01*
X127178196Y-145341000D01*
X127053177Y-145328687D01*
X126892758Y-145280024D01*
X126744924Y-145201005D01*
X126744922Y-145201004D01*
X126615341Y-145094659D01*
X126508996Y-144965078D01*
X126490986Y-144931384D01*
X126429976Y-144817242D01*
X126381313Y-144656823D01*
X126364883Y-144490000D01*
X126381313Y-144323177D01*
X126429976Y-144162758D01*
X126508995Y-144014924D01*
X126508996Y-144014922D01*
X126615341Y-143885341D01*
X126744922Y-143778996D01*
X126811935Y-143743177D01*
X126892758Y-143699976D01*
X127053177Y-143651313D01*
X127178196Y-143639000D01*
X128061804Y-143639000D01*
X128186823Y-143651313D01*
G37*
G36*
X120566823Y-143651313D02*
G01*
X120727242Y-143699976D01*
X120808065Y-143743177D01*
X120875078Y-143778996D01*
X121004659Y-143885341D01*
X121111004Y-144014922D01*
X121111005Y-144014924D01*
X121190024Y-144162758D01*
X121238687Y-144323177D01*
X121255117Y-144490000D01*
X121238687Y-144656823D01*
X121190024Y-144817242D01*
X121129014Y-144931384D01*
X121111004Y-144965078D01*
X121004659Y-145094659D01*
X120875078Y-145201004D01*
X120875076Y-145201005D01*
X120727242Y-145280024D01*
X120566823Y-145328687D01*
X120441804Y-145341000D01*
X119558196Y-145341000D01*
X119433177Y-145328687D01*
X119272758Y-145280024D01*
X119124924Y-145201005D01*
X119124922Y-145201004D01*
X118995341Y-145094659D01*
X118888996Y-144965078D01*
X118870986Y-144931384D01*
X118809976Y-144817242D01*
X118761313Y-144656823D01*
X118744883Y-144490000D01*
X118761313Y-144323177D01*
X118809976Y-144162758D01*
X118888995Y-144014924D01*
X118888996Y-144014922D01*
X118995341Y-143885341D01*
X119124922Y-143778996D01*
X119191935Y-143743177D01*
X119272758Y-143699976D01*
X119433177Y-143651313D01*
X119558196Y-143639000D01*
X120441804Y-143639000D01*
X120566823Y-143651313D01*
G37*
G36*
X219556564Y-142989389D02*
G01*
X219724620Y-143059000D01*
X219747835Y-143068616D01*
X219919973Y-143183635D01*
X220066365Y-143330027D01*
X220165972Y-143479099D01*
X220181385Y-143502167D01*
X220260611Y-143693436D01*
X220301000Y-143896484D01*
X220301000Y-144103516D01*
X220260611Y-144306564D01*
X220184123Y-144491223D01*
X220181384Y-144497835D01*
X220066365Y-144669973D01*
X219919973Y-144816365D01*
X219747835Y-144931384D01*
X219747834Y-144931385D01*
X219747833Y-144931385D01*
X219556564Y-145010611D01*
X219353516Y-145051000D01*
X219146484Y-145051000D01*
X218943436Y-145010611D01*
X218752167Y-144931385D01*
X218752166Y-144931385D01*
X218752165Y-144931384D01*
X218580027Y-144816365D01*
X218433635Y-144669973D01*
X218318616Y-144497835D01*
X218315877Y-144491223D01*
X218239389Y-144306564D01*
X218199000Y-144103516D01*
X218199000Y-143896484D01*
X218239389Y-143693436D01*
X218318615Y-143502167D01*
X218334029Y-143479099D01*
X218433635Y-143330027D01*
X218580027Y-143183635D01*
X218752165Y-143068616D01*
X218775380Y-143059000D01*
X218943436Y-142989389D01*
X219146484Y-142949000D01*
X219353516Y-142949000D01*
X219556564Y-142989389D01*
G37*
G36*
X209556564Y-142989389D02*
G01*
X209724620Y-143059000D01*
X209747835Y-143068616D01*
X209919973Y-143183635D01*
X210066365Y-143330027D01*
X210165972Y-143479099D01*
X210181385Y-143502167D01*
X210260611Y-143693436D01*
X210301000Y-143896484D01*
X210301000Y-144103516D01*
X210260611Y-144306564D01*
X210184123Y-144491223D01*
X210181384Y-144497835D01*
X210066365Y-144669973D01*
X209919973Y-144816365D01*
X209747835Y-144931384D01*
X209747834Y-144931385D01*
X209747833Y-144931385D01*
X209556564Y-145010611D01*
X209353516Y-145051000D01*
X209146484Y-145051000D01*
X208943436Y-145010611D01*
X208752167Y-144931385D01*
X208752166Y-144931385D01*
X208752165Y-144931384D01*
X208580027Y-144816365D01*
X208433635Y-144669973D01*
X208318616Y-144497835D01*
X208315877Y-144491223D01*
X208239389Y-144306564D01*
X208199000Y-144103516D01*
X208199000Y-143896484D01*
X208239389Y-143693436D01*
X208318615Y-143502167D01*
X208334029Y-143479099D01*
X208433635Y-143330027D01*
X208580027Y-143183635D01*
X208752165Y-143068616D01*
X208775380Y-143059000D01*
X208943436Y-142989389D01*
X209146484Y-142949000D01*
X209353516Y-142949000D01*
X209556564Y-142989389D01*
G37*
G36*
X142686823Y-143071313D02*
G01*
X142847242Y-143119976D01*
X142966339Y-143183635D01*
X142995078Y-143198996D01*
X143124659Y-143305341D01*
X143231004Y-143434922D01*
X143231005Y-143434924D01*
X143310024Y-143582758D01*
X143358687Y-143743177D01*
X143375117Y-143910000D01*
X143358687Y-144076823D01*
X143310024Y-144237242D01*
X143272970Y-144306565D01*
X143231004Y-144385078D01*
X143124659Y-144514659D01*
X142995078Y-144621004D01*
X142995076Y-144621005D01*
X142847242Y-144700024D01*
X142686823Y-144748687D01*
X142561804Y-144761000D01*
X141678196Y-144761000D01*
X141553177Y-144748687D01*
X141392758Y-144700024D01*
X141244924Y-144621005D01*
X141244922Y-144621004D01*
X141115341Y-144514659D01*
X141008996Y-144385078D01*
X140967030Y-144306565D01*
X140929976Y-144237242D01*
X140881313Y-144076823D01*
X140864883Y-143910000D01*
X140881313Y-143743177D01*
X140929976Y-143582758D01*
X141008995Y-143434924D01*
X141008996Y-143434922D01*
X141115341Y-143305341D01*
X141244922Y-143198996D01*
X141273661Y-143183635D01*
X141392758Y-143119976D01*
X141553177Y-143071313D01*
X141678196Y-143059000D01*
X142561804Y-143059000D01*
X142686823Y-143071313D01*
G37*
G36*
X135066823Y-143071313D02*
G01*
X135227242Y-143119976D01*
X135346339Y-143183635D01*
X135375078Y-143198996D01*
X135504659Y-143305341D01*
X135611004Y-143434922D01*
X135611005Y-143434924D01*
X135690024Y-143582758D01*
X135738687Y-143743177D01*
X135755117Y-143910000D01*
X135738687Y-144076823D01*
X135690024Y-144237242D01*
X135652970Y-144306565D01*
X135611004Y-144385078D01*
X135504659Y-144514659D01*
X135375078Y-144621004D01*
X135375076Y-144621005D01*
X135227242Y-144700024D01*
X135066823Y-144748687D01*
X134941804Y-144761000D01*
X134058196Y-144761000D01*
X133933177Y-144748687D01*
X133772758Y-144700024D01*
X133624924Y-144621005D01*
X133624922Y-144621004D01*
X133495341Y-144514659D01*
X133388996Y-144385078D01*
X133347030Y-144306565D01*
X133309976Y-144237242D01*
X133261313Y-144076823D01*
X133244883Y-143910000D01*
X133261313Y-143743177D01*
X133309976Y-143582758D01*
X133388995Y-143434924D01*
X133388996Y-143434922D01*
X133495341Y-143305341D01*
X133624922Y-143198996D01*
X133653661Y-143183635D01*
X133772758Y-143119976D01*
X133933177Y-143071313D01*
X134058196Y-143059000D01*
X134941804Y-143059000D01*
X135066823Y-143071313D01*
G37*
G36*
X137834468Y-142528565D02*
G01*
X137873138Y-142540296D01*
X137908777Y-142559346D01*
X137940017Y-142584983D01*
X137965654Y-142616223D01*
X137984704Y-142651862D01*
X137996435Y-142690532D01*
X138001000Y-142736888D01*
X138001000Y-143388112D01*
X137996435Y-143434468D01*
X137984704Y-143473138D01*
X137965654Y-143508777D01*
X137940017Y-143540017D01*
X137908777Y-143565654D01*
X137873138Y-143584704D01*
X137834468Y-143596435D01*
X137788112Y-143601000D01*
X136711888Y-143601000D01*
X136665532Y-143596435D01*
X136626862Y-143584704D01*
X136591223Y-143565654D01*
X136559983Y-143540017D01*
X136534346Y-143508777D01*
X136515296Y-143473138D01*
X136503565Y-143434468D01*
X136499000Y-143388112D01*
X136499000Y-142736888D01*
X136503565Y-142690532D01*
X136515296Y-142651862D01*
X136534346Y-142616223D01*
X136559983Y-142584983D01*
X136591223Y-142559346D01*
X136626862Y-142540296D01*
X136665532Y-142528565D01*
X136711888Y-142524000D01*
X137788112Y-142524000D01*
X137834468Y-142528565D01*
G37*
G36*
X192276719Y-141463520D02*
G01*
X192465880Y-141520901D01*
X192465883Y-141520902D01*
X192558333Y-141570318D01*
X192640212Y-141614083D01*
X192793015Y-141739485D01*
X192918417Y-141892288D01*
X193011599Y-142066619D01*
X193068980Y-142255780D01*
X193083500Y-142403206D01*
X193083500Y-142596793D01*
X193068980Y-142744219D01*
X193011599Y-142933380D01*
X193011598Y-142933383D01*
X193003250Y-142949000D01*
X192918417Y-143107712D01*
X192793015Y-143260515D01*
X192640212Y-143385917D01*
X192465881Y-143479099D01*
X192276720Y-143536480D01*
X192080000Y-143555855D01*
X191883281Y-143536480D01*
X191694120Y-143479099D01*
X191519788Y-143385917D01*
X191366985Y-143260515D01*
X191241583Y-143107712D01*
X191148401Y-142933381D01*
X191091020Y-142744220D01*
X191078414Y-142616223D01*
X191076500Y-142596795D01*
X191076500Y-142403206D01*
X191091020Y-142255783D01*
X191091020Y-142255781D01*
X191148401Y-142066620D01*
X191148402Y-142066617D01*
X191197818Y-141974167D01*
X191241583Y-141892288D01*
X191366985Y-141739485D01*
X191519788Y-141614083D01*
X191694119Y-141520901D01*
X191883280Y-141463520D01*
X192080000Y-141444145D01*
X192276719Y-141463520D01*
G37*
G36*
X163026719Y-141463520D02*
G01*
X163215880Y-141520901D01*
X163215883Y-141520902D01*
X163308333Y-141570318D01*
X163390212Y-141614083D01*
X163543015Y-141739485D01*
X163668417Y-141892288D01*
X163761599Y-142066619D01*
X163818980Y-142255780D01*
X163833500Y-142403206D01*
X163833500Y-142596793D01*
X163818980Y-142744219D01*
X163761599Y-142933380D01*
X163761598Y-142933383D01*
X163753250Y-142949000D01*
X163668417Y-143107712D01*
X163543015Y-143260515D01*
X163390212Y-143385917D01*
X163215881Y-143479099D01*
X163026720Y-143536480D01*
X162830000Y-143555855D01*
X162633281Y-143536480D01*
X162444120Y-143479099D01*
X162269788Y-143385917D01*
X162116985Y-143260515D01*
X161991583Y-143107712D01*
X161898401Y-142933381D01*
X161841020Y-142744220D01*
X161828414Y-142616223D01*
X161826500Y-142596795D01*
X161826500Y-142403206D01*
X161841020Y-142255783D01*
X161841020Y-142255781D01*
X161898401Y-142066620D01*
X161898402Y-142066617D01*
X161947818Y-141974167D01*
X161991583Y-141892288D01*
X162116985Y-141739485D01*
X162269788Y-141614083D01*
X162444119Y-141520901D01*
X162633280Y-141463520D01*
X162830000Y-141444145D01*
X163026719Y-141463520D01*
G37*
G36*
X189736719Y-141463520D02*
G01*
X189925880Y-141520901D01*
X189925883Y-141520902D01*
X190018333Y-141570318D01*
X190100212Y-141614083D01*
X190253015Y-141739485D01*
X190378417Y-141892288D01*
X190471599Y-142066619D01*
X190528980Y-142255780D01*
X190543500Y-142403206D01*
X190543500Y-142596793D01*
X190528980Y-142744219D01*
X190471599Y-142933380D01*
X190471598Y-142933383D01*
X190463250Y-142949000D01*
X190378417Y-143107712D01*
X190253015Y-143260515D01*
X190100212Y-143385917D01*
X189925881Y-143479099D01*
X189736720Y-143536480D01*
X189540000Y-143555855D01*
X189343281Y-143536480D01*
X189154120Y-143479099D01*
X188979788Y-143385917D01*
X188826985Y-143260515D01*
X188701583Y-143107712D01*
X188608401Y-142933381D01*
X188551020Y-142744220D01*
X188538414Y-142616223D01*
X188536500Y-142596795D01*
X188536500Y-142403206D01*
X188551020Y-142255783D01*
X188551020Y-142255781D01*
X188608401Y-142066620D01*
X188608402Y-142066617D01*
X188657818Y-141974167D01*
X188701583Y-141892288D01*
X188826985Y-141739485D01*
X188979788Y-141614083D01*
X189154119Y-141520901D01*
X189343280Y-141463520D01*
X189540000Y-141444145D01*
X189736719Y-141463520D01*
G37*
G36*
X200486719Y-141463520D02*
G01*
X200675880Y-141520901D01*
X200675883Y-141520902D01*
X200768333Y-141570318D01*
X200850212Y-141614083D01*
X201003015Y-141739485D01*
X201128417Y-141892288D01*
X201221599Y-142066619D01*
X201278980Y-142255780D01*
X201293500Y-142403206D01*
X201293500Y-142596793D01*
X201278980Y-142744219D01*
X201221599Y-142933380D01*
X201221598Y-142933383D01*
X201213250Y-142949000D01*
X201128417Y-143107712D01*
X201003015Y-143260515D01*
X200850212Y-143385917D01*
X200675881Y-143479099D01*
X200486720Y-143536480D01*
X200290000Y-143555855D01*
X200093281Y-143536480D01*
X199904120Y-143479099D01*
X199729788Y-143385917D01*
X199576985Y-143260515D01*
X199451583Y-143107712D01*
X199358401Y-142933381D01*
X199301020Y-142744220D01*
X199288414Y-142616223D01*
X199286500Y-142596795D01*
X199286500Y-142403206D01*
X199301020Y-142255783D01*
X199301020Y-142255781D01*
X199358401Y-142066620D01*
X199358402Y-142066617D01*
X199407818Y-141974167D01*
X199451583Y-141892288D01*
X199576985Y-141739485D01*
X199729788Y-141614083D01*
X199904119Y-141520901D01*
X200093280Y-141463520D01*
X200290000Y-141444145D01*
X200486719Y-141463520D01*
G37*
G36*
X173776719Y-141463520D02*
G01*
X173965880Y-141520901D01*
X173965883Y-141520902D01*
X174058333Y-141570318D01*
X174140212Y-141614083D01*
X174293015Y-141739485D01*
X174418417Y-141892288D01*
X174511599Y-142066619D01*
X174568980Y-142255780D01*
X174583500Y-142403206D01*
X174583500Y-142596793D01*
X174568980Y-142744219D01*
X174511599Y-142933380D01*
X174511598Y-142933383D01*
X174503250Y-142949000D01*
X174418417Y-143107712D01*
X174293015Y-143260515D01*
X174140212Y-143385917D01*
X173965881Y-143479099D01*
X173776720Y-143536480D01*
X173580000Y-143555855D01*
X173383281Y-143536480D01*
X173194120Y-143479099D01*
X173019788Y-143385917D01*
X172866985Y-143260515D01*
X172741583Y-143107712D01*
X172648401Y-142933381D01*
X172591020Y-142744220D01*
X172578414Y-142616223D01*
X172576500Y-142596795D01*
X172576500Y-142403206D01*
X172591020Y-142255783D01*
X172591020Y-142255781D01*
X172648401Y-142066620D01*
X172648402Y-142066617D01*
X172697818Y-141974167D01*
X172741583Y-141892288D01*
X172866985Y-141739485D01*
X173019788Y-141614083D01*
X173194119Y-141520901D01*
X173383280Y-141463520D01*
X173580000Y-141444145D01*
X173776719Y-141463520D01*
G37*
G36*
X203026719Y-141463520D02*
G01*
X203215880Y-141520901D01*
X203215883Y-141520902D01*
X203308333Y-141570318D01*
X203390212Y-141614083D01*
X203543015Y-141739485D01*
X203668417Y-141892288D01*
X203761599Y-142066619D01*
X203818980Y-142255780D01*
X203833500Y-142403206D01*
X203833500Y-142596793D01*
X203818980Y-142744219D01*
X203761599Y-142933380D01*
X203761598Y-142933383D01*
X203753250Y-142949000D01*
X203668417Y-143107712D01*
X203543015Y-143260515D01*
X203390212Y-143385917D01*
X203215881Y-143479099D01*
X203026720Y-143536480D01*
X202830000Y-143555855D01*
X202633281Y-143536480D01*
X202444120Y-143479099D01*
X202269788Y-143385917D01*
X202116985Y-143260515D01*
X201991583Y-143107712D01*
X201898401Y-142933381D01*
X201841020Y-142744220D01*
X201828414Y-142616223D01*
X201826500Y-142596795D01*
X201826500Y-142403206D01*
X201841020Y-142255783D01*
X201841020Y-142255781D01*
X201898401Y-142066620D01*
X201898402Y-142066617D01*
X201947818Y-141974167D01*
X201991583Y-141892288D01*
X202116985Y-141739485D01*
X202269788Y-141614083D01*
X202444119Y-141520901D01*
X202633280Y-141463520D01*
X202830000Y-141444145D01*
X203026719Y-141463520D01*
G37*
G36*
X171236719Y-141463520D02*
G01*
X171425880Y-141520901D01*
X171425883Y-141520902D01*
X171518333Y-141570318D01*
X171600212Y-141614083D01*
X171753015Y-141739485D01*
X171878417Y-141892288D01*
X171971599Y-142066619D01*
X172028980Y-142255780D01*
X172043500Y-142403206D01*
X172043500Y-142596793D01*
X172028980Y-142744219D01*
X171971599Y-142933380D01*
X171971598Y-142933383D01*
X171963250Y-142949000D01*
X171878417Y-143107712D01*
X171753015Y-143260515D01*
X171600212Y-143385917D01*
X171425881Y-143479099D01*
X171236720Y-143536480D01*
X171040000Y-143555855D01*
X170843281Y-143536480D01*
X170654120Y-143479099D01*
X170479788Y-143385917D01*
X170326985Y-143260515D01*
X170201583Y-143107712D01*
X170108401Y-142933381D01*
X170051020Y-142744220D01*
X170038414Y-142616223D01*
X170036500Y-142596795D01*
X170036500Y-142403206D01*
X170051020Y-142255783D01*
X170051020Y-142255781D01*
X170108401Y-142066620D01*
X170108402Y-142066617D01*
X170157818Y-141974167D01*
X170201583Y-141892288D01*
X170326985Y-141739485D01*
X170479788Y-141614083D01*
X170654119Y-141520901D01*
X170843280Y-141463520D01*
X171040000Y-141444145D01*
X171236719Y-141463520D01*
G37*
G36*
X160486719Y-141463520D02*
G01*
X160675880Y-141520901D01*
X160675883Y-141520902D01*
X160768333Y-141570318D01*
X160850212Y-141614083D01*
X161003015Y-141739485D01*
X161128417Y-141892288D01*
X161221599Y-142066619D01*
X161278980Y-142255780D01*
X161293500Y-142403206D01*
X161293500Y-142596793D01*
X161278980Y-142744219D01*
X161221599Y-142933380D01*
X161221598Y-142933383D01*
X161213250Y-142949000D01*
X161128417Y-143107712D01*
X161003015Y-143260515D01*
X160850212Y-143385917D01*
X160675881Y-143479099D01*
X160486720Y-143536480D01*
X160290000Y-143555855D01*
X160093281Y-143536480D01*
X159904120Y-143479099D01*
X159729788Y-143385917D01*
X159576985Y-143260515D01*
X159451583Y-143107712D01*
X159358401Y-142933381D01*
X159301020Y-142744220D01*
X159288414Y-142616223D01*
X159286500Y-142596795D01*
X159286500Y-142403206D01*
X159301020Y-142255783D01*
X159301020Y-142255781D01*
X159358401Y-142066620D01*
X159358402Y-142066617D01*
X159407818Y-141974167D01*
X159451583Y-141892288D01*
X159576985Y-141739485D01*
X159729788Y-141614083D01*
X159904119Y-141520901D01*
X160093280Y-141463520D01*
X160290000Y-141444145D01*
X160486719Y-141463520D01*
G37*
G36*
X198753500Y-143551000D02*
G01*
X196746500Y-143551000D01*
X196746500Y-141449000D01*
X198753500Y-141449000D01*
X198753500Y-143551000D01*
G37*
G36*
X158753500Y-143551000D02*
G01*
X156746500Y-143551000D01*
X156746500Y-141449000D01*
X158753500Y-141449000D01*
X158753500Y-143551000D01*
G37*
G36*
X169503500Y-143551000D02*
G01*
X167496500Y-143551000D01*
X167496500Y-141449000D01*
X169503500Y-141449000D01*
X169503500Y-143551000D01*
G37*
G36*
X188003500Y-143551000D02*
G01*
X185996500Y-143551000D01*
X185996500Y-141449000D01*
X188003500Y-141449000D01*
X188003500Y-143551000D01*
G37*
G36*
X128186823Y-141111313D02*
G01*
X128347242Y-141159976D01*
X128470764Y-141226000D01*
X128495078Y-141238996D01*
X128624659Y-141345341D01*
X128731004Y-141474922D01*
X128731005Y-141474924D01*
X128810024Y-141622758D01*
X128858687Y-141783177D01*
X128875117Y-141950000D01*
X128858687Y-142116823D01*
X128830820Y-142208686D01*
X128816535Y-142255780D01*
X128810024Y-142277242D01*
X128742695Y-142403205D01*
X128731004Y-142425078D01*
X128624659Y-142554659D01*
X128495078Y-142661004D01*
X128495076Y-142661005D01*
X128347242Y-142740024D01*
X128347239Y-142740025D01*
X128333413Y-142744219D01*
X128186823Y-142788687D01*
X128061804Y-142801000D01*
X127178196Y-142801000D01*
X127053177Y-142788687D01*
X126906587Y-142744219D01*
X126892761Y-142740025D01*
X126892758Y-142740024D01*
X126744924Y-142661005D01*
X126744922Y-142661004D01*
X126615341Y-142554659D01*
X126508996Y-142425078D01*
X126497305Y-142403205D01*
X126429976Y-142277242D01*
X126423466Y-142255780D01*
X126409180Y-142208686D01*
X126381313Y-142116823D01*
X126364883Y-141950000D01*
X126381313Y-141783177D01*
X126429976Y-141622758D01*
X126508995Y-141474924D01*
X126508996Y-141474922D01*
X126615341Y-141345341D01*
X126744922Y-141238996D01*
X126769236Y-141226000D01*
X126892758Y-141159976D01*
X127053177Y-141111313D01*
X127178196Y-141099000D01*
X128061804Y-141099000D01*
X128186823Y-141111313D01*
G37*
G36*
X120566823Y-141111313D02*
G01*
X120727242Y-141159976D01*
X120850764Y-141226000D01*
X120875078Y-141238996D01*
X121004659Y-141345341D01*
X121111004Y-141474922D01*
X121111005Y-141474924D01*
X121190024Y-141622758D01*
X121238687Y-141783177D01*
X121255117Y-141950000D01*
X121238687Y-142116823D01*
X121210820Y-142208686D01*
X121196535Y-142255780D01*
X121190024Y-142277242D01*
X121122695Y-142403205D01*
X121111004Y-142425078D01*
X121004659Y-142554659D01*
X120875078Y-142661004D01*
X120875076Y-142661005D01*
X120727242Y-142740024D01*
X120727239Y-142740025D01*
X120713413Y-142744219D01*
X120566823Y-142788687D01*
X120441804Y-142801000D01*
X119558196Y-142801000D01*
X119433177Y-142788687D01*
X119286587Y-142744219D01*
X119272761Y-142740025D01*
X119272758Y-142740024D01*
X119124924Y-142661005D01*
X119124922Y-142661004D01*
X118995341Y-142554659D01*
X118888996Y-142425078D01*
X118877305Y-142403205D01*
X118809976Y-142277242D01*
X118803466Y-142255780D01*
X118789180Y-142208686D01*
X118761313Y-142116823D01*
X118744883Y-141950000D01*
X118761313Y-141783177D01*
X118809976Y-141622758D01*
X118888995Y-141474924D01*
X118888996Y-141474922D01*
X118995341Y-141345341D01*
X119124922Y-141238996D01*
X119149236Y-141226000D01*
X119272758Y-141159976D01*
X119433177Y-141111313D01*
X119558196Y-141099000D01*
X120441804Y-141099000D01*
X120566823Y-141111313D01*
G37*
G36*
X135066823Y-140531313D02*
G01*
X135227242Y-140579976D01*
X135359906Y-140650886D01*
X135375078Y-140658996D01*
X135504659Y-140765341D01*
X135611004Y-140894922D01*
X135611005Y-140894924D01*
X135690024Y-141042758D01*
X135738687Y-141203177D01*
X135755117Y-141370000D01*
X135738687Y-141536823D01*
X135690024Y-141697242D01*
X135644092Y-141783175D01*
X135611004Y-141845078D01*
X135504659Y-141974659D01*
X135375078Y-142081004D01*
X135375076Y-142081005D01*
X135227242Y-142160024D01*
X135066823Y-142208687D01*
X134941804Y-142221000D01*
X134058196Y-142221000D01*
X133933177Y-142208687D01*
X133772758Y-142160024D01*
X133624924Y-142081005D01*
X133624922Y-142081004D01*
X133495341Y-141974659D01*
X133388996Y-141845078D01*
X133355908Y-141783175D01*
X133309976Y-141697242D01*
X133261313Y-141536823D01*
X133244883Y-141370000D01*
X133261313Y-141203177D01*
X133309976Y-141042758D01*
X133388995Y-140894924D01*
X133388996Y-140894922D01*
X133495341Y-140765341D01*
X133624922Y-140658996D01*
X133640094Y-140650886D01*
X133772758Y-140579976D01*
X133933177Y-140531313D01*
X134058196Y-140519000D01*
X134941804Y-140519000D01*
X135066823Y-140531313D01*
G37*
G36*
X142686823Y-140531313D02*
G01*
X142847242Y-140579976D01*
X142979906Y-140650886D01*
X142995078Y-140658996D01*
X143124659Y-140765341D01*
X143231004Y-140894922D01*
X143231005Y-140894924D01*
X143310024Y-141042758D01*
X143358687Y-141203177D01*
X143375117Y-141370000D01*
X143358687Y-141536823D01*
X143310024Y-141697242D01*
X143264092Y-141783175D01*
X143231004Y-141845078D01*
X143124659Y-141974659D01*
X142995078Y-142081004D01*
X142995076Y-142081005D01*
X142847242Y-142160024D01*
X142686823Y-142208687D01*
X142561804Y-142221000D01*
X141678196Y-142221000D01*
X141553177Y-142208687D01*
X141392758Y-142160024D01*
X141244924Y-142081005D01*
X141244922Y-142081004D01*
X141115341Y-141974659D01*
X141008996Y-141845078D01*
X140975908Y-141783175D01*
X140929976Y-141697242D01*
X140881313Y-141536823D01*
X140864883Y-141370000D01*
X140881313Y-141203177D01*
X140929976Y-141042758D01*
X141008995Y-140894924D01*
X141008996Y-140894922D01*
X141115341Y-140765341D01*
X141244922Y-140658996D01*
X141260094Y-140650886D01*
X141392758Y-140579976D01*
X141553177Y-140531313D01*
X141678196Y-140519000D01*
X142561804Y-140519000D01*
X142686823Y-140531313D01*
G37*
G36*
X146084468Y-140153565D02*
G01*
X146123138Y-140165296D01*
X146158777Y-140184346D01*
X146190017Y-140209983D01*
X146215654Y-140241223D01*
X146234704Y-140276862D01*
X146246435Y-140315532D01*
X146251000Y-140361888D01*
X146251000Y-141013112D01*
X146246435Y-141059468D01*
X146234704Y-141098138D01*
X146215654Y-141133777D01*
X146190017Y-141165017D01*
X146158777Y-141190654D01*
X146123138Y-141209704D01*
X146084468Y-141221435D01*
X146038112Y-141226000D01*
X144961888Y-141226000D01*
X144915532Y-141221435D01*
X144876862Y-141209704D01*
X144841223Y-141190654D01*
X144809983Y-141165017D01*
X144784346Y-141133777D01*
X144765296Y-141098138D01*
X144753565Y-141059468D01*
X144749000Y-141013112D01*
X144749000Y-140361888D01*
X144753565Y-140315532D01*
X144765296Y-140276862D01*
X144784346Y-140241223D01*
X144809983Y-140209983D01*
X144841223Y-140184346D01*
X144876862Y-140165296D01*
X144915532Y-140153565D01*
X144961888Y-140149000D01*
X146038112Y-140149000D01*
X146084468Y-140153565D01*
G37*
G36*
X120566823Y-138571313D02*
G01*
X120727242Y-138619976D01*
X120808065Y-138663177D01*
X120875078Y-138698996D01*
X121004659Y-138805341D01*
X121111004Y-138934922D01*
X121111005Y-138934924D01*
X121190024Y-139082758D01*
X121238687Y-139243177D01*
X121255117Y-139410000D01*
X121238687Y-139576823D01*
X121190024Y-139737242D01*
X121119114Y-139869906D01*
X121111004Y-139885078D01*
X121004659Y-140014659D01*
X120875078Y-140121004D01*
X120875076Y-140121005D01*
X120727242Y-140200024D01*
X120566823Y-140248687D01*
X120441804Y-140261000D01*
X119558196Y-140261000D01*
X119433177Y-140248687D01*
X119272758Y-140200024D01*
X119124924Y-140121005D01*
X119124922Y-140121004D01*
X118995341Y-140014659D01*
X118888996Y-139885078D01*
X118880886Y-139869906D01*
X118809976Y-139737242D01*
X118761313Y-139576823D01*
X118744883Y-139410000D01*
X118761313Y-139243177D01*
X118809976Y-139082758D01*
X118888995Y-138934924D01*
X118888996Y-138934922D01*
X118995341Y-138805341D01*
X119124922Y-138698996D01*
X119191935Y-138663177D01*
X119272758Y-138619976D01*
X119433177Y-138571313D01*
X119558196Y-138559000D01*
X120441804Y-138559000D01*
X120566823Y-138571313D01*
G37*
G36*
X128186823Y-138571313D02*
G01*
X128347242Y-138619976D01*
X128428065Y-138663177D01*
X128495078Y-138698996D01*
X128624659Y-138805341D01*
X128731004Y-138934922D01*
X128731005Y-138934924D01*
X128810024Y-139082758D01*
X128858687Y-139243177D01*
X128875117Y-139410000D01*
X128858687Y-139576823D01*
X128810024Y-139737242D01*
X128739114Y-139869906D01*
X128731004Y-139885078D01*
X128624659Y-140014659D01*
X128495078Y-140121004D01*
X128495076Y-140121005D01*
X128347242Y-140200024D01*
X128186823Y-140248687D01*
X128061804Y-140261000D01*
X127178196Y-140261000D01*
X127053177Y-140248687D01*
X126892758Y-140200024D01*
X126744924Y-140121005D01*
X126744922Y-140121004D01*
X126615341Y-140014659D01*
X126508996Y-139885078D01*
X126500886Y-139869906D01*
X126429976Y-139737242D01*
X126381313Y-139576823D01*
X126364883Y-139410000D01*
X126381313Y-139243177D01*
X126429976Y-139082758D01*
X126508995Y-138934924D01*
X126508996Y-138934922D01*
X126615341Y-138805341D01*
X126744922Y-138698996D01*
X126811935Y-138663177D01*
X126892758Y-138619976D01*
X127053177Y-138571313D01*
X127178196Y-138559000D01*
X128061804Y-138559000D01*
X128186823Y-138571313D01*
G37*
G36*
X225845170Y-133997879D02*
G01*
X226139868Y-134056498D01*
X226695067Y-134286469D01*
X226956276Y-134461004D01*
X227194733Y-134620335D01*
X227619665Y-135045267D01*
X227762565Y-135259133D01*
X227953531Y-135544933D01*
X228183502Y-136100132D01*
X228223457Y-136301000D01*
X228300740Y-136689527D01*
X228300740Y-137290473D01*
X228267022Y-137459983D01*
X228183502Y-137879868D01*
X227953531Y-138435067D01*
X227801112Y-138663177D01*
X227619665Y-138934733D01*
X227194733Y-139359665D01*
X226980867Y-139502565D01*
X226695067Y-139693531D01*
X226139868Y-139923502D01*
X225845170Y-139982121D01*
X225550473Y-140040740D01*
X224949527Y-140040740D01*
X224654830Y-139982121D01*
X224360132Y-139923502D01*
X223804933Y-139693531D01*
X223519133Y-139502565D01*
X223305267Y-139359665D01*
X222880335Y-138934733D01*
X222698888Y-138663177D01*
X222546469Y-138435067D01*
X222316498Y-137879868D01*
X222232978Y-137459983D01*
X222199260Y-137290473D01*
X222199260Y-136689527D01*
X222276543Y-136301000D01*
X222316498Y-136100132D01*
X222546469Y-135544933D01*
X222737435Y-135259133D01*
X222880335Y-135045267D01*
X223305267Y-134620335D01*
X223543724Y-134461004D01*
X223804933Y-134286469D01*
X224360132Y-134056498D01*
X224654830Y-133997879D01*
X224949527Y-133939260D01*
X225550473Y-133939260D01*
X225845170Y-133997879D01*
G37*
G36*
X135066823Y-137991313D02*
G01*
X135227242Y-138039976D01*
X135359906Y-138110886D01*
X135375078Y-138118996D01*
X135504659Y-138225341D01*
X135611004Y-138354922D01*
X135611005Y-138354924D01*
X135690024Y-138502758D01*
X135738687Y-138663177D01*
X135755117Y-138830000D01*
X135738687Y-138996823D01*
X135690024Y-139157242D01*
X135675471Y-139184468D01*
X135611004Y-139305078D01*
X135504659Y-139434659D01*
X135375078Y-139541004D01*
X135375076Y-139541005D01*
X135227242Y-139620024D01*
X135066823Y-139668687D01*
X134941804Y-139681000D01*
X134058196Y-139681000D01*
X133933177Y-139668687D01*
X133772758Y-139620024D01*
X133624924Y-139541005D01*
X133624922Y-139541004D01*
X133495341Y-139434659D01*
X133388996Y-139305078D01*
X133324529Y-139184468D01*
X133309976Y-139157242D01*
X133261313Y-138996823D01*
X133244883Y-138830000D01*
X133261313Y-138663177D01*
X133309976Y-138502758D01*
X133388995Y-138354924D01*
X133388996Y-138354922D01*
X133495341Y-138225341D01*
X133624922Y-138118996D01*
X133640094Y-138110886D01*
X133772758Y-138039976D01*
X133933177Y-137991313D01*
X134058196Y-137979000D01*
X134941804Y-137979000D01*
X135066823Y-137991313D01*
G37*
G36*
X142686823Y-137991313D02*
G01*
X142847242Y-138039976D01*
X142979906Y-138110886D01*
X142995078Y-138118996D01*
X143124659Y-138225341D01*
X143231004Y-138354922D01*
X143231005Y-138354924D01*
X143310024Y-138502758D01*
X143358687Y-138663177D01*
X143375117Y-138830000D01*
X143358687Y-138996823D01*
X143310024Y-139157242D01*
X143295471Y-139184468D01*
X143231004Y-139305078D01*
X143124659Y-139434659D01*
X142995078Y-139541004D01*
X142995076Y-139541005D01*
X142847242Y-139620024D01*
X142686823Y-139668687D01*
X142561804Y-139681000D01*
X141678196Y-139681000D01*
X141553177Y-139668687D01*
X141392758Y-139620024D01*
X141244924Y-139541005D01*
X141244922Y-139541004D01*
X141115341Y-139434659D01*
X141008996Y-139305078D01*
X140944529Y-139184468D01*
X140929976Y-139157242D01*
X140881313Y-138996823D01*
X140864883Y-138830000D01*
X140881313Y-138663177D01*
X140929976Y-138502758D01*
X141008995Y-138354924D01*
X141008996Y-138354922D01*
X141115341Y-138225341D01*
X141244922Y-138118996D01*
X141260094Y-138110886D01*
X141392758Y-138039976D01*
X141553177Y-137991313D01*
X141678196Y-137979000D01*
X142561804Y-137979000D01*
X142686823Y-137991313D01*
G37*
G36*
X146084468Y-138278565D02*
G01*
X146123138Y-138290296D01*
X146158777Y-138309346D01*
X146190017Y-138334983D01*
X146215654Y-138366223D01*
X146234704Y-138401862D01*
X146246435Y-138440532D01*
X146251000Y-138486888D01*
X146251000Y-139138112D01*
X146246435Y-139184468D01*
X146234704Y-139223138D01*
X146215654Y-139258777D01*
X146190017Y-139290017D01*
X146158777Y-139315654D01*
X146123138Y-139334704D01*
X146084468Y-139346435D01*
X146038112Y-139351000D01*
X144961888Y-139351000D01*
X144915532Y-139346435D01*
X144876862Y-139334704D01*
X144841223Y-139315654D01*
X144809983Y-139290017D01*
X144784346Y-139258777D01*
X144765296Y-139223138D01*
X144753565Y-139184468D01*
X144749000Y-139138112D01*
X144749000Y-138486888D01*
X144753565Y-138440532D01*
X144765296Y-138401862D01*
X144784346Y-138366223D01*
X144809983Y-138334983D01*
X144841223Y-138309346D01*
X144876862Y-138290296D01*
X144915532Y-138278565D01*
X144961888Y-138274000D01*
X146038112Y-138274000D01*
X146084468Y-138278565D01*
G37*
G36*
X106248228Y-137471703D02*
G01*
X106403100Y-137535853D01*
X106542481Y-137628985D01*
X106661015Y-137747519D01*
X106754147Y-137886900D01*
X106818297Y-138041772D01*
X106851000Y-138206184D01*
X106851000Y-138373816D01*
X106818297Y-138538228D01*
X106754147Y-138693100D01*
X106661015Y-138832481D01*
X106542481Y-138951015D01*
X106403100Y-139044147D01*
X106248228Y-139108297D01*
X106083816Y-139141000D01*
X105916184Y-139141000D01*
X105751772Y-139108297D01*
X105596900Y-139044147D01*
X105457519Y-138951015D01*
X105338985Y-138832481D01*
X105245853Y-138693100D01*
X105181703Y-138538228D01*
X105149000Y-138373816D01*
X105149000Y-138206184D01*
X105181703Y-138041772D01*
X105245853Y-137886900D01*
X105338985Y-137747519D01*
X105457519Y-137628985D01*
X105596900Y-137535853D01*
X105751772Y-137471703D01*
X105916184Y-137439000D01*
X106083816Y-137439000D01*
X106248228Y-137471703D01*
G37*
G36*
X113868228Y-137471703D02*
G01*
X114023100Y-137535853D01*
X114162481Y-137628985D01*
X114281015Y-137747519D01*
X114374147Y-137886900D01*
X114438297Y-138041772D01*
X114471000Y-138206184D01*
X114471000Y-138373816D01*
X114438297Y-138538228D01*
X114374147Y-138693100D01*
X114281015Y-138832481D01*
X114162481Y-138951015D01*
X114023100Y-139044147D01*
X113868228Y-139108297D01*
X113703816Y-139141000D01*
X113536184Y-139141000D01*
X113371772Y-139108297D01*
X113216900Y-139044147D01*
X113077519Y-138951015D01*
X112958985Y-138832481D01*
X112865853Y-138693100D01*
X112801703Y-138538228D01*
X112769000Y-138373816D01*
X112769000Y-138206184D01*
X112801703Y-138041772D01*
X112865853Y-137886900D01*
X112958985Y-137747519D01*
X113077519Y-137628985D01*
X113216900Y-137535853D01*
X113371772Y-137471703D01*
X113536184Y-137439000D01*
X113703816Y-137439000D01*
X113868228Y-137471703D01*
G37*
G36*
X124334468Y-137403565D02*
G01*
X124373138Y-137415296D01*
X124408777Y-137434346D01*
X124440017Y-137459983D01*
X124465654Y-137491223D01*
X124484704Y-137526862D01*
X124496435Y-137565532D01*
X124501000Y-137611888D01*
X124501000Y-138263112D01*
X124496435Y-138309468D01*
X124484704Y-138348138D01*
X124465654Y-138383777D01*
X124440017Y-138415017D01*
X124408777Y-138440654D01*
X124373138Y-138459704D01*
X124334468Y-138471435D01*
X124288112Y-138476000D01*
X123211888Y-138476000D01*
X123165532Y-138471435D01*
X123126862Y-138459704D01*
X123091223Y-138440654D01*
X123059983Y-138415017D01*
X123034346Y-138383777D01*
X123015296Y-138348138D01*
X123003565Y-138309468D01*
X122999000Y-138263112D01*
X122999000Y-137611888D01*
X123003565Y-137565532D01*
X123015296Y-137526862D01*
X123034346Y-137491223D01*
X123059983Y-137459983D01*
X123091223Y-137434346D01*
X123126862Y-137415296D01*
X123165532Y-137403565D01*
X123211888Y-137399000D01*
X124288112Y-137399000D01*
X124334468Y-137403565D01*
G37*
G36*
X128186823Y-136031313D02*
G01*
X128347242Y-136079976D01*
X128428065Y-136123177D01*
X128495078Y-136158996D01*
X128624659Y-136265341D01*
X128731004Y-136394922D01*
X128731005Y-136394924D01*
X128810024Y-136542758D01*
X128810025Y-136542761D01*
X128817771Y-136568295D01*
X128858687Y-136703177D01*
X128875117Y-136870000D01*
X128858687Y-137036823D01*
X128810024Y-137197242D01*
X128760191Y-137290472D01*
X128731004Y-137345078D01*
X128624659Y-137474659D01*
X128495078Y-137581004D01*
X128495076Y-137581005D01*
X128347242Y-137660024D01*
X128186823Y-137708687D01*
X128061804Y-137721000D01*
X127178196Y-137721000D01*
X127053177Y-137708687D01*
X126892758Y-137660024D01*
X126744924Y-137581005D01*
X126744922Y-137581004D01*
X126615341Y-137474659D01*
X126508996Y-137345078D01*
X126479809Y-137290472D01*
X126429976Y-137197242D01*
X126381313Y-137036823D01*
X126364883Y-136870000D01*
X126381313Y-136703177D01*
X126422229Y-136568295D01*
X126429975Y-136542761D01*
X126429976Y-136542758D01*
X126508995Y-136394924D01*
X126508996Y-136394922D01*
X126615341Y-136265341D01*
X126744922Y-136158996D01*
X126811935Y-136123177D01*
X126892758Y-136079976D01*
X127053177Y-136031313D01*
X127178196Y-136019000D01*
X128061804Y-136019000D01*
X128186823Y-136031313D01*
G37*
G36*
X120566823Y-136031313D02*
G01*
X120727242Y-136079976D01*
X120808065Y-136123177D01*
X120875078Y-136158996D01*
X121004659Y-136265341D01*
X121111004Y-136394922D01*
X121111005Y-136394924D01*
X121190024Y-136542758D01*
X121190025Y-136542761D01*
X121197771Y-136568295D01*
X121238687Y-136703177D01*
X121255117Y-136870000D01*
X121238687Y-137036823D01*
X121190024Y-137197242D01*
X121140191Y-137290472D01*
X121111004Y-137345078D01*
X121004659Y-137474659D01*
X120875078Y-137581004D01*
X120875076Y-137581005D01*
X120727242Y-137660024D01*
X120566823Y-137708687D01*
X120441804Y-137721000D01*
X119558196Y-137721000D01*
X119433177Y-137708687D01*
X119272758Y-137660024D01*
X119124924Y-137581005D01*
X119124922Y-137581004D01*
X118995341Y-137474659D01*
X118888996Y-137345078D01*
X118859809Y-137290472D01*
X118809976Y-137197242D01*
X118761313Y-137036823D01*
X118744883Y-136870000D01*
X118761313Y-136703177D01*
X118802229Y-136568295D01*
X118809975Y-136542761D01*
X118809976Y-136542758D01*
X118888995Y-136394924D01*
X118888996Y-136394922D01*
X118995341Y-136265341D01*
X119124922Y-136158996D01*
X119191935Y-136123177D01*
X119272758Y-136079976D01*
X119433177Y-136031313D01*
X119558196Y-136019000D01*
X120441804Y-136019000D01*
X120566823Y-136031313D01*
G37*
G36*
X146651000Y-137401000D02*
G01*
X144349000Y-137401000D01*
X144349000Y-135099000D01*
X146651000Y-135099000D01*
X146651000Y-137401000D01*
G37*
G36*
X142686823Y-135451313D02*
G01*
X142847242Y-135499976D01*
X142953112Y-135556565D01*
X142995078Y-135578996D01*
X143124659Y-135685341D01*
X143231004Y-135814922D01*
X143231005Y-135814924D01*
X143310024Y-135962758D01*
X143358687Y-136123177D01*
X143375117Y-136290000D01*
X143358687Y-136456823D01*
X143310024Y-136617242D01*
X143271387Y-136689527D01*
X143231004Y-136765078D01*
X143124659Y-136894659D01*
X142995078Y-137001004D01*
X142995076Y-137001005D01*
X142847242Y-137080024D01*
X142686823Y-137128687D01*
X142561804Y-137141000D01*
X141678196Y-137141000D01*
X141553177Y-137128687D01*
X141392758Y-137080024D01*
X141244924Y-137001005D01*
X141244922Y-137001004D01*
X141115341Y-136894659D01*
X141008996Y-136765078D01*
X140968613Y-136689527D01*
X140929976Y-136617242D01*
X140881313Y-136456823D01*
X140864883Y-136290000D01*
X140881313Y-136123177D01*
X140929976Y-135962758D01*
X141008995Y-135814924D01*
X141008996Y-135814922D01*
X141115341Y-135685341D01*
X141244922Y-135578996D01*
X141286888Y-135556565D01*
X141392758Y-135499976D01*
X141553177Y-135451313D01*
X141678196Y-135439000D01*
X142561804Y-135439000D01*
X142686823Y-135451313D01*
G37*
G36*
X135066823Y-135451313D02*
G01*
X135227242Y-135499976D01*
X135333112Y-135556565D01*
X135375078Y-135578996D01*
X135504659Y-135685341D01*
X135611004Y-135814922D01*
X135611005Y-135814924D01*
X135690024Y-135962758D01*
X135738687Y-136123177D01*
X135755117Y-136290000D01*
X135738687Y-136456823D01*
X135690024Y-136617242D01*
X135651387Y-136689527D01*
X135611004Y-136765078D01*
X135504659Y-136894659D01*
X135375078Y-137001004D01*
X135375076Y-137001005D01*
X135227242Y-137080024D01*
X135066823Y-137128687D01*
X134941804Y-137141000D01*
X134058196Y-137141000D01*
X133933177Y-137128687D01*
X133772758Y-137080024D01*
X133624924Y-137001005D01*
X133624922Y-137001004D01*
X133495341Y-136894659D01*
X133388996Y-136765078D01*
X133348613Y-136689527D01*
X133309976Y-136617242D01*
X133261313Y-136456823D01*
X133244883Y-136290000D01*
X133261313Y-136123177D01*
X133309976Y-135962758D01*
X133388995Y-135814924D01*
X133388996Y-135814922D01*
X133495341Y-135685341D01*
X133624922Y-135578996D01*
X133666888Y-135556565D01*
X133772758Y-135499976D01*
X133933177Y-135451313D01*
X134058196Y-135439000D01*
X134941804Y-135439000D01*
X135066823Y-135451313D01*
G37*
G36*
X113868228Y-134931703D02*
G01*
X114023100Y-134995853D01*
X114162481Y-135088985D01*
X114281015Y-135207519D01*
X114374147Y-135346900D01*
X114438297Y-135501772D01*
X114471000Y-135666184D01*
X114471000Y-135833816D01*
X114438297Y-135998228D01*
X114374147Y-136153100D01*
X114281015Y-136292481D01*
X114162481Y-136411015D01*
X114023100Y-136504147D01*
X113868228Y-136568297D01*
X113703816Y-136601000D01*
X113536184Y-136601000D01*
X113371772Y-136568297D01*
X113216900Y-136504147D01*
X113077519Y-136411015D01*
X112958985Y-136292481D01*
X112865853Y-136153100D01*
X112801703Y-135998228D01*
X112769000Y-135833816D01*
X112769000Y-135666184D01*
X112801703Y-135501772D01*
X112865853Y-135346900D01*
X112958985Y-135207519D01*
X113077519Y-135088985D01*
X113216900Y-134995853D01*
X113371772Y-134931703D01*
X113536184Y-134899000D01*
X113703816Y-134899000D01*
X113868228Y-134931703D01*
G37*
G36*
X106851000Y-136601000D02*
G01*
X105149000Y-136601000D01*
X105149000Y-134899000D01*
X106851000Y-134899000D01*
X106851000Y-136601000D01*
G37*
G36*
X124334468Y-135528565D02*
G01*
X124373138Y-135540296D01*
X124408777Y-135559346D01*
X124440017Y-135584983D01*
X124465654Y-135616223D01*
X124484704Y-135651862D01*
X124496435Y-135690532D01*
X124501000Y-135736888D01*
X124501000Y-136388112D01*
X124496435Y-136434468D01*
X124484704Y-136473138D01*
X124465654Y-136508777D01*
X124440017Y-136540017D01*
X124408777Y-136565654D01*
X124373138Y-136584704D01*
X124334468Y-136596435D01*
X124288112Y-136601000D01*
X123211888Y-136601000D01*
X123165532Y-136596435D01*
X123126862Y-136584704D01*
X123091223Y-136565654D01*
X123059983Y-136540017D01*
X123034346Y-136508777D01*
X123015296Y-136473138D01*
X123003565Y-136434468D01*
X122999000Y-136388112D01*
X122999000Y-135736888D01*
X123003565Y-135690532D01*
X123015296Y-135651862D01*
X123034346Y-135616223D01*
X123059983Y-135584983D01*
X123091223Y-135559346D01*
X123126862Y-135540296D01*
X123165532Y-135528565D01*
X123211888Y-135524000D01*
X124288112Y-135524000D01*
X124334468Y-135528565D01*
G37*
G36*
X183845170Y-130377879D02*
G01*
X184139868Y-130436498D01*
X184695067Y-130666469D01*
X184980867Y-130857435D01*
X185194733Y-131000335D01*
X185619665Y-131425267D01*
X185735749Y-131599000D01*
X185953531Y-131924933D01*
X186183502Y-132480132D01*
X186300740Y-133069528D01*
X186300740Y-133670472D01*
X186183502Y-134259868D01*
X185953531Y-134815067D01*
X185799716Y-135045267D01*
X185619665Y-135314733D01*
X185194733Y-135739665D01*
X185053825Y-135833816D01*
X184695067Y-136073531D01*
X184139868Y-136303502D01*
X183845170Y-136362121D01*
X183550473Y-136420740D01*
X182949527Y-136420740D01*
X182654830Y-136362121D01*
X182360132Y-136303502D01*
X181804933Y-136073531D01*
X181446175Y-135833816D01*
X181305267Y-135739665D01*
X180880335Y-135314733D01*
X180700284Y-135045267D01*
X180546469Y-134815067D01*
X180316498Y-134259868D01*
X180199260Y-133670472D01*
X180199260Y-133069528D01*
X180316498Y-132480132D01*
X180546469Y-131924933D01*
X180764251Y-131599000D01*
X180880335Y-131425267D01*
X181305267Y-131000335D01*
X181519133Y-130857435D01*
X181804933Y-130666469D01*
X182360132Y-130436498D01*
X182654830Y-130377879D01*
X182949527Y-130319260D01*
X183550473Y-130319260D01*
X183845170Y-130377879D01*
G37*
G36*
X216556564Y-134239389D02*
G01*
X216747833Y-134318615D01*
X216747835Y-134318616D01*
X216919973Y-134433635D01*
X217066365Y-134580027D01*
X217155280Y-134713097D01*
X217181385Y-134752167D01*
X217260611Y-134943436D01*
X217301000Y-135146484D01*
X217301000Y-135353516D01*
X217260611Y-135556564D01*
X217184769Y-135739664D01*
X217181384Y-135747835D01*
X217066365Y-135919973D01*
X216919973Y-136066365D01*
X216747835Y-136181384D01*
X216747834Y-136181385D01*
X216747833Y-136181385D01*
X216556564Y-136260611D01*
X216353516Y-136301000D01*
X216146484Y-136301000D01*
X215943436Y-136260611D01*
X215752167Y-136181385D01*
X215752166Y-136181385D01*
X215752165Y-136181384D01*
X215580027Y-136066365D01*
X215433635Y-135919973D01*
X215318616Y-135747835D01*
X215315231Y-135739664D01*
X215239389Y-135556564D01*
X215199000Y-135353516D01*
X215199000Y-135146484D01*
X215239389Y-134943436D01*
X215318615Y-134752167D01*
X215344721Y-134713097D01*
X215433635Y-134580027D01*
X215580027Y-134433635D01*
X215752165Y-134318616D01*
X215752167Y-134318615D01*
X215943436Y-134239389D01*
X216146484Y-134199000D01*
X216353516Y-134199000D01*
X216556564Y-134239389D01*
G37*
G36*
X212301000Y-136301000D02*
G01*
X210199000Y-136301000D01*
X210199000Y-134199000D01*
X212301000Y-134199000D01*
X212301000Y-136301000D01*
G37*
G36*
X120566823Y-133491313D02*
G01*
X120727242Y-133539976D01*
X120808065Y-133583177D01*
X120875078Y-133618996D01*
X121004659Y-133725341D01*
X121111004Y-133854922D01*
X121111005Y-133854924D01*
X121190024Y-134002758D01*
X121238687Y-134163177D01*
X121255117Y-134330000D01*
X121238687Y-134496823D01*
X121190024Y-134657242D01*
X121139285Y-134752167D01*
X121111004Y-134805078D01*
X121004659Y-134934659D01*
X120875078Y-135041004D01*
X120875076Y-135041005D01*
X120727242Y-135120024D01*
X120566823Y-135168687D01*
X120441804Y-135181000D01*
X119558196Y-135181000D01*
X119433177Y-135168687D01*
X119272758Y-135120024D01*
X119124924Y-135041005D01*
X119124922Y-135041004D01*
X118995341Y-134934659D01*
X118888996Y-134805078D01*
X118860715Y-134752167D01*
X118809976Y-134657242D01*
X118761313Y-134496823D01*
X118744883Y-134330000D01*
X118761313Y-134163177D01*
X118809976Y-134002758D01*
X118888995Y-133854924D01*
X118888996Y-133854922D01*
X118995341Y-133725341D01*
X119124922Y-133618996D01*
X119191935Y-133583177D01*
X119272758Y-133539976D01*
X119433177Y-133491313D01*
X119558196Y-133479000D01*
X120441804Y-133479000D01*
X120566823Y-133491313D01*
G37*
G36*
X128186823Y-133491313D02*
G01*
X128347242Y-133539976D01*
X128428065Y-133583177D01*
X128495078Y-133618996D01*
X128624659Y-133725341D01*
X128731004Y-133854922D01*
X128731005Y-133854924D01*
X128810024Y-134002758D01*
X128858687Y-134163177D01*
X128875117Y-134330000D01*
X128858687Y-134496823D01*
X128810024Y-134657242D01*
X128759285Y-134752167D01*
X128731004Y-134805078D01*
X128624659Y-134934659D01*
X128495078Y-135041004D01*
X128495076Y-135041005D01*
X128347242Y-135120024D01*
X128186823Y-135168687D01*
X128061804Y-135181000D01*
X127178196Y-135181000D01*
X127053177Y-135168687D01*
X126892758Y-135120024D01*
X126744924Y-135041005D01*
X126744922Y-135041004D01*
X126615341Y-134934659D01*
X126508996Y-134805078D01*
X126480715Y-134752167D01*
X126429976Y-134657242D01*
X126381313Y-134496823D01*
X126364883Y-134330000D01*
X126381313Y-134163177D01*
X126429976Y-134002758D01*
X126508995Y-133854924D01*
X126508996Y-133854922D01*
X126615341Y-133725341D01*
X126744922Y-133618996D01*
X126811935Y-133583177D01*
X126892758Y-133539976D01*
X127053177Y-133491313D01*
X127178196Y-133479000D01*
X128061804Y-133479000D01*
X128186823Y-133491313D01*
G37*
G36*
X205901000Y-134901000D02*
G01*
X202599000Y-134901000D01*
X202599000Y-131599000D01*
X205901000Y-131599000D01*
X205901000Y-134901000D01*
G37*
G36*
X191925256Y-131641298D02*
G01*
X192031579Y-131662447D01*
X192332042Y-131786903D01*
X192602451Y-131967585D01*
X192832415Y-132197549D01*
X193013097Y-132467958D01*
X193071227Y-132608295D01*
X193137553Y-132768422D01*
X193201000Y-133087389D01*
X193201000Y-133412611D01*
X193175665Y-133539976D01*
X193137553Y-133731579D01*
X193013097Y-134032042D01*
X192832415Y-134302451D01*
X192602451Y-134532415D01*
X192332042Y-134713097D01*
X192031579Y-134837553D01*
X191925256Y-134858702D01*
X191712611Y-134901000D01*
X191387389Y-134901000D01*
X191174744Y-134858702D01*
X191068421Y-134837553D01*
X190767958Y-134713097D01*
X190497549Y-134532415D01*
X190267585Y-134302451D01*
X190086903Y-134032042D01*
X189962447Y-133731579D01*
X189924335Y-133539976D01*
X189899000Y-133412611D01*
X189899000Y-133087389D01*
X189962447Y-132768422D01*
X190028774Y-132608295D01*
X190086903Y-132467958D01*
X190267585Y-132197549D01*
X190497549Y-131967585D01*
X190767958Y-131786903D01*
X191068421Y-131662447D01*
X191174744Y-131641298D01*
X191387389Y-131599000D01*
X191712611Y-131599000D01*
X191925256Y-131641298D01*
G37*
G36*
X169401000Y-134901000D02*
G01*
X166099000Y-134901000D01*
X166099000Y-131599000D01*
X169401000Y-131599000D01*
X169401000Y-134901000D01*
G37*
G36*
X155425256Y-131641298D02*
G01*
X155531579Y-131662447D01*
X155832042Y-131786903D01*
X156102451Y-131967585D01*
X156332415Y-132197549D01*
X156513097Y-132467958D01*
X156571227Y-132608295D01*
X156637553Y-132768422D01*
X156701000Y-133087389D01*
X156701000Y-133412611D01*
X156675665Y-133539976D01*
X156637553Y-133731579D01*
X156513097Y-134032042D01*
X156332415Y-134302451D01*
X156102451Y-134532415D01*
X155832042Y-134713097D01*
X155531579Y-134837553D01*
X155425256Y-134858702D01*
X155212611Y-134901000D01*
X154887389Y-134901000D01*
X154674744Y-134858702D01*
X154568421Y-134837553D01*
X154267958Y-134713097D01*
X153997549Y-134532415D01*
X153767585Y-134302451D01*
X153586903Y-134032042D01*
X153462447Y-133731579D01*
X153424335Y-133539976D01*
X153399000Y-133412611D01*
X153399000Y-133087389D01*
X153462447Y-132768422D01*
X153528774Y-132608295D01*
X153586903Y-132467958D01*
X153767585Y-132197549D01*
X153997549Y-131967585D01*
X154267958Y-131786903D01*
X154568421Y-131662447D01*
X154674744Y-131641298D01*
X154887389Y-131599000D01*
X155212611Y-131599000D01*
X155425256Y-131641298D01*
G37*
G36*
X142686823Y-132911313D02*
G01*
X142847242Y-132959976D01*
X142979906Y-133030886D01*
X142995078Y-133038996D01*
X143124659Y-133145341D01*
X143231004Y-133274922D01*
X143231005Y-133274924D01*
X143310024Y-133422758D01*
X143358687Y-133583177D01*
X143375117Y-133750000D01*
X143358687Y-133916823D01*
X143310024Y-134077242D01*
X143264092Y-134163175D01*
X143231004Y-134225078D01*
X143124659Y-134354659D01*
X142995078Y-134461004D01*
X142995076Y-134461005D01*
X142847242Y-134540024D01*
X142686823Y-134588687D01*
X142561804Y-134601000D01*
X141678196Y-134601000D01*
X141553177Y-134588687D01*
X141392758Y-134540024D01*
X141244924Y-134461005D01*
X141244922Y-134461004D01*
X141115341Y-134354659D01*
X141008996Y-134225078D01*
X140975908Y-134163175D01*
X140929976Y-134077242D01*
X140881313Y-133916823D01*
X140864883Y-133750000D01*
X140881313Y-133583177D01*
X140929976Y-133422758D01*
X141008995Y-133274924D01*
X141008996Y-133274922D01*
X141115341Y-133145341D01*
X141244922Y-133038996D01*
X141260094Y-133030886D01*
X141392758Y-132959976D01*
X141553177Y-132911313D01*
X141678196Y-132899000D01*
X142561804Y-132899000D01*
X142686823Y-132911313D01*
G37*
G36*
X135751000Y-134601000D02*
G01*
X133249000Y-134601000D01*
X133249000Y-132899000D01*
X135751000Y-132899000D01*
X135751000Y-134601000D01*
G37*
G36*
X120566823Y-130951313D02*
G01*
X120727242Y-130999976D01*
X120794361Y-131035852D01*
X120875078Y-131078996D01*
X121004659Y-131185341D01*
X121111004Y-131314922D01*
X121111005Y-131314924D01*
X121190024Y-131462758D01*
X121238687Y-131623177D01*
X121255117Y-131790000D01*
X121238687Y-131956823D01*
X121190024Y-132117242D01*
X121149477Y-132193100D01*
X121111004Y-132265078D01*
X121004659Y-132394659D01*
X120875078Y-132501004D01*
X120875076Y-132501005D01*
X120727242Y-132580024D01*
X120566823Y-132628687D01*
X120441804Y-132641000D01*
X119558196Y-132641000D01*
X119433177Y-132628687D01*
X119272758Y-132580024D01*
X119124924Y-132501005D01*
X119124922Y-132501004D01*
X118995341Y-132394659D01*
X118888996Y-132265078D01*
X118850523Y-132193100D01*
X118809976Y-132117242D01*
X118761313Y-131956823D01*
X118744883Y-131790000D01*
X118761313Y-131623177D01*
X118809976Y-131462758D01*
X118888995Y-131314924D01*
X118888996Y-131314922D01*
X118995341Y-131185341D01*
X119124922Y-131078996D01*
X119205639Y-131035852D01*
X119272758Y-130999976D01*
X119433177Y-130951313D01*
X119558196Y-130939000D01*
X120441804Y-130939000D01*
X120566823Y-130951313D01*
G37*
G36*
X106248228Y-130971703D02*
G01*
X106403100Y-131035853D01*
X106542481Y-131128985D01*
X106661015Y-131247519D01*
X106754147Y-131386900D01*
X106818297Y-131541772D01*
X106851000Y-131706184D01*
X106851000Y-131873816D01*
X106818297Y-132038228D01*
X106754147Y-132193100D01*
X106661015Y-132332481D01*
X106542481Y-132451015D01*
X106403100Y-132544147D01*
X106248228Y-132608297D01*
X106083816Y-132641000D01*
X105916184Y-132641000D01*
X105751772Y-132608297D01*
X105596900Y-132544147D01*
X105457519Y-132451015D01*
X105338985Y-132332481D01*
X105245853Y-132193100D01*
X105181703Y-132038228D01*
X105149000Y-131873816D01*
X105149000Y-131706184D01*
X105181703Y-131541772D01*
X105245853Y-131386900D01*
X105338985Y-131247519D01*
X105457519Y-131128985D01*
X105596900Y-131035853D01*
X105751772Y-130971703D01*
X105916184Y-130939000D01*
X106083816Y-130939000D01*
X106248228Y-130971703D01*
G37*
G36*
X113868228Y-130971703D02*
G01*
X114023100Y-131035853D01*
X114162481Y-131128985D01*
X114281015Y-131247519D01*
X114374147Y-131386900D01*
X114438297Y-131541772D01*
X114471000Y-131706184D01*
X114471000Y-131873816D01*
X114438297Y-132038228D01*
X114374147Y-132193100D01*
X114281015Y-132332481D01*
X114162481Y-132451015D01*
X114023100Y-132544147D01*
X113868228Y-132608297D01*
X113703816Y-132641000D01*
X113536184Y-132641000D01*
X113371772Y-132608297D01*
X113216900Y-132544147D01*
X113077519Y-132451015D01*
X112958985Y-132332481D01*
X112865853Y-132193100D01*
X112801703Y-132038228D01*
X112769000Y-131873816D01*
X112769000Y-131706184D01*
X112801703Y-131541772D01*
X112865853Y-131386900D01*
X112958985Y-131247519D01*
X113077519Y-131128985D01*
X113216900Y-131035853D01*
X113371772Y-130971703D01*
X113536184Y-130939000D01*
X113703816Y-130939000D01*
X113868228Y-130971703D01*
G37*
G36*
X128186823Y-130951313D02*
G01*
X128347242Y-130999976D01*
X128414361Y-131035852D01*
X128495078Y-131078996D01*
X128624659Y-131185341D01*
X128731004Y-131314922D01*
X128731005Y-131314924D01*
X128810024Y-131462758D01*
X128858687Y-131623177D01*
X128875117Y-131790000D01*
X128858687Y-131956823D01*
X128810024Y-132117242D01*
X128769477Y-132193100D01*
X128731004Y-132265078D01*
X128624659Y-132394659D01*
X128495078Y-132501004D01*
X128495076Y-132501005D01*
X128347242Y-132580024D01*
X128186823Y-132628687D01*
X128061804Y-132641000D01*
X127178196Y-132641000D01*
X127053177Y-132628687D01*
X126892758Y-132580024D01*
X126744924Y-132501005D01*
X126744922Y-132501004D01*
X126615341Y-132394659D01*
X126508996Y-132265078D01*
X126470523Y-132193100D01*
X126429976Y-132117242D01*
X126381313Y-131956823D01*
X126364883Y-131790000D01*
X126381313Y-131623177D01*
X126429976Y-131462758D01*
X126508995Y-131314924D01*
X126508996Y-131314922D01*
X126615341Y-131185341D01*
X126744922Y-131078996D01*
X126825639Y-131035852D01*
X126892758Y-130999976D01*
X127053177Y-130951313D01*
X127178196Y-130939000D01*
X128061804Y-130939000D01*
X128186823Y-130951313D01*
G37*
G36*
X228300740Y-132420740D02*
G01*
X222199260Y-132420740D01*
X222199260Y-126319260D01*
X228300740Y-126319260D01*
X228300740Y-132420740D01*
G37*
G36*
X128186823Y-128411313D02*
G01*
X128347242Y-128459976D01*
X128414361Y-128495852D01*
X128495078Y-128538996D01*
X128624659Y-128645341D01*
X128731004Y-128774922D01*
X128731005Y-128774924D01*
X128810024Y-128922758D01*
X128858687Y-129083177D01*
X128875117Y-129250000D01*
X128858687Y-129416823D01*
X128810024Y-129577242D01*
X128769477Y-129653100D01*
X128731004Y-129725078D01*
X128624659Y-129854659D01*
X128495078Y-129961004D01*
X128495076Y-129961005D01*
X128347242Y-130040024D01*
X128186823Y-130088687D01*
X128061804Y-130101000D01*
X127178196Y-130101000D01*
X127053177Y-130088687D01*
X126892758Y-130040024D01*
X126744924Y-129961005D01*
X126744922Y-129961004D01*
X126615341Y-129854659D01*
X126508996Y-129725078D01*
X126470523Y-129653100D01*
X126429976Y-129577242D01*
X126381313Y-129416823D01*
X126364883Y-129250000D01*
X126381313Y-129083177D01*
X126429976Y-128922758D01*
X126508995Y-128774924D01*
X126508996Y-128774922D01*
X126615341Y-128645341D01*
X126744922Y-128538996D01*
X126825639Y-128495852D01*
X126892758Y-128459976D01*
X127053177Y-128411313D01*
X127178196Y-128399000D01*
X128061804Y-128399000D01*
X128186823Y-128411313D01*
G37*
G36*
X121251000Y-130101000D02*
G01*
X118749000Y-130101000D01*
X118749000Y-128399000D01*
X121251000Y-128399000D01*
X121251000Y-130101000D01*
G37*
G36*
X113868228Y-128431703D02*
G01*
X114023100Y-128495853D01*
X114162481Y-128588985D01*
X114281015Y-128707519D01*
X114374147Y-128846900D01*
X114438297Y-129001772D01*
X114471000Y-129166184D01*
X114471000Y-129333816D01*
X114438297Y-129498228D01*
X114374147Y-129653100D01*
X114281015Y-129792481D01*
X114162481Y-129911015D01*
X114023100Y-130004147D01*
X113868228Y-130068297D01*
X113703816Y-130101000D01*
X113536184Y-130101000D01*
X113371772Y-130068297D01*
X113216900Y-130004147D01*
X113077519Y-129911015D01*
X112958985Y-129792481D01*
X112865853Y-129653100D01*
X112801703Y-129498228D01*
X112769000Y-129333816D01*
X112769000Y-129166184D01*
X112801703Y-129001772D01*
X112865853Y-128846900D01*
X112958985Y-128707519D01*
X113077519Y-128588985D01*
X113216900Y-128495853D01*
X113371772Y-128431703D01*
X113536184Y-128399000D01*
X113703816Y-128399000D01*
X113868228Y-128431703D01*
G37*
G36*
X106851000Y-130101000D02*
G01*
X105149000Y-130101000D01*
X105149000Y-128399000D01*
X106851000Y-128399000D01*
X106851000Y-130101000D01*
G37*
G36*
X186300740Y-128800740D02*
G01*
X180199260Y-128800740D01*
X180199260Y-122699260D01*
X186300740Y-122699260D01*
X186300740Y-128800740D01*
G37*
G36*
X205901000Y-127401000D02*
G01*
X202599000Y-127401000D01*
X202599000Y-124099000D01*
X205901000Y-124099000D01*
X205901000Y-127401000D01*
G37*
G36*
X169401000Y-127401000D02*
G01*
X166099000Y-127401000D01*
X166099000Y-124099000D01*
X169401000Y-124099000D01*
X169401000Y-127401000D01*
G37*
G36*
X155425256Y-124141298D02*
G01*
X155531579Y-124162447D01*
X155832042Y-124286903D01*
X156102451Y-124467585D01*
X156332415Y-124697549D01*
X156513097Y-124967958D01*
X156513098Y-124967960D01*
X156637553Y-125268422D01*
X156701000Y-125587389D01*
X156701000Y-125912611D01*
X156669061Y-126073177D01*
X156637553Y-126231579D01*
X156513097Y-126532042D01*
X156332415Y-126802451D01*
X156102451Y-127032415D01*
X155832042Y-127213097D01*
X155531579Y-127337553D01*
X155425256Y-127358702D01*
X155212611Y-127401000D01*
X154887389Y-127401000D01*
X154674744Y-127358702D01*
X154568421Y-127337553D01*
X154267958Y-127213097D01*
X153997549Y-127032415D01*
X153767585Y-126802451D01*
X153586903Y-126532042D01*
X153462447Y-126231579D01*
X153430939Y-126073177D01*
X153399000Y-125912611D01*
X153399000Y-125587389D01*
X153462447Y-125268422D01*
X153586902Y-124967960D01*
X153586903Y-124967958D01*
X153767585Y-124697549D01*
X153997549Y-124467585D01*
X154267958Y-124286903D01*
X154568421Y-124162447D01*
X154674744Y-124141298D01*
X154887389Y-124099000D01*
X155212611Y-124099000D01*
X155425256Y-124141298D01*
G37*
G36*
X191925256Y-124141298D02*
G01*
X192031579Y-124162447D01*
X192332042Y-124286903D01*
X192602451Y-124467585D01*
X192832415Y-124697549D01*
X193013097Y-124967958D01*
X193013098Y-124967960D01*
X193137553Y-125268422D01*
X193201000Y-125587389D01*
X193201000Y-125912611D01*
X193169061Y-126073177D01*
X193137553Y-126231579D01*
X193013097Y-126532042D01*
X192832415Y-126802451D01*
X192602451Y-127032415D01*
X192332042Y-127213097D01*
X192031579Y-127337553D01*
X191925256Y-127358702D01*
X191712611Y-127401000D01*
X191387389Y-127401000D01*
X191174744Y-127358702D01*
X191068421Y-127337553D01*
X190767958Y-127213097D01*
X190497549Y-127032415D01*
X190267585Y-126802451D01*
X190086903Y-126532042D01*
X189962447Y-126231579D01*
X189930939Y-126073177D01*
X189899000Y-125912611D01*
X189899000Y-125587389D01*
X189962447Y-125268422D01*
X190086902Y-124967960D01*
X190086903Y-124967958D01*
X190267585Y-124697549D01*
X190497549Y-124467585D01*
X190767958Y-124286903D01*
X191068421Y-124162447D01*
X191174744Y-124141298D01*
X191387389Y-124099000D01*
X191712611Y-124099000D01*
X191925256Y-124141298D01*
G37*
G36*
X135066823Y-125401313D02*
G01*
X135227242Y-125449976D01*
X135359906Y-125520886D01*
X135375078Y-125528996D01*
X135504659Y-125635341D01*
X135611004Y-125764922D01*
X135611005Y-125764924D01*
X135690024Y-125912758D01*
X135738687Y-126073177D01*
X135755117Y-126240000D01*
X135738687Y-126406823D01*
X135690024Y-126567242D01*
X135619114Y-126699906D01*
X135611004Y-126715078D01*
X135504659Y-126844659D01*
X135375078Y-126951004D01*
X135375076Y-126951005D01*
X135227242Y-127030024D01*
X135066823Y-127078687D01*
X134941804Y-127091000D01*
X134058196Y-127091000D01*
X133933177Y-127078687D01*
X133772758Y-127030024D01*
X133624924Y-126951005D01*
X133624922Y-126951004D01*
X133495341Y-126844659D01*
X133388996Y-126715078D01*
X133380886Y-126699906D01*
X133309976Y-126567242D01*
X133261313Y-126406823D01*
X133244883Y-126240000D01*
X133261313Y-126073177D01*
X133309976Y-125912758D01*
X133388995Y-125764924D01*
X133388996Y-125764922D01*
X133495341Y-125635341D01*
X133624922Y-125528996D01*
X133640094Y-125520886D01*
X133772758Y-125449976D01*
X133933177Y-125401313D01*
X134058196Y-125389000D01*
X134941804Y-125389000D01*
X135066823Y-125401313D01*
G37*
G36*
X142686823Y-125401313D02*
G01*
X142847242Y-125449976D01*
X142979906Y-125520886D01*
X142995078Y-125528996D01*
X143124659Y-125635341D01*
X143231004Y-125764922D01*
X143231005Y-125764924D01*
X143310024Y-125912758D01*
X143358687Y-126073177D01*
X143375117Y-126240000D01*
X143358687Y-126406823D01*
X143310024Y-126567242D01*
X143239114Y-126699906D01*
X143231004Y-126715078D01*
X143124659Y-126844659D01*
X142995078Y-126951004D01*
X142995076Y-126951005D01*
X142847242Y-127030024D01*
X142686823Y-127078687D01*
X142561804Y-127091000D01*
X141678196Y-127091000D01*
X141553177Y-127078687D01*
X141392758Y-127030024D01*
X141244924Y-126951005D01*
X141244922Y-126951004D01*
X141115341Y-126844659D01*
X141008996Y-126715078D01*
X141000886Y-126699906D01*
X140929976Y-126567242D01*
X140881313Y-126406823D01*
X140864883Y-126240000D01*
X140881313Y-126073177D01*
X140929976Y-125912758D01*
X141008995Y-125764924D01*
X141008996Y-125764922D01*
X141115341Y-125635341D01*
X141244922Y-125528996D01*
X141260094Y-125520886D01*
X141392758Y-125449976D01*
X141553177Y-125401313D01*
X141678196Y-125389000D01*
X142561804Y-125389000D01*
X142686823Y-125401313D01*
G37*
G36*
X145724549Y-122531116D02*
G01*
X145835734Y-122553232D01*
X146045203Y-122639997D01*
X146233720Y-122765960D01*
X146394040Y-122926280D01*
X146520003Y-123114797D01*
X146576904Y-123252167D01*
X146606768Y-123324267D01*
X146648323Y-123533175D01*
X146651000Y-123546636D01*
X146651000Y-123773364D01*
X146606768Y-123995734D01*
X146520003Y-124205203D01*
X146394040Y-124393720D01*
X146233720Y-124554040D01*
X146045203Y-124680003D01*
X146045202Y-124680004D01*
X146045201Y-124680004D01*
X145983850Y-124705416D01*
X145835734Y-124766768D01*
X145724549Y-124788884D01*
X145613365Y-124811000D01*
X145386635Y-124811000D01*
X145275451Y-124788884D01*
X145164266Y-124766768D01*
X145016150Y-124705416D01*
X144954799Y-124680004D01*
X144954798Y-124680004D01*
X144954797Y-124680003D01*
X144766280Y-124554040D01*
X144605960Y-124393720D01*
X144479997Y-124205203D01*
X144393232Y-123995734D01*
X144349000Y-123773364D01*
X144349000Y-123546636D01*
X144351678Y-123533175D01*
X144393232Y-123324267D01*
X144423097Y-123252167D01*
X144479997Y-123114797D01*
X144605960Y-122926280D01*
X144766280Y-122765960D01*
X144954797Y-122639997D01*
X145164266Y-122553232D01*
X145275451Y-122531116D01*
X145386635Y-122509000D01*
X145613365Y-122509000D01*
X145724549Y-122531116D01*
G37*
G36*
X216556564Y-122739389D02*
G01*
X216747833Y-122818615D01*
X216747835Y-122818616D01*
X216811737Y-122861314D01*
X216919973Y-122933635D01*
X217066365Y-123080027D01*
X217181385Y-123252167D01*
X217260611Y-123443436D01*
X217301000Y-123646484D01*
X217301000Y-123853516D01*
X217260611Y-124056564D01*
X217199043Y-124205203D01*
X217181384Y-124247835D01*
X217066365Y-124419973D01*
X216919973Y-124566365D01*
X216747835Y-124681384D01*
X216747834Y-124681385D01*
X216747833Y-124681385D01*
X216556564Y-124760611D01*
X216353516Y-124801000D01*
X216146484Y-124801000D01*
X215943436Y-124760611D01*
X215752167Y-124681385D01*
X215752166Y-124681385D01*
X215752165Y-124681384D01*
X215580027Y-124566365D01*
X215433635Y-124419973D01*
X215318616Y-124247835D01*
X215300957Y-124205203D01*
X215239389Y-124056564D01*
X215199000Y-123853516D01*
X215199000Y-123646484D01*
X215239389Y-123443436D01*
X215318615Y-123252167D01*
X215433635Y-123080027D01*
X215580027Y-122933635D01*
X215688263Y-122861314D01*
X215752165Y-122818616D01*
X215752167Y-122818615D01*
X215943436Y-122739389D01*
X216146484Y-122699000D01*
X216353516Y-122699000D01*
X216556564Y-122739389D01*
G37*
G36*
X212301000Y-124801000D02*
G01*
X210199000Y-124801000D01*
X210199000Y-122699000D01*
X212301000Y-122699000D01*
X212301000Y-124801000D01*
G37*
G36*
X142686823Y-122861313D02*
G01*
X142847242Y-122909976D01*
X142979906Y-122980886D01*
X142995078Y-122988996D01*
X143124659Y-123095341D01*
X143231004Y-123224922D01*
X143231005Y-123224924D01*
X143310024Y-123372758D01*
X143358687Y-123533177D01*
X143375117Y-123700000D01*
X143358687Y-123866823D01*
X143310024Y-124027242D01*
X143239114Y-124159906D01*
X143231004Y-124175078D01*
X143124659Y-124304659D01*
X142995078Y-124411004D01*
X142995076Y-124411005D01*
X142847242Y-124490024D01*
X142686823Y-124538687D01*
X142561804Y-124551000D01*
X141678196Y-124551000D01*
X141553177Y-124538687D01*
X141392758Y-124490024D01*
X141244924Y-124411005D01*
X141244922Y-124411004D01*
X141115341Y-124304659D01*
X141008996Y-124175078D01*
X141000886Y-124159906D01*
X140929976Y-124027242D01*
X140881313Y-123866823D01*
X140864883Y-123700000D01*
X140881313Y-123533177D01*
X140929976Y-123372758D01*
X141008995Y-123224924D01*
X141008996Y-123224922D01*
X141115341Y-123095341D01*
X141244922Y-122988996D01*
X141260094Y-122980886D01*
X141392758Y-122909976D01*
X141553177Y-122861313D01*
X141678196Y-122849000D01*
X142561804Y-122849000D01*
X142686823Y-122861313D01*
G37*
G36*
X135066823Y-122861313D02*
G01*
X135227242Y-122909976D01*
X135359906Y-122980886D01*
X135375078Y-122988996D01*
X135504659Y-123095341D01*
X135611004Y-123224922D01*
X135611005Y-123224924D01*
X135690024Y-123372758D01*
X135738687Y-123533177D01*
X135755117Y-123700000D01*
X135738687Y-123866823D01*
X135690024Y-124027242D01*
X135619114Y-124159906D01*
X135611004Y-124175078D01*
X135504659Y-124304659D01*
X135375078Y-124411004D01*
X135375076Y-124411005D01*
X135227242Y-124490024D01*
X135066823Y-124538687D01*
X134941804Y-124551000D01*
X134058196Y-124551000D01*
X133933177Y-124538687D01*
X133772758Y-124490024D01*
X133624924Y-124411005D01*
X133624922Y-124411004D01*
X133495341Y-124304659D01*
X133388996Y-124175078D01*
X133380886Y-124159906D01*
X133309976Y-124027242D01*
X133261313Y-123866823D01*
X133244883Y-123700000D01*
X133261313Y-123533177D01*
X133309976Y-123372758D01*
X133388995Y-123224924D01*
X133388996Y-123224922D01*
X133495341Y-123095341D01*
X133624922Y-122988996D01*
X133640094Y-122980886D01*
X133772758Y-122909976D01*
X133933177Y-122861313D01*
X134058196Y-122849000D01*
X134941804Y-122849000D01*
X135066823Y-122861313D01*
G37*
G36*
X119863512Y-121353927D02*
G01*
X120012812Y-121383624D01*
X120176784Y-121451544D01*
X120324354Y-121550147D01*
X120449853Y-121675646D01*
X120548456Y-121823216D01*
X120616376Y-121987188D01*
X120651000Y-122161259D01*
X120651000Y-122338741D01*
X120616376Y-122512812D01*
X120548456Y-122676784D01*
X120449853Y-122824354D01*
X120324354Y-122949853D01*
X120176784Y-123048456D01*
X120012812Y-123116376D01*
X119863512Y-123146073D01*
X119838742Y-123151000D01*
X119661258Y-123151000D01*
X119636488Y-123146073D01*
X119487188Y-123116376D01*
X119323216Y-123048456D01*
X119175646Y-122949853D01*
X119050147Y-122824354D01*
X118951544Y-122676784D01*
X118883624Y-122512812D01*
X118849000Y-122338741D01*
X118849000Y-122161259D01*
X118883624Y-121987188D01*
X118951544Y-121823216D01*
X119050147Y-121675646D01*
X119175646Y-121550147D01*
X119323216Y-121451544D01*
X119487188Y-121383624D01*
X119636488Y-121353927D01*
X119661258Y-121349000D01*
X119838742Y-121349000D01*
X119863512Y-121353927D01*
G37*
G36*
X137834468Y-121653565D02*
G01*
X137873138Y-121665296D01*
X137908777Y-121684346D01*
X137940017Y-121709983D01*
X137965654Y-121741223D01*
X137984704Y-121776862D01*
X137996435Y-121815532D01*
X138001000Y-121861888D01*
X138001000Y-122513112D01*
X137996435Y-122559468D01*
X137984704Y-122598138D01*
X137965654Y-122633777D01*
X137940017Y-122665017D01*
X137908777Y-122690654D01*
X137873138Y-122709704D01*
X137834468Y-122721435D01*
X137788112Y-122726000D01*
X136711888Y-122726000D01*
X136665532Y-122721435D01*
X136626862Y-122709704D01*
X136591223Y-122690654D01*
X136559983Y-122665017D01*
X136534346Y-122633777D01*
X136515296Y-122598138D01*
X136503565Y-122559468D01*
X136499000Y-122513112D01*
X136499000Y-121861888D01*
X136503565Y-121815532D01*
X136515296Y-121776862D01*
X136534346Y-121741223D01*
X136559983Y-121709983D01*
X136591223Y-121684346D01*
X136626862Y-121665296D01*
X136665532Y-121653565D01*
X136711888Y-121649000D01*
X137788112Y-121649000D01*
X137834468Y-121653565D01*
G37*
G36*
X135066823Y-120321313D02*
G01*
X135227242Y-120369976D01*
X135359906Y-120440886D01*
X135375078Y-120448996D01*
X135504659Y-120555341D01*
X135611004Y-120684922D01*
X135611005Y-120684924D01*
X135690024Y-120832758D01*
X135738687Y-120993177D01*
X135755117Y-121160000D01*
X135738687Y-121326823D01*
X135690024Y-121487242D01*
X135656400Y-121550148D01*
X135611004Y-121635078D01*
X135504659Y-121764659D01*
X135375078Y-121871004D01*
X135375076Y-121871005D01*
X135227242Y-121950024D01*
X135066823Y-121998687D01*
X134941804Y-122011000D01*
X134058196Y-122011000D01*
X133933177Y-121998687D01*
X133772758Y-121950024D01*
X133624924Y-121871005D01*
X133624922Y-121871004D01*
X133495341Y-121764659D01*
X133388996Y-121635078D01*
X133343600Y-121550148D01*
X133309976Y-121487242D01*
X133261313Y-121326823D01*
X133244883Y-121160000D01*
X133261313Y-120993177D01*
X133309976Y-120832758D01*
X133388995Y-120684924D01*
X133388996Y-120684922D01*
X133495341Y-120555341D01*
X133624922Y-120448996D01*
X133640094Y-120440886D01*
X133772758Y-120369976D01*
X133933177Y-120321313D01*
X134058196Y-120309000D01*
X134941804Y-120309000D01*
X135066823Y-120321313D01*
G37*
G36*
X142686823Y-120321313D02*
G01*
X142847242Y-120369976D01*
X142979906Y-120440886D01*
X142995078Y-120448996D01*
X143124659Y-120555341D01*
X143231004Y-120684922D01*
X143231005Y-120684924D01*
X143310024Y-120832758D01*
X143358687Y-120993177D01*
X143375117Y-121160000D01*
X143358687Y-121326823D01*
X143310024Y-121487242D01*
X143276400Y-121550148D01*
X143231004Y-121635078D01*
X143124659Y-121764659D01*
X142995078Y-121871004D01*
X142995076Y-121871005D01*
X142847242Y-121950024D01*
X142686823Y-121998687D01*
X142561804Y-122011000D01*
X141678196Y-122011000D01*
X141553177Y-121998687D01*
X141392758Y-121950024D01*
X141244924Y-121871005D01*
X141244922Y-121871004D01*
X141115341Y-121764659D01*
X141008996Y-121635078D01*
X140963600Y-121550148D01*
X140929976Y-121487242D01*
X140881313Y-121326823D01*
X140864883Y-121160000D01*
X140881313Y-120993177D01*
X140929976Y-120832758D01*
X141008995Y-120684924D01*
X141008996Y-120684922D01*
X141115341Y-120555341D01*
X141244922Y-120448996D01*
X141260094Y-120440886D01*
X141392758Y-120369976D01*
X141553177Y-120321313D01*
X141678196Y-120309000D01*
X142561804Y-120309000D01*
X142686823Y-120321313D01*
G37*
G36*
X126748228Y-119681703D02*
G01*
X126903100Y-119745853D01*
X127042481Y-119838985D01*
X127161015Y-119957519D01*
X127254147Y-120096900D01*
X127318297Y-120251772D01*
X127351000Y-120416184D01*
X127351000Y-120583816D01*
X127318297Y-120748228D01*
X127254147Y-120903100D01*
X127161015Y-121042481D01*
X127042481Y-121161015D01*
X126903100Y-121254147D01*
X126748228Y-121318297D01*
X126583816Y-121351000D01*
X126416184Y-121351000D01*
X126251772Y-121318297D01*
X126096900Y-121254147D01*
X125957519Y-121161015D01*
X125838985Y-121042481D01*
X125745853Y-120903100D01*
X125681703Y-120748228D01*
X125649000Y-120583816D01*
X125649000Y-120416184D01*
X125681703Y-120251772D01*
X125745853Y-120096900D01*
X125838985Y-119957519D01*
X125957519Y-119838985D01*
X126096900Y-119745853D01*
X126251772Y-119681703D01*
X126416184Y-119649000D01*
X126583816Y-119649000D01*
X126748228Y-119681703D01*
G37*
G36*
X124851000Y-121351000D02*
G01*
X123149000Y-121351000D01*
X123149000Y-119649000D01*
X124851000Y-119649000D01*
X124851000Y-121351000D01*
G37*
G36*
X137834468Y-119778565D02*
G01*
X137873138Y-119790296D01*
X137908777Y-119809346D01*
X137940017Y-119834983D01*
X137965654Y-119866223D01*
X137984704Y-119901862D01*
X137996435Y-119940532D01*
X138001000Y-119986888D01*
X138001000Y-120638112D01*
X137996435Y-120684468D01*
X137984704Y-120723138D01*
X137965654Y-120758777D01*
X137940017Y-120790017D01*
X137908777Y-120815654D01*
X137873138Y-120834704D01*
X137834468Y-120846435D01*
X137788112Y-120851000D01*
X136711888Y-120851000D01*
X136665532Y-120846435D01*
X136626862Y-120834704D01*
X136591223Y-120815654D01*
X136559983Y-120790017D01*
X136534346Y-120758777D01*
X136515296Y-120723138D01*
X136503565Y-120684468D01*
X136499000Y-120638112D01*
X136499000Y-119986888D01*
X136503565Y-119940532D01*
X136515296Y-119901862D01*
X136534346Y-119866223D01*
X136559983Y-119834983D01*
X136591223Y-119809346D01*
X136626862Y-119790296D01*
X136665532Y-119778565D01*
X136711888Y-119774000D01*
X137788112Y-119774000D01*
X137834468Y-119778565D01*
G37*
G36*
X120651000Y-120611000D02*
G01*
X118849000Y-120611000D01*
X118849000Y-118809000D01*
X120651000Y-118809000D01*
X120651000Y-120611000D01*
G37*
G36*
X142686823Y-117781313D02*
G01*
X142847242Y-117829976D01*
X142979906Y-117900886D01*
X142995078Y-117908996D01*
X143124659Y-118015341D01*
X143231004Y-118144922D01*
X143231005Y-118144924D01*
X143310024Y-118292758D01*
X143358687Y-118453177D01*
X143375117Y-118620000D01*
X143358687Y-118786823D01*
X143310024Y-118947242D01*
X143239114Y-119079906D01*
X143231004Y-119095078D01*
X143124659Y-119224659D01*
X142995078Y-119331004D01*
X142995076Y-119331005D01*
X142847242Y-119410024D01*
X142686823Y-119458687D01*
X142561804Y-119471000D01*
X141678196Y-119471000D01*
X141553177Y-119458687D01*
X141392758Y-119410024D01*
X141244924Y-119331005D01*
X141244922Y-119331004D01*
X141115341Y-119224659D01*
X141008996Y-119095078D01*
X141000886Y-119079906D01*
X140929976Y-118947242D01*
X140881313Y-118786823D01*
X140864883Y-118620000D01*
X140881313Y-118453177D01*
X140929976Y-118292758D01*
X141008995Y-118144924D01*
X141008996Y-118144922D01*
X141115341Y-118015341D01*
X141244922Y-117908996D01*
X141260094Y-117900886D01*
X141392758Y-117829976D01*
X141553177Y-117781313D01*
X141678196Y-117769000D01*
X142561804Y-117769000D01*
X142686823Y-117781313D01*
G37*
G36*
X135066823Y-117781313D02*
G01*
X135227242Y-117829976D01*
X135359906Y-117900886D01*
X135375078Y-117908996D01*
X135504659Y-118015341D01*
X135611004Y-118144922D01*
X135611005Y-118144924D01*
X135690024Y-118292758D01*
X135738687Y-118453177D01*
X135755117Y-118620000D01*
X135738687Y-118786823D01*
X135690024Y-118947242D01*
X135619114Y-119079906D01*
X135611004Y-119095078D01*
X135504659Y-119224659D01*
X135375078Y-119331004D01*
X135375076Y-119331005D01*
X135227242Y-119410024D01*
X135066823Y-119458687D01*
X134941804Y-119471000D01*
X134058196Y-119471000D01*
X133933177Y-119458687D01*
X133772758Y-119410024D01*
X133624924Y-119331005D01*
X133624922Y-119331004D01*
X133495341Y-119224659D01*
X133388996Y-119095078D01*
X133380886Y-119079906D01*
X133309976Y-118947242D01*
X133261313Y-118786823D01*
X133244883Y-118620000D01*
X133261313Y-118453177D01*
X133309976Y-118292758D01*
X133388995Y-118144924D01*
X133388996Y-118144922D01*
X133495341Y-118015341D01*
X133624922Y-117908996D01*
X133640094Y-117900886D01*
X133772758Y-117829976D01*
X133933177Y-117781313D01*
X134058196Y-117769000D01*
X134941804Y-117769000D01*
X135066823Y-117781313D01*
G37*
G36*
X146084468Y-117403565D02*
G01*
X146123138Y-117415296D01*
X146158777Y-117434346D01*
X146190017Y-117459983D01*
X146215654Y-117491223D01*
X146234704Y-117526862D01*
X146246435Y-117565532D01*
X146251000Y-117611888D01*
X146251000Y-118263112D01*
X146246435Y-118309468D01*
X146234704Y-118348138D01*
X146215654Y-118383777D01*
X146190017Y-118415017D01*
X146158777Y-118440654D01*
X146123138Y-118459704D01*
X146084468Y-118471435D01*
X146038112Y-118476000D01*
X144961888Y-118476000D01*
X144915532Y-118471435D01*
X144876862Y-118459704D01*
X144841223Y-118440654D01*
X144809983Y-118415017D01*
X144784346Y-118383777D01*
X144765296Y-118348138D01*
X144753565Y-118309468D01*
X144749000Y-118263112D01*
X144749000Y-117611888D01*
X144753565Y-117565532D01*
X144765296Y-117526862D01*
X144784346Y-117491223D01*
X144809983Y-117459983D01*
X144841223Y-117434346D01*
X144876862Y-117415296D01*
X144915532Y-117403565D01*
X144961888Y-117399000D01*
X146038112Y-117399000D01*
X146084468Y-117403565D01*
G37*
G36*
X200406720Y-115463520D02*
G01*
X200595881Y-115520901D01*
X200770212Y-115614083D01*
X200923015Y-115739485D01*
X201048417Y-115892288D01*
X201092182Y-115974167D01*
X201141598Y-116066617D01*
X201141599Y-116066620D01*
X201198980Y-116255781D01*
X201213500Y-116403207D01*
X201213500Y-116596794D01*
X201198980Y-116744220D01*
X201141599Y-116933381D01*
X201048417Y-117107712D01*
X200923015Y-117260515D01*
X200770212Y-117385917D01*
X200688333Y-117429682D01*
X200595883Y-117479098D01*
X200595880Y-117479099D01*
X200406719Y-117536480D01*
X200210000Y-117555855D01*
X200013280Y-117536480D01*
X199824119Y-117479099D01*
X199649788Y-117385917D01*
X199496985Y-117260515D01*
X199371583Y-117107712D01*
X199327818Y-117025833D01*
X199278402Y-116933383D01*
X199259183Y-116870025D01*
X199221020Y-116744219D01*
X199206500Y-116596793D01*
X199206500Y-116403206D01*
X199221020Y-116255780D01*
X199278401Y-116066619D01*
X199371583Y-115892288D01*
X199496985Y-115739485D01*
X199649788Y-115614083D01*
X199824120Y-115520901D01*
X200013281Y-115463520D01*
X200210000Y-115444145D01*
X200406720Y-115463520D01*
G37*
G36*
X157866720Y-115463520D02*
G01*
X158055881Y-115520901D01*
X158230212Y-115614083D01*
X158383015Y-115739485D01*
X158508417Y-115892288D01*
X158552182Y-115974167D01*
X158601598Y-116066617D01*
X158601599Y-116066620D01*
X158658980Y-116255781D01*
X158673500Y-116403207D01*
X158673500Y-116596794D01*
X158658980Y-116744220D01*
X158601599Y-116933381D01*
X158508417Y-117107712D01*
X158383015Y-117260515D01*
X158230212Y-117385917D01*
X158148333Y-117429682D01*
X158055883Y-117479098D01*
X158055880Y-117479099D01*
X157866719Y-117536480D01*
X157670000Y-117555855D01*
X157473280Y-117536480D01*
X157284119Y-117479099D01*
X157109788Y-117385917D01*
X156956985Y-117260515D01*
X156831583Y-117107712D01*
X156787818Y-117025833D01*
X156738402Y-116933383D01*
X156719183Y-116870025D01*
X156681020Y-116744219D01*
X156666500Y-116596793D01*
X156666500Y-116403206D01*
X156681020Y-116255780D01*
X156738401Y-116066619D01*
X156831583Y-115892288D01*
X156956985Y-115739485D01*
X157109788Y-115614083D01*
X157284120Y-115520901D01*
X157473281Y-115463520D01*
X157670000Y-115444145D01*
X157866720Y-115463520D01*
G37*
G36*
X189656720Y-115463520D02*
G01*
X189845881Y-115520901D01*
X190020212Y-115614083D01*
X190173015Y-115739485D01*
X190298417Y-115892288D01*
X190342182Y-115974167D01*
X190391598Y-116066617D01*
X190391599Y-116066620D01*
X190448980Y-116255781D01*
X190463500Y-116403207D01*
X190463500Y-116596794D01*
X190448980Y-116744220D01*
X190391599Y-116933381D01*
X190298417Y-117107712D01*
X190173015Y-117260515D01*
X190020212Y-117385917D01*
X189938333Y-117429682D01*
X189845883Y-117479098D01*
X189845880Y-117479099D01*
X189656719Y-117536480D01*
X189460000Y-117555855D01*
X189263280Y-117536480D01*
X189074119Y-117479099D01*
X188899788Y-117385917D01*
X188746985Y-117260515D01*
X188621583Y-117107712D01*
X188577818Y-117025833D01*
X188528402Y-116933383D01*
X188509183Y-116870025D01*
X188471020Y-116744219D01*
X188456500Y-116596793D01*
X188456500Y-116403206D01*
X188471020Y-116255780D01*
X188528401Y-116066619D01*
X188621583Y-115892288D01*
X188746985Y-115739485D01*
X188899788Y-115614083D01*
X189074120Y-115520901D01*
X189263281Y-115463520D01*
X189460000Y-115444145D01*
X189656720Y-115463520D01*
G37*
G36*
X187116720Y-115463520D02*
G01*
X187305881Y-115520901D01*
X187480212Y-115614083D01*
X187633015Y-115739485D01*
X187758417Y-115892288D01*
X187802182Y-115974167D01*
X187851598Y-116066617D01*
X187851599Y-116066620D01*
X187908980Y-116255781D01*
X187923500Y-116403207D01*
X187923500Y-116596794D01*
X187908980Y-116744220D01*
X187851599Y-116933381D01*
X187758417Y-117107712D01*
X187633015Y-117260515D01*
X187480212Y-117385917D01*
X187398333Y-117429682D01*
X187305883Y-117479098D01*
X187305880Y-117479099D01*
X187116719Y-117536480D01*
X186920000Y-117555855D01*
X186723280Y-117536480D01*
X186534119Y-117479099D01*
X186359788Y-117385917D01*
X186206985Y-117260515D01*
X186081583Y-117107712D01*
X186037818Y-117025833D01*
X185988402Y-116933383D01*
X185969183Y-116870025D01*
X185931020Y-116744219D01*
X185916500Y-116596793D01*
X185916500Y-116403206D01*
X185931020Y-116255780D01*
X185988401Y-116066619D01*
X186081583Y-115892288D01*
X186206985Y-115739485D01*
X186359788Y-115614083D01*
X186534120Y-115520901D01*
X186723281Y-115463520D01*
X186920000Y-115444145D01*
X187116720Y-115463520D01*
G37*
G36*
X168616720Y-115463520D02*
G01*
X168805881Y-115520901D01*
X168980212Y-115614083D01*
X169133015Y-115739485D01*
X169258417Y-115892288D01*
X169302182Y-115974167D01*
X169351598Y-116066617D01*
X169351599Y-116066620D01*
X169408980Y-116255781D01*
X169423500Y-116403207D01*
X169423500Y-116596794D01*
X169408980Y-116744220D01*
X169351599Y-116933381D01*
X169258417Y-117107712D01*
X169133015Y-117260515D01*
X168980212Y-117385917D01*
X168898333Y-117429682D01*
X168805883Y-117479098D01*
X168805880Y-117479099D01*
X168616719Y-117536480D01*
X168420000Y-117555855D01*
X168223280Y-117536480D01*
X168034119Y-117479099D01*
X167859788Y-117385917D01*
X167706985Y-117260515D01*
X167581583Y-117107712D01*
X167537818Y-117025833D01*
X167488402Y-116933383D01*
X167469183Y-116870025D01*
X167431020Y-116744219D01*
X167416500Y-116596793D01*
X167416500Y-116403206D01*
X167431020Y-116255780D01*
X167488401Y-116066619D01*
X167581583Y-115892288D01*
X167706985Y-115739485D01*
X167859788Y-115614083D01*
X168034120Y-115520901D01*
X168223281Y-115463520D01*
X168420000Y-115444145D01*
X168616720Y-115463520D01*
G37*
G36*
X160406720Y-115463520D02*
G01*
X160595881Y-115520901D01*
X160770212Y-115614083D01*
X160923015Y-115739485D01*
X161048417Y-115892288D01*
X161092182Y-115974167D01*
X161141598Y-116066617D01*
X161141599Y-116066620D01*
X161198980Y-116255781D01*
X161213500Y-116403207D01*
X161213500Y-116596794D01*
X161198980Y-116744220D01*
X161141599Y-116933381D01*
X161048417Y-117107712D01*
X160923015Y-117260515D01*
X160770212Y-117385917D01*
X160688333Y-117429682D01*
X160595883Y-117479098D01*
X160595880Y-117479099D01*
X160406719Y-117536480D01*
X160210000Y-117555855D01*
X160013280Y-117536480D01*
X159824119Y-117479099D01*
X159649788Y-117385917D01*
X159496985Y-117260515D01*
X159371583Y-117107712D01*
X159327818Y-117025833D01*
X159278402Y-116933383D01*
X159259183Y-116870025D01*
X159221020Y-116744219D01*
X159206500Y-116596793D01*
X159206500Y-116403206D01*
X159221020Y-116255780D01*
X159278401Y-116066619D01*
X159371583Y-115892288D01*
X159496985Y-115739485D01*
X159649788Y-115614083D01*
X159824120Y-115520901D01*
X160013281Y-115463520D01*
X160210000Y-115444145D01*
X160406720Y-115463520D01*
G37*
G36*
X197866720Y-115463520D02*
G01*
X198055881Y-115520901D01*
X198230212Y-115614083D01*
X198383015Y-115739485D01*
X198508417Y-115892288D01*
X198552182Y-115974167D01*
X198601598Y-116066617D01*
X198601599Y-116066620D01*
X198658980Y-116255781D01*
X198673500Y-116403207D01*
X198673500Y-116596794D01*
X198658980Y-116744220D01*
X198601599Y-116933381D01*
X198508417Y-117107712D01*
X198383015Y-117260515D01*
X198230212Y-117385917D01*
X198148333Y-117429682D01*
X198055883Y-117479098D01*
X198055880Y-117479099D01*
X197866719Y-117536480D01*
X197670000Y-117555855D01*
X197473280Y-117536480D01*
X197284119Y-117479099D01*
X197109788Y-117385917D01*
X196956985Y-117260515D01*
X196831583Y-117107712D01*
X196787818Y-117025833D01*
X196738402Y-116933383D01*
X196719183Y-116870025D01*
X196681020Y-116744219D01*
X196666500Y-116596793D01*
X196666500Y-116403206D01*
X196681020Y-116255780D01*
X196738401Y-116066619D01*
X196831583Y-115892288D01*
X196956985Y-115739485D01*
X197109788Y-115614083D01*
X197284120Y-115520901D01*
X197473281Y-115463520D01*
X197670000Y-115444145D01*
X197866720Y-115463520D01*
G37*
G36*
X171156720Y-115463520D02*
G01*
X171345881Y-115520901D01*
X171520212Y-115614083D01*
X171673015Y-115739485D01*
X171798417Y-115892288D01*
X171842182Y-115974167D01*
X171891598Y-116066617D01*
X171891599Y-116066620D01*
X171948980Y-116255781D01*
X171963500Y-116403207D01*
X171963500Y-116596794D01*
X171948980Y-116744220D01*
X171891599Y-116933381D01*
X171798417Y-117107712D01*
X171673015Y-117260515D01*
X171520212Y-117385917D01*
X171438333Y-117429682D01*
X171345883Y-117479098D01*
X171345880Y-117479099D01*
X171156719Y-117536480D01*
X170960000Y-117555855D01*
X170763280Y-117536480D01*
X170574119Y-117479099D01*
X170399788Y-117385917D01*
X170246985Y-117260515D01*
X170121583Y-117107712D01*
X170077818Y-117025833D01*
X170028402Y-116933383D01*
X170009183Y-116870025D01*
X169971020Y-116744219D01*
X169956500Y-116596793D01*
X169956500Y-116403206D01*
X169971020Y-116255780D01*
X170028401Y-116066619D01*
X170121583Y-115892288D01*
X170246985Y-115739485D01*
X170399788Y-115614083D01*
X170574120Y-115520901D01*
X170763281Y-115463520D01*
X170960000Y-115444145D01*
X171156720Y-115463520D01*
G37*
G36*
X163753500Y-117551000D02*
G01*
X161746500Y-117551000D01*
X161746500Y-115449000D01*
X163753500Y-115449000D01*
X163753500Y-117551000D01*
G37*
G36*
X193003500Y-117551000D02*
G01*
X190996500Y-117551000D01*
X190996500Y-115449000D01*
X193003500Y-115449000D01*
X193003500Y-117551000D01*
G37*
G36*
X174503500Y-117551000D02*
G01*
X172496500Y-117551000D01*
X172496500Y-115449000D01*
X174503500Y-115449000D01*
X174503500Y-117551000D01*
G37*
G36*
X203753500Y-117551000D02*
G01*
X201746500Y-117551000D01*
X201746500Y-115449000D01*
X203753500Y-115449000D01*
X203753500Y-117551000D01*
G37*
G36*
X135066823Y-115241313D02*
G01*
X135227242Y-115289976D01*
X135359906Y-115360886D01*
X135375078Y-115368996D01*
X135504659Y-115475341D01*
X135611004Y-115604922D01*
X135611005Y-115604924D01*
X135690024Y-115752758D01*
X135738687Y-115913177D01*
X135755117Y-116080000D01*
X135738687Y-116246823D01*
X135690024Y-116407242D01*
X135675471Y-116434468D01*
X135611004Y-116555078D01*
X135504659Y-116684659D01*
X135375078Y-116791004D01*
X135375076Y-116791005D01*
X135227242Y-116870024D01*
X135066823Y-116918687D01*
X134941804Y-116931000D01*
X134058196Y-116931000D01*
X133933177Y-116918687D01*
X133772758Y-116870024D01*
X133624924Y-116791005D01*
X133624922Y-116791004D01*
X133495341Y-116684659D01*
X133388996Y-116555078D01*
X133324529Y-116434468D01*
X133309976Y-116407242D01*
X133261313Y-116246823D01*
X133244883Y-116080000D01*
X133261313Y-115913177D01*
X133309976Y-115752758D01*
X133388995Y-115604924D01*
X133388996Y-115604922D01*
X133495341Y-115475341D01*
X133624922Y-115368996D01*
X133640094Y-115360886D01*
X133772758Y-115289976D01*
X133933177Y-115241313D01*
X134058196Y-115229000D01*
X134941804Y-115229000D01*
X135066823Y-115241313D01*
G37*
G36*
X142686823Y-115241313D02*
G01*
X142847242Y-115289976D01*
X142979906Y-115360886D01*
X142995078Y-115368996D01*
X143124659Y-115475341D01*
X143231004Y-115604922D01*
X143231005Y-115604924D01*
X143310024Y-115752758D01*
X143358687Y-115913177D01*
X143375117Y-116080000D01*
X143358687Y-116246823D01*
X143310024Y-116407242D01*
X143295471Y-116434468D01*
X143231004Y-116555078D01*
X143124659Y-116684659D01*
X142995078Y-116791004D01*
X142995076Y-116791005D01*
X142847242Y-116870024D01*
X142686823Y-116918687D01*
X142561804Y-116931000D01*
X141678196Y-116931000D01*
X141553177Y-116918687D01*
X141392758Y-116870024D01*
X141244924Y-116791005D01*
X141244922Y-116791004D01*
X141115341Y-116684659D01*
X141008996Y-116555078D01*
X140944529Y-116434468D01*
X140929976Y-116407242D01*
X140881313Y-116246823D01*
X140864883Y-116080000D01*
X140881313Y-115913177D01*
X140929976Y-115752758D01*
X141008995Y-115604924D01*
X141008996Y-115604922D01*
X141115341Y-115475341D01*
X141244922Y-115368996D01*
X141260094Y-115360886D01*
X141392758Y-115289976D01*
X141553177Y-115241313D01*
X141678196Y-115229000D01*
X142561804Y-115229000D01*
X142686823Y-115241313D01*
G37*
G36*
X146084468Y-115528565D02*
G01*
X146123138Y-115540296D01*
X146158777Y-115559346D01*
X146190017Y-115584983D01*
X146215654Y-115616223D01*
X146234704Y-115651862D01*
X146246435Y-115690532D01*
X146251000Y-115736888D01*
X146251000Y-116388112D01*
X146246435Y-116434468D01*
X146234704Y-116473138D01*
X146215654Y-116508777D01*
X146190017Y-116540017D01*
X146158777Y-116565654D01*
X146123138Y-116584704D01*
X146084468Y-116596435D01*
X146038112Y-116601000D01*
X144961888Y-116601000D01*
X144915532Y-116596435D01*
X144876862Y-116584704D01*
X144841223Y-116565654D01*
X144809983Y-116540017D01*
X144784346Y-116508777D01*
X144765296Y-116473138D01*
X144753565Y-116434468D01*
X144749000Y-116388112D01*
X144749000Y-115736888D01*
X144753565Y-115690532D01*
X144765296Y-115651862D01*
X144784346Y-115616223D01*
X144809983Y-115584983D01*
X144841223Y-115559346D01*
X144876862Y-115540296D01*
X144915532Y-115528565D01*
X144961888Y-115524000D01*
X146038112Y-115524000D01*
X146084468Y-115528565D01*
G37*
G36*
X219556564Y-113989389D02*
G01*
X219739617Y-114065212D01*
X219747835Y-114068616D01*
X219919973Y-114183635D01*
X220066365Y-114330027D01*
X220098879Y-114378687D01*
X220181385Y-114502167D01*
X220260611Y-114693436D01*
X220301000Y-114896484D01*
X220301000Y-115103516D01*
X220260611Y-115306564D01*
X220203623Y-115444145D01*
X220181384Y-115497835D01*
X220066365Y-115669973D01*
X219919973Y-115816365D01*
X219747835Y-115931384D01*
X219747834Y-115931385D01*
X219747833Y-115931385D01*
X219556564Y-116010611D01*
X219353516Y-116051000D01*
X219146484Y-116051000D01*
X218943436Y-116010611D01*
X218752167Y-115931385D01*
X218752166Y-115931385D01*
X218752165Y-115931384D01*
X218580027Y-115816365D01*
X218433635Y-115669973D01*
X218318616Y-115497835D01*
X218296377Y-115444145D01*
X218239389Y-115306564D01*
X218199000Y-115103516D01*
X218199000Y-114896484D01*
X218239389Y-114693436D01*
X218318615Y-114502167D01*
X218401122Y-114378687D01*
X218433635Y-114330027D01*
X218580027Y-114183635D01*
X218752165Y-114068616D01*
X218760383Y-114065212D01*
X218943436Y-113989389D01*
X219146484Y-113949000D01*
X219353516Y-113949000D01*
X219556564Y-113989389D01*
G37*
G36*
X209556564Y-113989389D02*
G01*
X209739617Y-114065212D01*
X209747835Y-114068616D01*
X209919973Y-114183635D01*
X210066365Y-114330027D01*
X210098879Y-114378687D01*
X210181385Y-114502167D01*
X210260611Y-114693436D01*
X210301000Y-114896484D01*
X210301000Y-115103516D01*
X210260611Y-115306564D01*
X210203623Y-115444145D01*
X210181384Y-115497835D01*
X210066365Y-115669973D01*
X209919973Y-115816365D01*
X209747835Y-115931384D01*
X209747834Y-115931385D01*
X209747833Y-115931385D01*
X209556564Y-116010611D01*
X209353516Y-116051000D01*
X209146484Y-116051000D01*
X208943436Y-116010611D01*
X208752167Y-115931385D01*
X208752166Y-115931385D01*
X208752165Y-115931384D01*
X208580027Y-115816365D01*
X208433635Y-115669973D01*
X208318616Y-115497835D01*
X208296377Y-115444145D01*
X208239389Y-115306564D01*
X208199000Y-115103516D01*
X208199000Y-114896484D01*
X208239389Y-114693436D01*
X208318615Y-114502167D01*
X208401122Y-114378687D01*
X208433635Y-114330027D01*
X208580027Y-114183635D01*
X208752165Y-114068616D01*
X208760383Y-114065212D01*
X208943436Y-113989389D01*
X209146484Y-113949000D01*
X209353516Y-113949000D01*
X209556564Y-113989389D01*
G37*
G36*
X124301000Y-115753500D02*
G01*
X122199000Y-115753500D01*
X122199000Y-113746500D01*
X124301000Y-113746500D01*
X124301000Y-115753500D01*
G37*
G36*
X120584468Y-113903565D02*
G01*
X120623138Y-113915296D01*
X120658777Y-113934346D01*
X120690017Y-113959983D01*
X120715654Y-113991223D01*
X120734704Y-114026862D01*
X120746435Y-114065532D01*
X120751000Y-114111888D01*
X120751000Y-114763112D01*
X120746435Y-114809468D01*
X120734704Y-114848138D01*
X120715654Y-114883777D01*
X120690017Y-114915017D01*
X120658777Y-114940654D01*
X120623138Y-114959704D01*
X120584468Y-114971435D01*
X120538112Y-114976000D01*
X119461888Y-114976000D01*
X119415532Y-114971435D01*
X119376862Y-114959704D01*
X119341223Y-114940654D01*
X119309983Y-114915017D01*
X119284346Y-114883777D01*
X119265296Y-114848138D01*
X119253565Y-114809468D01*
X119249000Y-114763112D01*
X119249000Y-114111888D01*
X119253565Y-114065532D01*
X119265296Y-114026862D01*
X119284346Y-113991223D01*
X119309983Y-113959983D01*
X119341223Y-113934346D01*
X119376862Y-113915296D01*
X119415532Y-113903565D01*
X119461888Y-113899000D01*
X120538112Y-113899000D01*
X120584468Y-113903565D01*
G37*
G36*
X146651000Y-114651000D02*
G01*
X144349000Y-114651000D01*
X144349000Y-112349000D01*
X146651000Y-112349000D01*
X146651000Y-114651000D01*
G37*
G36*
X142686823Y-112701313D02*
G01*
X142847242Y-112749976D01*
X142979906Y-112820886D01*
X142995078Y-112828996D01*
X143124659Y-112935341D01*
X143231004Y-113064922D01*
X143231005Y-113064924D01*
X143310024Y-113212758D01*
X143358687Y-113373177D01*
X143375117Y-113540000D01*
X143358687Y-113706823D01*
X143310024Y-113867242D01*
X143268794Y-113944377D01*
X143231004Y-114015078D01*
X143124659Y-114144659D01*
X142995078Y-114251004D01*
X142995076Y-114251005D01*
X142847242Y-114330024D01*
X142686823Y-114378687D01*
X142561804Y-114391000D01*
X141678196Y-114391000D01*
X141553177Y-114378687D01*
X141392758Y-114330024D01*
X141244924Y-114251005D01*
X141244922Y-114251004D01*
X141115341Y-114144659D01*
X141008996Y-114015078D01*
X140971206Y-113944377D01*
X140929976Y-113867242D01*
X140881313Y-113706823D01*
X140864883Y-113540000D01*
X140881313Y-113373177D01*
X140929976Y-113212758D01*
X141008995Y-113064924D01*
X141008996Y-113064922D01*
X141115341Y-112935341D01*
X141244922Y-112828996D01*
X141260094Y-112820886D01*
X141392758Y-112749976D01*
X141553177Y-112701313D01*
X141678196Y-112689000D01*
X142561804Y-112689000D01*
X142686823Y-112701313D01*
G37*
G36*
X135066823Y-112701313D02*
G01*
X135227242Y-112749976D01*
X135359906Y-112820886D01*
X135375078Y-112828996D01*
X135504659Y-112935341D01*
X135611004Y-113064922D01*
X135611005Y-113064924D01*
X135690024Y-113212758D01*
X135738687Y-113373177D01*
X135755117Y-113540000D01*
X135738687Y-113706823D01*
X135690024Y-113867242D01*
X135648794Y-113944377D01*
X135611004Y-114015078D01*
X135504659Y-114144659D01*
X135375078Y-114251004D01*
X135375076Y-114251005D01*
X135227242Y-114330024D01*
X135066823Y-114378687D01*
X134941804Y-114391000D01*
X134058196Y-114391000D01*
X133933177Y-114378687D01*
X133772758Y-114330024D01*
X133624924Y-114251005D01*
X133624922Y-114251004D01*
X133495341Y-114144659D01*
X133388996Y-114015078D01*
X133351206Y-113944377D01*
X133309976Y-113867242D01*
X133261313Y-113706823D01*
X133244883Y-113540000D01*
X133261313Y-113373177D01*
X133309976Y-113212758D01*
X133388995Y-113064924D01*
X133388996Y-113064922D01*
X133495341Y-112935341D01*
X133624922Y-112828996D01*
X133640094Y-112820886D01*
X133772758Y-112749976D01*
X133933177Y-112701313D01*
X134058196Y-112689000D01*
X134941804Y-112689000D01*
X135066823Y-112701313D01*
G37*
G36*
X107115331Y-110478211D02*
G01*
X107443092Y-110613974D01*
X107738070Y-110811072D01*
X107988928Y-111061930D01*
X108186026Y-111356908D01*
X108321789Y-111684669D01*
X108391000Y-112032616D01*
X108391000Y-112387384D01*
X108321789Y-112735331D01*
X108186026Y-113063092D01*
X107988928Y-113358070D01*
X107738070Y-113608928D01*
X107443092Y-113806026D01*
X107115331Y-113941789D01*
X106767384Y-114011000D01*
X106412616Y-114011000D01*
X106064669Y-113941789D01*
X105736908Y-113806026D01*
X105441930Y-113608928D01*
X105191072Y-113358070D01*
X104993974Y-113063092D01*
X104858211Y-112735331D01*
X104789000Y-112387384D01*
X104789000Y-112032616D01*
X104858211Y-111684669D01*
X104993974Y-111356908D01*
X105191072Y-111061930D01*
X105441930Y-110811072D01*
X105736908Y-110613974D01*
X106064669Y-110478211D01*
X106412616Y-110409000D01*
X106767384Y-110409000D01*
X107115331Y-110478211D01*
G37*
G36*
X126834468Y-112403565D02*
G01*
X126873138Y-112415296D01*
X126908777Y-112434346D01*
X126940017Y-112459983D01*
X126965654Y-112491223D01*
X126984704Y-112526862D01*
X126996435Y-112565532D01*
X127001000Y-112611888D01*
X127001000Y-113263112D01*
X126996435Y-113309468D01*
X126984704Y-113348138D01*
X126965654Y-113383777D01*
X126940017Y-113415017D01*
X126908777Y-113440654D01*
X126873138Y-113459704D01*
X126834468Y-113471435D01*
X126788112Y-113476000D01*
X125711888Y-113476000D01*
X125665532Y-113471435D01*
X125626862Y-113459704D01*
X125591223Y-113440654D01*
X125559983Y-113415017D01*
X125534346Y-113383777D01*
X125515296Y-113348138D01*
X125503565Y-113309468D01*
X125499000Y-113263112D01*
X125499000Y-112611888D01*
X125503565Y-112565532D01*
X125515296Y-112526862D01*
X125534346Y-112491223D01*
X125559983Y-112459983D01*
X125591223Y-112434346D01*
X125626862Y-112415296D01*
X125665532Y-112403565D01*
X125711888Y-112399000D01*
X126788112Y-112399000D01*
X126834468Y-112403565D01*
G37*
G36*
X123395936Y-111211340D02*
G01*
X123494220Y-111221020D01*
X123683381Y-111278401D01*
X123857712Y-111371583D01*
X124010515Y-111496985D01*
X124135917Y-111649788D01*
X124229099Y-111824119D01*
X124286480Y-112013280D01*
X124305855Y-112210000D01*
X124286480Y-112406720D01*
X124229099Y-112595881D01*
X124135917Y-112770212D01*
X124010515Y-112923015D01*
X123857712Y-113048417D01*
X123683381Y-113141599D01*
X123494220Y-113198980D01*
X123395936Y-113208660D01*
X123346795Y-113213500D01*
X123153205Y-113213500D01*
X123104064Y-113208660D01*
X123005780Y-113198980D01*
X122816619Y-113141599D01*
X122642288Y-113048417D01*
X122489485Y-112923015D01*
X122364083Y-112770212D01*
X122270901Y-112595881D01*
X122213520Y-112406720D01*
X122194145Y-112210000D01*
X122213520Y-112013280D01*
X122270901Y-111824119D01*
X122364083Y-111649788D01*
X122489485Y-111496985D01*
X122642288Y-111371583D01*
X122816619Y-111278401D01*
X123005780Y-111221020D01*
X123104064Y-111211340D01*
X123153205Y-111206500D01*
X123346795Y-111206500D01*
X123395936Y-111211340D01*
G37*
G36*
X120584468Y-112028565D02*
G01*
X120623138Y-112040296D01*
X120658777Y-112059346D01*
X120690017Y-112084983D01*
X120715654Y-112116223D01*
X120734704Y-112151862D01*
X120746435Y-112190532D01*
X120751000Y-112236888D01*
X120751000Y-112888112D01*
X120746435Y-112934468D01*
X120734704Y-112973138D01*
X120715654Y-113008777D01*
X120690017Y-113040017D01*
X120658777Y-113065654D01*
X120623138Y-113084704D01*
X120584468Y-113096435D01*
X120538112Y-113101000D01*
X119461888Y-113101000D01*
X119415532Y-113096435D01*
X119376862Y-113084704D01*
X119341223Y-113065654D01*
X119309983Y-113040017D01*
X119284346Y-113008777D01*
X119265296Y-112973138D01*
X119253565Y-112934468D01*
X119249000Y-112888112D01*
X119249000Y-112236888D01*
X119253565Y-112190532D01*
X119265296Y-112151862D01*
X119284346Y-112116223D01*
X119309983Y-112084983D01*
X119341223Y-112059346D01*
X119376862Y-112040296D01*
X119415532Y-112028565D01*
X119461888Y-112024000D01*
X120538112Y-112024000D01*
X120584468Y-112028565D01*
G37*
G36*
X142686823Y-110161313D02*
G01*
X142847242Y-110209976D01*
X142979906Y-110280886D01*
X142995078Y-110288996D01*
X143124659Y-110395341D01*
X143231004Y-110524922D01*
X143231005Y-110524924D01*
X143310024Y-110672758D01*
X143358687Y-110833177D01*
X143375117Y-111000000D01*
X143358687Y-111166823D01*
X143310024Y-111327242D01*
X143277488Y-111388112D01*
X143231004Y-111475078D01*
X143124659Y-111604659D01*
X142995078Y-111711004D01*
X142995076Y-111711005D01*
X142847242Y-111790024D01*
X142686823Y-111838687D01*
X142561804Y-111851000D01*
X141678196Y-111851000D01*
X141553177Y-111838687D01*
X141392758Y-111790024D01*
X141244924Y-111711005D01*
X141244922Y-111711004D01*
X141115341Y-111604659D01*
X141008996Y-111475078D01*
X140962512Y-111388112D01*
X140929976Y-111327242D01*
X140881313Y-111166823D01*
X140864883Y-111000000D01*
X140881313Y-110833177D01*
X140929976Y-110672758D01*
X141008995Y-110524924D01*
X141008996Y-110524922D01*
X141115341Y-110395341D01*
X141244922Y-110288996D01*
X141260094Y-110280886D01*
X141392758Y-110209976D01*
X141553177Y-110161313D01*
X141678196Y-110149000D01*
X142561804Y-110149000D01*
X142686823Y-110161313D01*
G37*
G36*
X135751000Y-111851000D02*
G01*
X133249000Y-111851000D01*
X133249000Y-110149000D01*
X135751000Y-110149000D01*
X135751000Y-111851000D01*
G37*
G36*
X126834468Y-110528565D02*
G01*
X126873138Y-110540296D01*
X126908777Y-110559346D01*
X126940017Y-110584983D01*
X126965654Y-110616223D01*
X126984704Y-110651862D01*
X126996435Y-110690532D01*
X127001000Y-110736888D01*
X127001000Y-111388112D01*
X126996435Y-111434468D01*
X126984704Y-111473138D01*
X126965654Y-111508777D01*
X126940017Y-111540017D01*
X126908777Y-111565654D01*
X126873138Y-111584704D01*
X126834468Y-111596435D01*
X126788112Y-111601000D01*
X125711888Y-111601000D01*
X125665532Y-111596435D01*
X125626862Y-111584704D01*
X125591223Y-111565654D01*
X125559983Y-111540017D01*
X125534346Y-111508777D01*
X125515296Y-111473138D01*
X125503565Y-111434468D01*
X125499000Y-111388112D01*
X125499000Y-110736888D01*
X125503565Y-110690532D01*
X125515296Y-110651862D01*
X125534346Y-110616223D01*
X125559983Y-110584983D01*
X125591223Y-110559346D01*
X125626862Y-110540296D01*
X125665532Y-110528565D01*
X125711888Y-110524000D01*
X126788112Y-110524000D01*
X126834468Y-110528565D01*
G37*
G36*
X123395936Y-108671340D02*
G01*
X123494220Y-108681020D01*
X123683381Y-108738401D01*
X123857712Y-108831583D01*
X124010515Y-108956985D01*
X124135917Y-109109788D01*
X124229099Y-109284119D01*
X124286480Y-109473280D01*
X124305855Y-109670000D01*
X124286480Y-109866720D01*
X124229099Y-110055881D01*
X124135917Y-110230212D01*
X124010515Y-110383015D01*
X123857712Y-110508417D01*
X123683381Y-110601599D01*
X123494220Y-110658980D01*
X123395936Y-110668660D01*
X123346795Y-110673500D01*
X123153205Y-110673500D01*
X123104064Y-110668660D01*
X123005780Y-110658980D01*
X122816619Y-110601599D01*
X122642288Y-110508417D01*
X122489485Y-110383015D01*
X122364083Y-110230212D01*
X122270901Y-110055881D01*
X122213520Y-109866720D01*
X122194145Y-109670000D01*
X122213520Y-109473280D01*
X122270901Y-109284119D01*
X122364083Y-109109788D01*
X122489485Y-108956985D01*
X122642288Y-108831583D01*
X122816619Y-108738401D01*
X123005780Y-108681020D01*
X123104064Y-108671340D01*
X123153205Y-108666500D01*
X123346795Y-108666500D01*
X123395936Y-108671340D01*
G37*
G36*
X128601000Y-109351000D02*
G01*
X126899000Y-109351000D01*
X126899000Y-107649000D01*
X128601000Y-107649000D01*
X128601000Y-109351000D01*
G37*
G36*
X127998228Y-105181703D02*
G01*
X128153100Y-105245853D01*
X128292481Y-105338985D01*
X128411015Y-105457519D01*
X128504147Y-105596900D01*
X128568297Y-105751772D01*
X128601000Y-105916184D01*
X128601000Y-106083816D01*
X128568297Y-106248228D01*
X128504147Y-106403100D01*
X128411015Y-106542481D01*
X128292481Y-106661015D01*
X128153100Y-106754147D01*
X127998228Y-106818297D01*
X127833816Y-106851000D01*
X127666184Y-106851000D01*
X127501772Y-106818297D01*
X127346900Y-106754147D01*
X127207519Y-106661015D01*
X127088985Y-106542481D01*
X126995853Y-106403100D01*
X126931703Y-106248228D01*
X126899000Y-106083816D01*
X126899000Y-105916184D01*
X126931703Y-105751772D01*
X126995853Y-105596900D01*
X127088985Y-105457519D01*
X127207519Y-105338985D01*
X127346900Y-105245853D01*
X127501772Y-105181703D01*
X127666184Y-105149000D01*
X127833816Y-105149000D01*
X127998228Y-105181703D01*
G37*
M02*
