G04 #@! TF.GenerationSoftware,KiCad,Pcbnew,5.1.5*
G04 #@! TF.CreationDate,2020-04-12T13:11:47+02:00*
G04 #@! TF.ProjectId,h_bridge,685f6272-6964-4676-952e-6b696361645f,rev?*
G04 #@! TF.SameCoordinates,Original*
G04 #@! TF.FileFunction,Paste,Top*
G04 #@! TF.FilePolarity,Positive*
%FSLAX46Y46*%
G04 Gerber Fmt 4.6, Leading zero omitted, Abs format (unit mm)*
G04 Created by KiCad (PCBNEW 5.1.5) date 2020-04-12 13:11:47*
%MOMM*%
%LPD*%
G04 APERTURE LIST*
%ADD10C,0.100000*%
G04 APERTURE END LIST*
D10*
G36*
X195830142Y-108551174D02*
G01*
X195853803Y-108554684D01*
X195877007Y-108560496D01*
X195899529Y-108568554D01*
X195921153Y-108578782D01*
X195941670Y-108591079D01*
X195960883Y-108605329D01*
X195978607Y-108621393D01*
X195994671Y-108639117D01*
X196008921Y-108658330D01*
X196021218Y-108678847D01*
X196031446Y-108700471D01*
X196039504Y-108722993D01*
X196045316Y-108746197D01*
X196048826Y-108769858D01*
X196050000Y-108793750D01*
X196050000Y-109706250D01*
X196048826Y-109730142D01*
X196045316Y-109753803D01*
X196039504Y-109777007D01*
X196031446Y-109799529D01*
X196021218Y-109821153D01*
X196008921Y-109841670D01*
X195994671Y-109860883D01*
X195978607Y-109878607D01*
X195960883Y-109894671D01*
X195941670Y-109908921D01*
X195921153Y-109921218D01*
X195899529Y-109931446D01*
X195877007Y-109939504D01*
X195853803Y-109945316D01*
X195830142Y-109948826D01*
X195806250Y-109950000D01*
X195318750Y-109950000D01*
X195294858Y-109948826D01*
X195271197Y-109945316D01*
X195247993Y-109939504D01*
X195225471Y-109931446D01*
X195203847Y-109921218D01*
X195183330Y-109908921D01*
X195164117Y-109894671D01*
X195146393Y-109878607D01*
X195130329Y-109860883D01*
X195116079Y-109841670D01*
X195103782Y-109821153D01*
X195093554Y-109799529D01*
X195085496Y-109777007D01*
X195079684Y-109753803D01*
X195076174Y-109730142D01*
X195075000Y-109706250D01*
X195075000Y-108793750D01*
X195076174Y-108769858D01*
X195079684Y-108746197D01*
X195085496Y-108722993D01*
X195093554Y-108700471D01*
X195103782Y-108678847D01*
X195116079Y-108658330D01*
X195130329Y-108639117D01*
X195146393Y-108621393D01*
X195164117Y-108605329D01*
X195183330Y-108591079D01*
X195203847Y-108578782D01*
X195225471Y-108568554D01*
X195247993Y-108560496D01*
X195271197Y-108554684D01*
X195294858Y-108551174D01*
X195318750Y-108550000D01*
X195806250Y-108550000D01*
X195830142Y-108551174D01*
G37*
G36*
X197705142Y-108551174D02*
G01*
X197728803Y-108554684D01*
X197752007Y-108560496D01*
X197774529Y-108568554D01*
X197796153Y-108578782D01*
X197816670Y-108591079D01*
X197835883Y-108605329D01*
X197853607Y-108621393D01*
X197869671Y-108639117D01*
X197883921Y-108658330D01*
X197896218Y-108678847D01*
X197906446Y-108700471D01*
X197914504Y-108722993D01*
X197920316Y-108746197D01*
X197923826Y-108769858D01*
X197925000Y-108793750D01*
X197925000Y-109706250D01*
X197923826Y-109730142D01*
X197920316Y-109753803D01*
X197914504Y-109777007D01*
X197906446Y-109799529D01*
X197896218Y-109821153D01*
X197883921Y-109841670D01*
X197869671Y-109860883D01*
X197853607Y-109878607D01*
X197835883Y-109894671D01*
X197816670Y-109908921D01*
X197796153Y-109921218D01*
X197774529Y-109931446D01*
X197752007Y-109939504D01*
X197728803Y-109945316D01*
X197705142Y-109948826D01*
X197681250Y-109950000D01*
X197193750Y-109950000D01*
X197169858Y-109948826D01*
X197146197Y-109945316D01*
X197122993Y-109939504D01*
X197100471Y-109931446D01*
X197078847Y-109921218D01*
X197058330Y-109908921D01*
X197039117Y-109894671D01*
X197021393Y-109878607D01*
X197005329Y-109860883D01*
X196991079Y-109841670D01*
X196978782Y-109821153D01*
X196968554Y-109799529D01*
X196960496Y-109777007D01*
X196954684Y-109753803D01*
X196951174Y-109730142D01*
X196950000Y-109706250D01*
X196950000Y-108793750D01*
X196951174Y-108769858D01*
X196954684Y-108746197D01*
X196960496Y-108722993D01*
X196968554Y-108700471D01*
X196978782Y-108678847D01*
X196991079Y-108658330D01*
X197005329Y-108639117D01*
X197021393Y-108621393D01*
X197039117Y-108605329D01*
X197058330Y-108591079D01*
X197078847Y-108578782D01*
X197100471Y-108568554D01*
X197122993Y-108560496D01*
X197146197Y-108554684D01*
X197169858Y-108551174D01*
X197193750Y-108550000D01*
X197681250Y-108550000D01*
X197705142Y-108551174D01*
G37*
G36*
X187330142Y-108551174D02*
G01*
X187353803Y-108554684D01*
X187377007Y-108560496D01*
X187399529Y-108568554D01*
X187421153Y-108578782D01*
X187441670Y-108591079D01*
X187460883Y-108605329D01*
X187478607Y-108621393D01*
X187494671Y-108639117D01*
X187508921Y-108658330D01*
X187521218Y-108678847D01*
X187531446Y-108700471D01*
X187539504Y-108722993D01*
X187545316Y-108746197D01*
X187548826Y-108769858D01*
X187550000Y-108793750D01*
X187550000Y-109706250D01*
X187548826Y-109730142D01*
X187545316Y-109753803D01*
X187539504Y-109777007D01*
X187531446Y-109799529D01*
X187521218Y-109821153D01*
X187508921Y-109841670D01*
X187494671Y-109860883D01*
X187478607Y-109878607D01*
X187460883Y-109894671D01*
X187441670Y-109908921D01*
X187421153Y-109921218D01*
X187399529Y-109931446D01*
X187377007Y-109939504D01*
X187353803Y-109945316D01*
X187330142Y-109948826D01*
X187306250Y-109950000D01*
X186818750Y-109950000D01*
X186794858Y-109948826D01*
X186771197Y-109945316D01*
X186747993Y-109939504D01*
X186725471Y-109931446D01*
X186703847Y-109921218D01*
X186683330Y-109908921D01*
X186664117Y-109894671D01*
X186646393Y-109878607D01*
X186630329Y-109860883D01*
X186616079Y-109841670D01*
X186603782Y-109821153D01*
X186593554Y-109799529D01*
X186585496Y-109777007D01*
X186579684Y-109753803D01*
X186576174Y-109730142D01*
X186575000Y-109706250D01*
X186575000Y-108793750D01*
X186576174Y-108769858D01*
X186579684Y-108746197D01*
X186585496Y-108722993D01*
X186593554Y-108700471D01*
X186603782Y-108678847D01*
X186616079Y-108658330D01*
X186630329Y-108639117D01*
X186646393Y-108621393D01*
X186664117Y-108605329D01*
X186683330Y-108591079D01*
X186703847Y-108578782D01*
X186725471Y-108568554D01*
X186747993Y-108560496D01*
X186771197Y-108554684D01*
X186794858Y-108551174D01*
X186818750Y-108550000D01*
X187306250Y-108550000D01*
X187330142Y-108551174D01*
G37*
G36*
X189205142Y-108551174D02*
G01*
X189228803Y-108554684D01*
X189252007Y-108560496D01*
X189274529Y-108568554D01*
X189296153Y-108578782D01*
X189316670Y-108591079D01*
X189335883Y-108605329D01*
X189353607Y-108621393D01*
X189369671Y-108639117D01*
X189383921Y-108658330D01*
X189396218Y-108678847D01*
X189406446Y-108700471D01*
X189414504Y-108722993D01*
X189420316Y-108746197D01*
X189423826Y-108769858D01*
X189425000Y-108793750D01*
X189425000Y-109706250D01*
X189423826Y-109730142D01*
X189420316Y-109753803D01*
X189414504Y-109777007D01*
X189406446Y-109799529D01*
X189396218Y-109821153D01*
X189383921Y-109841670D01*
X189369671Y-109860883D01*
X189353607Y-109878607D01*
X189335883Y-109894671D01*
X189316670Y-109908921D01*
X189296153Y-109921218D01*
X189274529Y-109931446D01*
X189252007Y-109939504D01*
X189228803Y-109945316D01*
X189205142Y-109948826D01*
X189181250Y-109950000D01*
X188693750Y-109950000D01*
X188669858Y-109948826D01*
X188646197Y-109945316D01*
X188622993Y-109939504D01*
X188600471Y-109931446D01*
X188578847Y-109921218D01*
X188558330Y-109908921D01*
X188539117Y-109894671D01*
X188521393Y-109878607D01*
X188505329Y-109860883D01*
X188491079Y-109841670D01*
X188478782Y-109821153D01*
X188468554Y-109799529D01*
X188460496Y-109777007D01*
X188454684Y-109753803D01*
X188451174Y-109730142D01*
X188450000Y-109706250D01*
X188450000Y-108793750D01*
X188451174Y-108769858D01*
X188454684Y-108746197D01*
X188460496Y-108722993D01*
X188468554Y-108700471D01*
X188478782Y-108678847D01*
X188491079Y-108658330D01*
X188505329Y-108639117D01*
X188521393Y-108621393D01*
X188539117Y-108605329D01*
X188558330Y-108591079D01*
X188578847Y-108578782D01*
X188600471Y-108568554D01*
X188622993Y-108560496D01*
X188646197Y-108554684D01*
X188669858Y-108551174D01*
X188693750Y-108550000D01*
X189181250Y-108550000D01*
X189205142Y-108551174D01*
G37*
G36*
X125580142Y-115801174D02*
G01*
X125603803Y-115804684D01*
X125627007Y-115810496D01*
X125649529Y-115818554D01*
X125671153Y-115828782D01*
X125691670Y-115841079D01*
X125710883Y-115855329D01*
X125728607Y-115871393D01*
X125744671Y-115889117D01*
X125758921Y-115908330D01*
X125771218Y-115928847D01*
X125781446Y-115950471D01*
X125789504Y-115972993D01*
X125795316Y-115996197D01*
X125798826Y-116019858D01*
X125800000Y-116043750D01*
X125800000Y-116956250D01*
X125798826Y-116980142D01*
X125795316Y-117003803D01*
X125789504Y-117027007D01*
X125781446Y-117049529D01*
X125771218Y-117071153D01*
X125758921Y-117091670D01*
X125744671Y-117110883D01*
X125728607Y-117128607D01*
X125710883Y-117144671D01*
X125691670Y-117158921D01*
X125671153Y-117171218D01*
X125649529Y-117181446D01*
X125627007Y-117189504D01*
X125603803Y-117195316D01*
X125580142Y-117198826D01*
X125556250Y-117200000D01*
X125068750Y-117200000D01*
X125044858Y-117198826D01*
X125021197Y-117195316D01*
X124997993Y-117189504D01*
X124975471Y-117181446D01*
X124953847Y-117171218D01*
X124933330Y-117158921D01*
X124914117Y-117144671D01*
X124896393Y-117128607D01*
X124880329Y-117110883D01*
X124866079Y-117091670D01*
X124853782Y-117071153D01*
X124843554Y-117049529D01*
X124835496Y-117027007D01*
X124829684Y-117003803D01*
X124826174Y-116980142D01*
X124825000Y-116956250D01*
X124825000Y-116043750D01*
X124826174Y-116019858D01*
X124829684Y-115996197D01*
X124835496Y-115972993D01*
X124843554Y-115950471D01*
X124853782Y-115928847D01*
X124866079Y-115908330D01*
X124880329Y-115889117D01*
X124896393Y-115871393D01*
X124914117Y-115855329D01*
X124933330Y-115841079D01*
X124953847Y-115828782D01*
X124975471Y-115818554D01*
X124997993Y-115810496D01*
X125021197Y-115804684D01*
X125044858Y-115801174D01*
X125068750Y-115800000D01*
X125556250Y-115800000D01*
X125580142Y-115801174D01*
G37*
G36*
X127455142Y-115801174D02*
G01*
X127478803Y-115804684D01*
X127502007Y-115810496D01*
X127524529Y-115818554D01*
X127546153Y-115828782D01*
X127566670Y-115841079D01*
X127585883Y-115855329D01*
X127603607Y-115871393D01*
X127619671Y-115889117D01*
X127633921Y-115908330D01*
X127646218Y-115928847D01*
X127656446Y-115950471D01*
X127664504Y-115972993D01*
X127670316Y-115996197D01*
X127673826Y-116019858D01*
X127675000Y-116043750D01*
X127675000Y-116956250D01*
X127673826Y-116980142D01*
X127670316Y-117003803D01*
X127664504Y-117027007D01*
X127656446Y-117049529D01*
X127646218Y-117071153D01*
X127633921Y-117091670D01*
X127619671Y-117110883D01*
X127603607Y-117128607D01*
X127585883Y-117144671D01*
X127566670Y-117158921D01*
X127546153Y-117171218D01*
X127524529Y-117181446D01*
X127502007Y-117189504D01*
X127478803Y-117195316D01*
X127455142Y-117198826D01*
X127431250Y-117200000D01*
X126943750Y-117200000D01*
X126919858Y-117198826D01*
X126896197Y-117195316D01*
X126872993Y-117189504D01*
X126850471Y-117181446D01*
X126828847Y-117171218D01*
X126808330Y-117158921D01*
X126789117Y-117144671D01*
X126771393Y-117128607D01*
X126755329Y-117110883D01*
X126741079Y-117091670D01*
X126728782Y-117071153D01*
X126718554Y-117049529D01*
X126710496Y-117027007D01*
X126704684Y-117003803D01*
X126701174Y-116980142D01*
X126700000Y-116956250D01*
X126700000Y-116043750D01*
X126701174Y-116019858D01*
X126704684Y-115996197D01*
X126710496Y-115972993D01*
X126718554Y-115950471D01*
X126728782Y-115928847D01*
X126741079Y-115908330D01*
X126755329Y-115889117D01*
X126771393Y-115871393D01*
X126789117Y-115855329D01*
X126808330Y-115841079D01*
X126828847Y-115828782D01*
X126850471Y-115818554D01*
X126872993Y-115810496D01*
X126896197Y-115804684D01*
X126919858Y-115801174D01*
X126943750Y-115800000D01*
X127431250Y-115800000D01*
X127455142Y-115801174D01*
G37*
G36*
X126730142Y-113951174D02*
G01*
X126753803Y-113954684D01*
X126777007Y-113960496D01*
X126799529Y-113968554D01*
X126821153Y-113978782D01*
X126841670Y-113991079D01*
X126860883Y-114005329D01*
X126878607Y-114021393D01*
X126894671Y-114039117D01*
X126908921Y-114058330D01*
X126921218Y-114078847D01*
X126931446Y-114100471D01*
X126939504Y-114122993D01*
X126945316Y-114146197D01*
X126948826Y-114169858D01*
X126950000Y-114193750D01*
X126950000Y-114681250D01*
X126948826Y-114705142D01*
X126945316Y-114728803D01*
X126939504Y-114752007D01*
X126931446Y-114774529D01*
X126921218Y-114796153D01*
X126908921Y-114816670D01*
X126894671Y-114835883D01*
X126878607Y-114853607D01*
X126860883Y-114869671D01*
X126841670Y-114883921D01*
X126821153Y-114896218D01*
X126799529Y-114906446D01*
X126777007Y-114914504D01*
X126753803Y-114920316D01*
X126730142Y-114923826D01*
X126706250Y-114925000D01*
X125793750Y-114925000D01*
X125769858Y-114923826D01*
X125746197Y-114920316D01*
X125722993Y-114914504D01*
X125700471Y-114906446D01*
X125678847Y-114896218D01*
X125658330Y-114883921D01*
X125639117Y-114869671D01*
X125621393Y-114853607D01*
X125605329Y-114835883D01*
X125591079Y-114816670D01*
X125578782Y-114796153D01*
X125568554Y-114774529D01*
X125560496Y-114752007D01*
X125554684Y-114728803D01*
X125551174Y-114705142D01*
X125550000Y-114681250D01*
X125550000Y-114193750D01*
X125551174Y-114169858D01*
X125554684Y-114146197D01*
X125560496Y-114122993D01*
X125568554Y-114100471D01*
X125578782Y-114078847D01*
X125591079Y-114058330D01*
X125605329Y-114039117D01*
X125621393Y-114021393D01*
X125639117Y-114005329D01*
X125658330Y-113991079D01*
X125678847Y-113978782D01*
X125700471Y-113968554D01*
X125722993Y-113960496D01*
X125746197Y-113954684D01*
X125769858Y-113951174D01*
X125793750Y-113950000D01*
X126706250Y-113950000D01*
X126730142Y-113951174D01*
G37*
G36*
X126730142Y-112076174D02*
G01*
X126753803Y-112079684D01*
X126777007Y-112085496D01*
X126799529Y-112093554D01*
X126821153Y-112103782D01*
X126841670Y-112116079D01*
X126860883Y-112130329D01*
X126878607Y-112146393D01*
X126894671Y-112164117D01*
X126908921Y-112183330D01*
X126921218Y-112203847D01*
X126931446Y-112225471D01*
X126939504Y-112247993D01*
X126945316Y-112271197D01*
X126948826Y-112294858D01*
X126950000Y-112318750D01*
X126950000Y-112806250D01*
X126948826Y-112830142D01*
X126945316Y-112853803D01*
X126939504Y-112877007D01*
X126931446Y-112899529D01*
X126921218Y-112921153D01*
X126908921Y-112941670D01*
X126894671Y-112960883D01*
X126878607Y-112978607D01*
X126860883Y-112994671D01*
X126841670Y-113008921D01*
X126821153Y-113021218D01*
X126799529Y-113031446D01*
X126777007Y-113039504D01*
X126753803Y-113045316D01*
X126730142Y-113048826D01*
X126706250Y-113050000D01*
X125793750Y-113050000D01*
X125769858Y-113048826D01*
X125746197Y-113045316D01*
X125722993Y-113039504D01*
X125700471Y-113031446D01*
X125678847Y-113021218D01*
X125658330Y-113008921D01*
X125639117Y-112994671D01*
X125621393Y-112978607D01*
X125605329Y-112960883D01*
X125591079Y-112941670D01*
X125578782Y-112921153D01*
X125568554Y-112899529D01*
X125560496Y-112877007D01*
X125554684Y-112853803D01*
X125551174Y-112830142D01*
X125550000Y-112806250D01*
X125550000Y-112318750D01*
X125551174Y-112294858D01*
X125554684Y-112271197D01*
X125560496Y-112247993D01*
X125568554Y-112225471D01*
X125578782Y-112203847D01*
X125591079Y-112183330D01*
X125605329Y-112164117D01*
X125621393Y-112146393D01*
X125639117Y-112130329D01*
X125658330Y-112116079D01*
X125678847Y-112103782D01*
X125700471Y-112093554D01*
X125722993Y-112085496D01*
X125746197Y-112079684D01*
X125769858Y-112076174D01*
X125793750Y-112075000D01*
X126706250Y-112075000D01*
X126730142Y-112076174D01*
G37*
G36*
X144480142Y-126326174D02*
G01*
X144503803Y-126329684D01*
X144527007Y-126335496D01*
X144549529Y-126343554D01*
X144571153Y-126353782D01*
X144591670Y-126366079D01*
X144610883Y-126380329D01*
X144628607Y-126396393D01*
X144644671Y-126414117D01*
X144658921Y-126433330D01*
X144671218Y-126453847D01*
X144681446Y-126475471D01*
X144689504Y-126497993D01*
X144695316Y-126521197D01*
X144698826Y-126544858D01*
X144700000Y-126568750D01*
X144700000Y-127056250D01*
X144698826Y-127080142D01*
X144695316Y-127103803D01*
X144689504Y-127127007D01*
X144681446Y-127149529D01*
X144671218Y-127171153D01*
X144658921Y-127191670D01*
X144644671Y-127210883D01*
X144628607Y-127228607D01*
X144610883Y-127244671D01*
X144591670Y-127258921D01*
X144571153Y-127271218D01*
X144549529Y-127281446D01*
X144527007Y-127289504D01*
X144503803Y-127295316D01*
X144480142Y-127298826D01*
X144456250Y-127300000D01*
X143543750Y-127300000D01*
X143519858Y-127298826D01*
X143496197Y-127295316D01*
X143472993Y-127289504D01*
X143450471Y-127281446D01*
X143428847Y-127271218D01*
X143408330Y-127258921D01*
X143389117Y-127244671D01*
X143371393Y-127228607D01*
X143355329Y-127210883D01*
X143341079Y-127191670D01*
X143328782Y-127171153D01*
X143318554Y-127149529D01*
X143310496Y-127127007D01*
X143304684Y-127103803D01*
X143301174Y-127080142D01*
X143300000Y-127056250D01*
X143300000Y-126568750D01*
X143301174Y-126544858D01*
X143304684Y-126521197D01*
X143310496Y-126497993D01*
X143318554Y-126475471D01*
X143328782Y-126453847D01*
X143341079Y-126433330D01*
X143355329Y-126414117D01*
X143371393Y-126396393D01*
X143389117Y-126380329D01*
X143408330Y-126366079D01*
X143428847Y-126353782D01*
X143450471Y-126343554D01*
X143472993Y-126335496D01*
X143496197Y-126329684D01*
X143519858Y-126326174D01*
X143543750Y-126325000D01*
X144456250Y-126325000D01*
X144480142Y-126326174D01*
G37*
G36*
X144480142Y-128201174D02*
G01*
X144503803Y-128204684D01*
X144527007Y-128210496D01*
X144549529Y-128218554D01*
X144571153Y-128228782D01*
X144591670Y-128241079D01*
X144610883Y-128255329D01*
X144628607Y-128271393D01*
X144644671Y-128289117D01*
X144658921Y-128308330D01*
X144671218Y-128328847D01*
X144681446Y-128350471D01*
X144689504Y-128372993D01*
X144695316Y-128396197D01*
X144698826Y-128419858D01*
X144700000Y-128443750D01*
X144700000Y-128931250D01*
X144698826Y-128955142D01*
X144695316Y-128978803D01*
X144689504Y-129002007D01*
X144681446Y-129024529D01*
X144671218Y-129046153D01*
X144658921Y-129066670D01*
X144644671Y-129085883D01*
X144628607Y-129103607D01*
X144610883Y-129119671D01*
X144591670Y-129133921D01*
X144571153Y-129146218D01*
X144549529Y-129156446D01*
X144527007Y-129164504D01*
X144503803Y-129170316D01*
X144480142Y-129173826D01*
X144456250Y-129175000D01*
X143543750Y-129175000D01*
X143519858Y-129173826D01*
X143496197Y-129170316D01*
X143472993Y-129164504D01*
X143450471Y-129156446D01*
X143428847Y-129146218D01*
X143408330Y-129133921D01*
X143389117Y-129119671D01*
X143371393Y-129103607D01*
X143355329Y-129085883D01*
X143341079Y-129066670D01*
X143328782Y-129046153D01*
X143318554Y-129024529D01*
X143310496Y-129002007D01*
X143304684Y-128978803D01*
X143301174Y-128955142D01*
X143300000Y-128931250D01*
X143300000Y-128443750D01*
X143301174Y-128419858D01*
X143304684Y-128396197D01*
X143310496Y-128372993D01*
X143318554Y-128350471D01*
X143328782Y-128328847D01*
X143341079Y-128308330D01*
X143355329Y-128289117D01*
X143371393Y-128271393D01*
X143389117Y-128255329D01*
X143408330Y-128241079D01*
X143428847Y-128228782D01*
X143450471Y-128218554D01*
X143472993Y-128210496D01*
X143496197Y-128204684D01*
X143519858Y-128201174D01*
X143543750Y-128200000D01*
X144456250Y-128200000D01*
X144480142Y-128201174D01*
G37*
G36*
X144480142Y-148326174D02*
G01*
X144503803Y-148329684D01*
X144527007Y-148335496D01*
X144549529Y-148343554D01*
X144571153Y-148353782D01*
X144591670Y-148366079D01*
X144610883Y-148380329D01*
X144628607Y-148396393D01*
X144644671Y-148414117D01*
X144658921Y-148433330D01*
X144671218Y-148453847D01*
X144681446Y-148475471D01*
X144689504Y-148497993D01*
X144695316Y-148521197D01*
X144698826Y-148544858D01*
X144700000Y-148568750D01*
X144700000Y-149056250D01*
X144698826Y-149080142D01*
X144695316Y-149103803D01*
X144689504Y-149127007D01*
X144681446Y-149149529D01*
X144671218Y-149171153D01*
X144658921Y-149191670D01*
X144644671Y-149210883D01*
X144628607Y-149228607D01*
X144610883Y-149244671D01*
X144591670Y-149258921D01*
X144571153Y-149271218D01*
X144549529Y-149281446D01*
X144527007Y-149289504D01*
X144503803Y-149295316D01*
X144480142Y-149298826D01*
X144456250Y-149300000D01*
X143543750Y-149300000D01*
X143519858Y-149298826D01*
X143496197Y-149295316D01*
X143472993Y-149289504D01*
X143450471Y-149281446D01*
X143428847Y-149271218D01*
X143408330Y-149258921D01*
X143389117Y-149244671D01*
X143371393Y-149228607D01*
X143355329Y-149210883D01*
X143341079Y-149191670D01*
X143328782Y-149171153D01*
X143318554Y-149149529D01*
X143310496Y-149127007D01*
X143304684Y-149103803D01*
X143301174Y-149080142D01*
X143300000Y-149056250D01*
X143300000Y-148568750D01*
X143301174Y-148544858D01*
X143304684Y-148521197D01*
X143310496Y-148497993D01*
X143318554Y-148475471D01*
X143328782Y-148453847D01*
X143341079Y-148433330D01*
X143355329Y-148414117D01*
X143371393Y-148396393D01*
X143389117Y-148380329D01*
X143408330Y-148366079D01*
X143428847Y-148353782D01*
X143450471Y-148343554D01*
X143472993Y-148335496D01*
X143496197Y-148329684D01*
X143519858Y-148326174D01*
X143543750Y-148325000D01*
X144456250Y-148325000D01*
X144480142Y-148326174D01*
G37*
G36*
X144480142Y-150201174D02*
G01*
X144503803Y-150204684D01*
X144527007Y-150210496D01*
X144549529Y-150218554D01*
X144571153Y-150228782D01*
X144591670Y-150241079D01*
X144610883Y-150255329D01*
X144628607Y-150271393D01*
X144644671Y-150289117D01*
X144658921Y-150308330D01*
X144671218Y-150328847D01*
X144681446Y-150350471D01*
X144689504Y-150372993D01*
X144695316Y-150396197D01*
X144698826Y-150419858D01*
X144700000Y-150443750D01*
X144700000Y-150931250D01*
X144698826Y-150955142D01*
X144695316Y-150978803D01*
X144689504Y-151002007D01*
X144681446Y-151024529D01*
X144671218Y-151046153D01*
X144658921Y-151066670D01*
X144644671Y-151085883D01*
X144628607Y-151103607D01*
X144610883Y-151119671D01*
X144591670Y-151133921D01*
X144571153Y-151146218D01*
X144549529Y-151156446D01*
X144527007Y-151164504D01*
X144503803Y-151170316D01*
X144480142Y-151173826D01*
X144456250Y-151175000D01*
X143543750Y-151175000D01*
X143519858Y-151173826D01*
X143496197Y-151170316D01*
X143472993Y-151164504D01*
X143450471Y-151156446D01*
X143428847Y-151146218D01*
X143408330Y-151133921D01*
X143389117Y-151119671D01*
X143371393Y-151103607D01*
X143355329Y-151085883D01*
X143341079Y-151066670D01*
X143328782Y-151046153D01*
X143318554Y-151024529D01*
X143310496Y-151002007D01*
X143304684Y-150978803D01*
X143301174Y-150955142D01*
X143300000Y-150931250D01*
X143300000Y-150443750D01*
X143301174Y-150419858D01*
X143304684Y-150396197D01*
X143310496Y-150372993D01*
X143318554Y-150350471D01*
X143328782Y-150328847D01*
X143341079Y-150308330D01*
X143355329Y-150289117D01*
X143371393Y-150271393D01*
X143389117Y-150255329D01*
X143408330Y-150241079D01*
X143428847Y-150228782D01*
X143450471Y-150218554D01*
X143472993Y-150210496D01*
X143496197Y-150204684D01*
X143519858Y-150201174D01*
X143543750Y-150200000D01*
X144456250Y-150200000D01*
X144480142Y-150201174D01*
G37*
G36*
X105980142Y-143451174D02*
G01*
X106003803Y-143454684D01*
X106027007Y-143460496D01*
X106049529Y-143468554D01*
X106071153Y-143478782D01*
X106091670Y-143491079D01*
X106110883Y-143505329D01*
X106128607Y-143521393D01*
X106144671Y-143539117D01*
X106158921Y-143558330D01*
X106171218Y-143578847D01*
X106181446Y-143600471D01*
X106189504Y-143622993D01*
X106195316Y-143646197D01*
X106198826Y-143669858D01*
X106200000Y-143693750D01*
X106200000Y-144181250D01*
X106198826Y-144205142D01*
X106195316Y-144228803D01*
X106189504Y-144252007D01*
X106181446Y-144274529D01*
X106171218Y-144296153D01*
X106158921Y-144316670D01*
X106144671Y-144335883D01*
X106128607Y-144353607D01*
X106110883Y-144369671D01*
X106091670Y-144383921D01*
X106071153Y-144396218D01*
X106049529Y-144406446D01*
X106027007Y-144414504D01*
X106003803Y-144420316D01*
X105980142Y-144423826D01*
X105956250Y-144425000D01*
X105043750Y-144425000D01*
X105019858Y-144423826D01*
X104996197Y-144420316D01*
X104972993Y-144414504D01*
X104950471Y-144406446D01*
X104928847Y-144396218D01*
X104908330Y-144383921D01*
X104889117Y-144369671D01*
X104871393Y-144353607D01*
X104855329Y-144335883D01*
X104841079Y-144316670D01*
X104828782Y-144296153D01*
X104818554Y-144274529D01*
X104810496Y-144252007D01*
X104804684Y-144228803D01*
X104801174Y-144205142D01*
X104800000Y-144181250D01*
X104800000Y-143693750D01*
X104801174Y-143669858D01*
X104804684Y-143646197D01*
X104810496Y-143622993D01*
X104818554Y-143600471D01*
X104828782Y-143578847D01*
X104841079Y-143558330D01*
X104855329Y-143539117D01*
X104871393Y-143521393D01*
X104889117Y-143505329D01*
X104908330Y-143491079D01*
X104928847Y-143478782D01*
X104950471Y-143468554D01*
X104972993Y-143460496D01*
X104996197Y-143454684D01*
X105019858Y-143451174D01*
X105043750Y-143450000D01*
X105956250Y-143450000D01*
X105980142Y-143451174D01*
G37*
G36*
X105980142Y-141576174D02*
G01*
X106003803Y-141579684D01*
X106027007Y-141585496D01*
X106049529Y-141593554D01*
X106071153Y-141603782D01*
X106091670Y-141616079D01*
X106110883Y-141630329D01*
X106128607Y-141646393D01*
X106144671Y-141664117D01*
X106158921Y-141683330D01*
X106171218Y-141703847D01*
X106181446Y-141725471D01*
X106189504Y-141747993D01*
X106195316Y-141771197D01*
X106198826Y-141794858D01*
X106200000Y-141818750D01*
X106200000Y-142306250D01*
X106198826Y-142330142D01*
X106195316Y-142353803D01*
X106189504Y-142377007D01*
X106181446Y-142399529D01*
X106171218Y-142421153D01*
X106158921Y-142441670D01*
X106144671Y-142460883D01*
X106128607Y-142478607D01*
X106110883Y-142494671D01*
X106091670Y-142508921D01*
X106071153Y-142521218D01*
X106049529Y-142531446D01*
X106027007Y-142539504D01*
X106003803Y-142545316D01*
X105980142Y-142548826D01*
X105956250Y-142550000D01*
X105043750Y-142550000D01*
X105019858Y-142548826D01*
X104996197Y-142545316D01*
X104972993Y-142539504D01*
X104950471Y-142531446D01*
X104928847Y-142521218D01*
X104908330Y-142508921D01*
X104889117Y-142494671D01*
X104871393Y-142478607D01*
X104855329Y-142460883D01*
X104841079Y-142441670D01*
X104828782Y-142421153D01*
X104818554Y-142399529D01*
X104810496Y-142377007D01*
X104804684Y-142353803D01*
X104801174Y-142330142D01*
X104800000Y-142306250D01*
X104800000Y-141818750D01*
X104801174Y-141794858D01*
X104804684Y-141771197D01*
X104810496Y-141747993D01*
X104818554Y-141725471D01*
X104828782Y-141703847D01*
X104841079Y-141683330D01*
X104855329Y-141664117D01*
X104871393Y-141646393D01*
X104889117Y-141630329D01*
X104908330Y-141616079D01*
X104928847Y-141603782D01*
X104950471Y-141593554D01*
X104972993Y-141585496D01*
X104996197Y-141579684D01*
X105019858Y-141576174D01*
X105043750Y-141575000D01*
X105956250Y-141575000D01*
X105980142Y-141576174D01*
G37*
G36*
X112480142Y-141576174D02*
G01*
X112503803Y-141579684D01*
X112527007Y-141585496D01*
X112549529Y-141593554D01*
X112571153Y-141603782D01*
X112591670Y-141616079D01*
X112610883Y-141630329D01*
X112628607Y-141646393D01*
X112644671Y-141664117D01*
X112658921Y-141683330D01*
X112671218Y-141703847D01*
X112681446Y-141725471D01*
X112689504Y-141747993D01*
X112695316Y-141771197D01*
X112698826Y-141794858D01*
X112700000Y-141818750D01*
X112700000Y-142306250D01*
X112698826Y-142330142D01*
X112695316Y-142353803D01*
X112689504Y-142377007D01*
X112681446Y-142399529D01*
X112671218Y-142421153D01*
X112658921Y-142441670D01*
X112644671Y-142460883D01*
X112628607Y-142478607D01*
X112610883Y-142494671D01*
X112591670Y-142508921D01*
X112571153Y-142521218D01*
X112549529Y-142531446D01*
X112527007Y-142539504D01*
X112503803Y-142545316D01*
X112480142Y-142548826D01*
X112456250Y-142550000D01*
X111543750Y-142550000D01*
X111519858Y-142548826D01*
X111496197Y-142545316D01*
X111472993Y-142539504D01*
X111450471Y-142531446D01*
X111428847Y-142521218D01*
X111408330Y-142508921D01*
X111389117Y-142494671D01*
X111371393Y-142478607D01*
X111355329Y-142460883D01*
X111341079Y-142441670D01*
X111328782Y-142421153D01*
X111318554Y-142399529D01*
X111310496Y-142377007D01*
X111304684Y-142353803D01*
X111301174Y-142330142D01*
X111300000Y-142306250D01*
X111300000Y-141818750D01*
X111301174Y-141794858D01*
X111304684Y-141771197D01*
X111310496Y-141747993D01*
X111318554Y-141725471D01*
X111328782Y-141703847D01*
X111341079Y-141683330D01*
X111355329Y-141664117D01*
X111371393Y-141646393D01*
X111389117Y-141630329D01*
X111408330Y-141616079D01*
X111428847Y-141603782D01*
X111450471Y-141593554D01*
X111472993Y-141585496D01*
X111496197Y-141579684D01*
X111519858Y-141576174D01*
X111543750Y-141575000D01*
X112456250Y-141575000D01*
X112480142Y-141576174D01*
G37*
G36*
X112480142Y-143451174D02*
G01*
X112503803Y-143454684D01*
X112527007Y-143460496D01*
X112549529Y-143468554D01*
X112571153Y-143478782D01*
X112591670Y-143491079D01*
X112610883Y-143505329D01*
X112628607Y-143521393D01*
X112644671Y-143539117D01*
X112658921Y-143558330D01*
X112671218Y-143578847D01*
X112681446Y-143600471D01*
X112689504Y-143622993D01*
X112695316Y-143646197D01*
X112698826Y-143669858D01*
X112700000Y-143693750D01*
X112700000Y-144181250D01*
X112698826Y-144205142D01*
X112695316Y-144228803D01*
X112689504Y-144252007D01*
X112681446Y-144274529D01*
X112671218Y-144296153D01*
X112658921Y-144316670D01*
X112644671Y-144335883D01*
X112628607Y-144353607D01*
X112610883Y-144369671D01*
X112591670Y-144383921D01*
X112571153Y-144396218D01*
X112549529Y-144406446D01*
X112527007Y-144414504D01*
X112503803Y-144420316D01*
X112480142Y-144423826D01*
X112456250Y-144425000D01*
X111543750Y-144425000D01*
X111519858Y-144423826D01*
X111496197Y-144420316D01*
X111472993Y-144414504D01*
X111450471Y-144406446D01*
X111428847Y-144396218D01*
X111408330Y-144383921D01*
X111389117Y-144369671D01*
X111371393Y-144353607D01*
X111355329Y-144335883D01*
X111341079Y-144316670D01*
X111328782Y-144296153D01*
X111318554Y-144274529D01*
X111310496Y-144252007D01*
X111304684Y-144228803D01*
X111301174Y-144205142D01*
X111300000Y-144181250D01*
X111300000Y-143693750D01*
X111301174Y-143669858D01*
X111304684Y-143646197D01*
X111310496Y-143622993D01*
X111318554Y-143600471D01*
X111328782Y-143578847D01*
X111341079Y-143558330D01*
X111355329Y-143539117D01*
X111371393Y-143521393D01*
X111389117Y-143505329D01*
X111408330Y-143491079D01*
X111428847Y-143478782D01*
X111450471Y-143468554D01*
X111472993Y-143460496D01*
X111496197Y-143454684D01*
X111519858Y-143451174D01*
X111543750Y-143450000D01*
X112456250Y-143450000D01*
X112480142Y-143451174D01*
G37*
G36*
X117230142Y-130701174D02*
G01*
X117253803Y-130704684D01*
X117277007Y-130710496D01*
X117299529Y-130718554D01*
X117321153Y-130728782D01*
X117341670Y-130741079D01*
X117360883Y-130755329D01*
X117378607Y-130771393D01*
X117394671Y-130789117D01*
X117408921Y-130808330D01*
X117421218Y-130828847D01*
X117431446Y-130850471D01*
X117439504Y-130872993D01*
X117445316Y-130896197D01*
X117448826Y-130919858D01*
X117450000Y-130943750D01*
X117450000Y-131431250D01*
X117448826Y-131455142D01*
X117445316Y-131478803D01*
X117439504Y-131502007D01*
X117431446Y-131524529D01*
X117421218Y-131546153D01*
X117408921Y-131566670D01*
X117394671Y-131585883D01*
X117378607Y-131603607D01*
X117360883Y-131619671D01*
X117341670Y-131633921D01*
X117321153Y-131646218D01*
X117299529Y-131656446D01*
X117277007Y-131664504D01*
X117253803Y-131670316D01*
X117230142Y-131673826D01*
X117206250Y-131675000D01*
X116293750Y-131675000D01*
X116269858Y-131673826D01*
X116246197Y-131670316D01*
X116222993Y-131664504D01*
X116200471Y-131656446D01*
X116178847Y-131646218D01*
X116158330Y-131633921D01*
X116139117Y-131619671D01*
X116121393Y-131603607D01*
X116105329Y-131585883D01*
X116091079Y-131566670D01*
X116078782Y-131546153D01*
X116068554Y-131524529D01*
X116060496Y-131502007D01*
X116054684Y-131478803D01*
X116051174Y-131455142D01*
X116050000Y-131431250D01*
X116050000Y-130943750D01*
X116051174Y-130919858D01*
X116054684Y-130896197D01*
X116060496Y-130872993D01*
X116068554Y-130850471D01*
X116078782Y-130828847D01*
X116091079Y-130808330D01*
X116105329Y-130789117D01*
X116121393Y-130771393D01*
X116139117Y-130755329D01*
X116158330Y-130741079D01*
X116178847Y-130728782D01*
X116200471Y-130718554D01*
X116222993Y-130710496D01*
X116246197Y-130704684D01*
X116269858Y-130701174D01*
X116293750Y-130700000D01*
X117206250Y-130700000D01*
X117230142Y-130701174D01*
G37*
G36*
X117230142Y-128826174D02*
G01*
X117253803Y-128829684D01*
X117277007Y-128835496D01*
X117299529Y-128843554D01*
X117321153Y-128853782D01*
X117341670Y-128866079D01*
X117360883Y-128880329D01*
X117378607Y-128896393D01*
X117394671Y-128914117D01*
X117408921Y-128933330D01*
X117421218Y-128953847D01*
X117431446Y-128975471D01*
X117439504Y-128997993D01*
X117445316Y-129021197D01*
X117448826Y-129044858D01*
X117450000Y-129068750D01*
X117450000Y-129556250D01*
X117448826Y-129580142D01*
X117445316Y-129603803D01*
X117439504Y-129627007D01*
X117431446Y-129649529D01*
X117421218Y-129671153D01*
X117408921Y-129691670D01*
X117394671Y-129710883D01*
X117378607Y-129728607D01*
X117360883Y-129744671D01*
X117341670Y-129758921D01*
X117321153Y-129771218D01*
X117299529Y-129781446D01*
X117277007Y-129789504D01*
X117253803Y-129795316D01*
X117230142Y-129798826D01*
X117206250Y-129800000D01*
X116293750Y-129800000D01*
X116269858Y-129798826D01*
X116246197Y-129795316D01*
X116222993Y-129789504D01*
X116200471Y-129781446D01*
X116178847Y-129771218D01*
X116158330Y-129758921D01*
X116139117Y-129744671D01*
X116121393Y-129728607D01*
X116105329Y-129710883D01*
X116091079Y-129691670D01*
X116078782Y-129671153D01*
X116068554Y-129649529D01*
X116060496Y-129627007D01*
X116054684Y-129603803D01*
X116051174Y-129580142D01*
X116050000Y-129556250D01*
X116050000Y-129068750D01*
X116051174Y-129044858D01*
X116054684Y-129021197D01*
X116060496Y-128997993D01*
X116068554Y-128975471D01*
X116078782Y-128953847D01*
X116091079Y-128933330D01*
X116105329Y-128914117D01*
X116121393Y-128896393D01*
X116139117Y-128880329D01*
X116158330Y-128866079D01*
X116178847Y-128853782D01*
X116200471Y-128843554D01*
X116222993Y-128835496D01*
X116246197Y-128829684D01*
X116269858Y-128826174D01*
X116293750Y-128825000D01*
X117206250Y-128825000D01*
X117230142Y-128826174D01*
G37*
G36*
X117230142Y-135701174D02*
G01*
X117253803Y-135704684D01*
X117277007Y-135710496D01*
X117299529Y-135718554D01*
X117321153Y-135728782D01*
X117341670Y-135741079D01*
X117360883Y-135755329D01*
X117378607Y-135771393D01*
X117394671Y-135789117D01*
X117408921Y-135808330D01*
X117421218Y-135828847D01*
X117431446Y-135850471D01*
X117439504Y-135872993D01*
X117445316Y-135896197D01*
X117448826Y-135919858D01*
X117450000Y-135943750D01*
X117450000Y-136431250D01*
X117448826Y-136455142D01*
X117445316Y-136478803D01*
X117439504Y-136502007D01*
X117431446Y-136524529D01*
X117421218Y-136546153D01*
X117408921Y-136566670D01*
X117394671Y-136585883D01*
X117378607Y-136603607D01*
X117360883Y-136619671D01*
X117341670Y-136633921D01*
X117321153Y-136646218D01*
X117299529Y-136656446D01*
X117277007Y-136664504D01*
X117253803Y-136670316D01*
X117230142Y-136673826D01*
X117206250Y-136675000D01*
X116293750Y-136675000D01*
X116269858Y-136673826D01*
X116246197Y-136670316D01*
X116222993Y-136664504D01*
X116200471Y-136656446D01*
X116178847Y-136646218D01*
X116158330Y-136633921D01*
X116139117Y-136619671D01*
X116121393Y-136603607D01*
X116105329Y-136585883D01*
X116091079Y-136566670D01*
X116078782Y-136546153D01*
X116068554Y-136524529D01*
X116060496Y-136502007D01*
X116054684Y-136478803D01*
X116051174Y-136455142D01*
X116050000Y-136431250D01*
X116050000Y-135943750D01*
X116051174Y-135919858D01*
X116054684Y-135896197D01*
X116060496Y-135872993D01*
X116068554Y-135850471D01*
X116078782Y-135828847D01*
X116091079Y-135808330D01*
X116105329Y-135789117D01*
X116121393Y-135771393D01*
X116139117Y-135755329D01*
X116158330Y-135741079D01*
X116178847Y-135728782D01*
X116200471Y-135718554D01*
X116222993Y-135710496D01*
X116246197Y-135704684D01*
X116269858Y-135701174D01*
X116293750Y-135700000D01*
X117206250Y-135700000D01*
X117230142Y-135701174D01*
G37*
G36*
X117230142Y-133826174D02*
G01*
X117253803Y-133829684D01*
X117277007Y-133835496D01*
X117299529Y-133843554D01*
X117321153Y-133853782D01*
X117341670Y-133866079D01*
X117360883Y-133880329D01*
X117378607Y-133896393D01*
X117394671Y-133914117D01*
X117408921Y-133933330D01*
X117421218Y-133953847D01*
X117431446Y-133975471D01*
X117439504Y-133997993D01*
X117445316Y-134021197D01*
X117448826Y-134044858D01*
X117450000Y-134068750D01*
X117450000Y-134556250D01*
X117448826Y-134580142D01*
X117445316Y-134603803D01*
X117439504Y-134627007D01*
X117431446Y-134649529D01*
X117421218Y-134671153D01*
X117408921Y-134691670D01*
X117394671Y-134710883D01*
X117378607Y-134728607D01*
X117360883Y-134744671D01*
X117341670Y-134758921D01*
X117321153Y-134771218D01*
X117299529Y-134781446D01*
X117277007Y-134789504D01*
X117253803Y-134795316D01*
X117230142Y-134798826D01*
X117206250Y-134800000D01*
X116293750Y-134800000D01*
X116269858Y-134798826D01*
X116246197Y-134795316D01*
X116222993Y-134789504D01*
X116200471Y-134781446D01*
X116178847Y-134771218D01*
X116158330Y-134758921D01*
X116139117Y-134744671D01*
X116121393Y-134728607D01*
X116105329Y-134710883D01*
X116091079Y-134691670D01*
X116078782Y-134671153D01*
X116068554Y-134649529D01*
X116060496Y-134627007D01*
X116054684Y-134603803D01*
X116051174Y-134580142D01*
X116050000Y-134556250D01*
X116050000Y-134068750D01*
X116051174Y-134044858D01*
X116054684Y-134021197D01*
X116060496Y-133997993D01*
X116068554Y-133975471D01*
X116078782Y-133953847D01*
X116091079Y-133933330D01*
X116105329Y-133914117D01*
X116121393Y-133896393D01*
X116139117Y-133880329D01*
X116158330Y-133866079D01*
X116178847Y-133853782D01*
X116200471Y-133843554D01*
X116222993Y-133835496D01*
X116246197Y-133829684D01*
X116269858Y-133826174D01*
X116293750Y-133825000D01*
X117206250Y-133825000D01*
X117230142Y-133826174D01*
G37*
G36*
X117730142Y-141763674D02*
G01*
X117753803Y-141767184D01*
X117777007Y-141772996D01*
X117799529Y-141781054D01*
X117821153Y-141791282D01*
X117841670Y-141803579D01*
X117860883Y-141817829D01*
X117878607Y-141833893D01*
X117894671Y-141851617D01*
X117908921Y-141870830D01*
X117921218Y-141891347D01*
X117931446Y-141912971D01*
X117939504Y-141935493D01*
X117945316Y-141958697D01*
X117948826Y-141982358D01*
X117950000Y-142006250D01*
X117950000Y-142493750D01*
X117948826Y-142517642D01*
X117945316Y-142541303D01*
X117939504Y-142564507D01*
X117931446Y-142587029D01*
X117921218Y-142608653D01*
X117908921Y-142629170D01*
X117894671Y-142648383D01*
X117878607Y-142666107D01*
X117860883Y-142682171D01*
X117841670Y-142696421D01*
X117821153Y-142708718D01*
X117799529Y-142718946D01*
X117777007Y-142727004D01*
X117753803Y-142732816D01*
X117730142Y-142736326D01*
X117706250Y-142737500D01*
X116793750Y-142737500D01*
X116769858Y-142736326D01*
X116746197Y-142732816D01*
X116722993Y-142727004D01*
X116700471Y-142718946D01*
X116678847Y-142708718D01*
X116658330Y-142696421D01*
X116639117Y-142682171D01*
X116621393Y-142666107D01*
X116605329Y-142648383D01*
X116591079Y-142629170D01*
X116578782Y-142608653D01*
X116568554Y-142587029D01*
X116560496Y-142564507D01*
X116554684Y-142541303D01*
X116551174Y-142517642D01*
X116550000Y-142493750D01*
X116550000Y-142006250D01*
X116551174Y-141982358D01*
X116554684Y-141958697D01*
X116560496Y-141935493D01*
X116568554Y-141912971D01*
X116578782Y-141891347D01*
X116591079Y-141870830D01*
X116605329Y-141851617D01*
X116621393Y-141833893D01*
X116639117Y-141817829D01*
X116658330Y-141803579D01*
X116678847Y-141791282D01*
X116700471Y-141781054D01*
X116722993Y-141772996D01*
X116746197Y-141767184D01*
X116769858Y-141763674D01*
X116793750Y-141762500D01*
X117706250Y-141762500D01*
X117730142Y-141763674D01*
G37*
G36*
X117730142Y-143638674D02*
G01*
X117753803Y-143642184D01*
X117777007Y-143647996D01*
X117799529Y-143656054D01*
X117821153Y-143666282D01*
X117841670Y-143678579D01*
X117860883Y-143692829D01*
X117878607Y-143708893D01*
X117894671Y-143726617D01*
X117908921Y-143745830D01*
X117921218Y-143766347D01*
X117931446Y-143787971D01*
X117939504Y-143810493D01*
X117945316Y-143833697D01*
X117948826Y-143857358D01*
X117950000Y-143881250D01*
X117950000Y-144368750D01*
X117948826Y-144392642D01*
X117945316Y-144416303D01*
X117939504Y-144439507D01*
X117931446Y-144462029D01*
X117921218Y-144483653D01*
X117908921Y-144504170D01*
X117894671Y-144523383D01*
X117878607Y-144541107D01*
X117860883Y-144557171D01*
X117841670Y-144571421D01*
X117821153Y-144583718D01*
X117799529Y-144593946D01*
X117777007Y-144602004D01*
X117753803Y-144607816D01*
X117730142Y-144611326D01*
X117706250Y-144612500D01*
X116793750Y-144612500D01*
X116769858Y-144611326D01*
X116746197Y-144607816D01*
X116722993Y-144602004D01*
X116700471Y-144593946D01*
X116678847Y-144583718D01*
X116658330Y-144571421D01*
X116639117Y-144557171D01*
X116621393Y-144541107D01*
X116605329Y-144523383D01*
X116591079Y-144504170D01*
X116578782Y-144483653D01*
X116568554Y-144462029D01*
X116560496Y-144439507D01*
X116554684Y-144416303D01*
X116551174Y-144392642D01*
X116550000Y-144368750D01*
X116550000Y-143881250D01*
X116551174Y-143857358D01*
X116554684Y-143833697D01*
X116560496Y-143810493D01*
X116568554Y-143787971D01*
X116578782Y-143766347D01*
X116591079Y-143745830D01*
X116605329Y-143726617D01*
X116621393Y-143708893D01*
X116639117Y-143692829D01*
X116658330Y-143678579D01*
X116678847Y-143666282D01*
X116700471Y-143656054D01*
X116722993Y-143647996D01*
X116746197Y-143642184D01*
X116769858Y-143638674D01*
X116793750Y-143637500D01*
X117706250Y-143637500D01*
X117730142Y-143638674D01*
G37*
G36*
X130730142Y-117951174D02*
G01*
X130753803Y-117954684D01*
X130777007Y-117960496D01*
X130799529Y-117968554D01*
X130821153Y-117978782D01*
X130841670Y-117991079D01*
X130860883Y-118005329D01*
X130878607Y-118021393D01*
X130894671Y-118039117D01*
X130908921Y-118058330D01*
X130921218Y-118078847D01*
X130931446Y-118100471D01*
X130939504Y-118122993D01*
X130945316Y-118146197D01*
X130948826Y-118169858D01*
X130950000Y-118193750D01*
X130950000Y-118681250D01*
X130948826Y-118705142D01*
X130945316Y-118728803D01*
X130939504Y-118752007D01*
X130931446Y-118774529D01*
X130921218Y-118796153D01*
X130908921Y-118816670D01*
X130894671Y-118835883D01*
X130878607Y-118853607D01*
X130860883Y-118869671D01*
X130841670Y-118883921D01*
X130821153Y-118896218D01*
X130799529Y-118906446D01*
X130777007Y-118914504D01*
X130753803Y-118920316D01*
X130730142Y-118923826D01*
X130706250Y-118925000D01*
X129793750Y-118925000D01*
X129769858Y-118923826D01*
X129746197Y-118920316D01*
X129722993Y-118914504D01*
X129700471Y-118906446D01*
X129678847Y-118896218D01*
X129658330Y-118883921D01*
X129639117Y-118869671D01*
X129621393Y-118853607D01*
X129605329Y-118835883D01*
X129591079Y-118816670D01*
X129578782Y-118796153D01*
X129568554Y-118774529D01*
X129560496Y-118752007D01*
X129554684Y-118728803D01*
X129551174Y-118705142D01*
X129550000Y-118681250D01*
X129550000Y-118193750D01*
X129551174Y-118169858D01*
X129554684Y-118146197D01*
X129560496Y-118122993D01*
X129568554Y-118100471D01*
X129578782Y-118078847D01*
X129591079Y-118058330D01*
X129605329Y-118039117D01*
X129621393Y-118021393D01*
X129639117Y-118005329D01*
X129658330Y-117991079D01*
X129678847Y-117978782D01*
X129700471Y-117968554D01*
X129722993Y-117960496D01*
X129746197Y-117954684D01*
X129769858Y-117951174D01*
X129793750Y-117950000D01*
X130706250Y-117950000D01*
X130730142Y-117951174D01*
G37*
G36*
X130730142Y-116076174D02*
G01*
X130753803Y-116079684D01*
X130777007Y-116085496D01*
X130799529Y-116093554D01*
X130821153Y-116103782D01*
X130841670Y-116116079D01*
X130860883Y-116130329D01*
X130878607Y-116146393D01*
X130894671Y-116164117D01*
X130908921Y-116183330D01*
X130921218Y-116203847D01*
X130931446Y-116225471D01*
X130939504Y-116247993D01*
X130945316Y-116271197D01*
X130948826Y-116294858D01*
X130950000Y-116318750D01*
X130950000Y-116806250D01*
X130948826Y-116830142D01*
X130945316Y-116853803D01*
X130939504Y-116877007D01*
X130931446Y-116899529D01*
X130921218Y-116921153D01*
X130908921Y-116941670D01*
X130894671Y-116960883D01*
X130878607Y-116978607D01*
X130860883Y-116994671D01*
X130841670Y-117008921D01*
X130821153Y-117021218D01*
X130799529Y-117031446D01*
X130777007Y-117039504D01*
X130753803Y-117045316D01*
X130730142Y-117048826D01*
X130706250Y-117050000D01*
X129793750Y-117050000D01*
X129769858Y-117048826D01*
X129746197Y-117045316D01*
X129722993Y-117039504D01*
X129700471Y-117031446D01*
X129678847Y-117021218D01*
X129658330Y-117008921D01*
X129639117Y-116994671D01*
X129621393Y-116978607D01*
X129605329Y-116960883D01*
X129591079Y-116941670D01*
X129578782Y-116921153D01*
X129568554Y-116899529D01*
X129560496Y-116877007D01*
X129554684Y-116853803D01*
X129551174Y-116830142D01*
X129550000Y-116806250D01*
X129550000Y-116318750D01*
X129551174Y-116294858D01*
X129554684Y-116271197D01*
X129560496Y-116247993D01*
X129568554Y-116225471D01*
X129578782Y-116203847D01*
X129591079Y-116183330D01*
X129605329Y-116164117D01*
X129621393Y-116146393D01*
X129639117Y-116130329D01*
X129658330Y-116116079D01*
X129678847Y-116103782D01*
X129700471Y-116093554D01*
X129722993Y-116085496D01*
X129746197Y-116079684D01*
X129769858Y-116076174D01*
X129793750Y-116075000D01*
X130706250Y-116075000D01*
X130730142Y-116076174D01*
G37*
G36*
X167455142Y-108551174D02*
G01*
X167478803Y-108554684D01*
X167502007Y-108560496D01*
X167524529Y-108568554D01*
X167546153Y-108578782D01*
X167566670Y-108591079D01*
X167585883Y-108605329D01*
X167603607Y-108621393D01*
X167619671Y-108639117D01*
X167633921Y-108658330D01*
X167646218Y-108678847D01*
X167656446Y-108700471D01*
X167664504Y-108722993D01*
X167670316Y-108746197D01*
X167673826Y-108769858D01*
X167675000Y-108793750D01*
X167675000Y-109706250D01*
X167673826Y-109730142D01*
X167670316Y-109753803D01*
X167664504Y-109777007D01*
X167656446Y-109799529D01*
X167646218Y-109821153D01*
X167633921Y-109841670D01*
X167619671Y-109860883D01*
X167603607Y-109878607D01*
X167585883Y-109894671D01*
X167566670Y-109908921D01*
X167546153Y-109921218D01*
X167524529Y-109931446D01*
X167502007Y-109939504D01*
X167478803Y-109945316D01*
X167455142Y-109948826D01*
X167431250Y-109950000D01*
X166943750Y-109950000D01*
X166919858Y-109948826D01*
X166896197Y-109945316D01*
X166872993Y-109939504D01*
X166850471Y-109931446D01*
X166828847Y-109921218D01*
X166808330Y-109908921D01*
X166789117Y-109894671D01*
X166771393Y-109878607D01*
X166755329Y-109860883D01*
X166741079Y-109841670D01*
X166728782Y-109821153D01*
X166718554Y-109799529D01*
X166710496Y-109777007D01*
X166704684Y-109753803D01*
X166701174Y-109730142D01*
X166700000Y-109706250D01*
X166700000Y-108793750D01*
X166701174Y-108769858D01*
X166704684Y-108746197D01*
X166710496Y-108722993D01*
X166718554Y-108700471D01*
X166728782Y-108678847D01*
X166741079Y-108658330D01*
X166755329Y-108639117D01*
X166771393Y-108621393D01*
X166789117Y-108605329D01*
X166808330Y-108591079D01*
X166828847Y-108578782D01*
X166850471Y-108568554D01*
X166872993Y-108560496D01*
X166896197Y-108554684D01*
X166919858Y-108551174D01*
X166943750Y-108550000D01*
X167431250Y-108550000D01*
X167455142Y-108551174D01*
G37*
G36*
X165580142Y-108551174D02*
G01*
X165603803Y-108554684D01*
X165627007Y-108560496D01*
X165649529Y-108568554D01*
X165671153Y-108578782D01*
X165691670Y-108591079D01*
X165710883Y-108605329D01*
X165728607Y-108621393D01*
X165744671Y-108639117D01*
X165758921Y-108658330D01*
X165771218Y-108678847D01*
X165781446Y-108700471D01*
X165789504Y-108722993D01*
X165795316Y-108746197D01*
X165798826Y-108769858D01*
X165800000Y-108793750D01*
X165800000Y-109706250D01*
X165798826Y-109730142D01*
X165795316Y-109753803D01*
X165789504Y-109777007D01*
X165781446Y-109799529D01*
X165771218Y-109821153D01*
X165758921Y-109841670D01*
X165744671Y-109860883D01*
X165728607Y-109878607D01*
X165710883Y-109894671D01*
X165691670Y-109908921D01*
X165671153Y-109921218D01*
X165649529Y-109931446D01*
X165627007Y-109939504D01*
X165603803Y-109945316D01*
X165580142Y-109948826D01*
X165556250Y-109950000D01*
X165068750Y-109950000D01*
X165044858Y-109948826D01*
X165021197Y-109945316D01*
X164997993Y-109939504D01*
X164975471Y-109931446D01*
X164953847Y-109921218D01*
X164933330Y-109908921D01*
X164914117Y-109894671D01*
X164896393Y-109878607D01*
X164880329Y-109860883D01*
X164866079Y-109841670D01*
X164853782Y-109821153D01*
X164843554Y-109799529D01*
X164835496Y-109777007D01*
X164829684Y-109753803D01*
X164826174Y-109730142D01*
X164825000Y-109706250D01*
X164825000Y-108793750D01*
X164826174Y-108769858D01*
X164829684Y-108746197D01*
X164835496Y-108722993D01*
X164843554Y-108700471D01*
X164853782Y-108678847D01*
X164866079Y-108658330D01*
X164880329Y-108639117D01*
X164896393Y-108621393D01*
X164914117Y-108605329D01*
X164933330Y-108591079D01*
X164953847Y-108578782D01*
X164975471Y-108568554D01*
X164997993Y-108560496D01*
X165021197Y-108554684D01*
X165044858Y-108551174D01*
X165068750Y-108550000D01*
X165556250Y-108550000D01*
X165580142Y-108551174D01*
G37*
G36*
X158955142Y-108551174D02*
G01*
X158978803Y-108554684D01*
X159002007Y-108560496D01*
X159024529Y-108568554D01*
X159046153Y-108578782D01*
X159066670Y-108591079D01*
X159085883Y-108605329D01*
X159103607Y-108621393D01*
X159119671Y-108639117D01*
X159133921Y-108658330D01*
X159146218Y-108678847D01*
X159156446Y-108700471D01*
X159164504Y-108722993D01*
X159170316Y-108746197D01*
X159173826Y-108769858D01*
X159175000Y-108793750D01*
X159175000Y-109706250D01*
X159173826Y-109730142D01*
X159170316Y-109753803D01*
X159164504Y-109777007D01*
X159156446Y-109799529D01*
X159146218Y-109821153D01*
X159133921Y-109841670D01*
X159119671Y-109860883D01*
X159103607Y-109878607D01*
X159085883Y-109894671D01*
X159066670Y-109908921D01*
X159046153Y-109921218D01*
X159024529Y-109931446D01*
X159002007Y-109939504D01*
X158978803Y-109945316D01*
X158955142Y-109948826D01*
X158931250Y-109950000D01*
X158443750Y-109950000D01*
X158419858Y-109948826D01*
X158396197Y-109945316D01*
X158372993Y-109939504D01*
X158350471Y-109931446D01*
X158328847Y-109921218D01*
X158308330Y-109908921D01*
X158289117Y-109894671D01*
X158271393Y-109878607D01*
X158255329Y-109860883D01*
X158241079Y-109841670D01*
X158228782Y-109821153D01*
X158218554Y-109799529D01*
X158210496Y-109777007D01*
X158204684Y-109753803D01*
X158201174Y-109730142D01*
X158200000Y-109706250D01*
X158200000Y-108793750D01*
X158201174Y-108769858D01*
X158204684Y-108746197D01*
X158210496Y-108722993D01*
X158218554Y-108700471D01*
X158228782Y-108678847D01*
X158241079Y-108658330D01*
X158255329Y-108639117D01*
X158271393Y-108621393D01*
X158289117Y-108605329D01*
X158308330Y-108591079D01*
X158328847Y-108578782D01*
X158350471Y-108568554D01*
X158372993Y-108560496D01*
X158396197Y-108554684D01*
X158419858Y-108551174D01*
X158443750Y-108550000D01*
X158931250Y-108550000D01*
X158955142Y-108551174D01*
G37*
G36*
X157080142Y-108551174D02*
G01*
X157103803Y-108554684D01*
X157127007Y-108560496D01*
X157149529Y-108568554D01*
X157171153Y-108578782D01*
X157191670Y-108591079D01*
X157210883Y-108605329D01*
X157228607Y-108621393D01*
X157244671Y-108639117D01*
X157258921Y-108658330D01*
X157271218Y-108678847D01*
X157281446Y-108700471D01*
X157289504Y-108722993D01*
X157295316Y-108746197D01*
X157298826Y-108769858D01*
X157300000Y-108793750D01*
X157300000Y-109706250D01*
X157298826Y-109730142D01*
X157295316Y-109753803D01*
X157289504Y-109777007D01*
X157281446Y-109799529D01*
X157271218Y-109821153D01*
X157258921Y-109841670D01*
X157244671Y-109860883D01*
X157228607Y-109878607D01*
X157210883Y-109894671D01*
X157191670Y-109908921D01*
X157171153Y-109921218D01*
X157149529Y-109931446D01*
X157127007Y-109939504D01*
X157103803Y-109945316D01*
X157080142Y-109948826D01*
X157056250Y-109950000D01*
X156568750Y-109950000D01*
X156544858Y-109948826D01*
X156521197Y-109945316D01*
X156497993Y-109939504D01*
X156475471Y-109931446D01*
X156453847Y-109921218D01*
X156433330Y-109908921D01*
X156414117Y-109894671D01*
X156396393Y-109878607D01*
X156380329Y-109860883D01*
X156366079Y-109841670D01*
X156353782Y-109821153D01*
X156343554Y-109799529D01*
X156335496Y-109777007D01*
X156329684Y-109753803D01*
X156326174Y-109730142D01*
X156325000Y-109706250D01*
X156325000Y-108793750D01*
X156326174Y-108769858D01*
X156329684Y-108746197D01*
X156335496Y-108722993D01*
X156343554Y-108700471D01*
X156353782Y-108678847D01*
X156366079Y-108658330D01*
X156380329Y-108639117D01*
X156396393Y-108621393D01*
X156414117Y-108605329D01*
X156433330Y-108591079D01*
X156453847Y-108578782D01*
X156475471Y-108568554D01*
X156497993Y-108560496D01*
X156521197Y-108554684D01*
X156544858Y-108551174D01*
X156568750Y-108550000D01*
X157056250Y-108550000D01*
X157080142Y-108551174D01*
G37*
G36*
X191080142Y-148551174D02*
G01*
X191103803Y-148554684D01*
X191127007Y-148560496D01*
X191149529Y-148568554D01*
X191171153Y-148578782D01*
X191191670Y-148591079D01*
X191210883Y-148605329D01*
X191228607Y-148621393D01*
X191244671Y-148639117D01*
X191258921Y-148658330D01*
X191271218Y-148678847D01*
X191281446Y-148700471D01*
X191289504Y-148722993D01*
X191295316Y-148746197D01*
X191298826Y-148769858D01*
X191300000Y-148793750D01*
X191300000Y-149706250D01*
X191298826Y-149730142D01*
X191295316Y-149753803D01*
X191289504Y-149777007D01*
X191281446Y-149799529D01*
X191271218Y-149821153D01*
X191258921Y-149841670D01*
X191244671Y-149860883D01*
X191228607Y-149878607D01*
X191210883Y-149894671D01*
X191191670Y-149908921D01*
X191171153Y-149921218D01*
X191149529Y-149931446D01*
X191127007Y-149939504D01*
X191103803Y-149945316D01*
X191080142Y-149948826D01*
X191056250Y-149950000D01*
X190568750Y-149950000D01*
X190544858Y-149948826D01*
X190521197Y-149945316D01*
X190497993Y-149939504D01*
X190475471Y-149931446D01*
X190453847Y-149921218D01*
X190433330Y-149908921D01*
X190414117Y-149894671D01*
X190396393Y-149878607D01*
X190380329Y-149860883D01*
X190366079Y-149841670D01*
X190353782Y-149821153D01*
X190343554Y-149799529D01*
X190335496Y-149777007D01*
X190329684Y-149753803D01*
X190326174Y-149730142D01*
X190325000Y-149706250D01*
X190325000Y-148793750D01*
X190326174Y-148769858D01*
X190329684Y-148746197D01*
X190335496Y-148722993D01*
X190343554Y-148700471D01*
X190353782Y-148678847D01*
X190366079Y-148658330D01*
X190380329Y-148639117D01*
X190396393Y-148621393D01*
X190414117Y-148605329D01*
X190433330Y-148591079D01*
X190453847Y-148578782D01*
X190475471Y-148568554D01*
X190497993Y-148560496D01*
X190521197Y-148554684D01*
X190544858Y-148551174D01*
X190568750Y-148550000D01*
X191056250Y-148550000D01*
X191080142Y-148551174D01*
G37*
G36*
X192955142Y-148551174D02*
G01*
X192978803Y-148554684D01*
X193002007Y-148560496D01*
X193024529Y-148568554D01*
X193046153Y-148578782D01*
X193066670Y-148591079D01*
X193085883Y-148605329D01*
X193103607Y-148621393D01*
X193119671Y-148639117D01*
X193133921Y-148658330D01*
X193146218Y-148678847D01*
X193156446Y-148700471D01*
X193164504Y-148722993D01*
X193170316Y-148746197D01*
X193173826Y-148769858D01*
X193175000Y-148793750D01*
X193175000Y-149706250D01*
X193173826Y-149730142D01*
X193170316Y-149753803D01*
X193164504Y-149777007D01*
X193156446Y-149799529D01*
X193146218Y-149821153D01*
X193133921Y-149841670D01*
X193119671Y-149860883D01*
X193103607Y-149878607D01*
X193085883Y-149894671D01*
X193066670Y-149908921D01*
X193046153Y-149921218D01*
X193024529Y-149931446D01*
X193002007Y-149939504D01*
X192978803Y-149945316D01*
X192955142Y-149948826D01*
X192931250Y-149950000D01*
X192443750Y-149950000D01*
X192419858Y-149948826D01*
X192396197Y-149945316D01*
X192372993Y-149939504D01*
X192350471Y-149931446D01*
X192328847Y-149921218D01*
X192308330Y-149908921D01*
X192289117Y-149894671D01*
X192271393Y-149878607D01*
X192255329Y-149860883D01*
X192241079Y-149841670D01*
X192228782Y-149821153D01*
X192218554Y-149799529D01*
X192210496Y-149777007D01*
X192204684Y-149753803D01*
X192201174Y-149730142D01*
X192200000Y-149706250D01*
X192200000Y-148793750D01*
X192201174Y-148769858D01*
X192204684Y-148746197D01*
X192210496Y-148722993D01*
X192218554Y-148700471D01*
X192228782Y-148678847D01*
X192241079Y-148658330D01*
X192255329Y-148639117D01*
X192271393Y-148621393D01*
X192289117Y-148605329D01*
X192308330Y-148591079D01*
X192328847Y-148578782D01*
X192350471Y-148568554D01*
X192372993Y-148560496D01*
X192396197Y-148554684D01*
X192419858Y-148551174D01*
X192443750Y-148550000D01*
X192931250Y-148550000D01*
X192955142Y-148551174D01*
G37*
G36*
X184205142Y-148551174D02*
G01*
X184228803Y-148554684D01*
X184252007Y-148560496D01*
X184274529Y-148568554D01*
X184296153Y-148578782D01*
X184316670Y-148591079D01*
X184335883Y-148605329D01*
X184353607Y-148621393D01*
X184369671Y-148639117D01*
X184383921Y-148658330D01*
X184396218Y-148678847D01*
X184406446Y-148700471D01*
X184414504Y-148722993D01*
X184420316Y-148746197D01*
X184423826Y-148769858D01*
X184425000Y-148793750D01*
X184425000Y-149706250D01*
X184423826Y-149730142D01*
X184420316Y-149753803D01*
X184414504Y-149777007D01*
X184406446Y-149799529D01*
X184396218Y-149821153D01*
X184383921Y-149841670D01*
X184369671Y-149860883D01*
X184353607Y-149878607D01*
X184335883Y-149894671D01*
X184316670Y-149908921D01*
X184296153Y-149921218D01*
X184274529Y-149931446D01*
X184252007Y-149939504D01*
X184228803Y-149945316D01*
X184205142Y-149948826D01*
X184181250Y-149950000D01*
X183693750Y-149950000D01*
X183669858Y-149948826D01*
X183646197Y-149945316D01*
X183622993Y-149939504D01*
X183600471Y-149931446D01*
X183578847Y-149921218D01*
X183558330Y-149908921D01*
X183539117Y-149894671D01*
X183521393Y-149878607D01*
X183505329Y-149860883D01*
X183491079Y-149841670D01*
X183478782Y-149821153D01*
X183468554Y-149799529D01*
X183460496Y-149777007D01*
X183454684Y-149753803D01*
X183451174Y-149730142D01*
X183450000Y-149706250D01*
X183450000Y-148793750D01*
X183451174Y-148769858D01*
X183454684Y-148746197D01*
X183460496Y-148722993D01*
X183468554Y-148700471D01*
X183478782Y-148678847D01*
X183491079Y-148658330D01*
X183505329Y-148639117D01*
X183521393Y-148621393D01*
X183539117Y-148605329D01*
X183558330Y-148591079D01*
X183578847Y-148578782D01*
X183600471Y-148568554D01*
X183622993Y-148560496D01*
X183646197Y-148554684D01*
X183669858Y-148551174D01*
X183693750Y-148550000D01*
X184181250Y-148550000D01*
X184205142Y-148551174D01*
G37*
G36*
X182330142Y-148551174D02*
G01*
X182353803Y-148554684D01*
X182377007Y-148560496D01*
X182399529Y-148568554D01*
X182421153Y-148578782D01*
X182441670Y-148591079D01*
X182460883Y-148605329D01*
X182478607Y-148621393D01*
X182494671Y-148639117D01*
X182508921Y-148658330D01*
X182521218Y-148678847D01*
X182531446Y-148700471D01*
X182539504Y-148722993D01*
X182545316Y-148746197D01*
X182548826Y-148769858D01*
X182550000Y-148793750D01*
X182550000Y-149706250D01*
X182548826Y-149730142D01*
X182545316Y-149753803D01*
X182539504Y-149777007D01*
X182531446Y-149799529D01*
X182521218Y-149821153D01*
X182508921Y-149841670D01*
X182494671Y-149860883D01*
X182478607Y-149878607D01*
X182460883Y-149894671D01*
X182441670Y-149908921D01*
X182421153Y-149921218D01*
X182399529Y-149931446D01*
X182377007Y-149939504D01*
X182353803Y-149945316D01*
X182330142Y-149948826D01*
X182306250Y-149950000D01*
X181818750Y-149950000D01*
X181794858Y-149948826D01*
X181771197Y-149945316D01*
X181747993Y-149939504D01*
X181725471Y-149931446D01*
X181703847Y-149921218D01*
X181683330Y-149908921D01*
X181664117Y-149894671D01*
X181646393Y-149878607D01*
X181630329Y-149860883D01*
X181616079Y-149841670D01*
X181603782Y-149821153D01*
X181593554Y-149799529D01*
X181585496Y-149777007D01*
X181579684Y-149753803D01*
X181576174Y-149730142D01*
X181575000Y-149706250D01*
X181575000Y-148793750D01*
X181576174Y-148769858D01*
X181579684Y-148746197D01*
X181585496Y-148722993D01*
X181593554Y-148700471D01*
X181603782Y-148678847D01*
X181616079Y-148658330D01*
X181630329Y-148639117D01*
X181646393Y-148621393D01*
X181664117Y-148605329D01*
X181683330Y-148591079D01*
X181703847Y-148578782D01*
X181725471Y-148568554D01*
X181747993Y-148560496D01*
X181771197Y-148554684D01*
X181794858Y-148551174D01*
X181818750Y-148550000D01*
X182306250Y-148550000D01*
X182330142Y-148551174D01*
G37*
G36*
X154517642Y-148551174D02*
G01*
X154541303Y-148554684D01*
X154564507Y-148560496D01*
X154587029Y-148568554D01*
X154608653Y-148578782D01*
X154629170Y-148591079D01*
X154648383Y-148605329D01*
X154666107Y-148621393D01*
X154682171Y-148639117D01*
X154696421Y-148658330D01*
X154708718Y-148678847D01*
X154718946Y-148700471D01*
X154727004Y-148722993D01*
X154732816Y-148746197D01*
X154736326Y-148769858D01*
X154737500Y-148793750D01*
X154737500Y-149706250D01*
X154736326Y-149730142D01*
X154732816Y-149753803D01*
X154727004Y-149777007D01*
X154718946Y-149799529D01*
X154708718Y-149821153D01*
X154696421Y-149841670D01*
X154682171Y-149860883D01*
X154666107Y-149878607D01*
X154648383Y-149894671D01*
X154629170Y-149908921D01*
X154608653Y-149921218D01*
X154587029Y-149931446D01*
X154564507Y-149939504D01*
X154541303Y-149945316D01*
X154517642Y-149948826D01*
X154493750Y-149950000D01*
X154006250Y-149950000D01*
X153982358Y-149948826D01*
X153958697Y-149945316D01*
X153935493Y-149939504D01*
X153912971Y-149931446D01*
X153891347Y-149921218D01*
X153870830Y-149908921D01*
X153851617Y-149894671D01*
X153833893Y-149878607D01*
X153817829Y-149860883D01*
X153803579Y-149841670D01*
X153791282Y-149821153D01*
X153781054Y-149799529D01*
X153772996Y-149777007D01*
X153767184Y-149753803D01*
X153763674Y-149730142D01*
X153762500Y-149706250D01*
X153762500Y-148793750D01*
X153763674Y-148769858D01*
X153767184Y-148746197D01*
X153772996Y-148722993D01*
X153781054Y-148700471D01*
X153791282Y-148678847D01*
X153803579Y-148658330D01*
X153817829Y-148639117D01*
X153833893Y-148621393D01*
X153851617Y-148605329D01*
X153870830Y-148591079D01*
X153891347Y-148578782D01*
X153912971Y-148568554D01*
X153935493Y-148560496D01*
X153958697Y-148554684D01*
X153982358Y-148551174D01*
X154006250Y-148550000D01*
X154493750Y-148550000D01*
X154517642Y-148551174D01*
G37*
G36*
X152642642Y-148551174D02*
G01*
X152666303Y-148554684D01*
X152689507Y-148560496D01*
X152712029Y-148568554D01*
X152733653Y-148578782D01*
X152754170Y-148591079D01*
X152773383Y-148605329D01*
X152791107Y-148621393D01*
X152807171Y-148639117D01*
X152821421Y-148658330D01*
X152833718Y-148678847D01*
X152843946Y-148700471D01*
X152852004Y-148722993D01*
X152857816Y-148746197D01*
X152861326Y-148769858D01*
X152862500Y-148793750D01*
X152862500Y-149706250D01*
X152861326Y-149730142D01*
X152857816Y-149753803D01*
X152852004Y-149777007D01*
X152843946Y-149799529D01*
X152833718Y-149821153D01*
X152821421Y-149841670D01*
X152807171Y-149860883D01*
X152791107Y-149878607D01*
X152773383Y-149894671D01*
X152754170Y-149908921D01*
X152733653Y-149921218D01*
X152712029Y-149931446D01*
X152689507Y-149939504D01*
X152666303Y-149945316D01*
X152642642Y-149948826D01*
X152618750Y-149950000D01*
X152131250Y-149950000D01*
X152107358Y-149948826D01*
X152083697Y-149945316D01*
X152060493Y-149939504D01*
X152037971Y-149931446D01*
X152016347Y-149921218D01*
X151995830Y-149908921D01*
X151976617Y-149894671D01*
X151958893Y-149878607D01*
X151942829Y-149860883D01*
X151928579Y-149841670D01*
X151916282Y-149821153D01*
X151906054Y-149799529D01*
X151897996Y-149777007D01*
X151892184Y-149753803D01*
X151888674Y-149730142D01*
X151887500Y-149706250D01*
X151887500Y-148793750D01*
X151888674Y-148769858D01*
X151892184Y-148746197D01*
X151897996Y-148722993D01*
X151906054Y-148700471D01*
X151916282Y-148678847D01*
X151928579Y-148658330D01*
X151942829Y-148639117D01*
X151958893Y-148621393D01*
X151976617Y-148605329D01*
X151995830Y-148591079D01*
X152016347Y-148578782D01*
X152037971Y-148568554D01*
X152060493Y-148560496D01*
X152083697Y-148554684D01*
X152107358Y-148551174D01*
X152131250Y-148550000D01*
X152618750Y-148550000D01*
X152642642Y-148551174D01*
G37*
G36*
X163205142Y-148551174D02*
G01*
X163228803Y-148554684D01*
X163252007Y-148560496D01*
X163274529Y-148568554D01*
X163296153Y-148578782D01*
X163316670Y-148591079D01*
X163335883Y-148605329D01*
X163353607Y-148621393D01*
X163369671Y-148639117D01*
X163383921Y-148658330D01*
X163396218Y-148678847D01*
X163406446Y-148700471D01*
X163414504Y-148722993D01*
X163420316Y-148746197D01*
X163423826Y-148769858D01*
X163425000Y-148793750D01*
X163425000Y-149706250D01*
X163423826Y-149730142D01*
X163420316Y-149753803D01*
X163414504Y-149777007D01*
X163406446Y-149799529D01*
X163396218Y-149821153D01*
X163383921Y-149841670D01*
X163369671Y-149860883D01*
X163353607Y-149878607D01*
X163335883Y-149894671D01*
X163316670Y-149908921D01*
X163296153Y-149921218D01*
X163274529Y-149931446D01*
X163252007Y-149939504D01*
X163228803Y-149945316D01*
X163205142Y-149948826D01*
X163181250Y-149950000D01*
X162693750Y-149950000D01*
X162669858Y-149948826D01*
X162646197Y-149945316D01*
X162622993Y-149939504D01*
X162600471Y-149931446D01*
X162578847Y-149921218D01*
X162558330Y-149908921D01*
X162539117Y-149894671D01*
X162521393Y-149878607D01*
X162505329Y-149860883D01*
X162491079Y-149841670D01*
X162478782Y-149821153D01*
X162468554Y-149799529D01*
X162460496Y-149777007D01*
X162454684Y-149753803D01*
X162451174Y-149730142D01*
X162450000Y-149706250D01*
X162450000Y-148793750D01*
X162451174Y-148769858D01*
X162454684Y-148746197D01*
X162460496Y-148722993D01*
X162468554Y-148700471D01*
X162478782Y-148678847D01*
X162491079Y-148658330D01*
X162505329Y-148639117D01*
X162521393Y-148621393D01*
X162539117Y-148605329D01*
X162558330Y-148591079D01*
X162578847Y-148578782D01*
X162600471Y-148568554D01*
X162622993Y-148560496D01*
X162646197Y-148554684D01*
X162669858Y-148551174D01*
X162693750Y-148550000D01*
X163181250Y-148550000D01*
X163205142Y-148551174D01*
G37*
G36*
X161330142Y-148551174D02*
G01*
X161353803Y-148554684D01*
X161377007Y-148560496D01*
X161399529Y-148568554D01*
X161421153Y-148578782D01*
X161441670Y-148591079D01*
X161460883Y-148605329D01*
X161478607Y-148621393D01*
X161494671Y-148639117D01*
X161508921Y-148658330D01*
X161521218Y-148678847D01*
X161531446Y-148700471D01*
X161539504Y-148722993D01*
X161545316Y-148746197D01*
X161548826Y-148769858D01*
X161550000Y-148793750D01*
X161550000Y-149706250D01*
X161548826Y-149730142D01*
X161545316Y-149753803D01*
X161539504Y-149777007D01*
X161531446Y-149799529D01*
X161521218Y-149821153D01*
X161508921Y-149841670D01*
X161494671Y-149860883D01*
X161478607Y-149878607D01*
X161460883Y-149894671D01*
X161441670Y-149908921D01*
X161421153Y-149921218D01*
X161399529Y-149931446D01*
X161377007Y-149939504D01*
X161353803Y-149945316D01*
X161330142Y-149948826D01*
X161306250Y-149950000D01*
X160818750Y-149950000D01*
X160794858Y-149948826D01*
X160771197Y-149945316D01*
X160747993Y-149939504D01*
X160725471Y-149931446D01*
X160703847Y-149921218D01*
X160683330Y-149908921D01*
X160664117Y-149894671D01*
X160646393Y-149878607D01*
X160630329Y-149860883D01*
X160616079Y-149841670D01*
X160603782Y-149821153D01*
X160593554Y-149799529D01*
X160585496Y-149777007D01*
X160579684Y-149753803D01*
X160576174Y-149730142D01*
X160575000Y-149706250D01*
X160575000Y-148793750D01*
X160576174Y-148769858D01*
X160579684Y-148746197D01*
X160585496Y-148722993D01*
X160593554Y-148700471D01*
X160603782Y-148678847D01*
X160616079Y-148658330D01*
X160630329Y-148639117D01*
X160646393Y-148621393D01*
X160664117Y-148605329D01*
X160683330Y-148591079D01*
X160703847Y-148578782D01*
X160725471Y-148568554D01*
X160747993Y-148560496D01*
X160771197Y-148554684D01*
X160794858Y-148551174D01*
X160818750Y-148550000D01*
X161306250Y-148550000D01*
X161330142Y-148551174D01*
G37*
G36*
X130730142Y-138826174D02*
G01*
X130753803Y-138829684D01*
X130777007Y-138835496D01*
X130799529Y-138843554D01*
X130821153Y-138853782D01*
X130841670Y-138866079D01*
X130860883Y-138880329D01*
X130878607Y-138896393D01*
X130894671Y-138914117D01*
X130908921Y-138933330D01*
X130921218Y-138953847D01*
X130931446Y-138975471D01*
X130939504Y-138997993D01*
X130945316Y-139021197D01*
X130948826Y-139044858D01*
X130950000Y-139068750D01*
X130950000Y-139556250D01*
X130948826Y-139580142D01*
X130945316Y-139603803D01*
X130939504Y-139627007D01*
X130931446Y-139649529D01*
X130921218Y-139671153D01*
X130908921Y-139691670D01*
X130894671Y-139710883D01*
X130878607Y-139728607D01*
X130860883Y-139744671D01*
X130841670Y-139758921D01*
X130821153Y-139771218D01*
X130799529Y-139781446D01*
X130777007Y-139789504D01*
X130753803Y-139795316D01*
X130730142Y-139798826D01*
X130706250Y-139800000D01*
X129793750Y-139800000D01*
X129769858Y-139798826D01*
X129746197Y-139795316D01*
X129722993Y-139789504D01*
X129700471Y-139781446D01*
X129678847Y-139771218D01*
X129658330Y-139758921D01*
X129639117Y-139744671D01*
X129621393Y-139728607D01*
X129605329Y-139710883D01*
X129591079Y-139691670D01*
X129578782Y-139671153D01*
X129568554Y-139649529D01*
X129560496Y-139627007D01*
X129554684Y-139603803D01*
X129551174Y-139580142D01*
X129550000Y-139556250D01*
X129550000Y-139068750D01*
X129551174Y-139044858D01*
X129554684Y-139021197D01*
X129560496Y-138997993D01*
X129568554Y-138975471D01*
X129578782Y-138953847D01*
X129591079Y-138933330D01*
X129605329Y-138914117D01*
X129621393Y-138896393D01*
X129639117Y-138880329D01*
X129658330Y-138866079D01*
X129678847Y-138853782D01*
X129700471Y-138843554D01*
X129722993Y-138835496D01*
X129746197Y-138829684D01*
X129769858Y-138826174D01*
X129793750Y-138825000D01*
X130706250Y-138825000D01*
X130730142Y-138826174D01*
G37*
G36*
X130730142Y-140701174D02*
G01*
X130753803Y-140704684D01*
X130777007Y-140710496D01*
X130799529Y-140718554D01*
X130821153Y-140728782D01*
X130841670Y-140741079D01*
X130860883Y-140755329D01*
X130878607Y-140771393D01*
X130894671Y-140789117D01*
X130908921Y-140808330D01*
X130921218Y-140828847D01*
X130931446Y-140850471D01*
X130939504Y-140872993D01*
X130945316Y-140896197D01*
X130948826Y-140919858D01*
X130950000Y-140943750D01*
X130950000Y-141431250D01*
X130948826Y-141455142D01*
X130945316Y-141478803D01*
X130939504Y-141502007D01*
X130931446Y-141524529D01*
X130921218Y-141546153D01*
X130908921Y-141566670D01*
X130894671Y-141585883D01*
X130878607Y-141603607D01*
X130860883Y-141619671D01*
X130841670Y-141633921D01*
X130821153Y-141646218D01*
X130799529Y-141656446D01*
X130777007Y-141664504D01*
X130753803Y-141670316D01*
X130730142Y-141673826D01*
X130706250Y-141675000D01*
X129793750Y-141675000D01*
X129769858Y-141673826D01*
X129746197Y-141670316D01*
X129722993Y-141664504D01*
X129700471Y-141656446D01*
X129678847Y-141646218D01*
X129658330Y-141633921D01*
X129639117Y-141619671D01*
X129621393Y-141603607D01*
X129605329Y-141585883D01*
X129591079Y-141566670D01*
X129578782Y-141546153D01*
X129568554Y-141524529D01*
X129560496Y-141502007D01*
X129554684Y-141478803D01*
X129551174Y-141455142D01*
X129550000Y-141431250D01*
X129550000Y-140943750D01*
X129551174Y-140919858D01*
X129554684Y-140896197D01*
X129560496Y-140872993D01*
X129568554Y-140850471D01*
X129578782Y-140828847D01*
X129591079Y-140808330D01*
X129605329Y-140789117D01*
X129621393Y-140771393D01*
X129639117Y-140755329D01*
X129658330Y-140741079D01*
X129678847Y-140728782D01*
X129700471Y-140718554D01*
X129722993Y-140710496D01*
X129746197Y-140704684D01*
X129769858Y-140701174D01*
X129793750Y-140700000D01*
X130706250Y-140700000D01*
X130730142Y-140701174D01*
G37*
M02*
