G04 #@! TF.GenerationSoftware,KiCad,Pcbnew,5.1.5*
G04 #@! TF.CreationDate,2020-04-11T15:37:30+02:00*
G04 #@! TF.ProjectId,h_bridge,685f6272-6964-4676-952e-6b696361645f,rev?*
G04 #@! TF.SameCoordinates,Original*
G04 #@! TF.FileFunction,Paste,Bot*
G04 #@! TF.FilePolarity,Positive*
%FSLAX46Y46*%
G04 Gerber Fmt 4.6, Leading zero omitted, Abs format (unit mm)*
G04 Created by KiCad (PCBNEW 5.1.5) date 2020-04-11 15:37:30*
%MOMM*%
%LPD*%
G04 APERTURE LIST*
%ADD10C,0.100000*%
G04 APERTURE END LIST*
D10*
G36*
X120480142Y-113951174D02*
G01*
X120503803Y-113954684D01*
X120527007Y-113960496D01*
X120549529Y-113968554D01*
X120571153Y-113978782D01*
X120591670Y-113991079D01*
X120610883Y-114005329D01*
X120628607Y-114021393D01*
X120644671Y-114039117D01*
X120658921Y-114058330D01*
X120671218Y-114078847D01*
X120681446Y-114100471D01*
X120689504Y-114122993D01*
X120695316Y-114146197D01*
X120698826Y-114169858D01*
X120700000Y-114193750D01*
X120700000Y-114681250D01*
X120698826Y-114705142D01*
X120695316Y-114728803D01*
X120689504Y-114752007D01*
X120681446Y-114774529D01*
X120671218Y-114796153D01*
X120658921Y-114816670D01*
X120644671Y-114835883D01*
X120628607Y-114853607D01*
X120610883Y-114869671D01*
X120591670Y-114883921D01*
X120571153Y-114896218D01*
X120549529Y-114906446D01*
X120527007Y-114914504D01*
X120503803Y-114920316D01*
X120480142Y-114923826D01*
X120456250Y-114925000D01*
X119543750Y-114925000D01*
X119519858Y-114923826D01*
X119496197Y-114920316D01*
X119472993Y-114914504D01*
X119450471Y-114906446D01*
X119428847Y-114896218D01*
X119408330Y-114883921D01*
X119389117Y-114869671D01*
X119371393Y-114853607D01*
X119355329Y-114835883D01*
X119341079Y-114816670D01*
X119328782Y-114796153D01*
X119318554Y-114774529D01*
X119310496Y-114752007D01*
X119304684Y-114728803D01*
X119301174Y-114705142D01*
X119300000Y-114681250D01*
X119300000Y-114193750D01*
X119301174Y-114169858D01*
X119304684Y-114146197D01*
X119310496Y-114122993D01*
X119318554Y-114100471D01*
X119328782Y-114078847D01*
X119341079Y-114058330D01*
X119355329Y-114039117D01*
X119371393Y-114021393D01*
X119389117Y-114005329D01*
X119408330Y-113991079D01*
X119428847Y-113978782D01*
X119450471Y-113968554D01*
X119472993Y-113960496D01*
X119496197Y-113954684D01*
X119519858Y-113951174D01*
X119543750Y-113950000D01*
X120456250Y-113950000D01*
X120480142Y-113951174D01*
G37*
G36*
X120480142Y-112076174D02*
G01*
X120503803Y-112079684D01*
X120527007Y-112085496D01*
X120549529Y-112093554D01*
X120571153Y-112103782D01*
X120591670Y-112116079D01*
X120610883Y-112130329D01*
X120628607Y-112146393D01*
X120644671Y-112164117D01*
X120658921Y-112183330D01*
X120671218Y-112203847D01*
X120681446Y-112225471D01*
X120689504Y-112247993D01*
X120695316Y-112271197D01*
X120698826Y-112294858D01*
X120700000Y-112318750D01*
X120700000Y-112806250D01*
X120698826Y-112830142D01*
X120695316Y-112853803D01*
X120689504Y-112877007D01*
X120681446Y-112899529D01*
X120671218Y-112921153D01*
X120658921Y-112941670D01*
X120644671Y-112960883D01*
X120628607Y-112978607D01*
X120610883Y-112994671D01*
X120591670Y-113008921D01*
X120571153Y-113021218D01*
X120549529Y-113031446D01*
X120527007Y-113039504D01*
X120503803Y-113045316D01*
X120480142Y-113048826D01*
X120456250Y-113050000D01*
X119543750Y-113050000D01*
X119519858Y-113048826D01*
X119496197Y-113045316D01*
X119472993Y-113039504D01*
X119450471Y-113031446D01*
X119428847Y-113021218D01*
X119408330Y-113008921D01*
X119389117Y-112994671D01*
X119371393Y-112978607D01*
X119355329Y-112960883D01*
X119341079Y-112941670D01*
X119328782Y-112921153D01*
X119318554Y-112899529D01*
X119310496Y-112877007D01*
X119304684Y-112853803D01*
X119301174Y-112830142D01*
X119300000Y-112806250D01*
X119300000Y-112318750D01*
X119301174Y-112294858D01*
X119304684Y-112271197D01*
X119310496Y-112247993D01*
X119318554Y-112225471D01*
X119328782Y-112203847D01*
X119341079Y-112183330D01*
X119355329Y-112164117D01*
X119371393Y-112146393D01*
X119389117Y-112130329D01*
X119408330Y-112116079D01*
X119428847Y-112103782D01*
X119450471Y-112093554D01*
X119472993Y-112085496D01*
X119496197Y-112079684D01*
X119519858Y-112076174D01*
X119543750Y-112075000D01*
X120456250Y-112075000D01*
X120480142Y-112076174D01*
G37*
G36*
X126730142Y-110576174D02*
G01*
X126753803Y-110579684D01*
X126777007Y-110585496D01*
X126799529Y-110593554D01*
X126821153Y-110603782D01*
X126841670Y-110616079D01*
X126860883Y-110630329D01*
X126878607Y-110646393D01*
X126894671Y-110664117D01*
X126908921Y-110683330D01*
X126921218Y-110703847D01*
X126931446Y-110725471D01*
X126939504Y-110747993D01*
X126945316Y-110771197D01*
X126948826Y-110794858D01*
X126950000Y-110818750D01*
X126950000Y-111306250D01*
X126948826Y-111330142D01*
X126945316Y-111353803D01*
X126939504Y-111377007D01*
X126931446Y-111399529D01*
X126921218Y-111421153D01*
X126908921Y-111441670D01*
X126894671Y-111460883D01*
X126878607Y-111478607D01*
X126860883Y-111494671D01*
X126841670Y-111508921D01*
X126821153Y-111521218D01*
X126799529Y-111531446D01*
X126777007Y-111539504D01*
X126753803Y-111545316D01*
X126730142Y-111548826D01*
X126706250Y-111550000D01*
X125793750Y-111550000D01*
X125769858Y-111548826D01*
X125746197Y-111545316D01*
X125722993Y-111539504D01*
X125700471Y-111531446D01*
X125678847Y-111521218D01*
X125658330Y-111508921D01*
X125639117Y-111494671D01*
X125621393Y-111478607D01*
X125605329Y-111460883D01*
X125591079Y-111441670D01*
X125578782Y-111421153D01*
X125568554Y-111399529D01*
X125560496Y-111377007D01*
X125554684Y-111353803D01*
X125551174Y-111330142D01*
X125550000Y-111306250D01*
X125550000Y-110818750D01*
X125551174Y-110794858D01*
X125554684Y-110771197D01*
X125560496Y-110747993D01*
X125568554Y-110725471D01*
X125578782Y-110703847D01*
X125591079Y-110683330D01*
X125605329Y-110664117D01*
X125621393Y-110646393D01*
X125639117Y-110630329D01*
X125658330Y-110616079D01*
X125678847Y-110603782D01*
X125700471Y-110593554D01*
X125722993Y-110585496D01*
X125746197Y-110579684D01*
X125769858Y-110576174D01*
X125793750Y-110575000D01*
X126706250Y-110575000D01*
X126730142Y-110576174D01*
G37*
G36*
X126730142Y-112451174D02*
G01*
X126753803Y-112454684D01*
X126777007Y-112460496D01*
X126799529Y-112468554D01*
X126821153Y-112478782D01*
X126841670Y-112491079D01*
X126860883Y-112505329D01*
X126878607Y-112521393D01*
X126894671Y-112539117D01*
X126908921Y-112558330D01*
X126921218Y-112578847D01*
X126931446Y-112600471D01*
X126939504Y-112622993D01*
X126945316Y-112646197D01*
X126948826Y-112669858D01*
X126950000Y-112693750D01*
X126950000Y-113181250D01*
X126948826Y-113205142D01*
X126945316Y-113228803D01*
X126939504Y-113252007D01*
X126931446Y-113274529D01*
X126921218Y-113296153D01*
X126908921Y-113316670D01*
X126894671Y-113335883D01*
X126878607Y-113353607D01*
X126860883Y-113369671D01*
X126841670Y-113383921D01*
X126821153Y-113396218D01*
X126799529Y-113406446D01*
X126777007Y-113414504D01*
X126753803Y-113420316D01*
X126730142Y-113423826D01*
X126706250Y-113425000D01*
X125793750Y-113425000D01*
X125769858Y-113423826D01*
X125746197Y-113420316D01*
X125722993Y-113414504D01*
X125700471Y-113406446D01*
X125678847Y-113396218D01*
X125658330Y-113383921D01*
X125639117Y-113369671D01*
X125621393Y-113353607D01*
X125605329Y-113335883D01*
X125591079Y-113316670D01*
X125578782Y-113296153D01*
X125568554Y-113274529D01*
X125560496Y-113252007D01*
X125554684Y-113228803D01*
X125551174Y-113205142D01*
X125550000Y-113181250D01*
X125550000Y-112693750D01*
X125551174Y-112669858D01*
X125554684Y-112646197D01*
X125560496Y-112622993D01*
X125568554Y-112600471D01*
X125578782Y-112578847D01*
X125591079Y-112558330D01*
X125605329Y-112539117D01*
X125621393Y-112521393D01*
X125639117Y-112505329D01*
X125658330Y-112491079D01*
X125678847Y-112478782D01*
X125700471Y-112468554D01*
X125722993Y-112460496D01*
X125746197Y-112454684D01*
X125769858Y-112451174D01*
X125793750Y-112450000D01*
X126706250Y-112450000D01*
X126730142Y-112451174D01*
G37*
G36*
X124230142Y-137451174D02*
G01*
X124253803Y-137454684D01*
X124277007Y-137460496D01*
X124299529Y-137468554D01*
X124321153Y-137478782D01*
X124341670Y-137491079D01*
X124360883Y-137505329D01*
X124378607Y-137521393D01*
X124394671Y-137539117D01*
X124408921Y-137558330D01*
X124421218Y-137578847D01*
X124431446Y-137600471D01*
X124439504Y-137622993D01*
X124445316Y-137646197D01*
X124448826Y-137669858D01*
X124450000Y-137693750D01*
X124450000Y-138181250D01*
X124448826Y-138205142D01*
X124445316Y-138228803D01*
X124439504Y-138252007D01*
X124431446Y-138274529D01*
X124421218Y-138296153D01*
X124408921Y-138316670D01*
X124394671Y-138335883D01*
X124378607Y-138353607D01*
X124360883Y-138369671D01*
X124341670Y-138383921D01*
X124321153Y-138396218D01*
X124299529Y-138406446D01*
X124277007Y-138414504D01*
X124253803Y-138420316D01*
X124230142Y-138423826D01*
X124206250Y-138425000D01*
X123293750Y-138425000D01*
X123269858Y-138423826D01*
X123246197Y-138420316D01*
X123222993Y-138414504D01*
X123200471Y-138406446D01*
X123178847Y-138396218D01*
X123158330Y-138383921D01*
X123139117Y-138369671D01*
X123121393Y-138353607D01*
X123105329Y-138335883D01*
X123091079Y-138316670D01*
X123078782Y-138296153D01*
X123068554Y-138274529D01*
X123060496Y-138252007D01*
X123054684Y-138228803D01*
X123051174Y-138205142D01*
X123050000Y-138181250D01*
X123050000Y-137693750D01*
X123051174Y-137669858D01*
X123054684Y-137646197D01*
X123060496Y-137622993D01*
X123068554Y-137600471D01*
X123078782Y-137578847D01*
X123091079Y-137558330D01*
X123105329Y-137539117D01*
X123121393Y-137521393D01*
X123139117Y-137505329D01*
X123158330Y-137491079D01*
X123178847Y-137478782D01*
X123200471Y-137468554D01*
X123222993Y-137460496D01*
X123246197Y-137454684D01*
X123269858Y-137451174D01*
X123293750Y-137450000D01*
X124206250Y-137450000D01*
X124230142Y-137451174D01*
G37*
G36*
X124230142Y-135576174D02*
G01*
X124253803Y-135579684D01*
X124277007Y-135585496D01*
X124299529Y-135593554D01*
X124321153Y-135603782D01*
X124341670Y-135616079D01*
X124360883Y-135630329D01*
X124378607Y-135646393D01*
X124394671Y-135664117D01*
X124408921Y-135683330D01*
X124421218Y-135703847D01*
X124431446Y-135725471D01*
X124439504Y-135747993D01*
X124445316Y-135771197D01*
X124448826Y-135794858D01*
X124450000Y-135818750D01*
X124450000Y-136306250D01*
X124448826Y-136330142D01*
X124445316Y-136353803D01*
X124439504Y-136377007D01*
X124431446Y-136399529D01*
X124421218Y-136421153D01*
X124408921Y-136441670D01*
X124394671Y-136460883D01*
X124378607Y-136478607D01*
X124360883Y-136494671D01*
X124341670Y-136508921D01*
X124321153Y-136521218D01*
X124299529Y-136531446D01*
X124277007Y-136539504D01*
X124253803Y-136545316D01*
X124230142Y-136548826D01*
X124206250Y-136550000D01*
X123293750Y-136550000D01*
X123269858Y-136548826D01*
X123246197Y-136545316D01*
X123222993Y-136539504D01*
X123200471Y-136531446D01*
X123178847Y-136521218D01*
X123158330Y-136508921D01*
X123139117Y-136494671D01*
X123121393Y-136478607D01*
X123105329Y-136460883D01*
X123091079Y-136441670D01*
X123078782Y-136421153D01*
X123068554Y-136399529D01*
X123060496Y-136377007D01*
X123054684Y-136353803D01*
X123051174Y-136330142D01*
X123050000Y-136306250D01*
X123050000Y-135818750D01*
X123051174Y-135794858D01*
X123054684Y-135771197D01*
X123060496Y-135747993D01*
X123068554Y-135725471D01*
X123078782Y-135703847D01*
X123091079Y-135683330D01*
X123105329Y-135664117D01*
X123121393Y-135646393D01*
X123139117Y-135630329D01*
X123158330Y-135616079D01*
X123178847Y-135603782D01*
X123200471Y-135593554D01*
X123222993Y-135585496D01*
X123246197Y-135579684D01*
X123269858Y-135576174D01*
X123293750Y-135575000D01*
X124206250Y-135575000D01*
X124230142Y-135576174D01*
G37*
G36*
X137730142Y-121701174D02*
G01*
X137753803Y-121704684D01*
X137777007Y-121710496D01*
X137799529Y-121718554D01*
X137821153Y-121728782D01*
X137841670Y-121741079D01*
X137860883Y-121755329D01*
X137878607Y-121771393D01*
X137894671Y-121789117D01*
X137908921Y-121808330D01*
X137921218Y-121828847D01*
X137931446Y-121850471D01*
X137939504Y-121872993D01*
X137945316Y-121896197D01*
X137948826Y-121919858D01*
X137950000Y-121943750D01*
X137950000Y-122431250D01*
X137948826Y-122455142D01*
X137945316Y-122478803D01*
X137939504Y-122502007D01*
X137931446Y-122524529D01*
X137921218Y-122546153D01*
X137908921Y-122566670D01*
X137894671Y-122585883D01*
X137878607Y-122603607D01*
X137860883Y-122619671D01*
X137841670Y-122633921D01*
X137821153Y-122646218D01*
X137799529Y-122656446D01*
X137777007Y-122664504D01*
X137753803Y-122670316D01*
X137730142Y-122673826D01*
X137706250Y-122675000D01*
X136793750Y-122675000D01*
X136769858Y-122673826D01*
X136746197Y-122670316D01*
X136722993Y-122664504D01*
X136700471Y-122656446D01*
X136678847Y-122646218D01*
X136658330Y-122633921D01*
X136639117Y-122619671D01*
X136621393Y-122603607D01*
X136605329Y-122585883D01*
X136591079Y-122566670D01*
X136578782Y-122546153D01*
X136568554Y-122524529D01*
X136560496Y-122502007D01*
X136554684Y-122478803D01*
X136551174Y-122455142D01*
X136550000Y-122431250D01*
X136550000Y-121943750D01*
X136551174Y-121919858D01*
X136554684Y-121896197D01*
X136560496Y-121872993D01*
X136568554Y-121850471D01*
X136578782Y-121828847D01*
X136591079Y-121808330D01*
X136605329Y-121789117D01*
X136621393Y-121771393D01*
X136639117Y-121755329D01*
X136658330Y-121741079D01*
X136678847Y-121728782D01*
X136700471Y-121718554D01*
X136722993Y-121710496D01*
X136746197Y-121704684D01*
X136769858Y-121701174D01*
X136793750Y-121700000D01*
X137706250Y-121700000D01*
X137730142Y-121701174D01*
G37*
G36*
X137730142Y-119826174D02*
G01*
X137753803Y-119829684D01*
X137777007Y-119835496D01*
X137799529Y-119843554D01*
X137821153Y-119853782D01*
X137841670Y-119866079D01*
X137860883Y-119880329D01*
X137878607Y-119896393D01*
X137894671Y-119914117D01*
X137908921Y-119933330D01*
X137921218Y-119953847D01*
X137931446Y-119975471D01*
X137939504Y-119997993D01*
X137945316Y-120021197D01*
X137948826Y-120044858D01*
X137950000Y-120068750D01*
X137950000Y-120556250D01*
X137948826Y-120580142D01*
X137945316Y-120603803D01*
X137939504Y-120627007D01*
X137931446Y-120649529D01*
X137921218Y-120671153D01*
X137908921Y-120691670D01*
X137894671Y-120710883D01*
X137878607Y-120728607D01*
X137860883Y-120744671D01*
X137841670Y-120758921D01*
X137821153Y-120771218D01*
X137799529Y-120781446D01*
X137777007Y-120789504D01*
X137753803Y-120795316D01*
X137730142Y-120798826D01*
X137706250Y-120800000D01*
X136793750Y-120800000D01*
X136769858Y-120798826D01*
X136746197Y-120795316D01*
X136722993Y-120789504D01*
X136700471Y-120781446D01*
X136678847Y-120771218D01*
X136658330Y-120758921D01*
X136639117Y-120744671D01*
X136621393Y-120728607D01*
X136605329Y-120710883D01*
X136591079Y-120691670D01*
X136578782Y-120671153D01*
X136568554Y-120649529D01*
X136560496Y-120627007D01*
X136554684Y-120603803D01*
X136551174Y-120580142D01*
X136550000Y-120556250D01*
X136550000Y-120068750D01*
X136551174Y-120044858D01*
X136554684Y-120021197D01*
X136560496Y-119997993D01*
X136568554Y-119975471D01*
X136578782Y-119953847D01*
X136591079Y-119933330D01*
X136605329Y-119914117D01*
X136621393Y-119896393D01*
X136639117Y-119880329D01*
X136658330Y-119866079D01*
X136678847Y-119853782D01*
X136700471Y-119843554D01*
X136722993Y-119835496D01*
X136746197Y-119829684D01*
X136769858Y-119826174D01*
X136793750Y-119825000D01*
X137706250Y-119825000D01*
X137730142Y-119826174D01*
G37*
G36*
X137730142Y-144451174D02*
G01*
X137753803Y-144454684D01*
X137777007Y-144460496D01*
X137799529Y-144468554D01*
X137821153Y-144478782D01*
X137841670Y-144491079D01*
X137860883Y-144505329D01*
X137878607Y-144521393D01*
X137894671Y-144539117D01*
X137908921Y-144558330D01*
X137921218Y-144578847D01*
X137931446Y-144600471D01*
X137939504Y-144622993D01*
X137945316Y-144646197D01*
X137948826Y-144669858D01*
X137950000Y-144693750D01*
X137950000Y-145181250D01*
X137948826Y-145205142D01*
X137945316Y-145228803D01*
X137939504Y-145252007D01*
X137931446Y-145274529D01*
X137921218Y-145296153D01*
X137908921Y-145316670D01*
X137894671Y-145335883D01*
X137878607Y-145353607D01*
X137860883Y-145369671D01*
X137841670Y-145383921D01*
X137821153Y-145396218D01*
X137799529Y-145406446D01*
X137777007Y-145414504D01*
X137753803Y-145420316D01*
X137730142Y-145423826D01*
X137706250Y-145425000D01*
X136793750Y-145425000D01*
X136769858Y-145423826D01*
X136746197Y-145420316D01*
X136722993Y-145414504D01*
X136700471Y-145406446D01*
X136678847Y-145396218D01*
X136658330Y-145383921D01*
X136639117Y-145369671D01*
X136621393Y-145353607D01*
X136605329Y-145335883D01*
X136591079Y-145316670D01*
X136578782Y-145296153D01*
X136568554Y-145274529D01*
X136560496Y-145252007D01*
X136554684Y-145228803D01*
X136551174Y-145205142D01*
X136550000Y-145181250D01*
X136550000Y-144693750D01*
X136551174Y-144669858D01*
X136554684Y-144646197D01*
X136560496Y-144622993D01*
X136568554Y-144600471D01*
X136578782Y-144578847D01*
X136591079Y-144558330D01*
X136605329Y-144539117D01*
X136621393Y-144521393D01*
X136639117Y-144505329D01*
X136658330Y-144491079D01*
X136678847Y-144478782D01*
X136700471Y-144468554D01*
X136722993Y-144460496D01*
X136746197Y-144454684D01*
X136769858Y-144451174D01*
X136793750Y-144450000D01*
X137706250Y-144450000D01*
X137730142Y-144451174D01*
G37*
G36*
X137730142Y-142576174D02*
G01*
X137753803Y-142579684D01*
X137777007Y-142585496D01*
X137799529Y-142593554D01*
X137821153Y-142603782D01*
X137841670Y-142616079D01*
X137860883Y-142630329D01*
X137878607Y-142646393D01*
X137894671Y-142664117D01*
X137908921Y-142683330D01*
X137921218Y-142703847D01*
X137931446Y-142725471D01*
X137939504Y-142747993D01*
X137945316Y-142771197D01*
X137948826Y-142794858D01*
X137950000Y-142818750D01*
X137950000Y-143306250D01*
X137948826Y-143330142D01*
X137945316Y-143353803D01*
X137939504Y-143377007D01*
X137931446Y-143399529D01*
X137921218Y-143421153D01*
X137908921Y-143441670D01*
X137894671Y-143460883D01*
X137878607Y-143478607D01*
X137860883Y-143494671D01*
X137841670Y-143508921D01*
X137821153Y-143521218D01*
X137799529Y-143531446D01*
X137777007Y-143539504D01*
X137753803Y-143545316D01*
X137730142Y-143548826D01*
X137706250Y-143550000D01*
X136793750Y-143550000D01*
X136769858Y-143548826D01*
X136746197Y-143545316D01*
X136722993Y-143539504D01*
X136700471Y-143531446D01*
X136678847Y-143521218D01*
X136658330Y-143508921D01*
X136639117Y-143494671D01*
X136621393Y-143478607D01*
X136605329Y-143460883D01*
X136591079Y-143441670D01*
X136578782Y-143421153D01*
X136568554Y-143399529D01*
X136560496Y-143377007D01*
X136554684Y-143353803D01*
X136551174Y-143330142D01*
X136550000Y-143306250D01*
X136550000Y-142818750D01*
X136551174Y-142794858D01*
X136554684Y-142771197D01*
X136560496Y-142747993D01*
X136568554Y-142725471D01*
X136578782Y-142703847D01*
X136591079Y-142683330D01*
X136605329Y-142664117D01*
X136621393Y-142646393D01*
X136639117Y-142630329D01*
X136658330Y-142616079D01*
X136678847Y-142603782D01*
X136700471Y-142593554D01*
X136722993Y-142585496D01*
X136746197Y-142579684D01*
X136769858Y-142576174D01*
X136793750Y-142575000D01*
X137706250Y-142575000D01*
X137730142Y-142576174D01*
G37*
G36*
X145980142Y-117451174D02*
G01*
X146003803Y-117454684D01*
X146027007Y-117460496D01*
X146049529Y-117468554D01*
X146071153Y-117478782D01*
X146091670Y-117491079D01*
X146110883Y-117505329D01*
X146128607Y-117521393D01*
X146144671Y-117539117D01*
X146158921Y-117558330D01*
X146171218Y-117578847D01*
X146181446Y-117600471D01*
X146189504Y-117622993D01*
X146195316Y-117646197D01*
X146198826Y-117669858D01*
X146200000Y-117693750D01*
X146200000Y-118181250D01*
X146198826Y-118205142D01*
X146195316Y-118228803D01*
X146189504Y-118252007D01*
X146181446Y-118274529D01*
X146171218Y-118296153D01*
X146158921Y-118316670D01*
X146144671Y-118335883D01*
X146128607Y-118353607D01*
X146110883Y-118369671D01*
X146091670Y-118383921D01*
X146071153Y-118396218D01*
X146049529Y-118406446D01*
X146027007Y-118414504D01*
X146003803Y-118420316D01*
X145980142Y-118423826D01*
X145956250Y-118425000D01*
X145043750Y-118425000D01*
X145019858Y-118423826D01*
X144996197Y-118420316D01*
X144972993Y-118414504D01*
X144950471Y-118406446D01*
X144928847Y-118396218D01*
X144908330Y-118383921D01*
X144889117Y-118369671D01*
X144871393Y-118353607D01*
X144855329Y-118335883D01*
X144841079Y-118316670D01*
X144828782Y-118296153D01*
X144818554Y-118274529D01*
X144810496Y-118252007D01*
X144804684Y-118228803D01*
X144801174Y-118205142D01*
X144800000Y-118181250D01*
X144800000Y-117693750D01*
X144801174Y-117669858D01*
X144804684Y-117646197D01*
X144810496Y-117622993D01*
X144818554Y-117600471D01*
X144828782Y-117578847D01*
X144841079Y-117558330D01*
X144855329Y-117539117D01*
X144871393Y-117521393D01*
X144889117Y-117505329D01*
X144908330Y-117491079D01*
X144928847Y-117478782D01*
X144950471Y-117468554D01*
X144972993Y-117460496D01*
X144996197Y-117454684D01*
X145019858Y-117451174D01*
X145043750Y-117450000D01*
X145956250Y-117450000D01*
X145980142Y-117451174D01*
G37*
G36*
X145980142Y-115576174D02*
G01*
X146003803Y-115579684D01*
X146027007Y-115585496D01*
X146049529Y-115593554D01*
X146071153Y-115603782D01*
X146091670Y-115616079D01*
X146110883Y-115630329D01*
X146128607Y-115646393D01*
X146144671Y-115664117D01*
X146158921Y-115683330D01*
X146171218Y-115703847D01*
X146181446Y-115725471D01*
X146189504Y-115747993D01*
X146195316Y-115771197D01*
X146198826Y-115794858D01*
X146200000Y-115818750D01*
X146200000Y-116306250D01*
X146198826Y-116330142D01*
X146195316Y-116353803D01*
X146189504Y-116377007D01*
X146181446Y-116399529D01*
X146171218Y-116421153D01*
X146158921Y-116441670D01*
X146144671Y-116460883D01*
X146128607Y-116478607D01*
X146110883Y-116494671D01*
X146091670Y-116508921D01*
X146071153Y-116521218D01*
X146049529Y-116531446D01*
X146027007Y-116539504D01*
X146003803Y-116545316D01*
X145980142Y-116548826D01*
X145956250Y-116550000D01*
X145043750Y-116550000D01*
X145019858Y-116548826D01*
X144996197Y-116545316D01*
X144972993Y-116539504D01*
X144950471Y-116531446D01*
X144928847Y-116521218D01*
X144908330Y-116508921D01*
X144889117Y-116494671D01*
X144871393Y-116478607D01*
X144855329Y-116460883D01*
X144841079Y-116441670D01*
X144828782Y-116421153D01*
X144818554Y-116399529D01*
X144810496Y-116377007D01*
X144804684Y-116353803D01*
X144801174Y-116330142D01*
X144800000Y-116306250D01*
X144800000Y-115818750D01*
X144801174Y-115794858D01*
X144804684Y-115771197D01*
X144810496Y-115747993D01*
X144818554Y-115725471D01*
X144828782Y-115703847D01*
X144841079Y-115683330D01*
X144855329Y-115664117D01*
X144871393Y-115646393D01*
X144889117Y-115630329D01*
X144908330Y-115616079D01*
X144928847Y-115603782D01*
X144950471Y-115593554D01*
X144972993Y-115585496D01*
X144996197Y-115579684D01*
X145019858Y-115576174D01*
X145043750Y-115575000D01*
X145956250Y-115575000D01*
X145980142Y-115576174D01*
G37*
G36*
X145980142Y-140201174D02*
G01*
X146003803Y-140204684D01*
X146027007Y-140210496D01*
X146049529Y-140218554D01*
X146071153Y-140228782D01*
X146091670Y-140241079D01*
X146110883Y-140255329D01*
X146128607Y-140271393D01*
X146144671Y-140289117D01*
X146158921Y-140308330D01*
X146171218Y-140328847D01*
X146181446Y-140350471D01*
X146189504Y-140372993D01*
X146195316Y-140396197D01*
X146198826Y-140419858D01*
X146200000Y-140443750D01*
X146200000Y-140931250D01*
X146198826Y-140955142D01*
X146195316Y-140978803D01*
X146189504Y-141002007D01*
X146181446Y-141024529D01*
X146171218Y-141046153D01*
X146158921Y-141066670D01*
X146144671Y-141085883D01*
X146128607Y-141103607D01*
X146110883Y-141119671D01*
X146091670Y-141133921D01*
X146071153Y-141146218D01*
X146049529Y-141156446D01*
X146027007Y-141164504D01*
X146003803Y-141170316D01*
X145980142Y-141173826D01*
X145956250Y-141175000D01*
X145043750Y-141175000D01*
X145019858Y-141173826D01*
X144996197Y-141170316D01*
X144972993Y-141164504D01*
X144950471Y-141156446D01*
X144928847Y-141146218D01*
X144908330Y-141133921D01*
X144889117Y-141119671D01*
X144871393Y-141103607D01*
X144855329Y-141085883D01*
X144841079Y-141066670D01*
X144828782Y-141046153D01*
X144818554Y-141024529D01*
X144810496Y-141002007D01*
X144804684Y-140978803D01*
X144801174Y-140955142D01*
X144800000Y-140931250D01*
X144800000Y-140443750D01*
X144801174Y-140419858D01*
X144804684Y-140396197D01*
X144810496Y-140372993D01*
X144818554Y-140350471D01*
X144828782Y-140328847D01*
X144841079Y-140308330D01*
X144855329Y-140289117D01*
X144871393Y-140271393D01*
X144889117Y-140255329D01*
X144908330Y-140241079D01*
X144928847Y-140228782D01*
X144950471Y-140218554D01*
X144972993Y-140210496D01*
X144996197Y-140204684D01*
X145019858Y-140201174D01*
X145043750Y-140200000D01*
X145956250Y-140200000D01*
X145980142Y-140201174D01*
G37*
G36*
X145980142Y-138326174D02*
G01*
X146003803Y-138329684D01*
X146027007Y-138335496D01*
X146049529Y-138343554D01*
X146071153Y-138353782D01*
X146091670Y-138366079D01*
X146110883Y-138380329D01*
X146128607Y-138396393D01*
X146144671Y-138414117D01*
X146158921Y-138433330D01*
X146171218Y-138453847D01*
X146181446Y-138475471D01*
X146189504Y-138497993D01*
X146195316Y-138521197D01*
X146198826Y-138544858D01*
X146200000Y-138568750D01*
X146200000Y-139056250D01*
X146198826Y-139080142D01*
X146195316Y-139103803D01*
X146189504Y-139127007D01*
X146181446Y-139149529D01*
X146171218Y-139171153D01*
X146158921Y-139191670D01*
X146144671Y-139210883D01*
X146128607Y-139228607D01*
X146110883Y-139244671D01*
X146091670Y-139258921D01*
X146071153Y-139271218D01*
X146049529Y-139281446D01*
X146027007Y-139289504D01*
X146003803Y-139295316D01*
X145980142Y-139298826D01*
X145956250Y-139300000D01*
X145043750Y-139300000D01*
X145019858Y-139298826D01*
X144996197Y-139295316D01*
X144972993Y-139289504D01*
X144950471Y-139281446D01*
X144928847Y-139271218D01*
X144908330Y-139258921D01*
X144889117Y-139244671D01*
X144871393Y-139228607D01*
X144855329Y-139210883D01*
X144841079Y-139191670D01*
X144828782Y-139171153D01*
X144818554Y-139149529D01*
X144810496Y-139127007D01*
X144804684Y-139103803D01*
X144801174Y-139080142D01*
X144800000Y-139056250D01*
X144800000Y-138568750D01*
X144801174Y-138544858D01*
X144804684Y-138521197D01*
X144810496Y-138497993D01*
X144818554Y-138475471D01*
X144828782Y-138453847D01*
X144841079Y-138433330D01*
X144855329Y-138414117D01*
X144871393Y-138396393D01*
X144889117Y-138380329D01*
X144908330Y-138366079D01*
X144928847Y-138353782D01*
X144950471Y-138343554D01*
X144972993Y-138335496D01*
X144996197Y-138329684D01*
X145019858Y-138326174D01*
X145043750Y-138325000D01*
X145956250Y-138325000D01*
X145980142Y-138326174D01*
G37*
M02*
