M48
; DRILL file {KiCad 5.1.5} date Sun 12 Apr 2020 01:11:56 PM CEST
; FORMAT={-:-/ absolute / inch / decimal}
; #@! TF.CreationDate,2020-04-12T13:11:56+02:00
; #@! TF.GenerationSoftware,Kicad,Pcbnew,5.1.5
; #@! TF.FileFunction,Plated,1,2,PTH
FMAT,2
INCH
T1C0.0157
T2C0.0315
T3C0.0394
T4C0.0433
T5C0.0630
T6C0.0984
%
G90
G05
T1
X4.0354Y-3.937
X4.0354Y-3.937
X4.0354Y-4.1339
X4.0354Y-4.7244
X4.0354Y-4.9213
X4.0354Y-5.1181
X4.0354Y-5.315
X4.0354Y-5.5118
X4.0354Y-5.7087
X4.0354Y-5.9055
X4.0354Y-6.1024
X4.2323Y-3.937
X4.2323Y-6.1024
X4.4291Y-3.937
X4.4291Y-6.1024
X4.5965Y-5.2264
X4.626Y-3.937
X4.626Y-6.1024
X4.8228Y-3.937
X4.8228Y-6.1024
X5.0197Y-3.937
X5.0197Y-6.1024
X5.2165Y-3.937
X5.2165Y-6.1024
X5.4134Y-3.937
X5.4134Y-6.1024
X5.4331Y-4.6555
X5.4331Y-4.6949
X5.4331Y-4.7343
X5.4331Y-4.7736
X5.5413Y-5.0787
X5.5807Y-5.9744
X5.6102Y-3.937
X5.6102Y-6.1024
X5.8071Y-3.937
X5.8071Y-6.1024
X6.0039Y-3.937
X6.0039Y-6.1024
X6.2008Y-3.937
X6.2008Y-6.1024
X6.3976Y-3.937
X6.3976Y-6.1024
X6.5945Y-3.937
X6.5945Y-6.1024
X6.7913Y-3.937
X6.7913Y-6.1024
X6.9882Y-3.937
X6.9882Y-6.1024
X7.185Y-3.937
X7.185Y-6.1024
X7.3819Y-3.937
X7.3819Y-6.1024
X7.5787Y-3.937
X7.5787Y-6.1024
X7.7756Y-3.937
X7.7756Y-6.1024
X7.9724Y-3.937
X7.9724Y-6.1024
X8.1693Y-3.937
X8.1693Y-6.1024
X8.3661Y-3.937
X8.3661Y-6.1024
X8.563Y-3.937
X8.563Y-6.1024
X8.7598Y-3.937
X8.7598Y-6.1024
X8.9567Y-3.937
X8.9567Y-4.1339
X8.9567Y-4.3307
X8.9567Y-4.5276
X8.9567Y-4.7244
X8.9567Y-4.9213
X8.9567Y-5.1181
X8.9567Y-5.315
X8.9567Y-5.5118
X8.9567Y-5.7087
X8.9567Y-5.9055
X8.9567Y-6.1024
T2
X4.8819Y-4.7441
X4.9803Y-4.7441
X4.1732Y-5.0394
X4.1732Y-5.1394
X4.4732Y-5.0394
X4.4732Y-5.1394
X4.7244Y-5.0886
X4.7244Y-5.1886
X4.7244Y-5.2886
X4.7244Y-5.3886
X4.7244Y-5.4886
X4.7244Y-5.5886
X4.7244Y-5.6886
X5.0244Y-5.0886
X5.0244Y-5.1886
X5.0244Y-5.2886
X5.0244Y-5.3886
X5.0244Y-5.4886
X5.0244Y-5.5886
X5.0244Y-5.6886
X5.0295Y-4.1732
X5.0295Y-4.2717
X5.2362Y-5.2657
X5.2362Y-5.3657
X5.2362Y-5.4657
X5.2362Y-5.5657
X5.2362Y-5.6657
X5.2362Y-5.7657
X5.2362Y-5.8657
X5.5362Y-5.2657
X5.5362Y-5.3657
X5.5362Y-5.4657
X5.5362Y-5.5657
X5.5362Y-5.6657
X5.5362Y-5.7657
X5.5362Y-5.8657
X5.2362Y-4.3701
X5.2362Y-4.4701
X5.2362Y-4.5701
X5.2362Y-4.6701
X5.2362Y-4.7701
X5.2362Y-4.8701
X5.2362Y-4.9701
X5.5362Y-4.3701
X5.5362Y-4.4701
X5.5362Y-4.5701
X5.5362Y-4.6701
X5.5362Y-4.7701
X5.5362Y-4.8701
X5.5362Y-4.9701
X4.1732Y-5.3445
X4.1732Y-5.4445
X4.4732Y-5.3445
X4.4732Y-5.4445
T3
X4.1535Y-5.8169
X4.2535Y-5.8169
X4.3535Y-5.8169
X4.4535Y-5.8169
X4.7146Y-4.713
X4.7146Y-4.813
X8.1102Y-5.6791
X8.5039Y-5.6791
X8.1102Y-4.5079
X8.5039Y-4.5079
X8.1102Y-5.3248
X8.3071Y-5.3248
X8.1102Y-4.8622
X8.3071Y-4.8622
T4
X7.1622Y-4.4094
X7.2622Y-4.4094
X7.3622Y-4.4094
X7.1654Y-5.7677
X7.2654Y-5.7677
X7.3654Y-5.7677
X5.6693Y-4.4685
X5.6693Y-4.8685
X7.5886Y-5.7677
X7.6886Y-5.7677
X7.7886Y-5.7677
X7.5854Y-4.4094
X7.6854Y-4.4094
X7.7854Y-4.4094
X4.8524Y-4.3177
X4.8524Y-4.4177
X4.8524Y-4.5177
X6.3945Y-4.4094
X6.4945Y-4.4094
X6.5945Y-4.4094
X5.9941Y-5.7677
X6.0941Y-5.7677
X6.1941Y-5.7677
X5.6693Y-5.3642
X5.6693Y-5.7642
X6.4173Y-5.7677
X6.5173Y-5.7677
X6.6173Y-5.7677
X5.9713Y-4.4094
X6.0713Y-4.4094
X6.1713Y-4.4094
T5
X7.3248Y-4.9606
X7.8248Y-4.9606
X7.3248Y-5.2362
X7.8248Y-5.2362
X5.9449Y-4.9606
X6.4449Y-4.9606
X5.9449Y-5.2362
X6.4449Y-5.2362
T6
X6.8701Y-4.9508
X6.8701Y-5.2508
X8.6516Y-5.0933
X8.6516Y-5.3933
T0
M30
