G04 #@! TF.GenerationSoftware,KiCad,Pcbnew,5.1.5*
G04 #@! TF.CreationDate,2020-04-15T13:00:25+02:00*
G04 #@! TF.ProjectId,h_bridge,685f6272-6964-4676-952e-6b696361645f,rev?*
G04 #@! TF.SameCoordinates,Original*
G04 #@! TF.FileFunction,Other,User*
%FSLAX46Y46*%
G04 Gerber Fmt 4.6, Leading zero omitted, Abs format (unit mm)*
G04 Created by KiCad (PCBNEW 5.1.5) date 2020-04-15 13:00:25*
%MOMM*%
%LPD*%
G04 APERTURE LIST*
%ADD10C,0.050000*%
G04 APERTURE END LIST*
D10*
X120950000Y-115180000D02*
X120950000Y-111820000D01*
X119050000Y-115180000D02*
X120950000Y-115180000D01*
X119050000Y-111820000D02*
X119050000Y-115180000D01*
X120950000Y-111820000D02*
X119050000Y-111820000D01*
X127200000Y-110320000D02*
X125300000Y-110320000D01*
X125300000Y-110320000D02*
X125300000Y-113680000D01*
X125300000Y-113680000D02*
X127200000Y-113680000D01*
X127200000Y-113680000D02*
X127200000Y-110320000D01*
X124700000Y-138680000D02*
X124700000Y-135320000D01*
X122800000Y-138680000D02*
X124700000Y-138680000D01*
X122800000Y-135320000D02*
X122800000Y-138680000D01*
X124700000Y-135320000D02*
X122800000Y-135320000D01*
X134800000Y-122930000D02*
X136700000Y-122930000D01*
X136700000Y-122930000D02*
X136700000Y-119570000D01*
X136700000Y-119570000D02*
X134800000Y-119570000D01*
X134800000Y-119570000D02*
X134800000Y-122930000D01*
X134800000Y-145680000D02*
X136700000Y-145680000D01*
X136700000Y-145680000D02*
X136700000Y-142320000D01*
X136700000Y-142320000D02*
X134800000Y-142320000D01*
X134800000Y-142320000D02*
X134800000Y-145680000D01*
X144950000Y-118680000D02*
X144950000Y-115320000D01*
X143050000Y-118680000D02*
X144950000Y-118680000D01*
X143050000Y-115320000D02*
X143050000Y-118680000D01*
X144950000Y-115320000D02*
X143050000Y-115320000D01*
X144950000Y-141430000D02*
X144950000Y-138070000D01*
X143050000Y-141430000D02*
X144950000Y-141430000D01*
X143050000Y-138070000D02*
X143050000Y-141430000D01*
X144950000Y-138070000D02*
X143050000Y-138070000D01*
M02*
