G04 #@! TF.GenerationSoftware,KiCad,Pcbnew,5.1.5*
G04 #@! TF.CreationDate,2020-04-11T18:36:45+02:00*
G04 #@! TF.ProjectId,h_bridge,685f6272-6964-4676-952e-6b696361645f,rev?*
G04 #@! TF.SameCoordinates,Original*
G04 #@! TF.FileFunction,Legend,Top*
G04 #@! TF.FilePolarity,Positive*
%FSLAX46Y46*%
G04 Gerber Fmt 4.6, Leading zero omitted, Abs format (unit mm)*
G04 Created by KiCad (PCBNEW 5.1.5) date 2020-04-11 18:36:45*
%MOMM*%
%LPD*%
G04 APERTURE LIST*
%ADD10C,0.120000*%
%ADD11C,0.150000*%
G04 APERTURE END LIST*
D10*
X200330000Y-115270000D02*
X190090000Y-115270000D01*
X200330000Y-110629000D02*
X190090000Y-110629000D01*
X200330000Y-115270000D02*
X200330000Y-110629000D01*
X190090000Y-115270000D02*
X190090000Y-110629000D01*
X200330000Y-113760000D02*
X190090000Y-113760000D01*
X197060000Y-115270000D02*
X197060000Y-113760000D01*
X193359000Y-115270000D02*
X193359000Y-113760000D01*
X189580000Y-115270000D02*
X179340000Y-115270000D01*
X189580000Y-110629000D02*
X179340000Y-110629000D01*
X189580000Y-115270000D02*
X189580000Y-110629000D01*
X179340000Y-115270000D02*
X179340000Y-110629000D01*
X189580000Y-113760000D02*
X179340000Y-113760000D01*
X186310000Y-115270000D02*
X186310000Y-113760000D01*
X182609000Y-115270000D02*
X182609000Y-113760000D01*
X196758578Y-108540000D02*
X196241422Y-108540000D01*
X196758578Y-109960000D02*
X196241422Y-109960000D01*
X187741422Y-108540000D02*
X188258578Y-108540000D01*
X187741422Y-109960000D02*
X188258578Y-109960000D01*
X122695225Y-118775000D02*
X122695225Y-119275000D01*
X122445225Y-119025000D02*
X122945225Y-119025000D01*
X127851000Y-120216000D02*
X127851000Y-120784000D01*
X127811000Y-119982000D02*
X127811000Y-121018000D01*
X127771000Y-119823000D02*
X127771000Y-121177000D01*
X127731000Y-119695000D02*
X127731000Y-121305000D01*
X127691000Y-119585000D02*
X127691000Y-121415000D01*
X127651000Y-119489000D02*
X127651000Y-121511000D01*
X127611000Y-119402000D02*
X127611000Y-121598000D01*
X127571000Y-119322000D02*
X127571000Y-121678000D01*
X127531000Y-121540000D02*
X127531000Y-121751000D01*
X127531000Y-119249000D02*
X127531000Y-119460000D01*
X127491000Y-121540000D02*
X127491000Y-121819000D01*
X127491000Y-119181000D02*
X127491000Y-119460000D01*
X127451000Y-121540000D02*
X127451000Y-121883000D01*
X127451000Y-119117000D02*
X127451000Y-119460000D01*
X127411000Y-121540000D02*
X127411000Y-121943000D01*
X127411000Y-119057000D02*
X127411000Y-119460000D01*
X127371000Y-121540000D02*
X127371000Y-122000000D01*
X127371000Y-119000000D02*
X127371000Y-119460000D01*
X127331000Y-121540000D02*
X127331000Y-122054000D01*
X127331000Y-118946000D02*
X127331000Y-119460000D01*
X127291000Y-121540000D02*
X127291000Y-122105000D01*
X127291000Y-118895000D02*
X127291000Y-119460000D01*
X127251000Y-121540000D02*
X127251000Y-122153000D01*
X127251000Y-118847000D02*
X127251000Y-119460000D01*
X127211000Y-121540000D02*
X127211000Y-122199000D01*
X127211000Y-118801000D02*
X127211000Y-119460000D01*
X127171000Y-121540000D02*
X127171000Y-122243000D01*
X127171000Y-118757000D02*
X127171000Y-119460000D01*
X127131000Y-121540000D02*
X127131000Y-122285000D01*
X127131000Y-118715000D02*
X127131000Y-119460000D01*
X127091000Y-121540000D02*
X127091000Y-122326000D01*
X127091000Y-118674000D02*
X127091000Y-119460000D01*
X127051000Y-121540000D02*
X127051000Y-122364000D01*
X127051000Y-118636000D02*
X127051000Y-119460000D01*
X127011000Y-121540000D02*
X127011000Y-122401000D01*
X127011000Y-118599000D02*
X127011000Y-119460000D01*
X126971000Y-121540000D02*
X126971000Y-122437000D01*
X126971000Y-118563000D02*
X126971000Y-119460000D01*
X126931000Y-121540000D02*
X126931000Y-122471000D01*
X126931000Y-118529000D02*
X126931000Y-119460000D01*
X126891000Y-121540000D02*
X126891000Y-122504000D01*
X126891000Y-118496000D02*
X126891000Y-119460000D01*
X126851000Y-121540000D02*
X126851000Y-122535000D01*
X126851000Y-118465000D02*
X126851000Y-119460000D01*
X126811000Y-121540000D02*
X126811000Y-122565000D01*
X126811000Y-118435000D02*
X126811000Y-119460000D01*
X126771000Y-121540000D02*
X126771000Y-122595000D01*
X126771000Y-118405000D02*
X126771000Y-119460000D01*
X126731000Y-121540000D02*
X126731000Y-122622000D01*
X126731000Y-118378000D02*
X126731000Y-119460000D01*
X126691000Y-121540000D02*
X126691000Y-122649000D01*
X126691000Y-118351000D02*
X126691000Y-119460000D01*
X126651000Y-121540000D02*
X126651000Y-122675000D01*
X126651000Y-118325000D02*
X126651000Y-119460000D01*
X126611000Y-121540000D02*
X126611000Y-122700000D01*
X126611000Y-118300000D02*
X126611000Y-119460000D01*
X126571000Y-121540000D02*
X126571000Y-122724000D01*
X126571000Y-118276000D02*
X126571000Y-119460000D01*
X126531000Y-121540000D02*
X126531000Y-122747000D01*
X126531000Y-118253000D02*
X126531000Y-119460000D01*
X126491000Y-121540000D02*
X126491000Y-122768000D01*
X126491000Y-118232000D02*
X126491000Y-119460000D01*
X126451000Y-121540000D02*
X126451000Y-122790000D01*
X126451000Y-118210000D02*
X126451000Y-119460000D01*
X126411000Y-121540000D02*
X126411000Y-122810000D01*
X126411000Y-118190000D02*
X126411000Y-119460000D01*
X126371000Y-121540000D02*
X126371000Y-122829000D01*
X126371000Y-118171000D02*
X126371000Y-119460000D01*
X126331000Y-121540000D02*
X126331000Y-122848000D01*
X126331000Y-118152000D02*
X126331000Y-119460000D01*
X126291000Y-121540000D02*
X126291000Y-122865000D01*
X126291000Y-118135000D02*
X126291000Y-119460000D01*
X126251000Y-121540000D02*
X126251000Y-122882000D01*
X126251000Y-118118000D02*
X126251000Y-119460000D01*
X126211000Y-121540000D02*
X126211000Y-122898000D01*
X126211000Y-118102000D02*
X126211000Y-119460000D01*
X126171000Y-121540000D02*
X126171000Y-122914000D01*
X126171000Y-118086000D02*
X126171000Y-119460000D01*
X126131000Y-121540000D02*
X126131000Y-122928000D01*
X126131000Y-118072000D02*
X126131000Y-119460000D01*
X126091000Y-121540000D02*
X126091000Y-122942000D01*
X126091000Y-118058000D02*
X126091000Y-119460000D01*
X126051000Y-121540000D02*
X126051000Y-122955000D01*
X126051000Y-118045000D02*
X126051000Y-119460000D01*
X126011000Y-121540000D02*
X126011000Y-122968000D01*
X126011000Y-118032000D02*
X126011000Y-119460000D01*
X125971000Y-121540000D02*
X125971000Y-122980000D01*
X125971000Y-118020000D02*
X125971000Y-119460000D01*
X125930000Y-121540000D02*
X125930000Y-122991000D01*
X125930000Y-118009000D02*
X125930000Y-119460000D01*
X125890000Y-121540000D02*
X125890000Y-123001000D01*
X125890000Y-117999000D02*
X125890000Y-119460000D01*
X125850000Y-121540000D02*
X125850000Y-123011000D01*
X125850000Y-117989000D02*
X125850000Y-119460000D01*
X125810000Y-121540000D02*
X125810000Y-123020000D01*
X125810000Y-117980000D02*
X125810000Y-119460000D01*
X125770000Y-121540000D02*
X125770000Y-123028000D01*
X125770000Y-117972000D02*
X125770000Y-119460000D01*
X125730000Y-121540000D02*
X125730000Y-123036000D01*
X125730000Y-117964000D02*
X125730000Y-119460000D01*
X125690000Y-121540000D02*
X125690000Y-123043000D01*
X125690000Y-117957000D02*
X125690000Y-119460000D01*
X125650000Y-121540000D02*
X125650000Y-123050000D01*
X125650000Y-117950000D02*
X125650000Y-119460000D01*
X125610000Y-121540000D02*
X125610000Y-123056000D01*
X125610000Y-117944000D02*
X125610000Y-119460000D01*
X125570000Y-121540000D02*
X125570000Y-123061000D01*
X125570000Y-117939000D02*
X125570000Y-119460000D01*
X125530000Y-121540000D02*
X125530000Y-123065000D01*
X125530000Y-117935000D02*
X125530000Y-119460000D01*
X125490000Y-121540000D02*
X125490000Y-123069000D01*
X125490000Y-117931000D02*
X125490000Y-119460000D01*
X125450000Y-117927000D02*
X125450000Y-123073000D01*
X125410000Y-117924000D02*
X125410000Y-123076000D01*
X125370000Y-117922000D02*
X125370000Y-123078000D01*
X125330000Y-117921000D02*
X125330000Y-123079000D01*
X125290000Y-117920000D02*
X125290000Y-123080000D01*
X125250000Y-117920000D02*
X125250000Y-123080000D01*
X127870000Y-120500000D02*
G75*
G03X127870000Y-120500000I-2620000J0D01*
G01*
X130370000Y-107250000D02*
G75*
G03X130370000Y-107250000I-2620000J0D01*
G01*
X125170000Y-107250000D02*
X130330000Y-107250000D01*
X125170000Y-107210000D02*
X130330000Y-107210000D01*
X125171000Y-107170000D02*
X130329000Y-107170000D01*
X125172000Y-107130000D02*
X130328000Y-107130000D01*
X125174000Y-107090000D02*
X130326000Y-107090000D01*
X125177000Y-107050000D02*
X130323000Y-107050000D01*
X125181000Y-107010000D02*
X126710000Y-107010000D01*
X128790000Y-107010000D02*
X130319000Y-107010000D01*
X125185000Y-106970000D02*
X126710000Y-106970000D01*
X128790000Y-106970000D02*
X130315000Y-106970000D01*
X125189000Y-106930000D02*
X126710000Y-106930000D01*
X128790000Y-106930000D02*
X130311000Y-106930000D01*
X125194000Y-106890000D02*
X126710000Y-106890000D01*
X128790000Y-106890000D02*
X130306000Y-106890000D01*
X125200000Y-106850000D02*
X126710000Y-106850000D01*
X128790000Y-106850000D02*
X130300000Y-106850000D01*
X125207000Y-106810000D02*
X126710000Y-106810000D01*
X128790000Y-106810000D02*
X130293000Y-106810000D01*
X125214000Y-106770000D02*
X126710000Y-106770000D01*
X128790000Y-106770000D02*
X130286000Y-106770000D01*
X125222000Y-106730000D02*
X126710000Y-106730000D01*
X128790000Y-106730000D02*
X130278000Y-106730000D01*
X125230000Y-106690000D02*
X126710000Y-106690000D01*
X128790000Y-106690000D02*
X130270000Y-106690000D01*
X125239000Y-106650000D02*
X126710000Y-106650000D01*
X128790000Y-106650000D02*
X130261000Y-106650000D01*
X125249000Y-106610000D02*
X126710000Y-106610000D01*
X128790000Y-106610000D02*
X130251000Y-106610000D01*
X125259000Y-106570000D02*
X126710000Y-106570000D01*
X128790000Y-106570000D02*
X130241000Y-106570000D01*
X125270000Y-106529000D02*
X126710000Y-106529000D01*
X128790000Y-106529000D02*
X130230000Y-106529000D01*
X125282000Y-106489000D02*
X126710000Y-106489000D01*
X128790000Y-106489000D02*
X130218000Y-106489000D01*
X125295000Y-106449000D02*
X126710000Y-106449000D01*
X128790000Y-106449000D02*
X130205000Y-106449000D01*
X125308000Y-106409000D02*
X126710000Y-106409000D01*
X128790000Y-106409000D02*
X130192000Y-106409000D01*
X125322000Y-106369000D02*
X126710000Y-106369000D01*
X128790000Y-106369000D02*
X130178000Y-106369000D01*
X125336000Y-106329000D02*
X126710000Y-106329000D01*
X128790000Y-106329000D02*
X130164000Y-106329000D01*
X125352000Y-106289000D02*
X126710000Y-106289000D01*
X128790000Y-106289000D02*
X130148000Y-106289000D01*
X125368000Y-106249000D02*
X126710000Y-106249000D01*
X128790000Y-106249000D02*
X130132000Y-106249000D01*
X125385000Y-106209000D02*
X126710000Y-106209000D01*
X128790000Y-106209000D02*
X130115000Y-106209000D01*
X125402000Y-106169000D02*
X126710000Y-106169000D01*
X128790000Y-106169000D02*
X130098000Y-106169000D01*
X125421000Y-106129000D02*
X126710000Y-106129000D01*
X128790000Y-106129000D02*
X130079000Y-106129000D01*
X125440000Y-106089000D02*
X126710000Y-106089000D01*
X128790000Y-106089000D02*
X130060000Y-106089000D01*
X125460000Y-106049000D02*
X126710000Y-106049000D01*
X128790000Y-106049000D02*
X130040000Y-106049000D01*
X125482000Y-106009000D02*
X126710000Y-106009000D01*
X128790000Y-106009000D02*
X130018000Y-106009000D01*
X125503000Y-105969000D02*
X126710000Y-105969000D01*
X128790000Y-105969000D02*
X129997000Y-105969000D01*
X125526000Y-105929000D02*
X126710000Y-105929000D01*
X128790000Y-105929000D02*
X129974000Y-105929000D01*
X125550000Y-105889000D02*
X126710000Y-105889000D01*
X128790000Y-105889000D02*
X129950000Y-105889000D01*
X125575000Y-105849000D02*
X126710000Y-105849000D01*
X128790000Y-105849000D02*
X129925000Y-105849000D01*
X125601000Y-105809000D02*
X126710000Y-105809000D01*
X128790000Y-105809000D02*
X129899000Y-105809000D01*
X125628000Y-105769000D02*
X126710000Y-105769000D01*
X128790000Y-105769000D02*
X129872000Y-105769000D01*
X125655000Y-105729000D02*
X126710000Y-105729000D01*
X128790000Y-105729000D02*
X129845000Y-105729000D01*
X125685000Y-105689000D02*
X126710000Y-105689000D01*
X128790000Y-105689000D02*
X129815000Y-105689000D01*
X125715000Y-105649000D02*
X126710000Y-105649000D01*
X128790000Y-105649000D02*
X129785000Y-105649000D01*
X125746000Y-105609000D02*
X126710000Y-105609000D01*
X128790000Y-105609000D02*
X129754000Y-105609000D01*
X125779000Y-105569000D02*
X126710000Y-105569000D01*
X128790000Y-105569000D02*
X129721000Y-105569000D01*
X125813000Y-105529000D02*
X126710000Y-105529000D01*
X128790000Y-105529000D02*
X129687000Y-105529000D01*
X125849000Y-105489000D02*
X126710000Y-105489000D01*
X128790000Y-105489000D02*
X129651000Y-105489000D01*
X125886000Y-105449000D02*
X126710000Y-105449000D01*
X128790000Y-105449000D02*
X129614000Y-105449000D01*
X125924000Y-105409000D02*
X126710000Y-105409000D01*
X128790000Y-105409000D02*
X129576000Y-105409000D01*
X125965000Y-105369000D02*
X126710000Y-105369000D01*
X128790000Y-105369000D02*
X129535000Y-105369000D01*
X126007000Y-105329000D02*
X126710000Y-105329000D01*
X128790000Y-105329000D02*
X129493000Y-105329000D01*
X126051000Y-105289000D02*
X126710000Y-105289000D01*
X128790000Y-105289000D02*
X129449000Y-105289000D01*
X126097000Y-105249000D02*
X126710000Y-105249000D01*
X128790000Y-105249000D02*
X129403000Y-105249000D01*
X126145000Y-105209000D02*
X126710000Y-105209000D01*
X128790000Y-105209000D02*
X129355000Y-105209000D01*
X126196000Y-105169000D02*
X126710000Y-105169000D01*
X128790000Y-105169000D02*
X129304000Y-105169000D01*
X126250000Y-105129000D02*
X126710000Y-105129000D01*
X128790000Y-105129000D02*
X129250000Y-105129000D01*
X126307000Y-105089000D02*
X126710000Y-105089000D01*
X128790000Y-105089000D02*
X129193000Y-105089000D01*
X126367000Y-105049000D02*
X126710000Y-105049000D01*
X128790000Y-105049000D02*
X129133000Y-105049000D01*
X126431000Y-105009000D02*
X126710000Y-105009000D01*
X128790000Y-105009000D02*
X129069000Y-105009000D01*
X126499000Y-104969000D02*
X126710000Y-104969000D01*
X128790000Y-104969000D02*
X129001000Y-104969000D01*
X126572000Y-104929000D02*
X128928000Y-104929000D01*
X126652000Y-104889000D02*
X128848000Y-104889000D01*
X126739000Y-104849000D02*
X128761000Y-104849000D01*
X126835000Y-104809000D02*
X128665000Y-104809000D01*
X126945000Y-104769000D02*
X128555000Y-104769000D01*
X127073000Y-104729000D02*
X128427000Y-104729000D01*
X127232000Y-104689000D02*
X128268000Y-104689000D01*
X127466000Y-104649000D02*
X128034000Y-104649000D01*
X126275000Y-110054775D02*
X126275000Y-109554775D01*
X126025000Y-109804775D02*
X126525000Y-109804775D01*
X126508578Y-115790000D02*
X125991422Y-115790000D01*
X126508578Y-117210000D02*
X125991422Y-117210000D01*
X125540000Y-113758578D02*
X125540000Y-113241422D01*
X126960000Y-113758578D02*
X126960000Y-113241422D01*
X118420000Y-123580000D02*
X121080000Y-123580000D01*
X118420000Y-120980000D02*
X118420000Y-123580000D01*
X121080000Y-120980000D02*
X121080000Y-123580000D01*
X118420000Y-120980000D02*
X121080000Y-120980000D01*
X118420000Y-119710000D02*
X118420000Y-118380000D01*
X118420000Y-118380000D02*
X119750000Y-118380000D01*
X119560000Y-117330000D02*
X119560000Y-107090000D01*
X103670000Y-117330000D02*
X103670000Y-107090000D01*
X103670000Y-117330000D02*
X119560000Y-117330000D01*
X103670000Y-107090000D02*
X119560000Y-107090000D01*
X119560000Y-114750000D02*
X122100000Y-114750000D01*
X119560000Y-112210000D02*
X122100000Y-112210000D01*
X119560000Y-109670000D02*
X122100000Y-109670000D01*
X145470000Y-138610000D02*
X142530000Y-138610000D01*
X142530000Y-138610000D02*
X142530000Y-144050000D01*
X142530000Y-144050000D02*
X145470000Y-144050000D01*
X145470000Y-144050000D02*
X145470000Y-138610000D01*
X144000000Y-137590000D02*
X144000000Y-138610000D01*
X144000000Y-145070000D02*
X144000000Y-144050000D01*
X145470000Y-139510000D02*
X142530000Y-139510000D01*
X145470000Y-139630000D02*
X142530000Y-139630000D01*
X145470000Y-139390000D02*
X142530000Y-139390000D01*
X213620000Y-135250000D02*
G75*
G03X213620000Y-135250000I-5120000J0D01*
G01*
X208500000Y-130170000D02*
X208500000Y-140330000D01*
X208540000Y-130170000D02*
X208540000Y-140330000D01*
X208580000Y-130170000D02*
X208580000Y-140330000D01*
X208620000Y-130171000D02*
X208620000Y-140329000D01*
X208660000Y-130172000D02*
X208660000Y-140328000D01*
X208700000Y-130173000D02*
X208700000Y-140327000D01*
X208740000Y-130175000D02*
X208740000Y-140325000D01*
X208780000Y-130177000D02*
X208780000Y-140323000D01*
X208820000Y-130180000D02*
X208820000Y-140320000D01*
X208860000Y-130182000D02*
X208860000Y-140318000D01*
X208900000Y-130185000D02*
X208900000Y-140315000D01*
X208940000Y-130188000D02*
X208940000Y-140312000D01*
X208980000Y-130192000D02*
X208980000Y-140308000D01*
X209020000Y-130196000D02*
X209020000Y-140304000D01*
X209060000Y-130200000D02*
X209060000Y-140300000D01*
X209100000Y-130205000D02*
X209100000Y-140295000D01*
X209140000Y-130210000D02*
X209140000Y-140290000D01*
X209180000Y-130215000D02*
X209180000Y-140285000D01*
X209221000Y-130220000D02*
X209221000Y-140280000D01*
X209261000Y-130226000D02*
X209261000Y-140274000D01*
X209301000Y-130232000D02*
X209301000Y-140268000D01*
X209341000Y-130239000D02*
X209341000Y-140261000D01*
X209381000Y-130246000D02*
X209381000Y-140254000D01*
X209421000Y-130253000D02*
X209421000Y-140247000D01*
X209461000Y-130260000D02*
X209461000Y-140240000D01*
X209501000Y-130268000D02*
X209501000Y-140232000D01*
X209541000Y-130276000D02*
X209541000Y-140224000D01*
X209581000Y-130285000D02*
X209581000Y-140215000D01*
X209621000Y-130294000D02*
X209621000Y-140206000D01*
X209661000Y-130303000D02*
X209661000Y-140197000D01*
X209701000Y-130312000D02*
X209701000Y-140188000D01*
X209741000Y-130322000D02*
X209741000Y-140178000D01*
X209781000Y-130332000D02*
X209781000Y-134009000D01*
X209781000Y-136491000D02*
X209781000Y-140168000D01*
X209821000Y-130343000D02*
X209821000Y-134009000D01*
X209821000Y-136491000D02*
X209821000Y-140157000D01*
X209861000Y-130353000D02*
X209861000Y-134009000D01*
X209861000Y-136491000D02*
X209861000Y-140147000D01*
X209901000Y-130365000D02*
X209901000Y-134009000D01*
X209901000Y-136491000D02*
X209901000Y-140135000D01*
X209941000Y-130376000D02*
X209941000Y-134009000D01*
X209941000Y-136491000D02*
X209941000Y-140124000D01*
X209981000Y-130388000D02*
X209981000Y-134009000D01*
X209981000Y-136491000D02*
X209981000Y-140112000D01*
X210021000Y-130400000D02*
X210021000Y-134009000D01*
X210021000Y-136491000D02*
X210021000Y-140100000D01*
X210061000Y-130413000D02*
X210061000Y-134009000D01*
X210061000Y-136491000D02*
X210061000Y-140087000D01*
X210101000Y-130426000D02*
X210101000Y-134009000D01*
X210101000Y-136491000D02*
X210101000Y-140074000D01*
X210141000Y-130439000D02*
X210141000Y-134009000D01*
X210141000Y-136491000D02*
X210141000Y-140061000D01*
X210181000Y-130453000D02*
X210181000Y-134009000D01*
X210181000Y-136491000D02*
X210181000Y-140047000D01*
X210221000Y-130467000D02*
X210221000Y-134009000D01*
X210221000Y-136491000D02*
X210221000Y-140033000D01*
X210261000Y-130482000D02*
X210261000Y-134009000D01*
X210261000Y-136491000D02*
X210261000Y-140018000D01*
X210301000Y-130496000D02*
X210301000Y-134009000D01*
X210301000Y-136491000D02*
X210301000Y-140004000D01*
X210341000Y-130512000D02*
X210341000Y-134009000D01*
X210341000Y-136491000D02*
X210341000Y-139988000D01*
X210381000Y-130527000D02*
X210381000Y-134009000D01*
X210381000Y-136491000D02*
X210381000Y-139973000D01*
X210421000Y-130543000D02*
X210421000Y-134009000D01*
X210421000Y-136491000D02*
X210421000Y-139957000D01*
X210461000Y-130560000D02*
X210461000Y-134009000D01*
X210461000Y-136491000D02*
X210461000Y-139940000D01*
X210501000Y-130576000D02*
X210501000Y-134009000D01*
X210501000Y-136491000D02*
X210501000Y-139924000D01*
X210541000Y-130593000D02*
X210541000Y-134009000D01*
X210541000Y-136491000D02*
X210541000Y-139907000D01*
X210581000Y-130611000D02*
X210581000Y-134009000D01*
X210581000Y-136491000D02*
X210581000Y-139889000D01*
X210621000Y-130629000D02*
X210621000Y-134009000D01*
X210621000Y-136491000D02*
X210621000Y-139871000D01*
X210661000Y-130647000D02*
X210661000Y-134009000D01*
X210661000Y-136491000D02*
X210661000Y-139853000D01*
X210701000Y-130666000D02*
X210701000Y-134009000D01*
X210701000Y-136491000D02*
X210701000Y-139834000D01*
X210741000Y-130686000D02*
X210741000Y-134009000D01*
X210741000Y-136491000D02*
X210741000Y-139814000D01*
X210781000Y-130705000D02*
X210781000Y-134009000D01*
X210781000Y-136491000D02*
X210781000Y-139795000D01*
X210821000Y-130725000D02*
X210821000Y-134009000D01*
X210821000Y-136491000D02*
X210821000Y-139775000D01*
X210861000Y-130746000D02*
X210861000Y-134009000D01*
X210861000Y-136491000D02*
X210861000Y-139754000D01*
X210901000Y-130767000D02*
X210901000Y-134009000D01*
X210901000Y-136491000D02*
X210901000Y-139733000D01*
X210941000Y-130788000D02*
X210941000Y-134009000D01*
X210941000Y-136491000D02*
X210941000Y-139712000D01*
X210981000Y-130810000D02*
X210981000Y-134009000D01*
X210981000Y-136491000D02*
X210981000Y-139690000D01*
X211021000Y-130833000D02*
X211021000Y-134009000D01*
X211021000Y-136491000D02*
X211021000Y-139667000D01*
X211061000Y-130855000D02*
X211061000Y-134009000D01*
X211061000Y-136491000D02*
X211061000Y-139645000D01*
X211101000Y-130879000D02*
X211101000Y-134009000D01*
X211101000Y-136491000D02*
X211101000Y-139621000D01*
X211141000Y-130903000D02*
X211141000Y-134009000D01*
X211141000Y-136491000D02*
X211141000Y-139597000D01*
X211181000Y-130927000D02*
X211181000Y-134009000D01*
X211181000Y-136491000D02*
X211181000Y-139573000D01*
X211221000Y-130952000D02*
X211221000Y-134009000D01*
X211221000Y-136491000D02*
X211221000Y-139548000D01*
X211261000Y-130977000D02*
X211261000Y-134009000D01*
X211261000Y-136491000D02*
X211261000Y-139523000D01*
X211301000Y-131003000D02*
X211301000Y-134009000D01*
X211301000Y-136491000D02*
X211301000Y-139497000D01*
X211341000Y-131029000D02*
X211341000Y-134009000D01*
X211341000Y-136491000D02*
X211341000Y-139471000D01*
X211381000Y-131056000D02*
X211381000Y-134009000D01*
X211381000Y-136491000D02*
X211381000Y-139444000D01*
X211421000Y-131084000D02*
X211421000Y-134009000D01*
X211421000Y-136491000D02*
X211421000Y-139416000D01*
X211461000Y-131112000D02*
X211461000Y-134009000D01*
X211461000Y-136491000D02*
X211461000Y-139388000D01*
X211501000Y-131140000D02*
X211501000Y-134009000D01*
X211501000Y-136491000D02*
X211501000Y-139360000D01*
X211541000Y-131170000D02*
X211541000Y-134009000D01*
X211541000Y-136491000D02*
X211541000Y-139330000D01*
X211581000Y-131200000D02*
X211581000Y-134009000D01*
X211581000Y-136491000D02*
X211581000Y-139300000D01*
X211621000Y-131230000D02*
X211621000Y-134009000D01*
X211621000Y-136491000D02*
X211621000Y-139270000D01*
X211661000Y-131261000D02*
X211661000Y-134009000D01*
X211661000Y-136491000D02*
X211661000Y-139239000D01*
X211701000Y-131293000D02*
X211701000Y-134009000D01*
X211701000Y-136491000D02*
X211701000Y-139207000D01*
X211741000Y-131325000D02*
X211741000Y-134009000D01*
X211741000Y-136491000D02*
X211741000Y-139175000D01*
X211781000Y-131358000D02*
X211781000Y-134009000D01*
X211781000Y-136491000D02*
X211781000Y-139142000D01*
X211821000Y-131392000D02*
X211821000Y-134009000D01*
X211821000Y-136491000D02*
X211821000Y-139108000D01*
X211861000Y-131426000D02*
X211861000Y-134009000D01*
X211861000Y-136491000D02*
X211861000Y-139074000D01*
X211901000Y-131461000D02*
X211901000Y-134009000D01*
X211901000Y-136491000D02*
X211901000Y-139039000D01*
X211941000Y-131497000D02*
X211941000Y-134009000D01*
X211941000Y-136491000D02*
X211941000Y-139003000D01*
X211981000Y-131534000D02*
X211981000Y-134009000D01*
X211981000Y-136491000D02*
X211981000Y-138966000D01*
X212021000Y-131571000D02*
X212021000Y-134009000D01*
X212021000Y-136491000D02*
X212021000Y-138929000D01*
X212061000Y-131610000D02*
X212061000Y-134009000D01*
X212061000Y-136491000D02*
X212061000Y-138890000D01*
X212101000Y-131649000D02*
X212101000Y-134009000D01*
X212101000Y-136491000D02*
X212101000Y-138851000D01*
X212141000Y-131689000D02*
X212141000Y-134009000D01*
X212141000Y-136491000D02*
X212141000Y-138811000D01*
X212181000Y-131730000D02*
X212181000Y-134009000D01*
X212181000Y-136491000D02*
X212181000Y-138770000D01*
X212221000Y-131772000D02*
X212221000Y-134009000D01*
X212221000Y-136491000D02*
X212221000Y-138728000D01*
X212261000Y-131814000D02*
X212261000Y-138686000D01*
X212301000Y-131858000D02*
X212301000Y-138642000D01*
X212341000Y-131903000D02*
X212341000Y-138597000D01*
X212381000Y-131949000D02*
X212381000Y-138551000D01*
X212421000Y-131996000D02*
X212421000Y-138504000D01*
X212461000Y-132044000D02*
X212461000Y-138456000D01*
X212501000Y-132094000D02*
X212501000Y-138406000D01*
X212541000Y-132144000D02*
X212541000Y-138356000D01*
X212581000Y-132196000D02*
X212581000Y-138304000D01*
X212621000Y-132250000D02*
X212621000Y-138250000D01*
X212661000Y-132305000D02*
X212661000Y-138195000D01*
X212701000Y-132361000D02*
X212701000Y-138139000D01*
X212741000Y-132420000D02*
X212741000Y-138080000D01*
X212781000Y-132480000D02*
X212781000Y-138020000D01*
X212821000Y-132541000D02*
X212821000Y-137959000D01*
X212861000Y-132605000D02*
X212861000Y-137895000D01*
X212901000Y-132671000D02*
X212901000Y-137829000D01*
X212941000Y-132740000D02*
X212941000Y-137760000D01*
X212981000Y-132811000D02*
X212981000Y-137689000D01*
X213021000Y-132885000D02*
X213021000Y-137615000D01*
X213061000Y-132961000D02*
X213061000Y-137539000D01*
X213101000Y-133041000D02*
X213101000Y-137459000D01*
X213141000Y-133125000D02*
X213141000Y-137375000D01*
X213181000Y-133213000D02*
X213181000Y-137287000D01*
X213221000Y-133306000D02*
X213221000Y-137194000D01*
X213261000Y-133404000D02*
X213261000Y-137096000D01*
X213301000Y-133508000D02*
X213301000Y-136992000D01*
X213341000Y-133620000D02*
X213341000Y-136880000D01*
X213381000Y-133740000D02*
X213381000Y-136760000D01*
X213421000Y-133872000D02*
X213421000Y-136628000D01*
X213461000Y-134020000D02*
X213461000Y-136480000D01*
X213501000Y-134188000D02*
X213501000Y-136312000D01*
X213541000Y-134388000D02*
X213541000Y-136112000D01*
X213581000Y-134651000D02*
X213581000Y-135849000D01*
X203020354Y-132375000D02*
X204020354Y-132375000D01*
X203520354Y-131875000D02*
X203520354Y-132875000D01*
X213620000Y-123500000D02*
G75*
G03X213620000Y-123500000I-5120000J0D01*
G01*
X208500000Y-118420000D02*
X208500000Y-128580000D01*
X208540000Y-118420000D02*
X208540000Y-128580000D01*
X208580000Y-118420000D02*
X208580000Y-128580000D01*
X208620000Y-118421000D02*
X208620000Y-128579000D01*
X208660000Y-118422000D02*
X208660000Y-128578000D01*
X208700000Y-118423000D02*
X208700000Y-128577000D01*
X208740000Y-118425000D02*
X208740000Y-128575000D01*
X208780000Y-118427000D02*
X208780000Y-128573000D01*
X208820000Y-118430000D02*
X208820000Y-128570000D01*
X208860000Y-118432000D02*
X208860000Y-128568000D01*
X208900000Y-118435000D02*
X208900000Y-128565000D01*
X208940000Y-118438000D02*
X208940000Y-128562000D01*
X208980000Y-118442000D02*
X208980000Y-128558000D01*
X209020000Y-118446000D02*
X209020000Y-128554000D01*
X209060000Y-118450000D02*
X209060000Y-128550000D01*
X209100000Y-118455000D02*
X209100000Y-128545000D01*
X209140000Y-118460000D02*
X209140000Y-128540000D01*
X209180000Y-118465000D02*
X209180000Y-128535000D01*
X209221000Y-118470000D02*
X209221000Y-128530000D01*
X209261000Y-118476000D02*
X209261000Y-128524000D01*
X209301000Y-118482000D02*
X209301000Y-128518000D01*
X209341000Y-118489000D02*
X209341000Y-128511000D01*
X209381000Y-118496000D02*
X209381000Y-128504000D01*
X209421000Y-118503000D02*
X209421000Y-128497000D01*
X209461000Y-118510000D02*
X209461000Y-128490000D01*
X209501000Y-118518000D02*
X209501000Y-128482000D01*
X209541000Y-118526000D02*
X209541000Y-128474000D01*
X209581000Y-118535000D02*
X209581000Y-128465000D01*
X209621000Y-118544000D02*
X209621000Y-128456000D01*
X209661000Y-118553000D02*
X209661000Y-128447000D01*
X209701000Y-118562000D02*
X209701000Y-128438000D01*
X209741000Y-118572000D02*
X209741000Y-128428000D01*
X209781000Y-118582000D02*
X209781000Y-122259000D01*
X209781000Y-124741000D02*
X209781000Y-128418000D01*
X209821000Y-118593000D02*
X209821000Y-122259000D01*
X209821000Y-124741000D02*
X209821000Y-128407000D01*
X209861000Y-118603000D02*
X209861000Y-122259000D01*
X209861000Y-124741000D02*
X209861000Y-128397000D01*
X209901000Y-118615000D02*
X209901000Y-122259000D01*
X209901000Y-124741000D02*
X209901000Y-128385000D01*
X209941000Y-118626000D02*
X209941000Y-122259000D01*
X209941000Y-124741000D02*
X209941000Y-128374000D01*
X209981000Y-118638000D02*
X209981000Y-122259000D01*
X209981000Y-124741000D02*
X209981000Y-128362000D01*
X210021000Y-118650000D02*
X210021000Y-122259000D01*
X210021000Y-124741000D02*
X210021000Y-128350000D01*
X210061000Y-118663000D02*
X210061000Y-122259000D01*
X210061000Y-124741000D02*
X210061000Y-128337000D01*
X210101000Y-118676000D02*
X210101000Y-122259000D01*
X210101000Y-124741000D02*
X210101000Y-128324000D01*
X210141000Y-118689000D02*
X210141000Y-122259000D01*
X210141000Y-124741000D02*
X210141000Y-128311000D01*
X210181000Y-118703000D02*
X210181000Y-122259000D01*
X210181000Y-124741000D02*
X210181000Y-128297000D01*
X210221000Y-118717000D02*
X210221000Y-122259000D01*
X210221000Y-124741000D02*
X210221000Y-128283000D01*
X210261000Y-118732000D02*
X210261000Y-122259000D01*
X210261000Y-124741000D02*
X210261000Y-128268000D01*
X210301000Y-118746000D02*
X210301000Y-122259000D01*
X210301000Y-124741000D02*
X210301000Y-128254000D01*
X210341000Y-118762000D02*
X210341000Y-122259000D01*
X210341000Y-124741000D02*
X210341000Y-128238000D01*
X210381000Y-118777000D02*
X210381000Y-122259000D01*
X210381000Y-124741000D02*
X210381000Y-128223000D01*
X210421000Y-118793000D02*
X210421000Y-122259000D01*
X210421000Y-124741000D02*
X210421000Y-128207000D01*
X210461000Y-118810000D02*
X210461000Y-122259000D01*
X210461000Y-124741000D02*
X210461000Y-128190000D01*
X210501000Y-118826000D02*
X210501000Y-122259000D01*
X210501000Y-124741000D02*
X210501000Y-128174000D01*
X210541000Y-118843000D02*
X210541000Y-122259000D01*
X210541000Y-124741000D02*
X210541000Y-128157000D01*
X210581000Y-118861000D02*
X210581000Y-122259000D01*
X210581000Y-124741000D02*
X210581000Y-128139000D01*
X210621000Y-118879000D02*
X210621000Y-122259000D01*
X210621000Y-124741000D02*
X210621000Y-128121000D01*
X210661000Y-118897000D02*
X210661000Y-122259000D01*
X210661000Y-124741000D02*
X210661000Y-128103000D01*
X210701000Y-118916000D02*
X210701000Y-122259000D01*
X210701000Y-124741000D02*
X210701000Y-128084000D01*
X210741000Y-118936000D02*
X210741000Y-122259000D01*
X210741000Y-124741000D02*
X210741000Y-128064000D01*
X210781000Y-118955000D02*
X210781000Y-122259000D01*
X210781000Y-124741000D02*
X210781000Y-128045000D01*
X210821000Y-118975000D02*
X210821000Y-122259000D01*
X210821000Y-124741000D02*
X210821000Y-128025000D01*
X210861000Y-118996000D02*
X210861000Y-122259000D01*
X210861000Y-124741000D02*
X210861000Y-128004000D01*
X210901000Y-119017000D02*
X210901000Y-122259000D01*
X210901000Y-124741000D02*
X210901000Y-127983000D01*
X210941000Y-119038000D02*
X210941000Y-122259000D01*
X210941000Y-124741000D02*
X210941000Y-127962000D01*
X210981000Y-119060000D02*
X210981000Y-122259000D01*
X210981000Y-124741000D02*
X210981000Y-127940000D01*
X211021000Y-119083000D02*
X211021000Y-122259000D01*
X211021000Y-124741000D02*
X211021000Y-127917000D01*
X211061000Y-119105000D02*
X211061000Y-122259000D01*
X211061000Y-124741000D02*
X211061000Y-127895000D01*
X211101000Y-119129000D02*
X211101000Y-122259000D01*
X211101000Y-124741000D02*
X211101000Y-127871000D01*
X211141000Y-119153000D02*
X211141000Y-122259000D01*
X211141000Y-124741000D02*
X211141000Y-127847000D01*
X211181000Y-119177000D02*
X211181000Y-122259000D01*
X211181000Y-124741000D02*
X211181000Y-127823000D01*
X211221000Y-119202000D02*
X211221000Y-122259000D01*
X211221000Y-124741000D02*
X211221000Y-127798000D01*
X211261000Y-119227000D02*
X211261000Y-122259000D01*
X211261000Y-124741000D02*
X211261000Y-127773000D01*
X211301000Y-119253000D02*
X211301000Y-122259000D01*
X211301000Y-124741000D02*
X211301000Y-127747000D01*
X211341000Y-119279000D02*
X211341000Y-122259000D01*
X211341000Y-124741000D02*
X211341000Y-127721000D01*
X211381000Y-119306000D02*
X211381000Y-122259000D01*
X211381000Y-124741000D02*
X211381000Y-127694000D01*
X211421000Y-119334000D02*
X211421000Y-122259000D01*
X211421000Y-124741000D02*
X211421000Y-127666000D01*
X211461000Y-119362000D02*
X211461000Y-122259000D01*
X211461000Y-124741000D02*
X211461000Y-127638000D01*
X211501000Y-119390000D02*
X211501000Y-122259000D01*
X211501000Y-124741000D02*
X211501000Y-127610000D01*
X211541000Y-119420000D02*
X211541000Y-122259000D01*
X211541000Y-124741000D02*
X211541000Y-127580000D01*
X211581000Y-119450000D02*
X211581000Y-122259000D01*
X211581000Y-124741000D02*
X211581000Y-127550000D01*
X211621000Y-119480000D02*
X211621000Y-122259000D01*
X211621000Y-124741000D02*
X211621000Y-127520000D01*
X211661000Y-119511000D02*
X211661000Y-122259000D01*
X211661000Y-124741000D02*
X211661000Y-127489000D01*
X211701000Y-119543000D02*
X211701000Y-122259000D01*
X211701000Y-124741000D02*
X211701000Y-127457000D01*
X211741000Y-119575000D02*
X211741000Y-122259000D01*
X211741000Y-124741000D02*
X211741000Y-127425000D01*
X211781000Y-119608000D02*
X211781000Y-122259000D01*
X211781000Y-124741000D02*
X211781000Y-127392000D01*
X211821000Y-119642000D02*
X211821000Y-122259000D01*
X211821000Y-124741000D02*
X211821000Y-127358000D01*
X211861000Y-119676000D02*
X211861000Y-122259000D01*
X211861000Y-124741000D02*
X211861000Y-127324000D01*
X211901000Y-119711000D02*
X211901000Y-122259000D01*
X211901000Y-124741000D02*
X211901000Y-127289000D01*
X211941000Y-119747000D02*
X211941000Y-122259000D01*
X211941000Y-124741000D02*
X211941000Y-127253000D01*
X211981000Y-119784000D02*
X211981000Y-122259000D01*
X211981000Y-124741000D02*
X211981000Y-127216000D01*
X212021000Y-119821000D02*
X212021000Y-122259000D01*
X212021000Y-124741000D02*
X212021000Y-127179000D01*
X212061000Y-119860000D02*
X212061000Y-122259000D01*
X212061000Y-124741000D02*
X212061000Y-127140000D01*
X212101000Y-119899000D02*
X212101000Y-122259000D01*
X212101000Y-124741000D02*
X212101000Y-127101000D01*
X212141000Y-119939000D02*
X212141000Y-122259000D01*
X212141000Y-124741000D02*
X212141000Y-127061000D01*
X212181000Y-119980000D02*
X212181000Y-122259000D01*
X212181000Y-124741000D02*
X212181000Y-127020000D01*
X212221000Y-120022000D02*
X212221000Y-122259000D01*
X212221000Y-124741000D02*
X212221000Y-126978000D01*
X212261000Y-120064000D02*
X212261000Y-126936000D01*
X212301000Y-120108000D02*
X212301000Y-126892000D01*
X212341000Y-120153000D02*
X212341000Y-126847000D01*
X212381000Y-120199000D02*
X212381000Y-126801000D01*
X212421000Y-120246000D02*
X212421000Y-126754000D01*
X212461000Y-120294000D02*
X212461000Y-126706000D01*
X212501000Y-120344000D02*
X212501000Y-126656000D01*
X212541000Y-120394000D02*
X212541000Y-126606000D01*
X212581000Y-120446000D02*
X212581000Y-126554000D01*
X212621000Y-120500000D02*
X212621000Y-126500000D01*
X212661000Y-120555000D02*
X212661000Y-126445000D01*
X212701000Y-120611000D02*
X212701000Y-126389000D01*
X212741000Y-120670000D02*
X212741000Y-126330000D01*
X212781000Y-120730000D02*
X212781000Y-126270000D01*
X212821000Y-120791000D02*
X212821000Y-126209000D01*
X212861000Y-120855000D02*
X212861000Y-126145000D01*
X212901000Y-120921000D02*
X212901000Y-126079000D01*
X212941000Y-120990000D02*
X212941000Y-126010000D01*
X212981000Y-121061000D02*
X212981000Y-125939000D01*
X213021000Y-121135000D02*
X213021000Y-125865000D01*
X213061000Y-121211000D02*
X213061000Y-125789000D01*
X213101000Y-121291000D02*
X213101000Y-125709000D01*
X213141000Y-121375000D02*
X213141000Y-125625000D01*
X213181000Y-121463000D02*
X213181000Y-125537000D01*
X213221000Y-121556000D02*
X213221000Y-125444000D01*
X213261000Y-121654000D02*
X213261000Y-125346000D01*
X213301000Y-121758000D02*
X213301000Y-125242000D01*
X213341000Y-121870000D02*
X213341000Y-125130000D01*
X213381000Y-121990000D02*
X213381000Y-125010000D01*
X213421000Y-122122000D02*
X213421000Y-124878000D01*
X213461000Y-122270000D02*
X213461000Y-124730000D01*
X213501000Y-122438000D02*
X213501000Y-124562000D01*
X213541000Y-122638000D02*
X213541000Y-124362000D01*
X213581000Y-122901000D02*
X213581000Y-124099000D01*
X203020354Y-120625000D02*
X204020354Y-120625000D01*
X203520354Y-120125000D02*
X203520354Y-121125000D01*
X144710000Y-127491422D02*
X144710000Y-128008578D01*
X143290000Y-127491422D02*
X143290000Y-128008578D01*
X144710000Y-149491422D02*
X144710000Y-150008578D01*
X143290000Y-149491422D02*
X143290000Y-150008578D01*
X215370000Y-141380000D02*
X215370000Y-146620000D01*
X202130000Y-141380000D02*
X202130000Y-146620000D01*
X202130000Y-146620000D02*
X215370000Y-146620000D01*
X202130000Y-141380000D02*
X215370000Y-141380000D01*
X202130000Y-112130000D02*
X215370000Y-112130000D01*
X202130000Y-117370000D02*
X215370000Y-117370000D01*
X202130000Y-112130000D02*
X202130000Y-117370000D01*
X215370000Y-112130000D02*
X215370000Y-117370000D01*
X145470000Y-116640000D02*
X142530000Y-116640000D01*
X145470000Y-116880000D02*
X142530000Y-116880000D01*
X145470000Y-116760000D02*
X142530000Y-116760000D01*
X144000000Y-122320000D02*
X144000000Y-121300000D01*
X144000000Y-114840000D02*
X144000000Y-115860000D01*
X145470000Y-121300000D02*
X145470000Y-115860000D01*
X142530000Y-121300000D02*
X145470000Y-121300000D01*
X142530000Y-115860000D02*
X142530000Y-121300000D01*
X145470000Y-115860000D02*
X142530000Y-115860000D01*
X195845000Y-128720000D02*
X195845000Y-123280000D01*
X195605000Y-128720000D02*
X195605000Y-123280000D01*
X195725000Y-128720000D02*
X195725000Y-123280000D01*
X187530000Y-123280000D02*
X187530000Y-124160000D01*
X197270000Y-123280000D02*
X187530000Y-123280000D01*
X197270000Y-124160000D02*
X197270000Y-123280000D01*
X187530000Y-128720000D02*
X187530000Y-127840000D01*
X197270000Y-128720000D02*
X187530000Y-128720000D01*
X197270000Y-127840000D02*
X197270000Y-128720000D01*
X162220000Y-127840000D02*
X162220000Y-128720000D01*
X162220000Y-128720000D02*
X152480000Y-128720000D01*
X152480000Y-128720000D02*
X152480000Y-127840000D01*
X162220000Y-124160000D02*
X162220000Y-123280000D01*
X162220000Y-123280000D02*
X152480000Y-123280000D01*
X152480000Y-123280000D02*
X152480000Y-124160000D01*
X160675000Y-128720000D02*
X160675000Y-123280000D01*
X160555000Y-128720000D02*
X160555000Y-123280000D01*
X160795000Y-128720000D02*
X160795000Y-123280000D01*
X197270000Y-134840000D02*
X197270000Y-135720000D01*
X197270000Y-135720000D02*
X187530000Y-135720000D01*
X187530000Y-135720000D02*
X187530000Y-134840000D01*
X197270000Y-131160000D02*
X197270000Y-130280000D01*
X197270000Y-130280000D02*
X187530000Y-130280000D01*
X187530000Y-130280000D02*
X187530000Y-131160000D01*
X195725000Y-135720000D02*
X195725000Y-130280000D01*
X195605000Y-135720000D02*
X195605000Y-130280000D01*
X195845000Y-135720000D02*
X195845000Y-130280000D01*
X160795000Y-135720000D02*
X160795000Y-130280000D01*
X160555000Y-135720000D02*
X160555000Y-130280000D01*
X160675000Y-135720000D02*
X160675000Y-130280000D01*
X152480000Y-130280000D02*
X152480000Y-131160000D01*
X162220000Y-130280000D02*
X152480000Y-130280000D01*
X162220000Y-131160000D02*
X162220000Y-130280000D01*
X152480000Y-135720000D02*
X152480000Y-134840000D01*
X162220000Y-135720000D02*
X152480000Y-135720000D01*
X162220000Y-134840000D02*
X162220000Y-135720000D01*
X114450000Y-149080000D02*
X114450000Y-146420000D01*
X106770000Y-149080000D02*
X114450000Y-149080000D01*
X106770000Y-146420000D02*
X114450000Y-146420000D01*
X106770000Y-149080000D02*
X106770000Y-146420000D01*
X105500000Y-149080000D02*
X104170000Y-149080000D01*
X104170000Y-149080000D02*
X104170000Y-147750000D01*
X163109000Y-115270000D02*
X163109000Y-113760000D01*
X166810000Y-115270000D02*
X166810000Y-113760000D01*
X170080000Y-113760000D02*
X159840000Y-113760000D01*
X159840000Y-115270000D02*
X159840000Y-110629000D01*
X170080000Y-115270000D02*
X170080000Y-110629000D01*
X170080000Y-110629000D02*
X159840000Y-110629000D01*
X170080000Y-115270000D02*
X159840000Y-115270000D01*
X152359000Y-115270000D02*
X152359000Y-113760000D01*
X156060000Y-115270000D02*
X156060000Y-113760000D01*
X159330000Y-113760000D02*
X149090000Y-113760000D01*
X149090000Y-115270000D02*
X149090000Y-110629000D01*
X159330000Y-115270000D02*
X159330000Y-110629000D01*
X159330000Y-110629000D02*
X149090000Y-110629000D01*
X159330000Y-115270000D02*
X149090000Y-115270000D01*
X179420000Y-143230000D02*
X189660000Y-143230000D01*
X179420000Y-147871000D02*
X189660000Y-147871000D01*
X179420000Y-143230000D02*
X179420000Y-147871000D01*
X189660000Y-143230000D02*
X189660000Y-147871000D01*
X179420000Y-144740000D02*
X189660000Y-144740000D01*
X182690000Y-143230000D02*
X182690000Y-144740000D01*
X186391000Y-143230000D02*
X186391000Y-144740000D01*
X160420000Y-143230000D02*
X170660000Y-143230000D01*
X160420000Y-147871000D02*
X170660000Y-147871000D01*
X160420000Y-143230000D02*
X160420000Y-147871000D01*
X170660000Y-143230000D02*
X170660000Y-147871000D01*
X160420000Y-144740000D02*
X170660000Y-144740000D01*
X163690000Y-143230000D02*
X163690000Y-144740000D01*
X167391000Y-143230000D02*
X167391000Y-144740000D01*
X197141000Y-143230000D02*
X197141000Y-144740000D01*
X193440000Y-143230000D02*
X193440000Y-144740000D01*
X190170000Y-144740000D02*
X200410000Y-144740000D01*
X200410000Y-143230000D02*
X200410000Y-147871000D01*
X190170000Y-143230000D02*
X190170000Y-147871000D01*
X190170000Y-147871000D02*
X200410000Y-147871000D01*
X190170000Y-143230000D02*
X200410000Y-143230000D01*
X156641000Y-143230000D02*
X156641000Y-144740000D01*
X152940000Y-143230000D02*
X152940000Y-144740000D01*
X149670000Y-144740000D02*
X159910000Y-144740000D01*
X159910000Y-143230000D02*
X159910000Y-147871000D01*
X149670000Y-143230000D02*
X149670000Y-147871000D01*
X149670000Y-147871000D02*
X159910000Y-147871000D01*
X149670000Y-143230000D02*
X159910000Y-143230000D01*
X104790000Y-142741422D02*
X104790000Y-143258578D01*
X106210000Y-142741422D02*
X106210000Y-143258578D01*
X112710000Y-142741422D02*
X112710000Y-143258578D01*
X111290000Y-142741422D02*
X111290000Y-143258578D01*
X116040000Y-129991422D02*
X116040000Y-130508578D01*
X117460000Y-129991422D02*
X117460000Y-130508578D01*
X116040000Y-135508578D02*
X116040000Y-134991422D01*
X117460000Y-135508578D02*
X117460000Y-134991422D01*
X117960000Y-143446078D02*
X117960000Y-142928922D01*
X116540000Y-143446078D02*
X116540000Y-142928922D01*
X129540000Y-117241422D02*
X129540000Y-117758578D01*
X130960000Y-117241422D02*
X130960000Y-117758578D01*
X166508578Y-109960000D02*
X165991422Y-109960000D01*
X166508578Y-108540000D02*
X165991422Y-108540000D01*
X157491422Y-109960000D02*
X158008578Y-109960000D01*
X157491422Y-108540000D02*
X158008578Y-108540000D01*
X192008578Y-148540000D02*
X191491422Y-148540000D01*
X192008578Y-149960000D02*
X191491422Y-149960000D01*
X182741422Y-149960000D02*
X183258578Y-149960000D01*
X182741422Y-148540000D02*
X183258578Y-148540000D01*
X153053922Y-149960000D02*
X153571078Y-149960000D01*
X153053922Y-148540000D02*
X153571078Y-148540000D01*
X162258578Y-149960000D02*
X161741422Y-149960000D01*
X162258578Y-148540000D02*
X161741422Y-148540000D01*
X112460000Y-126670000D02*
X110810000Y-126670000D01*
X112460000Y-131870000D02*
X112460000Y-126670000D01*
X107160000Y-131870000D02*
X112460000Y-131870000D01*
X107160000Y-126670000D02*
X107160000Y-131870000D01*
X108810000Y-126670000D02*
X107160000Y-126670000D01*
X110810000Y-126670000D02*
G75*
G02X108810000Y-126670000I-1000000J0D01*
G01*
X110810000Y-134420000D02*
G75*
G02X108810000Y-134420000I-1000000J0D01*
G01*
X108810000Y-134420000D02*
X107160000Y-134420000D01*
X107160000Y-134420000D02*
X107160000Y-139620000D01*
X107160000Y-139620000D02*
X112460000Y-139620000D01*
X112460000Y-139620000D02*
X112460000Y-134420000D01*
X112460000Y-134420000D02*
X110810000Y-134420000D01*
X126060000Y-127920000D02*
X124810000Y-127920000D01*
X126060000Y-145820000D02*
X126060000Y-127920000D01*
X121560000Y-145820000D02*
X126060000Y-145820000D01*
X121560000Y-127920000D02*
X121560000Y-145820000D01*
X122810000Y-127920000D02*
X121560000Y-127920000D01*
X124810000Y-127920000D02*
G75*
G02X122810000Y-127920000I-1000000J0D01*
G01*
X137810000Y-109670000D02*
G75*
G02X135810000Y-109670000I-1000000J0D01*
G01*
X135810000Y-109670000D02*
X134560000Y-109670000D01*
X134560000Y-109670000D02*
X134560000Y-127570000D01*
X134560000Y-127570000D02*
X139060000Y-127570000D01*
X139060000Y-127570000D02*
X139060000Y-109670000D01*
X139060000Y-109670000D02*
X137810000Y-109670000D01*
X137810000Y-132420000D02*
G75*
G02X135810000Y-132420000I-1000000J0D01*
G01*
X135810000Y-132420000D02*
X134560000Y-132420000D01*
X134560000Y-132420000D02*
X134560000Y-150320000D01*
X134560000Y-150320000D02*
X139060000Y-150320000D01*
X139060000Y-150320000D02*
X139060000Y-132420000D01*
X139060000Y-132420000D02*
X137810000Y-132420000D01*
X130960000Y-139991422D02*
X130960000Y-140508578D01*
X129540000Y-139991422D02*
X129540000Y-140508578D01*
D11*
X195114761Y-116817619D02*
X195019523Y-116770000D01*
X194924285Y-116674761D01*
X194781428Y-116531904D01*
X194686190Y-116484285D01*
X194590952Y-116484285D01*
X194638571Y-116722380D02*
X194543333Y-116674761D01*
X194448095Y-116579523D01*
X194400476Y-116389047D01*
X194400476Y-116055714D01*
X194448095Y-115865238D01*
X194543333Y-115770000D01*
X194638571Y-115722380D01*
X194829047Y-115722380D01*
X194924285Y-115770000D01*
X195019523Y-115865238D01*
X195067142Y-116055714D01*
X195067142Y-116389047D01*
X195019523Y-116579523D01*
X194924285Y-116674761D01*
X194829047Y-116722380D01*
X194638571Y-116722380D01*
X196019523Y-116722380D02*
X195448095Y-116722380D01*
X195733809Y-116722380D02*
X195733809Y-115722380D01*
X195638571Y-115865238D01*
X195543333Y-115960476D01*
X195448095Y-116008095D01*
X184364761Y-116817619D02*
X184269523Y-116770000D01*
X184174285Y-116674761D01*
X184031428Y-116531904D01*
X183936190Y-116484285D01*
X183840952Y-116484285D01*
X183888571Y-116722380D02*
X183793333Y-116674761D01*
X183698095Y-116579523D01*
X183650476Y-116389047D01*
X183650476Y-116055714D01*
X183698095Y-115865238D01*
X183793333Y-115770000D01*
X183888571Y-115722380D01*
X184079047Y-115722380D01*
X184174285Y-115770000D01*
X184269523Y-115865238D01*
X184317142Y-116055714D01*
X184317142Y-116389047D01*
X184269523Y-116579523D01*
X184174285Y-116674761D01*
X184079047Y-116722380D01*
X183888571Y-116722380D01*
X184650476Y-115722380D02*
X185269523Y-115722380D01*
X184936190Y-116103333D01*
X185079047Y-116103333D01*
X185174285Y-116150952D01*
X185221904Y-116198571D01*
X185269523Y-116293809D01*
X185269523Y-116531904D01*
X185221904Y-116627142D01*
X185174285Y-116674761D01*
X185079047Y-116722380D01*
X184793333Y-116722380D01*
X184698095Y-116674761D01*
X184650476Y-116627142D01*
X195857142Y-107952380D02*
X195523809Y-107476190D01*
X195285714Y-107952380D02*
X195285714Y-106952380D01*
X195666666Y-106952380D01*
X195761904Y-107000000D01*
X195809523Y-107047619D01*
X195857142Y-107142857D01*
X195857142Y-107285714D01*
X195809523Y-107380952D01*
X195761904Y-107428571D01*
X195666666Y-107476190D01*
X195285714Y-107476190D01*
X196809523Y-107952380D02*
X196238095Y-107952380D01*
X196523809Y-107952380D02*
X196523809Y-106952380D01*
X196428571Y-107095238D01*
X196333333Y-107190476D01*
X196238095Y-107238095D01*
X197428571Y-106952380D02*
X197523809Y-106952380D01*
X197619047Y-107000000D01*
X197666666Y-107047619D01*
X197714285Y-107142857D01*
X197761904Y-107333333D01*
X197761904Y-107571428D01*
X197714285Y-107761904D01*
X197666666Y-107857142D01*
X197619047Y-107904761D01*
X197523809Y-107952380D01*
X197428571Y-107952380D01*
X197333333Y-107904761D01*
X197285714Y-107857142D01*
X197238095Y-107761904D01*
X197190476Y-107571428D01*
X197190476Y-107333333D01*
X197238095Y-107142857D01*
X197285714Y-107047619D01*
X197333333Y-107000000D01*
X197428571Y-106952380D01*
X187357142Y-108052380D02*
X187023809Y-107576190D01*
X186785714Y-108052380D02*
X186785714Y-107052380D01*
X187166666Y-107052380D01*
X187261904Y-107100000D01*
X187309523Y-107147619D01*
X187357142Y-107242857D01*
X187357142Y-107385714D01*
X187309523Y-107480952D01*
X187261904Y-107528571D01*
X187166666Y-107576190D01*
X186785714Y-107576190D01*
X188309523Y-108052380D02*
X187738095Y-108052380D01*
X188023809Y-108052380D02*
X188023809Y-107052380D01*
X187928571Y-107195238D01*
X187833333Y-107290476D01*
X187738095Y-107338095D01*
X189261904Y-108052380D02*
X188690476Y-108052380D01*
X188976190Y-108052380D02*
X188976190Y-107052380D01*
X188880952Y-107195238D01*
X188785714Y-107290476D01*
X188690476Y-107338095D01*
X123333333Y-117857142D02*
X123285714Y-117904761D01*
X123142857Y-117952380D01*
X123047619Y-117952380D01*
X122904761Y-117904761D01*
X122809523Y-117809523D01*
X122761904Y-117714285D01*
X122714285Y-117523809D01*
X122714285Y-117380952D01*
X122761904Y-117190476D01*
X122809523Y-117095238D01*
X122904761Y-117000000D01*
X123047619Y-116952380D01*
X123142857Y-116952380D01*
X123285714Y-117000000D01*
X123333333Y-117047619D01*
X123666666Y-116952380D02*
X124333333Y-116952380D01*
X123904761Y-117952380D01*
X130583333Y-105357142D02*
X130535714Y-105404761D01*
X130392857Y-105452380D01*
X130297619Y-105452380D01*
X130154761Y-105404761D01*
X130059523Y-105309523D01*
X130011904Y-105214285D01*
X129964285Y-105023809D01*
X129964285Y-104880952D01*
X130011904Y-104690476D01*
X130059523Y-104595238D01*
X130154761Y-104500000D01*
X130297619Y-104452380D01*
X130392857Y-104452380D01*
X130535714Y-104500000D01*
X130583333Y-104547619D01*
X130964285Y-104547619D02*
X131011904Y-104500000D01*
X131107142Y-104452380D01*
X131345238Y-104452380D01*
X131440476Y-104500000D01*
X131488095Y-104547619D01*
X131535714Y-104642857D01*
X131535714Y-104738095D01*
X131488095Y-104880952D01*
X130916666Y-105452380D01*
X131535714Y-105452380D01*
X128083333Y-115202380D02*
X127750000Y-114726190D01*
X127511904Y-115202380D02*
X127511904Y-114202380D01*
X127892857Y-114202380D01*
X127988095Y-114250000D01*
X128035714Y-114297619D01*
X128083333Y-114392857D01*
X128083333Y-114535714D01*
X128035714Y-114630952D01*
X127988095Y-114678571D01*
X127892857Y-114726190D01*
X127511904Y-114726190D01*
X128559523Y-115202380D02*
X128750000Y-115202380D01*
X128845238Y-115154761D01*
X128892857Y-115107142D01*
X128988095Y-114964285D01*
X129035714Y-114773809D01*
X129035714Y-114392857D01*
X128988095Y-114297619D01*
X128940476Y-114250000D01*
X128845238Y-114202380D01*
X128654761Y-114202380D01*
X128559523Y-114250000D01*
X128511904Y-114297619D01*
X128464285Y-114392857D01*
X128464285Y-114630952D01*
X128511904Y-114726190D01*
X128559523Y-114773809D01*
X128654761Y-114821428D01*
X128845238Y-114821428D01*
X128940476Y-114773809D01*
X128988095Y-114726190D01*
X129035714Y-114630952D01*
X128083333Y-113452380D02*
X127750000Y-112976190D01*
X127511904Y-113452380D02*
X127511904Y-112452380D01*
X127892857Y-112452380D01*
X127988095Y-112500000D01*
X128035714Y-112547619D01*
X128083333Y-112642857D01*
X128083333Y-112785714D01*
X128035714Y-112880952D01*
X127988095Y-112928571D01*
X127892857Y-112976190D01*
X127511904Y-112976190D01*
X128654761Y-112880952D02*
X128559523Y-112833333D01*
X128511904Y-112785714D01*
X128464285Y-112690476D01*
X128464285Y-112642857D01*
X128511904Y-112547619D01*
X128559523Y-112500000D01*
X128654761Y-112452380D01*
X128845238Y-112452380D01*
X128940476Y-112500000D01*
X128988095Y-112547619D01*
X129035714Y-112642857D01*
X129035714Y-112690476D01*
X128988095Y-112785714D01*
X128940476Y-112833333D01*
X128845238Y-112880952D01*
X128654761Y-112880952D01*
X128559523Y-112928571D01*
X128511904Y-112976190D01*
X128464285Y-113071428D01*
X128464285Y-113261904D01*
X128511904Y-113357142D01*
X128559523Y-113404761D01*
X128654761Y-113452380D01*
X128845238Y-113452380D01*
X128940476Y-113404761D01*
X128988095Y-113357142D01*
X129035714Y-113261904D01*
X129035714Y-113071428D01*
X128988095Y-112976190D01*
X128940476Y-112928571D01*
X128845238Y-112880952D01*
X115666666Y-117952380D02*
X115666666Y-118666666D01*
X115619047Y-118809523D01*
X115523809Y-118904761D01*
X115380952Y-118952380D01*
X115285714Y-118952380D01*
X116142857Y-118952380D02*
X116142857Y-117952380D01*
X116523809Y-117952380D01*
X116619047Y-118000000D01*
X116666666Y-118047619D01*
X116714285Y-118142857D01*
X116714285Y-118285714D01*
X116666666Y-118380952D01*
X116619047Y-118428571D01*
X116523809Y-118476190D01*
X116142857Y-118476190D01*
X117666666Y-118952380D02*
X117095238Y-118952380D01*
X117380952Y-118952380D02*
X117380952Y-117952380D01*
X117285714Y-118095238D01*
X117190476Y-118190476D01*
X117095238Y-118238095D01*
X102122380Y-112971904D02*
X102931904Y-112971904D01*
X103027142Y-112924285D01*
X103074761Y-112876666D01*
X103122380Y-112781428D01*
X103122380Y-112590952D01*
X103074761Y-112495714D01*
X103027142Y-112448095D01*
X102931904Y-112400476D01*
X102122380Y-112400476D01*
X102455714Y-111495714D02*
X103122380Y-111495714D01*
X102074761Y-111733809D02*
X102789047Y-111971904D01*
X102789047Y-111352857D01*
X145761904Y-140452380D02*
X145761904Y-139452380D01*
X146000000Y-139452380D01*
X146142857Y-139500000D01*
X146238095Y-139595238D01*
X146285714Y-139690476D01*
X146333333Y-139880952D01*
X146333333Y-140023809D01*
X146285714Y-140214285D01*
X146238095Y-140309523D01*
X146142857Y-140404761D01*
X146000000Y-140452380D01*
X145761904Y-140452380D01*
X146714285Y-139547619D02*
X146761904Y-139500000D01*
X146857142Y-139452380D01*
X147095238Y-139452380D01*
X147190476Y-139500000D01*
X147238095Y-139547619D01*
X147285714Y-139642857D01*
X147285714Y-139738095D01*
X147238095Y-139880952D01*
X146666666Y-140452380D01*
X147285714Y-140452380D01*
X145838095Y-136702380D02*
X145838095Y-135702380D01*
X146409523Y-136702380D02*
X145980952Y-136130952D01*
X146409523Y-135702380D02*
X145838095Y-136273809D01*
X204357142Y-129857142D02*
X204309523Y-129904761D01*
X204166666Y-129952380D01*
X204071428Y-129952380D01*
X203928571Y-129904761D01*
X203833333Y-129809523D01*
X203785714Y-129714285D01*
X203738095Y-129523809D01*
X203738095Y-129380952D01*
X203785714Y-129190476D01*
X203833333Y-129095238D01*
X203928571Y-129000000D01*
X204071428Y-128952380D01*
X204166666Y-128952380D01*
X204309523Y-129000000D01*
X204357142Y-129047619D01*
X205309523Y-129952380D02*
X204738095Y-129952380D01*
X205023809Y-129952380D02*
X205023809Y-128952380D01*
X204928571Y-129095238D01*
X204833333Y-129190476D01*
X204738095Y-129238095D01*
X206166666Y-129285714D02*
X206166666Y-129952380D01*
X205928571Y-128904761D02*
X205690476Y-129619047D01*
X206309523Y-129619047D01*
X213357142Y-119607142D02*
X213309523Y-119654761D01*
X213166666Y-119702380D01*
X213071428Y-119702380D01*
X212928571Y-119654761D01*
X212833333Y-119559523D01*
X212785714Y-119464285D01*
X212738095Y-119273809D01*
X212738095Y-119130952D01*
X212785714Y-118940476D01*
X212833333Y-118845238D01*
X212928571Y-118750000D01*
X213071428Y-118702380D01*
X213166666Y-118702380D01*
X213309523Y-118750000D01*
X213357142Y-118797619D01*
X214309523Y-119702380D02*
X213738095Y-119702380D01*
X214023809Y-119702380D02*
X214023809Y-118702380D01*
X213928571Y-118845238D01*
X213833333Y-118940476D01*
X213738095Y-118988095D01*
X214642857Y-118702380D02*
X215261904Y-118702380D01*
X214928571Y-119083333D01*
X215071428Y-119083333D01*
X215166666Y-119130952D01*
X215214285Y-119178571D01*
X215261904Y-119273809D01*
X215261904Y-119511904D01*
X215214285Y-119607142D01*
X215166666Y-119654761D01*
X215071428Y-119702380D01*
X214785714Y-119702380D01*
X214690476Y-119654761D01*
X214642857Y-119607142D01*
X145833333Y-127857142D02*
X145785714Y-127904761D01*
X145642857Y-127952380D01*
X145547619Y-127952380D01*
X145404761Y-127904761D01*
X145309523Y-127809523D01*
X145261904Y-127714285D01*
X145214285Y-127523809D01*
X145214285Y-127380952D01*
X145261904Y-127190476D01*
X145309523Y-127095238D01*
X145404761Y-127000000D01*
X145547619Y-126952380D01*
X145642857Y-126952380D01*
X145785714Y-127000000D01*
X145833333Y-127047619D01*
X146404761Y-127380952D02*
X146309523Y-127333333D01*
X146261904Y-127285714D01*
X146214285Y-127190476D01*
X146214285Y-127142857D01*
X146261904Y-127047619D01*
X146309523Y-127000000D01*
X146404761Y-126952380D01*
X146595238Y-126952380D01*
X146690476Y-127000000D01*
X146738095Y-127047619D01*
X146785714Y-127142857D01*
X146785714Y-127190476D01*
X146738095Y-127285714D01*
X146690476Y-127333333D01*
X146595238Y-127380952D01*
X146404761Y-127380952D01*
X146309523Y-127428571D01*
X146261904Y-127476190D01*
X146214285Y-127571428D01*
X146214285Y-127761904D01*
X146261904Y-127857142D01*
X146309523Y-127904761D01*
X146404761Y-127952380D01*
X146595238Y-127952380D01*
X146690476Y-127904761D01*
X146738095Y-127857142D01*
X146785714Y-127761904D01*
X146785714Y-127571428D01*
X146738095Y-127476190D01*
X146690476Y-127428571D01*
X146595238Y-127380952D01*
X145833333Y-149857142D02*
X145785714Y-149904761D01*
X145642857Y-149952380D01*
X145547619Y-149952380D01*
X145404761Y-149904761D01*
X145309523Y-149809523D01*
X145261904Y-149714285D01*
X145214285Y-149523809D01*
X145214285Y-149380952D01*
X145261904Y-149190476D01*
X145309523Y-149095238D01*
X145404761Y-149000000D01*
X145547619Y-148952380D01*
X145642857Y-148952380D01*
X145785714Y-149000000D01*
X145833333Y-149047619D01*
X146309523Y-149952380D02*
X146500000Y-149952380D01*
X146595238Y-149904761D01*
X146642857Y-149857142D01*
X146738095Y-149714285D01*
X146785714Y-149523809D01*
X146785714Y-149142857D01*
X146738095Y-149047619D01*
X146690476Y-149000000D01*
X146595238Y-148952380D01*
X146404761Y-148952380D01*
X146309523Y-149000000D01*
X146261904Y-149047619D01*
X146214285Y-149142857D01*
X146214285Y-149380952D01*
X146261904Y-149476190D01*
X146309523Y-149523809D01*
X146404761Y-149571428D01*
X146595238Y-149571428D01*
X146690476Y-149523809D01*
X146738095Y-149476190D01*
X146785714Y-149380952D01*
X202107142Y-140857142D02*
X202059523Y-140904761D01*
X201916666Y-140952380D01*
X201821428Y-140952380D01*
X201678571Y-140904761D01*
X201583333Y-140809523D01*
X201535714Y-140714285D01*
X201488095Y-140523809D01*
X201488095Y-140380952D01*
X201535714Y-140190476D01*
X201583333Y-140095238D01*
X201678571Y-140000000D01*
X201821428Y-139952380D01*
X201916666Y-139952380D01*
X202059523Y-140000000D01*
X202107142Y-140047619D01*
X203059523Y-140952380D02*
X202488095Y-140952380D01*
X202773809Y-140952380D02*
X202773809Y-139952380D01*
X202678571Y-140095238D01*
X202583333Y-140190476D01*
X202488095Y-140238095D01*
X203440476Y-140047619D02*
X203488095Y-140000000D01*
X203583333Y-139952380D01*
X203821428Y-139952380D01*
X203916666Y-140000000D01*
X203964285Y-140047619D01*
X204011904Y-140142857D01*
X204011904Y-140238095D01*
X203964285Y-140380952D01*
X203392857Y-140952380D01*
X204011904Y-140952380D01*
X208107142Y-111357142D02*
X208059523Y-111404761D01*
X207916666Y-111452380D01*
X207821428Y-111452380D01*
X207678571Y-111404761D01*
X207583333Y-111309523D01*
X207535714Y-111214285D01*
X207488095Y-111023809D01*
X207488095Y-110880952D01*
X207535714Y-110690476D01*
X207583333Y-110595238D01*
X207678571Y-110500000D01*
X207821428Y-110452380D01*
X207916666Y-110452380D01*
X208059523Y-110500000D01*
X208107142Y-110547619D01*
X209059523Y-111452380D02*
X208488095Y-111452380D01*
X208773809Y-111452380D02*
X208773809Y-110452380D01*
X208678571Y-110595238D01*
X208583333Y-110690476D01*
X208488095Y-110738095D01*
X209964285Y-110452380D02*
X209488095Y-110452380D01*
X209440476Y-110928571D01*
X209488095Y-110880952D01*
X209583333Y-110833333D01*
X209821428Y-110833333D01*
X209916666Y-110880952D01*
X209964285Y-110928571D01*
X210011904Y-111023809D01*
X210011904Y-111261904D01*
X209964285Y-111357142D01*
X209916666Y-111404761D01*
X209821428Y-111452380D01*
X209583333Y-111452380D01*
X209488095Y-111404761D01*
X209440476Y-111357142D01*
X146011904Y-120702380D02*
X146011904Y-119702380D01*
X146250000Y-119702380D01*
X146392857Y-119750000D01*
X146488095Y-119845238D01*
X146535714Y-119940476D01*
X146583333Y-120130952D01*
X146583333Y-120273809D01*
X146535714Y-120464285D01*
X146488095Y-120559523D01*
X146392857Y-120654761D01*
X146250000Y-120702380D01*
X146011904Y-120702380D01*
X147535714Y-120702380D02*
X146964285Y-120702380D01*
X147250000Y-120702380D02*
X147250000Y-119702380D01*
X147154761Y-119845238D01*
X147059523Y-119940476D01*
X146964285Y-119988095D01*
X145838095Y-113952380D02*
X145838095Y-112952380D01*
X146409523Y-113952380D02*
X145980952Y-113380952D01*
X146409523Y-112952380D02*
X145838095Y-113523809D01*
X189511904Y-122702380D02*
X189511904Y-121702380D01*
X189750000Y-121702380D01*
X189892857Y-121750000D01*
X189988095Y-121845238D01*
X190035714Y-121940476D01*
X190083333Y-122130952D01*
X190083333Y-122273809D01*
X190035714Y-122464285D01*
X189988095Y-122559523D01*
X189892857Y-122654761D01*
X189750000Y-122702380D01*
X189511904Y-122702380D01*
X190416666Y-121702380D02*
X191035714Y-121702380D01*
X190702380Y-122083333D01*
X190845238Y-122083333D01*
X190940476Y-122130952D01*
X190988095Y-122178571D01*
X191035714Y-122273809D01*
X191035714Y-122511904D01*
X190988095Y-122607142D01*
X190940476Y-122654761D01*
X190845238Y-122702380D01*
X190559523Y-122702380D01*
X190464285Y-122654761D01*
X190416666Y-122607142D01*
X198488095Y-129052380D02*
X198488095Y-128052380D01*
X199059523Y-129052380D02*
X198630952Y-128480952D01*
X199059523Y-128052380D02*
X198488095Y-128623809D01*
X160261904Y-122452380D02*
X160261904Y-121452380D01*
X160500000Y-121452380D01*
X160642857Y-121500000D01*
X160738095Y-121595238D01*
X160785714Y-121690476D01*
X160833333Y-121880952D01*
X160833333Y-122023809D01*
X160785714Y-122214285D01*
X160738095Y-122309523D01*
X160642857Y-122404761D01*
X160500000Y-122452380D01*
X160261904Y-122452380D01*
X161690476Y-121785714D02*
X161690476Y-122452380D01*
X161452380Y-121404761D02*
X161214285Y-122119047D01*
X161833333Y-122119047D01*
X163438095Y-129052380D02*
X163438095Y-128052380D01*
X164009523Y-129052380D02*
X163580952Y-128480952D01*
X164009523Y-128052380D02*
X163438095Y-128623809D01*
X191661904Y-137172380D02*
X191661904Y-136172380D01*
X191900000Y-136172380D01*
X192042857Y-136220000D01*
X192138095Y-136315238D01*
X192185714Y-136410476D01*
X192233333Y-136600952D01*
X192233333Y-136743809D01*
X192185714Y-136934285D01*
X192138095Y-137029523D01*
X192042857Y-137124761D01*
X191900000Y-137172380D01*
X191661904Y-137172380D01*
X193138095Y-136172380D02*
X192661904Y-136172380D01*
X192614285Y-136648571D01*
X192661904Y-136600952D01*
X192757142Y-136553333D01*
X192995238Y-136553333D01*
X193090476Y-136600952D01*
X193138095Y-136648571D01*
X193185714Y-136743809D01*
X193185714Y-136981904D01*
X193138095Y-137077142D01*
X193090476Y-137124761D01*
X192995238Y-137172380D01*
X192757142Y-137172380D01*
X192661904Y-137124761D01*
X192614285Y-137077142D01*
X198488095Y-136052380D02*
X198488095Y-135052380D01*
X199059523Y-136052380D02*
X198630952Y-135480952D01*
X199059523Y-135052380D02*
X198488095Y-135623809D01*
X156611904Y-137172380D02*
X156611904Y-136172380D01*
X156850000Y-136172380D01*
X156992857Y-136220000D01*
X157088095Y-136315238D01*
X157135714Y-136410476D01*
X157183333Y-136600952D01*
X157183333Y-136743809D01*
X157135714Y-136934285D01*
X157088095Y-137029523D01*
X156992857Y-137124761D01*
X156850000Y-137172380D01*
X156611904Y-137172380D01*
X158040476Y-136172380D02*
X157850000Y-136172380D01*
X157754761Y-136220000D01*
X157707142Y-136267619D01*
X157611904Y-136410476D01*
X157564285Y-136600952D01*
X157564285Y-136981904D01*
X157611904Y-137077142D01*
X157659523Y-137124761D01*
X157754761Y-137172380D01*
X157945238Y-137172380D01*
X158040476Y-137124761D01*
X158088095Y-137077142D01*
X158135714Y-136981904D01*
X158135714Y-136743809D01*
X158088095Y-136648571D01*
X158040476Y-136600952D01*
X157945238Y-136553333D01*
X157754761Y-136553333D01*
X157659523Y-136600952D01*
X157611904Y-136648571D01*
X157564285Y-136743809D01*
X163438095Y-136052380D02*
X163438095Y-135052380D01*
X164009523Y-136052380D02*
X163580952Y-135480952D01*
X164009523Y-135052380D02*
X163438095Y-135623809D01*
X115666666Y-147202380D02*
X115666666Y-147916666D01*
X115619047Y-148059523D01*
X115523809Y-148154761D01*
X115380952Y-148202380D01*
X115285714Y-148202380D01*
X116666666Y-148202380D02*
X116095238Y-148202380D01*
X116380952Y-148202380D02*
X116380952Y-147202380D01*
X116285714Y-147345238D01*
X116190476Y-147440476D01*
X116095238Y-147488095D01*
X223916666Y-126952380D02*
X223916666Y-127666666D01*
X223869047Y-127809523D01*
X223773809Y-127904761D01*
X223630952Y-127952380D01*
X223535714Y-127952380D01*
X224345238Y-127047619D02*
X224392857Y-127000000D01*
X224488095Y-126952380D01*
X224726190Y-126952380D01*
X224821428Y-127000000D01*
X224869047Y-127047619D01*
X224916666Y-127142857D01*
X224916666Y-127238095D01*
X224869047Y-127380952D01*
X224297619Y-127952380D01*
X224916666Y-127952380D01*
X178666666Y-130702380D02*
X178666666Y-131416666D01*
X178619047Y-131559523D01*
X178523809Y-131654761D01*
X178380952Y-131702380D01*
X178285714Y-131702380D01*
X179047619Y-130702380D02*
X179666666Y-130702380D01*
X179333333Y-131083333D01*
X179476190Y-131083333D01*
X179571428Y-131130952D01*
X179619047Y-131178571D01*
X179666666Y-131273809D01*
X179666666Y-131511904D01*
X179619047Y-131607142D01*
X179571428Y-131654761D01*
X179476190Y-131702380D01*
X179190476Y-131702380D01*
X179095238Y-131654761D01*
X179047619Y-131607142D01*
X164864761Y-116817619D02*
X164769523Y-116770000D01*
X164674285Y-116674761D01*
X164531428Y-116531904D01*
X164436190Y-116484285D01*
X164340952Y-116484285D01*
X164388571Y-116722380D02*
X164293333Y-116674761D01*
X164198095Y-116579523D01*
X164150476Y-116389047D01*
X164150476Y-116055714D01*
X164198095Y-115865238D01*
X164293333Y-115770000D01*
X164388571Y-115722380D01*
X164579047Y-115722380D01*
X164674285Y-115770000D01*
X164769523Y-115865238D01*
X164817142Y-116055714D01*
X164817142Y-116389047D01*
X164769523Y-116579523D01*
X164674285Y-116674761D01*
X164579047Y-116722380D01*
X164388571Y-116722380D01*
X165198095Y-115817619D02*
X165245714Y-115770000D01*
X165340952Y-115722380D01*
X165579047Y-115722380D01*
X165674285Y-115770000D01*
X165721904Y-115817619D01*
X165769523Y-115912857D01*
X165769523Y-116008095D01*
X165721904Y-116150952D01*
X165150476Y-116722380D01*
X165769523Y-116722380D01*
X154114761Y-116817619D02*
X154019523Y-116770000D01*
X153924285Y-116674761D01*
X153781428Y-116531904D01*
X153686190Y-116484285D01*
X153590952Y-116484285D01*
X153638571Y-116722380D02*
X153543333Y-116674761D01*
X153448095Y-116579523D01*
X153400476Y-116389047D01*
X153400476Y-116055714D01*
X153448095Y-115865238D01*
X153543333Y-115770000D01*
X153638571Y-115722380D01*
X153829047Y-115722380D01*
X153924285Y-115770000D01*
X154019523Y-115865238D01*
X154067142Y-116055714D01*
X154067142Y-116389047D01*
X154019523Y-116579523D01*
X153924285Y-116674761D01*
X153829047Y-116722380D01*
X153638571Y-116722380D01*
X154924285Y-116055714D02*
X154924285Y-116722380D01*
X154686190Y-115674761D02*
X154448095Y-116389047D01*
X155067142Y-116389047D01*
X184444761Y-142777619D02*
X184349523Y-142730000D01*
X184254285Y-142634761D01*
X184111428Y-142491904D01*
X184016190Y-142444285D01*
X183920952Y-142444285D01*
X183968571Y-142682380D02*
X183873333Y-142634761D01*
X183778095Y-142539523D01*
X183730476Y-142349047D01*
X183730476Y-142015714D01*
X183778095Y-141825238D01*
X183873333Y-141730000D01*
X183968571Y-141682380D01*
X184159047Y-141682380D01*
X184254285Y-141730000D01*
X184349523Y-141825238D01*
X184397142Y-142015714D01*
X184397142Y-142349047D01*
X184349523Y-142539523D01*
X184254285Y-142634761D01*
X184159047Y-142682380D01*
X183968571Y-142682380D01*
X185301904Y-141682380D02*
X184825714Y-141682380D01*
X184778095Y-142158571D01*
X184825714Y-142110952D01*
X184920952Y-142063333D01*
X185159047Y-142063333D01*
X185254285Y-142110952D01*
X185301904Y-142158571D01*
X185349523Y-142253809D01*
X185349523Y-142491904D01*
X185301904Y-142587142D01*
X185254285Y-142634761D01*
X185159047Y-142682380D01*
X184920952Y-142682380D01*
X184825714Y-142634761D01*
X184778095Y-142587142D01*
X165444761Y-142777619D02*
X165349523Y-142730000D01*
X165254285Y-142634761D01*
X165111428Y-142491904D01*
X165016190Y-142444285D01*
X164920952Y-142444285D01*
X164968571Y-142682380D02*
X164873333Y-142634761D01*
X164778095Y-142539523D01*
X164730476Y-142349047D01*
X164730476Y-142015714D01*
X164778095Y-141825238D01*
X164873333Y-141730000D01*
X164968571Y-141682380D01*
X165159047Y-141682380D01*
X165254285Y-141730000D01*
X165349523Y-141825238D01*
X165397142Y-142015714D01*
X165397142Y-142349047D01*
X165349523Y-142539523D01*
X165254285Y-142634761D01*
X165159047Y-142682380D01*
X164968571Y-142682380D01*
X166254285Y-141682380D02*
X166063809Y-141682380D01*
X165968571Y-141730000D01*
X165920952Y-141777619D01*
X165825714Y-141920476D01*
X165778095Y-142110952D01*
X165778095Y-142491904D01*
X165825714Y-142587142D01*
X165873333Y-142634761D01*
X165968571Y-142682380D01*
X166159047Y-142682380D01*
X166254285Y-142634761D01*
X166301904Y-142587142D01*
X166349523Y-142491904D01*
X166349523Y-142253809D01*
X166301904Y-142158571D01*
X166254285Y-142110952D01*
X166159047Y-142063333D01*
X165968571Y-142063333D01*
X165873333Y-142110952D01*
X165825714Y-142158571D01*
X165778095Y-142253809D01*
X195194761Y-142777619D02*
X195099523Y-142730000D01*
X195004285Y-142634761D01*
X194861428Y-142491904D01*
X194766190Y-142444285D01*
X194670952Y-142444285D01*
X194718571Y-142682380D02*
X194623333Y-142634761D01*
X194528095Y-142539523D01*
X194480476Y-142349047D01*
X194480476Y-142015714D01*
X194528095Y-141825238D01*
X194623333Y-141730000D01*
X194718571Y-141682380D01*
X194909047Y-141682380D01*
X195004285Y-141730000D01*
X195099523Y-141825238D01*
X195147142Y-142015714D01*
X195147142Y-142349047D01*
X195099523Y-142539523D01*
X195004285Y-142634761D01*
X194909047Y-142682380D01*
X194718571Y-142682380D01*
X195480476Y-141682380D02*
X196147142Y-141682380D01*
X195718571Y-142682380D01*
X154694761Y-142777619D02*
X154599523Y-142730000D01*
X154504285Y-142634761D01*
X154361428Y-142491904D01*
X154266190Y-142444285D01*
X154170952Y-142444285D01*
X154218571Y-142682380D02*
X154123333Y-142634761D01*
X154028095Y-142539523D01*
X153980476Y-142349047D01*
X153980476Y-142015714D01*
X154028095Y-141825238D01*
X154123333Y-141730000D01*
X154218571Y-141682380D01*
X154409047Y-141682380D01*
X154504285Y-141730000D01*
X154599523Y-141825238D01*
X154647142Y-142015714D01*
X154647142Y-142349047D01*
X154599523Y-142539523D01*
X154504285Y-142634761D01*
X154409047Y-142682380D01*
X154218571Y-142682380D01*
X155218571Y-142110952D02*
X155123333Y-142063333D01*
X155075714Y-142015714D01*
X155028095Y-141920476D01*
X155028095Y-141872857D01*
X155075714Y-141777619D01*
X155123333Y-141730000D01*
X155218571Y-141682380D01*
X155409047Y-141682380D01*
X155504285Y-141730000D01*
X155551904Y-141777619D01*
X155599523Y-141872857D01*
X155599523Y-141920476D01*
X155551904Y-142015714D01*
X155504285Y-142063333D01*
X155409047Y-142110952D01*
X155218571Y-142110952D01*
X155123333Y-142158571D01*
X155075714Y-142206190D01*
X155028095Y-142301428D01*
X155028095Y-142491904D01*
X155075714Y-142587142D01*
X155123333Y-142634761D01*
X155218571Y-142682380D01*
X155409047Y-142682380D01*
X155504285Y-142634761D01*
X155551904Y-142587142D01*
X155599523Y-142491904D01*
X155599523Y-142301428D01*
X155551904Y-142206190D01*
X155504285Y-142158571D01*
X155409047Y-142110952D01*
X107333333Y-143202380D02*
X107000000Y-142726190D01*
X106761904Y-143202380D02*
X106761904Y-142202380D01*
X107142857Y-142202380D01*
X107238095Y-142250000D01*
X107285714Y-142297619D01*
X107333333Y-142392857D01*
X107333333Y-142535714D01*
X107285714Y-142630952D01*
X107238095Y-142678571D01*
X107142857Y-142726190D01*
X106761904Y-142726190D01*
X108285714Y-143202380D02*
X107714285Y-143202380D01*
X108000000Y-143202380D02*
X108000000Y-142202380D01*
X107904761Y-142345238D01*
X107809523Y-142440476D01*
X107714285Y-142488095D01*
X113833333Y-142452380D02*
X113500000Y-141976190D01*
X113261904Y-142452380D02*
X113261904Y-141452380D01*
X113642857Y-141452380D01*
X113738095Y-141500000D01*
X113785714Y-141547619D01*
X113833333Y-141642857D01*
X113833333Y-141785714D01*
X113785714Y-141880952D01*
X113738095Y-141928571D01*
X113642857Y-141976190D01*
X113261904Y-141976190D01*
X114214285Y-141547619D02*
X114261904Y-141500000D01*
X114357142Y-141452380D01*
X114595238Y-141452380D01*
X114690476Y-141500000D01*
X114738095Y-141547619D01*
X114785714Y-141642857D01*
X114785714Y-141738095D01*
X114738095Y-141880952D01*
X114166666Y-142452380D01*
X114785714Y-142452380D01*
X116833333Y-128202380D02*
X116500000Y-127726190D01*
X116261904Y-128202380D02*
X116261904Y-127202380D01*
X116642857Y-127202380D01*
X116738095Y-127250000D01*
X116785714Y-127297619D01*
X116833333Y-127392857D01*
X116833333Y-127535714D01*
X116785714Y-127630952D01*
X116738095Y-127678571D01*
X116642857Y-127726190D01*
X116261904Y-127726190D01*
X117166666Y-127202380D02*
X117785714Y-127202380D01*
X117452380Y-127583333D01*
X117595238Y-127583333D01*
X117690476Y-127630952D01*
X117738095Y-127678571D01*
X117785714Y-127773809D01*
X117785714Y-128011904D01*
X117738095Y-128107142D01*
X117690476Y-128154761D01*
X117595238Y-128202380D01*
X117309523Y-128202380D01*
X117214285Y-128154761D01*
X117166666Y-128107142D01*
X114583333Y-133952380D02*
X114250000Y-133476190D01*
X114011904Y-133952380D02*
X114011904Y-132952380D01*
X114392857Y-132952380D01*
X114488095Y-133000000D01*
X114535714Y-133047619D01*
X114583333Y-133142857D01*
X114583333Y-133285714D01*
X114535714Y-133380952D01*
X114488095Y-133428571D01*
X114392857Y-133476190D01*
X114011904Y-133476190D01*
X115440476Y-133285714D02*
X115440476Y-133952380D01*
X115202380Y-132904761D02*
X114964285Y-133619047D01*
X115583333Y-133619047D01*
X115083333Y-144952380D02*
X114750000Y-144476190D01*
X114511904Y-144952380D02*
X114511904Y-143952380D01*
X114892857Y-143952380D01*
X114988095Y-144000000D01*
X115035714Y-144047619D01*
X115083333Y-144142857D01*
X115083333Y-144285714D01*
X115035714Y-144380952D01*
X114988095Y-144428571D01*
X114892857Y-144476190D01*
X114511904Y-144476190D01*
X115988095Y-143952380D02*
X115511904Y-143952380D01*
X115464285Y-144428571D01*
X115511904Y-144380952D01*
X115607142Y-144333333D01*
X115845238Y-144333333D01*
X115940476Y-144380952D01*
X115988095Y-144428571D01*
X116035714Y-144523809D01*
X116035714Y-144761904D01*
X115988095Y-144857142D01*
X115940476Y-144904761D01*
X115845238Y-144952380D01*
X115607142Y-144952380D01*
X115511904Y-144904761D01*
X115464285Y-144857142D01*
X130083333Y-120702380D02*
X129750000Y-120226190D01*
X129511904Y-120702380D02*
X129511904Y-119702380D01*
X129892857Y-119702380D01*
X129988095Y-119750000D01*
X130035714Y-119797619D01*
X130083333Y-119892857D01*
X130083333Y-120035714D01*
X130035714Y-120130952D01*
X129988095Y-120178571D01*
X129892857Y-120226190D01*
X129511904Y-120226190D01*
X130940476Y-119702380D02*
X130750000Y-119702380D01*
X130654761Y-119750000D01*
X130607142Y-119797619D01*
X130511904Y-119940476D01*
X130464285Y-120130952D01*
X130464285Y-120511904D01*
X130511904Y-120607142D01*
X130559523Y-120654761D01*
X130654761Y-120702380D01*
X130845238Y-120702380D01*
X130940476Y-120654761D01*
X130988095Y-120607142D01*
X131035714Y-120511904D01*
X131035714Y-120273809D01*
X130988095Y-120178571D01*
X130940476Y-120130952D01*
X130845238Y-120083333D01*
X130654761Y-120083333D01*
X130559523Y-120130952D01*
X130511904Y-120178571D01*
X130464285Y-120273809D01*
X165607142Y-107952380D02*
X165273809Y-107476190D01*
X165035714Y-107952380D02*
X165035714Y-106952380D01*
X165416666Y-106952380D01*
X165511904Y-107000000D01*
X165559523Y-107047619D01*
X165607142Y-107142857D01*
X165607142Y-107285714D01*
X165559523Y-107380952D01*
X165511904Y-107428571D01*
X165416666Y-107476190D01*
X165035714Y-107476190D01*
X166559523Y-107952380D02*
X165988095Y-107952380D01*
X166273809Y-107952380D02*
X166273809Y-106952380D01*
X166178571Y-107095238D01*
X166083333Y-107190476D01*
X165988095Y-107238095D01*
X166940476Y-107047619D02*
X166988095Y-107000000D01*
X167083333Y-106952380D01*
X167321428Y-106952380D01*
X167416666Y-107000000D01*
X167464285Y-107047619D01*
X167511904Y-107142857D01*
X167511904Y-107238095D01*
X167464285Y-107380952D01*
X166892857Y-107952380D01*
X167511904Y-107952380D01*
X157107142Y-108052380D02*
X156773809Y-107576190D01*
X156535714Y-108052380D02*
X156535714Y-107052380D01*
X156916666Y-107052380D01*
X157011904Y-107100000D01*
X157059523Y-107147619D01*
X157107142Y-107242857D01*
X157107142Y-107385714D01*
X157059523Y-107480952D01*
X157011904Y-107528571D01*
X156916666Y-107576190D01*
X156535714Y-107576190D01*
X158059523Y-108052380D02*
X157488095Y-108052380D01*
X157773809Y-108052380D02*
X157773809Y-107052380D01*
X157678571Y-107195238D01*
X157583333Y-107290476D01*
X157488095Y-107338095D01*
X158392857Y-107052380D02*
X159011904Y-107052380D01*
X158678571Y-107433333D01*
X158821428Y-107433333D01*
X158916666Y-107480952D01*
X158964285Y-107528571D01*
X159011904Y-107623809D01*
X159011904Y-107861904D01*
X158964285Y-107957142D01*
X158916666Y-108004761D01*
X158821428Y-108052380D01*
X158535714Y-108052380D01*
X158440476Y-108004761D01*
X158392857Y-107957142D01*
X191107142Y-151352380D02*
X190773809Y-150876190D01*
X190535714Y-151352380D02*
X190535714Y-150352380D01*
X190916666Y-150352380D01*
X191011904Y-150400000D01*
X191059523Y-150447619D01*
X191107142Y-150542857D01*
X191107142Y-150685714D01*
X191059523Y-150780952D01*
X191011904Y-150828571D01*
X190916666Y-150876190D01*
X190535714Y-150876190D01*
X192059523Y-151352380D02*
X191488095Y-151352380D01*
X191773809Y-151352380D02*
X191773809Y-150352380D01*
X191678571Y-150495238D01*
X191583333Y-150590476D01*
X191488095Y-150638095D01*
X192916666Y-150685714D02*
X192916666Y-151352380D01*
X192678571Y-150304761D02*
X192440476Y-151019047D01*
X193059523Y-151019047D01*
X182357142Y-148052380D02*
X182023809Y-147576190D01*
X181785714Y-148052380D02*
X181785714Y-147052380D01*
X182166666Y-147052380D01*
X182261904Y-147100000D01*
X182309523Y-147147619D01*
X182357142Y-147242857D01*
X182357142Y-147385714D01*
X182309523Y-147480952D01*
X182261904Y-147528571D01*
X182166666Y-147576190D01*
X181785714Y-147576190D01*
X183309523Y-148052380D02*
X182738095Y-148052380D01*
X183023809Y-148052380D02*
X183023809Y-147052380D01*
X182928571Y-147195238D01*
X182833333Y-147290476D01*
X182738095Y-147338095D01*
X184214285Y-147052380D02*
X183738095Y-147052380D01*
X183690476Y-147528571D01*
X183738095Y-147480952D01*
X183833333Y-147433333D01*
X184071428Y-147433333D01*
X184166666Y-147480952D01*
X184214285Y-147528571D01*
X184261904Y-147623809D01*
X184261904Y-147861904D01*
X184214285Y-147957142D01*
X184166666Y-148004761D01*
X184071428Y-148052380D01*
X183833333Y-148052380D01*
X183738095Y-148004761D01*
X183690476Y-147957142D01*
X152669642Y-148052380D02*
X152336309Y-147576190D01*
X152098214Y-148052380D02*
X152098214Y-147052380D01*
X152479166Y-147052380D01*
X152574404Y-147100000D01*
X152622023Y-147147619D01*
X152669642Y-147242857D01*
X152669642Y-147385714D01*
X152622023Y-147480952D01*
X152574404Y-147528571D01*
X152479166Y-147576190D01*
X152098214Y-147576190D01*
X153622023Y-148052380D02*
X153050595Y-148052380D01*
X153336309Y-148052380D02*
X153336309Y-147052380D01*
X153241071Y-147195238D01*
X153145833Y-147290476D01*
X153050595Y-147338095D01*
X154479166Y-147052380D02*
X154288690Y-147052380D01*
X154193452Y-147100000D01*
X154145833Y-147147619D01*
X154050595Y-147290476D01*
X154002976Y-147480952D01*
X154002976Y-147861904D01*
X154050595Y-147957142D01*
X154098214Y-148004761D01*
X154193452Y-148052380D01*
X154383928Y-148052380D01*
X154479166Y-148004761D01*
X154526785Y-147957142D01*
X154574404Y-147861904D01*
X154574404Y-147623809D01*
X154526785Y-147528571D01*
X154479166Y-147480952D01*
X154383928Y-147433333D01*
X154193452Y-147433333D01*
X154098214Y-147480952D01*
X154050595Y-147528571D01*
X154002976Y-147623809D01*
X161357142Y-151352380D02*
X161023809Y-150876190D01*
X160785714Y-151352380D02*
X160785714Y-150352380D01*
X161166666Y-150352380D01*
X161261904Y-150400000D01*
X161309523Y-150447619D01*
X161357142Y-150542857D01*
X161357142Y-150685714D01*
X161309523Y-150780952D01*
X161261904Y-150828571D01*
X161166666Y-150876190D01*
X160785714Y-150876190D01*
X162309523Y-151352380D02*
X161738095Y-151352380D01*
X162023809Y-151352380D02*
X162023809Y-150352380D01*
X161928571Y-150495238D01*
X161833333Y-150590476D01*
X161738095Y-150638095D01*
X162642857Y-150352380D02*
X163309523Y-150352380D01*
X162880952Y-151352380D01*
X109048095Y-125122380D02*
X109048095Y-125931904D01*
X109095714Y-126027142D01*
X109143333Y-126074761D01*
X109238571Y-126122380D01*
X109429047Y-126122380D01*
X109524285Y-126074761D01*
X109571904Y-126027142D01*
X109619523Y-125931904D01*
X109619523Y-125122380D01*
X110619523Y-126122380D02*
X110048095Y-126122380D01*
X110333809Y-126122380D02*
X110333809Y-125122380D01*
X110238571Y-125265238D01*
X110143333Y-125360476D01*
X110048095Y-125408095D01*
X109048095Y-132872380D02*
X109048095Y-133681904D01*
X109095714Y-133777142D01*
X109143333Y-133824761D01*
X109238571Y-133872380D01*
X109429047Y-133872380D01*
X109524285Y-133824761D01*
X109571904Y-133777142D01*
X109619523Y-133681904D01*
X109619523Y-132872380D01*
X110048095Y-132967619D02*
X110095714Y-132920000D01*
X110190952Y-132872380D01*
X110429047Y-132872380D01*
X110524285Y-132920000D01*
X110571904Y-132967619D01*
X110619523Y-133062857D01*
X110619523Y-133158095D01*
X110571904Y-133300952D01*
X110000476Y-133872380D01*
X110619523Y-133872380D01*
X123048095Y-126372380D02*
X123048095Y-127181904D01*
X123095714Y-127277142D01*
X123143333Y-127324761D01*
X123238571Y-127372380D01*
X123429047Y-127372380D01*
X123524285Y-127324761D01*
X123571904Y-127277142D01*
X123619523Y-127181904D01*
X123619523Y-126372380D01*
X124000476Y-126372380D02*
X124619523Y-126372380D01*
X124286190Y-126753333D01*
X124429047Y-126753333D01*
X124524285Y-126800952D01*
X124571904Y-126848571D01*
X124619523Y-126943809D01*
X124619523Y-127181904D01*
X124571904Y-127277142D01*
X124524285Y-127324761D01*
X124429047Y-127372380D01*
X124143333Y-127372380D01*
X124048095Y-127324761D01*
X124000476Y-127277142D01*
X135238095Y-108202380D02*
X135238095Y-109011904D01*
X135285714Y-109107142D01*
X135333333Y-109154761D01*
X135428571Y-109202380D01*
X135619047Y-109202380D01*
X135714285Y-109154761D01*
X135761904Y-109107142D01*
X135809523Y-109011904D01*
X135809523Y-108202380D01*
X136761904Y-108202380D02*
X136285714Y-108202380D01*
X136238095Y-108678571D01*
X136285714Y-108630952D01*
X136380952Y-108583333D01*
X136619047Y-108583333D01*
X136714285Y-108630952D01*
X136761904Y-108678571D01*
X136809523Y-108773809D01*
X136809523Y-109011904D01*
X136761904Y-109107142D01*
X136714285Y-109154761D01*
X136619047Y-109202380D01*
X136380952Y-109202380D01*
X136285714Y-109154761D01*
X136238095Y-109107142D01*
X135238095Y-130872380D02*
X135238095Y-131681904D01*
X135285714Y-131777142D01*
X135333333Y-131824761D01*
X135428571Y-131872380D01*
X135619047Y-131872380D01*
X135714285Y-131824761D01*
X135761904Y-131777142D01*
X135809523Y-131681904D01*
X135809523Y-130872380D01*
X136714285Y-130872380D02*
X136523809Y-130872380D01*
X136428571Y-130920000D01*
X136380952Y-130967619D01*
X136285714Y-131110476D01*
X136238095Y-131300952D01*
X136238095Y-131681904D01*
X136285714Y-131777142D01*
X136333333Y-131824761D01*
X136428571Y-131872380D01*
X136619047Y-131872380D01*
X136714285Y-131824761D01*
X136761904Y-131777142D01*
X136809523Y-131681904D01*
X136809523Y-131443809D01*
X136761904Y-131348571D01*
X136714285Y-131300952D01*
X136619047Y-131253333D01*
X136428571Y-131253333D01*
X136333333Y-131300952D01*
X136285714Y-131348571D01*
X136238095Y-131443809D01*
X130083333Y-143202380D02*
X129750000Y-142726190D01*
X129511904Y-143202380D02*
X129511904Y-142202380D01*
X129892857Y-142202380D01*
X129988095Y-142250000D01*
X130035714Y-142297619D01*
X130083333Y-142392857D01*
X130083333Y-142535714D01*
X130035714Y-142630952D01*
X129988095Y-142678571D01*
X129892857Y-142726190D01*
X129511904Y-142726190D01*
X130416666Y-142202380D02*
X131083333Y-142202380D01*
X130654761Y-143202380D01*
M02*
