G04 #@! TF.GenerationSoftware,KiCad,Pcbnew,5.1.5*
G04 #@! TF.CreationDate,2020-04-12T13:11:47+02:00*
G04 #@! TF.ProjectId,h_bridge,685f6272-6964-4676-952e-6b696361645f,rev?*
G04 #@! TF.SameCoordinates,Original*
G04 #@! TF.FileFunction,Copper,L2,Bot*
G04 #@! TF.FilePolarity,Positive*
%FSLAX46Y46*%
G04 Gerber Fmt 4.6, Leading zero omitted, Abs format (unit mm)*
G04 Created by KiCad (PCBNEW 5.1.5) date 2020-04-12 13:11:47*
%MOMM*%
%LPD*%
G04 APERTURE LIST*
%ADD10C,0.150000*%
%ADD11C,0.200000*%
%ADD12R,1.905000X2.000000*%
%ADD13O,1.905000X2.000000*%
%ADD14C,0.100000*%
%ADD15C,1.600000*%
%ADD16R,1.600000X1.600000*%
%ADD17R,1.700000X1.700000*%
%ADD18O,1.700000X1.700000*%
%ADD19R,2.000000X1.905000*%
%ADD20O,2.000000X1.905000*%
%ADD21R,2.200000X2.200000*%
%ADD22O,2.200000X2.200000*%
%ADD23R,2.000000X2.000000*%
%ADD24C,2.000000*%
%ADD25O,3.200000X3.200000*%
%ADD26R,3.200000X3.200000*%
%ADD27R,5.999480X5.999480*%
%ADD28C,5.999480*%
%ADD29O,1.600000X1.600000*%
%ADD30O,2.400000X1.600000*%
%ADD31R,2.400000X1.600000*%
%ADD32C,0.800000*%
%ADD33C,0.250000*%
%ADD34C,0.500000*%
%ADD35C,1.000000*%
%ADD36C,0.254000*%
G04 APERTURE END LIST*
D10*
X111921413Y-102952380D02*
X112397604Y-102952380D01*
X112272604Y-101952380D01*
X111076175Y-102285714D02*
X111159508Y-102952380D01*
X111504747Y-102285714D02*
X111570223Y-102809523D01*
X111534508Y-102904761D01*
X111445223Y-102952380D01*
X111302366Y-102952380D01*
X111201175Y-102904761D01*
X111147604Y-102857142D01*
X110683318Y-102952380D02*
X110558318Y-101952380D01*
X110540461Y-102571428D02*
X110302366Y-102952380D01*
X110219032Y-102285714D02*
X110647604Y-102666666D01*
X109445223Y-102952380D02*
X109379747Y-102428571D01*
X109415461Y-102333333D01*
X109504747Y-102285714D01*
X109695223Y-102285714D01*
X109796413Y-102333333D01*
X109439270Y-102904761D02*
X109540461Y-102952380D01*
X109778556Y-102952380D01*
X109867842Y-102904761D01*
X109903556Y-102809523D01*
X109891651Y-102714285D01*
X109832127Y-102619047D01*
X109730937Y-102571428D01*
X109492842Y-102571428D01*
X109391651Y-102523809D01*
X109010699Y-102904761D02*
X108921413Y-102952380D01*
X108730937Y-102952380D01*
X108629747Y-102904761D01*
X108570223Y-102809523D01*
X108564270Y-102761904D01*
X108599985Y-102666666D01*
X108689270Y-102619047D01*
X108832127Y-102619047D01*
X108921413Y-102571428D01*
X108957127Y-102476190D01*
X108951175Y-102428571D01*
X108891651Y-102333333D01*
X108790461Y-102285714D01*
X108647604Y-102285714D01*
X108558318Y-102333333D01*
X107397604Y-102952380D02*
X107272604Y-101952380D01*
X107028556Y-102666666D01*
X106605937Y-101952380D01*
X106730937Y-102952380D01*
X105826175Y-102952380D02*
X105760699Y-102428571D01*
X105796413Y-102333333D01*
X105885699Y-102285714D01*
X106076175Y-102285714D01*
X106177366Y-102333333D01*
X105820223Y-102904761D02*
X105921413Y-102952380D01*
X106159508Y-102952380D01*
X106248794Y-102904761D01*
X106284508Y-102809523D01*
X106272604Y-102714285D01*
X106213080Y-102619047D01*
X106111889Y-102571428D01*
X105873794Y-102571428D01*
X105772604Y-102523809D01*
X104921413Y-102952380D02*
X104855937Y-102428571D01*
X104891651Y-102333333D01*
X104980937Y-102285714D01*
X105171413Y-102285714D01*
X105272604Y-102333333D01*
X104915461Y-102904761D02*
X105016651Y-102952380D01*
X105254747Y-102952380D01*
X105344032Y-102904761D01*
X105379747Y-102809523D01*
X105367842Y-102714285D01*
X105308318Y-102619047D01*
X105207127Y-102571428D01*
X104969032Y-102571428D01*
X104867842Y-102523809D01*
X104445223Y-102952380D02*
X104361889Y-102285714D01*
X104385699Y-102476190D02*
X104326175Y-102380952D01*
X104272604Y-102333333D01*
X104171413Y-102285714D01*
X104076175Y-102285714D01*
D11*
X120065238Y-150452380D02*
X120065238Y-149452380D01*
X120303333Y-149452380D01*
X120446190Y-149500000D01*
X120541428Y-149595238D01*
X120589047Y-149690476D01*
X120636666Y-149880952D01*
X120636666Y-150023809D01*
X120589047Y-150214285D01*
X120541428Y-150309523D01*
X120446190Y-150404761D01*
X120303333Y-150452380D01*
X120065238Y-150452380D01*
X121208095Y-150452380D02*
X121112857Y-150404761D01*
X121065238Y-150357142D01*
X121017619Y-150261904D01*
X121017619Y-149976190D01*
X121065238Y-149880952D01*
X121112857Y-149833333D01*
X121208095Y-149785714D01*
X121350952Y-149785714D01*
X121446190Y-149833333D01*
X121493809Y-149880952D01*
X121541428Y-149976190D01*
X121541428Y-150261904D01*
X121493809Y-150357142D01*
X121446190Y-150404761D01*
X121350952Y-150452380D01*
X121208095Y-150452380D01*
X121874761Y-149785714D02*
X122065238Y-150452380D01*
X122255714Y-149976190D01*
X122446190Y-150452380D01*
X122636666Y-149785714D01*
X123017619Y-149785714D02*
X123017619Y-150452380D01*
X123017619Y-149880952D02*
X123065238Y-149833333D01*
X123160476Y-149785714D01*
X123303333Y-149785714D01*
X123398571Y-149833333D01*
X123446190Y-149928571D01*
X123446190Y-150452380D01*
D12*
X197750000Y-112000000D03*
D13*
X195210000Y-112000000D03*
X192670000Y-112000000D03*
D12*
X187000000Y-112000000D03*
D13*
X184460000Y-112000000D03*
X181920000Y-112000000D03*
G04 #@! TA.AperFunction,SMDPad,CuDef*
D14*
G36*
X120480142Y-113951174D02*
G01*
X120503803Y-113954684D01*
X120527007Y-113960496D01*
X120549529Y-113968554D01*
X120571153Y-113978782D01*
X120591670Y-113991079D01*
X120610883Y-114005329D01*
X120628607Y-114021393D01*
X120644671Y-114039117D01*
X120658921Y-114058330D01*
X120671218Y-114078847D01*
X120681446Y-114100471D01*
X120689504Y-114122993D01*
X120695316Y-114146197D01*
X120698826Y-114169858D01*
X120700000Y-114193750D01*
X120700000Y-114681250D01*
X120698826Y-114705142D01*
X120695316Y-114728803D01*
X120689504Y-114752007D01*
X120681446Y-114774529D01*
X120671218Y-114796153D01*
X120658921Y-114816670D01*
X120644671Y-114835883D01*
X120628607Y-114853607D01*
X120610883Y-114869671D01*
X120591670Y-114883921D01*
X120571153Y-114896218D01*
X120549529Y-114906446D01*
X120527007Y-114914504D01*
X120503803Y-114920316D01*
X120480142Y-114923826D01*
X120456250Y-114925000D01*
X119543750Y-114925000D01*
X119519858Y-114923826D01*
X119496197Y-114920316D01*
X119472993Y-114914504D01*
X119450471Y-114906446D01*
X119428847Y-114896218D01*
X119408330Y-114883921D01*
X119389117Y-114869671D01*
X119371393Y-114853607D01*
X119355329Y-114835883D01*
X119341079Y-114816670D01*
X119328782Y-114796153D01*
X119318554Y-114774529D01*
X119310496Y-114752007D01*
X119304684Y-114728803D01*
X119301174Y-114705142D01*
X119300000Y-114681250D01*
X119300000Y-114193750D01*
X119301174Y-114169858D01*
X119304684Y-114146197D01*
X119310496Y-114122993D01*
X119318554Y-114100471D01*
X119328782Y-114078847D01*
X119341079Y-114058330D01*
X119355329Y-114039117D01*
X119371393Y-114021393D01*
X119389117Y-114005329D01*
X119408330Y-113991079D01*
X119428847Y-113978782D01*
X119450471Y-113968554D01*
X119472993Y-113960496D01*
X119496197Y-113954684D01*
X119519858Y-113951174D01*
X119543750Y-113950000D01*
X120456250Y-113950000D01*
X120480142Y-113951174D01*
G37*
G04 #@! TD.AperFunction*
G04 #@! TA.AperFunction,SMDPad,CuDef*
G36*
X120480142Y-112076174D02*
G01*
X120503803Y-112079684D01*
X120527007Y-112085496D01*
X120549529Y-112093554D01*
X120571153Y-112103782D01*
X120591670Y-112116079D01*
X120610883Y-112130329D01*
X120628607Y-112146393D01*
X120644671Y-112164117D01*
X120658921Y-112183330D01*
X120671218Y-112203847D01*
X120681446Y-112225471D01*
X120689504Y-112247993D01*
X120695316Y-112271197D01*
X120698826Y-112294858D01*
X120700000Y-112318750D01*
X120700000Y-112806250D01*
X120698826Y-112830142D01*
X120695316Y-112853803D01*
X120689504Y-112877007D01*
X120681446Y-112899529D01*
X120671218Y-112921153D01*
X120658921Y-112941670D01*
X120644671Y-112960883D01*
X120628607Y-112978607D01*
X120610883Y-112994671D01*
X120591670Y-113008921D01*
X120571153Y-113021218D01*
X120549529Y-113031446D01*
X120527007Y-113039504D01*
X120503803Y-113045316D01*
X120480142Y-113048826D01*
X120456250Y-113050000D01*
X119543750Y-113050000D01*
X119519858Y-113048826D01*
X119496197Y-113045316D01*
X119472993Y-113039504D01*
X119450471Y-113031446D01*
X119428847Y-113021218D01*
X119408330Y-113008921D01*
X119389117Y-112994671D01*
X119371393Y-112978607D01*
X119355329Y-112960883D01*
X119341079Y-112941670D01*
X119328782Y-112921153D01*
X119318554Y-112899529D01*
X119310496Y-112877007D01*
X119304684Y-112853803D01*
X119301174Y-112830142D01*
X119300000Y-112806250D01*
X119300000Y-112318750D01*
X119301174Y-112294858D01*
X119304684Y-112271197D01*
X119310496Y-112247993D01*
X119318554Y-112225471D01*
X119328782Y-112203847D01*
X119341079Y-112183330D01*
X119355329Y-112164117D01*
X119371393Y-112146393D01*
X119389117Y-112130329D01*
X119408330Y-112116079D01*
X119428847Y-112103782D01*
X119450471Y-112093554D01*
X119472993Y-112085496D01*
X119496197Y-112079684D01*
X119519858Y-112076174D01*
X119543750Y-112075000D01*
X120456250Y-112075000D01*
X120480142Y-112076174D01*
G37*
G04 #@! TD.AperFunction*
D15*
X126500000Y-120500000D03*
D16*
X124000000Y-120500000D03*
G04 #@! TA.AperFunction,SMDPad,CuDef*
D14*
G36*
X126730142Y-110576174D02*
G01*
X126753803Y-110579684D01*
X126777007Y-110585496D01*
X126799529Y-110593554D01*
X126821153Y-110603782D01*
X126841670Y-110616079D01*
X126860883Y-110630329D01*
X126878607Y-110646393D01*
X126894671Y-110664117D01*
X126908921Y-110683330D01*
X126921218Y-110703847D01*
X126931446Y-110725471D01*
X126939504Y-110747993D01*
X126945316Y-110771197D01*
X126948826Y-110794858D01*
X126950000Y-110818750D01*
X126950000Y-111306250D01*
X126948826Y-111330142D01*
X126945316Y-111353803D01*
X126939504Y-111377007D01*
X126931446Y-111399529D01*
X126921218Y-111421153D01*
X126908921Y-111441670D01*
X126894671Y-111460883D01*
X126878607Y-111478607D01*
X126860883Y-111494671D01*
X126841670Y-111508921D01*
X126821153Y-111521218D01*
X126799529Y-111531446D01*
X126777007Y-111539504D01*
X126753803Y-111545316D01*
X126730142Y-111548826D01*
X126706250Y-111550000D01*
X125793750Y-111550000D01*
X125769858Y-111548826D01*
X125746197Y-111545316D01*
X125722993Y-111539504D01*
X125700471Y-111531446D01*
X125678847Y-111521218D01*
X125658330Y-111508921D01*
X125639117Y-111494671D01*
X125621393Y-111478607D01*
X125605329Y-111460883D01*
X125591079Y-111441670D01*
X125578782Y-111421153D01*
X125568554Y-111399529D01*
X125560496Y-111377007D01*
X125554684Y-111353803D01*
X125551174Y-111330142D01*
X125550000Y-111306250D01*
X125550000Y-110818750D01*
X125551174Y-110794858D01*
X125554684Y-110771197D01*
X125560496Y-110747993D01*
X125568554Y-110725471D01*
X125578782Y-110703847D01*
X125591079Y-110683330D01*
X125605329Y-110664117D01*
X125621393Y-110646393D01*
X125639117Y-110630329D01*
X125658330Y-110616079D01*
X125678847Y-110603782D01*
X125700471Y-110593554D01*
X125722993Y-110585496D01*
X125746197Y-110579684D01*
X125769858Y-110576174D01*
X125793750Y-110575000D01*
X126706250Y-110575000D01*
X126730142Y-110576174D01*
G37*
G04 #@! TD.AperFunction*
G04 #@! TA.AperFunction,SMDPad,CuDef*
G36*
X126730142Y-112451174D02*
G01*
X126753803Y-112454684D01*
X126777007Y-112460496D01*
X126799529Y-112468554D01*
X126821153Y-112478782D01*
X126841670Y-112491079D01*
X126860883Y-112505329D01*
X126878607Y-112521393D01*
X126894671Y-112539117D01*
X126908921Y-112558330D01*
X126921218Y-112578847D01*
X126931446Y-112600471D01*
X126939504Y-112622993D01*
X126945316Y-112646197D01*
X126948826Y-112669858D01*
X126950000Y-112693750D01*
X126950000Y-113181250D01*
X126948826Y-113205142D01*
X126945316Y-113228803D01*
X126939504Y-113252007D01*
X126931446Y-113274529D01*
X126921218Y-113296153D01*
X126908921Y-113316670D01*
X126894671Y-113335883D01*
X126878607Y-113353607D01*
X126860883Y-113369671D01*
X126841670Y-113383921D01*
X126821153Y-113396218D01*
X126799529Y-113406446D01*
X126777007Y-113414504D01*
X126753803Y-113420316D01*
X126730142Y-113423826D01*
X126706250Y-113425000D01*
X125793750Y-113425000D01*
X125769858Y-113423826D01*
X125746197Y-113420316D01*
X125722993Y-113414504D01*
X125700471Y-113406446D01*
X125678847Y-113396218D01*
X125658330Y-113383921D01*
X125639117Y-113369671D01*
X125621393Y-113353607D01*
X125605329Y-113335883D01*
X125591079Y-113316670D01*
X125578782Y-113296153D01*
X125568554Y-113274529D01*
X125560496Y-113252007D01*
X125554684Y-113228803D01*
X125551174Y-113205142D01*
X125550000Y-113181250D01*
X125550000Y-112693750D01*
X125551174Y-112669858D01*
X125554684Y-112646197D01*
X125560496Y-112622993D01*
X125568554Y-112600471D01*
X125578782Y-112578847D01*
X125591079Y-112558330D01*
X125605329Y-112539117D01*
X125621393Y-112521393D01*
X125639117Y-112505329D01*
X125658330Y-112491079D01*
X125678847Y-112478782D01*
X125700471Y-112468554D01*
X125722993Y-112460496D01*
X125746197Y-112454684D01*
X125769858Y-112451174D01*
X125793750Y-112450000D01*
X126706250Y-112450000D01*
X126730142Y-112451174D01*
G37*
G04 #@! TD.AperFunction*
D16*
X127750000Y-108500000D03*
D15*
X127750000Y-106000000D03*
D17*
X119750000Y-119710000D03*
D18*
X119750000Y-122250000D03*
D19*
X123250000Y-114750000D03*
D20*
X123250000Y-112210000D03*
X123250000Y-109670000D03*
D21*
X144000000Y-136250000D03*
D22*
X144000000Y-146410000D03*
D23*
X206000000Y-135250000D03*
D24*
X211000000Y-135250000D03*
D23*
X206000000Y-123500000D03*
D24*
X211000000Y-123500000D03*
G04 #@! TA.AperFunction,SMDPad,CuDef*
D14*
G36*
X124230142Y-137451174D02*
G01*
X124253803Y-137454684D01*
X124277007Y-137460496D01*
X124299529Y-137468554D01*
X124321153Y-137478782D01*
X124341670Y-137491079D01*
X124360883Y-137505329D01*
X124378607Y-137521393D01*
X124394671Y-137539117D01*
X124408921Y-137558330D01*
X124421218Y-137578847D01*
X124431446Y-137600471D01*
X124439504Y-137622993D01*
X124445316Y-137646197D01*
X124448826Y-137669858D01*
X124450000Y-137693750D01*
X124450000Y-138181250D01*
X124448826Y-138205142D01*
X124445316Y-138228803D01*
X124439504Y-138252007D01*
X124431446Y-138274529D01*
X124421218Y-138296153D01*
X124408921Y-138316670D01*
X124394671Y-138335883D01*
X124378607Y-138353607D01*
X124360883Y-138369671D01*
X124341670Y-138383921D01*
X124321153Y-138396218D01*
X124299529Y-138406446D01*
X124277007Y-138414504D01*
X124253803Y-138420316D01*
X124230142Y-138423826D01*
X124206250Y-138425000D01*
X123293750Y-138425000D01*
X123269858Y-138423826D01*
X123246197Y-138420316D01*
X123222993Y-138414504D01*
X123200471Y-138406446D01*
X123178847Y-138396218D01*
X123158330Y-138383921D01*
X123139117Y-138369671D01*
X123121393Y-138353607D01*
X123105329Y-138335883D01*
X123091079Y-138316670D01*
X123078782Y-138296153D01*
X123068554Y-138274529D01*
X123060496Y-138252007D01*
X123054684Y-138228803D01*
X123051174Y-138205142D01*
X123050000Y-138181250D01*
X123050000Y-137693750D01*
X123051174Y-137669858D01*
X123054684Y-137646197D01*
X123060496Y-137622993D01*
X123068554Y-137600471D01*
X123078782Y-137578847D01*
X123091079Y-137558330D01*
X123105329Y-137539117D01*
X123121393Y-137521393D01*
X123139117Y-137505329D01*
X123158330Y-137491079D01*
X123178847Y-137478782D01*
X123200471Y-137468554D01*
X123222993Y-137460496D01*
X123246197Y-137454684D01*
X123269858Y-137451174D01*
X123293750Y-137450000D01*
X124206250Y-137450000D01*
X124230142Y-137451174D01*
G37*
G04 #@! TD.AperFunction*
G04 #@! TA.AperFunction,SMDPad,CuDef*
G36*
X124230142Y-135576174D02*
G01*
X124253803Y-135579684D01*
X124277007Y-135585496D01*
X124299529Y-135593554D01*
X124321153Y-135603782D01*
X124341670Y-135616079D01*
X124360883Y-135630329D01*
X124378607Y-135646393D01*
X124394671Y-135664117D01*
X124408921Y-135683330D01*
X124421218Y-135703847D01*
X124431446Y-135725471D01*
X124439504Y-135747993D01*
X124445316Y-135771197D01*
X124448826Y-135794858D01*
X124450000Y-135818750D01*
X124450000Y-136306250D01*
X124448826Y-136330142D01*
X124445316Y-136353803D01*
X124439504Y-136377007D01*
X124431446Y-136399529D01*
X124421218Y-136421153D01*
X124408921Y-136441670D01*
X124394671Y-136460883D01*
X124378607Y-136478607D01*
X124360883Y-136494671D01*
X124341670Y-136508921D01*
X124321153Y-136521218D01*
X124299529Y-136531446D01*
X124277007Y-136539504D01*
X124253803Y-136545316D01*
X124230142Y-136548826D01*
X124206250Y-136550000D01*
X123293750Y-136550000D01*
X123269858Y-136548826D01*
X123246197Y-136545316D01*
X123222993Y-136539504D01*
X123200471Y-136531446D01*
X123178847Y-136521218D01*
X123158330Y-136508921D01*
X123139117Y-136494671D01*
X123121393Y-136478607D01*
X123105329Y-136460883D01*
X123091079Y-136441670D01*
X123078782Y-136421153D01*
X123068554Y-136399529D01*
X123060496Y-136377007D01*
X123054684Y-136353803D01*
X123051174Y-136330142D01*
X123050000Y-136306250D01*
X123050000Y-135818750D01*
X123051174Y-135794858D01*
X123054684Y-135771197D01*
X123060496Y-135747993D01*
X123068554Y-135725471D01*
X123078782Y-135703847D01*
X123091079Y-135683330D01*
X123105329Y-135664117D01*
X123121393Y-135646393D01*
X123139117Y-135630329D01*
X123158330Y-135616079D01*
X123178847Y-135603782D01*
X123200471Y-135593554D01*
X123222993Y-135585496D01*
X123246197Y-135579684D01*
X123269858Y-135576174D01*
X123293750Y-135575000D01*
X124206250Y-135575000D01*
X124230142Y-135576174D01*
G37*
G04 #@! TD.AperFunction*
G04 #@! TA.AperFunction,SMDPad,CuDef*
G36*
X136230142Y-121701174D02*
G01*
X136253803Y-121704684D01*
X136277007Y-121710496D01*
X136299529Y-121718554D01*
X136321153Y-121728782D01*
X136341670Y-121741079D01*
X136360883Y-121755329D01*
X136378607Y-121771393D01*
X136394671Y-121789117D01*
X136408921Y-121808330D01*
X136421218Y-121828847D01*
X136431446Y-121850471D01*
X136439504Y-121872993D01*
X136445316Y-121896197D01*
X136448826Y-121919858D01*
X136450000Y-121943750D01*
X136450000Y-122431250D01*
X136448826Y-122455142D01*
X136445316Y-122478803D01*
X136439504Y-122502007D01*
X136431446Y-122524529D01*
X136421218Y-122546153D01*
X136408921Y-122566670D01*
X136394671Y-122585883D01*
X136378607Y-122603607D01*
X136360883Y-122619671D01*
X136341670Y-122633921D01*
X136321153Y-122646218D01*
X136299529Y-122656446D01*
X136277007Y-122664504D01*
X136253803Y-122670316D01*
X136230142Y-122673826D01*
X136206250Y-122675000D01*
X135293750Y-122675000D01*
X135269858Y-122673826D01*
X135246197Y-122670316D01*
X135222993Y-122664504D01*
X135200471Y-122656446D01*
X135178847Y-122646218D01*
X135158330Y-122633921D01*
X135139117Y-122619671D01*
X135121393Y-122603607D01*
X135105329Y-122585883D01*
X135091079Y-122566670D01*
X135078782Y-122546153D01*
X135068554Y-122524529D01*
X135060496Y-122502007D01*
X135054684Y-122478803D01*
X135051174Y-122455142D01*
X135050000Y-122431250D01*
X135050000Y-121943750D01*
X135051174Y-121919858D01*
X135054684Y-121896197D01*
X135060496Y-121872993D01*
X135068554Y-121850471D01*
X135078782Y-121828847D01*
X135091079Y-121808330D01*
X135105329Y-121789117D01*
X135121393Y-121771393D01*
X135139117Y-121755329D01*
X135158330Y-121741079D01*
X135178847Y-121728782D01*
X135200471Y-121718554D01*
X135222993Y-121710496D01*
X135246197Y-121704684D01*
X135269858Y-121701174D01*
X135293750Y-121700000D01*
X136206250Y-121700000D01*
X136230142Y-121701174D01*
G37*
G04 #@! TD.AperFunction*
G04 #@! TA.AperFunction,SMDPad,CuDef*
G36*
X136230142Y-119826174D02*
G01*
X136253803Y-119829684D01*
X136277007Y-119835496D01*
X136299529Y-119843554D01*
X136321153Y-119853782D01*
X136341670Y-119866079D01*
X136360883Y-119880329D01*
X136378607Y-119896393D01*
X136394671Y-119914117D01*
X136408921Y-119933330D01*
X136421218Y-119953847D01*
X136431446Y-119975471D01*
X136439504Y-119997993D01*
X136445316Y-120021197D01*
X136448826Y-120044858D01*
X136450000Y-120068750D01*
X136450000Y-120556250D01*
X136448826Y-120580142D01*
X136445316Y-120603803D01*
X136439504Y-120627007D01*
X136431446Y-120649529D01*
X136421218Y-120671153D01*
X136408921Y-120691670D01*
X136394671Y-120710883D01*
X136378607Y-120728607D01*
X136360883Y-120744671D01*
X136341670Y-120758921D01*
X136321153Y-120771218D01*
X136299529Y-120781446D01*
X136277007Y-120789504D01*
X136253803Y-120795316D01*
X136230142Y-120798826D01*
X136206250Y-120800000D01*
X135293750Y-120800000D01*
X135269858Y-120798826D01*
X135246197Y-120795316D01*
X135222993Y-120789504D01*
X135200471Y-120781446D01*
X135178847Y-120771218D01*
X135158330Y-120758921D01*
X135139117Y-120744671D01*
X135121393Y-120728607D01*
X135105329Y-120710883D01*
X135091079Y-120691670D01*
X135078782Y-120671153D01*
X135068554Y-120649529D01*
X135060496Y-120627007D01*
X135054684Y-120603803D01*
X135051174Y-120580142D01*
X135050000Y-120556250D01*
X135050000Y-120068750D01*
X135051174Y-120044858D01*
X135054684Y-120021197D01*
X135060496Y-119997993D01*
X135068554Y-119975471D01*
X135078782Y-119953847D01*
X135091079Y-119933330D01*
X135105329Y-119914117D01*
X135121393Y-119896393D01*
X135139117Y-119880329D01*
X135158330Y-119866079D01*
X135178847Y-119853782D01*
X135200471Y-119843554D01*
X135222993Y-119835496D01*
X135246197Y-119829684D01*
X135269858Y-119826174D01*
X135293750Y-119825000D01*
X136206250Y-119825000D01*
X136230142Y-119826174D01*
G37*
G04 #@! TD.AperFunction*
G04 #@! TA.AperFunction,SMDPad,CuDef*
G36*
X136230142Y-144451174D02*
G01*
X136253803Y-144454684D01*
X136277007Y-144460496D01*
X136299529Y-144468554D01*
X136321153Y-144478782D01*
X136341670Y-144491079D01*
X136360883Y-144505329D01*
X136378607Y-144521393D01*
X136394671Y-144539117D01*
X136408921Y-144558330D01*
X136421218Y-144578847D01*
X136431446Y-144600471D01*
X136439504Y-144622993D01*
X136445316Y-144646197D01*
X136448826Y-144669858D01*
X136450000Y-144693750D01*
X136450000Y-145181250D01*
X136448826Y-145205142D01*
X136445316Y-145228803D01*
X136439504Y-145252007D01*
X136431446Y-145274529D01*
X136421218Y-145296153D01*
X136408921Y-145316670D01*
X136394671Y-145335883D01*
X136378607Y-145353607D01*
X136360883Y-145369671D01*
X136341670Y-145383921D01*
X136321153Y-145396218D01*
X136299529Y-145406446D01*
X136277007Y-145414504D01*
X136253803Y-145420316D01*
X136230142Y-145423826D01*
X136206250Y-145425000D01*
X135293750Y-145425000D01*
X135269858Y-145423826D01*
X135246197Y-145420316D01*
X135222993Y-145414504D01*
X135200471Y-145406446D01*
X135178847Y-145396218D01*
X135158330Y-145383921D01*
X135139117Y-145369671D01*
X135121393Y-145353607D01*
X135105329Y-145335883D01*
X135091079Y-145316670D01*
X135078782Y-145296153D01*
X135068554Y-145274529D01*
X135060496Y-145252007D01*
X135054684Y-145228803D01*
X135051174Y-145205142D01*
X135050000Y-145181250D01*
X135050000Y-144693750D01*
X135051174Y-144669858D01*
X135054684Y-144646197D01*
X135060496Y-144622993D01*
X135068554Y-144600471D01*
X135078782Y-144578847D01*
X135091079Y-144558330D01*
X135105329Y-144539117D01*
X135121393Y-144521393D01*
X135139117Y-144505329D01*
X135158330Y-144491079D01*
X135178847Y-144478782D01*
X135200471Y-144468554D01*
X135222993Y-144460496D01*
X135246197Y-144454684D01*
X135269858Y-144451174D01*
X135293750Y-144450000D01*
X136206250Y-144450000D01*
X136230142Y-144451174D01*
G37*
G04 #@! TD.AperFunction*
G04 #@! TA.AperFunction,SMDPad,CuDef*
G36*
X136230142Y-142576174D02*
G01*
X136253803Y-142579684D01*
X136277007Y-142585496D01*
X136299529Y-142593554D01*
X136321153Y-142603782D01*
X136341670Y-142616079D01*
X136360883Y-142630329D01*
X136378607Y-142646393D01*
X136394671Y-142664117D01*
X136408921Y-142683330D01*
X136421218Y-142703847D01*
X136431446Y-142725471D01*
X136439504Y-142747993D01*
X136445316Y-142771197D01*
X136448826Y-142794858D01*
X136450000Y-142818750D01*
X136450000Y-143306250D01*
X136448826Y-143330142D01*
X136445316Y-143353803D01*
X136439504Y-143377007D01*
X136431446Y-143399529D01*
X136421218Y-143421153D01*
X136408921Y-143441670D01*
X136394671Y-143460883D01*
X136378607Y-143478607D01*
X136360883Y-143494671D01*
X136341670Y-143508921D01*
X136321153Y-143521218D01*
X136299529Y-143531446D01*
X136277007Y-143539504D01*
X136253803Y-143545316D01*
X136230142Y-143548826D01*
X136206250Y-143550000D01*
X135293750Y-143550000D01*
X135269858Y-143548826D01*
X135246197Y-143545316D01*
X135222993Y-143539504D01*
X135200471Y-143531446D01*
X135178847Y-143521218D01*
X135158330Y-143508921D01*
X135139117Y-143494671D01*
X135121393Y-143478607D01*
X135105329Y-143460883D01*
X135091079Y-143441670D01*
X135078782Y-143421153D01*
X135068554Y-143399529D01*
X135060496Y-143377007D01*
X135054684Y-143353803D01*
X135051174Y-143330142D01*
X135050000Y-143306250D01*
X135050000Y-142818750D01*
X135051174Y-142794858D01*
X135054684Y-142771197D01*
X135060496Y-142747993D01*
X135068554Y-142725471D01*
X135078782Y-142703847D01*
X135091079Y-142683330D01*
X135105329Y-142664117D01*
X135121393Y-142646393D01*
X135139117Y-142630329D01*
X135158330Y-142616079D01*
X135178847Y-142603782D01*
X135200471Y-142593554D01*
X135222993Y-142585496D01*
X135246197Y-142579684D01*
X135269858Y-142576174D01*
X135293750Y-142575000D01*
X136206250Y-142575000D01*
X136230142Y-142576174D01*
G37*
G04 #@! TD.AperFunction*
G04 #@! TA.AperFunction,SMDPad,CuDef*
G36*
X144480142Y-117451174D02*
G01*
X144503803Y-117454684D01*
X144527007Y-117460496D01*
X144549529Y-117468554D01*
X144571153Y-117478782D01*
X144591670Y-117491079D01*
X144610883Y-117505329D01*
X144628607Y-117521393D01*
X144644671Y-117539117D01*
X144658921Y-117558330D01*
X144671218Y-117578847D01*
X144681446Y-117600471D01*
X144689504Y-117622993D01*
X144695316Y-117646197D01*
X144698826Y-117669858D01*
X144700000Y-117693750D01*
X144700000Y-118181250D01*
X144698826Y-118205142D01*
X144695316Y-118228803D01*
X144689504Y-118252007D01*
X144681446Y-118274529D01*
X144671218Y-118296153D01*
X144658921Y-118316670D01*
X144644671Y-118335883D01*
X144628607Y-118353607D01*
X144610883Y-118369671D01*
X144591670Y-118383921D01*
X144571153Y-118396218D01*
X144549529Y-118406446D01*
X144527007Y-118414504D01*
X144503803Y-118420316D01*
X144480142Y-118423826D01*
X144456250Y-118425000D01*
X143543750Y-118425000D01*
X143519858Y-118423826D01*
X143496197Y-118420316D01*
X143472993Y-118414504D01*
X143450471Y-118406446D01*
X143428847Y-118396218D01*
X143408330Y-118383921D01*
X143389117Y-118369671D01*
X143371393Y-118353607D01*
X143355329Y-118335883D01*
X143341079Y-118316670D01*
X143328782Y-118296153D01*
X143318554Y-118274529D01*
X143310496Y-118252007D01*
X143304684Y-118228803D01*
X143301174Y-118205142D01*
X143300000Y-118181250D01*
X143300000Y-117693750D01*
X143301174Y-117669858D01*
X143304684Y-117646197D01*
X143310496Y-117622993D01*
X143318554Y-117600471D01*
X143328782Y-117578847D01*
X143341079Y-117558330D01*
X143355329Y-117539117D01*
X143371393Y-117521393D01*
X143389117Y-117505329D01*
X143408330Y-117491079D01*
X143428847Y-117478782D01*
X143450471Y-117468554D01*
X143472993Y-117460496D01*
X143496197Y-117454684D01*
X143519858Y-117451174D01*
X143543750Y-117450000D01*
X144456250Y-117450000D01*
X144480142Y-117451174D01*
G37*
G04 #@! TD.AperFunction*
G04 #@! TA.AperFunction,SMDPad,CuDef*
G36*
X144480142Y-115576174D02*
G01*
X144503803Y-115579684D01*
X144527007Y-115585496D01*
X144549529Y-115593554D01*
X144571153Y-115603782D01*
X144591670Y-115616079D01*
X144610883Y-115630329D01*
X144628607Y-115646393D01*
X144644671Y-115664117D01*
X144658921Y-115683330D01*
X144671218Y-115703847D01*
X144681446Y-115725471D01*
X144689504Y-115747993D01*
X144695316Y-115771197D01*
X144698826Y-115794858D01*
X144700000Y-115818750D01*
X144700000Y-116306250D01*
X144698826Y-116330142D01*
X144695316Y-116353803D01*
X144689504Y-116377007D01*
X144681446Y-116399529D01*
X144671218Y-116421153D01*
X144658921Y-116441670D01*
X144644671Y-116460883D01*
X144628607Y-116478607D01*
X144610883Y-116494671D01*
X144591670Y-116508921D01*
X144571153Y-116521218D01*
X144549529Y-116531446D01*
X144527007Y-116539504D01*
X144503803Y-116545316D01*
X144480142Y-116548826D01*
X144456250Y-116550000D01*
X143543750Y-116550000D01*
X143519858Y-116548826D01*
X143496197Y-116545316D01*
X143472993Y-116539504D01*
X143450471Y-116531446D01*
X143428847Y-116521218D01*
X143408330Y-116508921D01*
X143389117Y-116494671D01*
X143371393Y-116478607D01*
X143355329Y-116460883D01*
X143341079Y-116441670D01*
X143328782Y-116421153D01*
X143318554Y-116399529D01*
X143310496Y-116377007D01*
X143304684Y-116353803D01*
X143301174Y-116330142D01*
X143300000Y-116306250D01*
X143300000Y-115818750D01*
X143301174Y-115794858D01*
X143304684Y-115771197D01*
X143310496Y-115747993D01*
X143318554Y-115725471D01*
X143328782Y-115703847D01*
X143341079Y-115683330D01*
X143355329Y-115664117D01*
X143371393Y-115646393D01*
X143389117Y-115630329D01*
X143408330Y-115616079D01*
X143428847Y-115603782D01*
X143450471Y-115593554D01*
X143472993Y-115585496D01*
X143496197Y-115579684D01*
X143519858Y-115576174D01*
X143543750Y-115575000D01*
X144456250Y-115575000D01*
X144480142Y-115576174D01*
G37*
G04 #@! TD.AperFunction*
G04 #@! TA.AperFunction,SMDPad,CuDef*
G36*
X144480142Y-140201174D02*
G01*
X144503803Y-140204684D01*
X144527007Y-140210496D01*
X144549529Y-140218554D01*
X144571153Y-140228782D01*
X144591670Y-140241079D01*
X144610883Y-140255329D01*
X144628607Y-140271393D01*
X144644671Y-140289117D01*
X144658921Y-140308330D01*
X144671218Y-140328847D01*
X144681446Y-140350471D01*
X144689504Y-140372993D01*
X144695316Y-140396197D01*
X144698826Y-140419858D01*
X144700000Y-140443750D01*
X144700000Y-140931250D01*
X144698826Y-140955142D01*
X144695316Y-140978803D01*
X144689504Y-141002007D01*
X144681446Y-141024529D01*
X144671218Y-141046153D01*
X144658921Y-141066670D01*
X144644671Y-141085883D01*
X144628607Y-141103607D01*
X144610883Y-141119671D01*
X144591670Y-141133921D01*
X144571153Y-141146218D01*
X144549529Y-141156446D01*
X144527007Y-141164504D01*
X144503803Y-141170316D01*
X144480142Y-141173826D01*
X144456250Y-141175000D01*
X143543750Y-141175000D01*
X143519858Y-141173826D01*
X143496197Y-141170316D01*
X143472993Y-141164504D01*
X143450471Y-141156446D01*
X143428847Y-141146218D01*
X143408330Y-141133921D01*
X143389117Y-141119671D01*
X143371393Y-141103607D01*
X143355329Y-141085883D01*
X143341079Y-141066670D01*
X143328782Y-141046153D01*
X143318554Y-141024529D01*
X143310496Y-141002007D01*
X143304684Y-140978803D01*
X143301174Y-140955142D01*
X143300000Y-140931250D01*
X143300000Y-140443750D01*
X143301174Y-140419858D01*
X143304684Y-140396197D01*
X143310496Y-140372993D01*
X143318554Y-140350471D01*
X143328782Y-140328847D01*
X143341079Y-140308330D01*
X143355329Y-140289117D01*
X143371393Y-140271393D01*
X143389117Y-140255329D01*
X143408330Y-140241079D01*
X143428847Y-140228782D01*
X143450471Y-140218554D01*
X143472993Y-140210496D01*
X143496197Y-140204684D01*
X143519858Y-140201174D01*
X143543750Y-140200000D01*
X144456250Y-140200000D01*
X144480142Y-140201174D01*
G37*
G04 #@! TD.AperFunction*
G04 #@! TA.AperFunction,SMDPad,CuDef*
G36*
X144480142Y-138326174D02*
G01*
X144503803Y-138329684D01*
X144527007Y-138335496D01*
X144549529Y-138343554D01*
X144571153Y-138353782D01*
X144591670Y-138366079D01*
X144610883Y-138380329D01*
X144628607Y-138396393D01*
X144644671Y-138414117D01*
X144658921Y-138433330D01*
X144671218Y-138453847D01*
X144681446Y-138475471D01*
X144689504Y-138497993D01*
X144695316Y-138521197D01*
X144698826Y-138544858D01*
X144700000Y-138568750D01*
X144700000Y-139056250D01*
X144698826Y-139080142D01*
X144695316Y-139103803D01*
X144689504Y-139127007D01*
X144681446Y-139149529D01*
X144671218Y-139171153D01*
X144658921Y-139191670D01*
X144644671Y-139210883D01*
X144628607Y-139228607D01*
X144610883Y-139244671D01*
X144591670Y-139258921D01*
X144571153Y-139271218D01*
X144549529Y-139281446D01*
X144527007Y-139289504D01*
X144503803Y-139295316D01*
X144480142Y-139298826D01*
X144456250Y-139300000D01*
X143543750Y-139300000D01*
X143519858Y-139298826D01*
X143496197Y-139295316D01*
X143472993Y-139289504D01*
X143450471Y-139281446D01*
X143428847Y-139271218D01*
X143408330Y-139258921D01*
X143389117Y-139244671D01*
X143371393Y-139228607D01*
X143355329Y-139210883D01*
X143341079Y-139191670D01*
X143328782Y-139171153D01*
X143318554Y-139149529D01*
X143310496Y-139127007D01*
X143304684Y-139103803D01*
X143301174Y-139080142D01*
X143300000Y-139056250D01*
X143300000Y-138568750D01*
X143301174Y-138544858D01*
X143304684Y-138521197D01*
X143310496Y-138497993D01*
X143318554Y-138475471D01*
X143328782Y-138453847D01*
X143341079Y-138433330D01*
X143355329Y-138414117D01*
X143371393Y-138396393D01*
X143389117Y-138380329D01*
X143408330Y-138366079D01*
X143428847Y-138353782D01*
X143450471Y-138343554D01*
X143472993Y-138335496D01*
X143496197Y-138329684D01*
X143519858Y-138326174D01*
X143543750Y-138325000D01*
X144456250Y-138325000D01*
X144480142Y-138326174D01*
G37*
G04 #@! TD.AperFunction*
D24*
X216000000Y-144250000D03*
X206000000Y-144250000D03*
X206000000Y-114500000D03*
X216000000Y-114500000D03*
D22*
X144000000Y-123660000D03*
D21*
X144000000Y-113500000D03*
D25*
X186050000Y-126000000D03*
D26*
X198750000Y-126000000D03*
X163700000Y-126000000D03*
D25*
X151000000Y-126000000D03*
D26*
X198750000Y-133000000D03*
D25*
X186050000Y-133000000D03*
X151000000Y-133000000D03*
D26*
X163700000Y-133000000D03*
D17*
X105500000Y-147750000D03*
D18*
X108040000Y-147750000D03*
X110580000Y-147750000D03*
X113120000Y-147750000D03*
D27*
X219750000Y-129370000D03*
D28*
X219750000Y-136990000D03*
X174500000Y-133370000D03*
D27*
X174500000Y-125750000D03*
D13*
X162420000Y-112000000D03*
X164960000Y-112000000D03*
D12*
X167500000Y-112000000D03*
D13*
X151670000Y-112000000D03*
X154210000Y-112000000D03*
D12*
X156750000Y-112000000D03*
X182000000Y-146500000D03*
D13*
X184540000Y-146500000D03*
X187080000Y-146500000D03*
D12*
X163000000Y-146500000D03*
D13*
X165540000Y-146500000D03*
X168080000Y-146500000D03*
X197830000Y-146500000D03*
X195290000Y-146500000D03*
D12*
X192750000Y-146500000D03*
D13*
X157330000Y-146500000D03*
X154790000Y-146500000D03*
D12*
X152250000Y-146500000D03*
D29*
X113620000Y-128000000D03*
X106000000Y-130540000D03*
X113620000Y-130540000D03*
D16*
X106000000Y-128000000D03*
X106000000Y-135750000D03*
D29*
X113620000Y-138290000D03*
X106000000Y-138290000D03*
X113620000Y-135750000D03*
D30*
X127620000Y-129250000D03*
X120000000Y-144490000D03*
X127620000Y-131790000D03*
X120000000Y-141950000D03*
X127620000Y-134330000D03*
X120000000Y-139410000D03*
X127620000Y-136870000D03*
X120000000Y-136870000D03*
X127620000Y-139410000D03*
X120000000Y-134330000D03*
X127620000Y-141950000D03*
X120000000Y-131790000D03*
X127620000Y-144490000D03*
D31*
X120000000Y-129250000D03*
X133000000Y-111000000D03*
D30*
X140620000Y-126240000D03*
X133000000Y-113540000D03*
X140620000Y-123700000D03*
X133000000Y-116080000D03*
X140620000Y-121160000D03*
X133000000Y-118620000D03*
X140620000Y-118620000D03*
X133000000Y-121160000D03*
X140620000Y-116080000D03*
X133000000Y-123700000D03*
X140620000Y-113540000D03*
X133000000Y-126240000D03*
X140620000Y-111000000D03*
D31*
X133000000Y-133750000D03*
D30*
X140620000Y-148990000D03*
X133000000Y-136290000D03*
X140620000Y-146450000D03*
X133000000Y-138830000D03*
X140620000Y-143910000D03*
X133000000Y-141370000D03*
X140620000Y-141370000D03*
X133000000Y-143910000D03*
X140620000Y-138830000D03*
X133000000Y-146450000D03*
X140620000Y-136290000D03*
X133000000Y-148990000D03*
X140620000Y-133750000D03*
D32*
X102500000Y-100000000D03*
X140750000Y-129000000D03*
X102500000Y-130000000D03*
X102500000Y-125000000D03*
X102500000Y-120000000D03*
X102500000Y-105000000D03*
X102500000Y-100000000D03*
X102500000Y-135000000D03*
X102500000Y-150000000D03*
X102500000Y-145000000D03*
X102500000Y-140000000D03*
X207500000Y-155000000D03*
X142500000Y-155000000D03*
X152500000Y-155000000D03*
X182500000Y-155000000D03*
X217500000Y-155000000D03*
X202500000Y-155000000D03*
X222500000Y-155000000D03*
X187500000Y-155000000D03*
X172500000Y-155000000D03*
X107500000Y-155000000D03*
X192500000Y-155000000D03*
X137500000Y-155000000D03*
X212500000Y-155000000D03*
X177500000Y-155000000D03*
X157500000Y-155000000D03*
X112500000Y-155000000D03*
X167500000Y-155000000D03*
X197500000Y-155000000D03*
X147500000Y-155000000D03*
X127500000Y-155000000D03*
X102500000Y-155000000D03*
X122500000Y-155000000D03*
X162500000Y-155000000D03*
X117500000Y-155000000D03*
X132500000Y-155000000D03*
X157500000Y-100000000D03*
X112500000Y-100000000D03*
X107500000Y-100000000D03*
X227500000Y-145000000D03*
X152500000Y-100000000D03*
X142500000Y-100000000D03*
X222500000Y-100000000D03*
X117500000Y-100000000D03*
X227500000Y-115000000D03*
X212500000Y-100000000D03*
X227500000Y-110000000D03*
X227500000Y-140000000D03*
X197500000Y-100000000D03*
X227500000Y-130000000D03*
X217500000Y-100000000D03*
X227500000Y-150000000D03*
X202500000Y-100000000D03*
X182500000Y-100000000D03*
X122500000Y-100000000D03*
X227500000Y-155000000D03*
X227500000Y-105000000D03*
X227500000Y-125000000D03*
X172500000Y-100000000D03*
X177500000Y-100000000D03*
X132500000Y-100000000D03*
X187500000Y-100000000D03*
X227500000Y-120000000D03*
X167500000Y-100000000D03*
X192500000Y-100000000D03*
X162500000Y-100000000D03*
X147500000Y-100000000D03*
X227500000Y-135000000D03*
X137500000Y-100000000D03*
X207500000Y-100000000D03*
X127500000Y-100000000D03*
X141750000Y-151750000D03*
X227500000Y-100000000D03*
X116750000Y-132750000D03*
X138000000Y-120250000D03*
X138000000Y-119250000D03*
X138000000Y-118250000D03*
X138000000Y-121250000D03*
D33*
X123750000Y-136062500D02*
X123750000Y-132250000D01*
X123750000Y-132250000D02*
X123750000Y-131750000D01*
X123750000Y-131750000D02*
X126250000Y-129250000D01*
D34*
X126250000Y-129250000D02*
X127620000Y-129250000D01*
X119750000Y-122750000D02*
X119750000Y-122250000D01*
X126250000Y-129250000D02*
X119750000Y-122750000D01*
D33*
X116750000Y-125250000D02*
X116750000Y-132750000D01*
X119750000Y-122250000D02*
X116750000Y-125250000D01*
D34*
X135750000Y-122187500D02*
X135750000Y-125500000D01*
D33*
X125670000Y-109670000D02*
X123250000Y-109670000D01*
X126250000Y-111062500D02*
X126250000Y-110250000D01*
X126250000Y-110250000D02*
X125670000Y-109670000D01*
D35*
X135200000Y-126240000D02*
X138000000Y-123440000D01*
X133000000Y-126240000D02*
X135200000Y-126240000D01*
X138000000Y-123440000D02*
X138000000Y-118250000D01*
D34*
X135750000Y-145425000D02*
X135750000Y-144937500D01*
X134700000Y-148990000D02*
X135750000Y-147940000D01*
X135750000Y-147940000D02*
X135750000Y-145425000D01*
X133000000Y-148990000D02*
X134700000Y-148990000D01*
D33*
X122897500Y-112562500D02*
X123250000Y-112210000D01*
X120000000Y-112562500D02*
X122897500Y-112562500D01*
D34*
X143317500Y-118620000D02*
X144000000Y-117937500D01*
X140620000Y-118620000D02*
X143317500Y-118620000D01*
X144000000Y-116062500D02*
X144000000Y-113500000D01*
X144000000Y-140750000D02*
X144000000Y-140937500D01*
X143317500Y-141370000D02*
X144000000Y-140687500D01*
X140620000Y-141370000D02*
X143317500Y-141370000D01*
X144000000Y-136250000D02*
X144000000Y-138812500D01*
D36*
G36*
X185664657Y-113000000D02*
G01*
X185672013Y-113074689D01*
X185693799Y-113146508D01*
X185729178Y-113212696D01*
X185776789Y-113270711D01*
X185834804Y-113318322D01*
X185900992Y-113353701D01*
X185972811Y-113375487D01*
X186047500Y-113382843D01*
X187952500Y-113382843D01*
X188027189Y-113375487D01*
X188099008Y-113353701D01*
X188165196Y-113318322D01*
X188223211Y-113270711D01*
X188270822Y-113212696D01*
X188306201Y-113146508D01*
X188327987Y-113074689D01*
X188335343Y-113000000D01*
X188335343Y-111127000D01*
X191622398Y-111127000D01*
X191555871Y-111208063D01*
X191432046Y-111439723D01*
X191355795Y-111691088D01*
X191336500Y-111886992D01*
X191336500Y-112113007D01*
X191355795Y-112308911D01*
X191432046Y-112560276D01*
X191555871Y-112791936D01*
X191722511Y-112994989D01*
X191925563Y-113161629D01*
X192157223Y-113285454D01*
X192408588Y-113361705D01*
X192670000Y-113387452D01*
X192931411Y-113361705D01*
X193182776Y-113285454D01*
X193414436Y-113161629D01*
X193617489Y-112994989D01*
X193784129Y-112791937D01*
X193907954Y-112560277D01*
X193984205Y-112308912D01*
X194003500Y-112113008D01*
X194003500Y-111886993D01*
X193984205Y-111691089D01*
X193907954Y-111439724D01*
X193784129Y-111208064D01*
X193717602Y-111127000D01*
X196414657Y-111127000D01*
X196414657Y-113000000D01*
X196422013Y-113074689D01*
X196443799Y-113146508D01*
X196479178Y-113212696D01*
X196526789Y-113270711D01*
X196584804Y-113318322D01*
X196650992Y-113353701D01*
X196722811Y-113375487D01*
X196797500Y-113382843D01*
X198702500Y-113382843D01*
X198777189Y-113375487D01*
X198849008Y-113353701D01*
X198915196Y-113318322D01*
X198973211Y-113270711D01*
X199020822Y-113212696D01*
X199056201Y-113146508D01*
X199077987Y-113074689D01*
X199085343Y-113000000D01*
X199085343Y-111127000D01*
X207991672Y-111127000D01*
X208096257Y-111140769D01*
X208185955Y-111177923D01*
X208262976Y-111237024D01*
X208322077Y-111314045D01*
X208359231Y-111403743D01*
X208373000Y-111508328D01*
X208373000Y-125250000D01*
X208374086Y-125266577D01*
X208391123Y-125395987D01*
X208399704Y-125428011D01*
X208449654Y-125548601D01*
X208466232Y-125577313D01*
X208545692Y-125680866D01*
X208569134Y-125704308D01*
X208672687Y-125783768D01*
X208701399Y-125800346D01*
X208821989Y-125850296D01*
X208854013Y-125858877D01*
X208983423Y-125875914D01*
X209000000Y-125877000D01*
X222991672Y-125877000D01*
X223096257Y-125890769D01*
X223185955Y-125927923D01*
X223262976Y-125987024D01*
X223322077Y-126064045D01*
X223359231Y-126153743D01*
X223373000Y-126258328D01*
X223373000Y-132491672D01*
X223359231Y-132596257D01*
X223322077Y-132685955D01*
X223262976Y-132762976D01*
X223185955Y-132822077D01*
X223096257Y-132859231D01*
X222991672Y-132873000D01*
X209000000Y-132873000D01*
X208983423Y-132874086D01*
X208854013Y-132891123D01*
X208821989Y-132899704D01*
X208701399Y-132949654D01*
X208672687Y-132966232D01*
X208569134Y-133045692D01*
X208545692Y-133069134D01*
X208466232Y-133172687D01*
X208449654Y-133201399D01*
X208399704Y-133321989D01*
X208391123Y-133354013D01*
X208374086Y-133483423D01*
X208373000Y-133500000D01*
X208373000Y-146991672D01*
X208359231Y-147096257D01*
X208322077Y-147185955D01*
X208262976Y-147262976D01*
X208185955Y-147322077D01*
X208096257Y-147359231D01*
X207991672Y-147373000D01*
X198877602Y-147373000D01*
X198944129Y-147291936D01*
X199067954Y-147060276D01*
X199144205Y-146808911D01*
X199163500Y-146613007D01*
X199163500Y-146386992D01*
X199144205Y-146191088D01*
X199067954Y-145939723D01*
X198944129Y-145708063D01*
X198777489Y-145505011D01*
X198574436Y-145338371D01*
X198342776Y-145214546D01*
X198091411Y-145138295D01*
X197830000Y-145112548D01*
X197568588Y-145138295D01*
X197317223Y-145214546D01*
X197085563Y-145338371D01*
X196882511Y-145505011D01*
X196715871Y-145708064D01*
X196592046Y-145939724D01*
X196515795Y-146191089D01*
X196496500Y-146386993D01*
X196496500Y-146613008D01*
X196515795Y-146808912D01*
X196592046Y-147060277D01*
X196715871Y-147291937D01*
X196782398Y-147373000D01*
X194085343Y-147373000D01*
X194085343Y-145500000D01*
X194077987Y-145425311D01*
X194056201Y-145353492D01*
X194020822Y-145287304D01*
X193973211Y-145229289D01*
X193915196Y-145181678D01*
X193849008Y-145146299D01*
X193777189Y-145124513D01*
X193702500Y-145117157D01*
X191797500Y-145117157D01*
X191722811Y-145124513D01*
X191650992Y-145146299D01*
X191584804Y-145181678D01*
X191526789Y-145229289D01*
X191479178Y-145287304D01*
X191443799Y-145353492D01*
X191422013Y-145425311D01*
X191414657Y-145500000D01*
X191414657Y-147373000D01*
X188127602Y-147373000D01*
X188194129Y-147291936D01*
X188317954Y-147060276D01*
X188394205Y-146808911D01*
X188413500Y-146613007D01*
X188413500Y-146386992D01*
X188394205Y-146191088D01*
X188317954Y-145939723D01*
X188194129Y-145708063D01*
X188027489Y-145505011D01*
X187824436Y-145338371D01*
X187592776Y-145214546D01*
X187341411Y-145138295D01*
X187080000Y-145112548D01*
X186818588Y-145138295D01*
X186567223Y-145214546D01*
X186335563Y-145338371D01*
X186132511Y-145505011D01*
X185965871Y-145708064D01*
X185842046Y-145939724D01*
X185765795Y-146191089D01*
X185746500Y-146386993D01*
X185746500Y-146613008D01*
X185765795Y-146808912D01*
X185842046Y-147060277D01*
X185965871Y-147291937D01*
X186032398Y-147373000D01*
X183335343Y-147373000D01*
X183335343Y-145500000D01*
X183327987Y-145425311D01*
X183306201Y-145353492D01*
X183270822Y-145287304D01*
X183223211Y-145229289D01*
X183165196Y-145181678D01*
X183099008Y-145146299D01*
X183027189Y-145124513D01*
X182952500Y-145117157D01*
X182627000Y-145117157D01*
X182627000Y-137758328D01*
X182640769Y-137653743D01*
X182677923Y-137564045D01*
X182737024Y-137487024D01*
X182814045Y-137427923D01*
X182903743Y-137390769D01*
X183008328Y-137377000D01*
X193750000Y-137377000D01*
X193766577Y-137375914D01*
X193895987Y-137358877D01*
X193928011Y-137350296D01*
X194048601Y-137300346D01*
X194077313Y-137283768D01*
X194180866Y-137204308D01*
X194204308Y-137180866D01*
X194283768Y-137077313D01*
X194300346Y-137048601D01*
X194350296Y-136928011D01*
X194358877Y-136895987D01*
X194375914Y-136766577D01*
X194377000Y-136750000D01*
X194377000Y-122250000D01*
X194375914Y-122233423D01*
X194358877Y-122104013D01*
X194350296Y-122071989D01*
X194300346Y-121951399D01*
X194283768Y-121922687D01*
X194204308Y-121819134D01*
X194180866Y-121795692D01*
X194077313Y-121716232D01*
X194048601Y-121699654D01*
X193928011Y-121649704D01*
X193895987Y-121641123D01*
X193766577Y-121624086D01*
X193750000Y-121623000D01*
X183008328Y-121623000D01*
X182903743Y-121609231D01*
X182814045Y-121572077D01*
X182737024Y-121512976D01*
X182677923Y-121435955D01*
X182640769Y-121346257D01*
X182627000Y-121241672D01*
X182627000Y-113181639D01*
X182664436Y-113161629D01*
X182867489Y-112994989D01*
X183034129Y-112791937D01*
X183157954Y-112560277D01*
X183234205Y-112308912D01*
X183253500Y-112113008D01*
X183253500Y-111886993D01*
X183234205Y-111691089D01*
X183157954Y-111439724D01*
X183034129Y-111208064D01*
X182971573Y-111131839D01*
X183008328Y-111127000D01*
X185664657Y-111127000D01*
X185664657Y-113000000D01*
G37*
X185664657Y-113000000D02*
X185672013Y-113074689D01*
X185693799Y-113146508D01*
X185729178Y-113212696D01*
X185776789Y-113270711D01*
X185834804Y-113318322D01*
X185900992Y-113353701D01*
X185972811Y-113375487D01*
X186047500Y-113382843D01*
X187952500Y-113382843D01*
X188027189Y-113375487D01*
X188099008Y-113353701D01*
X188165196Y-113318322D01*
X188223211Y-113270711D01*
X188270822Y-113212696D01*
X188306201Y-113146508D01*
X188327987Y-113074689D01*
X188335343Y-113000000D01*
X188335343Y-111127000D01*
X191622398Y-111127000D01*
X191555871Y-111208063D01*
X191432046Y-111439723D01*
X191355795Y-111691088D01*
X191336500Y-111886992D01*
X191336500Y-112113007D01*
X191355795Y-112308911D01*
X191432046Y-112560276D01*
X191555871Y-112791936D01*
X191722511Y-112994989D01*
X191925563Y-113161629D01*
X192157223Y-113285454D01*
X192408588Y-113361705D01*
X192670000Y-113387452D01*
X192931411Y-113361705D01*
X193182776Y-113285454D01*
X193414436Y-113161629D01*
X193617489Y-112994989D01*
X193784129Y-112791937D01*
X193907954Y-112560277D01*
X193984205Y-112308912D01*
X194003500Y-112113008D01*
X194003500Y-111886993D01*
X193984205Y-111691089D01*
X193907954Y-111439724D01*
X193784129Y-111208064D01*
X193717602Y-111127000D01*
X196414657Y-111127000D01*
X196414657Y-113000000D01*
X196422013Y-113074689D01*
X196443799Y-113146508D01*
X196479178Y-113212696D01*
X196526789Y-113270711D01*
X196584804Y-113318322D01*
X196650992Y-113353701D01*
X196722811Y-113375487D01*
X196797500Y-113382843D01*
X198702500Y-113382843D01*
X198777189Y-113375487D01*
X198849008Y-113353701D01*
X198915196Y-113318322D01*
X198973211Y-113270711D01*
X199020822Y-113212696D01*
X199056201Y-113146508D01*
X199077987Y-113074689D01*
X199085343Y-113000000D01*
X199085343Y-111127000D01*
X207991672Y-111127000D01*
X208096257Y-111140769D01*
X208185955Y-111177923D01*
X208262976Y-111237024D01*
X208322077Y-111314045D01*
X208359231Y-111403743D01*
X208373000Y-111508328D01*
X208373000Y-125250000D01*
X208374086Y-125266577D01*
X208391123Y-125395987D01*
X208399704Y-125428011D01*
X208449654Y-125548601D01*
X208466232Y-125577313D01*
X208545692Y-125680866D01*
X208569134Y-125704308D01*
X208672687Y-125783768D01*
X208701399Y-125800346D01*
X208821989Y-125850296D01*
X208854013Y-125858877D01*
X208983423Y-125875914D01*
X209000000Y-125877000D01*
X222991672Y-125877000D01*
X223096257Y-125890769D01*
X223185955Y-125927923D01*
X223262976Y-125987024D01*
X223322077Y-126064045D01*
X223359231Y-126153743D01*
X223373000Y-126258328D01*
X223373000Y-132491672D01*
X223359231Y-132596257D01*
X223322077Y-132685955D01*
X223262976Y-132762976D01*
X223185955Y-132822077D01*
X223096257Y-132859231D01*
X222991672Y-132873000D01*
X209000000Y-132873000D01*
X208983423Y-132874086D01*
X208854013Y-132891123D01*
X208821989Y-132899704D01*
X208701399Y-132949654D01*
X208672687Y-132966232D01*
X208569134Y-133045692D01*
X208545692Y-133069134D01*
X208466232Y-133172687D01*
X208449654Y-133201399D01*
X208399704Y-133321989D01*
X208391123Y-133354013D01*
X208374086Y-133483423D01*
X208373000Y-133500000D01*
X208373000Y-146991672D01*
X208359231Y-147096257D01*
X208322077Y-147185955D01*
X208262976Y-147262976D01*
X208185955Y-147322077D01*
X208096257Y-147359231D01*
X207991672Y-147373000D01*
X198877602Y-147373000D01*
X198944129Y-147291936D01*
X199067954Y-147060276D01*
X199144205Y-146808911D01*
X199163500Y-146613007D01*
X199163500Y-146386992D01*
X199144205Y-146191088D01*
X199067954Y-145939723D01*
X198944129Y-145708063D01*
X198777489Y-145505011D01*
X198574436Y-145338371D01*
X198342776Y-145214546D01*
X198091411Y-145138295D01*
X197830000Y-145112548D01*
X197568588Y-145138295D01*
X197317223Y-145214546D01*
X197085563Y-145338371D01*
X196882511Y-145505011D01*
X196715871Y-145708064D01*
X196592046Y-145939724D01*
X196515795Y-146191089D01*
X196496500Y-146386993D01*
X196496500Y-146613008D01*
X196515795Y-146808912D01*
X196592046Y-147060277D01*
X196715871Y-147291937D01*
X196782398Y-147373000D01*
X194085343Y-147373000D01*
X194085343Y-145500000D01*
X194077987Y-145425311D01*
X194056201Y-145353492D01*
X194020822Y-145287304D01*
X193973211Y-145229289D01*
X193915196Y-145181678D01*
X193849008Y-145146299D01*
X193777189Y-145124513D01*
X193702500Y-145117157D01*
X191797500Y-145117157D01*
X191722811Y-145124513D01*
X191650992Y-145146299D01*
X191584804Y-145181678D01*
X191526789Y-145229289D01*
X191479178Y-145287304D01*
X191443799Y-145353492D01*
X191422013Y-145425311D01*
X191414657Y-145500000D01*
X191414657Y-147373000D01*
X188127602Y-147373000D01*
X188194129Y-147291936D01*
X188317954Y-147060276D01*
X188394205Y-146808911D01*
X188413500Y-146613007D01*
X188413500Y-146386992D01*
X188394205Y-146191088D01*
X188317954Y-145939723D01*
X188194129Y-145708063D01*
X188027489Y-145505011D01*
X187824436Y-145338371D01*
X187592776Y-145214546D01*
X187341411Y-145138295D01*
X187080000Y-145112548D01*
X186818588Y-145138295D01*
X186567223Y-145214546D01*
X186335563Y-145338371D01*
X186132511Y-145505011D01*
X185965871Y-145708064D01*
X185842046Y-145939724D01*
X185765795Y-146191089D01*
X185746500Y-146386993D01*
X185746500Y-146613008D01*
X185765795Y-146808912D01*
X185842046Y-147060277D01*
X185965871Y-147291937D01*
X186032398Y-147373000D01*
X183335343Y-147373000D01*
X183335343Y-145500000D01*
X183327987Y-145425311D01*
X183306201Y-145353492D01*
X183270822Y-145287304D01*
X183223211Y-145229289D01*
X183165196Y-145181678D01*
X183099008Y-145146299D01*
X183027189Y-145124513D01*
X182952500Y-145117157D01*
X182627000Y-145117157D01*
X182627000Y-137758328D01*
X182640769Y-137653743D01*
X182677923Y-137564045D01*
X182737024Y-137487024D01*
X182814045Y-137427923D01*
X182903743Y-137390769D01*
X183008328Y-137377000D01*
X193750000Y-137377000D01*
X193766577Y-137375914D01*
X193895987Y-137358877D01*
X193928011Y-137350296D01*
X194048601Y-137300346D01*
X194077313Y-137283768D01*
X194180866Y-137204308D01*
X194204308Y-137180866D01*
X194283768Y-137077313D01*
X194300346Y-137048601D01*
X194350296Y-136928011D01*
X194358877Y-136895987D01*
X194375914Y-136766577D01*
X194377000Y-136750000D01*
X194377000Y-122250000D01*
X194375914Y-122233423D01*
X194358877Y-122104013D01*
X194350296Y-122071989D01*
X194300346Y-121951399D01*
X194283768Y-121922687D01*
X194204308Y-121819134D01*
X194180866Y-121795692D01*
X194077313Y-121716232D01*
X194048601Y-121699654D01*
X193928011Y-121649704D01*
X193895987Y-121641123D01*
X193766577Y-121624086D01*
X193750000Y-121623000D01*
X183008328Y-121623000D01*
X182903743Y-121609231D01*
X182814045Y-121572077D01*
X182737024Y-121512976D01*
X182677923Y-121435955D01*
X182640769Y-121346257D01*
X182627000Y-121241672D01*
X182627000Y-113181639D01*
X182664436Y-113161629D01*
X182867489Y-112994989D01*
X183034129Y-112791937D01*
X183157954Y-112560277D01*
X183234205Y-112308912D01*
X183253500Y-112113008D01*
X183253500Y-111886993D01*
X183234205Y-111691089D01*
X183157954Y-111439724D01*
X183034129Y-111208064D01*
X182971573Y-111131839D01*
X183008328Y-111127000D01*
X185664657Y-111127000D01*
X185664657Y-113000000D01*
G36*
X228596257Y-98140769D02*
G01*
X228685955Y-98177923D01*
X228762976Y-98237024D01*
X228822077Y-98314045D01*
X228859231Y-98403743D01*
X228873000Y-98508328D01*
X228873000Y-156491672D01*
X228859231Y-156596257D01*
X228822077Y-156685955D01*
X228762976Y-156762976D01*
X228685955Y-156822077D01*
X228596257Y-156859231D01*
X228491672Y-156873000D01*
X101008328Y-156873000D01*
X100903743Y-156859231D01*
X100814045Y-156822077D01*
X100737024Y-156762976D01*
X100677923Y-156685955D01*
X100640769Y-156596257D01*
X100627000Y-156491672D01*
X100627000Y-146900000D01*
X104011928Y-146900000D01*
X104011928Y-148600000D01*
X104024188Y-148724482D01*
X104060498Y-148844180D01*
X104119463Y-148954494D01*
X104198815Y-149051185D01*
X104295506Y-149130537D01*
X104405820Y-149189502D01*
X104525518Y-149225812D01*
X104650000Y-149238072D01*
X106350000Y-149238072D01*
X106474482Y-149225812D01*
X106594180Y-149189502D01*
X106704494Y-149130537D01*
X106801185Y-149051185D01*
X106880537Y-148954494D01*
X106939502Y-148844180D01*
X106961513Y-148771620D01*
X107093368Y-148903475D01*
X107336589Y-149065990D01*
X107606842Y-149177932D01*
X107893740Y-149235000D01*
X108186260Y-149235000D01*
X108473158Y-149177932D01*
X108743411Y-149065990D01*
X108986632Y-148903475D01*
X109193475Y-148696632D01*
X109310000Y-148522240D01*
X109426525Y-148696632D01*
X109633368Y-148903475D01*
X109876589Y-149065990D01*
X110146842Y-149177932D01*
X110433740Y-149235000D01*
X110726260Y-149235000D01*
X111013158Y-149177932D01*
X111283411Y-149065990D01*
X111526632Y-148903475D01*
X111733475Y-148696632D01*
X111850000Y-148522240D01*
X111966525Y-148696632D01*
X112173368Y-148903475D01*
X112416589Y-149065990D01*
X112686842Y-149177932D01*
X112973740Y-149235000D01*
X113266260Y-149235000D01*
X113553158Y-149177932D01*
X113823411Y-149065990D01*
X114066632Y-148903475D01*
X114273475Y-148696632D01*
X114341383Y-148595000D01*
X116836429Y-148595000D01*
X116836429Y-151565000D01*
X126269281Y-151565000D01*
X126559750Y-151759085D01*
X126920997Y-151908718D01*
X127304495Y-151985000D01*
X127695505Y-151985000D01*
X128079003Y-151908718D01*
X128440250Y-151759085D01*
X128765364Y-151541851D01*
X129041851Y-151265364D01*
X129259085Y-150940250D01*
X129408718Y-150579003D01*
X129485000Y-150195505D01*
X129485000Y-149804495D01*
X129408718Y-149420997D01*
X129259085Y-149059750D01*
X129041851Y-148734636D01*
X128765364Y-148458149D01*
X128440250Y-148240915D01*
X128079003Y-148091282D01*
X127695505Y-148015000D01*
X127304495Y-148015000D01*
X126920997Y-148091282D01*
X126559750Y-148240915D01*
X126234636Y-148458149D01*
X126097785Y-148595000D01*
X116836429Y-148595000D01*
X114341383Y-148595000D01*
X114435990Y-148453411D01*
X114547932Y-148183158D01*
X114605000Y-147896260D01*
X114605000Y-147603740D01*
X114547932Y-147316842D01*
X114435990Y-147046589D01*
X114273475Y-146803368D01*
X114066632Y-146596525D01*
X113847342Y-146450000D01*
X131158057Y-146450000D01*
X131185764Y-146731309D01*
X131267818Y-147001808D01*
X131401068Y-147251101D01*
X131580392Y-147469608D01*
X131798899Y-147648932D01*
X131931858Y-147720000D01*
X131798899Y-147791068D01*
X131580392Y-147970392D01*
X131401068Y-148188899D01*
X131267818Y-148438192D01*
X131185764Y-148708691D01*
X131158057Y-148990000D01*
X131185764Y-149271309D01*
X131267818Y-149541808D01*
X131401068Y-149791101D01*
X131580392Y-150009608D01*
X131798899Y-150188932D01*
X132048192Y-150322182D01*
X132318691Y-150404236D01*
X132529508Y-150425000D01*
X133470492Y-150425000D01*
X133681309Y-150404236D01*
X133951808Y-150322182D01*
X134201101Y-150188932D01*
X134419608Y-150009608D01*
X134530078Y-149875000D01*
X134656531Y-149875000D01*
X134700000Y-149879281D01*
X134743469Y-149875000D01*
X134743477Y-149875000D01*
X134873490Y-149862195D01*
X135040313Y-149811589D01*
X135194059Y-149729411D01*
X135328817Y-149618817D01*
X135356534Y-149585044D01*
X136345050Y-148596529D01*
X136378817Y-148568817D01*
X136438626Y-148495941D01*
X136489410Y-148434060D01*
X136489411Y-148434059D01*
X136571589Y-148280313D01*
X136622195Y-148113490D01*
X136635000Y-147983477D01*
X136635000Y-147983467D01*
X136639281Y-147940001D01*
X136635000Y-147896535D01*
X136635000Y-145947151D01*
X136696164Y-145914458D01*
X136829792Y-145804792D01*
X136939458Y-145671164D01*
X137020947Y-145518709D01*
X137071128Y-145353285D01*
X137088072Y-145181250D01*
X137088072Y-144693750D01*
X137071128Y-144521715D01*
X137020947Y-144356291D01*
X136939458Y-144203836D01*
X136829792Y-144070208D01*
X136696164Y-143960542D01*
X136543709Y-143879053D01*
X136378285Y-143828872D01*
X136206250Y-143811928D01*
X135293750Y-143811928D01*
X135121715Y-143828872D01*
X134956291Y-143879053D01*
X134803836Y-143960542D01*
X134670208Y-144070208D01*
X134560542Y-144203836D01*
X134479053Y-144356291D01*
X134428872Y-144521715D01*
X134411928Y-144693750D01*
X134411928Y-145181250D01*
X134428872Y-145353285D01*
X134471410Y-145493513D01*
X134419608Y-145430392D01*
X134201101Y-145251068D01*
X133951808Y-145117818D01*
X133681309Y-145035764D01*
X133470492Y-145015000D01*
X132529508Y-145015000D01*
X132318691Y-145035764D01*
X132048192Y-145117818D01*
X131798899Y-145251068D01*
X131580392Y-145430392D01*
X131401068Y-145648899D01*
X131267818Y-145898192D01*
X131185764Y-146168691D01*
X131158057Y-146450000D01*
X113847342Y-146450000D01*
X113823411Y-146434010D01*
X113553158Y-146322068D01*
X113266260Y-146265000D01*
X112973740Y-146265000D01*
X112686842Y-146322068D01*
X112416589Y-146434010D01*
X112173368Y-146596525D01*
X111966525Y-146803368D01*
X111850000Y-146977760D01*
X111733475Y-146803368D01*
X111526632Y-146596525D01*
X111283411Y-146434010D01*
X111013158Y-146322068D01*
X110726260Y-146265000D01*
X110433740Y-146265000D01*
X110146842Y-146322068D01*
X109876589Y-146434010D01*
X109633368Y-146596525D01*
X109426525Y-146803368D01*
X109310000Y-146977760D01*
X109193475Y-146803368D01*
X108986632Y-146596525D01*
X108743411Y-146434010D01*
X108473158Y-146322068D01*
X108186260Y-146265000D01*
X107893740Y-146265000D01*
X107606842Y-146322068D01*
X107336589Y-146434010D01*
X107093368Y-146596525D01*
X106961513Y-146728380D01*
X106939502Y-146655820D01*
X106880537Y-146545506D01*
X106801185Y-146448815D01*
X106704494Y-146369463D01*
X106594180Y-146310498D01*
X106474482Y-146274188D01*
X106350000Y-146261928D01*
X104650000Y-146261928D01*
X104525518Y-146274188D01*
X104405820Y-146310498D01*
X104295506Y-146369463D01*
X104198815Y-146448815D01*
X104119463Y-146545506D01*
X104060498Y-146655820D01*
X104024188Y-146775518D01*
X104011928Y-146900000D01*
X100627000Y-146900000D01*
X100627000Y-134950000D01*
X104561928Y-134950000D01*
X104561928Y-136550000D01*
X104574188Y-136674482D01*
X104610498Y-136794180D01*
X104669463Y-136904494D01*
X104748815Y-137001185D01*
X104845506Y-137080537D01*
X104955820Y-137139502D01*
X105075518Y-137175812D01*
X105083961Y-137176643D01*
X104885363Y-137375241D01*
X104728320Y-137610273D01*
X104620147Y-137871426D01*
X104565000Y-138148665D01*
X104565000Y-138431335D01*
X104620147Y-138708574D01*
X104728320Y-138969727D01*
X104885363Y-139204759D01*
X105085241Y-139404637D01*
X105320273Y-139561680D01*
X105581426Y-139669853D01*
X105858665Y-139725000D01*
X106141335Y-139725000D01*
X106418574Y-139669853D01*
X106679727Y-139561680D01*
X106914759Y-139404637D01*
X107114637Y-139204759D01*
X107271680Y-138969727D01*
X107379853Y-138708574D01*
X107435000Y-138431335D01*
X107435000Y-138148665D01*
X107379853Y-137871426D01*
X107271680Y-137610273D01*
X107114637Y-137375241D01*
X106916039Y-137176643D01*
X106924482Y-137175812D01*
X107044180Y-137139502D01*
X107154494Y-137080537D01*
X107251185Y-137001185D01*
X107330537Y-136904494D01*
X107389502Y-136794180D01*
X107425812Y-136674482D01*
X107438072Y-136550000D01*
X107438072Y-135608665D01*
X112185000Y-135608665D01*
X112185000Y-135891335D01*
X112240147Y-136168574D01*
X112348320Y-136429727D01*
X112505363Y-136664759D01*
X112705241Y-136864637D01*
X112940273Y-137021680D01*
X113201426Y-137129853D01*
X113478665Y-137185000D01*
X113761335Y-137185000D01*
X114038574Y-137129853D01*
X114299727Y-137021680D01*
X114534759Y-136864637D01*
X114734637Y-136664759D01*
X114891680Y-136429727D01*
X114999853Y-136168574D01*
X115055000Y-135891335D01*
X115055000Y-135608665D01*
X114999853Y-135331426D01*
X114891680Y-135070273D01*
X114734637Y-134835241D01*
X114534759Y-134635363D01*
X114299727Y-134478320D01*
X114038574Y-134370147D01*
X113761335Y-134315000D01*
X113478665Y-134315000D01*
X113201426Y-134370147D01*
X112940273Y-134478320D01*
X112705241Y-134635363D01*
X112505363Y-134835241D01*
X112348320Y-135070273D01*
X112240147Y-135331426D01*
X112185000Y-135608665D01*
X107438072Y-135608665D01*
X107438072Y-134950000D01*
X107425812Y-134825518D01*
X107389502Y-134705820D01*
X107330537Y-134595506D01*
X107251185Y-134498815D01*
X107154494Y-134419463D01*
X107044180Y-134360498D01*
X106924482Y-134324188D01*
X106800000Y-134311928D01*
X105200000Y-134311928D01*
X105075518Y-134324188D01*
X104955820Y-134360498D01*
X104845506Y-134419463D01*
X104748815Y-134498815D01*
X104669463Y-134595506D01*
X104610498Y-134705820D01*
X104574188Y-134825518D01*
X104561928Y-134950000D01*
X100627000Y-134950000D01*
X100627000Y-132648061D01*
X115715000Y-132648061D01*
X115715000Y-132851939D01*
X115754774Y-133051898D01*
X115832795Y-133240256D01*
X115946063Y-133409774D01*
X116090226Y-133553937D01*
X116259744Y-133667205D01*
X116448102Y-133745226D01*
X116648061Y-133785000D01*
X116851939Y-133785000D01*
X117051898Y-133745226D01*
X117240256Y-133667205D01*
X117409774Y-133553937D01*
X117553937Y-133409774D01*
X117667205Y-133240256D01*
X117745226Y-133051898D01*
X117785000Y-132851939D01*
X117785000Y-132648061D01*
X117745226Y-132448102D01*
X117667205Y-132259744D01*
X117553937Y-132090226D01*
X117510000Y-132046289D01*
X117510000Y-131790000D01*
X118158057Y-131790000D01*
X118185764Y-132071309D01*
X118267818Y-132341808D01*
X118401068Y-132591101D01*
X118580392Y-132809608D01*
X118798899Y-132988932D01*
X118931858Y-133060000D01*
X118798899Y-133131068D01*
X118580392Y-133310392D01*
X118401068Y-133528899D01*
X118267818Y-133778192D01*
X118185764Y-134048691D01*
X118158057Y-134330000D01*
X118185764Y-134611309D01*
X118267818Y-134881808D01*
X118401068Y-135131101D01*
X118580392Y-135349608D01*
X118798899Y-135528932D01*
X118931858Y-135600000D01*
X118798899Y-135671068D01*
X118580392Y-135850392D01*
X118401068Y-136068899D01*
X118267818Y-136318192D01*
X118185764Y-136588691D01*
X118158057Y-136870000D01*
X118185764Y-137151309D01*
X118267818Y-137421808D01*
X118401068Y-137671101D01*
X118580392Y-137889608D01*
X118798899Y-138068932D01*
X118931858Y-138140000D01*
X118798899Y-138211068D01*
X118580392Y-138390392D01*
X118401068Y-138608899D01*
X118267818Y-138858192D01*
X118185764Y-139128691D01*
X118158057Y-139410000D01*
X118185764Y-139691309D01*
X118267818Y-139961808D01*
X118401068Y-140211101D01*
X118580392Y-140429608D01*
X118798899Y-140608932D01*
X118931858Y-140680000D01*
X118798899Y-140751068D01*
X118580392Y-140930392D01*
X118401068Y-141148899D01*
X118267818Y-141398192D01*
X118185764Y-141668691D01*
X118158057Y-141950000D01*
X118185764Y-142231309D01*
X118267818Y-142501808D01*
X118401068Y-142751101D01*
X118580392Y-142969608D01*
X118798899Y-143148932D01*
X119048192Y-143282182D01*
X119318691Y-143364236D01*
X119529508Y-143385000D01*
X120470492Y-143385000D01*
X120681309Y-143364236D01*
X120951808Y-143282182D01*
X121201101Y-143148932D01*
X121419608Y-142969608D01*
X121598932Y-142751101D01*
X121732182Y-142501808D01*
X121814236Y-142231309D01*
X121841943Y-141950000D01*
X121814236Y-141668691D01*
X121732182Y-141398192D01*
X121598932Y-141148899D01*
X121419608Y-140930392D01*
X121201101Y-140751068D01*
X121068142Y-140680000D01*
X121201101Y-140608932D01*
X121419608Y-140429608D01*
X121598932Y-140211101D01*
X121732182Y-139961808D01*
X121814236Y-139691309D01*
X121841943Y-139410000D01*
X121814236Y-139128691D01*
X121732182Y-138858192D01*
X121598932Y-138608899D01*
X121419608Y-138390392D01*
X121201101Y-138211068D01*
X121068142Y-138140000D01*
X121201101Y-138068932D01*
X121419608Y-137889608D01*
X121598932Y-137671101D01*
X121732182Y-137421808D01*
X121814236Y-137151309D01*
X121841943Y-136870000D01*
X121814236Y-136588691D01*
X121732182Y-136318192D01*
X121598932Y-136068899D01*
X121419608Y-135850392D01*
X121201101Y-135671068D01*
X121068142Y-135600000D01*
X121201101Y-135528932D01*
X121419608Y-135349608D01*
X121598932Y-135131101D01*
X121732182Y-134881808D01*
X121814236Y-134611309D01*
X121841943Y-134330000D01*
X121814236Y-134048691D01*
X121732182Y-133778192D01*
X121598932Y-133528899D01*
X121419608Y-133310392D01*
X121201101Y-133131068D01*
X121068142Y-133060000D01*
X121201101Y-132988932D01*
X121419608Y-132809608D01*
X121598932Y-132591101D01*
X121732182Y-132341808D01*
X121814236Y-132071309D01*
X121841943Y-131790000D01*
X121814236Y-131508691D01*
X121732182Y-131238192D01*
X121598932Y-130988899D01*
X121419608Y-130770392D01*
X121306518Y-130677581D01*
X121324482Y-130675812D01*
X121444180Y-130639502D01*
X121554494Y-130580537D01*
X121651185Y-130501185D01*
X121730537Y-130404494D01*
X121789502Y-130294180D01*
X121825812Y-130174482D01*
X121838072Y-130050000D01*
X121838072Y-128450000D01*
X121825812Y-128325518D01*
X121789502Y-128205820D01*
X121730537Y-128095506D01*
X121651185Y-127998815D01*
X121554494Y-127919463D01*
X121444180Y-127860498D01*
X121324482Y-127824188D01*
X121200000Y-127811928D01*
X118800000Y-127811928D01*
X118675518Y-127824188D01*
X118555820Y-127860498D01*
X118445506Y-127919463D01*
X118348815Y-127998815D01*
X118269463Y-128095506D01*
X118210498Y-128205820D01*
X118174188Y-128325518D01*
X118161928Y-128450000D01*
X118161928Y-130050000D01*
X118174188Y-130174482D01*
X118210498Y-130294180D01*
X118269463Y-130404494D01*
X118348815Y-130501185D01*
X118445506Y-130580537D01*
X118555820Y-130639502D01*
X118675518Y-130675812D01*
X118693482Y-130677581D01*
X118580392Y-130770392D01*
X118401068Y-130988899D01*
X118267818Y-131238192D01*
X118185764Y-131508691D01*
X118158057Y-131790000D01*
X117510000Y-131790000D01*
X117510000Y-125564801D01*
X119383592Y-123691210D01*
X119453546Y-123705124D01*
X125086810Y-129338389D01*
X123238998Y-131186201D01*
X123210000Y-131209999D01*
X123115026Y-131325724D01*
X123044454Y-131457753D01*
X123000997Y-131601014D01*
X122990000Y-131712667D01*
X122990000Y-131712678D01*
X122986324Y-131750000D01*
X122990000Y-131787322D01*
X122990000Y-132287332D01*
X122990001Y-132287342D01*
X122990000Y-134993827D01*
X122956291Y-135004053D01*
X122803836Y-135085542D01*
X122670208Y-135195208D01*
X122560542Y-135328836D01*
X122479053Y-135481291D01*
X122428872Y-135646715D01*
X122411928Y-135818750D01*
X122411928Y-136306250D01*
X122428872Y-136478285D01*
X122479053Y-136643709D01*
X122560542Y-136796164D01*
X122670208Y-136929792D01*
X122803836Y-137039458D01*
X122956291Y-137120947D01*
X123121715Y-137171128D01*
X123293750Y-137188072D01*
X124206250Y-137188072D01*
X124378285Y-137171128D01*
X124543709Y-137120947D01*
X124696164Y-137039458D01*
X124829792Y-136929792D01*
X124939458Y-136796164D01*
X125020947Y-136643709D01*
X125071128Y-136478285D01*
X125088072Y-136306250D01*
X125088072Y-135818750D01*
X125071128Y-135646715D01*
X125020947Y-135481291D01*
X124939458Y-135328836D01*
X124829792Y-135195208D01*
X124696164Y-135085542D01*
X124543709Y-135004053D01*
X124510000Y-134993827D01*
X124510000Y-132064801D01*
X126257954Y-130316848D01*
X126418899Y-130448932D01*
X126551858Y-130520000D01*
X126418899Y-130591068D01*
X126200392Y-130770392D01*
X126021068Y-130988899D01*
X125887818Y-131238192D01*
X125805764Y-131508691D01*
X125778057Y-131790000D01*
X125805764Y-132071309D01*
X125887818Y-132341808D01*
X126021068Y-132591101D01*
X126200392Y-132809608D01*
X126418899Y-132988932D01*
X126551858Y-133060000D01*
X126418899Y-133131068D01*
X126200392Y-133310392D01*
X126021068Y-133528899D01*
X125887818Y-133778192D01*
X125805764Y-134048691D01*
X125778057Y-134330000D01*
X125805764Y-134611309D01*
X125887818Y-134881808D01*
X126021068Y-135131101D01*
X126200392Y-135349608D01*
X126418899Y-135528932D01*
X126551858Y-135600000D01*
X126418899Y-135671068D01*
X126200392Y-135850392D01*
X126021068Y-136068899D01*
X125887818Y-136318192D01*
X125805764Y-136588691D01*
X125778057Y-136870000D01*
X125805764Y-137151309D01*
X125887818Y-137421808D01*
X126021068Y-137671101D01*
X126200392Y-137889608D01*
X126418899Y-138068932D01*
X126551858Y-138140000D01*
X126418899Y-138211068D01*
X126200392Y-138390392D01*
X126021068Y-138608899D01*
X125887818Y-138858192D01*
X125805764Y-139128691D01*
X125778057Y-139410000D01*
X125805764Y-139691309D01*
X125887818Y-139961808D01*
X126021068Y-140211101D01*
X126200392Y-140429608D01*
X126418899Y-140608932D01*
X126551858Y-140680000D01*
X126418899Y-140751068D01*
X126200392Y-140930392D01*
X126021068Y-141148899D01*
X125887818Y-141398192D01*
X125805764Y-141668691D01*
X125778057Y-141950000D01*
X125805764Y-142231309D01*
X125887818Y-142501808D01*
X126021068Y-142751101D01*
X126200392Y-142969608D01*
X126418899Y-143148932D01*
X126551858Y-143220000D01*
X126418899Y-143291068D01*
X126200392Y-143470392D01*
X126021068Y-143688899D01*
X125887818Y-143938192D01*
X125805764Y-144208691D01*
X125778057Y-144490000D01*
X125805764Y-144771309D01*
X125887818Y-145041808D01*
X126021068Y-145291101D01*
X126200392Y-145509608D01*
X126418899Y-145688932D01*
X126668192Y-145822182D01*
X126938691Y-145904236D01*
X127149508Y-145925000D01*
X128090492Y-145925000D01*
X128301309Y-145904236D01*
X128571808Y-145822182D01*
X128821101Y-145688932D01*
X129039608Y-145509608D01*
X129218932Y-145291101D01*
X129352182Y-145041808D01*
X129434236Y-144771309D01*
X129461943Y-144490000D01*
X129434236Y-144208691D01*
X129352182Y-143938192D01*
X129218932Y-143688899D01*
X129039608Y-143470392D01*
X128821101Y-143291068D01*
X128688142Y-143220000D01*
X128821101Y-143148932D01*
X129039608Y-142969608D01*
X129218932Y-142751101D01*
X129352182Y-142501808D01*
X129434236Y-142231309D01*
X129461943Y-141950000D01*
X129434236Y-141668691D01*
X129352182Y-141398192D01*
X129337114Y-141370000D01*
X131158057Y-141370000D01*
X131185764Y-141651309D01*
X131267818Y-141921808D01*
X131401068Y-142171101D01*
X131580392Y-142389608D01*
X131798899Y-142568932D01*
X132048192Y-142702182D01*
X132318691Y-142784236D01*
X132529508Y-142805000D01*
X133470492Y-142805000D01*
X133681309Y-142784236D01*
X133951808Y-142702182D01*
X134201101Y-142568932D01*
X134419608Y-142389608D01*
X134598932Y-142171101D01*
X134732182Y-141921808D01*
X134814236Y-141651309D01*
X134841943Y-141370000D01*
X134814236Y-141088691D01*
X134732182Y-140818192D01*
X134598932Y-140568899D01*
X134419608Y-140350392D01*
X134201101Y-140171068D01*
X133951808Y-140037818D01*
X133681309Y-139955764D01*
X133470492Y-139935000D01*
X132529508Y-139935000D01*
X132318691Y-139955764D01*
X132048192Y-140037818D01*
X131798899Y-140171068D01*
X131580392Y-140350392D01*
X131401068Y-140568899D01*
X131267818Y-140818192D01*
X131185764Y-141088691D01*
X131158057Y-141370000D01*
X129337114Y-141370000D01*
X129218932Y-141148899D01*
X129039608Y-140930392D01*
X128821101Y-140751068D01*
X128688142Y-140680000D01*
X128821101Y-140608932D01*
X129039608Y-140429608D01*
X129218932Y-140211101D01*
X129352182Y-139961808D01*
X129434236Y-139691309D01*
X129461943Y-139410000D01*
X129434236Y-139128691D01*
X129352182Y-138858192D01*
X129218932Y-138608899D01*
X129039608Y-138390392D01*
X128821101Y-138211068D01*
X128688142Y-138140000D01*
X128821101Y-138068932D01*
X129039608Y-137889608D01*
X129218932Y-137671101D01*
X129352182Y-137421808D01*
X129434236Y-137151309D01*
X129461943Y-136870000D01*
X129434236Y-136588691D01*
X129352182Y-136318192D01*
X129337114Y-136290000D01*
X131158057Y-136290000D01*
X131185764Y-136571309D01*
X131267818Y-136841808D01*
X131401068Y-137091101D01*
X131580392Y-137309608D01*
X131798899Y-137488932D01*
X132048192Y-137622182D01*
X132318691Y-137704236D01*
X132529508Y-137725000D01*
X133470492Y-137725000D01*
X133681309Y-137704236D01*
X133951808Y-137622182D01*
X134201101Y-137488932D01*
X134419608Y-137309608D01*
X134598932Y-137091101D01*
X134732182Y-136841808D01*
X134814236Y-136571309D01*
X134841943Y-136290000D01*
X134814236Y-136008691D01*
X134732182Y-135738192D01*
X134598932Y-135488899D01*
X134419608Y-135270392D01*
X134306518Y-135177581D01*
X134324482Y-135175812D01*
X134444180Y-135139502D01*
X134554494Y-135080537D01*
X134651185Y-135001185D01*
X134730537Y-134904494D01*
X134789502Y-134794180D01*
X134825812Y-134674482D01*
X134838072Y-134550000D01*
X134838072Y-133750000D01*
X138778057Y-133750000D01*
X138805764Y-134031309D01*
X138887818Y-134301808D01*
X139021068Y-134551101D01*
X139200392Y-134769608D01*
X139418899Y-134948932D01*
X139551858Y-135020000D01*
X139418899Y-135091068D01*
X139200392Y-135270392D01*
X139021068Y-135488899D01*
X138887818Y-135738192D01*
X138805764Y-136008691D01*
X138778057Y-136290000D01*
X138805764Y-136571309D01*
X138887818Y-136841808D01*
X139021068Y-137091101D01*
X139200392Y-137309608D01*
X139418899Y-137488932D01*
X139551858Y-137560000D01*
X139418899Y-137631068D01*
X139200392Y-137810392D01*
X139021068Y-138028899D01*
X138887818Y-138278192D01*
X138805764Y-138548691D01*
X138778057Y-138830000D01*
X138805764Y-139111309D01*
X138887818Y-139381808D01*
X139021068Y-139631101D01*
X139200392Y-139849608D01*
X139418899Y-140028932D01*
X139551858Y-140100000D01*
X139418899Y-140171068D01*
X139200392Y-140350392D01*
X139021068Y-140568899D01*
X138887818Y-140818192D01*
X138805764Y-141088691D01*
X138778057Y-141370000D01*
X138805764Y-141651309D01*
X138887818Y-141921808D01*
X139021068Y-142171101D01*
X139200392Y-142389608D01*
X139418899Y-142568932D01*
X139551858Y-142640000D01*
X139418899Y-142711068D01*
X139200392Y-142890392D01*
X139021068Y-143108899D01*
X138887818Y-143358192D01*
X138805764Y-143628691D01*
X138778057Y-143910000D01*
X138805764Y-144191309D01*
X138887818Y-144461808D01*
X139021068Y-144711101D01*
X139200392Y-144929608D01*
X139418899Y-145108932D01*
X139551858Y-145180000D01*
X139418899Y-145251068D01*
X139200392Y-145430392D01*
X139021068Y-145648899D01*
X138887818Y-145898192D01*
X138805764Y-146168691D01*
X138778057Y-146450000D01*
X138805764Y-146731309D01*
X138887818Y-147001808D01*
X139021068Y-147251101D01*
X139200392Y-147469608D01*
X139418899Y-147648932D01*
X139551858Y-147720000D01*
X139418899Y-147791068D01*
X139200392Y-147970392D01*
X139021068Y-148188899D01*
X138887818Y-148438192D01*
X138805764Y-148708691D01*
X138778057Y-148990000D01*
X138805764Y-149271309D01*
X138887818Y-149541808D01*
X139021068Y-149791101D01*
X139200392Y-150009608D01*
X139418899Y-150188932D01*
X139668192Y-150322182D01*
X139938691Y-150404236D01*
X140149508Y-150425000D01*
X141090492Y-150425000D01*
X141301309Y-150404236D01*
X141571808Y-150322182D01*
X141821101Y-150188932D01*
X142039608Y-150009608D01*
X142207939Y-149804495D01*
X220515000Y-149804495D01*
X220515000Y-150195505D01*
X220591282Y-150579003D01*
X220740915Y-150940250D01*
X220958149Y-151265364D01*
X221234636Y-151541851D01*
X221559750Y-151759085D01*
X221920997Y-151908718D01*
X222304495Y-151985000D01*
X222695505Y-151985000D01*
X223079003Y-151908718D01*
X223440250Y-151759085D01*
X223765364Y-151541851D01*
X224041851Y-151265364D01*
X224259085Y-150940250D01*
X224408718Y-150579003D01*
X224485000Y-150195505D01*
X224485000Y-149804495D01*
X224408718Y-149420997D01*
X224259085Y-149059750D01*
X224041851Y-148734636D01*
X223765364Y-148458149D01*
X223440250Y-148240915D01*
X223079003Y-148091282D01*
X222695505Y-148015000D01*
X222304495Y-148015000D01*
X221920997Y-148091282D01*
X221559750Y-148240915D01*
X221234636Y-148458149D01*
X220958149Y-148734636D01*
X220740915Y-149059750D01*
X220591282Y-149420997D01*
X220515000Y-149804495D01*
X142207939Y-149804495D01*
X142218932Y-149791101D01*
X142352182Y-149541808D01*
X142434236Y-149271309D01*
X142461943Y-148990000D01*
X142434236Y-148708691D01*
X142352182Y-148438192D01*
X142218932Y-148188899D01*
X142039608Y-147970392D01*
X141821101Y-147791068D01*
X141688142Y-147720000D01*
X141821101Y-147648932D01*
X142039608Y-147469608D01*
X142218932Y-147251101D01*
X142352182Y-147001808D01*
X142358524Y-146980901D01*
X142462463Y-147231831D01*
X142652337Y-147515998D01*
X142894002Y-147757663D01*
X143178169Y-147947537D01*
X143493919Y-148078325D01*
X143829117Y-148145000D01*
X144170883Y-148145000D01*
X144506081Y-148078325D01*
X144821831Y-147947537D01*
X145105998Y-147757663D01*
X145347663Y-147515998D01*
X145537537Y-147231831D01*
X145668325Y-146916081D01*
X145735000Y-146580883D01*
X145735000Y-146239117D01*
X145668325Y-145903919D01*
X145537537Y-145588169D01*
X145478625Y-145500000D01*
X150659428Y-145500000D01*
X150659428Y-147500000D01*
X150671688Y-147624482D01*
X150707998Y-147744180D01*
X150766963Y-147854494D01*
X150846315Y-147951185D01*
X150943006Y-148030537D01*
X151053320Y-148089502D01*
X151173018Y-148125812D01*
X151297500Y-148138072D01*
X153202500Y-148138072D01*
X153326982Y-148125812D01*
X153446680Y-148089502D01*
X153556994Y-148030537D01*
X153653685Y-147951185D01*
X153733037Y-147854494D01*
X153777905Y-147770553D01*
X153903766Y-147873845D01*
X154179552Y-148021255D01*
X154478797Y-148112030D01*
X154790000Y-148142681D01*
X155101204Y-148112030D01*
X155400449Y-148021255D01*
X155676235Y-147873845D01*
X155917963Y-147675463D01*
X156116345Y-147433734D01*
X156263755Y-147157948D01*
X156354530Y-146858703D01*
X156377500Y-146625485D01*
X156377500Y-146374514D01*
X156354530Y-146141296D01*
X156263755Y-145842051D01*
X156116345Y-145566265D01*
X156061963Y-145500000D01*
X161409428Y-145500000D01*
X161409428Y-147500000D01*
X161421688Y-147624482D01*
X161457998Y-147744180D01*
X161516963Y-147854494D01*
X161596315Y-147951185D01*
X161693006Y-148030537D01*
X161803320Y-148089502D01*
X161923018Y-148125812D01*
X162047500Y-148138072D01*
X163952500Y-148138072D01*
X164076982Y-148125812D01*
X164196680Y-148089502D01*
X164306994Y-148030537D01*
X164403685Y-147951185D01*
X164483037Y-147854494D01*
X164527905Y-147770553D01*
X164653766Y-147873845D01*
X164929552Y-148021255D01*
X165228797Y-148112030D01*
X165540000Y-148142681D01*
X165851204Y-148112030D01*
X166150449Y-148021255D01*
X166426235Y-147873845D01*
X166667963Y-147675463D01*
X166866345Y-147433734D01*
X167013755Y-147157948D01*
X167104530Y-146858703D01*
X167127500Y-146625485D01*
X167127500Y-146374514D01*
X167104530Y-146141296D01*
X167013755Y-145842051D01*
X166866345Y-145566265D01*
X166667963Y-145324537D01*
X166426234Y-145126155D01*
X166150448Y-144978745D01*
X165851203Y-144887970D01*
X165540000Y-144857319D01*
X165228796Y-144887970D01*
X164929551Y-144978745D01*
X164653765Y-145126155D01*
X164527905Y-145229446D01*
X164483037Y-145145506D01*
X164403685Y-145048815D01*
X164306994Y-144969463D01*
X164196680Y-144910498D01*
X164076982Y-144874188D01*
X163952500Y-144861928D01*
X162047500Y-144861928D01*
X161923018Y-144874188D01*
X161803320Y-144910498D01*
X161693006Y-144969463D01*
X161596315Y-145048815D01*
X161516963Y-145145506D01*
X161457998Y-145255820D01*
X161421688Y-145375518D01*
X161409428Y-145500000D01*
X156061963Y-145500000D01*
X155917963Y-145324537D01*
X155676234Y-145126155D01*
X155400448Y-144978745D01*
X155101203Y-144887970D01*
X154790000Y-144857319D01*
X154478796Y-144887970D01*
X154179551Y-144978745D01*
X153903765Y-145126155D01*
X153777905Y-145229446D01*
X153733037Y-145145506D01*
X153653685Y-145048815D01*
X153556994Y-144969463D01*
X153446680Y-144910498D01*
X153326982Y-144874188D01*
X153202500Y-144861928D01*
X151297500Y-144861928D01*
X151173018Y-144874188D01*
X151053320Y-144910498D01*
X150943006Y-144969463D01*
X150846315Y-145048815D01*
X150766963Y-145145506D01*
X150707998Y-145255820D01*
X150671688Y-145375518D01*
X150659428Y-145500000D01*
X145478625Y-145500000D01*
X145347663Y-145304002D01*
X145105998Y-145062337D01*
X144821831Y-144872463D01*
X144506081Y-144741675D01*
X144170883Y-144675000D01*
X143829117Y-144675000D01*
X143493919Y-144741675D01*
X143178169Y-144872463D01*
X142894002Y-145062337D01*
X142652337Y-145304002D01*
X142462463Y-145588169D01*
X142341965Y-145879077D01*
X142218932Y-145648899D01*
X142039608Y-145430392D01*
X141821101Y-145251068D01*
X141688142Y-145180000D01*
X141821101Y-145108932D01*
X142039608Y-144929608D01*
X142218932Y-144711101D01*
X142352182Y-144461808D01*
X142434236Y-144191309D01*
X142461943Y-143910000D01*
X142434236Y-143628691D01*
X142352182Y-143358192D01*
X142218932Y-143108899D01*
X142039608Y-142890392D01*
X141821101Y-142711068D01*
X141688142Y-142640000D01*
X141821101Y-142568932D01*
X142039608Y-142389608D01*
X142150078Y-142255000D01*
X143274031Y-142255000D01*
X143317500Y-142259281D01*
X143360969Y-142255000D01*
X143360977Y-142255000D01*
X143490990Y-142242195D01*
X143657813Y-142191589D01*
X143811559Y-142109411D01*
X143946317Y-141998817D01*
X143974034Y-141965044D01*
X144124565Y-141814514D01*
X144139202Y-141813072D01*
X144456250Y-141813072D01*
X144628285Y-141796128D01*
X144793709Y-141745947D01*
X144946164Y-141664458D01*
X145079792Y-141554792D01*
X145189458Y-141421164D01*
X145270947Y-141268709D01*
X145321128Y-141103285D01*
X145338072Y-140931250D01*
X145338072Y-140443750D01*
X145321128Y-140271715D01*
X145270947Y-140106291D01*
X145189458Y-139953836D01*
X145079792Y-139820208D01*
X144994244Y-139750000D01*
X145079792Y-139679792D01*
X145189458Y-139546164D01*
X145270947Y-139393709D01*
X145321128Y-139228285D01*
X145338072Y-139056250D01*
X145338072Y-138568750D01*
X145321128Y-138396715D01*
X145270947Y-138231291D01*
X145189458Y-138078836D01*
X145113850Y-137986708D01*
X145224482Y-137975812D01*
X145344180Y-137939502D01*
X145454494Y-137880537D01*
X145551185Y-137801185D01*
X145630537Y-137704494D01*
X145689502Y-137594180D01*
X145725812Y-137474482D01*
X145738072Y-137350000D01*
X145738072Y-135150000D01*
X145725812Y-135025518D01*
X145689502Y-134905820D01*
X145630537Y-134795506D01*
X145551185Y-134698815D01*
X145454494Y-134619463D01*
X145344180Y-134560498D01*
X145224482Y-134524188D01*
X145100000Y-134511928D01*
X142900000Y-134511928D01*
X142775518Y-134524188D01*
X142655820Y-134560498D01*
X142545506Y-134619463D01*
X142448815Y-134698815D01*
X142369463Y-134795506D01*
X142310498Y-134905820D01*
X142274188Y-135025518D01*
X142261928Y-135150000D01*
X142261928Y-135569339D01*
X142218932Y-135488899D01*
X142039608Y-135270392D01*
X141821101Y-135091068D01*
X141688142Y-135020000D01*
X141821101Y-134948932D01*
X142039608Y-134769608D01*
X142218932Y-134551101D01*
X142352182Y-134301808D01*
X142434236Y-134031309D01*
X142461943Y-133750000D01*
X142434236Y-133468691D01*
X142352182Y-133198192D01*
X142218932Y-132948899D01*
X142039608Y-132730392D01*
X141821101Y-132551068D01*
X141571808Y-132417818D01*
X141301309Y-132335764D01*
X141090492Y-132315000D01*
X140149508Y-132315000D01*
X139938691Y-132335764D01*
X139668192Y-132417818D01*
X139418899Y-132551068D01*
X139200392Y-132730392D01*
X139021068Y-132948899D01*
X138887818Y-133198192D01*
X138805764Y-133468691D01*
X138778057Y-133750000D01*
X134838072Y-133750000D01*
X134838072Y-132950000D01*
X134825812Y-132825518D01*
X134789502Y-132705820D01*
X134730537Y-132595506D01*
X134651185Y-132498815D01*
X134554494Y-132419463D01*
X134444180Y-132360498D01*
X134324482Y-132324188D01*
X134200000Y-132311928D01*
X131800000Y-132311928D01*
X131675518Y-132324188D01*
X131555820Y-132360498D01*
X131445506Y-132419463D01*
X131348815Y-132498815D01*
X131269463Y-132595506D01*
X131210498Y-132705820D01*
X131174188Y-132825518D01*
X131161928Y-132950000D01*
X131161928Y-134550000D01*
X131174188Y-134674482D01*
X131210498Y-134794180D01*
X131269463Y-134904494D01*
X131348815Y-135001185D01*
X131445506Y-135080537D01*
X131555820Y-135139502D01*
X131675518Y-135175812D01*
X131693482Y-135177581D01*
X131580392Y-135270392D01*
X131401068Y-135488899D01*
X131267818Y-135738192D01*
X131185764Y-136008691D01*
X131158057Y-136290000D01*
X129337114Y-136290000D01*
X129218932Y-136068899D01*
X129039608Y-135850392D01*
X128821101Y-135671068D01*
X128688142Y-135600000D01*
X128821101Y-135528932D01*
X129039608Y-135349608D01*
X129218932Y-135131101D01*
X129352182Y-134881808D01*
X129434236Y-134611309D01*
X129461943Y-134330000D01*
X129434236Y-134048691D01*
X129352182Y-133778192D01*
X129218932Y-133528899D01*
X129039608Y-133310392D01*
X128821101Y-133131068D01*
X128688142Y-133060000D01*
X128821101Y-132988932D01*
X129039608Y-132809608D01*
X129218932Y-132591101D01*
X129352182Y-132341808D01*
X129434236Y-132071309D01*
X129461943Y-131790000D01*
X129434236Y-131508691D01*
X129401266Y-131400000D01*
X161461928Y-131400000D01*
X161461928Y-134600000D01*
X161474188Y-134724482D01*
X161510498Y-134844180D01*
X161569463Y-134954494D01*
X161648815Y-135051185D01*
X161745506Y-135130537D01*
X161855820Y-135189502D01*
X161975518Y-135225812D01*
X162100000Y-135238072D01*
X165300000Y-135238072D01*
X165424482Y-135225812D01*
X165544180Y-135189502D01*
X165654494Y-135130537D01*
X165751185Y-135051185D01*
X165830537Y-134954494D01*
X165889502Y-134844180D01*
X165925812Y-134724482D01*
X165938072Y-134600000D01*
X165938072Y-133012009D01*
X170865260Y-133012009D01*
X170865260Y-133727991D01*
X171004941Y-134430215D01*
X171278935Y-135091695D01*
X171676713Y-135687012D01*
X172182988Y-136193287D01*
X172778305Y-136591065D01*
X173439785Y-136865059D01*
X174142009Y-137004740D01*
X174857991Y-137004740D01*
X175560215Y-136865059D01*
X176221695Y-136591065D01*
X176817012Y-136193287D01*
X177323287Y-135687012D01*
X177721065Y-135091695D01*
X177995059Y-134430215D01*
X178134740Y-133727991D01*
X178134740Y-133012009D01*
X178088566Y-132779872D01*
X183815000Y-132779872D01*
X183815000Y-133220128D01*
X183900890Y-133651925D01*
X184069369Y-134058669D01*
X184313962Y-134424729D01*
X184625271Y-134736038D01*
X184991331Y-134980631D01*
X185398075Y-135149110D01*
X185829872Y-135235000D01*
X186270128Y-135235000D01*
X186701925Y-135149110D01*
X187108669Y-134980631D01*
X187474729Y-134736038D01*
X187786038Y-134424729D01*
X188030631Y-134058669D01*
X188199110Y-133651925D01*
X188285000Y-133220128D01*
X188285000Y-132779872D01*
X188199110Y-132348075D01*
X188030631Y-131941331D01*
X187786038Y-131575271D01*
X187474729Y-131263962D01*
X187108669Y-131019369D01*
X186701925Y-130850890D01*
X186270128Y-130765000D01*
X185829872Y-130765000D01*
X185398075Y-130850890D01*
X184991331Y-131019369D01*
X184625271Y-131263962D01*
X184313962Y-131575271D01*
X184069369Y-131941331D01*
X183900890Y-132348075D01*
X183815000Y-132779872D01*
X178088566Y-132779872D01*
X177995059Y-132309785D01*
X177721065Y-131648305D01*
X177323287Y-131052988D01*
X176817012Y-130546713D01*
X176221695Y-130148935D01*
X175560215Y-129874941D01*
X174857991Y-129735260D01*
X174142009Y-129735260D01*
X173439785Y-129874941D01*
X172778305Y-130148935D01*
X172182988Y-130546713D01*
X171676713Y-131052988D01*
X171278935Y-131648305D01*
X171004941Y-132309785D01*
X170865260Y-133012009D01*
X165938072Y-133012009D01*
X165938072Y-131400000D01*
X165925812Y-131275518D01*
X165889502Y-131155820D01*
X165830537Y-131045506D01*
X165751185Y-130948815D01*
X165654494Y-130869463D01*
X165544180Y-130810498D01*
X165424482Y-130774188D01*
X165300000Y-130761928D01*
X162100000Y-130761928D01*
X161975518Y-130774188D01*
X161855820Y-130810498D01*
X161745506Y-130869463D01*
X161648815Y-130948815D01*
X161569463Y-131045506D01*
X161510498Y-131155820D01*
X161474188Y-131275518D01*
X161461928Y-131400000D01*
X129401266Y-131400000D01*
X129352182Y-131238192D01*
X129218932Y-130988899D01*
X129039608Y-130770392D01*
X128821101Y-130591068D01*
X128688142Y-130520000D01*
X128821101Y-130448932D01*
X129039608Y-130269608D01*
X129218932Y-130051101D01*
X129352182Y-129801808D01*
X129434236Y-129531309D01*
X129461943Y-129250000D01*
X129434236Y-128968691D01*
X129352182Y-128698192D01*
X129218932Y-128448899D01*
X129039608Y-128230392D01*
X128821101Y-128051068D01*
X128571808Y-127917818D01*
X128301309Y-127835764D01*
X128090492Y-127815000D01*
X127149508Y-127815000D01*
X126938691Y-127835764D01*
X126668192Y-127917818D01*
X126418899Y-128051068D01*
X126355048Y-128103469D01*
X121951579Y-123700000D01*
X131158057Y-123700000D01*
X131185764Y-123981309D01*
X131267818Y-124251808D01*
X131401068Y-124501101D01*
X131580392Y-124719608D01*
X131798899Y-124898932D01*
X131931858Y-124970000D01*
X131798899Y-125041068D01*
X131580392Y-125220392D01*
X131401068Y-125438899D01*
X131267818Y-125688192D01*
X131185764Y-125958691D01*
X131158057Y-126240000D01*
X131185764Y-126521309D01*
X131267818Y-126791808D01*
X131401068Y-127041101D01*
X131580392Y-127259608D01*
X131798899Y-127438932D01*
X132048192Y-127572182D01*
X132318691Y-127654236D01*
X132529508Y-127675000D01*
X133470492Y-127675000D01*
X133681309Y-127654236D01*
X133951808Y-127572182D01*
X134201101Y-127438932D01*
X134279002Y-127375000D01*
X135144249Y-127375000D01*
X135200000Y-127380491D01*
X135255751Y-127375000D01*
X135255752Y-127375000D01*
X135422499Y-127358577D01*
X135636447Y-127293676D01*
X135833623Y-127188284D01*
X136006449Y-127046449D01*
X136041996Y-127003135D01*
X138763141Y-124281991D01*
X138806449Y-124246449D01*
X138864672Y-124175504D01*
X138887818Y-124251808D01*
X139021068Y-124501101D01*
X139200392Y-124719608D01*
X139418899Y-124898932D01*
X139551858Y-124970000D01*
X139418899Y-125041068D01*
X139200392Y-125220392D01*
X139021068Y-125438899D01*
X138887818Y-125688192D01*
X138805764Y-125958691D01*
X138778057Y-126240000D01*
X138805764Y-126521309D01*
X138887818Y-126791808D01*
X139021068Y-127041101D01*
X139200392Y-127259608D01*
X139418899Y-127438932D01*
X139668192Y-127572182D01*
X139938691Y-127654236D01*
X140149508Y-127675000D01*
X141090492Y-127675000D01*
X141301309Y-127654236D01*
X141571808Y-127572182D01*
X141821101Y-127438932D01*
X142039608Y-127259608D01*
X142218932Y-127041101D01*
X142352182Y-126791808D01*
X142434236Y-126521309D01*
X142461943Y-126240000D01*
X142434236Y-125958691D01*
X142352182Y-125688192D01*
X142218932Y-125438899D01*
X142039608Y-125220392D01*
X141821101Y-125041068D01*
X141688142Y-124970000D01*
X141821101Y-124898932D01*
X142039608Y-124719608D01*
X142218932Y-124501101D01*
X142352182Y-124251808D01*
X142358524Y-124230901D01*
X142462463Y-124481831D01*
X142652337Y-124765998D01*
X142894002Y-125007663D01*
X143178169Y-125197537D01*
X143493919Y-125328325D01*
X143829117Y-125395000D01*
X144170883Y-125395000D01*
X144506081Y-125328325D01*
X144821831Y-125197537D01*
X145105998Y-125007663D01*
X145347663Y-124765998D01*
X145537537Y-124481831D01*
X145571432Y-124400000D01*
X161461928Y-124400000D01*
X161461928Y-127600000D01*
X161474188Y-127724482D01*
X161510498Y-127844180D01*
X161569463Y-127954494D01*
X161648815Y-128051185D01*
X161745506Y-128130537D01*
X161855820Y-128189502D01*
X161975518Y-128225812D01*
X162100000Y-128238072D01*
X165300000Y-128238072D01*
X165424482Y-128225812D01*
X165544180Y-128189502D01*
X165654494Y-128130537D01*
X165751185Y-128051185D01*
X165830537Y-127954494D01*
X165889502Y-127844180D01*
X165925812Y-127724482D01*
X165938072Y-127600000D01*
X165938072Y-124400000D01*
X165925812Y-124275518D01*
X165889502Y-124155820D01*
X165830537Y-124045506D01*
X165751185Y-123948815D01*
X165654494Y-123869463D01*
X165544180Y-123810498D01*
X165424482Y-123774188D01*
X165300000Y-123761928D01*
X162100000Y-123761928D01*
X161975518Y-123774188D01*
X161855820Y-123810498D01*
X161745506Y-123869463D01*
X161648815Y-123948815D01*
X161569463Y-124045506D01*
X161510498Y-124155820D01*
X161474188Y-124275518D01*
X161461928Y-124400000D01*
X145571432Y-124400000D01*
X145668325Y-124166081D01*
X145735000Y-123830883D01*
X145735000Y-123489117D01*
X145668325Y-123153919D01*
X145537537Y-122838169D01*
X145478799Y-122750260D01*
X170862188Y-122750260D01*
X170862188Y-128749740D01*
X170874448Y-128874222D01*
X170910758Y-128993920D01*
X170969723Y-129104234D01*
X171049075Y-129200925D01*
X171145766Y-129280277D01*
X171256080Y-129339242D01*
X171375778Y-129375552D01*
X171500260Y-129387812D01*
X177499740Y-129387812D01*
X177624222Y-129375552D01*
X177743920Y-129339242D01*
X177854234Y-129280277D01*
X177950925Y-129200925D01*
X178030277Y-129104234D01*
X178089242Y-128993920D01*
X178125552Y-128874222D01*
X178137812Y-128749740D01*
X178137812Y-125779872D01*
X183815000Y-125779872D01*
X183815000Y-126220128D01*
X183900890Y-126651925D01*
X184069369Y-127058669D01*
X184313962Y-127424729D01*
X184625271Y-127736038D01*
X184991331Y-127980631D01*
X185398075Y-128149110D01*
X185829872Y-128235000D01*
X186270128Y-128235000D01*
X186701925Y-128149110D01*
X187108669Y-127980631D01*
X187474729Y-127736038D01*
X187786038Y-127424729D01*
X188030631Y-127058669D01*
X188199110Y-126651925D01*
X188285000Y-126220128D01*
X188285000Y-125779872D01*
X188199110Y-125348075D01*
X188030631Y-124941331D01*
X187786038Y-124575271D01*
X187474729Y-124263962D01*
X187108669Y-124019369D01*
X186701925Y-123850890D01*
X186270128Y-123765000D01*
X185829872Y-123765000D01*
X185398075Y-123850890D01*
X184991331Y-124019369D01*
X184625271Y-124263962D01*
X184313962Y-124575271D01*
X184069369Y-124941331D01*
X183900890Y-125348075D01*
X183815000Y-125779872D01*
X178137812Y-125779872D01*
X178137812Y-122750260D01*
X178125552Y-122625778D01*
X178089242Y-122506080D01*
X178030277Y-122395766D01*
X177950925Y-122299075D01*
X177854234Y-122219723D01*
X177743920Y-122160758D01*
X177624222Y-122124448D01*
X177499740Y-122112188D01*
X171500260Y-122112188D01*
X171375778Y-122124448D01*
X171256080Y-122160758D01*
X171145766Y-122219723D01*
X171049075Y-122299075D01*
X170969723Y-122395766D01*
X170910758Y-122506080D01*
X170874448Y-122625778D01*
X170862188Y-122750260D01*
X145478799Y-122750260D01*
X145347663Y-122554002D01*
X145105998Y-122312337D01*
X144821831Y-122122463D01*
X144506081Y-121991675D01*
X144170883Y-121925000D01*
X143829117Y-121925000D01*
X143493919Y-121991675D01*
X143178169Y-122122463D01*
X142894002Y-122312337D01*
X142652337Y-122554002D01*
X142462463Y-122838169D01*
X142341965Y-123129077D01*
X142218932Y-122898899D01*
X142039608Y-122680392D01*
X141821101Y-122501068D01*
X141688142Y-122430000D01*
X141821101Y-122358932D01*
X142039608Y-122179608D01*
X142218932Y-121961101D01*
X142352182Y-121711808D01*
X142434236Y-121441309D01*
X142461943Y-121160000D01*
X142434236Y-120878691D01*
X142352182Y-120608192D01*
X142218932Y-120358899D01*
X142039608Y-120140392D01*
X141821101Y-119961068D01*
X141688142Y-119890000D01*
X141821101Y-119818932D01*
X142039608Y-119639608D01*
X142150078Y-119505000D01*
X143274031Y-119505000D01*
X143317500Y-119509281D01*
X143360969Y-119505000D01*
X143360977Y-119505000D01*
X143490990Y-119492195D01*
X143657813Y-119441589D01*
X143811559Y-119359411D01*
X143946317Y-119248817D01*
X143974034Y-119215044D01*
X144126006Y-119063072D01*
X144456250Y-119063072D01*
X144628285Y-119046128D01*
X144793709Y-118995947D01*
X144946164Y-118914458D01*
X145079792Y-118804792D01*
X145189458Y-118671164D01*
X145270947Y-118518709D01*
X145321128Y-118353285D01*
X145338072Y-118181250D01*
X145338072Y-117693750D01*
X145321128Y-117521715D01*
X145270947Y-117356291D01*
X145189458Y-117203836D01*
X145079792Y-117070208D01*
X144994244Y-117000000D01*
X145079792Y-116929792D01*
X145189458Y-116796164D01*
X145270947Y-116643709D01*
X145321128Y-116478285D01*
X145338072Y-116306250D01*
X145338072Y-115818750D01*
X145321128Y-115646715D01*
X145270947Y-115481291D01*
X145189458Y-115328836D01*
X145113850Y-115236708D01*
X145224482Y-115225812D01*
X145344180Y-115189502D01*
X145454494Y-115130537D01*
X145551185Y-115051185D01*
X145630537Y-114954494D01*
X145689502Y-114844180D01*
X145725812Y-114724482D01*
X145738072Y-114600000D01*
X145738072Y-112400000D01*
X145725812Y-112275518D01*
X145689502Y-112155820D01*
X145630537Y-112045506D01*
X145551185Y-111948815D01*
X145460649Y-111874514D01*
X152622500Y-111874514D01*
X152622500Y-112125485D01*
X152645470Y-112358703D01*
X152736245Y-112657948D01*
X152883655Y-112933734D01*
X153082037Y-113175463D01*
X153323765Y-113373845D01*
X153599551Y-113521255D01*
X153898796Y-113612030D01*
X154210000Y-113642681D01*
X154521203Y-113612030D01*
X154820448Y-113521255D01*
X155096234Y-113373845D01*
X155222095Y-113270553D01*
X155266963Y-113354494D01*
X155346315Y-113451185D01*
X155443006Y-113530537D01*
X155553320Y-113589502D01*
X155673018Y-113625812D01*
X155797500Y-113638072D01*
X157702500Y-113638072D01*
X157826982Y-113625812D01*
X157946680Y-113589502D01*
X158056994Y-113530537D01*
X158153685Y-113451185D01*
X158233037Y-113354494D01*
X158292002Y-113244180D01*
X158328312Y-113124482D01*
X158340572Y-113000000D01*
X158340572Y-111874514D01*
X163372500Y-111874514D01*
X163372500Y-112125485D01*
X163395470Y-112358703D01*
X163486245Y-112657948D01*
X163633655Y-112933734D01*
X163832037Y-113175463D01*
X164073765Y-113373845D01*
X164349551Y-113521255D01*
X164648796Y-113612030D01*
X164960000Y-113642681D01*
X165271203Y-113612030D01*
X165570448Y-113521255D01*
X165846234Y-113373845D01*
X165972095Y-113270553D01*
X166016963Y-113354494D01*
X166096315Y-113451185D01*
X166193006Y-113530537D01*
X166303320Y-113589502D01*
X166423018Y-113625812D01*
X166547500Y-113638072D01*
X168452500Y-113638072D01*
X168576982Y-113625812D01*
X168696680Y-113589502D01*
X168806994Y-113530537D01*
X168903685Y-113451185D01*
X168983037Y-113354494D01*
X169042002Y-113244180D01*
X169078312Y-113124482D01*
X169090572Y-113000000D01*
X169090572Y-111874514D01*
X180332500Y-111874514D01*
X180332500Y-112125485D01*
X180355470Y-112358703D01*
X180446245Y-112657948D01*
X180593655Y-112933734D01*
X180792037Y-113175463D01*
X181033765Y-113373845D01*
X181309551Y-113521255D01*
X181608796Y-113612030D01*
X181623000Y-113613429D01*
X181623000Y-122000000D01*
X181624086Y-122016577D01*
X181641123Y-122145987D01*
X181649704Y-122178011D01*
X181699654Y-122298601D01*
X181716232Y-122327313D01*
X181795692Y-122430866D01*
X181819134Y-122454308D01*
X181922687Y-122533768D01*
X181951399Y-122550346D01*
X182071989Y-122600296D01*
X182104013Y-122608877D01*
X182233423Y-122625914D01*
X182250000Y-122627000D01*
X192991672Y-122627000D01*
X193096257Y-122640769D01*
X193185955Y-122677923D01*
X193262976Y-122737024D01*
X193322077Y-122814045D01*
X193359231Y-122903743D01*
X193373000Y-123008328D01*
X193373000Y-135991672D01*
X193359231Y-136096257D01*
X193322077Y-136185955D01*
X193262976Y-136262976D01*
X193185955Y-136322077D01*
X193096257Y-136359231D01*
X192991672Y-136373000D01*
X182250000Y-136373000D01*
X182233423Y-136374086D01*
X182104013Y-136391123D01*
X182071989Y-136399704D01*
X181951399Y-136449654D01*
X181922687Y-136466232D01*
X181819134Y-136545692D01*
X181795692Y-136569134D01*
X181716232Y-136672687D01*
X181699654Y-136701399D01*
X181649704Y-136821989D01*
X181641123Y-136854013D01*
X181624086Y-136983423D01*
X181623000Y-137000000D01*
X181623000Y-144861928D01*
X181047500Y-144861928D01*
X180923018Y-144874188D01*
X180803320Y-144910498D01*
X180693006Y-144969463D01*
X180596315Y-145048815D01*
X180516963Y-145145506D01*
X180457998Y-145255820D01*
X180421688Y-145375518D01*
X180409428Y-145500000D01*
X180409428Y-147500000D01*
X180421688Y-147624482D01*
X180457998Y-147744180D01*
X180516963Y-147854494D01*
X180596315Y-147951185D01*
X180693006Y-148030537D01*
X180803320Y-148089502D01*
X180923018Y-148125812D01*
X181047500Y-148138072D01*
X181762855Y-148138072D01*
X181795692Y-148180866D01*
X181819134Y-148204308D01*
X181922687Y-148283768D01*
X181951399Y-148300346D01*
X182071989Y-148350296D01*
X182104013Y-148358877D01*
X182233423Y-148375914D01*
X182250000Y-148377000D01*
X208750000Y-148377000D01*
X208766577Y-148375914D01*
X208895987Y-148358877D01*
X208928011Y-148350296D01*
X209048601Y-148300346D01*
X209077313Y-148283768D01*
X209180866Y-148204308D01*
X209204308Y-148180866D01*
X209283768Y-148077313D01*
X209300346Y-148048601D01*
X209350296Y-147928011D01*
X209358877Y-147895987D01*
X209375914Y-147766577D01*
X209377000Y-147750000D01*
X209377000Y-134258328D01*
X209390769Y-134153743D01*
X209427923Y-134064045D01*
X209487024Y-133987024D01*
X209564045Y-133927923D01*
X209653743Y-133890769D01*
X209758328Y-133877000D01*
X223750000Y-133877000D01*
X223766577Y-133875914D01*
X223895987Y-133858877D01*
X223928011Y-133850296D01*
X224048601Y-133800346D01*
X224077313Y-133783768D01*
X224180866Y-133704308D01*
X224204308Y-133680866D01*
X224283768Y-133577313D01*
X224300346Y-133548601D01*
X224350296Y-133428011D01*
X224358877Y-133395987D01*
X224375914Y-133266577D01*
X224377000Y-133250000D01*
X224377000Y-125500000D01*
X224375914Y-125483423D01*
X224358877Y-125354013D01*
X224350296Y-125321989D01*
X224300346Y-125201399D01*
X224283768Y-125172687D01*
X224204308Y-125069134D01*
X224180866Y-125045692D01*
X224077313Y-124966232D01*
X224048601Y-124949654D01*
X223928011Y-124899704D01*
X223895987Y-124891123D01*
X223766577Y-124874086D01*
X223750000Y-124873000D01*
X209758328Y-124873000D01*
X209653743Y-124859231D01*
X209564045Y-124822077D01*
X209487024Y-124762976D01*
X209427923Y-124685955D01*
X209390769Y-124596257D01*
X209377000Y-124491672D01*
X209377000Y-110750000D01*
X209375914Y-110733423D01*
X209358877Y-110604013D01*
X209350296Y-110571989D01*
X209300346Y-110451399D01*
X209283768Y-110422687D01*
X209204308Y-110319134D01*
X209180866Y-110295692D01*
X209077313Y-110216232D01*
X209048601Y-110199654D01*
X208928011Y-110149704D01*
X208895987Y-110141123D01*
X208766577Y-110124086D01*
X208750000Y-110123000D01*
X182250000Y-110123000D01*
X182233423Y-110124086D01*
X182104013Y-110141123D01*
X182071989Y-110149704D01*
X181951399Y-110199654D01*
X181922687Y-110216232D01*
X181819134Y-110295692D01*
X181795692Y-110319134D01*
X181753833Y-110373685D01*
X181608797Y-110387970D01*
X181309552Y-110478745D01*
X181033766Y-110626155D01*
X180792037Y-110824537D01*
X180593655Y-111066265D01*
X180446245Y-111342051D01*
X180355470Y-111641296D01*
X180332500Y-111874514D01*
X169090572Y-111874514D01*
X169090572Y-111000000D01*
X169078312Y-110875518D01*
X169042002Y-110755820D01*
X168983037Y-110645506D01*
X168903685Y-110548815D01*
X168806994Y-110469463D01*
X168696680Y-110410498D01*
X168576982Y-110374188D01*
X168452500Y-110361928D01*
X166547500Y-110361928D01*
X166423018Y-110374188D01*
X166303320Y-110410498D01*
X166193006Y-110469463D01*
X166096315Y-110548815D01*
X166016963Y-110645506D01*
X165972095Y-110729446D01*
X165846235Y-110626155D01*
X165570449Y-110478745D01*
X165271204Y-110387970D01*
X164960000Y-110357319D01*
X164648797Y-110387970D01*
X164349552Y-110478745D01*
X164073766Y-110626155D01*
X163832037Y-110824537D01*
X163633655Y-111066265D01*
X163486245Y-111342051D01*
X163395470Y-111641296D01*
X163372500Y-111874514D01*
X158340572Y-111874514D01*
X158340572Y-111000000D01*
X158328312Y-110875518D01*
X158292002Y-110755820D01*
X158233037Y-110645506D01*
X158153685Y-110548815D01*
X158056994Y-110469463D01*
X157946680Y-110410498D01*
X157826982Y-110374188D01*
X157702500Y-110361928D01*
X155797500Y-110361928D01*
X155673018Y-110374188D01*
X155553320Y-110410498D01*
X155443006Y-110469463D01*
X155346315Y-110548815D01*
X155266963Y-110645506D01*
X155222095Y-110729446D01*
X155096235Y-110626155D01*
X154820449Y-110478745D01*
X154521204Y-110387970D01*
X154210000Y-110357319D01*
X153898797Y-110387970D01*
X153599552Y-110478745D01*
X153323766Y-110626155D01*
X153082037Y-110824537D01*
X152883655Y-111066265D01*
X152736245Y-111342051D01*
X152645470Y-111641296D01*
X152622500Y-111874514D01*
X145460649Y-111874514D01*
X145454494Y-111869463D01*
X145344180Y-111810498D01*
X145224482Y-111774188D01*
X145100000Y-111761928D01*
X142900000Y-111761928D01*
X142775518Y-111774188D01*
X142655820Y-111810498D01*
X142545506Y-111869463D01*
X142448815Y-111948815D01*
X142369463Y-112045506D01*
X142310498Y-112155820D01*
X142274188Y-112275518D01*
X142261928Y-112400000D01*
X142261928Y-112819339D01*
X142218932Y-112738899D01*
X142039608Y-112520392D01*
X141821101Y-112341068D01*
X141688142Y-112270000D01*
X141821101Y-112198932D01*
X142039608Y-112019608D01*
X142218932Y-111801101D01*
X142352182Y-111551808D01*
X142434236Y-111281309D01*
X142461943Y-111000000D01*
X142434236Y-110718691D01*
X142352182Y-110448192D01*
X142218932Y-110198899D01*
X142039608Y-109980392D01*
X141821101Y-109801068D01*
X141571808Y-109667818D01*
X141301309Y-109585764D01*
X141090492Y-109565000D01*
X140149508Y-109565000D01*
X139938691Y-109585764D01*
X139668192Y-109667818D01*
X139418899Y-109801068D01*
X139200392Y-109980392D01*
X139021068Y-110198899D01*
X138887818Y-110448192D01*
X138805764Y-110718691D01*
X138778057Y-111000000D01*
X138805764Y-111281309D01*
X138887818Y-111551808D01*
X139021068Y-111801101D01*
X139200392Y-112019608D01*
X139418899Y-112198932D01*
X139551858Y-112270000D01*
X139418899Y-112341068D01*
X139200392Y-112520392D01*
X139021068Y-112738899D01*
X138887818Y-112988192D01*
X138805764Y-113258691D01*
X138778057Y-113540000D01*
X138805764Y-113821309D01*
X138887818Y-114091808D01*
X139021068Y-114341101D01*
X139200392Y-114559608D01*
X139418899Y-114738932D01*
X139551858Y-114810000D01*
X139418899Y-114881068D01*
X139200392Y-115060392D01*
X139021068Y-115278899D01*
X138887818Y-115528192D01*
X138805764Y-115798691D01*
X138778057Y-116080000D01*
X138805764Y-116361309D01*
X138887818Y-116631808D01*
X139021068Y-116881101D01*
X139200392Y-117099608D01*
X139418899Y-117278932D01*
X139551858Y-117350000D01*
X139418899Y-117421068D01*
X139200392Y-117600392D01*
X139042545Y-117792729D01*
X138948284Y-117616377D01*
X138806449Y-117443551D01*
X138633623Y-117301716D01*
X138436447Y-117196324D01*
X138222499Y-117131423D01*
X138000000Y-117109509D01*
X137777502Y-117131423D01*
X137563554Y-117196324D01*
X137366378Y-117301716D01*
X137193552Y-117443551D01*
X137051717Y-117616377D01*
X136946325Y-117813553D01*
X136881424Y-118027501D01*
X136865001Y-118194248D01*
X136865000Y-121363109D01*
X136829792Y-121320208D01*
X136696164Y-121210542D01*
X136543709Y-121129053D01*
X136378285Y-121078872D01*
X136206250Y-121061928D01*
X135293750Y-121061928D01*
X135121715Y-121078872D01*
X134956291Y-121129053D01*
X134803836Y-121210542D01*
X134670208Y-121320208D01*
X134560542Y-121453836D01*
X134479053Y-121606291D01*
X134428872Y-121771715D01*
X134411928Y-121943750D01*
X134411928Y-122431250D01*
X134428872Y-122603285D01*
X134471410Y-122743513D01*
X134419608Y-122680392D01*
X134201101Y-122501068D01*
X133951808Y-122367818D01*
X133681309Y-122285764D01*
X133470492Y-122265000D01*
X132529508Y-122265000D01*
X132318691Y-122285764D01*
X132048192Y-122367818D01*
X131798899Y-122501068D01*
X131580392Y-122680392D01*
X131401068Y-122898899D01*
X131267818Y-123148192D01*
X131185764Y-123418691D01*
X131158057Y-123700000D01*
X121951579Y-123700000D01*
X121106702Y-122855124D01*
X121177932Y-122683158D01*
X121235000Y-122396260D01*
X121235000Y-122103740D01*
X121177932Y-121816842D01*
X121065990Y-121546589D01*
X120903475Y-121303368D01*
X120771620Y-121171513D01*
X120844180Y-121149502D01*
X120954494Y-121090537D01*
X121051185Y-121011185D01*
X121130537Y-120914494D01*
X121189502Y-120804180D01*
X121225812Y-120684482D01*
X121238072Y-120560000D01*
X121238072Y-119700000D01*
X122561928Y-119700000D01*
X122561928Y-121300000D01*
X122574188Y-121424482D01*
X122610498Y-121544180D01*
X122669463Y-121654494D01*
X122748815Y-121751185D01*
X122845506Y-121830537D01*
X122955820Y-121889502D01*
X123075518Y-121925812D01*
X123200000Y-121938072D01*
X124800000Y-121938072D01*
X124924482Y-121925812D01*
X125044180Y-121889502D01*
X125154494Y-121830537D01*
X125251185Y-121751185D01*
X125330537Y-121654494D01*
X125389502Y-121544180D01*
X125425812Y-121424482D01*
X125438072Y-121300000D01*
X125438072Y-119700000D01*
X125425812Y-119575518D01*
X125389502Y-119455820D01*
X125330537Y-119345506D01*
X125251185Y-119248815D01*
X125154494Y-119169463D01*
X125044180Y-119110498D01*
X124924482Y-119074188D01*
X124800000Y-119061928D01*
X123200000Y-119061928D01*
X123075518Y-119074188D01*
X122955820Y-119110498D01*
X122845506Y-119169463D01*
X122748815Y-119248815D01*
X122669463Y-119345506D01*
X122610498Y-119455820D01*
X122574188Y-119575518D01*
X122561928Y-119700000D01*
X121238072Y-119700000D01*
X121238072Y-118860000D01*
X121225812Y-118735518D01*
X121190770Y-118620000D01*
X131158057Y-118620000D01*
X131185764Y-118901309D01*
X131267818Y-119171808D01*
X131401068Y-119421101D01*
X131580392Y-119639608D01*
X131798899Y-119818932D01*
X132048192Y-119952182D01*
X132318691Y-120034236D01*
X132529508Y-120055000D01*
X133470492Y-120055000D01*
X133681309Y-120034236D01*
X133951808Y-119952182D01*
X134201101Y-119818932D01*
X134419608Y-119639608D01*
X134598932Y-119421101D01*
X134732182Y-119171808D01*
X134814236Y-118901309D01*
X134841943Y-118620000D01*
X134814236Y-118338691D01*
X134732182Y-118068192D01*
X134598932Y-117818899D01*
X134419608Y-117600392D01*
X134201101Y-117421068D01*
X133951808Y-117287818D01*
X133681309Y-117205764D01*
X133470492Y-117185000D01*
X132529508Y-117185000D01*
X132318691Y-117205764D01*
X132048192Y-117287818D01*
X131798899Y-117421068D01*
X131580392Y-117600392D01*
X131401068Y-117818899D01*
X131267818Y-118068192D01*
X131185764Y-118338691D01*
X131158057Y-118620000D01*
X121190770Y-118620000D01*
X121189502Y-118615820D01*
X121130537Y-118505506D01*
X121051185Y-118408815D01*
X120954494Y-118329463D01*
X120844180Y-118270498D01*
X120724482Y-118234188D01*
X120600000Y-118221928D01*
X118900000Y-118221928D01*
X118775518Y-118234188D01*
X118655820Y-118270498D01*
X118545506Y-118329463D01*
X118448815Y-118408815D01*
X118369463Y-118505506D01*
X118310498Y-118615820D01*
X118274188Y-118735518D01*
X118261928Y-118860000D01*
X118261928Y-120560000D01*
X118274188Y-120684482D01*
X118310498Y-120804180D01*
X118369463Y-120914494D01*
X118448815Y-121011185D01*
X118545506Y-121090537D01*
X118655820Y-121149502D01*
X118728380Y-121171513D01*
X118596525Y-121303368D01*
X118434010Y-121546589D01*
X118322068Y-121816842D01*
X118265000Y-122103740D01*
X118265000Y-122396260D01*
X118308790Y-122616408D01*
X116239003Y-124686196D01*
X116209999Y-124709999D01*
X116181948Y-124744180D01*
X116115026Y-124825724D01*
X116115005Y-124825764D01*
X116044454Y-124957754D01*
X116000997Y-125101015D01*
X115990000Y-125212668D01*
X115990000Y-125212678D01*
X115986324Y-125250000D01*
X115990000Y-125287322D01*
X115990001Y-132046288D01*
X115946063Y-132090226D01*
X115832795Y-132259744D01*
X115754774Y-132448102D01*
X115715000Y-132648061D01*
X100627000Y-132648061D01*
X100627000Y-127200000D01*
X104561928Y-127200000D01*
X104561928Y-128800000D01*
X104574188Y-128924482D01*
X104610498Y-129044180D01*
X104669463Y-129154494D01*
X104748815Y-129251185D01*
X104845506Y-129330537D01*
X104955820Y-129389502D01*
X105075518Y-129425812D01*
X105083961Y-129426643D01*
X104885363Y-129625241D01*
X104728320Y-129860273D01*
X104620147Y-130121426D01*
X104565000Y-130398665D01*
X104565000Y-130681335D01*
X104620147Y-130958574D01*
X104728320Y-131219727D01*
X104885363Y-131454759D01*
X105085241Y-131654637D01*
X105320273Y-131811680D01*
X105581426Y-131919853D01*
X105858665Y-131975000D01*
X106141335Y-131975000D01*
X106418574Y-131919853D01*
X106679727Y-131811680D01*
X106914759Y-131654637D01*
X107114637Y-131454759D01*
X107271680Y-131219727D01*
X107379853Y-130958574D01*
X107435000Y-130681335D01*
X107435000Y-130398665D01*
X107379853Y-130121426D01*
X107271680Y-129860273D01*
X107114637Y-129625241D01*
X106916039Y-129426643D01*
X106924482Y-129425812D01*
X107044180Y-129389502D01*
X107154494Y-129330537D01*
X107251185Y-129251185D01*
X107330537Y-129154494D01*
X107389502Y-129044180D01*
X107425812Y-128924482D01*
X107438072Y-128800000D01*
X107438072Y-127858665D01*
X112185000Y-127858665D01*
X112185000Y-128141335D01*
X112240147Y-128418574D01*
X112348320Y-128679727D01*
X112505363Y-128914759D01*
X112705241Y-129114637D01*
X112940273Y-129271680D01*
X113201426Y-129379853D01*
X113478665Y-129435000D01*
X113761335Y-129435000D01*
X114038574Y-129379853D01*
X114299727Y-129271680D01*
X114534759Y-129114637D01*
X114734637Y-128914759D01*
X114891680Y-128679727D01*
X114999853Y-128418574D01*
X115055000Y-128141335D01*
X115055000Y-127858665D01*
X114999853Y-127581426D01*
X114891680Y-127320273D01*
X114734637Y-127085241D01*
X114534759Y-126885363D01*
X114299727Y-126728320D01*
X114038574Y-126620147D01*
X113761335Y-126565000D01*
X113478665Y-126565000D01*
X113201426Y-126620147D01*
X112940273Y-126728320D01*
X112705241Y-126885363D01*
X112505363Y-127085241D01*
X112348320Y-127320273D01*
X112240147Y-127581426D01*
X112185000Y-127858665D01*
X107438072Y-127858665D01*
X107438072Y-127200000D01*
X107425812Y-127075518D01*
X107389502Y-126955820D01*
X107330537Y-126845506D01*
X107251185Y-126748815D01*
X107154494Y-126669463D01*
X107044180Y-126610498D01*
X106924482Y-126574188D01*
X106800000Y-126561928D01*
X105200000Y-126561928D01*
X105075518Y-126574188D01*
X104955820Y-126610498D01*
X104845506Y-126669463D01*
X104748815Y-126748815D01*
X104669463Y-126845506D01*
X104610498Y-126955820D01*
X104574188Y-127075518D01*
X104561928Y-127200000D01*
X100627000Y-127200000D01*
X100627000Y-111975098D01*
X104205000Y-111975098D01*
X104205000Y-112444902D01*
X104296654Y-112905679D01*
X104476440Y-113339721D01*
X104737450Y-113730349D01*
X105069651Y-114062550D01*
X105460279Y-114323560D01*
X105894321Y-114503346D01*
X106355098Y-114595000D01*
X106824902Y-114595000D01*
X107285679Y-114503346D01*
X107719721Y-114323560D01*
X108110349Y-114062550D01*
X108442550Y-113730349D01*
X108703560Y-113339721D01*
X108883346Y-112905679D01*
X108975000Y-112444902D01*
X108975000Y-112318750D01*
X118661928Y-112318750D01*
X118661928Y-112806250D01*
X118678872Y-112978285D01*
X118729053Y-113143709D01*
X118810542Y-113296164D01*
X118920208Y-113429792D01*
X119053836Y-113539458D01*
X119206291Y-113620947D01*
X119371715Y-113671128D01*
X119543750Y-113688072D01*
X120456250Y-113688072D01*
X120628285Y-113671128D01*
X120793709Y-113620947D01*
X120946164Y-113539458D01*
X121079792Y-113429792D01*
X121167845Y-113322500D01*
X121827834Y-113322500D01*
X121798815Y-113346315D01*
X121719463Y-113443006D01*
X121660498Y-113553320D01*
X121624188Y-113673018D01*
X121611928Y-113797500D01*
X121611928Y-115702500D01*
X121624188Y-115826982D01*
X121660498Y-115946680D01*
X121719463Y-116056994D01*
X121798815Y-116153685D01*
X121895506Y-116233037D01*
X122005820Y-116292002D01*
X122125518Y-116328312D01*
X122250000Y-116340572D01*
X124250000Y-116340572D01*
X124374482Y-116328312D01*
X124494180Y-116292002D01*
X124604494Y-116233037D01*
X124701185Y-116153685D01*
X124780537Y-116056994D01*
X124839502Y-115946680D01*
X124875812Y-115826982D01*
X124888072Y-115702500D01*
X124888072Y-113797500D01*
X124875812Y-113673018D01*
X124839502Y-113553320D01*
X124832383Y-113540000D01*
X131158057Y-113540000D01*
X131185764Y-113821309D01*
X131267818Y-114091808D01*
X131401068Y-114341101D01*
X131580392Y-114559608D01*
X131798899Y-114738932D01*
X132048192Y-114872182D01*
X132318691Y-114954236D01*
X132529508Y-114975000D01*
X133470492Y-114975000D01*
X133681309Y-114954236D01*
X133951808Y-114872182D01*
X134201101Y-114738932D01*
X134419608Y-114559608D01*
X134598932Y-114341101D01*
X134732182Y-114091808D01*
X134814236Y-113821309D01*
X134841943Y-113540000D01*
X134814236Y-113258691D01*
X134732182Y-112988192D01*
X134598932Y-112738899D01*
X134419608Y-112520392D01*
X134306518Y-112427581D01*
X134324482Y-112425812D01*
X134444180Y-112389502D01*
X134554494Y-112330537D01*
X134651185Y-112251185D01*
X134730537Y-112154494D01*
X134789502Y-112044180D01*
X134825812Y-111924482D01*
X134838072Y-111800000D01*
X134838072Y-110200000D01*
X134825812Y-110075518D01*
X134789502Y-109955820D01*
X134730537Y-109845506D01*
X134651185Y-109748815D01*
X134554494Y-109669463D01*
X134444180Y-109610498D01*
X134324482Y-109574188D01*
X134200000Y-109561928D01*
X131800000Y-109561928D01*
X131675518Y-109574188D01*
X131555820Y-109610498D01*
X131445506Y-109669463D01*
X131348815Y-109748815D01*
X131269463Y-109845506D01*
X131210498Y-109955820D01*
X131174188Y-110075518D01*
X131161928Y-110200000D01*
X131161928Y-111800000D01*
X131174188Y-111924482D01*
X131210498Y-112044180D01*
X131269463Y-112154494D01*
X131348815Y-112251185D01*
X131445506Y-112330537D01*
X131555820Y-112389502D01*
X131675518Y-112425812D01*
X131693482Y-112427581D01*
X131580392Y-112520392D01*
X131401068Y-112738899D01*
X131267818Y-112988192D01*
X131185764Y-113258691D01*
X131158057Y-113540000D01*
X124832383Y-113540000D01*
X124780537Y-113443006D01*
X124701185Y-113346315D01*
X124604494Y-113266963D01*
X124520554Y-113222095D01*
X124623845Y-113096235D01*
X124771255Y-112820449D01*
X124862030Y-112521204D01*
X124892681Y-112210000D01*
X124862030Y-111898796D01*
X124771255Y-111599551D01*
X124623845Y-111323765D01*
X124425463Y-111082037D01*
X124252391Y-110940000D01*
X124425463Y-110797963D01*
X124623845Y-110556235D01*
X124691319Y-110430000D01*
X125006469Y-110430000D01*
X124979053Y-110481291D01*
X124928872Y-110646715D01*
X124911928Y-110818750D01*
X124911928Y-111306250D01*
X124928872Y-111478285D01*
X124979053Y-111643709D01*
X125060542Y-111796164D01*
X125170208Y-111929792D01*
X125303836Y-112039458D01*
X125456291Y-112120947D01*
X125621715Y-112171128D01*
X125793750Y-112188072D01*
X126706250Y-112188072D01*
X126878285Y-112171128D01*
X127043709Y-112120947D01*
X127196164Y-112039458D01*
X127329792Y-111929792D01*
X127439458Y-111796164D01*
X127520947Y-111643709D01*
X127571128Y-111478285D01*
X127588072Y-111306250D01*
X127588072Y-110818750D01*
X127571128Y-110646715D01*
X127520947Y-110481291D01*
X127439458Y-110328836D01*
X127329792Y-110195208D01*
X127196164Y-110085542D01*
X127043709Y-110004053D01*
X126962079Y-109979291D01*
X126955546Y-109957753D01*
X126944750Y-109937555D01*
X126950000Y-109938072D01*
X128550000Y-109938072D01*
X128674482Y-109925812D01*
X128794180Y-109889502D01*
X128904494Y-109830537D01*
X129001185Y-109751185D01*
X129080537Y-109654494D01*
X129139502Y-109544180D01*
X129175812Y-109424482D01*
X129188072Y-109300000D01*
X129188072Y-107700000D01*
X129175812Y-107575518D01*
X129139502Y-107455820D01*
X129080537Y-107345506D01*
X129001185Y-107248815D01*
X128904494Y-107169463D01*
X128794180Y-107110498D01*
X128674482Y-107074188D01*
X128550000Y-107061928D01*
X126950000Y-107061928D01*
X126825518Y-107074188D01*
X126705820Y-107110498D01*
X126595506Y-107169463D01*
X126498815Y-107248815D01*
X126419463Y-107345506D01*
X126360498Y-107455820D01*
X126324188Y-107575518D01*
X126311928Y-107700000D01*
X126311928Y-109237127D01*
X126233803Y-109159002D01*
X126210001Y-109129999D01*
X126094276Y-109035026D01*
X125962247Y-108964454D01*
X125818986Y-108920997D01*
X125707333Y-108910000D01*
X125707322Y-108910000D01*
X125670000Y-108906324D01*
X125632678Y-108910000D01*
X124691319Y-108910000D01*
X124623845Y-108783765D01*
X124425463Y-108542037D01*
X124183735Y-108343655D01*
X123907949Y-108196245D01*
X123608704Y-108105470D01*
X123375486Y-108082500D01*
X123124514Y-108082500D01*
X122891296Y-108105470D01*
X122592051Y-108196245D01*
X122316265Y-108343655D01*
X122074537Y-108542037D01*
X121876155Y-108783765D01*
X121728745Y-109059551D01*
X121637970Y-109358796D01*
X121607319Y-109670000D01*
X121637970Y-109981204D01*
X121728745Y-110280449D01*
X121876155Y-110556235D01*
X122074537Y-110797963D01*
X122247609Y-110940000D01*
X122074537Y-111082037D01*
X121876155Y-111323765D01*
X121728745Y-111599551D01*
X121667181Y-111802500D01*
X121167845Y-111802500D01*
X121079792Y-111695208D01*
X120946164Y-111585542D01*
X120793709Y-111504053D01*
X120628285Y-111453872D01*
X120456250Y-111436928D01*
X119543750Y-111436928D01*
X119371715Y-111453872D01*
X119206291Y-111504053D01*
X119053836Y-111585542D01*
X118920208Y-111695208D01*
X118810542Y-111828836D01*
X118729053Y-111981291D01*
X118678872Y-112146715D01*
X118661928Y-112318750D01*
X108975000Y-112318750D01*
X108975000Y-111975098D01*
X108883346Y-111514321D01*
X108703560Y-111080279D01*
X108442550Y-110689651D01*
X108110349Y-110357450D01*
X107719721Y-110096440D01*
X107285679Y-109916654D01*
X106824902Y-109825000D01*
X106355098Y-109825000D01*
X105894321Y-109916654D01*
X105460279Y-110096440D01*
X105069651Y-110357450D01*
X104737450Y-110689651D01*
X104476440Y-111080279D01*
X104296654Y-111514321D01*
X104205000Y-111975098D01*
X100627000Y-111975098D01*
X100627000Y-104804495D01*
X220515000Y-104804495D01*
X220515000Y-105195505D01*
X220591282Y-105579003D01*
X220740915Y-105940250D01*
X220958149Y-106265364D01*
X221234636Y-106541851D01*
X221559750Y-106759085D01*
X221920997Y-106908718D01*
X222304495Y-106985000D01*
X222695505Y-106985000D01*
X223079003Y-106908718D01*
X223440250Y-106759085D01*
X223765364Y-106541851D01*
X224041851Y-106265364D01*
X224259085Y-105940250D01*
X224408718Y-105579003D01*
X224485000Y-105195505D01*
X224485000Y-104804495D01*
X224408718Y-104420997D01*
X224259085Y-104059750D01*
X224041851Y-103734636D01*
X223765364Y-103458149D01*
X223440250Y-103240915D01*
X223079003Y-103091282D01*
X222695505Y-103015000D01*
X222304495Y-103015000D01*
X221920997Y-103091282D01*
X221559750Y-103240915D01*
X221234636Y-103458149D01*
X220958149Y-103734636D01*
X220740915Y-104059750D01*
X220591282Y-104420997D01*
X220515000Y-104804495D01*
X100627000Y-104804495D01*
X100627000Y-101107500D01*
X103254286Y-101107500D01*
X103254286Y-104027500D01*
X113245715Y-104027500D01*
X113245715Y-101107500D01*
X103254286Y-101107500D01*
X100627000Y-101107500D01*
X100627000Y-98508328D01*
X100640769Y-98403743D01*
X100677923Y-98314045D01*
X100737024Y-98237024D01*
X100814045Y-98177923D01*
X100903743Y-98140769D01*
X101008328Y-98127000D01*
X228491672Y-98127000D01*
X228596257Y-98140769D01*
G37*
X228596257Y-98140769D02*
X228685955Y-98177923D01*
X228762976Y-98237024D01*
X228822077Y-98314045D01*
X228859231Y-98403743D01*
X228873000Y-98508328D01*
X228873000Y-156491672D01*
X228859231Y-156596257D01*
X228822077Y-156685955D01*
X228762976Y-156762976D01*
X228685955Y-156822077D01*
X228596257Y-156859231D01*
X228491672Y-156873000D01*
X101008328Y-156873000D01*
X100903743Y-156859231D01*
X100814045Y-156822077D01*
X100737024Y-156762976D01*
X100677923Y-156685955D01*
X100640769Y-156596257D01*
X100627000Y-156491672D01*
X100627000Y-146900000D01*
X104011928Y-146900000D01*
X104011928Y-148600000D01*
X104024188Y-148724482D01*
X104060498Y-148844180D01*
X104119463Y-148954494D01*
X104198815Y-149051185D01*
X104295506Y-149130537D01*
X104405820Y-149189502D01*
X104525518Y-149225812D01*
X104650000Y-149238072D01*
X106350000Y-149238072D01*
X106474482Y-149225812D01*
X106594180Y-149189502D01*
X106704494Y-149130537D01*
X106801185Y-149051185D01*
X106880537Y-148954494D01*
X106939502Y-148844180D01*
X106961513Y-148771620D01*
X107093368Y-148903475D01*
X107336589Y-149065990D01*
X107606842Y-149177932D01*
X107893740Y-149235000D01*
X108186260Y-149235000D01*
X108473158Y-149177932D01*
X108743411Y-149065990D01*
X108986632Y-148903475D01*
X109193475Y-148696632D01*
X109310000Y-148522240D01*
X109426525Y-148696632D01*
X109633368Y-148903475D01*
X109876589Y-149065990D01*
X110146842Y-149177932D01*
X110433740Y-149235000D01*
X110726260Y-149235000D01*
X111013158Y-149177932D01*
X111283411Y-149065990D01*
X111526632Y-148903475D01*
X111733475Y-148696632D01*
X111850000Y-148522240D01*
X111966525Y-148696632D01*
X112173368Y-148903475D01*
X112416589Y-149065990D01*
X112686842Y-149177932D01*
X112973740Y-149235000D01*
X113266260Y-149235000D01*
X113553158Y-149177932D01*
X113823411Y-149065990D01*
X114066632Y-148903475D01*
X114273475Y-148696632D01*
X114341383Y-148595000D01*
X116836429Y-148595000D01*
X116836429Y-151565000D01*
X126269281Y-151565000D01*
X126559750Y-151759085D01*
X126920997Y-151908718D01*
X127304495Y-151985000D01*
X127695505Y-151985000D01*
X128079003Y-151908718D01*
X128440250Y-151759085D01*
X128765364Y-151541851D01*
X129041851Y-151265364D01*
X129259085Y-150940250D01*
X129408718Y-150579003D01*
X129485000Y-150195505D01*
X129485000Y-149804495D01*
X129408718Y-149420997D01*
X129259085Y-149059750D01*
X129041851Y-148734636D01*
X128765364Y-148458149D01*
X128440250Y-148240915D01*
X128079003Y-148091282D01*
X127695505Y-148015000D01*
X127304495Y-148015000D01*
X126920997Y-148091282D01*
X126559750Y-148240915D01*
X126234636Y-148458149D01*
X126097785Y-148595000D01*
X116836429Y-148595000D01*
X114341383Y-148595000D01*
X114435990Y-148453411D01*
X114547932Y-148183158D01*
X114605000Y-147896260D01*
X114605000Y-147603740D01*
X114547932Y-147316842D01*
X114435990Y-147046589D01*
X114273475Y-146803368D01*
X114066632Y-146596525D01*
X113847342Y-146450000D01*
X131158057Y-146450000D01*
X131185764Y-146731309D01*
X131267818Y-147001808D01*
X131401068Y-147251101D01*
X131580392Y-147469608D01*
X131798899Y-147648932D01*
X131931858Y-147720000D01*
X131798899Y-147791068D01*
X131580392Y-147970392D01*
X131401068Y-148188899D01*
X131267818Y-148438192D01*
X131185764Y-148708691D01*
X131158057Y-148990000D01*
X131185764Y-149271309D01*
X131267818Y-149541808D01*
X131401068Y-149791101D01*
X131580392Y-150009608D01*
X131798899Y-150188932D01*
X132048192Y-150322182D01*
X132318691Y-150404236D01*
X132529508Y-150425000D01*
X133470492Y-150425000D01*
X133681309Y-150404236D01*
X133951808Y-150322182D01*
X134201101Y-150188932D01*
X134419608Y-150009608D01*
X134530078Y-149875000D01*
X134656531Y-149875000D01*
X134700000Y-149879281D01*
X134743469Y-149875000D01*
X134743477Y-149875000D01*
X134873490Y-149862195D01*
X135040313Y-149811589D01*
X135194059Y-149729411D01*
X135328817Y-149618817D01*
X135356534Y-149585044D01*
X136345050Y-148596529D01*
X136378817Y-148568817D01*
X136438626Y-148495941D01*
X136489410Y-148434060D01*
X136489411Y-148434059D01*
X136571589Y-148280313D01*
X136622195Y-148113490D01*
X136635000Y-147983477D01*
X136635000Y-147983467D01*
X136639281Y-147940001D01*
X136635000Y-147896535D01*
X136635000Y-145947151D01*
X136696164Y-145914458D01*
X136829792Y-145804792D01*
X136939458Y-145671164D01*
X137020947Y-145518709D01*
X137071128Y-145353285D01*
X137088072Y-145181250D01*
X137088072Y-144693750D01*
X137071128Y-144521715D01*
X137020947Y-144356291D01*
X136939458Y-144203836D01*
X136829792Y-144070208D01*
X136696164Y-143960542D01*
X136543709Y-143879053D01*
X136378285Y-143828872D01*
X136206250Y-143811928D01*
X135293750Y-143811928D01*
X135121715Y-143828872D01*
X134956291Y-143879053D01*
X134803836Y-143960542D01*
X134670208Y-144070208D01*
X134560542Y-144203836D01*
X134479053Y-144356291D01*
X134428872Y-144521715D01*
X134411928Y-144693750D01*
X134411928Y-145181250D01*
X134428872Y-145353285D01*
X134471410Y-145493513D01*
X134419608Y-145430392D01*
X134201101Y-145251068D01*
X133951808Y-145117818D01*
X133681309Y-145035764D01*
X133470492Y-145015000D01*
X132529508Y-145015000D01*
X132318691Y-145035764D01*
X132048192Y-145117818D01*
X131798899Y-145251068D01*
X131580392Y-145430392D01*
X131401068Y-145648899D01*
X131267818Y-145898192D01*
X131185764Y-146168691D01*
X131158057Y-146450000D01*
X113847342Y-146450000D01*
X113823411Y-146434010D01*
X113553158Y-146322068D01*
X113266260Y-146265000D01*
X112973740Y-146265000D01*
X112686842Y-146322068D01*
X112416589Y-146434010D01*
X112173368Y-146596525D01*
X111966525Y-146803368D01*
X111850000Y-146977760D01*
X111733475Y-146803368D01*
X111526632Y-146596525D01*
X111283411Y-146434010D01*
X111013158Y-146322068D01*
X110726260Y-146265000D01*
X110433740Y-146265000D01*
X110146842Y-146322068D01*
X109876589Y-146434010D01*
X109633368Y-146596525D01*
X109426525Y-146803368D01*
X109310000Y-146977760D01*
X109193475Y-146803368D01*
X108986632Y-146596525D01*
X108743411Y-146434010D01*
X108473158Y-146322068D01*
X108186260Y-146265000D01*
X107893740Y-146265000D01*
X107606842Y-146322068D01*
X107336589Y-146434010D01*
X107093368Y-146596525D01*
X106961513Y-146728380D01*
X106939502Y-146655820D01*
X106880537Y-146545506D01*
X106801185Y-146448815D01*
X106704494Y-146369463D01*
X106594180Y-146310498D01*
X106474482Y-146274188D01*
X106350000Y-146261928D01*
X104650000Y-146261928D01*
X104525518Y-146274188D01*
X104405820Y-146310498D01*
X104295506Y-146369463D01*
X104198815Y-146448815D01*
X104119463Y-146545506D01*
X104060498Y-146655820D01*
X104024188Y-146775518D01*
X104011928Y-146900000D01*
X100627000Y-146900000D01*
X100627000Y-134950000D01*
X104561928Y-134950000D01*
X104561928Y-136550000D01*
X104574188Y-136674482D01*
X104610498Y-136794180D01*
X104669463Y-136904494D01*
X104748815Y-137001185D01*
X104845506Y-137080537D01*
X104955820Y-137139502D01*
X105075518Y-137175812D01*
X105083961Y-137176643D01*
X104885363Y-137375241D01*
X104728320Y-137610273D01*
X104620147Y-137871426D01*
X104565000Y-138148665D01*
X104565000Y-138431335D01*
X104620147Y-138708574D01*
X104728320Y-138969727D01*
X104885363Y-139204759D01*
X105085241Y-139404637D01*
X105320273Y-139561680D01*
X105581426Y-139669853D01*
X105858665Y-139725000D01*
X106141335Y-139725000D01*
X106418574Y-139669853D01*
X106679727Y-139561680D01*
X106914759Y-139404637D01*
X107114637Y-139204759D01*
X107271680Y-138969727D01*
X107379853Y-138708574D01*
X107435000Y-138431335D01*
X107435000Y-138148665D01*
X107379853Y-137871426D01*
X107271680Y-137610273D01*
X107114637Y-137375241D01*
X106916039Y-137176643D01*
X106924482Y-137175812D01*
X107044180Y-137139502D01*
X107154494Y-137080537D01*
X107251185Y-137001185D01*
X107330537Y-136904494D01*
X107389502Y-136794180D01*
X107425812Y-136674482D01*
X107438072Y-136550000D01*
X107438072Y-135608665D01*
X112185000Y-135608665D01*
X112185000Y-135891335D01*
X112240147Y-136168574D01*
X112348320Y-136429727D01*
X112505363Y-136664759D01*
X112705241Y-136864637D01*
X112940273Y-137021680D01*
X113201426Y-137129853D01*
X113478665Y-137185000D01*
X113761335Y-137185000D01*
X114038574Y-137129853D01*
X114299727Y-137021680D01*
X114534759Y-136864637D01*
X114734637Y-136664759D01*
X114891680Y-136429727D01*
X114999853Y-136168574D01*
X115055000Y-135891335D01*
X115055000Y-135608665D01*
X114999853Y-135331426D01*
X114891680Y-135070273D01*
X114734637Y-134835241D01*
X114534759Y-134635363D01*
X114299727Y-134478320D01*
X114038574Y-134370147D01*
X113761335Y-134315000D01*
X113478665Y-134315000D01*
X113201426Y-134370147D01*
X112940273Y-134478320D01*
X112705241Y-134635363D01*
X112505363Y-134835241D01*
X112348320Y-135070273D01*
X112240147Y-135331426D01*
X112185000Y-135608665D01*
X107438072Y-135608665D01*
X107438072Y-134950000D01*
X107425812Y-134825518D01*
X107389502Y-134705820D01*
X107330537Y-134595506D01*
X107251185Y-134498815D01*
X107154494Y-134419463D01*
X107044180Y-134360498D01*
X106924482Y-134324188D01*
X106800000Y-134311928D01*
X105200000Y-134311928D01*
X105075518Y-134324188D01*
X104955820Y-134360498D01*
X104845506Y-134419463D01*
X104748815Y-134498815D01*
X104669463Y-134595506D01*
X104610498Y-134705820D01*
X104574188Y-134825518D01*
X104561928Y-134950000D01*
X100627000Y-134950000D01*
X100627000Y-132648061D01*
X115715000Y-132648061D01*
X115715000Y-132851939D01*
X115754774Y-133051898D01*
X115832795Y-133240256D01*
X115946063Y-133409774D01*
X116090226Y-133553937D01*
X116259744Y-133667205D01*
X116448102Y-133745226D01*
X116648061Y-133785000D01*
X116851939Y-133785000D01*
X117051898Y-133745226D01*
X117240256Y-133667205D01*
X117409774Y-133553937D01*
X117553937Y-133409774D01*
X117667205Y-133240256D01*
X117745226Y-133051898D01*
X117785000Y-132851939D01*
X117785000Y-132648061D01*
X117745226Y-132448102D01*
X117667205Y-132259744D01*
X117553937Y-132090226D01*
X117510000Y-132046289D01*
X117510000Y-131790000D01*
X118158057Y-131790000D01*
X118185764Y-132071309D01*
X118267818Y-132341808D01*
X118401068Y-132591101D01*
X118580392Y-132809608D01*
X118798899Y-132988932D01*
X118931858Y-133060000D01*
X118798899Y-133131068D01*
X118580392Y-133310392D01*
X118401068Y-133528899D01*
X118267818Y-133778192D01*
X118185764Y-134048691D01*
X118158057Y-134330000D01*
X118185764Y-134611309D01*
X118267818Y-134881808D01*
X118401068Y-135131101D01*
X118580392Y-135349608D01*
X118798899Y-135528932D01*
X118931858Y-135600000D01*
X118798899Y-135671068D01*
X118580392Y-135850392D01*
X118401068Y-136068899D01*
X118267818Y-136318192D01*
X118185764Y-136588691D01*
X118158057Y-136870000D01*
X118185764Y-137151309D01*
X118267818Y-137421808D01*
X118401068Y-137671101D01*
X118580392Y-137889608D01*
X118798899Y-138068932D01*
X118931858Y-138140000D01*
X118798899Y-138211068D01*
X118580392Y-138390392D01*
X118401068Y-138608899D01*
X118267818Y-138858192D01*
X118185764Y-139128691D01*
X118158057Y-139410000D01*
X118185764Y-139691309D01*
X118267818Y-139961808D01*
X118401068Y-140211101D01*
X118580392Y-140429608D01*
X118798899Y-140608932D01*
X118931858Y-140680000D01*
X118798899Y-140751068D01*
X118580392Y-140930392D01*
X118401068Y-141148899D01*
X118267818Y-141398192D01*
X118185764Y-141668691D01*
X118158057Y-141950000D01*
X118185764Y-142231309D01*
X118267818Y-142501808D01*
X118401068Y-142751101D01*
X118580392Y-142969608D01*
X118798899Y-143148932D01*
X119048192Y-143282182D01*
X119318691Y-143364236D01*
X119529508Y-143385000D01*
X120470492Y-143385000D01*
X120681309Y-143364236D01*
X120951808Y-143282182D01*
X121201101Y-143148932D01*
X121419608Y-142969608D01*
X121598932Y-142751101D01*
X121732182Y-142501808D01*
X121814236Y-142231309D01*
X121841943Y-141950000D01*
X121814236Y-141668691D01*
X121732182Y-141398192D01*
X121598932Y-141148899D01*
X121419608Y-140930392D01*
X121201101Y-140751068D01*
X121068142Y-140680000D01*
X121201101Y-140608932D01*
X121419608Y-140429608D01*
X121598932Y-140211101D01*
X121732182Y-139961808D01*
X121814236Y-139691309D01*
X121841943Y-139410000D01*
X121814236Y-139128691D01*
X121732182Y-138858192D01*
X121598932Y-138608899D01*
X121419608Y-138390392D01*
X121201101Y-138211068D01*
X121068142Y-138140000D01*
X121201101Y-138068932D01*
X121419608Y-137889608D01*
X121598932Y-137671101D01*
X121732182Y-137421808D01*
X121814236Y-137151309D01*
X121841943Y-136870000D01*
X121814236Y-136588691D01*
X121732182Y-136318192D01*
X121598932Y-136068899D01*
X121419608Y-135850392D01*
X121201101Y-135671068D01*
X121068142Y-135600000D01*
X121201101Y-135528932D01*
X121419608Y-135349608D01*
X121598932Y-135131101D01*
X121732182Y-134881808D01*
X121814236Y-134611309D01*
X121841943Y-134330000D01*
X121814236Y-134048691D01*
X121732182Y-133778192D01*
X121598932Y-133528899D01*
X121419608Y-133310392D01*
X121201101Y-133131068D01*
X121068142Y-133060000D01*
X121201101Y-132988932D01*
X121419608Y-132809608D01*
X121598932Y-132591101D01*
X121732182Y-132341808D01*
X121814236Y-132071309D01*
X121841943Y-131790000D01*
X121814236Y-131508691D01*
X121732182Y-131238192D01*
X121598932Y-130988899D01*
X121419608Y-130770392D01*
X121306518Y-130677581D01*
X121324482Y-130675812D01*
X121444180Y-130639502D01*
X121554494Y-130580537D01*
X121651185Y-130501185D01*
X121730537Y-130404494D01*
X121789502Y-130294180D01*
X121825812Y-130174482D01*
X121838072Y-130050000D01*
X121838072Y-128450000D01*
X121825812Y-128325518D01*
X121789502Y-128205820D01*
X121730537Y-128095506D01*
X121651185Y-127998815D01*
X121554494Y-127919463D01*
X121444180Y-127860498D01*
X121324482Y-127824188D01*
X121200000Y-127811928D01*
X118800000Y-127811928D01*
X118675518Y-127824188D01*
X118555820Y-127860498D01*
X118445506Y-127919463D01*
X118348815Y-127998815D01*
X118269463Y-128095506D01*
X118210498Y-128205820D01*
X118174188Y-128325518D01*
X118161928Y-128450000D01*
X118161928Y-130050000D01*
X118174188Y-130174482D01*
X118210498Y-130294180D01*
X118269463Y-130404494D01*
X118348815Y-130501185D01*
X118445506Y-130580537D01*
X118555820Y-130639502D01*
X118675518Y-130675812D01*
X118693482Y-130677581D01*
X118580392Y-130770392D01*
X118401068Y-130988899D01*
X118267818Y-131238192D01*
X118185764Y-131508691D01*
X118158057Y-131790000D01*
X117510000Y-131790000D01*
X117510000Y-125564801D01*
X119383592Y-123691210D01*
X119453546Y-123705124D01*
X125086810Y-129338389D01*
X123238998Y-131186201D01*
X123210000Y-131209999D01*
X123115026Y-131325724D01*
X123044454Y-131457753D01*
X123000997Y-131601014D01*
X122990000Y-131712667D01*
X122990000Y-131712678D01*
X122986324Y-131750000D01*
X122990000Y-131787322D01*
X122990000Y-132287332D01*
X122990001Y-132287342D01*
X122990000Y-134993827D01*
X122956291Y-135004053D01*
X122803836Y-135085542D01*
X122670208Y-135195208D01*
X122560542Y-135328836D01*
X122479053Y-135481291D01*
X122428872Y-135646715D01*
X122411928Y-135818750D01*
X122411928Y-136306250D01*
X122428872Y-136478285D01*
X122479053Y-136643709D01*
X122560542Y-136796164D01*
X122670208Y-136929792D01*
X122803836Y-137039458D01*
X122956291Y-137120947D01*
X123121715Y-137171128D01*
X123293750Y-137188072D01*
X124206250Y-137188072D01*
X124378285Y-137171128D01*
X124543709Y-137120947D01*
X124696164Y-137039458D01*
X124829792Y-136929792D01*
X124939458Y-136796164D01*
X125020947Y-136643709D01*
X125071128Y-136478285D01*
X125088072Y-136306250D01*
X125088072Y-135818750D01*
X125071128Y-135646715D01*
X125020947Y-135481291D01*
X124939458Y-135328836D01*
X124829792Y-135195208D01*
X124696164Y-135085542D01*
X124543709Y-135004053D01*
X124510000Y-134993827D01*
X124510000Y-132064801D01*
X126257954Y-130316848D01*
X126418899Y-130448932D01*
X126551858Y-130520000D01*
X126418899Y-130591068D01*
X126200392Y-130770392D01*
X126021068Y-130988899D01*
X125887818Y-131238192D01*
X125805764Y-131508691D01*
X125778057Y-131790000D01*
X125805764Y-132071309D01*
X125887818Y-132341808D01*
X126021068Y-132591101D01*
X126200392Y-132809608D01*
X126418899Y-132988932D01*
X126551858Y-133060000D01*
X126418899Y-133131068D01*
X126200392Y-133310392D01*
X126021068Y-133528899D01*
X125887818Y-133778192D01*
X125805764Y-134048691D01*
X125778057Y-134330000D01*
X125805764Y-134611309D01*
X125887818Y-134881808D01*
X126021068Y-135131101D01*
X126200392Y-135349608D01*
X126418899Y-135528932D01*
X126551858Y-135600000D01*
X126418899Y-135671068D01*
X126200392Y-135850392D01*
X126021068Y-136068899D01*
X125887818Y-136318192D01*
X125805764Y-136588691D01*
X125778057Y-136870000D01*
X125805764Y-137151309D01*
X125887818Y-137421808D01*
X126021068Y-137671101D01*
X126200392Y-137889608D01*
X126418899Y-138068932D01*
X126551858Y-138140000D01*
X126418899Y-138211068D01*
X126200392Y-138390392D01*
X126021068Y-138608899D01*
X125887818Y-138858192D01*
X125805764Y-139128691D01*
X125778057Y-139410000D01*
X125805764Y-139691309D01*
X125887818Y-139961808D01*
X126021068Y-140211101D01*
X126200392Y-140429608D01*
X126418899Y-140608932D01*
X126551858Y-140680000D01*
X126418899Y-140751068D01*
X126200392Y-140930392D01*
X126021068Y-141148899D01*
X125887818Y-141398192D01*
X125805764Y-141668691D01*
X125778057Y-141950000D01*
X125805764Y-142231309D01*
X125887818Y-142501808D01*
X126021068Y-142751101D01*
X126200392Y-142969608D01*
X126418899Y-143148932D01*
X126551858Y-143220000D01*
X126418899Y-143291068D01*
X126200392Y-143470392D01*
X126021068Y-143688899D01*
X125887818Y-143938192D01*
X125805764Y-144208691D01*
X125778057Y-144490000D01*
X125805764Y-144771309D01*
X125887818Y-145041808D01*
X126021068Y-145291101D01*
X126200392Y-145509608D01*
X126418899Y-145688932D01*
X126668192Y-145822182D01*
X126938691Y-145904236D01*
X127149508Y-145925000D01*
X128090492Y-145925000D01*
X128301309Y-145904236D01*
X128571808Y-145822182D01*
X128821101Y-145688932D01*
X129039608Y-145509608D01*
X129218932Y-145291101D01*
X129352182Y-145041808D01*
X129434236Y-144771309D01*
X129461943Y-144490000D01*
X129434236Y-144208691D01*
X129352182Y-143938192D01*
X129218932Y-143688899D01*
X129039608Y-143470392D01*
X128821101Y-143291068D01*
X128688142Y-143220000D01*
X128821101Y-143148932D01*
X129039608Y-142969608D01*
X129218932Y-142751101D01*
X129352182Y-142501808D01*
X129434236Y-142231309D01*
X129461943Y-141950000D01*
X129434236Y-141668691D01*
X129352182Y-141398192D01*
X129337114Y-141370000D01*
X131158057Y-141370000D01*
X131185764Y-141651309D01*
X131267818Y-141921808D01*
X131401068Y-142171101D01*
X131580392Y-142389608D01*
X131798899Y-142568932D01*
X132048192Y-142702182D01*
X132318691Y-142784236D01*
X132529508Y-142805000D01*
X133470492Y-142805000D01*
X133681309Y-142784236D01*
X133951808Y-142702182D01*
X134201101Y-142568932D01*
X134419608Y-142389608D01*
X134598932Y-142171101D01*
X134732182Y-141921808D01*
X134814236Y-141651309D01*
X134841943Y-141370000D01*
X134814236Y-141088691D01*
X134732182Y-140818192D01*
X134598932Y-140568899D01*
X134419608Y-140350392D01*
X134201101Y-140171068D01*
X133951808Y-140037818D01*
X133681309Y-139955764D01*
X133470492Y-139935000D01*
X132529508Y-139935000D01*
X132318691Y-139955764D01*
X132048192Y-140037818D01*
X131798899Y-140171068D01*
X131580392Y-140350392D01*
X131401068Y-140568899D01*
X131267818Y-140818192D01*
X131185764Y-141088691D01*
X131158057Y-141370000D01*
X129337114Y-141370000D01*
X129218932Y-141148899D01*
X129039608Y-140930392D01*
X128821101Y-140751068D01*
X128688142Y-140680000D01*
X128821101Y-140608932D01*
X129039608Y-140429608D01*
X129218932Y-140211101D01*
X129352182Y-139961808D01*
X129434236Y-139691309D01*
X129461943Y-139410000D01*
X129434236Y-139128691D01*
X129352182Y-138858192D01*
X129218932Y-138608899D01*
X129039608Y-138390392D01*
X128821101Y-138211068D01*
X128688142Y-138140000D01*
X128821101Y-138068932D01*
X129039608Y-137889608D01*
X129218932Y-137671101D01*
X129352182Y-137421808D01*
X129434236Y-137151309D01*
X129461943Y-136870000D01*
X129434236Y-136588691D01*
X129352182Y-136318192D01*
X129337114Y-136290000D01*
X131158057Y-136290000D01*
X131185764Y-136571309D01*
X131267818Y-136841808D01*
X131401068Y-137091101D01*
X131580392Y-137309608D01*
X131798899Y-137488932D01*
X132048192Y-137622182D01*
X132318691Y-137704236D01*
X132529508Y-137725000D01*
X133470492Y-137725000D01*
X133681309Y-137704236D01*
X133951808Y-137622182D01*
X134201101Y-137488932D01*
X134419608Y-137309608D01*
X134598932Y-137091101D01*
X134732182Y-136841808D01*
X134814236Y-136571309D01*
X134841943Y-136290000D01*
X134814236Y-136008691D01*
X134732182Y-135738192D01*
X134598932Y-135488899D01*
X134419608Y-135270392D01*
X134306518Y-135177581D01*
X134324482Y-135175812D01*
X134444180Y-135139502D01*
X134554494Y-135080537D01*
X134651185Y-135001185D01*
X134730537Y-134904494D01*
X134789502Y-134794180D01*
X134825812Y-134674482D01*
X134838072Y-134550000D01*
X134838072Y-133750000D01*
X138778057Y-133750000D01*
X138805764Y-134031309D01*
X138887818Y-134301808D01*
X139021068Y-134551101D01*
X139200392Y-134769608D01*
X139418899Y-134948932D01*
X139551858Y-135020000D01*
X139418899Y-135091068D01*
X139200392Y-135270392D01*
X139021068Y-135488899D01*
X138887818Y-135738192D01*
X138805764Y-136008691D01*
X138778057Y-136290000D01*
X138805764Y-136571309D01*
X138887818Y-136841808D01*
X139021068Y-137091101D01*
X139200392Y-137309608D01*
X139418899Y-137488932D01*
X139551858Y-137560000D01*
X139418899Y-137631068D01*
X139200392Y-137810392D01*
X139021068Y-138028899D01*
X138887818Y-138278192D01*
X138805764Y-138548691D01*
X138778057Y-138830000D01*
X138805764Y-139111309D01*
X138887818Y-139381808D01*
X139021068Y-139631101D01*
X139200392Y-139849608D01*
X139418899Y-140028932D01*
X139551858Y-140100000D01*
X139418899Y-140171068D01*
X139200392Y-140350392D01*
X139021068Y-140568899D01*
X138887818Y-140818192D01*
X138805764Y-141088691D01*
X138778057Y-141370000D01*
X138805764Y-141651309D01*
X138887818Y-141921808D01*
X139021068Y-142171101D01*
X139200392Y-142389608D01*
X139418899Y-142568932D01*
X139551858Y-142640000D01*
X139418899Y-142711068D01*
X139200392Y-142890392D01*
X139021068Y-143108899D01*
X138887818Y-143358192D01*
X138805764Y-143628691D01*
X138778057Y-143910000D01*
X138805764Y-144191309D01*
X138887818Y-144461808D01*
X139021068Y-144711101D01*
X139200392Y-144929608D01*
X139418899Y-145108932D01*
X139551858Y-145180000D01*
X139418899Y-145251068D01*
X139200392Y-145430392D01*
X139021068Y-145648899D01*
X138887818Y-145898192D01*
X138805764Y-146168691D01*
X138778057Y-146450000D01*
X138805764Y-146731309D01*
X138887818Y-147001808D01*
X139021068Y-147251101D01*
X139200392Y-147469608D01*
X139418899Y-147648932D01*
X139551858Y-147720000D01*
X139418899Y-147791068D01*
X139200392Y-147970392D01*
X139021068Y-148188899D01*
X138887818Y-148438192D01*
X138805764Y-148708691D01*
X138778057Y-148990000D01*
X138805764Y-149271309D01*
X138887818Y-149541808D01*
X139021068Y-149791101D01*
X139200392Y-150009608D01*
X139418899Y-150188932D01*
X139668192Y-150322182D01*
X139938691Y-150404236D01*
X140149508Y-150425000D01*
X141090492Y-150425000D01*
X141301309Y-150404236D01*
X141571808Y-150322182D01*
X141821101Y-150188932D01*
X142039608Y-150009608D01*
X142207939Y-149804495D01*
X220515000Y-149804495D01*
X220515000Y-150195505D01*
X220591282Y-150579003D01*
X220740915Y-150940250D01*
X220958149Y-151265364D01*
X221234636Y-151541851D01*
X221559750Y-151759085D01*
X221920997Y-151908718D01*
X222304495Y-151985000D01*
X222695505Y-151985000D01*
X223079003Y-151908718D01*
X223440250Y-151759085D01*
X223765364Y-151541851D01*
X224041851Y-151265364D01*
X224259085Y-150940250D01*
X224408718Y-150579003D01*
X224485000Y-150195505D01*
X224485000Y-149804495D01*
X224408718Y-149420997D01*
X224259085Y-149059750D01*
X224041851Y-148734636D01*
X223765364Y-148458149D01*
X223440250Y-148240915D01*
X223079003Y-148091282D01*
X222695505Y-148015000D01*
X222304495Y-148015000D01*
X221920997Y-148091282D01*
X221559750Y-148240915D01*
X221234636Y-148458149D01*
X220958149Y-148734636D01*
X220740915Y-149059750D01*
X220591282Y-149420997D01*
X220515000Y-149804495D01*
X142207939Y-149804495D01*
X142218932Y-149791101D01*
X142352182Y-149541808D01*
X142434236Y-149271309D01*
X142461943Y-148990000D01*
X142434236Y-148708691D01*
X142352182Y-148438192D01*
X142218932Y-148188899D01*
X142039608Y-147970392D01*
X141821101Y-147791068D01*
X141688142Y-147720000D01*
X141821101Y-147648932D01*
X142039608Y-147469608D01*
X142218932Y-147251101D01*
X142352182Y-147001808D01*
X142358524Y-146980901D01*
X142462463Y-147231831D01*
X142652337Y-147515998D01*
X142894002Y-147757663D01*
X143178169Y-147947537D01*
X143493919Y-148078325D01*
X143829117Y-148145000D01*
X144170883Y-148145000D01*
X144506081Y-148078325D01*
X144821831Y-147947537D01*
X145105998Y-147757663D01*
X145347663Y-147515998D01*
X145537537Y-147231831D01*
X145668325Y-146916081D01*
X145735000Y-146580883D01*
X145735000Y-146239117D01*
X145668325Y-145903919D01*
X145537537Y-145588169D01*
X145478625Y-145500000D01*
X150659428Y-145500000D01*
X150659428Y-147500000D01*
X150671688Y-147624482D01*
X150707998Y-147744180D01*
X150766963Y-147854494D01*
X150846315Y-147951185D01*
X150943006Y-148030537D01*
X151053320Y-148089502D01*
X151173018Y-148125812D01*
X151297500Y-148138072D01*
X153202500Y-148138072D01*
X153326982Y-148125812D01*
X153446680Y-148089502D01*
X153556994Y-148030537D01*
X153653685Y-147951185D01*
X153733037Y-147854494D01*
X153777905Y-147770553D01*
X153903766Y-147873845D01*
X154179552Y-148021255D01*
X154478797Y-148112030D01*
X154790000Y-148142681D01*
X155101204Y-148112030D01*
X155400449Y-148021255D01*
X155676235Y-147873845D01*
X155917963Y-147675463D01*
X156116345Y-147433734D01*
X156263755Y-147157948D01*
X156354530Y-146858703D01*
X156377500Y-146625485D01*
X156377500Y-146374514D01*
X156354530Y-146141296D01*
X156263755Y-145842051D01*
X156116345Y-145566265D01*
X156061963Y-145500000D01*
X161409428Y-145500000D01*
X161409428Y-147500000D01*
X161421688Y-147624482D01*
X161457998Y-147744180D01*
X161516963Y-147854494D01*
X161596315Y-147951185D01*
X161693006Y-148030537D01*
X161803320Y-148089502D01*
X161923018Y-148125812D01*
X162047500Y-148138072D01*
X163952500Y-148138072D01*
X164076982Y-148125812D01*
X164196680Y-148089502D01*
X164306994Y-148030537D01*
X164403685Y-147951185D01*
X164483037Y-147854494D01*
X164527905Y-147770553D01*
X164653766Y-147873845D01*
X164929552Y-148021255D01*
X165228797Y-148112030D01*
X165540000Y-148142681D01*
X165851204Y-148112030D01*
X166150449Y-148021255D01*
X166426235Y-147873845D01*
X166667963Y-147675463D01*
X166866345Y-147433734D01*
X167013755Y-147157948D01*
X167104530Y-146858703D01*
X167127500Y-146625485D01*
X167127500Y-146374514D01*
X167104530Y-146141296D01*
X167013755Y-145842051D01*
X166866345Y-145566265D01*
X166667963Y-145324537D01*
X166426234Y-145126155D01*
X166150448Y-144978745D01*
X165851203Y-144887970D01*
X165540000Y-144857319D01*
X165228796Y-144887970D01*
X164929551Y-144978745D01*
X164653765Y-145126155D01*
X164527905Y-145229446D01*
X164483037Y-145145506D01*
X164403685Y-145048815D01*
X164306994Y-144969463D01*
X164196680Y-144910498D01*
X164076982Y-144874188D01*
X163952500Y-144861928D01*
X162047500Y-144861928D01*
X161923018Y-144874188D01*
X161803320Y-144910498D01*
X161693006Y-144969463D01*
X161596315Y-145048815D01*
X161516963Y-145145506D01*
X161457998Y-145255820D01*
X161421688Y-145375518D01*
X161409428Y-145500000D01*
X156061963Y-145500000D01*
X155917963Y-145324537D01*
X155676234Y-145126155D01*
X155400448Y-144978745D01*
X155101203Y-144887970D01*
X154790000Y-144857319D01*
X154478796Y-144887970D01*
X154179551Y-144978745D01*
X153903765Y-145126155D01*
X153777905Y-145229446D01*
X153733037Y-145145506D01*
X153653685Y-145048815D01*
X153556994Y-144969463D01*
X153446680Y-144910498D01*
X153326982Y-144874188D01*
X153202500Y-144861928D01*
X151297500Y-144861928D01*
X151173018Y-144874188D01*
X151053320Y-144910498D01*
X150943006Y-144969463D01*
X150846315Y-145048815D01*
X150766963Y-145145506D01*
X150707998Y-145255820D01*
X150671688Y-145375518D01*
X150659428Y-145500000D01*
X145478625Y-145500000D01*
X145347663Y-145304002D01*
X145105998Y-145062337D01*
X144821831Y-144872463D01*
X144506081Y-144741675D01*
X144170883Y-144675000D01*
X143829117Y-144675000D01*
X143493919Y-144741675D01*
X143178169Y-144872463D01*
X142894002Y-145062337D01*
X142652337Y-145304002D01*
X142462463Y-145588169D01*
X142341965Y-145879077D01*
X142218932Y-145648899D01*
X142039608Y-145430392D01*
X141821101Y-145251068D01*
X141688142Y-145180000D01*
X141821101Y-145108932D01*
X142039608Y-144929608D01*
X142218932Y-144711101D01*
X142352182Y-144461808D01*
X142434236Y-144191309D01*
X142461943Y-143910000D01*
X142434236Y-143628691D01*
X142352182Y-143358192D01*
X142218932Y-143108899D01*
X142039608Y-142890392D01*
X141821101Y-142711068D01*
X141688142Y-142640000D01*
X141821101Y-142568932D01*
X142039608Y-142389608D01*
X142150078Y-142255000D01*
X143274031Y-142255000D01*
X143317500Y-142259281D01*
X143360969Y-142255000D01*
X143360977Y-142255000D01*
X143490990Y-142242195D01*
X143657813Y-142191589D01*
X143811559Y-142109411D01*
X143946317Y-141998817D01*
X143974034Y-141965044D01*
X144124565Y-141814514D01*
X144139202Y-141813072D01*
X144456250Y-141813072D01*
X144628285Y-141796128D01*
X144793709Y-141745947D01*
X144946164Y-141664458D01*
X145079792Y-141554792D01*
X145189458Y-141421164D01*
X145270947Y-141268709D01*
X145321128Y-141103285D01*
X145338072Y-140931250D01*
X145338072Y-140443750D01*
X145321128Y-140271715D01*
X145270947Y-140106291D01*
X145189458Y-139953836D01*
X145079792Y-139820208D01*
X144994244Y-139750000D01*
X145079792Y-139679792D01*
X145189458Y-139546164D01*
X145270947Y-139393709D01*
X145321128Y-139228285D01*
X145338072Y-139056250D01*
X145338072Y-138568750D01*
X145321128Y-138396715D01*
X145270947Y-138231291D01*
X145189458Y-138078836D01*
X145113850Y-137986708D01*
X145224482Y-137975812D01*
X145344180Y-137939502D01*
X145454494Y-137880537D01*
X145551185Y-137801185D01*
X145630537Y-137704494D01*
X145689502Y-137594180D01*
X145725812Y-137474482D01*
X145738072Y-137350000D01*
X145738072Y-135150000D01*
X145725812Y-135025518D01*
X145689502Y-134905820D01*
X145630537Y-134795506D01*
X145551185Y-134698815D01*
X145454494Y-134619463D01*
X145344180Y-134560498D01*
X145224482Y-134524188D01*
X145100000Y-134511928D01*
X142900000Y-134511928D01*
X142775518Y-134524188D01*
X142655820Y-134560498D01*
X142545506Y-134619463D01*
X142448815Y-134698815D01*
X142369463Y-134795506D01*
X142310498Y-134905820D01*
X142274188Y-135025518D01*
X142261928Y-135150000D01*
X142261928Y-135569339D01*
X142218932Y-135488899D01*
X142039608Y-135270392D01*
X141821101Y-135091068D01*
X141688142Y-135020000D01*
X141821101Y-134948932D01*
X142039608Y-134769608D01*
X142218932Y-134551101D01*
X142352182Y-134301808D01*
X142434236Y-134031309D01*
X142461943Y-133750000D01*
X142434236Y-133468691D01*
X142352182Y-133198192D01*
X142218932Y-132948899D01*
X142039608Y-132730392D01*
X141821101Y-132551068D01*
X141571808Y-132417818D01*
X141301309Y-132335764D01*
X141090492Y-132315000D01*
X140149508Y-132315000D01*
X139938691Y-132335764D01*
X139668192Y-132417818D01*
X139418899Y-132551068D01*
X139200392Y-132730392D01*
X139021068Y-132948899D01*
X138887818Y-133198192D01*
X138805764Y-133468691D01*
X138778057Y-133750000D01*
X134838072Y-133750000D01*
X134838072Y-132950000D01*
X134825812Y-132825518D01*
X134789502Y-132705820D01*
X134730537Y-132595506D01*
X134651185Y-132498815D01*
X134554494Y-132419463D01*
X134444180Y-132360498D01*
X134324482Y-132324188D01*
X134200000Y-132311928D01*
X131800000Y-132311928D01*
X131675518Y-132324188D01*
X131555820Y-132360498D01*
X131445506Y-132419463D01*
X131348815Y-132498815D01*
X131269463Y-132595506D01*
X131210498Y-132705820D01*
X131174188Y-132825518D01*
X131161928Y-132950000D01*
X131161928Y-134550000D01*
X131174188Y-134674482D01*
X131210498Y-134794180D01*
X131269463Y-134904494D01*
X131348815Y-135001185D01*
X131445506Y-135080537D01*
X131555820Y-135139502D01*
X131675518Y-135175812D01*
X131693482Y-135177581D01*
X131580392Y-135270392D01*
X131401068Y-135488899D01*
X131267818Y-135738192D01*
X131185764Y-136008691D01*
X131158057Y-136290000D01*
X129337114Y-136290000D01*
X129218932Y-136068899D01*
X129039608Y-135850392D01*
X128821101Y-135671068D01*
X128688142Y-135600000D01*
X128821101Y-135528932D01*
X129039608Y-135349608D01*
X129218932Y-135131101D01*
X129352182Y-134881808D01*
X129434236Y-134611309D01*
X129461943Y-134330000D01*
X129434236Y-134048691D01*
X129352182Y-133778192D01*
X129218932Y-133528899D01*
X129039608Y-133310392D01*
X128821101Y-133131068D01*
X128688142Y-133060000D01*
X128821101Y-132988932D01*
X129039608Y-132809608D01*
X129218932Y-132591101D01*
X129352182Y-132341808D01*
X129434236Y-132071309D01*
X129461943Y-131790000D01*
X129434236Y-131508691D01*
X129401266Y-131400000D01*
X161461928Y-131400000D01*
X161461928Y-134600000D01*
X161474188Y-134724482D01*
X161510498Y-134844180D01*
X161569463Y-134954494D01*
X161648815Y-135051185D01*
X161745506Y-135130537D01*
X161855820Y-135189502D01*
X161975518Y-135225812D01*
X162100000Y-135238072D01*
X165300000Y-135238072D01*
X165424482Y-135225812D01*
X165544180Y-135189502D01*
X165654494Y-135130537D01*
X165751185Y-135051185D01*
X165830537Y-134954494D01*
X165889502Y-134844180D01*
X165925812Y-134724482D01*
X165938072Y-134600000D01*
X165938072Y-133012009D01*
X170865260Y-133012009D01*
X170865260Y-133727991D01*
X171004941Y-134430215D01*
X171278935Y-135091695D01*
X171676713Y-135687012D01*
X172182988Y-136193287D01*
X172778305Y-136591065D01*
X173439785Y-136865059D01*
X174142009Y-137004740D01*
X174857991Y-137004740D01*
X175560215Y-136865059D01*
X176221695Y-136591065D01*
X176817012Y-136193287D01*
X177323287Y-135687012D01*
X177721065Y-135091695D01*
X177995059Y-134430215D01*
X178134740Y-133727991D01*
X178134740Y-133012009D01*
X178088566Y-132779872D01*
X183815000Y-132779872D01*
X183815000Y-133220128D01*
X183900890Y-133651925D01*
X184069369Y-134058669D01*
X184313962Y-134424729D01*
X184625271Y-134736038D01*
X184991331Y-134980631D01*
X185398075Y-135149110D01*
X185829872Y-135235000D01*
X186270128Y-135235000D01*
X186701925Y-135149110D01*
X187108669Y-134980631D01*
X187474729Y-134736038D01*
X187786038Y-134424729D01*
X188030631Y-134058669D01*
X188199110Y-133651925D01*
X188285000Y-133220128D01*
X188285000Y-132779872D01*
X188199110Y-132348075D01*
X188030631Y-131941331D01*
X187786038Y-131575271D01*
X187474729Y-131263962D01*
X187108669Y-131019369D01*
X186701925Y-130850890D01*
X186270128Y-130765000D01*
X185829872Y-130765000D01*
X185398075Y-130850890D01*
X184991331Y-131019369D01*
X184625271Y-131263962D01*
X184313962Y-131575271D01*
X184069369Y-131941331D01*
X183900890Y-132348075D01*
X183815000Y-132779872D01*
X178088566Y-132779872D01*
X177995059Y-132309785D01*
X177721065Y-131648305D01*
X177323287Y-131052988D01*
X176817012Y-130546713D01*
X176221695Y-130148935D01*
X175560215Y-129874941D01*
X174857991Y-129735260D01*
X174142009Y-129735260D01*
X173439785Y-129874941D01*
X172778305Y-130148935D01*
X172182988Y-130546713D01*
X171676713Y-131052988D01*
X171278935Y-131648305D01*
X171004941Y-132309785D01*
X170865260Y-133012009D01*
X165938072Y-133012009D01*
X165938072Y-131400000D01*
X165925812Y-131275518D01*
X165889502Y-131155820D01*
X165830537Y-131045506D01*
X165751185Y-130948815D01*
X165654494Y-130869463D01*
X165544180Y-130810498D01*
X165424482Y-130774188D01*
X165300000Y-130761928D01*
X162100000Y-130761928D01*
X161975518Y-130774188D01*
X161855820Y-130810498D01*
X161745506Y-130869463D01*
X161648815Y-130948815D01*
X161569463Y-131045506D01*
X161510498Y-131155820D01*
X161474188Y-131275518D01*
X161461928Y-131400000D01*
X129401266Y-131400000D01*
X129352182Y-131238192D01*
X129218932Y-130988899D01*
X129039608Y-130770392D01*
X128821101Y-130591068D01*
X128688142Y-130520000D01*
X128821101Y-130448932D01*
X129039608Y-130269608D01*
X129218932Y-130051101D01*
X129352182Y-129801808D01*
X129434236Y-129531309D01*
X129461943Y-129250000D01*
X129434236Y-128968691D01*
X129352182Y-128698192D01*
X129218932Y-128448899D01*
X129039608Y-128230392D01*
X128821101Y-128051068D01*
X128571808Y-127917818D01*
X128301309Y-127835764D01*
X128090492Y-127815000D01*
X127149508Y-127815000D01*
X126938691Y-127835764D01*
X126668192Y-127917818D01*
X126418899Y-128051068D01*
X126355048Y-128103469D01*
X121951579Y-123700000D01*
X131158057Y-123700000D01*
X131185764Y-123981309D01*
X131267818Y-124251808D01*
X131401068Y-124501101D01*
X131580392Y-124719608D01*
X131798899Y-124898932D01*
X131931858Y-124970000D01*
X131798899Y-125041068D01*
X131580392Y-125220392D01*
X131401068Y-125438899D01*
X131267818Y-125688192D01*
X131185764Y-125958691D01*
X131158057Y-126240000D01*
X131185764Y-126521309D01*
X131267818Y-126791808D01*
X131401068Y-127041101D01*
X131580392Y-127259608D01*
X131798899Y-127438932D01*
X132048192Y-127572182D01*
X132318691Y-127654236D01*
X132529508Y-127675000D01*
X133470492Y-127675000D01*
X133681309Y-127654236D01*
X133951808Y-127572182D01*
X134201101Y-127438932D01*
X134279002Y-127375000D01*
X135144249Y-127375000D01*
X135200000Y-127380491D01*
X135255751Y-127375000D01*
X135255752Y-127375000D01*
X135422499Y-127358577D01*
X135636447Y-127293676D01*
X135833623Y-127188284D01*
X136006449Y-127046449D01*
X136041996Y-127003135D01*
X138763141Y-124281991D01*
X138806449Y-124246449D01*
X138864672Y-124175504D01*
X138887818Y-124251808D01*
X139021068Y-124501101D01*
X139200392Y-124719608D01*
X139418899Y-124898932D01*
X139551858Y-124970000D01*
X139418899Y-125041068D01*
X139200392Y-125220392D01*
X139021068Y-125438899D01*
X138887818Y-125688192D01*
X138805764Y-125958691D01*
X138778057Y-126240000D01*
X138805764Y-126521309D01*
X138887818Y-126791808D01*
X139021068Y-127041101D01*
X139200392Y-127259608D01*
X139418899Y-127438932D01*
X139668192Y-127572182D01*
X139938691Y-127654236D01*
X140149508Y-127675000D01*
X141090492Y-127675000D01*
X141301309Y-127654236D01*
X141571808Y-127572182D01*
X141821101Y-127438932D01*
X142039608Y-127259608D01*
X142218932Y-127041101D01*
X142352182Y-126791808D01*
X142434236Y-126521309D01*
X142461943Y-126240000D01*
X142434236Y-125958691D01*
X142352182Y-125688192D01*
X142218932Y-125438899D01*
X142039608Y-125220392D01*
X141821101Y-125041068D01*
X141688142Y-124970000D01*
X141821101Y-124898932D01*
X142039608Y-124719608D01*
X142218932Y-124501101D01*
X142352182Y-124251808D01*
X142358524Y-124230901D01*
X142462463Y-124481831D01*
X142652337Y-124765998D01*
X142894002Y-125007663D01*
X143178169Y-125197537D01*
X143493919Y-125328325D01*
X143829117Y-125395000D01*
X144170883Y-125395000D01*
X144506081Y-125328325D01*
X144821831Y-125197537D01*
X145105998Y-125007663D01*
X145347663Y-124765998D01*
X145537537Y-124481831D01*
X145571432Y-124400000D01*
X161461928Y-124400000D01*
X161461928Y-127600000D01*
X161474188Y-127724482D01*
X161510498Y-127844180D01*
X161569463Y-127954494D01*
X161648815Y-128051185D01*
X161745506Y-128130537D01*
X161855820Y-128189502D01*
X161975518Y-128225812D01*
X162100000Y-128238072D01*
X165300000Y-128238072D01*
X165424482Y-128225812D01*
X165544180Y-128189502D01*
X165654494Y-128130537D01*
X165751185Y-128051185D01*
X165830537Y-127954494D01*
X165889502Y-127844180D01*
X165925812Y-127724482D01*
X165938072Y-127600000D01*
X165938072Y-124400000D01*
X165925812Y-124275518D01*
X165889502Y-124155820D01*
X165830537Y-124045506D01*
X165751185Y-123948815D01*
X165654494Y-123869463D01*
X165544180Y-123810498D01*
X165424482Y-123774188D01*
X165300000Y-123761928D01*
X162100000Y-123761928D01*
X161975518Y-123774188D01*
X161855820Y-123810498D01*
X161745506Y-123869463D01*
X161648815Y-123948815D01*
X161569463Y-124045506D01*
X161510498Y-124155820D01*
X161474188Y-124275518D01*
X161461928Y-124400000D01*
X145571432Y-124400000D01*
X145668325Y-124166081D01*
X145735000Y-123830883D01*
X145735000Y-123489117D01*
X145668325Y-123153919D01*
X145537537Y-122838169D01*
X145478799Y-122750260D01*
X170862188Y-122750260D01*
X170862188Y-128749740D01*
X170874448Y-128874222D01*
X170910758Y-128993920D01*
X170969723Y-129104234D01*
X171049075Y-129200925D01*
X171145766Y-129280277D01*
X171256080Y-129339242D01*
X171375778Y-129375552D01*
X171500260Y-129387812D01*
X177499740Y-129387812D01*
X177624222Y-129375552D01*
X177743920Y-129339242D01*
X177854234Y-129280277D01*
X177950925Y-129200925D01*
X178030277Y-129104234D01*
X178089242Y-128993920D01*
X178125552Y-128874222D01*
X178137812Y-128749740D01*
X178137812Y-125779872D01*
X183815000Y-125779872D01*
X183815000Y-126220128D01*
X183900890Y-126651925D01*
X184069369Y-127058669D01*
X184313962Y-127424729D01*
X184625271Y-127736038D01*
X184991331Y-127980631D01*
X185398075Y-128149110D01*
X185829872Y-128235000D01*
X186270128Y-128235000D01*
X186701925Y-128149110D01*
X187108669Y-127980631D01*
X187474729Y-127736038D01*
X187786038Y-127424729D01*
X188030631Y-127058669D01*
X188199110Y-126651925D01*
X188285000Y-126220128D01*
X188285000Y-125779872D01*
X188199110Y-125348075D01*
X188030631Y-124941331D01*
X187786038Y-124575271D01*
X187474729Y-124263962D01*
X187108669Y-124019369D01*
X186701925Y-123850890D01*
X186270128Y-123765000D01*
X185829872Y-123765000D01*
X185398075Y-123850890D01*
X184991331Y-124019369D01*
X184625271Y-124263962D01*
X184313962Y-124575271D01*
X184069369Y-124941331D01*
X183900890Y-125348075D01*
X183815000Y-125779872D01*
X178137812Y-125779872D01*
X178137812Y-122750260D01*
X178125552Y-122625778D01*
X178089242Y-122506080D01*
X178030277Y-122395766D01*
X177950925Y-122299075D01*
X177854234Y-122219723D01*
X177743920Y-122160758D01*
X177624222Y-122124448D01*
X177499740Y-122112188D01*
X171500260Y-122112188D01*
X171375778Y-122124448D01*
X171256080Y-122160758D01*
X171145766Y-122219723D01*
X171049075Y-122299075D01*
X170969723Y-122395766D01*
X170910758Y-122506080D01*
X170874448Y-122625778D01*
X170862188Y-122750260D01*
X145478799Y-122750260D01*
X145347663Y-122554002D01*
X145105998Y-122312337D01*
X144821831Y-122122463D01*
X144506081Y-121991675D01*
X144170883Y-121925000D01*
X143829117Y-121925000D01*
X143493919Y-121991675D01*
X143178169Y-122122463D01*
X142894002Y-122312337D01*
X142652337Y-122554002D01*
X142462463Y-122838169D01*
X142341965Y-123129077D01*
X142218932Y-122898899D01*
X142039608Y-122680392D01*
X141821101Y-122501068D01*
X141688142Y-122430000D01*
X141821101Y-122358932D01*
X142039608Y-122179608D01*
X142218932Y-121961101D01*
X142352182Y-121711808D01*
X142434236Y-121441309D01*
X142461943Y-121160000D01*
X142434236Y-120878691D01*
X142352182Y-120608192D01*
X142218932Y-120358899D01*
X142039608Y-120140392D01*
X141821101Y-119961068D01*
X141688142Y-119890000D01*
X141821101Y-119818932D01*
X142039608Y-119639608D01*
X142150078Y-119505000D01*
X143274031Y-119505000D01*
X143317500Y-119509281D01*
X143360969Y-119505000D01*
X143360977Y-119505000D01*
X143490990Y-119492195D01*
X143657813Y-119441589D01*
X143811559Y-119359411D01*
X143946317Y-119248817D01*
X143974034Y-119215044D01*
X144126006Y-119063072D01*
X144456250Y-119063072D01*
X144628285Y-119046128D01*
X144793709Y-118995947D01*
X144946164Y-118914458D01*
X145079792Y-118804792D01*
X145189458Y-118671164D01*
X145270947Y-118518709D01*
X145321128Y-118353285D01*
X145338072Y-118181250D01*
X145338072Y-117693750D01*
X145321128Y-117521715D01*
X145270947Y-117356291D01*
X145189458Y-117203836D01*
X145079792Y-117070208D01*
X144994244Y-117000000D01*
X145079792Y-116929792D01*
X145189458Y-116796164D01*
X145270947Y-116643709D01*
X145321128Y-116478285D01*
X145338072Y-116306250D01*
X145338072Y-115818750D01*
X145321128Y-115646715D01*
X145270947Y-115481291D01*
X145189458Y-115328836D01*
X145113850Y-115236708D01*
X145224482Y-115225812D01*
X145344180Y-115189502D01*
X145454494Y-115130537D01*
X145551185Y-115051185D01*
X145630537Y-114954494D01*
X145689502Y-114844180D01*
X145725812Y-114724482D01*
X145738072Y-114600000D01*
X145738072Y-112400000D01*
X145725812Y-112275518D01*
X145689502Y-112155820D01*
X145630537Y-112045506D01*
X145551185Y-111948815D01*
X145460649Y-111874514D01*
X152622500Y-111874514D01*
X152622500Y-112125485D01*
X152645470Y-112358703D01*
X152736245Y-112657948D01*
X152883655Y-112933734D01*
X153082037Y-113175463D01*
X153323765Y-113373845D01*
X153599551Y-113521255D01*
X153898796Y-113612030D01*
X154210000Y-113642681D01*
X154521203Y-113612030D01*
X154820448Y-113521255D01*
X155096234Y-113373845D01*
X155222095Y-113270553D01*
X155266963Y-113354494D01*
X155346315Y-113451185D01*
X155443006Y-113530537D01*
X155553320Y-113589502D01*
X155673018Y-113625812D01*
X155797500Y-113638072D01*
X157702500Y-113638072D01*
X157826982Y-113625812D01*
X157946680Y-113589502D01*
X158056994Y-113530537D01*
X158153685Y-113451185D01*
X158233037Y-113354494D01*
X158292002Y-113244180D01*
X158328312Y-113124482D01*
X158340572Y-113000000D01*
X158340572Y-111874514D01*
X163372500Y-111874514D01*
X163372500Y-112125485D01*
X163395470Y-112358703D01*
X163486245Y-112657948D01*
X163633655Y-112933734D01*
X163832037Y-113175463D01*
X164073765Y-113373845D01*
X164349551Y-113521255D01*
X164648796Y-113612030D01*
X164960000Y-113642681D01*
X165271203Y-113612030D01*
X165570448Y-113521255D01*
X165846234Y-113373845D01*
X165972095Y-113270553D01*
X166016963Y-113354494D01*
X166096315Y-113451185D01*
X166193006Y-113530537D01*
X166303320Y-113589502D01*
X166423018Y-113625812D01*
X166547500Y-113638072D01*
X168452500Y-113638072D01*
X168576982Y-113625812D01*
X168696680Y-113589502D01*
X168806994Y-113530537D01*
X168903685Y-113451185D01*
X168983037Y-113354494D01*
X169042002Y-113244180D01*
X169078312Y-113124482D01*
X169090572Y-113000000D01*
X169090572Y-111874514D01*
X180332500Y-111874514D01*
X180332500Y-112125485D01*
X180355470Y-112358703D01*
X180446245Y-112657948D01*
X180593655Y-112933734D01*
X180792037Y-113175463D01*
X181033765Y-113373845D01*
X181309551Y-113521255D01*
X181608796Y-113612030D01*
X181623000Y-113613429D01*
X181623000Y-122000000D01*
X181624086Y-122016577D01*
X181641123Y-122145987D01*
X181649704Y-122178011D01*
X181699654Y-122298601D01*
X181716232Y-122327313D01*
X181795692Y-122430866D01*
X181819134Y-122454308D01*
X181922687Y-122533768D01*
X181951399Y-122550346D01*
X182071989Y-122600296D01*
X182104013Y-122608877D01*
X182233423Y-122625914D01*
X182250000Y-122627000D01*
X192991672Y-122627000D01*
X193096257Y-122640769D01*
X193185955Y-122677923D01*
X193262976Y-122737024D01*
X193322077Y-122814045D01*
X193359231Y-122903743D01*
X193373000Y-123008328D01*
X193373000Y-135991672D01*
X193359231Y-136096257D01*
X193322077Y-136185955D01*
X193262976Y-136262976D01*
X193185955Y-136322077D01*
X193096257Y-136359231D01*
X192991672Y-136373000D01*
X182250000Y-136373000D01*
X182233423Y-136374086D01*
X182104013Y-136391123D01*
X182071989Y-136399704D01*
X181951399Y-136449654D01*
X181922687Y-136466232D01*
X181819134Y-136545692D01*
X181795692Y-136569134D01*
X181716232Y-136672687D01*
X181699654Y-136701399D01*
X181649704Y-136821989D01*
X181641123Y-136854013D01*
X181624086Y-136983423D01*
X181623000Y-137000000D01*
X181623000Y-144861928D01*
X181047500Y-144861928D01*
X180923018Y-144874188D01*
X180803320Y-144910498D01*
X180693006Y-144969463D01*
X180596315Y-145048815D01*
X180516963Y-145145506D01*
X180457998Y-145255820D01*
X180421688Y-145375518D01*
X180409428Y-145500000D01*
X180409428Y-147500000D01*
X180421688Y-147624482D01*
X180457998Y-147744180D01*
X180516963Y-147854494D01*
X180596315Y-147951185D01*
X180693006Y-148030537D01*
X180803320Y-148089502D01*
X180923018Y-148125812D01*
X181047500Y-148138072D01*
X181762855Y-148138072D01*
X181795692Y-148180866D01*
X181819134Y-148204308D01*
X181922687Y-148283768D01*
X181951399Y-148300346D01*
X182071989Y-148350296D01*
X182104013Y-148358877D01*
X182233423Y-148375914D01*
X182250000Y-148377000D01*
X208750000Y-148377000D01*
X208766577Y-148375914D01*
X208895987Y-148358877D01*
X208928011Y-148350296D01*
X209048601Y-148300346D01*
X209077313Y-148283768D01*
X209180866Y-148204308D01*
X209204308Y-148180866D01*
X209283768Y-148077313D01*
X209300346Y-148048601D01*
X209350296Y-147928011D01*
X209358877Y-147895987D01*
X209375914Y-147766577D01*
X209377000Y-147750000D01*
X209377000Y-134258328D01*
X209390769Y-134153743D01*
X209427923Y-134064045D01*
X209487024Y-133987024D01*
X209564045Y-133927923D01*
X209653743Y-133890769D01*
X209758328Y-133877000D01*
X223750000Y-133877000D01*
X223766577Y-133875914D01*
X223895987Y-133858877D01*
X223928011Y-133850296D01*
X224048601Y-133800346D01*
X224077313Y-133783768D01*
X224180866Y-133704308D01*
X224204308Y-133680866D01*
X224283768Y-133577313D01*
X224300346Y-133548601D01*
X224350296Y-133428011D01*
X224358877Y-133395987D01*
X224375914Y-133266577D01*
X224377000Y-133250000D01*
X224377000Y-125500000D01*
X224375914Y-125483423D01*
X224358877Y-125354013D01*
X224350296Y-125321989D01*
X224300346Y-125201399D01*
X224283768Y-125172687D01*
X224204308Y-125069134D01*
X224180866Y-125045692D01*
X224077313Y-124966232D01*
X224048601Y-124949654D01*
X223928011Y-124899704D01*
X223895987Y-124891123D01*
X223766577Y-124874086D01*
X223750000Y-124873000D01*
X209758328Y-124873000D01*
X209653743Y-124859231D01*
X209564045Y-124822077D01*
X209487024Y-124762976D01*
X209427923Y-124685955D01*
X209390769Y-124596257D01*
X209377000Y-124491672D01*
X209377000Y-110750000D01*
X209375914Y-110733423D01*
X209358877Y-110604013D01*
X209350296Y-110571989D01*
X209300346Y-110451399D01*
X209283768Y-110422687D01*
X209204308Y-110319134D01*
X209180866Y-110295692D01*
X209077313Y-110216232D01*
X209048601Y-110199654D01*
X208928011Y-110149704D01*
X208895987Y-110141123D01*
X208766577Y-110124086D01*
X208750000Y-110123000D01*
X182250000Y-110123000D01*
X182233423Y-110124086D01*
X182104013Y-110141123D01*
X182071989Y-110149704D01*
X181951399Y-110199654D01*
X181922687Y-110216232D01*
X181819134Y-110295692D01*
X181795692Y-110319134D01*
X181753833Y-110373685D01*
X181608797Y-110387970D01*
X181309552Y-110478745D01*
X181033766Y-110626155D01*
X180792037Y-110824537D01*
X180593655Y-111066265D01*
X180446245Y-111342051D01*
X180355470Y-111641296D01*
X180332500Y-111874514D01*
X169090572Y-111874514D01*
X169090572Y-111000000D01*
X169078312Y-110875518D01*
X169042002Y-110755820D01*
X168983037Y-110645506D01*
X168903685Y-110548815D01*
X168806994Y-110469463D01*
X168696680Y-110410498D01*
X168576982Y-110374188D01*
X168452500Y-110361928D01*
X166547500Y-110361928D01*
X166423018Y-110374188D01*
X166303320Y-110410498D01*
X166193006Y-110469463D01*
X166096315Y-110548815D01*
X166016963Y-110645506D01*
X165972095Y-110729446D01*
X165846235Y-110626155D01*
X165570449Y-110478745D01*
X165271204Y-110387970D01*
X164960000Y-110357319D01*
X164648797Y-110387970D01*
X164349552Y-110478745D01*
X164073766Y-110626155D01*
X163832037Y-110824537D01*
X163633655Y-111066265D01*
X163486245Y-111342051D01*
X163395470Y-111641296D01*
X163372500Y-111874514D01*
X158340572Y-111874514D01*
X158340572Y-111000000D01*
X158328312Y-110875518D01*
X158292002Y-110755820D01*
X158233037Y-110645506D01*
X158153685Y-110548815D01*
X158056994Y-110469463D01*
X157946680Y-110410498D01*
X157826982Y-110374188D01*
X157702500Y-110361928D01*
X155797500Y-110361928D01*
X155673018Y-110374188D01*
X155553320Y-110410498D01*
X155443006Y-110469463D01*
X155346315Y-110548815D01*
X155266963Y-110645506D01*
X155222095Y-110729446D01*
X155096235Y-110626155D01*
X154820449Y-110478745D01*
X154521204Y-110387970D01*
X154210000Y-110357319D01*
X153898797Y-110387970D01*
X153599552Y-110478745D01*
X153323766Y-110626155D01*
X153082037Y-110824537D01*
X152883655Y-111066265D01*
X152736245Y-111342051D01*
X152645470Y-111641296D01*
X152622500Y-111874514D01*
X145460649Y-111874514D01*
X145454494Y-111869463D01*
X145344180Y-111810498D01*
X145224482Y-111774188D01*
X145100000Y-111761928D01*
X142900000Y-111761928D01*
X142775518Y-111774188D01*
X142655820Y-111810498D01*
X142545506Y-111869463D01*
X142448815Y-111948815D01*
X142369463Y-112045506D01*
X142310498Y-112155820D01*
X142274188Y-112275518D01*
X142261928Y-112400000D01*
X142261928Y-112819339D01*
X142218932Y-112738899D01*
X142039608Y-112520392D01*
X141821101Y-112341068D01*
X141688142Y-112270000D01*
X141821101Y-112198932D01*
X142039608Y-112019608D01*
X142218932Y-111801101D01*
X142352182Y-111551808D01*
X142434236Y-111281309D01*
X142461943Y-111000000D01*
X142434236Y-110718691D01*
X142352182Y-110448192D01*
X142218932Y-110198899D01*
X142039608Y-109980392D01*
X141821101Y-109801068D01*
X141571808Y-109667818D01*
X141301309Y-109585764D01*
X141090492Y-109565000D01*
X140149508Y-109565000D01*
X139938691Y-109585764D01*
X139668192Y-109667818D01*
X139418899Y-109801068D01*
X139200392Y-109980392D01*
X139021068Y-110198899D01*
X138887818Y-110448192D01*
X138805764Y-110718691D01*
X138778057Y-111000000D01*
X138805764Y-111281309D01*
X138887818Y-111551808D01*
X139021068Y-111801101D01*
X139200392Y-112019608D01*
X139418899Y-112198932D01*
X139551858Y-112270000D01*
X139418899Y-112341068D01*
X139200392Y-112520392D01*
X139021068Y-112738899D01*
X138887818Y-112988192D01*
X138805764Y-113258691D01*
X138778057Y-113540000D01*
X138805764Y-113821309D01*
X138887818Y-114091808D01*
X139021068Y-114341101D01*
X139200392Y-114559608D01*
X139418899Y-114738932D01*
X139551858Y-114810000D01*
X139418899Y-114881068D01*
X139200392Y-115060392D01*
X139021068Y-115278899D01*
X138887818Y-115528192D01*
X138805764Y-115798691D01*
X138778057Y-116080000D01*
X138805764Y-116361309D01*
X138887818Y-116631808D01*
X139021068Y-116881101D01*
X139200392Y-117099608D01*
X139418899Y-117278932D01*
X139551858Y-117350000D01*
X139418899Y-117421068D01*
X139200392Y-117600392D01*
X139042545Y-117792729D01*
X138948284Y-117616377D01*
X138806449Y-117443551D01*
X138633623Y-117301716D01*
X138436447Y-117196324D01*
X138222499Y-117131423D01*
X138000000Y-117109509D01*
X137777502Y-117131423D01*
X137563554Y-117196324D01*
X137366378Y-117301716D01*
X137193552Y-117443551D01*
X137051717Y-117616377D01*
X136946325Y-117813553D01*
X136881424Y-118027501D01*
X136865001Y-118194248D01*
X136865000Y-121363109D01*
X136829792Y-121320208D01*
X136696164Y-121210542D01*
X136543709Y-121129053D01*
X136378285Y-121078872D01*
X136206250Y-121061928D01*
X135293750Y-121061928D01*
X135121715Y-121078872D01*
X134956291Y-121129053D01*
X134803836Y-121210542D01*
X134670208Y-121320208D01*
X134560542Y-121453836D01*
X134479053Y-121606291D01*
X134428872Y-121771715D01*
X134411928Y-121943750D01*
X134411928Y-122431250D01*
X134428872Y-122603285D01*
X134471410Y-122743513D01*
X134419608Y-122680392D01*
X134201101Y-122501068D01*
X133951808Y-122367818D01*
X133681309Y-122285764D01*
X133470492Y-122265000D01*
X132529508Y-122265000D01*
X132318691Y-122285764D01*
X132048192Y-122367818D01*
X131798899Y-122501068D01*
X131580392Y-122680392D01*
X131401068Y-122898899D01*
X131267818Y-123148192D01*
X131185764Y-123418691D01*
X131158057Y-123700000D01*
X121951579Y-123700000D01*
X121106702Y-122855124D01*
X121177932Y-122683158D01*
X121235000Y-122396260D01*
X121235000Y-122103740D01*
X121177932Y-121816842D01*
X121065990Y-121546589D01*
X120903475Y-121303368D01*
X120771620Y-121171513D01*
X120844180Y-121149502D01*
X120954494Y-121090537D01*
X121051185Y-121011185D01*
X121130537Y-120914494D01*
X121189502Y-120804180D01*
X121225812Y-120684482D01*
X121238072Y-120560000D01*
X121238072Y-119700000D01*
X122561928Y-119700000D01*
X122561928Y-121300000D01*
X122574188Y-121424482D01*
X122610498Y-121544180D01*
X122669463Y-121654494D01*
X122748815Y-121751185D01*
X122845506Y-121830537D01*
X122955820Y-121889502D01*
X123075518Y-121925812D01*
X123200000Y-121938072D01*
X124800000Y-121938072D01*
X124924482Y-121925812D01*
X125044180Y-121889502D01*
X125154494Y-121830537D01*
X125251185Y-121751185D01*
X125330537Y-121654494D01*
X125389502Y-121544180D01*
X125425812Y-121424482D01*
X125438072Y-121300000D01*
X125438072Y-119700000D01*
X125425812Y-119575518D01*
X125389502Y-119455820D01*
X125330537Y-119345506D01*
X125251185Y-119248815D01*
X125154494Y-119169463D01*
X125044180Y-119110498D01*
X124924482Y-119074188D01*
X124800000Y-119061928D01*
X123200000Y-119061928D01*
X123075518Y-119074188D01*
X122955820Y-119110498D01*
X122845506Y-119169463D01*
X122748815Y-119248815D01*
X122669463Y-119345506D01*
X122610498Y-119455820D01*
X122574188Y-119575518D01*
X122561928Y-119700000D01*
X121238072Y-119700000D01*
X121238072Y-118860000D01*
X121225812Y-118735518D01*
X121190770Y-118620000D01*
X131158057Y-118620000D01*
X131185764Y-118901309D01*
X131267818Y-119171808D01*
X131401068Y-119421101D01*
X131580392Y-119639608D01*
X131798899Y-119818932D01*
X132048192Y-119952182D01*
X132318691Y-120034236D01*
X132529508Y-120055000D01*
X133470492Y-120055000D01*
X133681309Y-120034236D01*
X133951808Y-119952182D01*
X134201101Y-119818932D01*
X134419608Y-119639608D01*
X134598932Y-119421101D01*
X134732182Y-119171808D01*
X134814236Y-118901309D01*
X134841943Y-118620000D01*
X134814236Y-118338691D01*
X134732182Y-118068192D01*
X134598932Y-117818899D01*
X134419608Y-117600392D01*
X134201101Y-117421068D01*
X133951808Y-117287818D01*
X133681309Y-117205764D01*
X133470492Y-117185000D01*
X132529508Y-117185000D01*
X132318691Y-117205764D01*
X132048192Y-117287818D01*
X131798899Y-117421068D01*
X131580392Y-117600392D01*
X131401068Y-117818899D01*
X131267818Y-118068192D01*
X131185764Y-118338691D01*
X131158057Y-118620000D01*
X121190770Y-118620000D01*
X121189502Y-118615820D01*
X121130537Y-118505506D01*
X121051185Y-118408815D01*
X120954494Y-118329463D01*
X120844180Y-118270498D01*
X120724482Y-118234188D01*
X120600000Y-118221928D01*
X118900000Y-118221928D01*
X118775518Y-118234188D01*
X118655820Y-118270498D01*
X118545506Y-118329463D01*
X118448815Y-118408815D01*
X118369463Y-118505506D01*
X118310498Y-118615820D01*
X118274188Y-118735518D01*
X118261928Y-118860000D01*
X118261928Y-120560000D01*
X118274188Y-120684482D01*
X118310498Y-120804180D01*
X118369463Y-120914494D01*
X118448815Y-121011185D01*
X118545506Y-121090537D01*
X118655820Y-121149502D01*
X118728380Y-121171513D01*
X118596525Y-121303368D01*
X118434010Y-121546589D01*
X118322068Y-121816842D01*
X118265000Y-122103740D01*
X118265000Y-122396260D01*
X118308790Y-122616408D01*
X116239003Y-124686196D01*
X116209999Y-124709999D01*
X116181948Y-124744180D01*
X116115026Y-124825724D01*
X116115005Y-124825764D01*
X116044454Y-124957754D01*
X116000997Y-125101015D01*
X115990000Y-125212668D01*
X115990000Y-125212678D01*
X115986324Y-125250000D01*
X115990000Y-125287322D01*
X115990001Y-132046288D01*
X115946063Y-132090226D01*
X115832795Y-132259744D01*
X115754774Y-132448102D01*
X115715000Y-132648061D01*
X100627000Y-132648061D01*
X100627000Y-127200000D01*
X104561928Y-127200000D01*
X104561928Y-128800000D01*
X104574188Y-128924482D01*
X104610498Y-129044180D01*
X104669463Y-129154494D01*
X104748815Y-129251185D01*
X104845506Y-129330537D01*
X104955820Y-129389502D01*
X105075518Y-129425812D01*
X105083961Y-129426643D01*
X104885363Y-129625241D01*
X104728320Y-129860273D01*
X104620147Y-130121426D01*
X104565000Y-130398665D01*
X104565000Y-130681335D01*
X104620147Y-130958574D01*
X104728320Y-131219727D01*
X104885363Y-131454759D01*
X105085241Y-131654637D01*
X105320273Y-131811680D01*
X105581426Y-131919853D01*
X105858665Y-131975000D01*
X106141335Y-131975000D01*
X106418574Y-131919853D01*
X106679727Y-131811680D01*
X106914759Y-131654637D01*
X107114637Y-131454759D01*
X107271680Y-131219727D01*
X107379853Y-130958574D01*
X107435000Y-130681335D01*
X107435000Y-130398665D01*
X107379853Y-130121426D01*
X107271680Y-129860273D01*
X107114637Y-129625241D01*
X106916039Y-129426643D01*
X106924482Y-129425812D01*
X107044180Y-129389502D01*
X107154494Y-129330537D01*
X107251185Y-129251185D01*
X107330537Y-129154494D01*
X107389502Y-129044180D01*
X107425812Y-128924482D01*
X107438072Y-128800000D01*
X107438072Y-127858665D01*
X112185000Y-127858665D01*
X112185000Y-128141335D01*
X112240147Y-128418574D01*
X112348320Y-128679727D01*
X112505363Y-128914759D01*
X112705241Y-129114637D01*
X112940273Y-129271680D01*
X113201426Y-129379853D01*
X113478665Y-129435000D01*
X113761335Y-129435000D01*
X114038574Y-129379853D01*
X114299727Y-129271680D01*
X114534759Y-129114637D01*
X114734637Y-128914759D01*
X114891680Y-128679727D01*
X114999853Y-128418574D01*
X115055000Y-128141335D01*
X115055000Y-127858665D01*
X114999853Y-127581426D01*
X114891680Y-127320273D01*
X114734637Y-127085241D01*
X114534759Y-126885363D01*
X114299727Y-126728320D01*
X114038574Y-126620147D01*
X113761335Y-126565000D01*
X113478665Y-126565000D01*
X113201426Y-126620147D01*
X112940273Y-126728320D01*
X112705241Y-126885363D01*
X112505363Y-127085241D01*
X112348320Y-127320273D01*
X112240147Y-127581426D01*
X112185000Y-127858665D01*
X107438072Y-127858665D01*
X107438072Y-127200000D01*
X107425812Y-127075518D01*
X107389502Y-126955820D01*
X107330537Y-126845506D01*
X107251185Y-126748815D01*
X107154494Y-126669463D01*
X107044180Y-126610498D01*
X106924482Y-126574188D01*
X106800000Y-126561928D01*
X105200000Y-126561928D01*
X105075518Y-126574188D01*
X104955820Y-126610498D01*
X104845506Y-126669463D01*
X104748815Y-126748815D01*
X104669463Y-126845506D01*
X104610498Y-126955820D01*
X104574188Y-127075518D01*
X104561928Y-127200000D01*
X100627000Y-127200000D01*
X100627000Y-111975098D01*
X104205000Y-111975098D01*
X104205000Y-112444902D01*
X104296654Y-112905679D01*
X104476440Y-113339721D01*
X104737450Y-113730349D01*
X105069651Y-114062550D01*
X105460279Y-114323560D01*
X105894321Y-114503346D01*
X106355098Y-114595000D01*
X106824902Y-114595000D01*
X107285679Y-114503346D01*
X107719721Y-114323560D01*
X108110349Y-114062550D01*
X108442550Y-113730349D01*
X108703560Y-113339721D01*
X108883346Y-112905679D01*
X108975000Y-112444902D01*
X108975000Y-112318750D01*
X118661928Y-112318750D01*
X118661928Y-112806250D01*
X118678872Y-112978285D01*
X118729053Y-113143709D01*
X118810542Y-113296164D01*
X118920208Y-113429792D01*
X119053836Y-113539458D01*
X119206291Y-113620947D01*
X119371715Y-113671128D01*
X119543750Y-113688072D01*
X120456250Y-113688072D01*
X120628285Y-113671128D01*
X120793709Y-113620947D01*
X120946164Y-113539458D01*
X121079792Y-113429792D01*
X121167845Y-113322500D01*
X121827834Y-113322500D01*
X121798815Y-113346315D01*
X121719463Y-113443006D01*
X121660498Y-113553320D01*
X121624188Y-113673018D01*
X121611928Y-113797500D01*
X121611928Y-115702500D01*
X121624188Y-115826982D01*
X121660498Y-115946680D01*
X121719463Y-116056994D01*
X121798815Y-116153685D01*
X121895506Y-116233037D01*
X122005820Y-116292002D01*
X122125518Y-116328312D01*
X122250000Y-116340572D01*
X124250000Y-116340572D01*
X124374482Y-116328312D01*
X124494180Y-116292002D01*
X124604494Y-116233037D01*
X124701185Y-116153685D01*
X124780537Y-116056994D01*
X124839502Y-115946680D01*
X124875812Y-115826982D01*
X124888072Y-115702500D01*
X124888072Y-113797500D01*
X124875812Y-113673018D01*
X124839502Y-113553320D01*
X124832383Y-113540000D01*
X131158057Y-113540000D01*
X131185764Y-113821309D01*
X131267818Y-114091808D01*
X131401068Y-114341101D01*
X131580392Y-114559608D01*
X131798899Y-114738932D01*
X132048192Y-114872182D01*
X132318691Y-114954236D01*
X132529508Y-114975000D01*
X133470492Y-114975000D01*
X133681309Y-114954236D01*
X133951808Y-114872182D01*
X134201101Y-114738932D01*
X134419608Y-114559608D01*
X134598932Y-114341101D01*
X134732182Y-114091808D01*
X134814236Y-113821309D01*
X134841943Y-113540000D01*
X134814236Y-113258691D01*
X134732182Y-112988192D01*
X134598932Y-112738899D01*
X134419608Y-112520392D01*
X134306518Y-112427581D01*
X134324482Y-112425812D01*
X134444180Y-112389502D01*
X134554494Y-112330537D01*
X134651185Y-112251185D01*
X134730537Y-112154494D01*
X134789502Y-112044180D01*
X134825812Y-111924482D01*
X134838072Y-111800000D01*
X134838072Y-110200000D01*
X134825812Y-110075518D01*
X134789502Y-109955820D01*
X134730537Y-109845506D01*
X134651185Y-109748815D01*
X134554494Y-109669463D01*
X134444180Y-109610498D01*
X134324482Y-109574188D01*
X134200000Y-109561928D01*
X131800000Y-109561928D01*
X131675518Y-109574188D01*
X131555820Y-109610498D01*
X131445506Y-109669463D01*
X131348815Y-109748815D01*
X131269463Y-109845506D01*
X131210498Y-109955820D01*
X131174188Y-110075518D01*
X131161928Y-110200000D01*
X131161928Y-111800000D01*
X131174188Y-111924482D01*
X131210498Y-112044180D01*
X131269463Y-112154494D01*
X131348815Y-112251185D01*
X131445506Y-112330537D01*
X131555820Y-112389502D01*
X131675518Y-112425812D01*
X131693482Y-112427581D01*
X131580392Y-112520392D01*
X131401068Y-112738899D01*
X131267818Y-112988192D01*
X131185764Y-113258691D01*
X131158057Y-113540000D01*
X124832383Y-113540000D01*
X124780537Y-113443006D01*
X124701185Y-113346315D01*
X124604494Y-113266963D01*
X124520554Y-113222095D01*
X124623845Y-113096235D01*
X124771255Y-112820449D01*
X124862030Y-112521204D01*
X124892681Y-112210000D01*
X124862030Y-111898796D01*
X124771255Y-111599551D01*
X124623845Y-111323765D01*
X124425463Y-111082037D01*
X124252391Y-110940000D01*
X124425463Y-110797963D01*
X124623845Y-110556235D01*
X124691319Y-110430000D01*
X125006469Y-110430000D01*
X124979053Y-110481291D01*
X124928872Y-110646715D01*
X124911928Y-110818750D01*
X124911928Y-111306250D01*
X124928872Y-111478285D01*
X124979053Y-111643709D01*
X125060542Y-111796164D01*
X125170208Y-111929792D01*
X125303836Y-112039458D01*
X125456291Y-112120947D01*
X125621715Y-112171128D01*
X125793750Y-112188072D01*
X126706250Y-112188072D01*
X126878285Y-112171128D01*
X127043709Y-112120947D01*
X127196164Y-112039458D01*
X127329792Y-111929792D01*
X127439458Y-111796164D01*
X127520947Y-111643709D01*
X127571128Y-111478285D01*
X127588072Y-111306250D01*
X127588072Y-110818750D01*
X127571128Y-110646715D01*
X127520947Y-110481291D01*
X127439458Y-110328836D01*
X127329792Y-110195208D01*
X127196164Y-110085542D01*
X127043709Y-110004053D01*
X126962079Y-109979291D01*
X126955546Y-109957753D01*
X126944750Y-109937555D01*
X126950000Y-109938072D01*
X128550000Y-109938072D01*
X128674482Y-109925812D01*
X128794180Y-109889502D01*
X128904494Y-109830537D01*
X129001185Y-109751185D01*
X129080537Y-109654494D01*
X129139502Y-109544180D01*
X129175812Y-109424482D01*
X129188072Y-109300000D01*
X129188072Y-107700000D01*
X129175812Y-107575518D01*
X129139502Y-107455820D01*
X129080537Y-107345506D01*
X129001185Y-107248815D01*
X128904494Y-107169463D01*
X128794180Y-107110498D01*
X128674482Y-107074188D01*
X128550000Y-107061928D01*
X126950000Y-107061928D01*
X126825518Y-107074188D01*
X126705820Y-107110498D01*
X126595506Y-107169463D01*
X126498815Y-107248815D01*
X126419463Y-107345506D01*
X126360498Y-107455820D01*
X126324188Y-107575518D01*
X126311928Y-107700000D01*
X126311928Y-109237127D01*
X126233803Y-109159002D01*
X126210001Y-109129999D01*
X126094276Y-109035026D01*
X125962247Y-108964454D01*
X125818986Y-108920997D01*
X125707333Y-108910000D01*
X125707322Y-108910000D01*
X125670000Y-108906324D01*
X125632678Y-108910000D01*
X124691319Y-108910000D01*
X124623845Y-108783765D01*
X124425463Y-108542037D01*
X124183735Y-108343655D01*
X123907949Y-108196245D01*
X123608704Y-108105470D01*
X123375486Y-108082500D01*
X123124514Y-108082500D01*
X122891296Y-108105470D01*
X122592051Y-108196245D01*
X122316265Y-108343655D01*
X122074537Y-108542037D01*
X121876155Y-108783765D01*
X121728745Y-109059551D01*
X121637970Y-109358796D01*
X121607319Y-109670000D01*
X121637970Y-109981204D01*
X121728745Y-110280449D01*
X121876155Y-110556235D01*
X122074537Y-110797963D01*
X122247609Y-110940000D01*
X122074537Y-111082037D01*
X121876155Y-111323765D01*
X121728745Y-111599551D01*
X121667181Y-111802500D01*
X121167845Y-111802500D01*
X121079792Y-111695208D01*
X120946164Y-111585542D01*
X120793709Y-111504053D01*
X120628285Y-111453872D01*
X120456250Y-111436928D01*
X119543750Y-111436928D01*
X119371715Y-111453872D01*
X119206291Y-111504053D01*
X119053836Y-111585542D01*
X118920208Y-111695208D01*
X118810542Y-111828836D01*
X118729053Y-111981291D01*
X118678872Y-112146715D01*
X118661928Y-112318750D01*
X108975000Y-112318750D01*
X108975000Y-111975098D01*
X108883346Y-111514321D01*
X108703560Y-111080279D01*
X108442550Y-110689651D01*
X108110349Y-110357450D01*
X107719721Y-110096440D01*
X107285679Y-109916654D01*
X106824902Y-109825000D01*
X106355098Y-109825000D01*
X105894321Y-109916654D01*
X105460279Y-110096440D01*
X105069651Y-110357450D01*
X104737450Y-110689651D01*
X104476440Y-111080279D01*
X104296654Y-111514321D01*
X104205000Y-111975098D01*
X100627000Y-111975098D01*
X100627000Y-104804495D01*
X220515000Y-104804495D01*
X220515000Y-105195505D01*
X220591282Y-105579003D01*
X220740915Y-105940250D01*
X220958149Y-106265364D01*
X221234636Y-106541851D01*
X221559750Y-106759085D01*
X221920997Y-106908718D01*
X222304495Y-106985000D01*
X222695505Y-106985000D01*
X223079003Y-106908718D01*
X223440250Y-106759085D01*
X223765364Y-106541851D01*
X224041851Y-106265364D01*
X224259085Y-105940250D01*
X224408718Y-105579003D01*
X224485000Y-105195505D01*
X224485000Y-104804495D01*
X224408718Y-104420997D01*
X224259085Y-104059750D01*
X224041851Y-103734636D01*
X223765364Y-103458149D01*
X223440250Y-103240915D01*
X223079003Y-103091282D01*
X222695505Y-103015000D01*
X222304495Y-103015000D01*
X221920997Y-103091282D01*
X221559750Y-103240915D01*
X221234636Y-103458149D01*
X220958149Y-103734636D01*
X220740915Y-104059750D01*
X220591282Y-104420997D01*
X220515000Y-104804495D01*
X100627000Y-104804495D01*
X100627000Y-101107500D01*
X103254286Y-101107500D01*
X103254286Y-104027500D01*
X113245715Y-104027500D01*
X113245715Y-101107500D01*
X103254286Y-101107500D01*
X100627000Y-101107500D01*
X100627000Y-98508328D01*
X100640769Y-98403743D01*
X100677923Y-98314045D01*
X100737024Y-98237024D01*
X100814045Y-98177923D01*
X100903743Y-98140769D01*
X101008328Y-98127000D01*
X228491672Y-98127000D01*
X228596257Y-98140769D01*
M02*
