G04 #@! TF.GenerationSoftware,KiCad,Pcbnew,5.1.5*
G04 #@! TF.CreationDate,2020-04-11T15:37:30+02:00*
G04 #@! TF.ProjectId,h_bridge,685f6272-6964-4676-952e-6b696361645f,rev?*
G04 #@! TF.SameCoordinates,Original*
G04 #@! TF.FileFunction,Legend,Bot*
G04 #@! TF.FilePolarity,Positive*
%FSLAX46Y46*%
G04 Gerber Fmt 4.6, Leading zero omitted, Abs format (unit mm)*
G04 Created by KiCad (PCBNEW 5.1.5) date 2020-04-11 15:37:30*
%MOMM*%
%LPD*%
G04 APERTURE LIST*
%ADD10C,0.120000*%
%ADD11C,0.150000*%
G04 APERTURE END LIST*
D10*
X120710000Y-113241422D02*
X120710000Y-113758578D01*
X119290000Y-113241422D02*
X119290000Y-113758578D01*
X125540000Y-111741422D02*
X125540000Y-112258578D01*
X126960000Y-111741422D02*
X126960000Y-112258578D01*
X124460000Y-136741422D02*
X124460000Y-137258578D01*
X123040000Y-136741422D02*
X123040000Y-137258578D01*
X137960000Y-121508578D02*
X137960000Y-120991422D01*
X136540000Y-121508578D02*
X136540000Y-120991422D01*
X137960000Y-144258578D02*
X137960000Y-143741422D01*
X136540000Y-144258578D02*
X136540000Y-143741422D01*
X146210000Y-116741422D02*
X146210000Y-117258578D01*
X144790000Y-116741422D02*
X144790000Y-117258578D01*
X146210000Y-139491422D02*
X146210000Y-140008578D01*
X144790000Y-139491422D02*
X144790000Y-140008578D01*
D11*
X118707142Y-113333333D02*
X118754761Y-113285714D01*
X118802380Y-113142857D01*
X118802380Y-113047619D01*
X118754761Y-112904761D01*
X118659523Y-112809523D01*
X118564285Y-112761904D01*
X118373809Y-112714285D01*
X118230952Y-112714285D01*
X118040476Y-112761904D01*
X117945238Y-112809523D01*
X117850000Y-112904761D01*
X117802380Y-113047619D01*
X117802380Y-113142857D01*
X117850000Y-113285714D01*
X117897619Y-113333333D01*
X117802380Y-114190476D02*
X117802380Y-114000000D01*
X117850000Y-113904761D01*
X117897619Y-113857142D01*
X118040476Y-113761904D01*
X118230952Y-113714285D01*
X118611904Y-113714285D01*
X118707142Y-113761904D01*
X118754761Y-113809523D01*
X118802380Y-113904761D01*
X118802380Y-114095238D01*
X118754761Y-114190476D01*
X118707142Y-114238095D01*
X118611904Y-114285714D01*
X118373809Y-114285714D01*
X118278571Y-114238095D01*
X118230952Y-114190476D01*
X118183333Y-114095238D01*
X118183333Y-113904761D01*
X118230952Y-113809523D01*
X118278571Y-113761904D01*
X118373809Y-113714285D01*
X124957142Y-111833333D02*
X125004761Y-111785714D01*
X125052380Y-111642857D01*
X125052380Y-111547619D01*
X125004761Y-111404761D01*
X124909523Y-111309523D01*
X124814285Y-111261904D01*
X124623809Y-111214285D01*
X124480952Y-111214285D01*
X124290476Y-111261904D01*
X124195238Y-111309523D01*
X124100000Y-111404761D01*
X124052380Y-111547619D01*
X124052380Y-111642857D01*
X124100000Y-111785714D01*
X124147619Y-111833333D01*
X124052380Y-112166666D02*
X124052380Y-112785714D01*
X124433333Y-112452380D01*
X124433333Y-112595238D01*
X124480952Y-112690476D01*
X124528571Y-112738095D01*
X124623809Y-112785714D01*
X124861904Y-112785714D01*
X124957142Y-112738095D01*
X125004761Y-112690476D01*
X125052380Y-112595238D01*
X125052380Y-112309523D01*
X125004761Y-112214285D01*
X124957142Y-112166666D01*
X122457142Y-136833333D02*
X122504761Y-136785714D01*
X122552380Y-136642857D01*
X122552380Y-136547619D01*
X122504761Y-136404761D01*
X122409523Y-136309523D01*
X122314285Y-136261904D01*
X122123809Y-136214285D01*
X121980952Y-136214285D01*
X121790476Y-136261904D01*
X121695238Y-136309523D01*
X121600000Y-136404761D01*
X121552380Y-136547619D01*
X121552380Y-136642857D01*
X121600000Y-136785714D01*
X121647619Y-136833333D01*
X122552380Y-137785714D02*
X122552380Y-137214285D01*
X122552380Y-137500000D02*
X121552380Y-137500000D01*
X121695238Y-137404761D01*
X121790476Y-137309523D01*
X121838095Y-137214285D01*
X139257142Y-121083333D02*
X139304761Y-121035714D01*
X139352380Y-120892857D01*
X139352380Y-120797619D01*
X139304761Y-120654761D01*
X139209523Y-120559523D01*
X139114285Y-120511904D01*
X138923809Y-120464285D01*
X138780952Y-120464285D01*
X138590476Y-120511904D01*
X138495238Y-120559523D01*
X138400000Y-120654761D01*
X138352380Y-120797619D01*
X138352380Y-120892857D01*
X138400000Y-121035714D01*
X138447619Y-121083333D01*
X138685714Y-121940476D02*
X139352380Y-121940476D01*
X138304761Y-121702380D02*
X139019047Y-121464285D01*
X139019047Y-122083333D01*
X139257142Y-143833333D02*
X139304761Y-143785714D01*
X139352380Y-143642857D01*
X139352380Y-143547619D01*
X139304761Y-143404761D01*
X139209523Y-143309523D01*
X139114285Y-143261904D01*
X138923809Y-143214285D01*
X138780952Y-143214285D01*
X138590476Y-143261904D01*
X138495238Y-143309523D01*
X138400000Y-143404761D01*
X138352380Y-143547619D01*
X138352380Y-143642857D01*
X138400000Y-143785714D01*
X138447619Y-143833333D01*
X138352380Y-144738095D02*
X138352380Y-144261904D01*
X138828571Y-144214285D01*
X138780952Y-144261904D01*
X138733333Y-144357142D01*
X138733333Y-144595238D01*
X138780952Y-144690476D01*
X138828571Y-144738095D01*
X138923809Y-144785714D01*
X139161904Y-144785714D01*
X139257142Y-144738095D01*
X139304761Y-144690476D01*
X139352380Y-144595238D01*
X139352380Y-144357142D01*
X139304761Y-144261904D01*
X139257142Y-144214285D01*
X144207142Y-116357142D02*
X144254761Y-116309523D01*
X144302380Y-116166666D01*
X144302380Y-116071428D01*
X144254761Y-115928571D01*
X144159523Y-115833333D01*
X144064285Y-115785714D01*
X143873809Y-115738095D01*
X143730952Y-115738095D01*
X143540476Y-115785714D01*
X143445238Y-115833333D01*
X143350000Y-115928571D01*
X143302380Y-116071428D01*
X143302380Y-116166666D01*
X143350000Y-116309523D01*
X143397619Y-116357142D01*
X144302380Y-117309523D02*
X144302380Y-116738095D01*
X144302380Y-117023809D02*
X143302380Y-117023809D01*
X143445238Y-116928571D01*
X143540476Y-116833333D01*
X143588095Y-116738095D01*
X143302380Y-117928571D02*
X143302380Y-118023809D01*
X143350000Y-118119047D01*
X143397619Y-118166666D01*
X143492857Y-118214285D01*
X143683333Y-118261904D01*
X143921428Y-118261904D01*
X144111904Y-118214285D01*
X144207142Y-118166666D01*
X144254761Y-118119047D01*
X144302380Y-118023809D01*
X144302380Y-117928571D01*
X144254761Y-117833333D01*
X144207142Y-117785714D01*
X144111904Y-117738095D01*
X143921428Y-117690476D01*
X143683333Y-117690476D01*
X143492857Y-117738095D01*
X143397619Y-117785714D01*
X143350000Y-117833333D01*
X143302380Y-117928571D01*
X144207142Y-139107142D02*
X144254761Y-139059523D01*
X144302380Y-138916666D01*
X144302380Y-138821428D01*
X144254761Y-138678571D01*
X144159523Y-138583333D01*
X144064285Y-138535714D01*
X143873809Y-138488095D01*
X143730952Y-138488095D01*
X143540476Y-138535714D01*
X143445238Y-138583333D01*
X143350000Y-138678571D01*
X143302380Y-138821428D01*
X143302380Y-138916666D01*
X143350000Y-139059523D01*
X143397619Y-139107142D01*
X144302380Y-140059523D02*
X144302380Y-139488095D01*
X144302380Y-139773809D02*
X143302380Y-139773809D01*
X143445238Y-139678571D01*
X143540476Y-139583333D01*
X143588095Y-139488095D01*
X144302380Y-141011904D02*
X144302380Y-140440476D01*
X144302380Y-140726190D02*
X143302380Y-140726190D01*
X143445238Y-140630952D01*
X143540476Y-140535714D01*
X143588095Y-140440476D01*
M02*
