M48
; DRILL file {KiCad 5.1.5} date Sat 11 Apr 2020 03:37:38 PM CEST
; FORMAT={-:-/ absolute / inch / decimal}
; #@! TF.CreationDate,2020-04-11T15:37:38+02:00
; #@! TF.GenerationSoftware,Kicad,Pcbnew,5.1.5
; #@! TF.FileFunction,Plated,1,2,PTH
FMAT,2
INCH
T1C0.0157
T2C0.0315
T3C0.0394
T4C0.0433
T5C0.0630
T6C0.0984
%
G90
G05
T1
X4.0354Y-3.937
X4.0354Y-3.937
X4.0354Y-4.1339
X4.0354Y-4.7244
X4.0354Y-4.9213
X4.0354Y-5.1181
X4.0354Y-5.315
X4.0354Y-5.5118
X4.0354Y-5.7087
X4.0354Y-5.9055
X4.0354Y-6.1024
X4.2323Y-3.937
X4.2323Y-6.1024
X4.4291Y-3.937
X4.4291Y-6.1024
X4.5965Y-5.2264
X4.626Y-3.937
X4.626Y-6.1024
X4.8228Y-3.937
X4.8228Y-6.1024
X5.0197Y-3.937
X5.0197Y-6.1024
X5.2165Y-3.937
X5.2165Y-6.1024
X5.4134Y-3.937
X5.4134Y-6.1024
X5.4921Y-4.6555
X5.4921Y-4.6949
X5.4921Y-4.7343
X5.4921Y-4.7736
X5.6004Y-5.0787
X5.6102Y-3.937
X5.6102Y-6.1024
X5.8071Y-3.937
X5.8071Y-6.1024
X5.876Y-5.8858
X6.0039Y-3.937
X6.0039Y-6.1024
X6.2008Y-3.937
X6.2008Y-6.1024
X6.3976Y-3.937
X6.3976Y-6.1024
X6.5945Y-3.937
X6.5945Y-6.1024
X6.7913Y-3.937
X6.7913Y-6.1024
X6.9882Y-3.937
X6.9882Y-6.1024
X7.185Y-3.937
X7.185Y-6.1024
X7.3819Y-3.937
X7.3819Y-6.1024
X7.5787Y-3.937
X7.5787Y-6.1024
X7.7756Y-3.937
X7.7756Y-6.1024
X7.9724Y-3.937
X7.9724Y-6.1024
X8.1693Y-3.937
X8.1693Y-6.1024
X8.3661Y-3.937
X8.3661Y-6.1024
X8.563Y-3.937
X8.563Y-6.1024
X8.7598Y-3.937
X8.7598Y-6.1024
X8.8583Y-6.0039
X8.9567Y-3.937
X9.0551Y-6.0039
X9.1535Y-3.937
X9.1535Y-4.1339
X9.1535Y-4.3307
X9.1535Y-4.5276
X9.1535Y-4.7244
X9.1535Y-4.9213
X9.1535Y-5.1181
X9.1535Y-5.315
X9.1535Y-5.5118
X9.1535Y-5.7087
X9.1535Y-5.9055
T2
X4.1732Y-5.3445
X4.1732Y-5.4445
X4.4732Y-5.3445
X4.4732Y-5.4445
X4.7244Y-5.0886
X4.7244Y-5.1886
X4.7244Y-5.2886
X4.7244Y-5.3886
X4.7244Y-5.4886
X4.7244Y-5.5886
X4.7244Y-5.6886
X5.0244Y-5.0886
X5.0244Y-5.1886
X5.0244Y-5.2886
X5.0244Y-5.3886
X5.0244Y-5.4886
X5.0244Y-5.5886
X5.0244Y-5.6886
X5.0295Y-4.1732
X5.0295Y-4.2717
X5.2953Y-5.2657
X5.2953Y-5.3657
X5.2953Y-5.4657
X5.2953Y-5.5657
X5.2953Y-5.6657
X5.2953Y-5.7657
X5.2953Y-5.8657
X5.5953Y-5.2657
X5.5953Y-5.3657
X5.5953Y-5.4657
X5.5953Y-5.5657
X5.5953Y-5.6657
X5.5953Y-5.7657
X5.5953Y-5.8657
X4.8819Y-4.7441
X4.9803Y-4.7441
X5.2953Y-4.3701
X5.2953Y-4.4701
X5.2953Y-4.5701
X5.2953Y-4.6701
X5.2953Y-4.7701
X5.2953Y-4.8701
X5.2953Y-4.9701
X5.5953Y-4.3701
X5.5953Y-4.4701
X5.5953Y-4.5701
X5.5953Y-4.6701
X5.5953Y-4.7701
X5.5953Y-4.8701
X5.5953Y-4.9701
X4.1732Y-5.0886
X4.1732Y-5.1886
X4.4732Y-5.0886
X4.4732Y-5.1886
T3
X8.2382Y-4.5276
X8.6319Y-4.5276
X4.7146Y-4.713
X4.7146Y-4.813
X4.1535Y-5.8169
X4.2535Y-5.8169
X4.3535Y-5.8169
X4.4535Y-5.8169
X8.3169Y-4.872
X8.5138Y-4.872
X8.3169Y-5.3248
X8.5138Y-5.3248
X8.2382Y-5.6693
X8.6319Y-5.6693
T4
X6.6339Y-5.6102
X6.7339Y-5.6102
X6.8339Y-5.6102
X7.3622Y-5.6102
X7.4622Y-5.6102
X7.5622Y-5.6102
X4.8524Y-4.3177
X4.8524Y-4.4177
X4.8524Y-4.5177
X6.2075Y-4.5866
X6.3075Y-4.5866
X6.4075Y-4.5866
X6.2106Y-5.6102
X6.3106Y-5.6102
X6.4106Y-5.6102
X5.7283Y-5.3642
X5.7283Y-5.7642
X7.7823Y-4.5866
X7.8823Y-4.5866
X7.9823Y-4.5866
X7.3591Y-4.5866
X7.4591Y-4.5866
X7.5591Y-4.5866
X7.7854Y-5.6102
X7.8854Y-5.6102
X7.9854Y-5.6102
X5.7283Y-4.4685
X5.7283Y-4.8685
X6.6307Y-4.5866
X6.7307Y-4.5866
X6.8307Y-4.5866
T5
X6.1043Y-4.9508
X6.6043Y-4.9508
X7.5413Y-4.9508
X8.0413Y-4.9508
X6.1043Y-5.2461
X6.6043Y-5.2461
X7.5413Y-5.2461
X8.0413Y-5.2461
T6
X7.2146Y-4.9508
X7.2146Y-5.2508
X8.8681Y-5.0933
X8.8681Y-5.3933
T0
M30
