G04 #@! TF.GenerationSoftware,KiCad,Pcbnew,5.1.5*
G04 #@! TF.CreationDate,2020-04-12T13:11:47+02:00*
G04 #@! TF.ProjectId,h_bridge,685f6272-6964-4676-952e-6b696361645f,rev?*
G04 #@! TF.SameCoordinates,Original*
G04 #@! TF.FileFunction,Soldermask,Top*
G04 #@! TF.FilePolarity,Negative*
%FSLAX46Y46*%
G04 Gerber Fmt 4.6, Leading zero omitted, Abs format (unit mm)*
G04 Created by KiCad (PCBNEW 5.1.5) date 2020-04-12 13:11:47*
%MOMM*%
%LPD*%
G04 APERTURE LIST*
%ADD10C,0.100000*%
G04 APERTURE END LIST*
D10*
G36*
X222778060Y-148626862D02*
G01*
X222908657Y-148652839D01*
X222939300Y-148665532D01*
X223163621Y-148758449D01*
X223163622Y-148758450D01*
X223393086Y-148911772D01*
X223588228Y-149106914D01*
X223640261Y-149184788D01*
X223741551Y-149336379D01*
X223745464Y-149345826D01*
X223847161Y-149591343D01*
X223865107Y-149681567D01*
X223901000Y-149862012D01*
X223901000Y-150137988D01*
X223847161Y-150408656D01*
X223741551Y-150663621D01*
X223741550Y-150663622D01*
X223588228Y-150893086D01*
X223393086Y-151088228D01*
X223278162Y-151165017D01*
X223163621Y-151241551D01*
X223014267Y-151303415D01*
X222908657Y-151347161D01*
X222818433Y-151365107D01*
X222637988Y-151401000D01*
X222362012Y-151401000D01*
X222181567Y-151365107D01*
X222091343Y-151347161D01*
X221985733Y-151303415D01*
X221836379Y-151241551D01*
X221721838Y-151165017D01*
X221606914Y-151088228D01*
X221411772Y-150893086D01*
X221258450Y-150663622D01*
X221258449Y-150663621D01*
X221152839Y-150408656D01*
X221099000Y-150137988D01*
X221099000Y-149862012D01*
X221134893Y-149681567D01*
X221152839Y-149591343D01*
X221254536Y-149345826D01*
X221258449Y-149336379D01*
X221359739Y-149184788D01*
X221411772Y-149106914D01*
X221606914Y-148911772D01*
X221836378Y-148758450D01*
X221836379Y-148758449D01*
X222060700Y-148665532D01*
X222091343Y-148652839D01*
X222221940Y-148626862D01*
X222362012Y-148599000D01*
X222637988Y-148599000D01*
X222778060Y-148626862D01*
G37*
G36*
X127778060Y-148626862D02*
G01*
X127908657Y-148652839D01*
X127939300Y-148665532D01*
X128163621Y-148758449D01*
X128163622Y-148758450D01*
X128393086Y-148911772D01*
X128588228Y-149106914D01*
X128640261Y-149184788D01*
X128741551Y-149336379D01*
X128745464Y-149345826D01*
X128847161Y-149591343D01*
X128865107Y-149681567D01*
X128901000Y-149862012D01*
X128901000Y-150137988D01*
X128847161Y-150408656D01*
X128741551Y-150663621D01*
X128741550Y-150663622D01*
X128588228Y-150893086D01*
X128393086Y-151088228D01*
X128278162Y-151165017D01*
X128163621Y-151241551D01*
X128014267Y-151303415D01*
X127908657Y-151347161D01*
X127818433Y-151365107D01*
X127637988Y-151401000D01*
X127362012Y-151401000D01*
X127181567Y-151365107D01*
X127091343Y-151347161D01*
X126985733Y-151303415D01*
X126836379Y-151241551D01*
X126721838Y-151165017D01*
X126606914Y-151088228D01*
X126411772Y-150893086D01*
X126258450Y-150663622D01*
X126258449Y-150663621D01*
X126152839Y-150408656D01*
X126099000Y-150137988D01*
X126099000Y-149862012D01*
X126134893Y-149681567D01*
X126152839Y-149591343D01*
X126254536Y-149345826D01*
X126258449Y-149336379D01*
X126359739Y-149184788D01*
X126411772Y-149106914D01*
X126606914Y-148911772D01*
X126836378Y-148758450D01*
X126836379Y-148758449D01*
X127060700Y-148665532D01*
X127091343Y-148652839D01*
X127221940Y-148626862D01*
X127362012Y-148599000D01*
X127637988Y-148599000D01*
X127778060Y-148626862D01*
G37*
G36*
X144584468Y-150153565D02*
G01*
X144623138Y-150165296D01*
X144658777Y-150184346D01*
X144690017Y-150209983D01*
X144715654Y-150241223D01*
X144734704Y-150276862D01*
X144746435Y-150315532D01*
X144751000Y-150361888D01*
X144751000Y-151013112D01*
X144746435Y-151059468D01*
X144734704Y-151098138D01*
X144715654Y-151133777D01*
X144690017Y-151165017D01*
X144658777Y-151190654D01*
X144623138Y-151209704D01*
X144584468Y-151221435D01*
X144538112Y-151226000D01*
X143461888Y-151226000D01*
X143415532Y-151221435D01*
X143376862Y-151209704D01*
X143341223Y-151190654D01*
X143309983Y-151165017D01*
X143284346Y-151133777D01*
X143265296Y-151098138D01*
X143253565Y-151059468D01*
X143249000Y-151013112D01*
X143249000Y-150361888D01*
X143253565Y-150315532D01*
X143265296Y-150276862D01*
X143284346Y-150241223D01*
X143309983Y-150209983D01*
X143341223Y-150184346D01*
X143376862Y-150165296D01*
X143415532Y-150153565D01*
X143461888Y-150149000D01*
X144538112Y-150149000D01*
X144584468Y-150153565D01*
G37*
G36*
X191184468Y-148503565D02*
G01*
X191223138Y-148515296D01*
X191258777Y-148534346D01*
X191290017Y-148559983D01*
X191315654Y-148591223D01*
X191334704Y-148626862D01*
X191346435Y-148665532D01*
X191351000Y-148711888D01*
X191351000Y-149788112D01*
X191346435Y-149834468D01*
X191334704Y-149873138D01*
X191315654Y-149908777D01*
X191290017Y-149940017D01*
X191258777Y-149965654D01*
X191223138Y-149984704D01*
X191184468Y-149996435D01*
X191138112Y-150001000D01*
X190486888Y-150001000D01*
X190440532Y-149996435D01*
X190401862Y-149984704D01*
X190366223Y-149965654D01*
X190334983Y-149940017D01*
X190309346Y-149908777D01*
X190290296Y-149873138D01*
X190278565Y-149834468D01*
X190274000Y-149788112D01*
X190274000Y-148711888D01*
X190278565Y-148665532D01*
X190290296Y-148626862D01*
X190309346Y-148591223D01*
X190334983Y-148559983D01*
X190366223Y-148534346D01*
X190401862Y-148515296D01*
X190440532Y-148503565D01*
X190486888Y-148499000D01*
X191138112Y-148499000D01*
X191184468Y-148503565D01*
G37*
G36*
X184309468Y-148503565D02*
G01*
X184348138Y-148515296D01*
X184383777Y-148534346D01*
X184415017Y-148559983D01*
X184440654Y-148591223D01*
X184459704Y-148626862D01*
X184471435Y-148665532D01*
X184476000Y-148711888D01*
X184476000Y-149788112D01*
X184471435Y-149834468D01*
X184459704Y-149873138D01*
X184440654Y-149908777D01*
X184415017Y-149940017D01*
X184383777Y-149965654D01*
X184348138Y-149984704D01*
X184309468Y-149996435D01*
X184263112Y-150001000D01*
X183611888Y-150001000D01*
X183565532Y-149996435D01*
X183526862Y-149984704D01*
X183491223Y-149965654D01*
X183459983Y-149940017D01*
X183434346Y-149908777D01*
X183415296Y-149873138D01*
X183403565Y-149834468D01*
X183399000Y-149788112D01*
X183399000Y-148711888D01*
X183403565Y-148665532D01*
X183415296Y-148626862D01*
X183434346Y-148591223D01*
X183459983Y-148559983D01*
X183491223Y-148534346D01*
X183526862Y-148515296D01*
X183565532Y-148503565D01*
X183611888Y-148499000D01*
X184263112Y-148499000D01*
X184309468Y-148503565D01*
G37*
G36*
X182434468Y-148503565D02*
G01*
X182473138Y-148515296D01*
X182508777Y-148534346D01*
X182540017Y-148559983D01*
X182565654Y-148591223D01*
X182584704Y-148626862D01*
X182596435Y-148665532D01*
X182601000Y-148711888D01*
X182601000Y-149788112D01*
X182596435Y-149834468D01*
X182584704Y-149873138D01*
X182565654Y-149908777D01*
X182540017Y-149940017D01*
X182508777Y-149965654D01*
X182473138Y-149984704D01*
X182434468Y-149996435D01*
X182388112Y-150001000D01*
X181736888Y-150001000D01*
X181690532Y-149996435D01*
X181651862Y-149984704D01*
X181616223Y-149965654D01*
X181584983Y-149940017D01*
X181559346Y-149908777D01*
X181540296Y-149873138D01*
X181528565Y-149834468D01*
X181524000Y-149788112D01*
X181524000Y-148711888D01*
X181528565Y-148665532D01*
X181540296Y-148626862D01*
X181559346Y-148591223D01*
X181584983Y-148559983D01*
X181616223Y-148534346D01*
X181651862Y-148515296D01*
X181690532Y-148503565D01*
X181736888Y-148499000D01*
X182388112Y-148499000D01*
X182434468Y-148503565D01*
G37*
G36*
X154621968Y-148503565D02*
G01*
X154660638Y-148515296D01*
X154696277Y-148534346D01*
X154727517Y-148559983D01*
X154753154Y-148591223D01*
X154772204Y-148626862D01*
X154783935Y-148665532D01*
X154788500Y-148711888D01*
X154788500Y-149788112D01*
X154783935Y-149834468D01*
X154772204Y-149873138D01*
X154753154Y-149908777D01*
X154727517Y-149940017D01*
X154696277Y-149965654D01*
X154660638Y-149984704D01*
X154621968Y-149996435D01*
X154575612Y-150001000D01*
X153924388Y-150001000D01*
X153878032Y-149996435D01*
X153839362Y-149984704D01*
X153803723Y-149965654D01*
X153772483Y-149940017D01*
X153746846Y-149908777D01*
X153727796Y-149873138D01*
X153716065Y-149834468D01*
X153711500Y-149788112D01*
X153711500Y-148711888D01*
X153716065Y-148665532D01*
X153727796Y-148626862D01*
X153746846Y-148591223D01*
X153772483Y-148559983D01*
X153803723Y-148534346D01*
X153839362Y-148515296D01*
X153878032Y-148503565D01*
X153924388Y-148499000D01*
X154575612Y-148499000D01*
X154621968Y-148503565D01*
G37*
G36*
X163309468Y-148503565D02*
G01*
X163348138Y-148515296D01*
X163383777Y-148534346D01*
X163415017Y-148559983D01*
X163440654Y-148591223D01*
X163459704Y-148626862D01*
X163471435Y-148665532D01*
X163476000Y-148711888D01*
X163476000Y-149788112D01*
X163471435Y-149834468D01*
X163459704Y-149873138D01*
X163440654Y-149908777D01*
X163415017Y-149940017D01*
X163383777Y-149965654D01*
X163348138Y-149984704D01*
X163309468Y-149996435D01*
X163263112Y-150001000D01*
X162611888Y-150001000D01*
X162565532Y-149996435D01*
X162526862Y-149984704D01*
X162491223Y-149965654D01*
X162459983Y-149940017D01*
X162434346Y-149908777D01*
X162415296Y-149873138D01*
X162403565Y-149834468D01*
X162399000Y-149788112D01*
X162399000Y-148711888D01*
X162403565Y-148665532D01*
X162415296Y-148626862D01*
X162434346Y-148591223D01*
X162459983Y-148559983D01*
X162491223Y-148534346D01*
X162526862Y-148515296D01*
X162565532Y-148503565D01*
X162611888Y-148499000D01*
X163263112Y-148499000D01*
X163309468Y-148503565D01*
G37*
G36*
X161434468Y-148503565D02*
G01*
X161473138Y-148515296D01*
X161508777Y-148534346D01*
X161540017Y-148559983D01*
X161565654Y-148591223D01*
X161584704Y-148626862D01*
X161596435Y-148665532D01*
X161601000Y-148711888D01*
X161601000Y-149788112D01*
X161596435Y-149834468D01*
X161584704Y-149873138D01*
X161565654Y-149908777D01*
X161540017Y-149940017D01*
X161508777Y-149965654D01*
X161473138Y-149984704D01*
X161434468Y-149996435D01*
X161388112Y-150001000D01*
X160736888Y-150001000D01*
X160690532Y-149996435D01*
X160651862Y-149984704D01*
X160616223Y-149965654D01*
X160584983Y-149940017D01*
X160559346Y-149908777D01*
X160540296Y-149873138D01*
X160528565Y-149834468D01*
X160524000Y-149788112D01*
X160524000Y-148711888D01*
X160528565Y-148665532D01*
X160540296Y-148626862D01*
X160559346Y-148591223D01*
X160584983Y-148559983D01*
X160616223Y-148534346D01*
X160651862Y-148515296D01*
X160690532Y-148503565D01*
X160736888Y-148499000D01*
X161388112Y-148499000D01*
X161434468Y-148503565D01*
G37*
G36*
X193059468Y-148503565D02*
G01*
X193098138Y-148515296D01*
X193133777Y-148534346D01*
X193165017Y-148559983D01*
X193190654Y-148591223D01*
X193209704Y-148626862D01*
X193221435Y-148665532D01*
X193226000Y-148711888D01*
X193226000Y-149788112D01*
X193221435Y-149834468D01*
X193209704Y-149873138D01*
X193190654Y-149908777D01*
X193165017Y-149940017D01*
X193133777Y-149965654D01*
X193098138Y-149984704D01*
X193059468Y-149996435D01*
X193013112Y-150001000D01*
X192361888Y-150001000D01*
X192315532Y-149996435D01*
X192276862Y-149984704D01*
X192241223Y-149965654D01*
X192209983Y-149940017D01*
X192184346Y-149908777D01*
X192165296Y-149873138D01*
X192153565Y-149834468D01*
X192149000Y-149788112D01*
X192149000Y-148711888D01*
X192153565Y-148665532D01*
X192165296Y-148626862D01*
X192184346Y-148591223D01*
X192209983Y-148559983D01*
X192241223Y-148534346D01*
X192276862Y-148515296D01*
X192315532Y-148503565D01*
X192361888Y-148499000D01*
X193013112Y-148499000D01*
X193059468Y-148503565D01*
G37*
G36*
X152746968Y-148503565D02*
G01*
X152785638Y-148515296D01*
X152821277Y-148534346D01*
X152852517Y-148559983D01*
X152878154Y-148591223D01*
X152897204Y-148626862D01*
X152908935Y-148665532D01*
X152913500Y-148711888D01*
X152913500Y-149788112D01*
X152908935Y-149834468D01*
X152897204Y-149873138D01*
X152878154Y-149908777D01*
X152852517Y-149940017D01*
X152821277Y-149965654D01*
X152785638Y-149984704D01*
X152746968Y-149996435D01*
X152700612Y-150001000D01*
X152049388Y-150001000D01*
X152003032Y-149996435D01*
X151964362Y-149984704D01*
X151928723Y-149965654D01*
X151897483Y-149940017D01*
X151871846Y-149908777D01*
X151852796Y-149873138D01*
X151841065Y-149834468D01*
X151836500Y-149788112D01*
X151836500Y-148711888D01*
X151841065Y-148665532D01*
X151852796Y-148626862D01*
X151871846Y-148591223D01*
X151897483Y-148559983D01*
X151928723Y-148534346D01*
X151964362Y-148515296D01*
X152003032Y-148503565D01*
X152049388Y-148499000D01*
X152700612Y-148499000D01*
X152746968Y-148503565D01*
G37*
G36*
X133566823Y-148151313D02*
G01*
X133727242Y-148199976D01*
X133859906Y-148270886D01*
X133875078Y-148278996D01*
X134004659Y-148385341D01*
X134111004Y-148514922D01*
X134111005Y-148514924D01*
X134190024Y-148662758D01*
X134190025Y-148662761D01*
X134199083Y-148692620D01*
X134238687Y-148823177D01*
X134255117Y-148990000D01*
X134238687Y-149156823D01*
X134190024Y-149317242D01*
X134174420Y-149346435D01*
X134111004Y-149465078D01*
X134004659Y-149594659D01*
X133875078Y-149701004D01*
X133875076Y-149701005D01*
X133727242Y-149780024D01*
X133566823Y-149828687D01*
X133441804Y-149841000D01*
X132558196Y-149841000D01*
X132433177Y-149828687D01*
X132272758Y-149780024D01*
X132124924Y-149701005D01*
X132124922Y-149701004D01*
X131995341Y-149594659D01*
X131888996Y-149465078D01*
X131825580Y-149346435D01*
X131809976Y-149317242D01*
X131761313Y-149156823D01*
X131744883Y-148990000D01*
X131761313Y-148823177D01*
X131800917Y-148692620D01*
X131809975Y-148662761D01*
X131809976Y-148662758D01*
X131888995Y-148514924D01*
X131888996Y-148514922D01*
X131995341Y-148385341D01*
X132124922Y-148278996D01*
X132140094Y-148270886D01*
X132272758Y-148199976D01*
X132433177Y-148151313D01*
X132558196Y-148139000D01*
X133441804Y-148139000D01*
X133566823Y-148151313D01*
G37*
G36*
X141186823Y-148151313D02*
G01*
X141347242Y-148199976D01*
X141479906Y-148270886D01*
X141495078Y-148278996D01*
X141624659Y-148385341D01*
X141731004Y-148514922D01*
X141731005Y-148514924D01*
X141810024Y-148662758D01*
X141810025Y-148662761D01*
X141819083Y-148692620D01*
X141858687Y-148823177D01*
X141875117Y-148990000D01*
X141858687Y-149156823D01*
X141810024Y-149317242D01*
X141794420Y-149346435D01*
X141731004Y-149465078D01*
X141624659Y-149594659D01*
X141495078Y-149701004D01*
X141495076Y-149701005D01*
X141347242Y-149780024D01*
X141186823Y-149828687D01*
X141061804Y-149841000D01*
X140178196Y-149841000D01*
X140053177Y-149828687D01*
X139892758Y-149780024D01*
X139744924Y-149701005D01*
X139744922Y-149701004D01*
X139615341Y-149594659D01*
X139508996Y-149465078D01*
X139445580Y-149346435D01*
X139429976Y-149317242D01*
X139381313Y-149156823D01*
X139364883Y-148990000D01*
X139381313Y-148823177D01*
X139420917Y-148692620D01*
X139429975Y-148662761D01*
X139429976Y-148662758D01*
X139508995Y-148514924D01*
X139508996Y-148514922D01*
X139615341Y-148385341D01*
X139744922Y-148278996D01*
X139760094Y-148270886D01*
X139892758Y-148199976D01*
X140053177Y-148151313D01*
X140178196Y-148139000D01*
X141061804Y-148139000D01*
X141186823Y-148151313D01*
G37*
G36*
X144584468Y-148278565D02*
G01*
X144623138Y-148290296D01*
X144658777Y-148309346D01*
X144690017Y-148334983D01*
X144715654Y-148366223D01*
X144734704Y-148401862D01*
X144746435Y-148440532D01*
X144751000Y-148486888D01*
X144751000Y-149138112D01*
X144746435Y-149184468D01*
X144734704Y-149223138D01*
X144715654Y-149258777D01*
X144690017Y-149290017D01*
X144658777Y-149315654D01*
X144623138Y-149334704D01*
X144584468Y-149346435D01*
X144538112Y-149351000D01*
X143461888Y-149351000D01*
X143415532Y-149346435D01*
X143376862Y-149334704D01*
X143341223Y-149315654D01*
X143309983Y-149290017D01*
X143284346Y-149258777D01*
X143265296Y-149223138D01*
X143253565Y-149184468D01*
X143249000Y-149138112D01*
X143249000Y-148486888D01*
X143253565Y-148440532D01*
X143265296Y-148401862D01*
X143284346Y-148366223D01*
X143309983Y-148334983D01*
X143341223Y-148309346D01*
X143376862Y-148290296D01*
X143415532Y-148278565D01*
X143461888Y-148274000D01*
X144538112Y-148274000D01*
X144584468Y-148278565D01*
G37*
G36*
X106401000Y-148651000D02*
G01*
X104599000Y-148651000D01*
X104599000Y-146849000D01*
X106401000Y-146849000D01*
X106401000Y-148651000D01*
G37*
G36*
X113233512Y-146853927D02*
G01*
X113382812Y-146883624D01*
X113546784Y-146951544D01*
X113694354Y-147050147D01*
X113819853Y-147175646D01*
X113918456Y-147323216D01*
X113986376Y-147487188D01*
X114021000Y-147661259D01*
X114021000Y-147838741D01*
X113986376Y-148012812D01*
X113918456Y-148176784D01*
X113819853Y-148324354D01*
X113694354Y-148449853D01*
X113546784Y-148548456D01*
X113382812Y-148616376D01*
X113233512Y-148646073D01*
X113208742Y-148651000D01*
X113031258Y-148651000D01*
X113006488Y-148646073D01*
X112857188Y-148616376D01*
X112693216Y-148548456D01*
X112545646Y-148449853D01*
X112420147Y-148324354D01*
X112321544Y-148176784D01*
X112253624Y-148012812D01*
X112219000Y-147838741D01*
X112219000Y-147661259D01*
X112253624Y-147487188D01*
X112321544Y-147323216D01*
X112420147Y-147175646D01*
X112545646Y-147050147D01*
X112693216Y-146951544D01*
X112857188Y-146883624D01*
X113006488Y-146853927D01*
X113031258Y-146849000D01*
X113208742Y-146849000D01*
X113233512Y-146853927D01*
G37*
G36*
X110693512Y-146853927D02*
G01*
X110842812Y-146883624D01*
X111006784Y-146951544D01*
X111154354Y-147050147D01*
X111279853Y-147175646D01*
X111378456Y-147323216D01*
X111446376Y-147487188D01*
X111481000Y-147661259D01*
X111481000Y-147838741D01*
X111446376Y-148012812D01*
X111378456Y-148176784D01*
X111279853Y-148324354D01*
X111154354Y-148449853D01*
X111006784Y-148548456D01*
X110842812Y-148616376D01*
X110693512Y-148646073D01*
X110668742Y-148651000D01*
X110491258Y-148651000D01*
X110466488Y-148646073D01*
X110317188Y-148616376D01*
X110153216Y-148548456D01*
X110005646Y-148449853D01*
X109880147Y-148324354D01*
X109781544Y-148176784D01*
X109713624Y-148012812D01*
X109679000Y-147838741D01*
X109679000Y-147661259D01*
X109713624Y-147487188D01*
X109781544Y-147323216D01*
X109880147Y-147175646D01*
X110005646Y-147050147D01*
X110153216Y-146951544D01*
X110317188Y-146883624D01*
X110466488Y-146853927D01*
X110491258Y-146849000D01*
X110668742Y-146849000D01*
X110693512Y-146853927D01*
G37*
G36*
X108153512Y-146853927D02*
G01*
X108302812Y-146883624D01*
X108466784Y-146951544D01*
X108614354Y-147050147D01*
X108739853Y-147175646D01*
X108838456Y-147323216D01*
X108906376Y-147487188D01*
X108941000Y-147661259D01*
X108941000Y-147838741D01*
X108906376Y-148012812D01*
X108838456Y-148176784D01*
X108739853Y-148324354D01*
X108614354Y-148449853D01*
X108466784Y-148548456D01*
X108302812Y-148616376D01*
X108153512Y-148646073D01*
X108128742Y-148651000D01*
X107951258Y-148651000D01*
X107926488Y-148646073D01*
X107777188Y-148616376D01*
X107613216Y-148548456D01*
X107465646Y-148449853D01*
X107340147Y-148324354D01*
X107241544Y-148176784D01*
X107173624Y-148012812D01*
X107139000Y-147838741D01*
X107139000Y-147661259D01*
X107173624Y-147487188D01*
X107241544Y-147323216D01*
X107340147Y-147175646D01*
X107465646Y-147050147D01*
X107613216Y-146951544D01*
X107777188Y-146883624D01*
X107926488Y-146853927D01*
X107951258Y-146849000D01*
X108128742Y-146849000D01*
X108153512Y-146853927D01*
G37*
G36*
X144219059Y-145280024D02*
G01*
X144335734Y-145303232D01*
X144545203Y-145389997D01*
X144733720Y-145515960D01*
X144894040Y-145676280D01*
X145020003Y-145864797D01*
X145103601Y-146066619D01*
X145106768Y-146074267D01*
X145148323Y-146283175D01*
X145151000Y-146296636D01*
X145151000Y-146523364D01*
X145107070Y-146744218D01*
X145106768Y-146745733D01*
X145029043Y-146933380D01*
X145020003Y-146955203D01*
X144894040Y-147143720D01*
X144733720Y-147304040D01*
X144545203Y-147430003D01*
X144335734Y-147516768D01*
X144236635Y-147536480D01*
X144113365Y-147561000D01*
X143886635Y-147561000D01*
X143763365Y-147536480D01*
X143664266Y-147516768D01*
X143454797Y-147430003D01*
X143266280Y-147304040D01*
X143105960Y-147143720D01*
X142979997Y-146955203D01*
X142970958Y-146933380D01*
X142893232Y-146745733D01*
X142892931Y-146744218D01*
X142849000Y-146523364D01*
X142849000Y-146296636D01*
X142851678Y-146283175D01*
X142893232Y-146074267D01*
X142896400Y-146066619D01*
X142979997Y-145864797D01*
X143105960Y-145676280D01*
X143266280Y-145515960D01*
X143454797Y-145389997D01*
X143664266Y-145303232D01*
X143780941Y-145280024D01*
X143886635Y-145259000D01*
X144113365Y-145259000D01*
X144219059Y-145280024D01*
G37*
G36*
X187276719Y-145463520D02*
G01*
X187465880Y-145520901D01*
X187465883Y-145520902D01*
X187558333Y-145570318D01*
X187640212Y-145614083D01*
X187793015Y-145739485D01*
X187918417Y-145892288D01*
X188011599Y-146066619D01*
X188068980Y-146255780D01*
X188083500Y-146403206D01*
X188083500Y-146596793D01*
X188068980Y-146744219D01*
X188037195Y-146849000D01*
X188011598Y-146933383D01*
X187962182Y-147025833D01*
X187918417Y-147107712D01*
X187793015Y-147260515D01*
X187640212Y-147385917D01*
X187465881Y-147479099D01*
X187276720Y-147536480D01*
X187080000Y-147555855D01*
X186883281Y-147536480D01*
X186694120Y-147479099D01*
X186519788Y-147385917D01*
X186366985Y-147260515D01*
X186241583Y-147107712D01*
X186148401Y-146933381D01*
X186091020Y-146744220D01*
X186076500Y-146596794D01*
X186076500Y-146403207D01*
X186091020Y-146255781D01*
X186148401Y-146066620D01*
X186148402Y-146066617D01*
X186197818Y-145974167D01*
X186241583Y-145892288D01*
X186366985Y-145739485D01*
X186519788Y-145614083D01*
X186694119Y-145520901D01*
X186883280Y-145463520D01*
X187080000Y-145444145D01*
X187276719Y-145463520D01*
G37*
G36*
X198026719Y-145463520D02*
G01*
X198215880Y-145520901D01*
X198215883Y-145520902D01*
X198308333Y-145570318D01*
X198390212Y-145614083D01*
X198543015Y-145739485D01*
X198668417Y-145892288D01*
X198761599Y-146066619D01*
X198818980Y-146255780D01*
X198833500Y-146403206D01*
X198833500Y-146596793D01*
X198818980Y-146744219D01*
X198787195Y-146849000D01*
X198761598Y-146933383D01*
X198712182Y-147025833D01*
X198668417Y-147107712D01*
X198543015Y-147260515D01*
X198390212Y-147385917D01*
X198215881Y-147479099D01*
X198026720Y-147536480D01*
X197830000Y-147555855D01*
X197633281Y-147536480D01*
X197444120Y-147479099D01*
X197269788Y-147385917D01*
X197116985Y-147260515D01*
X196991583Y-147107712D01*
X196898401Y-146933381D01*
X196841020Y-146744220D01*
X196826500Y-146596794D01*
X196826500Y-146403207D01*
X196841020Y-146255781D01*
X196898401Y-146066620D01*
X196898402Y-146066617D01*
X196947818Y-145974167D01*
X196991583Y-145892288D01*
X197116985Y-145739485D01*
X197269788Y-145614083D01*
X197444119Y-145520901D01*
X197633280Y-145463520D01*
X197830000Y-145444145D01*
X198026719Y-145463520D01*
G37*
G36*
X168276719Y-145463520D02*
G01*
X168465880Y-145520901D01*
X168465883Y-145520902D01*
X168558333Y-145570318D01*
X168640212Y-145614083D01*
X168793015Y-145739485D01*
X168918417Y-145892288D01*
X169011599Y-146066619D01*
X169068980Y-146255780D01*
X169083500Y-146403206D01*
X169083500Y-146596793D01*
X169068980Y-146744219D01*
X169037195Y-146849000D01*
X169011598Y-146933383D01*
X168962182Y-147025833D01*
X168918417Y-147107712D01*
X168793015Y-147260515D01*
X168640212Y-147385917D01*
X168465881Y-147479099D01*
X168276720Y-147536480D01*
X168080000Y-147555855D01*
X167883281Y-147536480D01*
X167694120Y-147479099D01*
X167519788Y-147385917D01*
X167366985Y-147260515D01*
X167241583Y-147107712D01*
X167148401Y-146933381D01*
X167091020Y-146744220D01*
X167076500Y-146596794D01*
X167076500Y-146403207D01*
X167091020Y-146255781D01*
X167148401Y-146066620D01*
X167148402Y-146066617D01*
X167197818Y-145974167D01*
X167241583Y-145892288D01*
X167366985Y-145739485D01*
X167519788Y-145614083D01*
X167694119Y-145520901D01*
X167883280Y-145463520D01*
X168080000Y-145444145D01*
X168276719Y-145463520D01*
G37*
G36*
X165736719Y-145463520D02*
G01*
X165925880Y-145520901D01*
X165925883Y-145520902D01*
X166018333Y-145570318D01*
X166100212Y-145614083D01*
X166253015Y-145739485D01*
X166378417Y-145892288D01*
X166471599Y-146066619D01*
X166528980Y-146255780D01*
X166543500Y-146403206D01*
X166543500Y-146596793D01*
X166528980Y-146744219D01*
X166497195Y-146849000D01*
X166471598Y-146933383D01*
X166422182Y-147025833D01*
X166378417Y-147107712D01*
X166253015Y-147260515D01*
X166100212Y-147385917D01*
X165925881Y-147479099D01*
X165736720Y-147536480D01*
X165540000Y-147555855D01*
X165343281Y-147536480D01*
X165154120Y-147479099D01*
X164979788Y-147385917D01*
X164826985Y-147260515D01*
X164701583Y-147107712D01*
X164608401Y-146933381D01*
X164551020Y-146744220D01*
X164536500Y-146596794D01*
X164536500Y-146403207D01*
X164551020Y-146255781D01*
X164608401Y-146066620D01*
X164608402Y-146066617D01*
X164657818Y-145974167D01*
X164701583Y-145892288D01*
X164826985Y-145739485D01*
X164979788Y-145614083D01*
X165154119Y-145520901D01*
X165343280Y-145463520D01*
X165540000Y-145444145D01*
X165736719Y-145463520D01*
G37*
G36*
X195486719Y-145463520D02*
G01*
X195675880Y-145520901D01*
X195675883Y-145520902D01*
X195768333Y-145570318D01*
X195850212Y-145614083D01*
X196003015Y-145739485D01*
X196128417Y-145892288D01*
X196221599Y-146066619D01*
X196278980Y-146255780D01*
X196293500Y-146403206D01*
X196293500Y-146596793D01*
X196278980Y-146744219D01*
X196247195Y-146849000D01*
X196221598Y-146933383D01*
X196172182Y-147025833D01*
X196128417Y-147107712D01*
X196003015Y-147260515D01*
X195850212Y-147385917D01*
X195675881Y-147479099D01*
X195486720Y-147536480D01*
X195290000Y-147555855D01*
X195093281Y-147536480D01*
X194904120Y-147479099D01*
X194729788Y-147385917D01*
X194576985Y-147260515D01*
X194451583Y-147107712D01*
X194358401Y-146933381D01*
X194301020Y-146744220D01*
X194286500Y-146596794D01*
X194286500Y-146403207D01*
X194301020Y-146255781D01*
X194358401Y-146066620D01*
X194358402Y-146066617D01*
X194407818Y-145974167D01*
X194451583Y-145892288D01*
X194576985Y-145739485D01*
X194729788Y-145614083D01*
X194904119Y-145520901D01*
X195093280Y-145463520D01*
X195290000Y-145444145D01*
X195486719Y-145463520D01*
G37*
G36*
X157526719Y-145463520D02*
G01*
X157715880Y-145520901D01*
X157715883Y-145520902D01*
X157808333Y-145570318D01*
X157890212Y-145614083D01*
X158043015Y-145739485D01*
X158168417Y-145892288D01*
X158261599Y-146066619D01*
X158318980Y-146255780D01*
X158333500Y-146403206D01*
X158333500Y-146596793D01*
X158318980Y-146744219D01*
X158287195Y-146849000D01*
X158261598Y-146933383D01*
X158212182Y-147025833D01*
X158168417Y-147107712D01*
X158043015Y-147260515D01*
X157890212Y-147385917D01*
X157715881Y-147479099D01*
X157526720Y-147536480D01*
X157330000Y-147555855D01*
X157133281Y-147536480D01*
X156944120Y-147479099D01*
X156769788Y-147385917D01*
X156616985Y-147260515D01*
X156491583Y-147107712D01*
X156398401Y-146933381D01*
X156341020Y-146744220D01*
X156326500Y-146596794D01*
X156326500Y-146403207D01*
X156341020Y-146255781D01*
X156398401Y-146066620D01*
X156398402Y-146066617D01*
X156447818Y-145974167D01*
X156491583Y-145892288D01*
X156616985Y-145739485D01*
X156769788Y-145614083D01*
X156944119Y-145520901D01*
X157133280Y-145463520D01*
X157330000Y-145444145D01*
X157526719Y-145463520D01*
G37*
G36*
X154986719Y-145463520D02*
G01*
X155175880Y-145520901D01*
X155175883Y-145520902D01*
X155268333Y-145570318D01*
X155350212Y-145614083D01*
X155503015Y-145739485D01*
X155628417Y-145892288D01*
X155721599Y-146066619D01*
X155778980Y-146255780D01*
X155793500Y-146403206D01*
X155793500Y-146596793D01*
X155778980Y-146744219D01*
X155747195Y-146849000D01*
X155721598Y-146933383D01*
X155672182Y-147025833D01*
X155628417Y-147107712D01*
X155503015Y-147260515D01*
X155350212Y-147385917D01*
X155175881Y-147479099D01*
X154986720Y-147536480D01*
X154790000Y-147555855D01*
X154593281Y-147536480D01*
X154404120Y-147479099D01*
X154229788Y-147385917D01*
X154076985Y-147260515D01*
X153951583Y-147107712D01*
X153858401Y-146933381D01*
X153801020Y-146744220D01*
X153786500Y-146596794D01*
X153786500Y-146403207D01*
X153801020Y-146255781D01*
X153858401Y-146066620D01*
X153858402Y-146066617D01*
X153907818Y-145974167D01*
X153951583Y-145892288D01*
X154076985Y-145739485D01*
X154229788Y-145614083D01*
X154404119Y-145520901D01*
X154593280Y-145463520D01*
X154790000Y-145444145D01*
X154986719Y-145463520D01*
G37*
G36*
X184736719Y-145463520D02*
G01*
X184925880Y-145520901D01*
X184925883Y-145520902D01*
X185018333Y-145570318D01*
X185100212Y-145614083D01*
X185253015Y-145739485D01*
X185378417Y-145892288D01*
X185471599Y-146066619D01*
X185528980Y-146255780D01*
X185543500Y-146403206D01*
X185543500Y-146596793D01*
X185528980Y-146744219D01*
X185497195Y-146849000D01*
X185471598Y-146933383D01*
X185422182Y-147025833D01*
X185378417Y-147107712D01*
X185253015Y-147260515D01*
X185100212Y-147385917D01*
X184925881Y-147479099D01*
X184736720Y-147536480D01*
X184540000Y-147555855D01*
X184343281Y-147536480D01*
X184154120Y-147479099D01*
X183979788Y-147385917D01*
X183826985Y-147260515D01*
X183701583Y-147107712D01*
X183608401Y-146933381D01*
X183551020Y-146744220D01*
X183536500Y-146596794D01*
X183536500Y-146403207D01*
X183551020Y-146255781D01*
X183608401Y-146066620D01*
X183608402Y-146066617D01*
X183657818Y-145974167D01*
X183701583Y-145892288D01*
X183826985Y-145739485D01*
X183979788Y-145614083D01*
X184154119Y-145520901D01*
X184343280Y-145463520D01*
X184540000Y-145444145D01*
X184736719Y-145463520D01*
G37*
G36*
X164003500Y-147551000D02*
G01*
X161996500Y-147551000D01*
X161996500Y-145449000D01*
X164003500Y-145449000D01*
X164003500Y-147551000D01*
G37*
G36*
X153253500Y-147551000D02*
G01*
X151246500Y-147551000D01*
X151246500Y-145449000D01*
X153253500Y-145449000D01*
X153253500Y-147551000D01*
G37*
G36*
X183003500Y-147551000D02*
G01*
X180996500Y-147551000D01*
X180996500Y-145449000D01*
X183003500Y-145449000D01*
X183003500Y-147551000D01*
G37*
G36*
X193753500Y-147551000D02*
G01*
X191746500Y-147551000D01*
X191746500Y-145449000D01*
X193753500Y-145449000D01*
X193753500Y-147551000D01*
G37*
G36*
X133566823Y-145611313D02*
G01*
X133727242Y-145659976D01*
X133757746Y-145676281D01*
X133875078Y-145738996D01*
X134004659Y-145845341D01*
X134111004Y-145974922D01*
X134111005Y-145974924D01*
X134190024Y-146122758D01*
X134238687Y-146283177D01*
X134255117Y-146450000D01*
X134238687Y-146616823D01*
X134190024Y-146777242D01*
X134133161Y-146883625D01*
X134111004Y-146925078D01*
X134004659Y-147054659D01*
X133875078Y-147161004D01*
X133875076Y-147161005D01*
X133727242Y-147240024D01*
X133566823Y-147288687D01*
X133441804Y-147301000D01*
X132558196Y-147301000D01*
X132433177Y-147288687D01*
X132272758Y-147240024D01*
X132124924Y-147161005D01*
X132124922Y-147161004D01*
X131995341Y-147054659D01*
X131888996Y-146925078D01*
X131866839Y-146883625D01*
X131809976Y-146777242D01*
X131761313Y-146616823D01*
X131744883Y-146450000D01*
X131761313Y-146283177D01*
X131809976Y-146122758D01*
X131888995Y-145974924D01*
X131888996Y-145974922D01*
X131995341Y-145845341D01*
X132124922Y-145738996D01*
X132242254Y-145676281D01*
X132272758Y-145659976D01*
X132433177Y-145611313D01*
X132558196Y-145599000D01*
X133441804Y-145599000D01*
X133566823Y-145611313D01*
G37*
G36*
X141186823Y-145611313D02*
G01*
X141347242Y-145659976D01*
X141377746Y-145676281D01*
X141495078Y-145738996D01*
X141624659Y-145845341D01*
X141731004Y-145974922D01*
X141731005Y-145974924D01*
X141810024Y-146122758D01*
X141858687Y-146283177D01*
X141875117Y-146450000D01*
X141858687Y-146616823D01*
X141810024Y-146777242D01*
X141753161Y-146883625D01*
X141731004Y-146925078D01*
X141624659Y-147054659D01*
X141495078Y-147161004D01*
X141495076Y-147161005D01*
X141347242Y-147240024D01*
X141186823Y-147288687D01*
X141061804Y-147301000D01*
X140178196Y-147301000D01*
X140053177Y-147288687D01*
X139892758Y-147240024D01*
X139744924Y-147161005D01*
X139744922Y-147161004D01*
X139615341Y-147054659D01*
X139508996Y-146925078D01*
X139486839Y-146883625D01*
X139429976Y-146777242D01*
X139381313Y-146616823D01*
X139364883Y-146450000D01*
X139381313Y-146283177D01*
X139429976Y-146122758D01*
X139508995Y-145974924D01*
X139508996Y-145974922D01*
X139615341Y-145845341D01*
X139744922Y-145738996D01*
X139862254Y-145676281D01*
X139892758Y-145659976D01*
X140053177Y-145611313D01*
X140178196Y-145599000D01*
X141061804Y-145599000D01*
X141186823Y-145611313D01*
G37*
G36*
X128186823Y-143651313D02*
G01*
X128347242Y-143699976D01*
X128479906Y-143770886D01*
X128495078Y-143778996D01*
X128624659Y-143885341D01*
X128731004Y-144014922D01*
X128731005Y-144014924D01*
X128810024Y-144162758D01*
X128858687Y-144323177D01*
X128875117Y-144490000D01*
X128858687Y-144656823D01*
X128810024Y-144817242D01*
X128755113Y-144919973D01*
X128731004Y-144965078D01*
X128624659Y-145094659D01*
X128495078Y-145201004D01*
X128495076Y-145201005D01*
X128347242Y-145280024D01*
X128186823Y-145328687D01*
X128061804Y-145341000D01*
X127178196Y-145341000D01*
X127053177Y-145328687D01*
X126892758Y-145280024D01*
X126744924Y-145201005D01*
X126744922Y-145201004D01*
X126615341Y-145094659D01*
X126508996Y-144965078D01*
X126484887Y-144919973D01*
X126429976Y-144817242D01*
X126381313Y-144656823D01*
X126364883Y-144490000D01*
X126381313Y-144323177D01*
X126429976Y-144162758D01*
X126508995Y-144014924D01*
X126508996Y-144014922D01*
X126615341Y-143885341D01*
X126744922Y-143778996D01*
X126760094Y-143770886D01*
X126892758Y-143699976D01*
X127053177Y-143651313D01*
X127178196Y-143639000D01*
X128061804Y-143639000D01*
X128186823Y-143651313D01*
G37*
G36*
X120566823Y-143651313D02*
G01*
X120727242Y-143699976D01*
X120859906Y-143770886D01*
X120875078Y-143778996D01*
X121004659Y-143885341D01*
X121111004Y-144014922D01*
X121111005Y-144014924D01*
X121190024Y-144162758D01*
X121238687Y-144323177D01*
X121255117Y-144490000D01*
X121238687Y-144656823D01*
X121190024Y-144817242D01*
X121135113Y-144919973D01*
X121111004Y-144965078D01*
X121004659Y-145094659D01*
X120875078Y-145201004D01*
X120875076Y-145201005D01*
X120727242Y-145280024D01*
X120566823Y-145328687D01*
X120441804Y-145341000D01*
X119558196Y-145341000D01*
X119433177Y-145328687D01*
X119272758Y-145280024D01*
X119124924Y-145201005D01*
X119124922Y-145201004D01*
X118995341Y-145094659D01*
X118888996Y-144965078D01*
X118864887Y-144919973D01*
X118809976Y-144817242D01*
X118761313Y-144656823D01*
X118744883Y-144490000D01*
X118761313Y-144323177D01*
X118809976Y-144162758D01*
X118888995Y-144014924D01*
X118888996Y-144014922D01*
X118995341Y-143885341D01*
X119124922Y-143778996D01*
X119140094Y-143770886D01*
X119272758Y-143699976D01*
X119433177Y-143651313D01*
X119558196Y-143639000D01*
X120441804Y-143639000D01*
X120566823Y-143651313D01*
G37*
G36*
X206306564Y-143239389D02*
G01*
X206497833Y-143318615D01*
X206497835Y-143318616D01*
X206669973Y-143433635D01*
X206816365Y-143580027D01*
X206882312Y-143678723D01*
X206931385Y-143752167D01*
X207010611Y-143943436D01*
X207051000Y-144146484D01*
X207051000Y-144353516D01*
X207010611Y-144556564D01*
X206931385Y-144747833D01*
X206931384Y-144747835D01*
X206816365Y-144919973D01*
X206669973Y-145066365D01*
X206497835Y-145181384D01*
X206497834Y-145181385D01*
X206497833Y-145181385D01*
X206306564Y-145260611D01*
X206103516Y-145301000D01*
X205896484Y-145301000D01*
X205693436Y-145260611D01*
X205502167Y-145181385D01*
X205502166Y-145181385D01*
X205502165Y-145181384D01*
X205330027Y-145066365D01*
X205183635Y-144919973D01*
X205068616Y-144747835D01*
X205068615Y-144747833D01*
X204989389Y-144556564D01*
X204949000Y-144353516D01*
X204949000Y-144146484D01*
X204989389Y-143943436D01*
X205068615Y-143752167D01*
X205117689Y-143678723D01*
X205183635Y-143580027D01*
X205330027Y-143433635D01*
X205502165Y-143318616D01*
X205502167Y-143318615D01*
X205693436Y-143239389D01*
X205896484Y-143199000D01*
X206103516Y-143199000D01*
X206306564Y-143239389D01*
G37*
G36*
X216306564Y-143239389D02*
G01*
X216497833Y-143318615D01*
X216497835Y-143318616D01*
X216669973Y-143433635D01*
X216816365Y-143580027D01*
X216882312Y-143678723D01*
X216931385Y-143752167D01*
X217010611Y-143943436D01*
X217051000Y-144146484D01*
X217051000Y-144353516D01*
X217010611Y-144556564D01*
X216931385Y-144747833D01*
X216931384Y-144747835D01*
X216816365Y-144919973D01*
X216669973Y-145066365D01*
X216497835Y-145181384D01*
X216497834Y-145181385D01*
X216497833Y-145181385D01*
X216306564Y-145260611D01*
X216103516Y-145301000D01*
X215896484Y-145301000D01*
X215693436Y-145260611D01*
X215502167Y-145181385D01*
X215502166Y-145181385D01*
X215502165Y-145181384D01*
X215330027Y-145066365D01*
X215183635Y-144919973D01*
X215068616Y-144747835D01*
X215068615Y-144747833D01*
X214989389Y-144556564D01*
X214949000Y-144353516D01*
X214949000Y-144146484D01*
X214989389Y-143943436D01*
X215068615Y-143752167D01*
X215117689Y-143678723D01*
X215183635Y-143580027D01*
X215330027Y-143433635D01*
X215502165Y-143318616D01*
X215502167Y-143318615D01*
X215693436Y-143239389D01*
X215896484Y-143199000D01*
X216103516Y-143199000D01*
X216306564Y-143239389D01*
G37*
G36*
X133566823Y-143071313D02*
G01*
X133727242Y-143119976D01*
X133859906Y-143190886D01*
X133875078Y-143198996D01*
X134004659Y-143305341D01*
X134111004Y-143434922D01*
X134111005Y-143434924D01*
X134190024Y-143582758D01*
X134238687Y-143743177D01*
X134255117Y-143910000D01*
X134238687Y-144076823D01*
X134190024Y-144237242D01*
X134176196Y-144263112D01*
X134111004Y-144385078D01*
X134004659Y-144514659D01*
X133875078Y-144621004D01*
X133875076Y-144621005D01*
X133727242Y-144700024D01*
X133566823Y-144748687D01*
X133441804Y-144761000D01*
X132558196Y-144761000D01*
X132433177Y-144748687D01*
X132272758Y-144700024D01*
X132124924Y-144621005D01*
X132124922Y-144621004D01*
X131995341Y-144514659D01*
X131888996Y-144385078D01*
X131823804Y-144263112D01*
X131809976Y-144237242D01*
X131761313Y-144076823D01*
X131744883Y-143910000D01*
X131761313Y-143743177D01*
X131809976Y-143582758D01*
X131888995Y-143434924D01*
X131888996Y-143434922D01*
X131995341Y-143305341D01*
X132124922Y-143198996D01*
X132140094Y-143190886D01*
X132272758Y-143119976D01*
X132433177Y-143071313D01*
X132558196Y-143059000D01*
X133441804Y-143059000D01*
X133566823Y-143071313D01*
G37*
G36*
X141186823Y-143071313D02*
G01*
X141347242Y-143119976D01*
X141479906Y-143190886D01*
X141495078Y-143198996D01*
X141624659Y-143305341D01*
X141731004Y-143434922D01*
X141731005Y-143434924D01*
X141810024Y-143582758D01*
X141858687Y-143743177D01*
X141875117Y-143910000D01*
X141858687Y-144076823D01*
X141810024Y-144237242D01*
X141796196Y-144263112D01*
X141731004Y-144385078D01*
X141624659Y-144514659D01*
X141495078Y-144621004D01*
X141495076Y-144621005D01*
X141347242Y-144700024D01*
X141186823Y-144748687D01*
X141061804Y-144761000D01*
X140178196Y-144761000D01*
X140053177Y-144748687D01*
X139892758Y-144700024D01*
X139744924Y-144621005D01*
X139744922Y-144621004D01*
X139615341Y-144514659D01*
X139508996Y-144385078D01*
X139443804Y-144263112D01*
X139429976Y-144237242D01*
X139381313Y-144076823D01*
X139364883Y-143910000D01*
X139381313Y-143743177D01*
X139429976Y-143582758D01*
X139508995Y-143434924D01*
X139508996Y-143434922D01*
X139615341Y-143305341D01*
X139744922Y-143198996D01*
X139760094Y-143190886D01*
X139892758Y-143119976D01*
X140053177Y-143071313D01*
X140178196Y-143059000D01*
X141061804Y-143059000D01*
X141186823Y-143071313D01*
G37*
G36*
X117834468Y-143591065D02*
G01*
X117873138Y-143602796D01*
X117908777Y-143621846D01*
X117940017Y-143647483D01*
X117965654Y-143678723D01*
X117984704Y-143714362D01*
X117996435Y-143753032D01*
X118001000Y-143799388D01*
X118001000Y-144450612D01*
X117996435Y-144496968D01*
X117984704Y-144535638D01*
X117965654Y-144571277D01*
X117940017Y-144602517D01*
X117908777Y-144628154D01*
X117873138Y-144647204D01*
X117834468Y-144658935D01*
X117788112Y-144663500D01*
X116711888Y-144663500D01*
X116665532Y-144658935D01*
X116626862Y-144647204D01*
X116591223Y-144628154D01*
X116559983Y-144602517D01*
X116534346Y-144571277D01*
X116515296Y-144535638D01*
X116503565Y-144496968D01*
X116499000Y-144450612D01*
X116499000Y-143799388D01*
X116503565Y-143753032D01*
X116515296Y-143714362D01*
X116534346Y-143678723D01*
X116559983Y-143647483D01*
X116591223Y-143621846D01*
X116626862Y-143602796D01*
X116665532Y-143591065D01*
X116711888Y-143586500D01*
X117788112Y-143586500D01*
X117834468Y-143591065D01*
G37*
G36*
X112584468Y-143403565D02*
G01*
X112623138Y-143415296D01*
X112658777Y-143434346D01*
X112690017Y-143459983D01*
X112715654Y-143491223D01*
X112734704Y-143526862D01*
X112746435Y-143565532D01*
X112751000Y-143611888D01*
X112751000Y-144263112D01*
X112746435Y-144309468D01*
X112734704Y-144348138D01*
X112715654Y-144383777D01*
X112690017Y-144415017D01*
X112658777Y-144440654D01*
X112623138Y-144459704D01*
X112584468Y-144471435D01*
X112538112Y-144476000D01*
X111461888Y-144476000D01*
X111415532Y-144471435D01*
X111376862Y-144459704D01*
X111341223Y-144440654D01*
X111309983Y-144415017D01*
X111284346Y-144383777D01*
X111265296Y-144348138D01*
X111253565Y-144309468D01*
X111249000Y-144263112D01*
X111249000Y-143611888D01*
X111253565Y-143565532D01*
X111265296Y-143526862D01*
X111284346Y-143491223D01*
X111309983Y-143459983D01*
X111341223Y-143434346D01*
X111376862Y-143415296D01*
X111415532Y-143403565D01*
X111461888Y-143399000D01*
X112538112Y-143399000D01*
X112584468Y-143403565D01*
G37*
G36*
X106084468Y-143403565D02*
G01*
X106123138Y-143415296D01*
X106158777Y-143434346D01*
X106190017Y-143459983D01*
X106215654Y-143491223D01*
X106234704Y-143526862D01*
X106246435Y-143565532D01*
X106251000Y-143611888D01*
X106251000Y-144263112D01*
X106246435Y-144309468D01*
X106234704Y-144348138D01*
X106215654Y-144383777D01*
X106190017Y-144415017D01*
X106158777Y-144440654D01*
X106123138Y-144459704D01*
X106084468Y-144471435D01*
X106038112Y-144476000D01*
X104961888Y-144476000D01*
X104915532Y-144471435D01*
X104876862Y-144459704D01*
X104841223Y-144440654D01*
X104809983Y-144415017D01*
X104784346Y-144383777D01*
X104765296Y-144348138D01*
X104753565Y-144309468D01*
X104749000Y-144263112D01*
X104749000Y-143611888D01*
X104753565Y-143565532D01*
X104765296Y-143526862D01*
X104784346Y-143491223D01*
X104809983Y-143459983D01*
X104841223Y-143434346D01*
X104876862Y-143415296D01*
X104915532Y-143403565D01*
X104961888Y-143399000D01*
X106038112Y-143399000D01*
X106084468Y-143403565D01*
G37*
G36*
X120566823Y-141111313D02*
G01*
X120727242Y-141159976D01*
X120808065Y-141203177D01*
X120875078Y-141238996D01*
X121004659Y-141345341D01*
X121111004Y-141474922D01*
X121111005Y-141474924D01*
X121190024Y-141622758D01*
X121238687Y-141783177D01*
X121255117Y-141950000D01*
X121238687Y-142116823D01*
X121190024Y-142277242D01*
X121132812Y-142384278D01*
X121111004Y-142425078D01*
X121004659Y-142554659D01*
X120875078Y-142661004D01*
X120875076Y-142661005D01*
X120727242Y-142740024D01*
X120566823Y-142788687D01*
X120441804Y-142801000D01*
X119558196Y-142801000D01*
X119433177Y-142788687D01*
X119272758Y-142740024D01*
X119124924Y-142661005D01*
X119124922Y-142661004D01*
X118995341Y-142554659D01*
X118888996Y-142425078D01*
X118867188Y-142384278D01*
X118809976Y-142277242D01*
X118761313Y-142116823D01*
X118744883Y-141950000D01*
X118761313Y-141783177D01*
X118809976Y-141622758D01*
X118888995Y-141474924D01*
X118888996Y-141474922D01*
X118995341Y-141345341D01*
X119124922Y-141238996D01*
X119191935Y-141203177D01*
X119272758Y-141159976D01*
X119433177Y-141111313D01*
X119558196Y-141099000D01*
X120441804Y-141099000D01*
X120566823Y-141111313D01*
G37*
G36*
X128186823Y-141111313D02*
G01*
X128347242Y-141159976D01*
X128428065Y-141203177D01*
X128495078Y-141238996D01*
X128624659Y-141345341D01*
X128731004Y-141474922D01*
X128731005Y-141474924D01*
X128810024Y-141622758D01*
X128858687Y-141783177D01*
X128875117Y-141950000D01*
X128858687Y-142116823D01*
X128810024Y-142277242D01*
X128752812Y-142384278D01*
X128731004Y-142425078D01*
X128624659Y-142554659D01*
X128495078Y-142661004D01*
X128495076Y-142661005D01*
X128347242Y-142740024D01*
X128186823Y-142788687D01*
X128061804Y-142801000D01*
X127178196Y-142801000D01*
X127053177Y-142788687D01*
X126892758Y-142740024D01*
X126744924Y-142661005D01*
X126744922Y-142661004D01*
X126615341Y-142554659D01*
X126508996Y-142425078D01*
X126487188Y-142384278D01*
X126429976Y-142277242D01*
X126381313Y-142116823D01*
X126364883Y-141950000D01*
X126381313Y-141783177D01*
X126429976Y-141622758D01*
X126508995Y-141474924D01*
X126508996Y-141474922D01*
X126615341Y-141345341D01*
X126744922Y-141238996D01*
X126811935Y-141203177D01*
X126892758Y-141159976D01*
X127053177Y-141111313D01*
X127178196Y-141099000D01*
X128061804Y-141099000D01*
X128186823Y-141111313D01*
G37*
G36*
X117834468Y-141716065D02*
G01*
X117873138Y-141727796D01*
X117908777Y-141746846D01*
X117940017Y-141772483D01*
X117965654Y-141803723D01*
X117984704Y-141839362D01*
X117996435Y-141878032D01*
X118001000Y-141924388D01*
X118001000Y-142575612D01*
X117996435Y-142621968D01*
X117984704Y-142660638D01*
X117965654Y-142696277D01*
X117940017Y-142727517D01*
X117908777Y-142753154D01*
X117873138Y-142772204D01*
X117834468Y-142783935D01*
X117788112Y-142788500D01*
X116711888Y-142788500D01*
X116665532Y-142783935D01*
X116626862Y-142772204D01*
X116591223Y-142753154D01*
X116559983Y-142727517D01*
X116534346Y-142696277D01*
X116515296Y-142660638D01*
X116503565Y-142621968D01*
X116499000Y-142575612D01*
X116499000Y-141924388D01*
X116503565Y-141878032D01*
X116515296Y-141839362D01*
X116534346Y-141803723D01*
X116559983Y-141772483D01*
X116591223Y-141746846D01*
X116626862Y-141727796D01*
X116665532Y-141716065D01*
X116711888Y-141711500D01*
X117788112Y-141711500D01*
X117834468Y-141716065D01*
G37*
G36*
X112584468Y-141528565D02*
G01*
X112623138Y-141540296D01*
X112658777Y-141559346D01*
X112690017Y-141584983D01*
X112715654Y-141616223D01*
X112734704Y-141651862D01*
X112746435Y-141690532D01*
X112751000Y-141736888D01*
X112751000Y-142388112D01*
X112746435Y-142434468D01*
X112734704Y-142473138D01*
X112715654Y-142508777D01*
X112690017Y-142540017D01*
X112658777Y-142565654D01*
X112623138Y-142584704D01*
X112584468Y-142596435D01*
X112538112Y-142601000D01*
X111461888Y-142601000D01*
X111415532Y-142596435D01*
X111376862Y-142584704D01*
X111341223Y-142565654D01*
X111309983Y-142540017D01*
X111284346Y-142508777D01*
X111265296Y-142473138D01*
X111253565Y-142434468D01*
X111249000Y-142388112D01*
X111249000Y-141736888D01*
X111253565Y-141690532D01*
X111265296Y-141651862D01*
X111284346Y-141616223D01*
X111309983Y-141584983D01*
X111341223Y-141559346D01*
X111376862Y-141540296D01*
X111415532Y-141528565D01*
X111461888Y-141524000D01*
X112538112Y-141524000D01*
X112584468Y-141528565D01*
G37*
G36*
X106084468Y-141528565D02*
G01*
X106123138Y-141540296D01*
X106158777Y-141559346D01*
X106190017Y-141584983D01*
X106215654Y-141616223D01*
X106234704Y-141651862D01*
X106246435Y-141690532D01*
X106251000Y-141736888D01*
X106251000Y-142388112D01*
X106246435Y-142434468D01*
X106234704Y-142473138D01*
X106215654Y-142508777D01*
X106190017Y-142540017D01*
X106158777Y-142565654D01*
X106123138Y-142584704D01*
X106084468Y-142596435D01*
X106038112Y-142601000D01*
X104961888Y-142601000D01*
X104915532Y-142596435D01*
X104876862Y-142584704D01*
X104841223Y-142565654D01*
X104809983Y-142540017D01*
X104784346Y-142508777D01*
X104765296Y-142473138D01*
X104753565Y-142434468D01*
X104749000Y-142388112D01*
X104749000Y-141736888D01*
X104753565Y-141690532D01*
X104765296Y-141651862D01*
X104784346Y-141616223D01*
X104809983Y-141584983D01*
X104841223Y-141559346D01*
X104876862Y-141540296D01*
X104915532Y-141528565D01*
X104961888Y-141524000D01*
X106038112Y-141524000D01*
X106084468Y-141528565D01*
G37*
G36*
X141186823Y-140531313D02*
G01*
X141347242Y-140579976D01*
X141476377Y-140649000D01*
X141495078Y-140658996D01*
X141624659Y-140765341D01*
X141731004Y-140894922D01*
X141731005Y-140894924D01*
X141810024Y-141042758D01*
X141858687Y-141203177D01*
X141875117Y-141370000D01*
X141858687Y-141536823D01*
X141840087Y-141598138D01*
X141812023Y-141690654D01*
X141810024Y-141697242D01*
X141753109Y-141803723D01*
X141731004Y-141845078D01*
X141624659Y-141974659D01*
X141495078Y-142081004D01*
X141495076Y-142081005D01*
X141347242Y-142160024D01*
X141186823Y-142208687D01*
X141061804Y-142221000D01*
X140178196Y-142221000D01*
X140053177Y-142208687D01*
X139892758Y-142160024D01*
X139744924Y-142081005D01*
X139744922Y-142081004D01*
X139615341Y-141974659D01*
X139508996Y-141845078D01*
X139486891Y-141803723D01*
X139429976Y-141697242D01*
X139427978Y-141690654D01*
X139399913Y-141598138D01*
X139381313Y-141536823D01*
X139364883Y-141370000D01*
X139381313Y-141203177D01*
X139429976Y-141042758D01*
X139508995Y-140894924D01*
X139508996Y-140894922D01*
X139615341Y-140765341D01*
X139744922Y-140658996D01*
X139763623Y-140649000D01*
X139892758Y-140579976D01*
X140053177Y-140531313D01*
X140178196Y-140519000D01*
X141061804Y-140519000D01*
X141186823Y-140531313D01*
G37*
G36*
X133566823Y-140531313D02*
G01*
X133727242Y-140579976D01*
X133856377Y-140649000D01*
X133875078Y-140658996D01*
X134004659Y-140765341D01*
X134111004Y-140894922D01*
X134111005Y-140894924D01*
X134190024Y-141042758D01*
X134238687Y-141203177D01*
X134255117Y-141370000D01*
X134238687Y-141536823D01*
X134220087Y-141598138D01*
X134192023Y-141690654D01*
X134190024Y-141697242D01*
X134133109Y-141803723D01*
X134111004Y-141845078D01*
X134004659Y-141974659D01*
X133875078Y-142081004D01*
X133875076Y-142081005D01*
X133727242Y-142160024D01*
X133566823Y-142208687D01*
X133441804Y-142221000D01*
X132558196Y-142221000D01*
X132433177Y-142208687D01*
X132272758Y-142160024D01*
X132124924Y-142081005D01*
X132124922Y-142081004D01*
X131995341Y-141974659D01*
X131888996Y-141845078D01*
X131866891Y-141803723D01*
X131809976Y-141697242D01*
X131807978Y-141690654D01*
X131779913Y-141598138D01*
X131761313Y-141536823D01*
X131744883Y-141370000D01*
X131761313Y-141203177D01*
X131809976Y-141042758D01*
X131888995Y-140894924D01*
X131888996Y-140894922D01*
X131995341Y-140765341D01*
X132124922Y-140658996D01*
X132143623Y-140649000D01*
X132272758Y-140579976D01*
X132433177Y-140531313D01*
X132558196Y-140519000D01*
X133441804Y-140519000D01*
X133566823Y-140531313D01*
G37*
G36*
X130834468Y-140653565D02*
G01*
X130873138Y-140665296D01*
X130908777Y-140684346D01*
X130940017Y-140709983D01*
X130965654Y-140741223D01*
X130984704Y-140776862D01*
X130996435Y-140815532D01*
X131001000Y-140861888D01*
X131001000Y-141513112D01*
X130996435Y-141559468D01*
X130984704Y-141598138D01*
X130965654Y-141633777D01*
X130940017Y-141665017D01*
X130908777Y-141690654D01*
X130873138Y-141709704D01*
X130834468Y-141721435D01*
X130788112Y-141726000D01*
X129711888Y-141726000D01*
X129665532Y-141721435D01*
X129626862Y-141709704D01*
X129591223Y-141690654D01*
X129559983Y-141665017D01*
X129534346Y-141633777D01*
X129515296Y-141598138D01*
X129503565Y-141559468D01*
X129499000Y-141513112D01*
X129499000Y-140861888D01*
X129503565Y-140815532D01*
X129515296Y-140776862D01*
X129534346Y-140741223D01*
X129559983Y-140709983D01*
X129591223Y-140684346D01*
X129626862Y-140665296D01*
X129665532Y-140653565D01*
X129711888Y-140649000D01*
X130788112Y-140649000D01*
X130834468Y-140653565D01*
G37*
G36*
X120566823Y-138571313D02*
G01*
X120727242Y-138619976D01*
X120808065Y-138663177D01*
X120875078Y-138698996D01*
X121004659Y-138805341D01*
X121111004Y-138934922D01*
X121114003Y-138940532D01*
X121190024Y-139082758D01*
X121238687Y-139243177D01*
X121255117Y-139410000D01*
X121238687Y-139576823D01*
X121190024Y-139737242D01*
X121131659Y-139846435D01*
X121111004Y-139885078D01*
X121004659Y-140014659D01*
X120875078Y-140121004D01*
X120875076Y-140121005D01*
X120727242Y-140200024D01*
X120566823Y-140248687D01*
X120441804Y-140261000D01*
X119558196Y-140261000D01*
X119433177Y-140248687D01*
X119272758Y-140200024D01*
X119124924Y-140121005D01*
X119124922Y-140121004D01*
X118995341Y-140014659D01*
X118888996Y-139885078D01*
X118868341Y-139846435D01*
X118809976Y-139737242D01*
X118761313Y-139576823D01*
X118744883Y-139410000D01*
X118761313Y-139243177D01*
X118809976Y-139082758D01*
X118885997Y-138940532D01*
X118888996Y-138934922D01*
X118995341Y-138805341D01*
X119124922Y-138698996D01*
X119191935Y-138663177D01*
X119272758Y-138619976D01*
X119433177Y-138571313D01*
X119558196Y-138559000D01*
X120441804Y-138559000D01*
X120566823Y-138571313D01*
G37*
G36*
X128186823Y-138571313D02*
G01*
X128347242Y-138619976D01*
X128428065Y-138663177D01*
X128495078Y-138698996D01*
X128624659Y-138805341D01*
X128731004Y-138934922D01*
X128734003Y-138940532D01*
X128810024Y-139082758D01*
X128858687Y-139243177D01*
X128875117Y-139410000D01*
X128858687Y-139576823D01*
X128810024Y-139737242D01*
X128751659Y-139846435D01*
X128731004Y-139885078D01*
X128624659Y-140014659D01*
X128495078Y-140121004D01*
X128495076Y-140121005D01*
X128347242Y-140200024D01*
X128186823Y-140248687D01*
X128061804Y-140261000D01*
X127178196Y-140261000D01*
X127053177Y-140248687D01*
X126892758Y-140200024D01*
X126744924Y-140121005D01*
X126744922Y-140121004D01*
X126615341Y-140014659D01*
X126508996Y-139885078D01*
X126488341Y-139846435D01*
X126429976Y-139737242D01*
X126381313Y-139576823D01*
X126364883Y-139410000D01*
X126381313Y-139243177D01*
X126429976Y-139082758D01*
X126505997Y-138940532D01*
X126508996Y-138934922D01*
X126615341Y-138805341D01*
X126744922Y-138698996D01*
X126811935Y-138663177D01*
X126892758Y-138619976D01*
X127053177Y-138571313D01*
X127178196Y-138559000D01*
X128061804Y-138559000D01*
X128186823Y-138571313D01*
G37*
G36*
X220309189Y-133990722D02*
G01*
X220639868Y-134056498D01*
X221195067Y-134286469D01*
X221456276Y-134461004D01*
X221694733Y-134620335D01*
X222119665Y-135045267D01*
X222262565Y-135259133D01*
X222453531Y-135544933D01*
X222683502Y-136100132D01*
X222723457Y-136301000D01*
X222795865Y-136665017D01*
X222800740Y-136689528D01*
X222800740Y-137290472D01*
X222683502Y-137879868D01*
X222453531Y-138435067D01*
X222301112Y-138663177D01*
X222119665Y-138934733D01*
X221694733Y-139359665D01*
X221480867Y-139502565D01*
X221195067Y-139693531D01*
X220639868Y-139923502D01*
X220345170Y-139982121D01*
X220050473Y-140040740D01*
X219449527Y-140040740D01*
X219154830Y-139982121D01*
X218860132Y-139923502D01*
X218304933Y-139693531D01*
X218019133Y-139502565D01*
X217805267Y-139359665D01*
X217380335Y-138934733D01*
X217198888Y-138663177D01*
X217046469Y-138435067D01*
X216816498Y-137879868D01*
X216699260Y-137290472D01*
X216699260Y-136689528D01*
X216704136Y-136665017D01*
X216776543Y-136301000D01*
X216816498Y-136100132D01*
X217046469Y-135544933D01*
X217237435Y-135259133D01*
X217380335Y-135045267D01*
X217805267Y-134620335D01*
X218043724Y-134461004D01*
X218304933Y-134286469D01*
X218860132Y-134056498D01*
X219190811Y-133990722D01*
X219449527Y-133939260D01*
X220050473Y-133939260D01*
X220309189Y-133990722D01*
G37*
G36*
X130834468Y-138778565D02*
G01*
X130873138Y-138790296D01*
X130908777Y-138809346D01*
X130940017Y-138834983D01*
X130965654Y-138866223D01*
X130984704Y-138901862D01*
X130996435Y-138940532D01*
X131001000Y-138986888D01*
X131001000Y-139638112D01*
X130996435Y-139684468D01*
X130984704Y-139723138D01*
X130965654Y-139758777D01*
X130940017Y-139790017D01*
X130908777Y-139815654D01*
X130873138Y-139834704D01*
X130834468Y-139846435D01*
X130788112Y-139851000D01*
X129711888Y-139851000D01*
X129665532Y-139846435D01*
X129626862Y-139834704D01*
X129591223Y-139815654D01*
X129559983Y-139790017D01*
X129534346Y-139758777D01*
X129515296Y-139723138D01*
X129503565Y-139684468D01*
X129499000Y-139638112D01*
X129499000Y-138986888D01*
X129503565Y-138940532D01*
X129515296Y-138901862D01*
X129534346Y-138866223D01*
X129559983Y-138834983D01*
X129591223Y-138809346D01*
X129626862Y-138790296D01*
X129665532Y-138778565D01*
X129711888Y-138774000D01*
X130788112Y-138774000D01*
X130834468Y-138778565D01*
G37*
G36*
X141186823Y-137991313D02*
G01*
X141347242Y-138039976D01*
X141479906Y-138110886D01*
X141495078Y-138118996D01*
X141624659Y-138225341D01*
X141731004Y-138354922D01*
X141731005Y-138354924D01*
X141810024Y-138502758D01*
X141858687Y-138663177D01*
X141875117Y-138830000D01*
X141858687Y-138996823D01*
X141810024Y-139157242D01*
X141764092Y-139243175D01*
X141731004Y-139305078D01*
X141624659Y-139434659D01*
X141495078Y-139541004D01*
X141495076Y-139541005D01*
X141347242Y-139620024D01*
X141186823Y-139668687D01*
X141061804Y-139681000D01*
X140178196Y-139681000D01*
X140053177Y-139668687D01*
X139892758Y-139620024D01*
X139744924Y-139541005D01*
X139744922Y-139541004D01*
X139615341Y-139434659D01*
X139508996Y-139305078D01*
X139475908Y-139243175D01*
X139429976Y-139157242D01*
X139381313Y-138996823D01*
X139364883Y-138830000D01*
X139381313Y-138663177D01*
X139429976Y-138502758D01*
X139508995Y-138354924D01*
X139508996Y-138354922D01*
X139615341Y-138225341D01*
X139744922Y-138118996D01*
X139760094Y-138110886D01*
X139892758Y-138039976D01*
X140053177Y-137991313D01*
X140178196Y-137979000D01*
X141061804Y-137979000D01*
X141186823Y-137991313D01*
G37*
G36*
X133566823Y-137991313D02*
G01*
X133727242Y-138039976D01*
X133859906Y-138110886D01*
X133875078Y-138118996D01*
X134004659Y-138225341D01*
X134111004Y-138354922D01*
X134111005Y-138354924D01*
X134190024Y-138502758D01*
X134238687Y-138663177D01*
X134255117Y-138830000D01*
X134238687Y-138996823D01*
X134190024Y-139157242D01*
X134144092Y-139243175D01*
X134111004Y-139305078D01*
X134004659Y-139434659D01*
X133875078Y-139541004D01*
X133875076Y-139541005D01*
X133727242Y-139620024D01*
X133566823Y-139668687D01*
X133441804Y-139681000D01*
X132558196Y-139681000D01*
X132433177Y-139668687D01*
X132272758Y-139620024D01*
X132124924Y-139541005D01*
X132124922Y-139541004D01*
X131995341Y-139434659D01*
X131888996Y-139305078D01*
X131855908Y-139243175D01*
X131809976Y-139157242D01*
X131761313Y-138996823D01*
X131744883Y-138830000D01*
X131761313Y-138663177D01*
X131809976Y-138502758D01*
X131888995Y-138354924D01*
X131888996Y-138354922D01*
X131995341Y-138225341D01*
X132124922Y-138118996D01*
X132140094Y-138110886D01*
X132272758Y-138039976D01*
X132433177Y-137991313D01*
X132558196Y-137979000D01*
X133441804Y-137979000D01*
X133566823Y-137991313D01*
G37*
G36*
X106248228Y-137471703D02*
G01*
X106403100Y-137535853D01*
X106542481Y-137628985D01*
X106661015Y-137747519D01*
X106754147Y-137886900D01*
X106818297Y-138041772D01*
X106851000Y-138206184D01*
X106851000Y-138373816D01*
X106818297Y-138538228D01*
X106754147Y-138693100D01*
X106661015Y-138832481D01*
X106542481Y-138951015D01*
X106403100Y-139044147D01*
X106248228Y-139108297D01*
X106083816Y-139141000D01*
X105916184Y-139141000D01*
X105751772Y-139108297D01*
X105596900Y-139044147D01*
X105457519Y-138951015D01*
X105338985Y-138832481D01*
X105245853Y-138693100D01*
X105181703Y-138538228D01*
X105149000Y-138373816D01*
X105149000Y-138206184D01*
X105181703Y-138041772D01*
X105245853Y-137886900D01*
X105338985Y-137747519D01*
X105457519Y-137628985D01*
X105596900Y-137535853D01*
X105751772Y-137471703D01*
X105916184Y-137439000D01*
X106083816Y-137439000D01*
X106248228Y-137471703D01*
G37*
G36*
X113868228Y-137471703D02*
G01*
X114023100Y-137535853D01*
X114162481Y-137628985D01*
X114281015Y-137747519D01*
X114374147Y-137886900D01*
X114438297Y-138041772D01*
X114471000Y-138206184D01*
X114471000Y-138373816D01*
X114438297Y-138538228D01*
X114374147Y-138693100D01*
X114281015Y-138832481D01*
X114162481Y-138951015D01*
X114023100Y-139044147D01*
X113868228Y-139108297D01*
X113703816Y-139141000D01*
X113536184Y-139141000D01*
X113371772Y-139108297D01*
X113216900Y-139044147D01*
X113077519Y-138951015D01*
X112958985Y-138832481D01*
X112865853Y-138693100D01*
X112801703Y-138538228D01*
X112769000Y-138373816D01*
X112769000Y-138206184D01*
X112801703Y-138041772D01*
X112865853Y-137886900D01*
X112958985Y-137747519D01*
X113077519Y-137628985D01*
X113216900Y-137535853D01*
X113371772Y-137471703D01*
X113536184Y-137439000D01*
X113703816Y-137439000D01*
X113868228Y-137471703D01*
G37*
G36*
X128186823Y-136031313D02*
G01*
X128347242Y-136079976D01*
X128428065Y-136123177D01*
X128495078Y-136158996D01*
X128624659Y-136265341D01*
X128731004Y-136394922D01*
X128731005Y-136394924D01*
X128810024Y-136542758D01*
X128858687Y-136703177D01*
X128875117Y-136870000D01*
X128858687Y-137036823D01*
X128810024Y-137197242D01*
X128760191Y-137290472D01*
X128731004Y-137345078D01*
X128624659Y-137474659D01*
X128495078Y-137581004D01*
X128495076Y-137581005D01*
X128347242Y-137660024D01*
X128186823Y-137708687D01*
X128061804Y-137721000D01*
X127178196Y-137721000D01*
X127053177Y-137708687D01*
X126892758Y-137660024D01*
X126744924Y-137581005D01*
X126744922Y-137581004D01*
X126615341Y-137474659D01*
X126508996Y-137345078D01*
X126479809Y-137290472D01*
X126429976Y-137197242D01*
X126381313Y-137036823D01*
X126364883Y-136870000D01*
X126381313Y-136703177D01*
X126429976Y-136542758D01*
X126508995Y-136394924D01*
X126508996Y-136394922D01*
X126615341Y-136265341D01*
X126744922Y-136158996D01*
X126811935Y-136123177D01*
X126892758Y-136079976D01*
X127053177Y-136031313D01*
X127178196Y-136019000D01*
X128061804Y-136019000D01*
X128186823Y-136031313D01*
G37*
G36*
X120566823Y-136031313D02*
G01*
X120727242Y-136079976D01*
X120808065Y-136123177D01*
X120875078Y-136158996D01*
X121004659Y-136265341D01*
X121111004Y-136394922D01*
X121111005Y-136394924D01*
X121190024Y-136542758D01*
X121238687Y-136703177D01*
X121255117Y-136870000D01*
X121238687Y-137036823D01*
X121190024Y-137197242D01*
X121140191Y-137290472D01*
X121111004Y-137345078D01*
X121004659Y-137474659D01*
X120875078Y-137581004D01*
X120875076Y-137581005D01*
X120727242Y-137660024D01*
X120566823Y-137708687D01*
X120441804Y-137721000D01*
X119558196Y-137721000D01*
X119433177Y-137708687D01*
X119272758Y-137660024D01*
X119124924Y-137581005D01*
X119124922Y-137581004D01*
X118995341Y-137474659D01*
X118888996Y-137345078D01*
X118859809Y-137290472D01*
X118809976Y-137197242D01*
X118761313Y-137036823D01*
X118744883Y-136870000D01*
X118761313Y-136703177D01*
X118809976Y-136542758D01*
X118888995Y-136394924D01*
X118888996Y-136394922D01*
X118995341Y-136265341D01*
X119124922Y-136158996D01*
X119191935Y-136123177D01*
X119272758Y-136079976D01*
X119433177Y-136031313D01*
X119558196Y-136019000D01*
X120441804Y-136019000D01*
X120566823Y-136031313D01*
G37*
G36*
X145151000Y-137401000D02*
G01*
X142849000Y-137401000D01*
X142849000Y-135099000D01*
X145151000Y-135099000D01*
X145151000Y-137401000D01*
G37*
G36*
X141186823Y-135451313D02*
G01*
X141347242Y-135499976D01*
X141453112Y-135556565D01*
X141495078Y-135578996D01*
X141624659Y-135685341D01*
X141731004Y-135814922D01*
X141731005Y-135814924D01*
X141810024Y-135962758D01*
X141858687Y-136123177D01*
X141875117Y-136290000D01*
X141858687Y-136456823D01*
X141810024Y-136617242D01*
X141739114Y-136749906D01*
X141731004Y-136765078D01*
X141624659Y-136894659D01*
X141495078Y-137001004D01*
X141495076Y-137001005D01*
X141347242Y-137080024D01*
X141186823Y-137128687D01*
X141061804Y-137141000D01*
X140178196Y-137141000D01*
X140053177Y-137128687D01*
X139892758Y-137080024D01*
X139744924Y-137001005D01*
X139744922Y-137001004D01*
X139615341Y-136894659D01*
X139508996Y-136765078D01*
X139500886Y-136749906D01*
X139429976Y-136617242D01*
X139381313Y-136456823D01*
X139364883Y-136290000D01*
X139381313Y-136123177D01*
X139429976Y-135962758D01*
X139508995Y-135814924D01*
X139508996Y-135814922D01*
X139615341Y-135685341D01*
X139744922Y-135578996D01*
X139786888Y-135556565D01*
X139892758Y-135499976D01*
X140053177Y-135451313D01*
X140178196Y-135439000D01*
X141061804Y-135439000D01*
X141186823Y-135451313D01*
G37*
G36*
X133566823Y-135451313D02*
G01*
X133727242Y-135499976D01*
X133833112Y-135556565D01*
X133875078Y-135578996D01*
X134004659Y-135685341D01*
X134111004Y-135814922D01*
X134111005Y-135814924D01*
X134190024Y-135962758D01*
X134238687Y-136123177D01*
X134255117Y-136290000D01*
X134238687Y-136456823D01*
X134190024Y-136617242D01*
X134119114Y-136749906D01*
X134111004Y-136765078D01*
X134004659Y-136894659D01*
X133875078Y-137001004D01*
X133875076Y-137001005D01*
X133727242Y-137080024D01*
X133566823Y-137128687D01*
X133441804Y-137141000D01*
X132558196Y-137141000D01*
X132433177Y-137128687D01*
X132272758Y-137080024D01*
X132124924Y-137001005D01*
X132124922Y-137001004D01*
X131995341Y-136894659D01*
X131888996Y-136765078D01*
X131880886Y-136749906D01*
X131809976Y-136617242D01*
X131761313Y-136456823D01*
X131744883Y-136290000D01*
X131761313Y-136123177D01*
X131809976Y-135962758D01*
X131888995Y-135814924D01*
X131888996Y-135814922D01*
X131995341Y-135685341D01*
X132124922Y-135578996D01*
X132166888Y-135556565D01*
X132272758Y-135499976D01*
X132433177Y-135451313D01*
X132558196Y-135439000D01*
X133441804Y-135439000D01*
X133566823Y-135451313D01*
G37*
G36*
X117334468Y-135653565D02*
G01*
X117373138Y-135665296D01*
X117408777Y-135684346D01*
X117440017Y-135709983D01*
X117465654Y-135741223D01*
X117484704Y-135776862D01*
X117496435Y-135815532D01*
X117501000Y-135861888D01*
X117501000Y-136513112D01*
X117496435Y-136559468D01*
X117484704Y-136598138D01*
X117465654Y-136633777D01*
X117440017Y-136665017D01*
X117408777Y-136690654D01*
X117373138Y-136709704D01*
X117334468Y-136721435D01*
X117288112Y-136726000D01*
X116211888Y-136726000D01*
X116165532Y-136721435D01*
X116126862Y-136709704D01*
X116091223Y-136690654D01*
X116059983Y-136665017D01*
X116034346Y-136633777D01*
X116015296Y-136598138D01*
X116003565Y-136559468D01*
X115999000Y-136513112D01*
X115999000Y-135861888D01*
X116003565Y-135815532D01*
X116015296Y-135776862D01*
X116034346Y-135741223D01*
X116059983Y-135709983D01*
X116091223Y-135684346D01*
X116126862Y-135665296D01*
X116165532Y-135653565D01*
X116211888Y-135649000D01*
X117288112Y-135649000D01*
X117334468Y-135653565D01*
G37*
G36*
X113868228Y-134931703D02*
G01*
X114023100Y-134995853D01*
X114162481Y-135088985D01*
X114281015Y-135207519D01*
X114374147Y-135346900D01*
X114438297Y-135501772D01*
X114471000Y-135666184D01*
X114471000Y-135833816D01*
X114438297Y-135998228D01*
X114374147Y-136153100D01*
X114281015Y-136292481D01*
X114162481Y-136411015D01*
X114023100Y-136504147D01*
X113868228Y-136568297D01*
X113703816Y-136601000D01*
X113536184Y-136601000D01*
X113371772Y-136568297D01*
X113216900Y-136504147D01*
X113077519Y-136411015D01*
X112958985Y-136292481D01*
X112865853Y-136153100D01*
X112801703Y-135998228D01*
X112769000Y-135833816D01*
X112769000Y-135666184D01*
X112801703Y-135501772D01*
X112865853Y-135346900D01*
X112958985Y-135207519D01*
X113077519Y-135088985D01*
X113216900Y-134995853D01*
X113371772Y-134931703D01*
X113536184Y-134899000D01*
X113703816Y-134899000D01*
X113868228Y-134931703D01*
G37*
G36*
X106851000Y-136601000D02*
G01*
X105149000Y-136601000D01*
X105149000Y-134899000D01*
X106851000Y-134899000D01*
X106851000Y-136601000D01*
G37*
G36*
X175095170Y-130377879D02*
G01*
X175389868Y-130436498D01*
X175945067Y-130666469D01*
X176127293Y-130788229D01*
X176444733Y-131000335D01*
X176869665Y-131425267D01*
X177001902Y-131623175D01*
X177203531Y-131924933D01*
X177433502Y-132480132D01*
X177550740Y-133069528D01*
X177550740Y-133670472D01*
X177433502Y-134259868D01*
X177203531Y-134815067D01*
X177049716Y-135045267D01*
X176869665Y-135314733D01*
X176444733Y-135739665D01*
X176230867Y-135882565D01*
X175945067Y-136073531D01*
X175389868Y-136303502D01*
X175095170Y-136362121D01*
X174800473Y-136420740D01*
X174199527Y-136420740D01*
X173904830Y-136362121D01*
X173610132Y-136303502D01*
X173054933Y-136073531D01*
X172769133Y-135882565D01*
X172555267Y-135739665D01*
X172130335Y-135314733D01*
X171950284Y-135045267D01*
X171796469Y-134815067D01*
X171566498Y-134259868D01*
X171449260Y-133670472D01*
X171449260Y-133069528D01*
X171566498Y-132480132D01*
X171796469Y-131924933D01*
X171998098Y-131623175D01*
X172130335Y-131425267D01*
X172555267Y-131000335D01*
X172872707Y-130788229D01*
X173054933Y-130666469D01*
X173610132Y-130436498D01*
X173904830Y-130377879D01*
X174199527Y-130319260D01*
X174800473Y-130319260D01*
X175095170Y-130377879D01*
G37*
G36*
X211306564Y-134239389D02*
G01*
X211420225Y-134286469D01*
X211497835Y-134318616D01*
X211669973Y-134433635D01*
X211816365Y-134580027D01*
X211911989Y-134723138D01*
X211931385Y-134752167D01*
X212010611Y-134943436D01*
X212051000Y-135146484D01*
X212051000Y-135353516D01*
X212010611Y-135556564D01*
X211934769Y-135739664D01*
X211931384Y-135747835D01*
X211816365Y-135919973D01*
X211669973Y-136066365D01*
X211497835Y-136181384D01*
X211497834Y-136181385D01*
X211497833Y-136181385D01*
X211306564Y-136260611D01*
X211103516Y-136301000D01*
X210896484Y-136301000D01*
X210693436Y-136260611D01*
X210502167Y-136181385D01*
X210502166Y-136181385D01*
X210502165Y-136181384D01*
X210330027Y-136066365D01*
X210183635Y-135919973D01*
X210068616Y-135747835D01*
X210065231Y-135739664D01*
X209989389Y-135556564D01*
X209949000Y-135353516D01*
X209949000Y-135146484D01*
X209989389Y-134943436D01*
X210068615Y-134752167D01*
X210088012Y-134723138D01*
X210183635Y-134580027D01*
X210330027Y-134433635D01*
X210502165Y-134318616D01*
X210579775Y-134286469D01*
X210693436Y-134239389D01*
X210896484Y-134199000D01*
X211103516Y-134199000D01*
X211306564Y-134239389D01*
G37*
G36*
X207051000Y-136301000D02*
G01*
X204949000Y-136301000D01*
X204949000Y-134199000D01*
X207051000Y-134199000D01*
X207051000Y-136301000D01*
G37*
G36*
X128186823Y-133491313D02*
G01*
X128347242Y-133539976D01*
X128428065Y-133583177D01*
X128495078Y-133618996D01*
X128624659Y-133725341D01*
X128731004Y-133854922D01*
X128731005Y-133854924D01*
X128810024Y-134002758D01*
X128858687Y-134163177D01*
X128875117Y-134330000D01*
X128858687Y-134496823D01*
X128810024Y-134657242D01*
X128759285Y-134752167D01*
X128731004Y-134805078D01*
X128624659Y-134934659D01*
X128495078Y-135041004D01*
X128495076Y-135041005D01*
X128347242Y-135120024D01*
X128186823Y-135168687D01*
X128061804Y-135181000D01*
X127178196Y-135181000D01*
X127053177Y-135168687D01*
X126892758Y-135120024D01*
X126744924Y-135041005D01*
X126744922Y-135041004D01*
X126615341Y-134934659D01*
X126508996Y-134805078D01*
X126480715Y-134752167D01*
X126429976Y-134657242D01*
X126381313Y-134496823D01*
X126364883Y-134330000D01*
X126381313Y-134163177D01*
X126429976Y-134002758D01*
X126508995Y-133854924D01*
X126508996Y-133854922D01*
X126615341Y-133725341D01*
X126744922Y-133618996D01*
X126811935Y-133583177D01*
X126892758Y-133539976D01*
X127053177Y-133491313D01*
X127178196Y-133479000D01*
X128061804Y-133479000D01*
X128186823Y-133491313D01*
G37*
G36*
X120566823Y-133491313D02*
G01*
X120727242Y-133539976D01*
X120808065Y-133583177D01*
X120875078Y-133618996D01*
X121004659Y-133725341D01*
X121111004Y-133854922D01*
X121111005Y-133854924D01*
X121190024Y-134002758D01*
X121238687Y-134163177D01*
X121255117Y-134330000D01*
X121238687Y-134496823D01*
X121190024Y-134657242D01*
X121139285Y-134752167D01*
X121111004Y-134805078D01*
X121004659Y-134934659D01*
X120875078Y-135041004D01*
X120875076Y-135041005D01*
X120727242Y-135120024D01*
X120566823Y-135168687D01*
X120441804Y-135181000D01*
X119558196Y-135181000D01*
X119433177Y-135168687D01*
X119272758Y-135120024D01*
X119124924Y-135041005D01*
X119124922Y-135041004D01*
X118995341Y-134934659D01*
X118888996Y-134805078D01*
X118860715Y-134752167D01*
X118809976Y-134657242D01*
X118761313Y-134496823D01*
X118744883Y-134330000D01*
X118761313Y-134163177D01*
X118809976Y-134002758D01*
X118888995Y-133854924D01*
X118888996Y-133854922D01*
X118995341Y-133725341D01*
X119124922Y-133618996D01*
X119191935Y-133583177D01*
X119272758Y-133539976D01*
X119433177Y-133491313D01*
X119558196Y-133479000D01*
X120441804Y-133479000D01*
X120566823Y-133491313D01*
G37*
G36*
X117334468Y-133778565D02*
G01*
X117373138Y-133790296D01*
X117408777Y-133809346D01*
X117440017Y-133834983D01*
X117465654Y-133866223D01*
X117484704Y-133901862D01*
X117496435Y-133940532D01*
X117501000Y-133986888D01*
X117501000Y-134638112D01*
X117496435Y-134684468D01*
X117484704Y-134723138D01*
X117465654Y-134758777D01*
X117440017Y-134790017D01*
X117408777Y-134815654D01*
X117373138Y-134834704D01*
X117334468Y-134846435D01*
X117288112Y-134851000D01*
X116211888Y-134851000D01*
X116165532Y-134846435D01*
X116126862Y-134834704D01*
X116091223Y-134815654D01*
X116059983Y-134790017D01*
X116034346Y-134758777D01*
X116015296Y-134723138D01*
X116003565Y-134684468D01*
X115999000Y-134638112D01*
X115999000Y-133986888D01*
X116003565Y-133940532D01*
X116015296Y-133901862D01*
X116034346Y-133866223D01*
X116059983Y-133834983D01*
X116091223Y-133809346D01*
X116126862Y-133790296D01*
X116165532Y-133778565D01*
X116211888Y-133774000D01*
X117288112Y-133774000D01*
X117334468Y-133778565D01*
G37*
G36*
X165351000Y-134651000D02*
G01*
X162049000Y-134651000D01*
X162049000Y-131349000D01*
X165351000Y-131349000D01*
X165351000Y-134651000D01*
G37*
G36*
X151373758Y-131391000D02*
G01*
X151481579Y-131412447D01*
X151694037Y-131500450D01*
X151715350Y-131509278D01*
X151782042Y-131536903D01*
X152052451Y-131717585D01*
X152282415Y-131947549D01*
X152463097Y-132217958D01*
X152587553Y-132518421D01*
X152651000Y-132837391D01*
X152651000Y-133162609D01*
X152587553Y-133481579D01*
X152463097Y-133782042D01*
X152282415Y-134052451D01*
X152052451Y-134282415D01*
X151782042Y-134463097D01*
X151481579Y-134587553D01*
X151413976Y-134601000D01*
X151162611Y-134651000D01*
X150837389Y-134651000D01*
X150586024Y-134601000D01*
X150518421Y-134587553D01*
X150217958Y-134463097D01*
X149947549Y-134282415D01*
X149717585Y-134052451D01*
X149536903Y-133782042D01*
X149412447Y-133481579D01*
X149349000Y-133162609D01*
X149349000Y-132837391D01*
X149412447Y-132518421D01*
X149536903Y-132217958D01*
X149717585Y-131947549D01*
X149947549Y-131717585D01*
X150217958Y-131536903D01*
X150284651Y-131509278D01*
X150305963Y-131500450D01*
X150518421Y-131412447D01*
X150626242Y-131391000D01*
X150837389Y-131349000D01*
X151162611Y-131349000D01*
X151373758Y-131391000D01*
G37*
G36*
X186423758Y-131391000D02*
G01*
X186531579Y-131412447D01*
X186744037Y-131500450D01*
X186765350Y-131509278D01*
X186832042Y-131536903D01*
X187102451Y-131717585D01*
X187332415Y-131947549D01*
X187513097Y-132217958D01*
X187637553Y-132518421D01*
X187701000Y-132837391D01*
X187701000Y-133162609D01*
X187637553Y-133481579D01*
X187513097Y-133782042D01*
X187332415Y-134052451D01*
X187102451Y-134282415D01*
X186832042Y-134463097D01*
X186531579Y-134587553D01*
X186463976Y-134601000D01*
X186212611Y-134651000D01*
X185887389Y-134651000D01*
X185636024Y-134601000D01*
X185568421Y-134587553D01*
X185267958Y-134463097D01*
X184997549Y-134282415D01*
X184767585Y-134052451D01*
X184586903Y-133782042D01*
X184462447Y-133481579D01*
X184399000Y-133162609D01*
X184399000Y-132837391D01*
X184462447Y-132518421D01*
X184586903Y-132217958D01*
X184767585Y-131947549D01*
X184997549Y-131717585D01*
X185267958Y-131536903D01*
X185334651Y-131509278D01*
X185355963Y-131500450D01*
X185568421Y-131412447D01*
X185676242Y-131391000D01*
X185887389Y-131349000D01*
X186212611Y-131349000D01*
X186423758Y-131391000D01*
G37*
G36*
X200401000Y-134651000D02*
G01*
X197099000Y-134651000D01*
X197099000Y-131349000D01*
X200401000Y-131349000D01*
X200401000Y-134651000D01*
G37*
G36*
X141186823Y-132911313D02*
G01*
X141347242Y-132959976D01*
X141479906Y-133030886D01*
X141495078Y-133038996D01*
X141624659Y-133145341D01*
X141731004Y-133274922D01*
X141731005Y-133274924D01*
X141810024Y-133422758D01*
X141858687Y-133583177D01*
X141875117Y-133750000D01*
X141858687Y-133916823D01*
X141810024Y-134077242D01*
X141764092Y-134163175D01*
X141731004Y-134225078D01*
X141624659Y-134354659D01*
X141495078Y-134461004D01*
X141495076Y-134461005D01*
X141347242Y-134540024D01*
X141186823Y-134588687D01*
X141061804Y-134601000D01*
X140178196Y-134601000D01*
X140053177Y-134588687D01*
X139892758Y-134540024D01*
X139744924Y-134461005D01*
X139744922Y-134461004D01*
X139615341Y-134354659D01*
X139508996Y-134225078D01*
X139475908Y-134163175D01*
X139429976Y-134077242D01*
X139381313Y-133916823D01*
X139364883Y-133750000D01*
X139381313Y-133583177D01*
X139429976Y-133422758D01*
X139508995Y-133274924D01*
X139508996Y-133274922D01*
X139615341Y-133145341D01*
X139744922Y-133038996D01*
X139760094Y-133030886D01*
X139892758Y-132959976D01*
X140053177Y-132911313D01*
X140178196Y-132899000D01*
X141061804Y-132899000D01*
X141186823Y-132911313D01*
G37*
G36*
X134251000Y-134601000D02*
G01*
X131749000Y-134601000D01*
X131749000Y-132899000D01*
X134251000Y-132899000D01*
X134251000Y-134601000D01*
G37*
G36*
X120566823Y-130951313D02*
G01*
X120727242Y-130999976D01*
X120859906Y-131070886D01*
X120875078Y-131078996D01*
X121004659Y-131185341D01*
X121111004Y-131314922D01*
X121111005Y-131314924D01*
X121190024Y-131462758D01*
X121238687Y-131623177D01*
X121255117Y-131790000D01*
X121238687Y-131956823D01*
X121190024Y-132117242D01*
X121136190Y-132217958D01*
X121111004Y-132265078D01*
X121004659Y-132394659D01*
X120875078Y-132501004D01*
X120875076Y-132501005D01*
X120727242Y-132580024D01*
X120566823Y-132628687D01*
X120441804Y-132641000D01*
X119558196Y-132641000D01*
X119433177Y-132628687D01*
X119272758Y-132580024D01*
X119124924Y-132501005D01*
X119124922Y-132501004D01*
X118995341Y-132394659D01*
X118888996Y-132265078D01*
X118863810Y-132217958D01*
X118809976Y-132117242D01*
X118761313Y-131956823D01*
X118744883Y-131790000D01*
X118761313Y-131623177D01*
X118809976Y-131462758D01*
X118888995Y-131314924D01*
X118888996Y-131314922D01*
X118995341Y-131185341D01*
X119124922Y-131078996D01*
X119140094Y-131070886D01*
X119272758Y-130999976D01*
X119433177Y-130951313D01*
X119558196Y-130939000D01*
X120441804Y-130939000D01*
X120566823Y-130951313D01*
G37*
G36*
X128186823Y-130951313D02*
G01*
X128347242Y-130999976D01*
X128479906Y-131070886D01*
X128495078Y-131078996D01*
X128624659Y-131185341D01*
X128731004Y-131314922D01*
X128731005Y-131314924D01*
X128810024Y-131462758D01*
X128858687Y-131623177D01*
X128875117Y-131790000D01*
X128858687Y-131956823D01*
X128810024Y-132117242D01*
X128756190Y-132217958D01*
X128731004Y-132265078D01*
X128624659Y-132394659D01*
X128495078Y-132501004D01*
X128495076Y-132501005D01*
X128347242Y-132580024D01*
X128186823Y-132628687D01*
X128061804Y-132641000D01*
X127178196Y-132641000D01*
X127053177Y-132628687D01*
X126892758Y-132580024D01*
X126744924Y-132501005D01*
X126744922Y-132501004D01*
X126615341Y-132394659D01*
X126508996Y-132265078D01*
X126483810Y-132217958D01*
X126429976Y-132117242D01*
X126381313Y-131956823D01*
X126364883Y-131790000D01*
X126381313Y-131623177D01*
X126429976Y-131462758D01*
X126508995Y-131314924D01*
X126508996Y-131314922D01*
X126615341Y-131185341D01*
X126744922Y-131078996D01*
X126760094Y-131070886D01*
X126892758Y-130999976D01*
X127053177Y-130951313D01*
X127178196Y-130939000D01*
X128061804Y-130939000D01*
X128186823Y-130951313D01*
G37*
G36*
X222800740Y-132420740D02*
G01*
X216699260Y-132420740D01*
X216699260Y-126319260D01*
X222800740Y-126319260D01*
X222800740Y-132420740D01*
G37*
G36*
X117334468Y-130653565D02*
G01*
X117373138Y-130665296D01*
X117408777Y-130684346D01*
X117440017Y-130709983D01*
X117465654Y-130741223D01*
X117484704Y-130776862D01*
X117496435Y-130815532D01*
X117501000Y-130861888D01*
X117501000Y-131513112D01*
X117496435Y-131559468D01*
X117484704Y-131598138D01*
X117465654Y-131633777D01*
X117440017Y-131665017D01*
X117408777Y-131690654D01*
X117373138Y-131709704D01*
X117334468Y-131721435D01*
X117288112Y-131726000D01*
X116211888Y-131726000D01*
X116165532Y-131721435D01*
X116126862Y-131709704D01*
X116091223Y-131690654D01*
X116059983Y-131665017D01*
X116034346Y-131633777D01*
X116015296Y-131598138D01*
X116003565Y-131559468D01*
X115999000Y-131513112D01*
X115999000Y-130861888D01*
X116003565Y-130815532D01*
X116015296Y-130776862D01*
X116034346Y-130741223D01*
X116059983Y-130709983D01*
X116091223Y-130684346D01*
X116126862Y-130665296D01*
X116165532Y-130653565D01*
X116211888Y-130649000D01*
X117288112Y-130649000D01*
X117334468Y-130653565D01*
G37*
G36*
X106248228Y-129721703D02*
G01*
X106403100Y-129785853D01*
X106542481Y-129878985D01*
X106661015Y-129997519D01*
X106754147Y-130136900D01*
X106818297Y-130291772D01*
X106851000Y-130456184D01*
X106851000Y-130623816D01*
X106818297Y-130788228D01*
X106754147Y-130943100D01*
X106661015Y-131082481D01*
X106542481Y-131201015D01*
X106403100Y-131294147D01*
X106248228Y-131358297D01*
X106083816Y-131391000D01*
X105916184Y-131391000D01*
X105751772Y-131358297D01*
X105596900Y-131294147D01*
X105457519Y-131201015D01*
X105338985Y-131082481D01*
X105245853Y-130943100D01*
X105181703Y-130788228D01*
X105149000Y-130623816D01*
X105149000Y-130456184D01*
X105181703Y-130291772D01*
X105245853Y-130136900D01*
X105338985Y-129997519D01*
X105457519Y-129878985D01*
X105596900Y-129785853D01*
X105751772Y-129721703D01*
X105916184Y-129689000D01*
X106083816Y-129689000D01*
X106248228Y-129721703D01*
G37*
G36*
X113868228Y-129721703D02*
G01*
X114023100Y-129785853D01*
X114162481Y-129878985D01*
X114281015Y-129997519D01*
X114374147Y-130136900D01*
X114438297Y-130291772D01*
X114471000Y-130456184D01*
X114471000Y-130623816D01*
X114438297Y-130788228D01*
X114374147Y-130943100D01*
X114281015Y-131082481D01*
X114162481Y-131201015D01*
X114023100Y-131294147D01*
X113868228Y-131358297D01*
X113703816Y-131391000D01*
X113536184Y-131391000D01*
X113371772Y-131358297D01*
X113216900Y-131294147D01*
X113077519Y-131201015D01*
X112958985Y-131082481D01*
X112865853Y-130943100D01*
X112801703Y-130788228D01*
X112769000Y-130623816D01*
X112769000Y-130456184D01*
X112801703Y-130291772D01*
X112865853Y-130136900D01*
X112958985Y-129997519D01*
X113077519Y-129878985D01*
X113216900Y-129785853D01*
X113371772Y-129721703D01*
X113536184Y-129689000D01*
X113703816Y-129689000D01*
X113868228Y-129721703D01*
G37*
G36*
X128186823Y-128411313D02*
G01*
X128347242Y-128459976D01*
X128479906Y-128530886D01*
X128495078Y-128538996D01*
X128624659Y-128645341D01*
X128731004Y-128774922D01*
X128731005Y-128774924D01*
X128810024Y-128922758D01*
X128858687Y-129083177D01*
X128875117Y-129250000D01*
X128858687Y-129416823D01*
X128810024Y-129577242D01*
X128777488Y-129638112D01*
X128731004Y-129725078D01*
X128624659Y-129854659D01*
X128495078Y-129961004D01*
X128495076Y-129961005D01*
X128347242Y-130040024D01*
X128186823Y-130088687D01*
X128061804Y-130101000D01*
X127178196Y-130101000D01*
X127053177Y-130088687D01*
X126892758Y-130040024D01*
X126744924Y-129961005D01*
X126744922Y-129961004D01*
X126615341Y-129854659D01*
X126508996Y-129725078D01*
X126462512Y-129638112D01*
X126429976Y-129577242D01*
X126381313Y-129416823D01*
X126364883Y-129250000D01*
X126381313Y-129083177D01*
X126429976Y-128922758D01*
X126508995Y-128774924D01*
X126508996Y-128774922D01*
X126615341Y-128645341D01*
X126744922Y-128538996D01*
X126760094Y-128530886D01*
X126892758Y-128459976D01*
X127053177Y-128411313D01*
X127178196Y-128399000D01*
X128061804Y-128399000D01*
X128186823Y-128411313D01*
G37*
G36*
X121251000Y-130101000D02*
G01*
X118749000Y-130101000D01*
X118749000Y-128399000D01*
X121251000Y-128399000D01*
X121251000Y-130101000D01*
G37*
G36*
X117334468Y-128778565D02*
G01*
X117373138Y-128790296D01*
X117408777Y-128809346D01*
X117440017Y-128834983D01*
X117465654Y-128866223D01*
X117484704Y-128901862D01*
X117496435Y-128940532D01*
X117501000Y-128986888D01*
X117501000Y-129638112D01*
X117496435Y-129684468D01*
X117484704Y-129723138D01*
X117465654Y-129758777D01*
X117440017Y-129790017D01*
X117408777Y-129815654D01*
X117373138Y-129834704D01*
X117334468Y-129846435D01*
X117288112Y-129851000D01*
X116211888Y-129851000D01*
X116165532Y-129846435D01*
X116126862Y-129834704D01*
X116091223Y-129815654D01*
X116059983Y-129790017D01*
X116034346Y-129758777D01*
X116015296Y-129723138D01*
X116003565Y-129684468D01*
X115999000Y-129638112D01*
X115999000Y-128986888D01*
X116003565Y-128940532D01*
X116015296Y-128901862D01*
X116034346Y-128866223D01*
X116059983Y-128834983D01*
X116091223Y-128809346D01*
X116126862Y-128790296D01*
X116165532Y-128778565D01*
X116211888Y-128774000D01*
X117288112Y-128774000D01*
X117334468Y-128778565D01*
G37*
G36*
X144584468Y-128153565D02*
G01*
X144623138Y-128165296D01*
X144658777Y-128184346D01*
X144690017Y-128209983D01*
X144715654Y-128241223D01*
X144734704Y-128276862D01*
X144746435Y-128315532D01*
X144751000Y-128361888D01*
X144751000Y-129013112D01*
X144746435Y-129059468D01*
X144734704Y-129098138D01*
X144715654Y-129133777D01*
X144690017Y-129165017D01*
X144658777Y-129190654D01*
X144623138Y-129209704D01*
X144584468Y-129221435D01*
X144538112Y-129226000D01*
X143461888Y-129226000D01*
X143415532Y-129221435D01*
X143376862Y-129209704D01*
X143341223Y-129190654D01*
X143309983Y-129165017D01*
X143284346Y-129133777D01*
X143265296Y-129098138D01*
X143253565Y-129059468D01*
X143249000Y-129013112D01*
X143249000Y-128361888D01*
X143253565Y-128315532D01*
X143265296Y-128276862D01*
X143284346Y-128241223D01*
X143309983Y-128209983D01*
X143341223Y-128184346D01*
X143376862Y-128165296D01*
X143415532Y-128153565D01*
X143461888Y-128149000D01*
X144538112Y-128149000D01*
X144584468Y-128153565D01*
G37*
G36*
X106851000Y-128851000D02*
G01*
X105149000Y-128851000D01*
X105149000Y-127149000D01*
X106851000Y-127149000D01*
X106851000Y-128851000D01*
G37*
G36*
X113868228Y-127181703D02*
G01*
X114023100Y-127245853D01*
X114162481Y-127338985D01*
X114281015Y-127457519D01*
X114374147Y-127596900D01*
X114438297Y-127751772D01*
X114471000Y-127916184D01*
X114471000Y-128083816D01*
X114438297Y-128248228D01*
X114374147Y-128403100D01*
X114281015Y-128542481D01*
X114162481Y-128661015D01*
X114023100Y-128754147D01*
X113868228Y-128818297D01*
X113703816Y-128851000D01*
X113536184Y-128851000D01*
X113371772Y-128818297D01*
X113216900Y-128754147D01*
X113077519Y-128661015D01*
X112958985Y-128542481D01*
X112865853Y-128403100D01*
X112801703Y-128248228D01*
X112769000Y-128083816D01*
X112769000Y-127916184D01*
X112801703Y-127751772D01*
X112865853Y-127596900D01*
X112958985Y-127457519D01*
X113077519Y-127338985D01*
X113216900Y-127245853D01*
X113371772Y-127181703D01*
X113536184Y-127149000D01*
X113703816Y-127149000D01*
X113868228Y-127181703D01*
G37*
G36*
X177550740Y-128800740D02*
G01*
X171449260Y-128800740D01*
X171449260Y-122699260D01*
X177550740Y-122699260D01*
X177550740Y-128800740D01*
G37*
G36*
X186425256Y-124391298D02*
G01*
X186531579Y-124412447D01*
X186832042Y-124536903D01*
X187102451Y-124717585D01*
X187332415Y-124947549D01*
X187513097Y-125217958D01*
X187609202Y-125449975D01*
X187637553Y-125518422D01*
X187686586Y-125764924D01*
X187701000Y-125837391D01*
X187701000Y-126162609D01*
X187637553Y-126481579D01*
X187513097Y-126782042D01*
X187332415Y-127052451D01*
X187102451Y-127282415D01*
X186832042Y-127463097D01*
X186531579Y-127587553D01*
X186484588Y-127596900D01*
X186212611Y-127651000D01*
X185887389Y-127651000D01*
X185615412Y-127596900D01*
X185568421Y-127587553D01*
X185267958Y-127463097D01*
X184997549Y-127282415D01*
X184767585Y-127052451D01*
X184586903Y-126782042D01*
X184462447Y-126481579D01*
X184399000Y-126162609D01*
X184399000Y-125837391D01*
X184413415Y-125764924D01*
X184462447Y-125518422D01*
X184490799Y-125449975D01*
X184586903Y-125217958D01*
X184767585Y-124947549D01*
X184997549Y-124717585D01*
X185267958Y-124536903D01*
X185568421Y-124412447D01*
X185674744Y-124391298D01*
X185887389Y-124349000D01*
X186212611Y-124349000D01*
X186425256Y-124391298D01*
G37*
G36*
X200401000Y-127651000D02*
G01*
X197099000Y-127651000D01*
X197099000Y-124349000D01*
X200401000Y-124349000D01*
X200401000Y-127651000D01*
G37*
G36*
X165351000Y-127651000D02*
G01*
X162049000Y-127651000D01*
X162049000Y-124349000D01*
X165351000Y-124349000D01*
X165351000Y-127651000D01*
G37*
G36*
X151375256Y-124391298D02*
G01*
X151481579Y-124412447D01*
X151782042Y-124536903D01*
X152052451Y-124717585D01*
X152282415Y-124947549D01*
X152463097Y-125217958D01*
X152559202Y-125449975D01*
X152587553Y-125518422D01*
X152636586Y-125764924D01*
X152651000Y-125837391D01*
X152651000Y-126162609D01*
X152587553Y-126481579D01*
X152463097Y-126782042D01*
X152282415Y-127052451D01*
X152052451Y-127282415D01*
X151782042Y-127463097D01*
X151481579Y-127587553D01*
X151434588Y-127596900D01*
X151162611Y-127651000D01*
X150837389Y-127651000D01*
X150565412Y-127596900D01*
X150518421Y-127587553D01*
X150217958Y-127463097D01*
X149947549Y-127282415D01*
X149717585Y-127052451D01*
X149536903Y-126782042D01*
X149412447Y-126481579D01*
X149349000Y-126162609D01*
X149349000Y-125837391D01*
X149363415Y-125764924D01*
X149412447Y-125518422D01*
X149440799Y-125449975D01*
X149536903Y-125217958D01*
X149717585Y-124947549D01*
X149947549Y-124717585D01*
X150217958Y-124536903D01*
X150518421Y-124412447D01*
X150624744Y-124391298D01*
X150837389Y-124349000D01*
X151162611Y-124349000D01*
X151375256Y-124391298D01*
G37*
G36*
X144584468Y-126278565D02*
G01*
X144623138Y-126290296D01*
X144658777Y-126309346D01*
X144690017Y-126334983D01*
X144715654Y-126366223D01*
X144734704Y-126401862D01*
X144746435Y-126440532D01*
X144751000Y-126486888D01*
X144751000Y-127138112D01*
X144746435Y-127184468D01*
X144734704Y-127223138D01*
X144715654Y-127258777D01*
X144690017Y-127290017D01*
X144658777Y-127315654D01*
X144623138Y-127334704D01*
X144584468Y-127346435D01*
X144538112Y-127351000D01*
X143461888Y-127351000D01*
X143415532Y-127346435D01*
X143376862Y-127334704D01*
X143341223Y-127315654D01*
X143309983Y-127290017D01*
X143284346Y-127258777D01*
X143265296Y-127223138D01*
X143253565Y-127184468D01*
X143249000Y-127138112D01*
X143249000Y-126486888D01*
X143253565Y-126440532D01*
X143265296Y-126401862D01*
X143284346Y-126366223D01*
X143309983Y-126334983D01*
X143341223Y-126309346D01*
X143376862Y-126290296D01*
X143415532Y-126278565D01*
X143461888Y-126274000D01*
X144538112Y-126274000D01*
X144584468Y-126278565D01*
G37*
G36*
X133566823Y-125401313D02*
G01*
X133727242Y-125449976D01*
X133855293Y-125518421D01*
X133875078Y-125528996D01*
X134004659Y-125635341D01*
X134111004Y-125764922D01*
X134111005Y-125764924D01*
X134190024Y-125912758D01*
X134238687Y-126073177D01*
X134255117Y-126240000D01*
X134238687Y-126406823D01*
X134190024Y-126567242D01*
X134119114Y-126699906D01*
X134111004Y-126715078D01*
X134004659Y-126844659D01*
X133875078Y-126951004D01*
X133875076Y-126951005D01*
X133727242Y-127030024D01*
X133566823Y-127078687D01*
X133441804Y-127091000D01*
X132558196Y-127091000D01*
X132433177Y-127078687D01*
X132272758Y-127030024D01*
X132124924Y-126951005D01*
X132124922Y-126951004D01*
X131995341Y-126844659D01*
X131888996Y-126715078D01*
X131880886Y-126699906D01*
X131809976Y-126567242D01*
X131761313Y-126406823D01*
X131744883Y-126240000D01*
X131761313Y-126073177D01*
X131809976Y-125912758D01*
X131888995Y-125764924D01*
X131888996Y-125764922D01*
X131995341Y-125635341D01*
X132124922Y-125528996D01*
X132144707Y-125518421D01*
X132272758Y-125449976D01*
X132433177Y-125401313D01*
X132558196Y-125389000D01*
X133441804Y-125389000D01*
X133566823Y-125401313D01*
G37*
G36*
X141186823Y-125401313D02*
G01*
X141347242Y-125449976D01*
X141475293Y-125518421D01*
X141495078Y-125528996D01*
X141624659Y-125635341D01*
X141731004Y-125764922D01*
X141731005Y-125764924D01*
X141810024Y-125912758D01*
X141858687Y-126073177D01*
X141875117Y-126240000D01*
X141858687Y-126406823D01*
X141810024Y-126567242D01*
X141739114Y-126699906D01*
X141731004Y-126715078D01*
X141624659Y-126844659D01*
X141495078Y-126951004D01*
X141495076Y-126951005D01*
X141347242Y-127030024D01*
X141186823Y-127078687D01*
X141061804Y-127091000D01*
X140178196Y-127091000D01*
X140053177Y-127078687D01*
X139892758Y-127030024D01*
X139744924Y-126951005D01*
X139744922Y-126951004D01*
X139615341Y-126844659D01*
X139508996Y-126715078D01*
X139500886Y-126699906D01*
X139429976Y-126567242D01*
X139381313Y-126406823D01*
X139364883Y-126240000D01*
X139381313Y-126073177D01*
X139429976Y-125912758D01*
X139508995Y-125764924D01*
X139508996Y-125764922D01*
X139615341Y-125635341D01*
X139744922Y-125528996D01*
X139764707Y-125518421D01*
X139892758Y-125449976D01*
X140053177Y-125401313D01*
X140178196Y-125389000D01*
X141061804Y-125389000D01*
X141186823Y-125401313D01*
G37*
G36*
X144224549Y-122531116D02*
G01*
X144335734Y-122553232D01*
X144545203Y-122639997D01*
X144733720Y-122765960D01*
X144894040Y-122926280D01*
X144944746Y-123002167D01*
X145020004Y-123114799D01*
X145106768Y-123324267D01*
X145148323Y-123533175D01*
X145151000Y-123546636D01*
X145151000Y-123773364D01*
X145106768Y-123995734D01*
X145020003Y-124205203D01*
X144894040Y-124393720D01*
X144733720Y-124554040D01*
X144545203Y-124680003D01*
X144335734Y-124766768D01*
X144224549Y-124788884D01*
X144113365Y-124811000D01*
X143886635Y-124811000D01*
X143775451Y-124788884D01*
X143664266Y-124766768D01*
X143454797Y-124680003D01*
X143266280Y-124554040D01*
X143105960Y-124393720D01*
X142979997Y-124205203D01*
X142893232Y-123995734D01*
X142849000Y-123773364D01*
X142849000Y-123546636D01*
X142851678Y-123533175D01*
X142893232Y-123324267D01*
X142979996Y-123114799D01*
X143055254Y-123002167D01*
X143105960Y-122926280D01*
X143266280Y-122765960D01*
X143454797Y-122639997D01*
X143664266Y-122553232D01*
X143775451Y-122531116D01*
X143886635Y-122509000D01*
X144113365Y-122509000D01*
X144224549Y-122531116D01*
G37*
G36*
X141186823Y-122861313D02*
G01*
X141347242Y-122909976D01*
X141479906Y-122980886D01*
X141495078Y-122988996D01*
X141624659Y-123095341D01*
X141731004Y-123224922D01*
X141731005Y-123224924D01*
X141810024Y-123372758D01*
X141858687Y-123533177D01*
X141875117Y-123700000D01*
X141858687Y-123866823D01*
X141810024Y-124027242D01*
X141739114Y-124159906D01*
X141731004Y-124175078D01*
X141624659Y-124304659D01*
X141495078Y-124411004D01*
X141495076Y-124411005D01*
X141347242Y-124490024D01*
X141186823Y-124538687D01*
X141061804Y-124551000D01*
X140178196Y-124551000D01*
X140053177Y-124538687D01*
X139892758Y-124490024D01*
X139744924Y-124411005D01*
X139744922Y-124411004D01*
X139615341Y-124304659D01*
X139508996Y-124175078D01*
X139500886Y-124159906D01*
X139429976Y-124027242D01*
X139381313Y-123866823D01*
X139364883Y-123700000D01*
X139381313Y-123533177D01*
X139429976Y-123372758D01*
X139508995Y-123224924D01*
X139508996Y-123224922D01*
X139615341Y-123095341D01*
X139744922Y-122988996D01*
X139760094Y-122980886D01*
X139892758Y-122909976D01*
X140053177Y-122861313D01*
X140178196Y-122849000D01*
X141061804Y-122849000D01*
X141186823Y-122861313D01*
G37*
G36*
X207051000Y-124551000D02*
G01*
X204949000Y-124551000D01*
X204949000Y-122449000D01*
X207051000Y-122449000D01*
X207051000Y-124551000D01*
G37*
G36*
X211306564Y-122489389D02*
G01*
X211497833Y-122568615D01*
X211497835Y-122568616D01*
X211669973Y-122683635D01*
X211816365Y-122830027D01*
X211922585Y-122988996D01*
X211931385Y-123002167D01*
X212010611Y-123193436D01*
X212051000Y-123396484D01*
X212051000Y-123603516D01*
X212010611Y-123806564D01*
X211985651Y-123866823D01*
X211931384Y-123997835D01*
X211816365Y-124169973D01*
X211669973Y-124316365D01*
X211497835Y-124431384D01*
X211497834Y-124431385D01*
X211497833Y-124431385D01*
X211306564Y-124510611D01*
X211103516Y-124551000D01*
X210896484Y-124551000D01*
X210693436Y-124510611D01*
X210502167Y-124431385D01*
X210502166Y-124431385D01*
X210502165Y-124431384D01*
X210330027Y-124316365D01*
X210183635Y-124169973D01*
X210068616Y-123997835D01*
X210014349Y-123866823D01*
X209989389Y-123806564D01*
X209949000Y-123603516D01*
X209949000Y-123396484D01*
X209989389Y-123193436D01*
X210068615Y-123002167D01*
X210077416Y-122988996D01*
X210183635Y-122830027D01*
X210330027Y-122683635D01*
X210502165Y-122568616D01*
X210502167Y-122568615D01*
X210693436Y-122489389D01*
X210896484Y-122449000D01*
X211103516Y-122449000D01*
X211306564Y-122489389D01*
G37*
G36*
X133566823Y-122861313D02*
G01*
X133727242Y-122909976D01*
X133859906Y-122980886D01*
X133875078Y-122988996D01*
X134004659Y-123095341D01*
X134111004Y-123224922D01*
X134111005Y-123224924D01*
X134190024Y-123372758D01*
X134238687Y-123533177D01*
X134255117Y-123700000D01*
X134238687Y-123866823D01*
X134190024Y-124027242D01*
X134119114Y-124159906D01*
X134111004Y-124175078D01*
X134004659Y-124304659D01*
X133875078Y-124411004D01*
X133875076Y-124411005D01*
X133727242Y-124490024D01*
X133566823Y-124538687D01*
X133441804Y-124551000D01*
X132558196Y-124551000D01*
X132433177Y-124538687D01*
X132272758Y-124490024D01*
X132124924Y-124411005D01*
X132124922Y-124411004D01*
X131995341Y-124304659D01*
X131888996Y-124175078D01*
X131880886Y-124159906D01*
X131809976Y-124027242D01*
X131761313Y-123866823D01*
X131744883Y-123700000D01*
X131761313Y-123533177D01*
X131809976Y-123372758D01*
X131888995Y-123224924D01*
X131888996Y-123224922D01*
X131995341Y-123095341D01*
X132124922Y-122988996D01*
X132140094Y-122980886D01*
X132272758Y-122909976D01*
X132433177Y-122861313D01*
X132558196Y-122849000D01*
X133441804Y-122849000D01*
X133566823Y-122861313D01*
G37*
G36*
X119863512Y-121353927D02*
G01*
X120012812Y-121383624D01*
X120176784Y-121451544D01*
X120324354Y-121550147D01*
X120449853Y-121675646D01*
X120548456Y-121823216D01*
X120616376Y-121987188D01*
X120651000Y-122161259D01*
X120651000Y-122338741D01*
X120616376Y-122512812D01*
X120548456Y-122676784D01*
X120449853Y-122824354D01*
X120324354Y-122949853D01*
X120176784Y-123048456D01*
X120012812Y-123116376D01*
X119863512Y-123146073D01*
X119838742Y-123151000D01*
X119661258Y-123151000D01*
X119636488Y-123146073D01*
X119487188Y-123116376D01*
X119323216Y-123048456D01*
X119175646Y-122949853D01*
X119050147Y-122824354D01*
X118951544Y-122676784D01*
X118883624Y-122512812D01*
X118849000Y-122338741D01*
X118849000Y-122161259D01*
X118883624Y-121987188D01*
X118951544Y-121823216D01*
X119050147Y-121675646D01*
X119175646Y-121550147D01*
X119323216Y-121451544D01*
X119487188Y-121383624D01*
X119636488Y-121353927D01*
X119661258Y-121349000D01*
X119838742Y-121349000D01*
X119863512Y-121353927D01*
G37*
G36*
X141186823Y-120321313D02*
G01*
X141347242Y-120369976D01*
X141479906Y-120440886D01*
X141495078Y-120448996D01*
X141624659Y-120555341D01*
X141731004Y-120684922D01*
X141731005Y-120684924D01*
X141810024Y-120832758D01*
X141858687Y-120993177D01*
X141875117Y-121160000D01*
X141858687Y-121326823D01*
X141810024Y-121487242D01*
X141776400Y-121550148D01*
X141731004Y-121635078D01*
X141624659Y-121764659D01*
X141495078Y-121871004D01*
X141495076Y-121871005D01*
X141347242Y-121950024D01*
X141186823Y-121998687D01*
X141061804Y-122011000D01*
X140178196Y-122011000D01*
X140053177Y-121998687D01*
X139892758Y-121950024D01*
X139744924Y-121871005D01*
X139744922Y-121871004D01*
X139615341Y-121764659D01*
X139508996Y-121635078D01*
X139463600Y-121550148D01*
X139429976Y-121487242D01*
X139381313Y-121326823D01*
X139364883Y-121160000D01*
X139381313Y-120993177D01*
X139429976Y-120832758D01*
X139508995Y-120684924D01*
X139508996Y-120684922D01*
X139615341Y-120555341D01*
X139744922Y-120448996D01*
X139760094Y-120440886D01*
X139892758Y-120369976D01*
X140053177Y-120321313D01*
X140178196Y-120309000D01*
X141061804Y-120309000D01*
X141186823Y-120321313D01*
G37*
G36*
X133566823Y-120321313D02*
G01*
X133727242Y-120369976D01*
X133859906Y-120440886D01*
X133875078Y-120448996D01*
X134004659Y-120555341D01*
X134111004Y-120684922D01*
X134111005Y-120684924D01*
X134190024Y-120832758D01*
X134238687Y-120993177D01*
X134255117Y-121160000D01*
X134238687Y-121326823D01*
X134190024Y-121487242D01*
X134156400Y-121550148D01*
X134111004Y-121635078D01*
X134004659Y-121764659D01*
X133875078Y-121871004D01*
X133875076Y-121871005D01*
X133727242Y-121950024D01*
X133566823Y-121998687D01*
X133441804Y-122011000D01*
X132558196Y-122011000D01*
X132433177Y-121998687D01*
X132272758Y-121950024D01*
X132124924Y-121871005D01*
X132124922Y-121871004D01*
X131995341Y-121764659D01*
X131888996Y-121635078D01*
X131843600Y-121550148D01*
X131809976Y-121487242D01*
X131761313Y-121326823D01*
X131744883Y-121160000D01*
X131761313Y-120993177D01*
X131809976Y-120832758D01*
X131888995Y-120684924D01*
X131888996Y-120684922D01*
X131995341Y-120555341D01*
X132124922Y-120448996D01*
X132140094Y-120440886D01*
X132272758Y-120369976D01*
X132433177Y-120321313D01*
X132558196Y-120309000D01*
X133441804Y-120309000D01*
X133566823Y-120321313D01*
G37*
G36*
X126748228Y-119681703D02*
G01*
X126903100Y-119745853D01*
X127042481Y-119838985D01*
X127161015Y-119957519D01*
X127254147Y-120096900D01*
X127318297Y-120251772D01*
X127351000Y-120416184D01*
X127351000Y-120583816D01*
X127318297Y-120748228D01*
X127254147Y-120903100D01*
X127161015Y-121042481D01*
X127042481Y-121161015D01*
X126903100Y-121254147D01*
X126748228Y-121318297D01*
X126583816Y-121351000D01*
X126416184Y-121351000D01*
X126251772Y-121318297D01*
X126096900Y-121254147D01*
X125957519Y-121161015D01*
X125838985Y-121042481D01*
X125745853Y-120903100D01*
X125681703Y-120748228D01*
X125649000Y-120583816D01*
X125649000Y-120416184D01*
X125681703Y-120251772D01*
X125745853Y-120096900D01*
X125838985Y-119957519D01*
X125957519Y-119838985D01*
X126096900Y-119745853D01*
X126251772Y-119681703D01*
X126416184Y-119649000D01*
X126583816Y-119649000D01*
X126748228Y-119681703D01*
G37*
G36*
X124851000Y-121351000D02*
G01*
X123149000Y-121351000D01*
X123149000Y-119649000D01*
X124851000Y-119649000D01*
X124851000Y-121351000D01*
G37*
G36*
X120651000Y-120611000D02*
G01*
X118849000Y-120611000D01*
X118849000Y-118809000D01*
X120651000Y-118809000D01*
X120651000Y-120611000D01*
G37*
G36*
X133566823Y-117781313D02*
G01*
X133727242Y-117829976D01*
X133856377Y-117899000D01*
X133875078Y-117908996D01*
X134004659Y-118015341D01*
X134111004Y-118144922D01*
X134111005Y-118144924D01*
X134190024Y-118292758D01*
X134238687Y-118453177D01*
X134255117Y-118620000D01*
X134238687Y-118786823D01*
X134220087Y-118848138D01*
X134192023Y-118940654D01*
X134190024Y-118947242D01*
X134119114Y-119079906D01*
X134111004Y-119095078D01*
X134004659Y-119224659D01*
X133875078Y-119331004D01*
X133875076Y-119331005D01*
X133727242Y-119410024D01*
X133566823Y-119458687D01*
X133441804Y-119471000D01*
X132558196Y-119471000D01*
X132433177Y-119458687D01*
X132272758Y-119410024D01*
X132124924Y-119331005D01*
X132124922Y-119331004D01*
X131995341Y-119224659D01*
X131888996Y-119095078D01*
X131880886Y-119079906D01*
X131809976Y-118947242D01*
X131807978Y-118940654D01*
X131779913Y-118848138D01*
X131761313Y-118786823D01*
X131744883Y-118620000D01*
X131761313Y-118453177D01*
X131809976Y-118292758D01*
X131888995Y-118144924D01*
X131888996Y-118144922D01*
X131995341Y-118015341D01*
X132124922Y-117908996D01*
X132143623Y-117899000D01*
X132272758Y-117829976D01*
X132433177Y-117781313D01*
X132558196Y-117769000D01*
X133441804Y-117769000D01*
X133566823Y-117781313D01*
G37*
G36*
X141186823Y-117781313D02*
G01*
X141347242Y-117829976D01*
X141476377Y-117899000D01*
X141495078Y-117908996D01*
X141624659Y-118015341D01*
X141731004Y-118144922D01*
X141731005Y-118144924D01*
X141810024Y-118292758D01*
X141858687Y-118453177D01*
X141875117Y-118620000D01*
X141858687Y-118786823D01*
X141840087Y-118848138D01*
X141812023Y-118940654D01*
X141810024Y-118947242D01*
X141739114Y-119079906D01*
X141731004Y-119095078D01*
X141624659Y-119224659D01*
X141495078Y-119331004D01*
X141495076Y-119331005D01*
X141347242Y-119410024D01*
X141186823Y-119458687D01*
X141061804Y-119471000D01*
X140178196Y-119471000D01*
X140053177Y-119458687D01*
X139892758Y-119410024D01*
X139744924Y-119331005D01*
X139744922Y-119331004D01*
X139615341Y-119224659D01*
X139508996Y-119095078D01*
X139500886Y-119079906D01*
X139429976Y-118947242D01*
X139427978Y-118940654D01*
X139399913Y-118848138D01*
X139381313Y-118786823D01*
X139364883Y-118620000D01*
X139381313Y-118453177D01*
X139429976Y-118292758D01*
X139508995Y-118144924D01*
X139508996Y-118144922D01*
X139615341Y-118015341D01*
X139744922Y-117908996D01*
X139763623Y-117899000D01*
X139892758Y-117829976D01*
X140053177Y-117781313D01*
X140178196Y-117769000D01*
X141061804Y-117769000D01*
X141186823Y-117781313D01*
G37*
G36*
X130834468Y-117903565D02*
G01*
X130873138Y-117915296D01*
X130908777Y-117934346D01*
X130940017Y-117959983D01*
X130965654Y-117991223D01*
X130984704Y-118026862D01*
X130996435Y-118065532D01*
X131001000Y-118111888D01*
X131001000Y-118763112D01*
X130996435Y-118809468D01*
X130984704Y-118848138D01*
X130965654Y-118883777D01*
X130940017Y-118915017D01*
X130908777Y-118940654D01*
X130873138Y-118959704D01*
X130834468Y-118971435D01*
X130788112Y-118976000D01*
X129711888Y-118976000D01*
X129665532Y-118971435D01*
X129626862Y-118959704D01*
X129591223Y-118940654D01*
X129559983Y-118915017D01*
X129534346Y-118883777D01*
X129515296Y-118848138D01*
X129503565Y-118809468D01*
X129499000Y-118763112D01*
X129499000Y-118111888D01*
X129503565Y-118065532D01*
X129515296Y-118026862D01*
X129534346Y-117991223D01*
X129559983Y-117959983D01*
X129591223Y-117934346D01*
X129626862Y-117915296D01*
X129665532Y-117903565D01*
X129711888Y-117899000D01*
X130788112Y-117899000D01*
X130834468Y-117903565D01*
G37*
G36*
X121750000Y-118000000D02*
G01*
X103000000Y-118000000D01*
X103000000Y-106500000D01*
X121750000Y-106500000D01*
X121750000Y-118000000D01*
G37*
G36*
X127559468Y-115753565D02*
G01*
X127598138Y-115765296D01*
X127633777Y-115784346D01*
X127665017Y-115809983D01*
X127690654Y-115841223D01*
X127709704Y-115876862D01*
X127721435Y-115915532D01*
X127726000Y-115961888D01*
X127726000Y-117038112D01*
X127721435Y-117084468D01*
X127709704Y-117123138D01*
X127690654Y-117158777D01*
X127665017Y-117190017D01*
X127633777Y-117215654D01*
X127598138Y-117234704D01*
X127559468Y-117246435D01*
X127513112Y-117251000D01*
X126861888Y-117251000D01*
X126815532Y-117246435D01*
X126776862Y-117234704D01*
X126741223Y-117215654D01*
X126709983Y-117190017D01*
X126684346Y-117158777D01*
X126665296Y-117123138D01*
X126653565Y-117084468D01*
X126649000Y-117038112D01*
X126649000Y-115961888D01*
X126653565Y-115915532D01*
X126665296Y-115876862D01*
X126684346Y-115841223D01*
X126709983Y-115809983D01*
X126741223Y-115784346D01*
X126776862Y-115765296D01*
X126815532Y-115753565D01*
X126861888Y-115749000D01*
X127513112Y-115749000D01*
X127559468Y-115753565D01*
G37*
G36*
X125684468Y-115753565D02*
G01*
X125723138Y-115765296D01*
X125758777Y-115784346D01*
X125790017Y-115809983D01*
X125815654Y-115841223D01*
X125834704Y-115876862D01*
X125846435Y-115915532D01*
X125851000Y-115961888D01*
X125851000Y-117038112D01*
X125846435Y-117084468D01*
X125834704Y-117123138D01*
X125815654Y-117158777D01*
X125790017Y-117190017D01*
X125758777Y-117215654D01*
X125723138Y-117234704D01*
X125684468Y-117246435D01*
X125638112Y-117251000D01*
X124986888Y-117251000D01*
X124940532Y-117246435D01*
X124901862Y-117234704D01*
X124866223Y-117215654D01*
X124834983Y-117190017D01*
X124809346Y-117158777D01*
X124790296Y-117123138D01*
X124778565Y-117084468D01*
X124774000Y-117038112D01*
X124774000Y-115961888D01*
X124778565Y-115915532D01*
X124790296Y-115876862D01*
X124809346Y-115841223D01*
X124834983Y-115809983D01*
X124866223Y-115784346D01*
X124901862Y-115765296D01*
X124940532Y-115753565D01*
X124986888Y-115749000D01*
X125638112Y-115749000D01*
X125684468Y-115753565D01*
G37*
G36*
X130834468Y-116028565D02*
G01*
X130873138Y-116040296D01*
X130908777Y-116059346D01*
X130940017Y-116084983D01*
X130965654Y-116116223D01*
X130984704Y-116151862D01*
X130996435Y-116190532D01*
X131001000Y-116236888D01*
X131001000Y-116888112D01*
X130996435Y-116934468D01*
X130984704Y-116973138D01*
X130965654Y-117008777D01*
X130940017Y-117040017D01*
X130908777Y-117065654D01*
X130873138Y-117084704D01*
X130834468Y-117096435D01*
X130788112Y-117101000D01*
X129711888Y-117101000D01*
X129665532Y-117096435D01*
X129626862Y-117084704D01*
X129591223Y-117065654D01*
X129559983Y-117040017D01*
X129534346Y-117008777D01*
X129515296Y-116973138D01*
X129503565Y-116934468D01*
X129499000Y-116888112D01*
X129499000Y-116236888D01*
X129503565Y-116190532D01*
X129515296Y-116151862D01*
X129534346Y-116116223D01*
X129559983Y-116084983D01*
X129591223Y-116059346D01*
X129626862Y-116040296D01*
X129665532Y-116028565D01*
X129711888Y-116024000D01*
X130788112Y-116024000D01*
X130834468Y-116028565D01*
G37*
G36*
X133566823Y-115241313D02*
G01*
X133727242Y-115289976D01*
X133776612Y-115316365D01*
X133875078Y-115368996D01*
X134004659Y-115475341D01*
X134111004Y-115604922D01*
X134111005Y-115604924D01*
X134190024Y-115752758D01*
X134238687Y-115913177D01*
X134255117Y-116080000D01*
X134238687Y-116246823D01*
X134190024Y-116407242D01*
X134119114Y-116539906D01*
X134111004Y-116555078D01*
X134004659Y-116684659D01*
X133875078Y-116791004D01*
X133875076Y-116791005D01*
X133727242Y-116870024D01*
X133566823Y-116918687D01*
X133441804Y-116931000D01*
X132558196Y-116931000D01*
X132433177Y-116918687D01*
X132272758Y-116870024D01*
X132124924Y-116791005D01*
X132124922Y-116791004D01*
X131995341Y-116684659D01*
X131888996Y-116555078D01*
X131880886Y-116539906D01*
X131809976Y-116407242D01*
X131761313Y-116246823D01*
X131744883Y-116080000D01*
X131761313Y-115913177D01*
X131809976Y-115752758D01*
X131888995Y-115604924D01*
X131888996Y-115604922D01*
X131995341Y-115475341D01*
X132124922Y-115368996D01*
X132223388Y-115316365D01*
X132272758Y-115289976D01*
X132433177Y-115241313D01*
X132558196Y-115229000D01*
X133441804Y-115229000D01*
X133566823Y-115241313D01*
G37*
G36*
X141186823Y-115241313D02*
G01*
X141347242Y-115289976D01*
X141396612Y-115316365D01*
X141495078Y-115368996D01*
X141624659Y-115475341D01*
X141731004Y-115604922D01*
X141731005Y-115604924D01*
X141810024Y-115752758D01*
X141858687Y-115913177D01*
X141875117Y-116080000D01*
X141858687Y-116246823D01*
X141810024Y-116407242D01*
X141739114Y-116539906D01*
X141731004Y-116555078D01*
X141624659Y-116684659D01*
X141495078Y-116791004D01*
X141495076Y-116791005D01*
X141347242Y-116870024D01*
X141186823Y-116918687D01*
X141061804Y-116931000D01*
X140178196Y-116931000D01*
X140053177Y-116918687D01*
X139892758Y-116870024D01*
X139744924Y-116791005D01*
X139744922Y-116791004D01*
X139615341Y-116684659D01*
X139508996Y-116555078D01*
X139500886Y-116539906D01*
X139429976Y-116407242D01*
X139381313Y-116246823D01*
X139364883Y-116080000D01*
X139381313Y-115913177D01*
X139429976Y-115752758D01*
X139508995Y-115604924D01*
X139508996Y-115604922D01*
X139615341Y-115475341D01*
X139744922Y-115368996D01*
X139843388Y-115316365D01*
X139892758Y-115289976D01*
X140053177Y-115241313D01*
X140178196Y-115229000D01*
X141061804Y-115229000D01*
X141186823Y-115241313D01*
G37*
G36*
X124301000Y-115753500D02*
G01*
X122199000Y-115753500D01*
X122199000Y-113746500D01*
X124301000Y-113746500D01*
X124301000Y-115753500D01*
G37*
G36*
X206306564Y-113489389D02*
G01*
X206497833Y-113568615D01*
X206497835Y-113568616D01*
X206669973Y-113683635D01*
X206816365Y-113830027D01*
X206924073Y-113991223D01*
X206931385Y-114002167D01*
X207010611Y-114193436D01*
X207051000Y-114396484D01*
X207051000Y-114603516D01*
X207010611Y-114806564D01*
X206931385Y-114997833D01*
X206931384Y-114997835D01*
X206816365Y-115169973D01*
X206669973Y-115316365D01*
X206497835Y-115431384D01*
X206497834Y-115431385D01*
X206497833Y-115431385D01*
X206306564Y-115510611D01*
X206103516Y-115551000D01*
X205896484Y-115551000D01*
X205693436Y-115510611D01*
X205502167Y-115431385D01*
X205502166Y-115431385D01*
X205502165Y-115431384D01*
X205330027Y-115316365D01*
X205183635Y-115169973D01*
X205068616Y-114997835D01*
X205068615Y-114997833D01*
X204989389Y-114806564D01*
X204949000Y-114603516D01*
X204949000Y-114396484D01*
X204989389Y-114193436D01*
X205068615Y-114002167D01*
X205075928Y-113991223D01*
X205183635Y-113830027D01*
X205330027Y-113683635D01*
X205502165Y-113568616D01*
X205502167Y-113568615D01*
X205693436Y-113489389D01*
X205896484Y-113449000D01*
X206103516Y-113449000D01*
X206306564Y-113489389D01*
G37*
G36*
X216306564Y-113489389D02*
G01*
X216497833Y-113568615D01*
X216497835Y-113568616D01*
X216669973Y-113683635D01*
X216816365Y-113830027D01*
X216924073Y-113991223D01*
X216931385Y-114002167D01*
X217010611Y-114193436D01*
X217051000Y-114396484D01*
X217051000Y-114603516D01*
X217010611Y-114806564D01*
X216931385Y-114997833D01*
X216931384Y-114997835D01*
X216816365Y-115169973D01*
X216669973Y-115316365D01*
X216497835Y-115431384D01*
X216497834Y-115431385D01*
X216497833Y-115431385D01*
X216306564Y-115510611D01*
X216103516Y-115551000D01*
X215896484Y-115551000D01*
X215693436Y-115510611D01*
X215502167Y-115431385D01*
X215502166Y-115431385D01*
X215502165Y-115431384D01*
X215330027Y-115316365D01*
X215183635Y-115169973D01*
X215068616Y-114997835D01*
X215068615Y-114997833D01*
X214989389Y-114806564D01*
X214949000Y-114603516D01*
X214949000Y-114396484D01*
X214989389Y-114193436D01*
X215068615Y-114002167D01*
X215075928Y-113991223D01*
X215183635Y-113830027D01*
X215330027Y-113683635D01*
X215502165Y-113568616D01*
X215502167Y-113568615D01*
X215693436Y-113489389D01*
X215896484Y-113449000D01*
X216103516Y-113449000D01*
X216306564Y-113489389D01*
G37*
G36*
X126834468Y-113903565D02*
G01*
X126873138Y-113915296D01*
X126908777Y-113934346D01*
X126940017Y-113959983D01*
X126965654Y-113991223D01*
X126984704Y-114026862D01*
X126996435Y-114065532D01*
X127001000Y-114111888D01*
X127001000Y-114763112D01*
X126996435Y-114809468D01*
X126984704Y-114848138D01*
X126965654Y-114883777D01*
X126940017Y-114915017D01*
X126908777Y-114940654D01*
X126873138Y-114959704D01*
X126834468Y-114971435D01*
X126788112Y-114976000D01*
X125711888Y-114976000D01*
X125665532Y-114971435D01*
X125626862Y-114959704D01*
X125591223Y-114940654D01*
X125559983Y-114915017D01*
X125534346Y-114883777D01*
X125515296Y-114848138D01*
X125503565Y-114809468D01*
X125499000Y-114763112D01*
X125499000Y-114111888D01*
X125503565Y-114065532D01*
X125515296Y-114026862D01*
X125534346Y-113991223D01*
X125559983Y-113959983D01*
X125591223Y-113934346D01*
X125626862Y-113915296D01*
X125665532Y-113903565D01*
X125711888Y-113899000D01*
X126788112Y-113899000D01*
X126834468Y-113903565D01*
G37*
G36*
X145151000Y-114651000D02*
G01*
X142849000Y-114651000D01*
X142849000Y-112349000D01*
X145151000Y-112349000D01*
X145151000Y-114651000D01*
G37*
G36*
X133566823Y-112701313D02*
G01*
X133727242Y-112749976D01*
X133859906Y-112820886D01*
X133875078Y-112828996D01*
X134004659Y-112935341D01*
X134111004Y-113064922D01*
X134111005Y-113064924D01*
X134190024Y-113212758D01*
X134238687Y-113373177D01*
X134255117Y-113540000D01*
X134238687Y-113706823D01*
X134190024Y-113867242D01*
X134162094Y-113919495D01*
X134111004Y-114015078D01*
X134004659Y-114144659D01*
X133875078Y-114251004D01*
X133875076Y-114251005D01*
X133727242Y-114330024D01*
X133566823Y-114378687D01*
X133441804Y-114391000D01*
X132558196Y-114391000D01*
X132433177Y-114378687D01*
X132272758Y-114330024D01*
X132124924Y-114251005D01*
X132124922Y-114251004D01*
X131995341Y-114144659D01*
X131888996Y-114015078D01*
X131837906Y-113919495D01*
X131809976Y-113867242D01*
X131761313Y-113706823D01*
X131744883Y-113540000D01*
X131761313Y-113373177D01*
X131809976Y-113212758D01*
X131888995Y-113064924D01*
X131888996Y-113064922D01*
X131995341Y-112935341D01*
X132124922Y-112828996D01*
X132140094Y-112820886D01*
X132272758Y-112749976D01*
X132433177Y-112701313D01*
X132558196Y-112689000D01*
X133441804Y-112689000D01*
X133566823Y-112701313D01*
G37*
G36*
X141186823Y-112701313D02*
G01*
X141347242Y-112749976D01*
X141479906Y-112820886D01*
X141495078Y-112828996D01*
X141624659Y-112935341D01*
X141731004Y-113064922D01*
X141731005Y-113064924D01*
X141810024Y-113212758D01*
X141858687Y-113373177D01*
X141875117Y-113540000D01*
X141858687Y-113706823D01*
X141810024Y-113867242D01*
X141782094Y-113919495D01*
X141731004Y-114015078D01*
X141624659Y-114144659D01*
X141495078Y-114251004D01*
X141495076Y-114251005D01*
X141347242Y-114330024D01*
X141186823Y-114378687D01*
X141061804Y-114391000D01*
X140178196Y-114391000D01*
X140053177Y-114378687D01*
X139892758Y-114330024D01*
X139744924Y-114251005D01*
X139744922Y-114251004D01*
X139615341Y-114144659D01*
X139508996Y-114015078D01*
X139457906Y-113919495D01*
X139429976Y-113867242D01*
X139381313Y-113706823D01*
X139364883Y-113540000D01*
X139381313Y-113373177D01*
X139429976Y-113212758D01*
X139508995Y-113064924D01*
X139508996Y-113064922D01*
X139615341Y-112935341D01*
X139744922Y-112828996D01*
X139760094Y-112820886D01*
X139892758Y-112749976D01*
X140053177Y-112701313D01*
X140178196Y-112689000D01*
X141061804Y-112689000D01*
X141186823Y-112701313D01*
G37*
G36*
X123395936Y-111211340D02*
G01*
X123494220Y-111221020D01*
X123683381Y-111278401D01*
X123857712Y-111371583D01*
X124010515Y-111496985D01*
X124135917Y-111649788D01*
X124229099Y-111824119D01*
X124286480Y-112013280D01*
X124305855Y-112210000D01*
X124286480Y-112406720D01*
X124229099Y-112595881D01*
X124135917Y-112770212D01*
X124010515Y-112923015D01*
X123857712Y-113048417D01*
X123683381Y-113141599D01*
X123494220Y-113198980D01*
X123395936Y-113208660D01*
X123346795Y-113213500D01*
X123153205Y-113213500D01*
X123104064Y-113208660D01*
X123005780Y-113198980D01*
X122816619Y-113141599D01*
X122642288Y-113048417D01*
X122489485Y-112923015D01*
X122364083Y-112770212D01*
X122270901Y-112595881D01*
X122213520Y-112406720D01*
X122194145Y-112210000D01*
X122213520Y-112013280D01*
X122270901Y-111824119D01*
X122364083Y-111649788D01*
X122489485Y-111496985D01*
X122642288Y-111371583D01*
X122816619Y-111278401D01*
X123005780Y-111221020D01*
X123104064Y-111211340D01*
X123153205Y-111206500D01*
X123346795Y-111206500D01*
X123395936Y-111211340D01*
G37*
G36*
X126834468Y-112028565D02*
G01*
X126873138Y-112040296D01*
X126908777Y-112059346D01*
X126940017Y-112084983D01*
X126965654Y-112116223D01*
X126984704Y-112151862D01*
X126996435Y-112190532D01*
X127001000Y-112236888D01*
X127001000Y-112888112D01*
X126996435Y-112934468D01*
X126984704Y-112973138D01*
X126965654Y-113008777D01*
X126940017Y-113040017D01*
X126908777Y-113065654D01*
X126873138Y-113084704D01*
X126834468Y-113096435D01*
X126788112Y-113101000D01*
X125711888Y-113101000D01*
X125665532Y-113096435D01*
X125626862Y-113084704D01*
X125591223Y-113065654D01*
X125559983Y-113040017D01*
X125534346Y-113008777D01*
X125515296Y-112973138D01*
X125503565Y-112934468D01*
X125499000Y-112888112D01*
X125499000Y-112236888D01*
X125503565Y-112190532D01*
X125515296Y-112151862D01*
X125534346Y-112116223D01*
X125559983Y-112084983D01*
X125591223Y-112059346D01*
X125626862Y-112040296D01*
X125665532Y-112028565D01*
X125711888Y-112024000D01*
X126788112Y-112024000D01*
X126834468Y-112028565D01*
G37*
G36*
X195406720Y-110963520D02*
G01*
X195595881Y-111020901D01*
X195770212Y-111114083D01*
X195923015Y-111239485D01*
X196048417Y-111392288D01*
X196092182Y-111474167D01*
X196141598Y-111566617D01*
X196141599Y-111566620D01*
X196198980Y-111755781D01*
X196202353Y-111790025D01*
X196213500Y-111903206D01*
X196213500Y-112096795D01*
X196211586Y-112116223D01*
X196198980Y-112244220D01*
X196141599Y-112433381D01*
X196048417Y-112607712D01*
X195923015Y-112760515D01*
X195770212Y-112885917D01*
X195700806Y-112923015D01*
X195595883Y-112979098D01*
X195595880Y-112979099D01*
X195406719Y-113036480D01*
X195210000Y-113055855D01*
X195013280Y-113036480D01*
X194824119Y-112979099D01*
X194649788Y-112885917D01*
X194496985Y-112760515D01*
X194371583Y-112607712D01*
X194327818Y-112525833D01*
X194278402Y-112433383D01*
X194252805Y-112349000D01*
X194221020Y-112244219D01*
X194206500Y-112096793D01*
X194206500Y-111903206D01*
X194221020Y-111755780D01*
X194278401Y-111566619D01*
X194371583Y-111392288D01*
X194496985Y-111239485D01*
X194649788Y-111114083D01*
X194824120Y-111020901D01*
X195013281Y-110963520D01*
X195210000Y-110944145D01*
X195406720Y-110963520D01*
G37*
G36*
X192866720Y-110963520D02*
G01*
X193055881Y-111020901D01*
X193230212Y-111114083D01*
X193383015Y-111239485D01*
X193508417Y-111392288D01*
X193552182Y-111474167D01*
X193601598Y-111566617D01*
X193601599Y-111566620D01*
X193658980Y-111755781D01*
X193662353Y-111790025D01*
X193673500Y-111903206D01*
X193673500Y-112096795D01*
X193671586Y-112116223D01*
X193658980Y-112244220D01*
X193601599Y-112433381D01*
X193508417Y-112607712D01*
X193383015Y-112760515D01*
X193230212Y-112885917D01*
X193160806Y-112923015D01*
X193055883Y-112979098D01*
X193055880Y-112979099D01*
X192866719Y-113036480D01*
X192670000Y-113055855D01*
X192473280Y-113036480D01*
X192284119Y-112979099D01*
X192109788Y-112885917D01*
X191956985Y-112760515D01*
X191831583Y-112607712D01*
X191787818Y-112525833D01*
X191738402Y-112433383D01*
X191712805Y-112349000D01*
X191681020Y-112244219D01*
X191666500Y-112096793D01*
X191666500Y-111903206D01*
X191681020Y-111755780D01*
X191738401Y-111566619D01*
X191831583Y-111392288D01*
X191956985Y-111239485D01*
X192109788Y-111114083D01*
X192284120Y-111020901D01*
X192473281Y-110963520D01*
X192670000Y-110944145D01*
X192866720Y-110963520D01*
G37*
G36*
X184656720Y-110963520D02*
G01*
X184845881Y-111020901D01*
X185020212Y-111114083D01*
X185173015Y-111239485D01*
X185298417Y-111392288D01*
X185342182Y-111474167D01*
X185391598Y-111566617D01*
X185391599Y-111566620D01*
X185448980Y-111755781D01*
X185452353Y-111790025D01*
X185463500Y-111903206D01*
X185463500Y-112096795D01*
X185461586Y-112116223D01*
X185448980Y-112244220D01*
X185391599Y-112433381D01*
X185298417Y-112607712D01*
X185173015Y-112760515D01*
X185020212Y-112885917D01*
X184950806Y-112923015D01*
X184845883Y-112979098D01*
X184845880Y-112979099D01*
X184656719Y-113036480D01*
X184460000Y-113055855D01*
X184263280Y-113036480D01*
X184074119Y-112979099D01*
X183899788Y-112885917D01*
X183746985Y-112760515D01*
X183621583Y-112607712D01*
X183577818Y-112525833D01*
X183528402Y-112433383D01*
X183502805Y-112349000D01*
X183471020Y-112244219D01*
X183456500Y-112096793D01*
X183456500Y-111903206D01*
X183471020Y-111755780D01*
X183528401Y-111566619D01*
X183621583Y-111392288D01*
X183746985Y-111239485D01*
X183899788Y-111114083D01*
X184074120Y-111020901D01*
X184263281Y-110963520D01*
X184460000Y-110944145D01*
X184656720Y-110963520D01*
G37*
G36*
X182116720Y-110963520D02*
G01*
X182305881Y-111020901D01*
X182480212Y-111114083D01*
X182633015Y-111239485D01*
X182758417Y-111392288D01*
X182802182Y-111474167D01*
X182851598Y-111566617D01*
X182851599Y-111566620D01*
X182908980Y-111755781D01*
X182912353Y-111790025D01*
X182923500Y-111903206D01*
X182923500Y-112096795D01*
X182921586Y-112116223D01*
X182908980Y-112244220D01*
X182851599Y-112433381D01*
X182758417Y-112607712D01*
X182633015Y-112760515D01*
X182480212Y-112885917D01*
X182410806Y-112923015D01*
X182305883Y-112979098D01*
X182305880Y-112979099D01*
X182116719Y-113036480D01*
X181920000Y-113055855D01*
X181723280Y-113036480D01*
X181534119Y-112979099D01*
X181359788Y-112885917D01*
X181206985Y-112760515D01*
X181081583Y-112607712D01*
X181037818Y-112525833D01*
X180988402Y-112433383D01*
X180962805Y-112349000D01*
X180931020Y-112244219D01*
X180916500Y-112096793D01*
X180916500Y-111903206D01*
X180931020Y-111755780D01*
X180988401Y-111566619D01*
X181081583Y-111392288D01*
X181206985Y-111239485D01*
X181359788Y-111114083D01*
X181534120Y-111020901D01*
X181723281Y-110963520D01*
X181920000Y-110944145D01*
X182116720Y-110963520D01*
G37*
G36*
X165156720Y-110963520D02*
G01*
X165345881Y-111020901D01*
X165520212Y-111114083D01*
X165673015Y-111239485D01*
X165798417Y-111392288D01*
X165842182Y-111474167D01*
X165891598Y-111566617D01*
X165891599Y-111566620D01*
X165948980Y-111755781D01*
X165952353Y-111790025D01*
X165963500Y-111903206D01*
X165963500Y-112096795D01*
X165961586Y-112116223D01*
X165948980Y-112244220D01*
X165891599Y-112433381D01*
X165798417Y-112607712D01*
X165673015Y-112760515D01*
X165520212Y-112885917D01*
X165450806Y-112923015D01*
X165345883Y-112979098D01*
X165345880Y-112979099D01*
X165156719Y-113036480D01*
X164960000Y-113055855D01*
X164763280Y-113036480D01*
X164574119Y-112979099D01*
X164399788Y-112885917D01*
X164246985Y-112760515D01*
X164121583Y-112607712D01*
X164077818Y-112525833D01*
X164028402Y-112433383D01*
X164002805Y-112349000D01*
X163971020Y-112244219D01*
X163956500Y-112096793D01*
X163956500Y-111903206D01*
X163971020Y-111755780D01*
X164028401Y-111566619D01*
X164121583Y-111392288D01*
X164246985Y-111239485D01*
X164399788Y-111114083D01*
X164574120Y-111020901D01*
X164763281Y-110963520D01*
X164960000Y-110944145D01*
X165156720Y-110963520D01*
G37*
G36*
X154406720Y-110963520D02*
G01*
X154595881Y-111020901D01*
X154770212Y-111114083D01*
X154923015Y-111239485D01*
X155048417Y-111392288D01*
X155092182Y-111474167D01*
X155141598Y-111566617D01*
X155141599Y-111566620D01*
X155198980Y-111755781D01*
X155202353Y-111790025D01*
X155213500Y-111903206D01*
X155213500Y-112096795D01*
X155211586Y-112116223D01*
X155198980Y-112244220D01*
X155141599Y-112433381D01*
X155048417Y-112607712D01*
X154923015Y-112760515D01*
X154770212Y-112885917D01*
X154700806Y-112923015D01*
X154595883Y-112979098D01*
X154595880Y-112979099D01*
X154406719Y-113036480D01*
X154210000Y-113055855D01*
X154013280Y-113036480D01*
X153824119Y-112979099D01*
X153649788Y-112885917D01*
X153496985Y-112760515D01*
X153371583Y-112607712D01*
X153327818Y-112525833D01*
X153278402Y-112433383D01*
X153252805Y-112349000D01*
X153221020Y-112244219D01*
X153206500Y-112096793D01*
X153206500Y-111903206D01*
X153221020Y-111755780D01*
X153278401Y-111566619D01*
X153371583Y-111392288D01*
X153496985Y-111239485D01*
X153649788Y-111114083D01*
X153824120Y-111020901D01*
X154013281Y-110963520D01*
X154210000Y-110944145D01*
X154406720Y-110963520D01*
G37*
G36*
X162616720Y-110963520D02*
G01*
X162805881Y-111020901D01*
X162980212Y-111114083D01*
X163133015Y-111239485D01*
X163258417Y-111392288D01*
X163302182Y-111474167D01*
X163351598Y-111566617D01*
X163351599Y-111566620D01*
X163408980Y-111755781D01*
X163412353Y-111790025D01*
X163423500Y-111903206D01*
X163423500Y-112096795D01*
X163421586Y-112116223D01*
X163408980Y-112244220D01*
X163351599Y-112433381D01*
X163258417Y-112607712D01*
X163133015Y-112760515D01*
X162980212Y-112885917D01*
X162910806Y-112923015D01*
X162805883Y-112979098D01*
X162805880Y-112979099D01*
X162616719Y-113036480D01*
X162420000Y-113055855D01*
X162223280Y-113036480D01*
X162034119Y-112979099D01*
X161859788Y-112885917D01*
X161706985Y-112760515D01*
X161581583Y-112607712D01*
X161537818Y-112525833D01*
X161488402Y-112433383D01*
X161462805Y-112349000D01*
X161431020Y-112244219D01*
X161416500Y-112096793D01*
X161416500Y-111903206D01*
X161431020Y-111755780D01*
X161488401Y-111566619D01*
X161581583Y-111392288D01*
X161706985Y-111239485D01*
X161859788Y-111114083D01*
X162034120Y-111020901D01*
X162223281Y-110963520D01*
X162420000Y-110944145D01*
X162616720Y-110963520D01*
G37*
G36*
X151866720Y-110963520D02*
G01*
X152055881Y-111020901D01*
X152230212Y-111114083D01*
X152383015Y-111239485D01*
X152508417Y-111392288D01*
X152552182Y-111474167D01*
X152601598Y-111566617D01*
X152601599Y-111566620D01*
X152658980Y-111755781D01*
X152662353Y-111790025D01*
X152673500Y-111903206D01*
X152673500Y-112096795D01*
X152671586Y-112116223D01*
X152658980Y-112244220D01*
X152601599Y-112433381D01*
X152508417Y-112607712D01*
X152383015Y-112760515D01*
X152230212Y-112885917D01*
X152160806Y-112923015D01*
X152055883Y-112979098D01*
X152055880Y-112979099D01*
X151866719Y-113036480D01*
X151670000Y-113055855D01*
X151473280Y-113036480D01*
X151284119Y-112979099D01*
X151109788Y-112885917D01*
X150956985Y-112760515D01*
X150831583Y-112607712D01*
X150787818Y-112525833D01*
X150738402Y-112433383D01*
X150712805Y-112349000D01*
X150681020Y-112244219D01*
X150666500Y-112096793D01*
X150666500Y-111903206D01*
X150681020Y-111755780D01*
X150738401Y-111566619D01*
X150831583Y-111392288D01*
X150956985Y-111239485D01*
X151109788Y-111114083D01*
X151284120Y-111020901D01*
X151473281Y-110963520D01*
X151670000Y-110944145D01*
X151866720Y-110963520D01*
G37*
G36*
X157753500Y-113051000D02*
G01*
X155746500Y-113051000D01*
X155746500Y-110949000D01*
X157753500Y-110949000D01*
X157753500Y-113051000D01*
G37*
G36*
X168503500Y-113051000D02*
G01*
X166496500Y-113051000D01*
X166496500Y-110949000D01*
X168503500Y-110949000D01*
X168503500Y-113051000D01*
G37*
G36*
X188003500Y-113051000D02*
G01*
X185996500Y-113051000D01*
X185996500Y-110949000D01*
X188003500Y-110949000D01*
X188003500Y-113051000D01*
G37*
G36*
X198753500Y-113051000D02*
G01*
X196746500Y-113051000D01*
X196746500Y-110949000D01*
X198753500Y-110949000D01*
X198753500Y-113051000D01*
G37*
G36*
X134251000Y-111851000D02*
G01*
X131749000Y-111851000D01*
X131749000Y-110149000D01*
X134251000Y-110149000D01*
X134251000Y-111851000D01*
G37*
G36*
X141186823Y-110161313D02*
G01*
X141347242Y-110209976D01*
X141479906Y-110280886D01*
X141495078Y-110288996D01*
X141624659Y-110395341D01*
X141731004Y-110524922D01*
X141731005Y-110524924D01*
X141810024Y-110672758D01*
X141858687Y-110833177D01*
X141875117Y-111000000D01*
X141858687Y-111166823D01*
X141810024Y-111327242D01*
X141739114Y-111459906D01*
X141731004Y-111475078D01*
X141624659Y-111604659D01*
X141495078Y-111711004D01*
X141495076Y-111711005D01*
X141347242Y-111790024D01*
X141186823Y-111838687D01*
X141061804Y-111851000D01*
X140178196Y-111851000D01*
X140053177Y-111838687D01*
X139892758Y-111790024D01*
X139744924Y-111711005D01*
X139744922Y-111711004D01*
X139615341Y-111604659D01*
X139508996Y-111475078D01*
X139500886Y-111459906D01*
X139429976Y-111327242D01*
X139381313Y-111166823D01*
X139364883Y-111000000D01*
X139381313Y-110833177D01*
X139429976Y-110672758D01*
X139508995Y-110524924D01*
X139508996Y-110524922D01*
X139615341Y-110395341D01*
X139744922Y-110288996D01*
X139760094Y-110280886D01*
X139892758Y-110209976D01*
X140053177Y-110161313D01*
X140178196Y-110149000D01*
X141061804Y-110149000D01*
X141186823Y-110161313D01*
G37*
G36*
X123395936Y-108671340D02*
G01*
X123494220Y-108681020D01*
X123683381Y-108738401D01*
X123857712Y-108831583D01*
X124010515Y-108956985D01*
X124135917Y-109109788D01*
X124229099Y-109284119D01*
X124286480Y-109473280D01*
X124305855Y-109670000D01*
X124286480Y-109866720D01*
X124229099Y-110055881D01*
X124135917Y-110230212D01*
X124010515Y-110383015D01*
X123857712Y-110508417D01*
X123683381Y-110601599D01*
X123494220Y-110658980D01*
X123395936Y-110668660D01*
X123346795Y-110673500D01*
X123153205Y-110673500D01*
X123104064Y-110668660D01*
X123005780Y-110658980D01*
X122816619Y-110601599D01*
X122642288Y-110508417D01*
X122489485Y-110383015D01*
X122364083Y-110230212D01*
X122270901Y-110055881D01*
X122213520Y-109866720D01*
X122194145Y-109670000D01*
X122213520Y-109473280D01*
X122270901Y-109284119D01*
X122364083Y-109109788D01*
X122489485Y-108956985D01*
X122642288Y-108831583D01*
X122816619Y-108738401D01*
X123005780Y-108681020D01*
X123104064Y-108671340D01*
X123153205Y-108666500D01*
X123346795Y-108666500D01*
X123395936Y-108671340D01*
G37*
G36*
X157184468Y-108503565D02*
G01*
X157223138Y-108515296D01*
X157258777Y-108534346D01*
X157290017Y-108559983D01*
X157315654Y-108591223D01*
X157334704Y-108626862D01*
X157346435Y-108665532D01*
X157351000Y-108711888D01*
X157351000Y-109788112D01*
X157346435Y-109834468D01*
X157334704Y-109873138D01*
X157315654Y-109908777D01*
X157290017Y-109940017D01*
X157258777Y-109965654D01*
X157223138Y-109984704D01*
X157184468Y-109996435D01*
X157138112Y-110001000D01*
X156486888Y-110001000D01*
X156440532Y-109996435D01*
X156401862Y-109984704D01*
X156366223Y-109965654D01*
X156334983Y-109940017D01*
X156309346Y-109908777D01*
X156290296Y-109873138D01*
X156278565Y-109834468D01*
X156274000Y-109788112D01*
X156274000Y-108711888D01*
X156278565Y-108665532D01*
X156290296Y-108626862D01*
X156309346Y-108591223D01*
X156334983Y-108559983D01*
X156366223Y-108534346D01*
X156401862Y-108515296D01*
X156440532Y-108503565D01*
X156486888Y-108499000D01*
X157138112Y-108499000D01*
X157184468Y-108503565D01*
G37*
G36*
X195934468Y-108503565D02*
G01*
X195973138Y-108515296D01*
X196008777Y-108534346D01*
X196040017Y-108559983D01*
X196065654Y-108591223D01*
X196084704Y-108626862D01*
X196096435Y-108665532D01*
X196101000Y-108711888D01*
X196101000Y-109788112D01*
X196096435Y-109834468D01*
X196084704Y-109873138D01*
X196065654Y-109908777D01*
X196040017Y-109940017D01*
X196008777Y-109965654D01*
X195973138Y-109984704D01*
X195934468Y-109996435D01*
X195888112Y-110001000D01*
X195236888Y-110001000D01*
X195190532Y-109996435D01*
X195151862Y-109984704D01*
X195116223Y-109965654D01*
X195084983Y-109940017D01*
X195059346Y-109908777D01*
X195040296Y-109873138D01*
X195028565Y-109834468D01*
X195024000Y-109788112D01*
X195024000Y-108711888D01*
X195028565Y-108665532D01*
X195040296Y-108626862D01*
X195059346Y-108591223D01*
X195084983Y-108559983D01*
X195116223Y-108534346D01*
X195151862Y-108515296D01*
X195190532Y-108503565D01*
X195236888Y-108499000D01*
X195888112Y-108499000D01*
X195934468Y-108503565D01*
G37*
G36*
X187434468Y-108503565D02*
G01*
X187473138Y-108515296D01*
X187508777Y-108534346D01*
X187540017Y-108559983D01*
X187565654Y-108591223D01*
X187584704Y-108626862D01*
X187596435Y-108665532D01*
X187601000Y-108711888D01*
X187601000Y-109788112D01*
X187596435Y-109834468D01*
X187584704Y-109873138D01*
X187565654Y-109908777D01*
X187540017Y-109940017D01*
X187508777Y-109965654D01*
X187473138Y-109984704D01*
X187434468Y-109996435D01*
X187388112Y-110001000D01*
X186736888Y-110001000D01*
X186690532Y-109996435D01*
X186651862Y-109984704D01*
X186616223Y-109965654D01*
X186584983Y-109940017D01*
X186559346Y-109908777D01*
X186540296Y-109873138D01*
X186528565Y-109834468D01*
X186524000Y-109788112D01*
X186524000Y-108711888D01*
X186528565Y-108665532D01*
X186540296Y-108626862D01*
X186559346Y-108591223D01*
X186584983Y-108559983D01*
X186616223Y-108534346D01*
X186651862Y-108515296D01*
X186690532Y-108503565D01*
X186736888Y-108499000D01*
X187388112Y-108499000D01*
X187434468Y-108503565D01*
G37*
G36*
X189309468Y-108503565D02*
G01*
X189348138Y-108515296D01*
X189383777Y-108534346D01*
X189415017Y-108559983D01*
X189440654Y-108591223D01*
X189459704Y-108626862D01*
X189471435Y-108665532D01*
X189476000Y-108711888D01*
X189476000Y-109788112D01*
X189471435Y-109834468D01*
X189459704Y-109873138D01*
X189440654Y-109908777D01*
X189415017Y-109940017D01*
X189383777Y-109965654D01*
X189348138Y-109984704D01*
X189309468Y-109996435D01*
X189263112Y-110001000D01*
X188611888Y-110001000D01*
X188565532Y-109996435D01*
X188526862Y-109984704D01*
X188491223Y-109965654D01*
X188459983Y-109940017D01*
X188434346Y-109908777D01*
X188415296Y-109873138D01*
X188403565Y-109834468D01*
X188399000Y-109788112D01*
X188399000Y-108711888D01*
X188403565Y-108665532D01*
X188415296Y-108626862D01*
X188434346Y-108591223D01*
X188459983Y-108559983D01*
X188491223Y-108534346D01*
X188526862Y-108515296D01*
X188565532Y-108503565D01*
X188611888Y-108499000D01*
X189263112Y-108499000D01*
X189309468Y-108503565D01*
G37*
G36*
X167559468Y-108503565D02*
G01*
X167598138Y-108515296D01*
X167633777Y-108534346D01*
X167665017Y-108559983D01*
X167690654Y-108591223D01*
X167709704Y-108626862D01*
X167721435Y-108665532D01*
X167726000Y-108711888D01*
X167726000Y-109788112D01*
X167721435Y-109834468D01*
X167709704Y-109873138D01*
X167690654Y-109908777D01*
X167665017Y-109940017D01*
X167633777Y-109965654D01*
X167598138Y-109984704D01*
X167559468Y-109996435D01*
X167513112Y-110001000D01*
X166861888Y-110001000D01*
X166815532Y-109996435D01*
X166776862Y-109984704D01*
X166741223Y-109965654D01*
X166709983Y-109940017D01*
X166684346Y-109908777D01*
X166665296Y-109873138D01*
X166653565Y-109834468D01*
X166649000Y-109788112D01*
X166649000Y-108711888D01*
X166653565Y-108665532D01*
X166665296Y-108626862D01*
X166684346Y-108591223D01*
X166709983Y-108559983D01*
X166741223Y-108534346D01*
X166776862Y-108515296D01*
X166815532Y-108503565D01*
X166861888Y-108499000D01*
X167513112Y-108499000D01*
X167559468Y-108503565D01*
G37*
G36*
X165684468Y-108503565D02*
G01*
X165723138Y-108515296D01*
X165758777Y-108534346D01*
X165790017Y-108559983D01*
X165815654Y-108591223D01*
X165834704Y-108626862D01*
X165846435Y-108665532D01*
X165851000Y-108711888D01*
X165851000Y-109788112D01*
X165846435Y-109834468D01*
X165834704Y-109873138D01*
X165815654Y-109908777D01*
X165790017Y-109940017D01*
X165758777Y-109965654D01*
X165723138Y-109984704D01*
X165684468Y-109996435D01*
X165638112Y-110001000D01*
X164986888Y-110001000D01*
X164940532Y-109996435D01*
X164901862Y-109984704D01*
X164866223Y-109965654D01*
X164834983Y-109940017D01*
X164809346Y-109908777D01*
X164790296Y-109873138D01*
X164778565Y-109834468D01*
X164774000Y-109788112D01*
X164774000Y-108711888D01*
X164778565Y-108665532D01*
X164790296Y-108626862D01*
X164809346Y-108591223D01*
X164834983Y-108559983D01*
X164866223Y-108534346D01*
X164901862Y-108515296D01*
X164940532Y-108503565D01*
X164986888Y-108499000D01*
X165638112Y-108499000D01*
X165684468Y-108503565D01*
G37*
G36*
X159059468Y-108503565D02*
G01*
X159098138Y-108515296D01*
X159133777Y-108534346D01*
X159165017Y-108559983D01*
X159190654Y-108591223D01*
X159209704Y-108626862D01*
X159221435Y-108665532D01*
X159226000Y-108711888D01*
X159226000Y-109788112D01*
X159221435Y-109834468D01*
X159209704Y-109873138D01*
X159190654Y-109908777D01*
X159165017Y-109940017D01*
X159133777Y-109965654D01*
X159098138Y-109984704D01*
X159059468Y-109996435D01*
X159013112Y-110001000D01*
X158361888Y-110001000D01*
X158315532Y-109996435D01*
X158276862Y-109984704D01*
X158241223Y-109965654D01*
X158209983Y-109940017D01*
X158184346Y-109908777D01*
X158165296Y-109873138D01*
X158153565Y-109834468D01*
X158149000Y-109788112D01*
X158149000Y-108711888D01*
X158153565Y-108665532D01*
X158165296Y-108626862D01*
X158184346Y-108591223D01*
X158209983Y-108559983D01*
X158241223Y-108534346D01*
X158276862Y-108515296D01*
X158315532Y-108503565D01*
X158361888Y-108499000D01*
X159013112Y-108499000D01*
X159059468Y-108503565D01*
G37*
G36*
X197809468Y-108503565D02*
G01*
X197848138Y-108515296D01*
X197883777Y-108534346D01*
X197915017Y-108559983D01*
X197940654Y-108591223D01*
X197959704Y-108626862D01*
X197971435Y-108665532D01*
X197976000Y-108711888D01*
X197976000Y-109788112D01*
X197971435Y-109834468D01*
X197959704Y-109873138D01*
X197940654Y-109908777D01*
X197915017Y-109940017D01*
X197883777Y-109965654D01*
X197848138Y-109984704D01*
X197809468Y-109996435D01*
X197763112Y-110001000D01*
X197111888Y-110001000D01*
X197065532Y-109996435D01*
X197026862Y-109984704D01*
X196991223Y-109965654D01*
X196959983Y-109940017D01*
X196934346Y-109908777D01*
X196915296Y-109873138D01*
X196903565Y-109834468D01*
X196899000Y-109788112D01*
X196899000Y-108711888D01*
X196903565Y-108665532D01*
X196915296Y-108626862D01*
X196934346Y-108591223D01*
X196959983Y-108559983D01*
X196991223Y-108534346D01*
X197026862Y-108515296D01*
X197065532Y-108503565D01*
X197111888Y-108499000D01*
X197763112Y-108499000D01*
X197809468Y-108503565D01*
G37*
G36*
X128601000Y-109351000D02*
G01*
X126899000Y-109351000D01*
X126899000Y-107649000D01*
X128601000Y-107649000D01*
X128601000Y-109351000D01*
G37*
G36*
X127998228Y-105181703D02*
G01*
X128153100Y-105245853D01*
X128292481Y-105338985D01*
X128411015Y-105457519D01*
X128504147Y-105596900D01*
X128568297Y-105751772D01*
X128601000Y-105916184D01*
X128601000Y-106083816D01*
X128568297Y-106248228D01*
X128504147Y-106403100D01*
X128411015Y-106542481D01*
X128292481Y-106661015D01*
X128153100Y-106754147D01*
X127998228Y-106818297D01*
X127833816Y-106851000D01*
X127666184Y-106851000D01*
X127501772Y-106818297D01*
X127346900Y-106754147D01*
X127207519Y-106661015D01*
X127088985Y-106542481D01*
X126995853Y-106403100D01*
X126931703Y-106248228D01*
X126899000Y-106083816D01*
X126899000Y-105916184D01*
X126931703Y-105751772D01*
X126995853Y-105596900D01*
X127088985Y-105457519D01*
X127207519Y-105338985D01*
X127346900Y-105245853D01*
X127501772Y-105181703D01*
X127666184Y-105149000D01*
X127833816Y-105149000D01*
X127998228Y-105181703D01*
G37*
G36*
X222818433Y-103634893D02*
G01*
X222908657Y-103652839D01*
X223014267Y-103696585D01*
X223163621Y-103758449D01*
X223163622Y-103758450D01*
X223393086Y-103911772D01*
X223588228Y-104106914D01*
X223690675Y-104260237D01*
X223741551Y-104336379D01*
X223847161Y-104591344D01*
X223901000Y-104862012D01*
X223901000Y-105137988D01*
X223847161Y-105408656D01*
X223741551Y-105663621D01*
X223741550Y-105663622D01*
X223588228Y-105893086D01*
X223393086Y-106088228D01*
X223239763Y-106190675D01*
X223163621Y-106241551D01*
X223014267Y-106303415D01*
X222908657Y-106347161D01*
X222818433Y-106365107D01*
X222637988Y-106401000D01*
X222362012Y-106401000D01*
X222181567Y-106365107D01*
X222091343Y-106347161D01*
X221985733Y-106303415D01*
X221836379Y-106241551D01*
X221760237Y-106190675D01*
X221606914Y-106088228D01*
X221411772Y-105893086D01*
X221258450Y-105663622D01*
X221258449Y-105663621D01*
X221152839Y-105408656D01*
X221099000Y-105137988D01*
X221099000Y-104862012D01*
X221152839Y-104591344D01*
X221258449Y-104336379D01*
X221309325Y-104260237D01*
X221411772Y-104106914D01*
X221606914Y-103911772D01*
X221836378Y-103758450D01*
X221836379Y-103758449D01*
X221985733Y-103696585D01*
X222091343Y-103652839D01*
X222181567Y-103634893D01*
X222362012Y-103599000D01*
X222637988Y-103599000D01*
X222818433Y-103634893D01*
G37*
M02*
