G04 #@! TF.GenerationSoftware,KiCad,Pcbnew,5.1.5*
G04 #@! TF.CreationDate,2020-04-11T22:48:05+02:00*
G04 #@! TF.ProjectId,rc_car,72635f63-6172-42e6-9b69-6361645f7063,rev?*
G04 #@! TF.SameCoordinates,Original*
G04 #@! TF.FileFunction,Paste,Top*
G04 #@! TF.FilePolarity,Positive*
%FSLAX46Y46*%
G04 Gerber Fmt 4.6, Leading zero omitted, Abs format (unit mm)*
G04 Created by KiCad (PCBNEW 5.1.5) date 2020-04-11 22:48:05*
%MOMM*%
%LPD*%
G04 APERTURE LIST*
%ADD10C,0.100000*%
G04 APERTURE END LIST*
D10*
G36*
X135205142Y-52641174D02*
G01*
X135228803Y-52644684D01*
X135252007Y-52650496D01*
X135274529Y-52658554D01*
X135296153Y-52668782D01*
X135316670Y-52681079D01*
X135335883Y-52695329D01*
X135353607Y-52711393D01*
X135369671Y-52729117D01*
X135383921Y-52748330D01*
X135396218Y-52768847D01*
X135406446Y-52790471D01*
X135414504Y-52812993D01*
X135420316Y-52836197D01*
X135423826Y-52859858D01*
X135425000Y-52883750D01*
X135425000Y-53796250D01*
X135423826Y-53820142D01*
X135420316Y-53843803D01*
X135414504Y-53867007D01*
X135406446Y-53889529D01*
X135396218Y-53911153D01*
X135383921Y-53931670D01*
X135369671Y-53950883D01*
X135353607Y-53968607D01*
X135335883Y-53984671D01*
X135316670Y-53998921D01*
X135296153Y-54011218D01*
X135274529Y-54021446D01*
X135252007Y-54029504D01*
X135228803Y-54035316D01*
X135205142Y-54038826D01*
X135181250Y-54040000D01*
X134693750Y-54040000D01*
X134669858Y-54038826D01*
X134646197Y-54035316D01*
X134622993Y-54029504D01*
X134600471Y-54021446D01*
X134578847Y-54011218D01*
X134558330Y-53998921D01*
X134539117Y-53984671D01*
X134521393Y-53968607D01*
X134505329Y-53950883D01*
X134491079Y-53931670D01*
X134478782Y-53911153D01*
X134468554Y-53889529D01*
X134460496Y-53867007D01*
X134454684Y-53843803D01*
X134451174Y-53820142D01*
X134450000Y-53796250D01*
X134450000Y-52883750D01*
X134451174Y-52859858D01*
X134454684Y-52836197D01*
X134460496Y-52812993D01*
X134468554Y-52790471D01*
X134478782Y-52768847D01*
X134491079Y-52748330D01*
X134505329Y-52729117D01*
X134521393Y-52711393D01*
X134539117Y-52695329D01*
X134558330Y-52681079D01*
X134578847Y-52668782D01*
X134600471Y-52658554D01*
X134622993Y-52650496D01*
X134646197Y-52644684D01*
X134669858Y-52641174D01*
X134693750Y-52640000D01*
X135181250Y-52640000D01*
X135205142Y-52641174D01*
G37*
G36*
X133330142Y-52641174D02*
G01*
X133353803Y-52644684D01*
X133377007Y-52650496D01*
X133399529Y-52658554D01*
X133421153Y-52668782D01*
X133441670Y-52681079D01*
X133460883Y-52695329D01*
X133478607Y-52711393D01*
X133494671Y-52729117D01*
X133508921Y-52748330D01*
X133521218Y-52768847D01*
X133531446Y-52790471D01*
X133539504Y-52812993D01*
X133545316Y-52836197D01*
X133548826Y-52859858D01*
X133550000Y-52883750D01*
X133550000Y-53796250D01*
X133548826Y-53820142D01*
X133545316Y-53843803D01*
X133539504Y-53867007D01*
X133531446Y-53889529D01*
X133521218Y-53911153D01*
X133508921Y-53931670D01*
X133494671Y-53950883D01*
X133478607Y-53968607D01*
X133460883Y-53984671D01*
X133441670Y-53998921D01*
X133421153Y-54011218D01*
X133399529Y-54021446D01*
X133377007Y-54029504D01*
X133353803Y-54035316D01*
X133330142Y-54038826D01*
X133306250Y-54040000D01*
X132818750Y-54040000D01*
X132794858Y-54038826D01*
X132771197Y-54035316D01*
X132747993Y-54029504D01*
X132725471Y-54021446D01*
X132703847Y-54011218D01*
X132683330Y-53998921D01*
X132664117Y-53984671D01*
X132646393Y-53968607D01*
X132630329Y-53950883D01*
X132616079Y-53931670D01*
X132603782Y-53911153D01*
X132593554Y-53889529D01*
X132585496Y-53867007D01*
X132579684Y-53843803D01*
X132576174Y-53820142D01*
X132575000Y-53796250D01*
X132575000Y-52883750D01*
X132576174Y-52859858D01*
X132579684Y-52836197D01*
X132585496Y-52812993D01*
X132593554Y-52790471D01*
X132603782Y-52768847D01*
X132616079Y-52748330D01*
X132630329Y-52729117D01*
X132646393Y-52711393D01*
X132664117Y-52695329D01*
X132683330Y-52681079D01*
X132703847Y-52668782D01*
X132725471Y-52658554D01*
X132747993Y-52650496D01*
X132771197Y-52644684D01*
X132794858Y-52641174D01*
X132818750Y-52640000D01*
X133306250Y-52640000D01*
X133330142Y-52641174D01*
G37*
G36*
X144969142Y-51109174D02*
G01*
X144992803Y-51112684D01*
X145016007Y-51118496D01*
X145038529Y-51126554D01*
X145060153Y-51136782D01*
X145080670Y-51149079D01*
X145099883Y-51163329D01*
X145117607Y-51179393D01*
X145133671Y-51197117D01*
X145147921Y-51216330D01*
X145160218Y-51236847D01*
X145170446Y-51258471D01*
X145178504Y-51280993D01*
X145184316Y-51304197D01*
X145187826Y-51327858D01*
X145189000Y-51351750D01*
X145189000Y-52264250D01*
X145187826Y-52288142D01*
X145184316Y-52311803D01*
X145178504Y-52335007D01*
X145170446Y-52357529D01*
X145160218Y-52379153D01*
X145147921Y-52399670D01*
X145133671Y-52418883D01*
X145117607Y-52436607D01*
X145099883Y-52452671D01*
X145080670Y-52466921D01*
X145060153Y-52479218D01*
X145038529Y-52489446D01*
X145016007Y-52497504D01*
X144992803Y-52503316D01*
X144969142Y-52506826D01*
X144945250Y-52508000D01*
X144457750Y-52508000D01*
X144433858Y-52506826D01*
X144410197Y-52503316D01*
X144386993Y-52497504D01*
X144364471Y-52489446D01*
X144342847Y-52479218D01*
X144322330Y-52466921D01*
X144303117Y-52452671D01*
X144285393Y-52436607D01*
X144269329Y-52418883D01*
X144255079Y-52399670D01*
X144242782Y-52379153D01*
X144232554Y-52357529D01*
X144224496Y-52335007D01*
X144218684Y-52311803D01*
X144215174Y-52288142D01*
X144214000Y-52264250D01*
X144214000Y-51351750D01*
X144215174Y-51327858D01*
X144218684Y-51304197D01*
X144224496Y-51280993D01*
X144232554Y-51258471D01*
X144242782Y-51236847D01*
X144255079Y-51216330D01*
X144269329Y-51197117D01*
X144285393Y-51179393D01*
X144303117Y-51163329D01*
X144322330Y-51149079D01*
X144342847Y-51136782D01*
X144364471Y-51126554D01*
X144386993Y-51118496D01*
X144410197Y-51112684D01*
X144433858Y-51109174D01*
X144457750Y-51108000D01*
X144945250Y-51108000D01*
X144969142Y-51109174D01*
G37*
G36*
X143094142Y-51109174D02*
G01*
X143117803Y-51112684D01*
X143141007Y-51118496D01*
X143163529Y-51126554D01*
X143185153Y-51136782D01*
X143205670Y-51149079D01*
X143224883Y-51163329D01*
X143242607Y-51179393D01*
X143258671Y-51197117D01*
X143272921Y-51216330D01*
X143285218Y-51236847D01*
X143295446Y-51258471D01*
X143303504Y-51280993D01*
X143309316Y-51304197D01*
X143312826Y-51327858D01*
X143314000Y-51351750D01*
X143314000Y-52264250D01*
X143312826Y-52288142D01*
X143309316Y-52311803D01*
X143303504Y-52335007D01*
X143295446Y-52357529D01*
X143285218Y-52379153D01*
X143272921Y-52399670D01*
X143258671Y-52418883D01*
X143242607Y-52436607D01*
X143224883Y-52452671D01*
X143205670Y-52466921D01*
X143185153Y-52479218D01*
X143163529Y-52489446D01*
X143141007Y-52497504D01*
X143117803Y-52503316D01*
X143094142Y-52506826D01*
X143070250Y-52508000D01*
X142582750Y-52508000D01*
X142558858Y-52506826D01*
X142535197Y-52503316D01*
X142511993Y-52497504D01*
X142489471Y-52489446D01*
X142467847Y-52479218D01*
X142447330Y-52466921D01*
X142428117Y-52452671D01*
X142410393Y-52436607D01*
X142394329Y-52418883D01*
X142380079Y-52399670D01*
X142367782Y-52379153D01*
X142357554Y-52357529D01*
X142349496Y-52335007D01*
X142343684Y-52311803D01*
X142340174Y-52288142D01*
X142339000Y-52264250D01*
X142339000Y-51351750D01*
X142340174Y-51327858D01*
X142343684Y-51304197D01*
X142349496Y-51280993D01*
X142357554Y-51258471D01*
X142367782Y-51236847D01*
X142380079Y-51216330D01*
X142394329Y-51197117D01*
X142410393Y-51179393D01*
X142428117Y-51163329D01*
X142447330Y-51149079D01*
X142467847Y-51136782D01*
X142489471Y-51126554D01*
X142511993Y-51118496D01*
X142535197Y-51112684D01*
X142558858Y-51109174D01*
X142582750Y-51108000D01*
X143070250Y-51108000D01*
X143094142Y-51109174D01*
G37*
G36*
X144969142Y-53141174D02*
G01*
X144992803Y-53144684D01*
X145016007Y-53150496D01*
X145038529Y-53158554D01*
X145060153Y-53168782D01*
X145080670Y-53181079D01*
X145099883Y-53195329D01*
X145117607Y-53211393D01*
X145133671Y-53229117D01*
X145147921Y-53248330D01*
X145160218Y-53268847D01*
X145170446Y-53290471D01*
X145178504Y-53312993D01*
X145184316Y-53336197D01*
X145187826Y-53359858D01*
X145189000Y-53383750D01*
X145189000Y-54296250D01*
X145187826Y-54320142D01*
X145184316Y-54343803D01*
X145178504Y-54367007D01*
X145170446Y-54389529D01*
X145160218Y-54411153D01*
X145147921Y-54431670D01*
X145133671Y-54450883D01*
X145117607Y-54468607D01*
X145099883Y-54484671D01*
X145080670Y-54498921D01*
X145060153Y-54511218D01*
X145038529Y-54521446D01*
X145016007Y-54529504D01*
X144992803Y-54535316D01*
X144969142Y-54538826D01*
X144945250Y-54540000D01*
X144457750Y-54540000D01*
X144433858Y-54538826D01*
X144410197Y-54535316D01*
X144386993Y-54529504D01*
X144364471Y-54521446D01*
X144342847Y-54511218D01*
X144322330Y-54498921D01*
X144303117Y-54484671D01*
X144285393Y-54468607D01*
X144269329Y-54450883D01*
X144255079Y-54431670D01*
X144242782Y-54411153D01*
X144232554Y-54389529D01*
X144224496Y-54367007D01*
X144218684Y-54343803D01*
X144215174Y-54320142D01*
X144214000Y-54296250D01*
X144214000Y-53383750D01*
X144215174Y-53359858D01*
X144218684Y-53336197D01*
X144224496Y-53312993D01*
X144232554Y-53290471D01*
X144242782Y-53268847D01*
X144255079Y-53248330D01*
X144269329Y-53229117D01*
X144285393Y-53211393D01*
X144303117Y-53195329D01*
X144322330Y-53181079D01*
X144342847Y-53168782D01*
X144364471Y-53158554D01*
X144386993Y-53150496D01*
X144410197Y-53144684D01*
X144433858Y-53141174D01*
X144457750Y-53140000D01*
X144945250Y-53140000D01*
X144969142Y-53141174D01*
G37*
G36*
X143094142Y-53141174D02*
G01*
X143117803Y-53144684D01*
X143141007Y-53150496D01*
X143163529Y-53158554D01*
X143185153Y-53168782D01*
X143205670Y-53181079D01*
X143224883Y-53195329D01*
X143242607Y-53211393D01*
X143258671Y-53229117D01*
X143272921Y-53248330D01*
X143285218Y-53268847D01*
X143295446Y-53290471D01*
X143303504Y-53312993D01*
X143309316Y-53336197D01*
X143312826Y-53359858D01*
X143314000Y-53383750D01*
X143314000Y-54296250D01*
X143312826Y-54320142D01*
X143309316Y-54343803D01*
X143303504Y-54367007D01*
X143295446Y-54389529D01*
X143285218Y-54411153D01*
X143272921Y-54431670D01*
X143258671Y-54450883D01*
X143242607Y-54468607D01*
X143224883Y-54484671D01*
X143205670Y-54498921D01*
X143185153Y-54511218D01*
X143163529Y-54521446D01*
X143141007Y-54529504D01*
X143117803Y-54535316D01*
X143094142Y-54538826D01*
X143070250Y-54540000D01*
X142582750Y-54540000D01*
X142558858Y-54538826D01*
X142535197Y-54535316D01*
X142511993Y-54529504D01*
X142489471Y-54521446D01*
X142467847Y-54511218D01*
X142447330Y-54498921D01*
X142428117Y-54484671D01*
X142410393Y-54468607D01*
X142394329Y-54450883D01*
X142380079Y-54431670D01*
X142367782Y-54411153D01*
X142357554Y-54389529D01*
X142349496Y-54367007D01*
X142343684Y-54343803D01*
X142340174Y-54320142D01*
X142339000Y-54296250D01*
X142339000Y-53383750D01*
X142340174Y-53359858D01*
X142343684Y-53336197D01*
X142349496Y-53312993D01*
X142357554Y-53290471D01*
X142367782Y-53268847D01*
X142380079Y-53248330D01*
X142394329Y-53229117D01*
X142410393Y-53211393D01*
X142428117Y-53195329D01*
X142447330Y-53181079D01*
X142467847Y-53168782D01*
X142489471Y-53158554D01*
X142511993Y-53150496D01*
X142535197Y-53144684D01*
X142558858Y-53141174D01*
X142582750Y-53140000D01*
X143070250Y-53140000D01*
X143094142Y-53141174D01*
G37*
G36*
X116205142Y-56301174D02*
G01*
X116228803Y-56304684D01*
X116252007Y-56310496D01*
X116274529Y-56318554D01*
X116296153Y-56328782D01*
X116316670Y-56341079D01*
X116335883Y-56355329D01*
X116353607Y-56371393D01*
X116369671Y-56389117D01*
X116383921Y-56408330D01*
X116396218Y-56428847D01*
X116406446Y-56450471D01*
X116414504Y-56472993D01*
X116420316Y-56496197D01*
X116423826Y-56519858D01*
X116425000Y-56543750D01*
X116425000Y-57456250D01*
X116423826Y-57480142D01*
X116420316Y-57503803D01*
X116414504Y-57527007D01*
X116406446Y-57549529D01*
X116396218Y-57571153D01*
X116383921Y-57591670D01*
X116369671Y-57610883D01*
X116353607Y-57628607D01*
X116335883Y-57644671D01*
X116316670Y-57658921D01*
X116296153Y-57671218D01*
X116274529Y-57681446D01*
X116252007Y-57689504D01*
X116228803Y-57695316D01*
X116205142Y-57698826D01*
X116181250Y-57700000D01*
X115693750Y-57700000D01*
X115669858Y-57698826D01*
X115646197Y-57695316D01*
X115622993Y-57689504D01*
X115600471Y-57681446D01*
X115578847Y-57671218D01*
X115558330Y-57658921D01*
X115539117Y-57644671D01*
X115521393Y-57628607D01*
X115505329Y-57610883D01*
X115491079Y-57591670D01*
X115478782Y-57571153D01*
X115468554Y-57549529D01*
X115460496Y-57527007D01*
X115454684Y-57503803D01*
X115451174Y-57480142D01*
X115450000Y-57456250D01*
X115450000Y-56543750D01*
X115451174Y-56519858D01*
X115454684Y-56496197D01*
X115460496Y-56472993D01*
X115468554Y-56450471D01*
X115478782Y-56428847D01*
X115491079Y-56408330D01*
X115505329Y-56389117D01*
X115521393Y-56371393D01*
X115539117Y-56355329D01*
X115558330Y-56341079D01*
X115578847Y-56328782D01*
X115600471Y-56318554D01*
X115622993Y-56310496D01*
X115646197Y-56304684D01*
X115669858Y-56301174D01*
X115693750Y-56300000D01*
X116181250Y-56300000D01*
X116205142Y-56301174D01*
G37*
G36*
X114330142Y-56301174D02*
G01*
X114353803Y-56304684D01*
X114377007Y-56310496D01*
X114399529Y-56318554D01*
X114421153Y-56328782D01*
X114441670Y-56341079D01*
X114460883Y-56355329D01*
X114478607Y-56371393D01*
X114494671Y-56389117D01*
X114508921Y-56408330D01*
X114521218Y-56428847D01*
X114531446Y-56450471D01*
X114539504Y-56472993D01*
X114545316Y-56496197D01*
X114548826Y-56519858D01*
X114550000Y-56543750D01*
X114550000Y-57456250D01*
X114548826Y-57480142D01*
X114545316Y-57503803D01*
X114539504Y-57527007D01*
X114531446Y-57549529D01*
X114521218Y-57571153D01*
X114508921Y-57591670D01*
X114494671Y-57610883D01*
X114478607Y-57628607D01*
X114460883Y-57644671D01*
X114441670Y-57658921D01*
X114421153Y-57671218D01*
X114399529Y-57681446D01*
X114377007Y-57689504D01*
X114353803Y-57695316D01*
X114330142Y-57698826D01*
X114306250Y-57700000D01*
X113818750Y-57700000D01*
X113794858Y-57698826D01*
X113771197Y-57695316D01*
X113747993Y-57689504D01*
X113725471Y-57681446D01*
X113703847Y-57671218D01*
X113683330Y-57658921D01*
X113664117Y-57644671D01*
X113646393Y-57628607D01*
X113630329Y-57610883D01*
X113616079Y-57591670D01*
X113603782Y-57571153D01*
X113593554Y-57549529D01*
X113585496Y-57527007D01*
X113579684Y-57503803D01*
X113576174Y-57480142D01*
X113575000Y-57456250D01*
X113575000Y-56543750D01*
X113576174Y-56519858D01*
X113579684Y-56496197D01*
X113585496Y-56472993D01*
X113593554Y-56450471D01*
X113603782Y-56428847D01*
X113616079Y-56408330D01*
X113630329Y-56389117D01*
X113646393Y-56371393D01*
X113664117Y-56355329D01*
X113683330Y-56341079D01*
X113703847Y-56328782D01*
X113725471Y-56318554D01*
X113747993Y-56310496D01*
X113771197Y-56304684D01*
X113794858Y-56301174D01*
X113818750Y-56300000D01*
X114306250Y-56300000D01*
X114330142Y-56301174D01*
G37*
G36*
X149698142Y-51109174D02*
G01*
X149721803Y-51112684D01*
X149745007Y-51118496D01*
X149767529Y-51126554D01*
X149789153Y-51136782D01*
X149809670Y-51149079D01*
X149828883Y-51163329D01*
X149846607Y-51179393D01*
X149862671Y-51197117D01*
X149876921Y-51216330D01*
X149889218Y-51236847D01*
X149899446Y-51258471D01*
X149907504Y-51280993D01*
X149913316Y-51304197D01*
X149916826Y-51327858D01*
X149918000Y-51351750D01*
X149918000Y-52264250D01*
X149916826Y-52288142D01*
X149913316Y-52311803D01*
X149907504Y-52335007D01*
X149899446Y-52357529D01*
X149889218Y-52379153D01*
X149876921Y-52399670D01*
X149862671Y-52418883D01*
X149846607Y-52436607D01*
X149828883Y-52452671D01*
X149809670Y-52466921D01*
X149789153Y-52479218D01*
X149767529Y-52489446D01*
X149745007Y-52497504D01*
X149721803Y-52503316D01*
X149698142Y-52506826D01*
X149674250Y-52508000D01*
X149186750Y-52508000D01*
X149162858Y-52506826D01*
X149139197Y-52503316D01*
X149115993Y-52497504D01*
X149093471Y-52489446D01*
X149071847Y-52479218D01*
X149051330Y-52466921D01*
X149032117Y-52452671D01*
X149014393Y-52436607D01*
X148998329Y-52418883D01*
X148984079Y-52399670D01*
X148971782Y-52379153D01*
X148961554Y-52357529D01*
X148953496Y-52335007D01*
X148947684Y-52311803D01*
X148944174Y-52288142D01*
X148943000Y-52264250D01*
X148943000Y-51351750D01*
X148944174Y-51327858D01*
X148947684Y-51304197D01*
X148953496Y-51280993D01*
X148961554Y-51258471D01*
X148971782Y-51236847D01*
X148984079Y-51216330D01*
X148998329Y-51197117D01*
X149014393Y-51179393D01*
X149032117Y-51163329D01*
X149051330Y-51149079D01*
X149071847Y-51136782D01*
X149093471Y-51126554D01*
X149115993Y-51118496D01*
X149139197Y-51112684D01*
X149162858Y-51109174D01*
X149186750Y-51108000D01*
X149674250Y-51108000D01*
X149698142Y-51109174D01*
G37*
G36*
X151573142Y-51109174D02*
G01*
X151596803Y-51112684D01*
X151620007Y-51118496D01*
X151642529Y-51126554D01*
X151664153Y-51136782D01*
X151684670Y-51149079D01*
X151703883Y-51163329D01*
X151721607Y-51179393D01*
X151737671Y-51197117D01*
X151751921Y-51216330D01*
X151764218Y-51236847D01*
X151774446Y-51258471D01*
X151782504Y-51280993D01*
X151788316Y-51304197D01*
X151791826Y-51327858D01*
X151793000Y-51351750D01*
X151793000Y-52264250D01*
X151791826Y-52288142D01*
X151788316Y-52311803D01*
X151782504Y-52335007D01*
X151774446Y-52357529D01*
X151764218Y-52379153D01*
X151751921Y-52399670D01*
X151737671Y-52418883D01*
X151721607Y-52436607D01*
X151703883Y-52452671D01*
X151684670Y-52466921D01*
X151664153Y-52479218D01*
X151642529Y-52489446D01*
X151620007Y-52497504D01*
X151596803Y-52503316D01*
X151573142Y-52506826D01*
X151549250Y-52508000D01*
X151061750Y-52508000D01*
X151037858Y-52506826D01*
X151014197Y-52503316D01*
X150990993Y-52497504D01*
X150968471Y-52489446D01*
X150946847Y-52479218D01*
X150926330Y-52466921D01*
X150907117Y-52452671D01*
X150889393Y-52436607D01*
X150873329Y-52418883D01*
X150859079Y-52399670D01*
X150846782Y-52379153D01*
X150836554Y-52357529D01*
X150828496Y-52335007D01*
X150822684Y-52311803D01*
X150819174Y-52288142D01*
X150818000Y-52264250D01*
X150818000Y-51351750D01*
X150819174Y-51327858D01*
X150822684Y-51304197D01*
X150828496Y-51280993D01*
X150836554Y-51258471D01*
X150846782Y-51236847D01*
X150859079Y-51216330D01*
X150873329Y-51197117D01*
X150889393Y-51179393D01*
X150907117Y-51163329D01*
X150926330Y-51149079D01*
X150946847Y-51136782D01*
X150968471Y-51126554D01*
X150990993Y-51118496D01*
X151014197Y-51112684D01*
X151037858Y-51109174D01*
X151061750Y-51108000D01*
X151549250Y-51108000D01*
X151573142Y-51109174D01*
G37*
G36*
X110330142Y-54801174D02*
G01*
X110353803Y-54804684D01*
X110377007Y-54810496D01*
X110399529Y-54818554D01*
X110421153Y-54828782D01*
X110441670Y-54841079D01*
X110460883Y-54855329D01*
X110478607Y-54871393D01*
X110494671Y-54889117D01*
X110508921Y-54908330D01*
X110521218Y-54928847D01*
X110531446Y-54950471D01*
X110539504Y-54972993D01*
X110545316Y-54996197D01*
X110548826Y-55019858D01*
X110550000Y-55043750D01*
X110550000Y-55956250D01*
X110548826Y-55980142D01*
X110545316Y-56003803D01*
X110539504Y-56027007D01*
X110531446Y-56049529D01*
X110521218Y-56071153D01*
X110508921Y-56091670D01*
X110494671Y-56110883D01*
X110478607Y-56128607D01*
X110460883Y-56144671D01*
X110441670Y-56158921D01*
X110421153Y-56171218D01*
X110399529Y-56181446D01*
X110377007Y-56189504D01*
X110353803Y-56195316D01*
X110330142Y-56198826D01*
X110306250Y-56200000D01*
X109818750Y-56200000D01*
X109794858Y-56198826D01*
X109771197Y-56195316D01*
X109747993Y-56189504D01*
X109725471Y-56181446D01*
X109703847Y-56171218D01*
X109683330Y-56158921D01*
X109664117Y-56144671D01*
X109646393Y-56128607D01*
X109630329Y-56110883D01*
X109616079Y-56091670D01*
X109603782Y-56071153D01*
X109593554Y-56049529D01*
X109585496Y-56027007D01*
X109579684Y-56003803D01*
X109576174Y-55980142D01*
X109575000Y-55956250D01*
X109575000Y-55043750D01*
X109576174Y-55019858D01*
X109579684Y-54996197D01*
X109585496Y-54972993D01*
X109593554Y-54950471D01*
X109603782Y-54928847D01*
X109616079Y-54908330D01*
X109630329Y-54889117D01*
X109646393Y-54871393D01*
X109664117Y-54855329D01*
X109683330Y-54841079D01*
X109703847Y-54828782D01*
X109725471Y-54818554D01*
X109747993Y-54810496D01*
X109771197Y-54804684D01*
X109794858Y-54801174D01*
X109818750Y-54800000D01*
X110306250Y-54800000D01*
X110330142Y-54801174D01*
G37*
G36*
X112205142Y-54801174D02*
G01*
X112228803Y-54804684D01*
X112252007Y-54810496D01*
X112274529Y-54818554D01*
X112296153Y-54828782D01*
X112316670Y-54841079D01*
X112335883Y-54855329D01*
X112353607Y-54871393D01*
X112369671Y-54889117D01*
X112383921Y-54908330D01*
X112396218Y-54928847D01*
X112406446Y-54950471D01*
X112414504Y-54972993D01*
X112420316Y-54996197D01*
X112423826Y-55019858D01*
X112425000Y-55043750D01*
X112425000Y-55956250D01*
X112423826Y-55980142D01*
X112420316Y-56003803D01*
X112414504Y-56027007D01*
X112406446Y-56049529D01*
X112396218Y-56071153D01*
X112383921Y-56091670D01*
X112369671Y-56110883D01*
X112353607Y-56128607D01*
X112335883Y-56144671D01*
X112316670Y-56158921D01*
X112296153Y-56171218D01*
X112274529Y-56181446D01*
X112252007Y-56189504D01*
X112228803Y-56195316D01*
X112205142Y-56198826D01*
X112181250Y-56200000D01*
X111693750Y-56200000D01*
X111669858Y-56198826D01*
X111646197Y-56195316D01*
X111622993Y-56189504D01*
X111600471Y-56181446D01*
X111578847Y-56171218D01*
X111558330Y-56158921D01*
X111539117Y-56144671D01*
X111521393Y-56128607D01*
X111505329Y-56110883D01*
X111491079Y-56091670D01*
X111478782Y-56071153D01*
X111468554Y-56049529D01*
X111460496Y-56027007D01*
X111454684Y-56003803D01*
X111451174Y-55980142D01*
X111450000Y-55956250D01*
X111450000Y-55043750D01*
X111451174Y-55019858D01*
X111454684Y-54996197D01*
X111460496Y-54972993D01*
X111468554Y-54950471D01*
X111478782Y-54928847D01*
X111491079Y-54908330D01*
X111505329Y-54889117D01*
X111521393Y-54871393D01*
X111539117Y-54855329D01*
X111558330Y-54841079D01*
X111578847Y-54828782D01*
X111600471Y-54818554D01*
X111622993Y-54810496D01*
X111646197Y-54804684D01*
X111669858Y-54801174D01*
X111693750Y-54800000D01*
X112181250Y-54800000D01*
X112205142Y-54801174D01*
G37*
G36*
X149698142Y-53141174D02*
G01*
X149721803Y-53144684D01*
X149745007Y-53150496D01*
X149767529Y-53158554D01*
X149789153Y-53168782D01*
X149809670Y-53181079D01*
X149828883Y-53195329D01*
X149846607Y-53211393D01*
X149862671Y-53229117D01*
X149876921Y-53248330D01*
X149889218Y-53268847D01*
X149899446Y-53290471D01*
X149907504Y-53312993D01*
X149913316Y-53336197D01*
X149916826Y-53359858D01*
X149918000Y-53383750D01*
X149918000Y-54296250D01*
X149916826Y-54320142D01*
X149913316Y-54343803D01*
X149907504Y-54367007D01*
X149899446Y-54389529D01*
X149889218Y-54411153D01*
X149876921Y-54431670D01*
X149862671Y-54450883D01*
X149846607Y-54468607D01*
X149828883Y-54484671D01*
X149809670Y-54498921D01*
X149789153Y-54511218D01*
X149767529Y-54521446D01*
X149745007Y-54529504D01*
X149721803Y-54535316D01*
X149698142Y-54538826D01*
X149674250Y-54540000D01*
X149186750Y-54540000D01*
X149162858Y-54538826D01*
X149139197Y-54535316D01*
X149115993Y-54529504D01*
X149093471Y-54521446D01*
X149071847Y-54511218D01*
X149051330Y-54498921D01*
X149032117Y-54484671D01*
X149014393Y-54468607D01*
X148998329Y-54450883D01*
X148984079Y-54431670D01*
X148971782Y-54411153D01*
X148961554Y-54389529D01*
X148953496Y-54367007D01*
X148947684Y-54343803D01*
X148944174Y-54320142D01*
X148943000Y-54296250D01*
X148943000Y-53383750D01*
X148944174Y-53359858D01*
X148947684Y-53336197D01*
X148953496Y-53312993D01*
X148961554Y-53290471D01*
X148971782Y-53268847D01*
X148984079Y-53248330D01*
X148998329Y-53229117D01*
X149014393Y-53211393D01*
X149032117Y-53195329D01*
X149051330Y-53181079D01*
X149071847Y-53168782D01*
X149093471Y-53158554D01*
X149115993Y-53150496D01*
X149139197Y-53144684D01*
X149162858Y-53141174D01*
X149186750Y-53140000D01*
X149674250Y-53140000D01*
X149698142Y-53141174D01*
G37*
G36*
X151573142Y-53141174D02*
G01*
X151596803Y-53144684D01*
X151620007Y-53150496D01*
X151642529Y-53158554D01*
X151664153Y-53168782D01*
X151684670Y-53181079D01*
X151703883Y-53195329D01*
X151721607Y-53211393D01*
X151737671Y-53229117D01*
X151751921Y-53248330D01*
X151764218Y-53268847D01*
X151774446Y-53290471D01*
X151782504Y-53312993D01*
X151788316Y-53336197D01*
X151791826Y-53359858D01*
X151793000Y-53383750D01*
X151793000Y-54296250D01*
X151791826Y-54320142D01*
X151788316Y-54343803D01*
X151782504Y-54367007D01*
X151774446Y-54389529D01*
X151764218Y-54411153D01*
X151751921Y-54431670D01*
X151737671Y-54450883D01*
X151721607Y-54468607D01*
X151703883Y-54484671D01*
X151684670Y-54498921D01*
X151664153Y-54511218D01*
X151642529Y-54521446D01*
X151620007Y-54529504D01*
X151596803Y-54535316D01*
X151573142Y-54538826D01*
X151549250Y-54540000D01*
X151061750Y-54540000D01*
X151037858Y-54538826D01*
X151014197Y-54535316D01*
X150990993Y-54529504D01*
X150968471Y-54521446D01*
X150946847Y-54511218D01*
X150926330Y-54498921D01*
X150907117Y-54484671D01*
X150889393Y-54468607D01*
X150873329Y-54450883D01*
X150859079Y-54431670D01*
X150846782Y-54411153D01*
X150836554Y-54389529D01*
X150828496Y-54367007D01*
X150822684Y-54343803D01*
X150819174Y-54320142D01*
X150818000Y-54296250D01*
X150818000Y-53383750D01*
X150819174Y-53359858D01*
X150822684Y-53336197D01*
X150828496Y-53312993D01*
X150836554Y-53290471D01*
X150846782Y-53268847D01*
X150859079Y-53248330D01*
X150873329Y-53229117D01*
X150889393Y-53211393D01*
X150907117Y-53195329D01*
X150926330Y-53181079D01*
X150946847Y-53168782D01*
X150968471Y-53158554D01*
X150990993Y-53150496D01*
X151014197Y-53144684D01*
X151037858Y-53141174D01*
X151061750Y-53140000D01*
X151549250Y-53140000D01*
X151573142Y-53141174D01*
G37*
G36*
X149695842Y-55173174D02*
G01*
X149719503Y-55176684D01*
X149742707Y-55182496D01*
X149765229Y-55190554D01*
X149786853Y-55200782D01*
X149807370Y-55213079D01*
X149826583Y-55227329D01*
X149844307Y-55243393D01*
X149860371Y-55261117D01*
X149874621Y-55280330D01*
X149886918Y-55300847D01*
X149897146Y-55322471D01*
X149905204Y-55344993D01*
X149911016Y-55368197D01*
X149914526Y-55391858D01*
X149915700Y-55415750D01*
X149915700Y-56328250D01*
X149914526Y-56352142D01*
X149911016Y-56375803D01*
X149905204Y-56399007D01*
X149897146Y-56421529D01*
X149886918Y-56443153D01*
X149874621Y-56463670D01*
X149860371Y-56482883D01*
X149844307Y-56500607D01*
X149826583Y-56516671D01*
X149807370Y-56530921D01*
X149786853Y-56543218D01*
X149765229Y-56553446D01*
X149742707Y-56561504D01*
X149719503Y-56567316D01*
X149695842Y-56570826D01*
X149671950Y-56572000D01*
X149184450Y-56572000D01*
X149160558Y-56570826D01*
X149136897Y-56567316D01*
X149113693Y-56561504D01*
X149091171Y-56553446D01*
X149069547Y-56543218D01*
X149049030Y-56530921D01*
X149029817Y-56516671D01*
X149012093Y-56500607D01*
X148996029Y-56482883D01*
X148981779Y-56463670D01*
X148969482Y-56443153D01*
X148959254Y-56421529D01*
X148951196Y-56399007D01*
X148945384Y-56375803D01*
X148941874Y-56352142D01*
X148940700Y-56328250D01*
X148940700Y-55415750D01*
X148941874Y-55391858D01*
X148945384Y-55368197D01*
X148951196Y-55344993D01*
X148959254Y-55322471D01*
X148969482Y-55300847D01*
X148981779Y-55280330D01*
X148996029Y-55261117D01*
X149012093Y-55243393D01*
X149029817Y-55227329D01*
X149049030Y-55213079D01*
X149069547Y-55200782D01*
X149091171Y-55190554D01*
X149113693Y-55182496D01*
X149136897Y-55176684D01*
X149160558Y-55173174D01*
X149184450Y-55172000D01*
X149671950Y-55172000D01*
X149695842Y-55173174D01*
G37*
G36*
X151570842Y-55173174D02*
G01*
X151594503Y-55176684D01*
X151617707Y-55182496D01*
X151640229Y-55190554D01*
X151661853Y-55200782D01*
X151682370Y-55213079D01*
X151701583Y-55227329D01*
X151719307Y-55243393D01*
X151735371Y-55261117D01*
X151749621Y-55280330D01*
X151761918Y-55300847D01*
X151772146Y-55322471D01*
X151780204Y-55344993D01*
X151786016Y-55368197D01*
X151789526Y-55391858D01*
X151790700Y-55415750D01*
X151790700Y-56328250D01*
X151789526Y-56352142D01*
X151786016Y-56375803D01*
X151780204Y-56399007D01*
X151772146Y-56421529D01*
X151761918Y-56443153D01*
X151749621Y-56463670D01*
X151735371Y-56482883D01*
X151719307Y-56500607D01*
X151701583Y-56516671D01*
X151682370Y-56530921D01*
X151661853Y-56543218D01*
X151640229Y-56553446D01*
X151617707Y-56561504D01*
X151594503Y-56567316D01*
X151570842Y-56570826D01*
X151546950Y-56572000D01*
X151059450Y-56572000D01*
X151035558Y-56570826D01*
X151011897Y-56567316D01*
X150988693Y-56561504D01*
X150966171Y-56553446D01*
X150944547Y-56543218D01*
X150924030Y-56530921D01*
X150904817Y-56516671D01*
X150887093Y-56500607D01*
X150871029Y-56482883D01*
X150856779Y-56463670D01*
X150844482Y-56443153D01*
X150834254Y-56421529D01*
X150826196Y-56399007D01*
X150820384Y-56375803D01*
X150816874Y-56352142D01*
X150815700Y-56328250D01*
X150815700Y-55415750D01*
X150816874Y-55391858D01*
X150820384Y-55368197D01*
X150826196Y-55344993D01*
X150834254Y-55322471D01*
X150844482Y-55300847D01*
X150856779Y-55280330D01*
X150871029Y-55261117D01*
X150887093Y-55243393D01*
X150904817Y-55227329D01*
X150924030Y-55213079D01*
X150944547Y-55200782D01*
X150966171Y-55190554D01*
X150988693Y-55182496D01*
X151011897Y-55176684D01*
X151035558Y-55173174D01*
X151059450Y-55172000D01*
X151546950Y-55172000D01*
X151570842Y-55173174D01*
G37*
G36*
X104830142Y-60007174D02*
G01*
X104853803Y-60010684D01*
X104877007Y-60016496D01*
X104899529Y-60024554D01*
X104921153Y-60034782D01*
X104941670Y-60047079D01*
X104960883Y-60061329D01*
X104978607Y-60077393D01*
X104994671Y-60095117D01*
X105008921Y-60114330D01*
X105021218Y-60134847D01*
X105031446Y-60156471D01*
X105039504Y-60178993D01*
X105045316Y-60202197D01*
X105048826Y-60225858D01*
X105050000Y-60249750D01*
X105050000Y-61162250D01*
X105048826Y-61186142D01*
X105045316Y-61209803D01*
X105039504Y-61233007D01*
X105031446Y-61255529D01*
X105021218Y-61277153D01*
X105008921Y-61297670D01*
X104994671Y-61316883D01*
X104978607Y-61334607D01*
X104960883Y-61350671D01*
X104941670Y-61364921D01*
X104921153Y-61377218D01*
X104899529Y-61387446D01*
X104877007Y-61395504D01*
X104853803Y-61401316D01*
X104830142Y-61404826D01*
X104806250Y-61406000D01*
X104318750Y-61406000D01*
X104294858Y-61404826D01*
X104271197Y-61401316D01*
X104247993Y-61395504D01*
X104225471Y-61387446D01*
X104203847Y-61377218D01*
X104183330Y-61364921D01*
X104164117Y-61350671D01*
X104146393Y-61334607D01*
X104130329Y-61316883D01*
X104116079Y-61297670D01*
X104103782Y-61277153D01*
X104093554Y-61255529D01*
X104085496Y-61233007D01*
X104079684Y-61209803D01*
X104076174Y-61186142D01*
X104075000Y-61162250D01*
X104075000Y-60249750D01*
X104076174Y-60225858D01*
X104079684Y-60202197D01*
X104085496Y-60178993D01*
X104093554Y-60156471D01*
X104103782Y-60134847D01*
X104116079Y-60114330D01*
X104130329Y-60095117D01*
X104146393Y-60077393D01*
X104164117Y-60061329D01*
X104183330Y-60047079D01*
X104203847Y-60034782D01*
X104225471Y-60024554D01*
X104247993Y-60016496D01*
X104271197Y-60010684D01*
X104294858Y-60007174D01*
X104318750Y-60006000D01*
X104806250Y-60006000D01*
X104830142Y-60007174D01*
G37*
G36*
X106705142Y-60007174D02*
G01*
X106728803Y-60010684D01*
X106752007Y-60016496D01*
X106774529Y-60024554D01*
X106796153Y-60034782D01*
X106816670Y-60047079D01*
X106835883Y-60061329D01*
X106853607Y-60077393D01*
X106869671Y-60095117D01*
X106883921Y-60114330D01*
X106896218Y-60134847D01*
X106906446Y-60156471D01*
X106914504Y-60178993D01*
X106920316Y-60202197D01*
X106923826Y-60225858D01*
X106925000Y-60249750D01*
X106925000Y-61162250D01*
X106923826Y-61186142D01*
X106920316Y-61209803D01*
X106914504Y-61233007D01*
X106906446Y-61255529D01*
X106896218Y-61277153D01*
X106883921Y-61297670D01*
X106869671Y-61316883D01*
X106853607Y-61334607D01*
X106835883Y-61350671D01*
X106816670Y-61364921D01*
X106796153Y-61377218D01*
X106774529Y-61387446D01*
X106752007Y-61395504D01*
X106728803Y-61401316D01*
X106705142Y-61404826D01*
X106681250Y-61406000D01*
X106193750Y-61406000D01*
X106169858Y-61404826D01*
X106146197Y-61401316D01*
X106122993Y-61395504D01*
X106100471Y-61387446D01*
X106078847Y-61377218D01*
X106058330Y-61364921D01*
X106039117Y-61350671D01*
X106021393Y-61334607D01*
X106005329Y-61316883D01*
X105991079Y-61297670D01*
X105978782Y-61277153D01*
X105968554Y-61255529D01*
X105960496Y-61233007D01*
X105954684Y-61209803D01*
X105951174Y-61186142D01*
X105950000Y-61162250D01*
X105950000Y-60249750D01*
X105951174Y-60225858D01*
X105954684Y-60202197D01*
X105960496Y-60178993D01*
X105968554Y-60156471D01*
X105978782Y-60134847D01*
X105991079Y-60114330D01*
X106005329Y-60095117D01*
X106021393Y-60077393D01*
X106039117Y-60061329D01*
X106058330Y-60047079D01*
X106078847Y-60034782D01*
X106100471Y-60024554D01*
X106122993Y-60016496D01*
X106146197Y-60010684D01*
X106169858Y-60007174D01*
X106193750Y-60006000D01*
X106681250Y-60006000D01*
X106705142Y-60007174D01*
G37*
M02*
