M48
; DRILL file {KiCad 5.1.5} date Fri 10 Apr 2020 05:55:28 PM CEST
; FORMAT={-:-/ absolute / inch / decimal}
; #@! TF.CreationDate,2020-04-10T17:55:28+02:00
; #@! TF.GenerationSoftware,Kicad,Pcbnew,5.1.5
; #@! TF.FileFunction,Plated,1,2,PTH
FMAT,2
INCH
T1C0.0157
T2C0.0295
T3C0.0315
T4C0.0354
T5C0.0394
T6C0.0433
T7C0.0591
%
G90
G05
T1
X4.8031Y-2.0669
X4.9016Y-2.2835
X4.9409Y-2.2441
T2
X6.05Y-2.1097
X6.1Y-2.1097
X6.15Y-2.1097
T3
X4.4488Y-2.5
X4.5472Y-2.5
X4.0416Y-2.13
X4.14Y-2.13
X4.7Y-2.43
X4.7Y-2.53
X4.7Y-2.63
X4.7Y-2.73
X4.7Y-2.83
X4.7Y-2.93
X4.7Y-3.03
X4.7Y-3.13
X4.7Y-3.23
X4.7Y-3.33
X4.7Y-3.43
X4.7Y-3.53
X4.7Y-3.63
X4.7Y-3.73
X4.7Y-3.83
X5.3Y-2.43
X5.3Y-2.53
X5.3Y-2.63
X5.3Y-2.73
X5.3Y-2.83
X5.3Y-2.93
X5.3Y-3.03
X5.3Y-3.13
X5.3Y-3.23
X5.3Y-3.33
X5.3Y-3.43
X5.3Y-3.53
X5.3Y-3.63
X5.3Y-3.73
X5.3Y-3.83
X5.7583Y-2.4409
X5.7583Y-2.7409
X5.8583Y-2.4409
X5.8583Y-2.7409
X5.9583Y-2.4409
X5.9583Y-2.7409
X6.0583Y-2.4409
X6.0583Y-2.7409
X6.1583Y-2.4409
X6.1583Y-2.7409
X6.2583Y-2.4409
X6.2583Y-2.7409
X6.3583Y-2.4409
X6.3583Y-2.7409
T4
X5.44Y-2.2835
X5.54Y-2.2835
X5.44Y-2.0866
X5.54Y-2.0866
T5
X4.37Y-3.4
X4.37Y-3.5
X4.37Y-3.6
X4.3701Y-2.6953
X4.3701Y-2.7953
X4.3701Y-2.8953
X6.2402Y-2.3031
X6.3402Y-2.3031
X4.75Y-2.16
X4.85Y-2.16
X4.95Y-2.16
X5.05Y-2.16
X4.2661Y-1.8209
X4.2661Y-1.9209
X4.3661Y-1.8209
X4.3661Y-1.9209
X4.4661Y-1.8209
X4.4661Y-1.9209
X4.5661Y-1.8209
X4.5661Y-1.9209
X4.6661Y-1.8209
X4.6661Y-1.9209
X4.7661Y-1.8209
X4.7661Y-1.9209
X4.8661Y-1.8209
X4.8661Y-1.9209
X4.9661Y-1.8209
X4.9661Y-1.9209
X5.0661Y-1.8209
X5.0661Y-1.9209
X5.1661Y-1.8209
X5.1661Y-1.9209
X5.2661Y-1.8209
X5.2661Y-1.9209
X5.3661Y-1.8209
X5.3661Y-1.9209
X5.4661Y-1.8209
X5.4661Y-1.9209
X5.5661Y-1.8209
X5.5661Y-1.9209
X5.6661Y-1.8209
X5.6661Y-1.9209
X5.7661Y-1.8209
X5.7661Y-1.9209
X5.8661Y-1.8209
X5.8661Y-1.9209
X5.9661Y-1.8209
X5.9661Y-1.9209
X6.0661Y-1.8209
X6.0661Y-1.9209
X6.1661Y-1.8209
X6.1661Y-1.9209
X4.3Y-2.0669
X4.4Y-2.0669
X4.5Y-2.0669
X4.6Y-2.0669
X4.37Y-3.048
X4.37Y-3.148
X4.37Y-3.248
T6
X5.44Y-2.4803
X5.44Y-2.7362
X5.6172Y-2.4803
X5.6172Y-2.7362
T7
X4.05Y-2.52
X4.25Y-2.52
T0
M30
