G04 #@! TF.GenerationSoftware,KiCad,Pcbnew,5.1.5*
G04 #@! TF.CreationDate,2020-04-11T22:48:05+02:00*
G04 #@! TF.ProjectId,rc_car,72635f63-6172-42e6-9b69-6361645f7063,rev?*
G04 #@! TF.SameCoordinates,Original*
G04 #@! TF.FileFunction,Legend,Bot*
G04 #@! TF.FilePolarity,Positive*
%FSLAX46Y46*%
G04 Gerber Fmt 4.6, Leading zero omitted, Abs format (unit mm)*
G04 Created by KiCad (PCBNEW 5.1.5) date 2020-04-11 22:48:05*
%MOMM*%
%LPD*%
G04 APERTURE LIST*
%ADD10C,0.120000*%
%ADD11C,0.150000*%
G04 APERTURE END LIST*
D10*
X104258578Y-57710000D02*
X103741422Y-57710000D01*
X104258578Y-56290000D02*
X103741422Y-56290000D01*
X132710000Y-67060578D02*
X132710000Y-66543422D01*
X131290000Y-67060578D02*
X131290000Y-66543422D01*
X154258578Y-64790000D02*
X153741422Y-64790000D01*
X154258578Y-66210000D02*
X153741422Y-66210000D01*
D11*
X107166666Y-57357142D02*
X107214285Y-57404761D01*
X107357142Y-57452380D01*
X107452380Y-57452380D01*
X107595238Y-57404761D01*
X107690476Y-57309523D01*
X107738095Y-57214285D01*
X107785714Y-57023809D01*
X107785714Y-56880952D01*
X107738095Y-56690476D01*
X107690476Y-56595238D01*
X107595238Y-56500000D01*
X107452380Y-56452380D01*
X107357142Y-56452380D01*
X107214285Y-56500000D01*
X107166666Y-56547619D01*
X106785714Y-56547619D02*
X106738095Y-56500000D01*
X106642857Y-56452380D01*
X106404761Y-56452380D01*
X106309523Y-56500000D01*
X106261904Y-56547619D01*
X106214285Y-56642857D01*
X106214285Y-56738095D01*
X106261904Y-56880952D01*
X106833333Y-57452380D01*
X106214285Y-57452380D01*
X129916666Y-67357142D02*
X129964285Y-67404761D01*
X130107142Y-67452380D01*
X130202380Y-67452380D01*
X130345238Y-67404761D01*
X130440476Y-67309523D01*
X130488095Y-67214285D01*
X130535714Y-67023809D01*
X130535714Y-66880952D01*
X130488095Y-66690476D01*
X130440476Y-66595238D01*
X130345238Y-66500000D01*
X130202380Y-66452380D01*
X130107142Y-66452380D01*
X129964285Y-66500000D01*
X129916666Y-66547619D01*
X129059523Y-66785714D02*
X129059523Y-67452380D01*
X129297619Y-66404761D02*
X129535714Y-67119047D01*
X128916666Y-67119047D01*
X151166666Y-65857142D02*
X151214285Y-65904761D01*
X151357142Y-65952380D01*
X151452380Y-65952380D01*
X151595238Y-65904761D01*
X151690476Y-65809523D01*
X151738095Y-65714285D01*
X151785714Y-65523809D01*
X151785714Y-65380952D01*
X151738095Y-65190476D01*
X151690476Y-65095238D01*
X151595238Y-65000000D01*
X151452380Y-64952380D01*
X151357142Y-64952380D01*
X151214285Y-65000000D01*
X151166666Y-65047619D01*
X150833333Y-64952380D02*
X150214285Y-64952380D01*
X150547619Y-65333333D01*
X150404761Y-65333333D01*
X150309523Y-65380952D01*
X150261904Y-65428571D01*
X150214285Y-65523809D01*
X150214285Y-65761904D01*
X150261904Y-65857142D01*
X150309523Y-65904761D01*
X150404761Y-65952380D01*
X150690476Y-65952380D01*
X150785714Y-65904761D01*
X150833333Y-65857142D01*
M02*
