G04 #@! TF.GenerationSoftware,KiCad,Pcbnew,5.1.5*
G04 #@! TF.CreationDate,2020-04-10T17:53:54+02:00*
G04 #@! TF.ProjectId,rc_car,72635f63-6172-42e6-9b69-6361645f7063,rev?*
G04 #@! TF.SameCoordinates,Original*
G04 #@! TF.FileFunction,Legend,Top*
G04 #@! TF.FilePolarity,Positive*
%FSLAX46Y46*%
G04 Gerber Fmt 4.6, Leading zero omitted, Abs format (unit mm)*
G04 Created by KiCad (PCBNEW 5.1.5) date 2020-04-10 17:53:54*
%MOMM*%
%LPD*%
G04 APERTURE LIST*
%ADD10C,0.120000*%
%ADD11C,0.150000*%
G04 APERTURE END LIST*
D10*
X157950000Y-50120000D02*
X157950000Y-44920000D01*
X109630000Y-50120000D02*
X157950000Y-50120000D01*
X107030000Y-44920000D02*
X157950000Y-44920000D01*
X109630000Y-50120000D02*
X109630000Y-47520000D01*
X109630000Y-47520000D02*
X107030000Y-47520000D01*
X107030000Y-47520000D02*
X107030000Y-44920000D01*
X108360000Y-50120000D02*
X107030000Y-50120000D01*
X107030000Y-50120000D02*
X107030000Y-48790000D01*
X120650000Y-62992000D02*
X120650000Y-60452000D01*
X120650000Y-60452000D02*
X117980000Y-60452000D01*
X117980000Y-62992000D02*
X117980000Y-101222000D01*
X117980000Y-57782000D02*
X117980000Y-60452000D01*
X133350000Y-60452000D02*
X136020000Y-60452000D01*
X133350000Y-60452000D02*
X133350000Y-98552000D01*
X133350000Y-98552000D02*
X136020000Y-98552000D01*
X120650000Y-62992000D02*
X117980000Y-62992000D01*
X120650000Y-62992000D02*
X120650000Y-98552000D01*
X120650000Y-98552000D02*
X117980000Y-98552000D01*
X117980000Y-101222000D02*
X136020000Y-101222000D01*
X136020000Y-101222000D02*
X136020000Y-57782000D01*
X136020000Y-57782000D02*
X117980000Y-57782000D01*
X107091241Y-56256000D02*
X107091241Y-55626000D01*
X107406241Y-55941000D02*
X106776241Y-55941000D01*
X100665000Y-54504000D02*
X100665000Y-53700000D01*
X100705000Y-54735000D02*
X100705000Y-53469000D01*
X100745000Y-54904000D02*
X100745000Y-53300000D01*
X100785000Y-55042000D02*
X100785000Y-53162000D01*
X100825000Y-55161000D02*
X100825000Y-53043000D01*
X100865000Y-55267000D02*
X100865000Y-52937000D01*
X100905000Y-55364000D02*
X100905000Y-52840000D01*
X100945000Y-55452000D02*
X100945000Y-52752000D01*
X100985000Y-55534000D02*
X100985000Y-52670000D01*
X101025000Y-55611000D02*
X101025000Y-52593000D01*
X101065000Y-55683000D02*
X101065000Y-52521000D01*
X101105000Y-55752000D02*
X101105000Y-52452000D01*
X101145000Y-55816000D02*
X101145000Y-52388000D01*
X101185000Y-55878000D02*
X101185000Y-52326000D01*
X101225000Y-55936000D02*
X101225000Y-52268000D01*
X101265000Y-55992000D02*
X101265000Y-52212000D01*
X101305000Y-56046000D02*
X101305000Y-52158000D01*
X101345000Y-56097000D02*
X101345000Y-52107000D01*
X101385000Y-56146000D02*
X101385000Y-52058000D01*
X101425000Y-56194000D02*
X101425000Y-52010000D01*
X101465000Y-56239000D02*
X101465000Y-51965000D01*
X101505000Y-56284000D02*
X101505000Y-51920000D01*
X101545000Y-56326000D02*
X101545000Y-51878000D01*
X101585000Y-56367000D02*
X101585000Y-51837000D01*
X101625000Y-53062000D02*
X101625000Y-51797000D01*
X101625000Y-56407000D02*
X101625000Y-55142000D01*
X101665000Y-53062000D02*
X101665000Y-51759000D01*
X101665000Y-56445000D02*
X101665000Y-55142000D01*
X101705000Y-53062000D02*
X101705000Y-51722000D01*
X101705000Y-56482000D02*
X101705000Y-55142000D01*
X101745000Y-53062000D02*
X101745000Y-51686000D01*
X101745000Y-56518000D02*
X101745000Y-55142000D01*
X101785000Y-53062000D02*
X101785000Y-51652000D01*
X101785000Y-56552000D02*
X101785000Y-55142000D01*
X101825000Y-53062000D02*
X101825000Y-51618000D01*
X101825000Y-56586000D02*
X101825000Y-55142000D01*
X101865000Y-53062000D02*
X101865000Y-51586000D01*
X101865000Y-56618000D02*
X101865000Y-55142000D01*
X101905000Y-53062000D02*
X101905000Y-51554000D01*
X101905000Y-56650000D02*
X101905000Y-55142000D01*
X101945000Y-53062000D02*
X101945000Y-51524000D01*
X101945000Y-56680000D02*
X101945000Y-55142000D01*
X101985000Y-53062000D02*
X101985000Y-51495000D01*
X101985000Y-56709000D02*
X101985000Y-55142000D01*
X102025000Y-53062000D02*
X102025000Y-51466000D01*
X102025000Y-56738000D02*
X102025000Y-55142000D01*
X102065000Y-53062000D02*
X102065000Y-51438000D01*
X102065000Y-56766000D02*
X102065000Y-55142000D01*
X102105000Y-53062000D02*
X102105000Y-51412000D01*
X102105000Y-56792000D02*
X102105000Y-55142000D01*
X102145000Y-53062000D02*
X102145000Y-51386000D01*
X102145000Y-56818000D02*
X102145000Y-55142000D01*
X102185000Y-53062000D02*
X102185000Y-51360000D01*
X102185000Y-56844000D02*
X102185000Y-55142000D01*
X102225000Y-53062000D02*
X102225000Y-51336000D01*
X102225000Y-56868000D02*
X102225000Y-55142000D01*
X102265000Y-53062000D02*
X102265000Y-51312000D01*
X102265000Y-56892000D02*
X102265000Y-55142000D01*
X102305000Y-53062000D02*
X102305000Y-51290000D01*
X102305000Y-56914000D02*
X102305000Y-55142000D01*
X102345000Y-53062000D02*
X102345000Y-51268000D01*
X102345000Y-56936000D02*
X102345000Y-55142000D01*
X102385000Y-53062000D02*
X102385000Y-51246000D01*
X102385000Y-56958000D02*
X102385000Y-55142000D01*
X102425000Y-53062000D02*
X102425000Y-51226000D01*
X102425000Y-56978000D02*
X102425000Y-55142000D01*
X102465000Y-53062000D02*
X102465000Y-51206000D01*
X102465000Y-56998000D02*
X102465000Y-55142000D01*
X102505000Y-53062000D02*
X102505000Y-51186000D01*
X102505000Y-57018000D02*
X102505000Y-55142000D01*
X102545000Y-53062000D02*
X102545000Y-51168000D01*
X102545000Y-57036000D02*
X102545000Y-55142000D01*
X102585000Y-53062000D02*
X102585000Y-51150000D01*
X102585000Y-57054000D02*
X102585000Y-55142000D01*
X102625000Y-53062000D02*
X102625000Y-51132000D01*
X102625000Y-57072000D02*
X102625000Y-55142000D01*
X102665000Y-53062000D02*
X102665000Y-51116000D01*
X102665000Y-57088000D02*
X102665000Y-55142000D01*
X102705000Y-53062000D02*
X102705000Y-51100000D01*
X102705000Y-57104000D02*
X102705000Y-55142000D01*
X102745000Y-53062000D02*
X102745000Y-51084000D01*
X102745000Y-57120000D02*
X102745000Y-55142000D01*
X102785000Y-53062000D02*
X102785000Y-51069000D01*
X102785000Y-57135000D02*
X102785000Y-55142000D01*
X102825000Y-53062000D02*
X102825000Y-51055000D01*
X102825000Y-57149000D02*
X102825000Y-55142000D01*
X102865000Y-53062000D02*
X102865000Y-51041000D01*
X102865000Y-57163000D02*
X102865000Y-55142000D01*
X102905000Y-53062000D02*
X102905000Y-51028000D01*
X102905000Y-57176000D02*
X102905000Y-55142000D01*
X102945000Y-53062000D02*
X102945000Y-51016000D01*
X102945000Y-57188000D02*
X102945000Y-55142000D01*
X102985000Y-53062000D02*
X102985000Y-51004000D01*
X102985000Y-57200000D02*
X102985000Y-55142000D01*
X103025000Y-53062000D02*
X103025000Y-50992000D01*
X103025000Y-57212000D02*
X103025000Y-55142000D01*
X103065000Y-53062000D02*
X103065000Y-50981000D01*
X103065000Y-57223000D02*
X103065000Y-55142000D01*
X103105000Y-53062000D02*
X103105000Y-50971000D01*
X103105000Y-57233000D02*
X103105000Y-55142000D01*
X103145000Y-53062000D02*
X103145000Y-50961000D01*
X103145000Y-57243000D02*
X103145000Y-55142000D01*
X103185000Y-53062000D02*
X103185000Y-50952000D01*
X103185000Y-57252000D02*
X103185000Y-55142000D01*
X103226000Y-53062000D02*
X103226000Y-50943000D01*
X103226000Y-57261000D02*
X103226000Y-55142000D01*
X103266000Y-53062000D02*
X103266000Y-50935000D01*
X103266000Y-57269000D02*
X103266000Y-55142000D01*
X103306000Y-53062000D02*
X103306000Y-50927000D01*
X103306000Y-57277000D02*
X103306000Y-55142000D01*
X103346000Y-53062000D02*
X103346000Y-50920000D01*
X103346000Y-57284000D02*
X103346000Y-55142000D01*
X103386000Y-53062000D02*
X103386000Y-50913000D01*
X103386000Y-57291000D02*
X103386000Y-55142000D01*
X103426000Y-53062000D02*
X103426000Y-50907000D01*
X103426000Y-57297000D02*
X103426000Y-55142000D01*
X103466000Y-53062000D02*
X103466000Y-50901000D01*
X103466000Y-57303000D02*
X103466000Y-55142000D01*
X103506000Y-53062000D02*
X103506000Y-50896000D01*
X103506000Y-57308000D02*
X103506000Y-55142000D01*
X103546000Y-53062000D02*
X103546000Y-50891000D01*
X103546000Y-57313000D02*
X103546000Y-55142000D01*
X103586000Y-53062000D02*
X103586000Y-50887000D01*
X103586000Y-57317000D02*
X103586000Y-55142000D01*
X103626000Y-53062000D02*
X103626000Y-50884000D01*
X103626000Y-57320000D02*
X103626000Y-55142000D01*
X103666000Y-53062000D02*
X103666000Y-50880000D01*
X103666000Y-57324000D02*
X103666000Y-55142000D01*
X103706000Y-57326000D02*
X103706000Y-50878000D01*
X103746000Y-57329000D02*
X103746000Y-50875000D01*
X103786000Y-57330000D02*
X103786000Y-50874000D01*
X103826000Y-57332000D02*
X103826000Y-50872000D01*
X103866000Y-57332000D02*
X103866000Y-50872000D01*
X103906000Y-57332000D02*
X103906000Y-50872000D01*
X107176000Y-54102000D02*
G75*
G03X107176000Y-54102000I-3270000J0D01*
G01*
X107890000Y-53830000D02*
X107890000Y-52500000D01*
X109220000Y-53830000D02*
X107890000Y-53830000D01*
X110490000Y-53830000D02*
X110490000Y-51170000D01*
X110490000Y-51170000D02*
X118170000Y-51170000D01*
X110490000Y-53830000D02*
X118170000Y-53830000D01*
X118170000Y-53830000D02*
X118170000Y-51170000D01*
X141118335Y-51921392D02*
G75*
G03X137886000Y-51764484I-1672335J-1078608D01*
G01*
X141118335Y-54078608D02*
G75*
G02X137886000Y-54235516I-1672335J1078608D01*
G01*
X140487130Y-51920163D02*
G75*
G03X138405039Y-51920000I-1041130J-1079837D01*
G01*
X140487130Y-54079837D02*
G75*
G02X138405039Y-54080000I-1041130J1079837D01*
G01*
X137886000Y-51764000D02*
X137886000Y-51920000D01*
X137886000Y-54080000D02*
X137886000Y-54236000D01*
X137886000Y-59080000D02*
X137886000Y-59236000D01*
X137886000Y-56764000D02*
X137886000Y-56920000D01*
X140487130Y-59079837D02*
G75*
G02X138405039Y-59080000I-1041130J1079837D01*
G01*
X140487130Y-56920163D02*
G75*
G03X138405039Y-56920000I-1041130J-1079837D01*
G01*
X141118335Y-59078608D02*
G75*
G02X137886000Y-59235516I-1672335J1078608D01*
G01*
X141118335Y-56921392D02*
G75*
G03X137886000Y-56764484I-1672335J-1078608D01*
G01*
X112270000Y-74810000D02*
X111000000Y-74810000D01*
X112270000Y-73540000D02*
X112270000Y-74810000D01*
X109957071Y-68080000D02*
X109560000Y-68080000D01*
X109957071Y-68840000D02*
X109560000Y-68840000D01*
X100900000Y-68080000D02*
X106900000Y-68080000D01*
X100900000Y-68840000D02*
X100900000Y-68080000D01*
X106900000Y-68840000D02*
X100900000Y-68840000D01*
X109560000Y-69730000D02*
X106900000Y-69730000D01*
X109957071Y-70620000D02*
X109560000Y-70620000D01*
X109957071Y-71380000D02*
X109560000Y-71380000D01*
X100900000Y-70620000D02*
X106900000Y-70620000D01*
X100900000Y-71380000D02*
X100900000Y-70620000D01*
X106900000Y-71380000D02*
X100900000Y-71380000D01*
X109560000Y-72270000D02*
X106900000Y-72270000D01*
X109890000Y-73160000D02*
X109560000Y-73160000D01*
X109890000Y-73920000D02*
X109560000Y-73920000D01*
X106900000Y-73260000D02*
X100900000Y-73260000D01*
X106900000Y-73380000D02*
X100900000Y-73380000D01*
X106900000Y-73500000D02*
X100900000Y-73500000D01*
X106900000Y-73620000D02*
X100900000Y-73620000D01*
X106900000Y-73740000D02*
X100900000Y-73740000D01*
X106900000Y-73860000D02*
X100900000Y-73860000D01*
X100900000Y-73160000D02*
X106900000Y-73160000D01*
X100900000Y-73920000D02*
X100900000Y-73160000D01*
X106900000Y-73920000D02*
X100900000Y-73920000D01*
X106900000Y-74870000D02*
X109560000Y-74870000D01*
X106900000Y-67130000D02*
X106900000Y-74870000D01*
X109560000Y-67130000D02*
X106900000Y-67130000D01*
X109560000Y-74870000D02*
X109560000Y-67130000D01*
X109558000Y-83830000D02*
X109558000Y-76090000D01*
X109558000Y-76090000D02*
X106898000Y-76090000D01*
X106898000Y-76090000D02*
X106898000Y-83830000D01*
X106898000Y-83830000D02*
X109558000Y-83830000D01*
X106898000Y-82880000D02*
X100898000Y-82880000D01*
X100898000Y-82880000D02*
X100898000Y-82120000D01*
X100898000Y-82120000D02*
X106898000Y-82120000D01*
X106898000Y-82820000D02*
X100898000Y-82820000D01*
X106898000Y-82700000D02*
X100898000Y-82700000D01*
X106898000Y-82580000D02*
X100898000Y-82580000D01*
X106898000Y-82460000D02*
X100898000Y-82460000D01*
X106898000Y-82340000D02*
X100898000Y-82340000D01*
X106898000Y-82220000D02*
X100898000Y-82220000D01*
X109888000Y-82880000D02*
X109558000Y-82880000D01*
X109888000Y-82120000D02*
X109558000Y-82120000D01*
X109558000Y-81230000D02*
X106898000Y-81230000D01*
X106898000Y-80340000D02*
X100898000Y-80340000D01*
X100898000Y-80340000D02*
X100898000Y-79580000D01*
X100898000Y-79580000D02*
X106898000Y-79580000D01*
X109955071Y-80340000D02*
X109558000Y-80340000D01*
X109955071Y-79580000D02*
X109558000Y-79580000D01*
X109558000Y-78690000D02*
X106898000Y-78690000D01*
X106898000Y-77800000D02*
X100898000Y-77800000D01*
X100898000Y-77800000D02*
X100898000Y-77040000D01*
X100898000Y-77040000D02*
X106898000Y-77040000D01*
X109955071Y-77800000D02*
X109558000Y-77800000D01*
X109955071Y-77040000D02*
X109558000Y-77040000D01*
X112268000Y-82500000D02*
X112268000Y-83770000D01*
X112268000Y-83770000D02*
X110998000Y-83770000D01*
X109558000Y-92770000D02*
X109558000Y-85030000D01*
X109558000Y-85030000D02*
X106898000Y-85030000D01*
X106898000Y-85030000D02*
X106898000Y-92770000D01*
X106898000Y-92770000D02*
X109558000Y-92770000D01*
X106898000Y-91820000D02*
X100898000Y-91820000D01*
X100898000Y-91820000D02*
X100898000Y-91060000D01*
X100898000Y-91060000D02*
X106898000Y-91060000D01*
X106898000Y-91760000D02*
X100898000Y-91760000D01*
X106898000Y-91640000D02*
X100898000Y-91640000D01*
X106898000Y-91520000D02*
X100898000Y-91520000D01*
X106898000Y-91400000D02*
X100898000Y-91400000D01*
X106898000Y-91280000D02*
X100898000Y-91280000D01*
X106898000Y-91160000D02*
X100898000Y-91160000D01*
X109888000Y-91820000D02*
X109558000Y-91820000D01*
X109888000Y-91060000D02*
X109558000Y-91060000D01*
X109558000Y-90170000D02*
X106898000Y-90170000D01*
X106898000Y-89280000D02*
X100898000Y-89280000D01*
X100898000Y-89280000D02*
X100898000Y-88520000D01*
X100898000Y-88520000D02*
X106898000Y-88520000D01*
X109955071Y-89280000D02*
X109558000Y-89280000D01*
X109955071Y-88520000D02*
X109558000Y-88520000D01*
X109558000Y-87630000D02*
X106898000Y-87630000D01*
X106898000Y-86740000D02*
X100898000Y-86740000D01*
X100898000Y-86740000D02*
X100898000Y-85980000D01*
X100898000Y-85980000D02*
X106898000Y-85980000D01*
X109955071Y-86740000D02*
X109558000Y-86740000D01*
X109955071Y-85980000D02*
X109558000Y-85980000D01*
X112268000Y-91440000D02*
X112268000Y-92710000D01*
X112268000Y-92710000D02*
X110998000Y-92710000D01*
X119320000Y-53534000D02*
X119320000Y-56194000D01*
X127000000Y-53534000D02*
X119320000Y-53534000D01*
X127000000Y-56194000D02*
X119320000Y-56194000D01*
X127000000Y-53534000D02*
X127000000Y-56194000D01*
X128270000Y-53534000D02*
X129600000Y-53534000D01*
X129600000Y-53534000D02*
X129600000Y-54864000D01*
X162370000Y-59830000D02*
X162370000Y-57170000D01*
X159770000Y-59830000D02*
X162370000Y-59830000D01*
X159770000Y-57170000D02*
X162370000Y-57170000D01*
X159770000Y-59830000D02*
X159770000Y-57170000D01*
X158500000Y-59830000D02*
X157170000Y-59830000D01*
X157170000Y-59830000D02*
X157170000Y-58500000D01*
X153140000Y-55436000D02*
X156740000Y-55436000D01*
X153101522Y-55424478D02*
G75*
G02X154940000Y-50986000I1838478J1838478D01*
G01*
X156778478Y-55424478D02*
G75*
G03X154940000Y-50986000I-1838478J1838478D01*
G01*
X143676000Y-68500000D02*
X143676000Y-64000000D01*
X139676000Y-69750000D02*
X141176000Y-69750000D01*
X137176000Y-64000000D02*
X137176000Y-68500000D01*
X141176000Y-62750000D02*
X139676000Y-62750000D01*
X162830000Y-66810000D02*
G75*
G02X162830000Y-64810000I0J1000000D01*
G01*
X162830000Y-64810000D02*
X162830000Y-63560000D01*
X162830000Y-63560000D02*
X144930000Y-63560000D01*
X144930000Y-63560000D02*
X144930000Y-68060000D01*
X144930000Y-68060000D02*
X162830000Y-68060000D01*
X162830000Y-68060000D02*
X162830000Y-66810000D01*
X134258578Y-54050000D02*
X133741422Y-54050000D01*
X134258578Y-52630000D02*
X133741422Y-52630000D01*
X143505422Y-52518000D02*
X144022578Y-52518000D01*
X143505422Y-51098000D02*
X144022578Y-51098000D01*
X143505422Y-54550000D02*
X144022578Y-54550000D01*
X143505422Y-53130000D02*
X144022578Y-53130000D01*
X114741422Y-57710000D02*
X115258578Y-57710000D01*
X114741422Y-56290000D02*
X115258578Y-56290000D01*
X150626578Y-51098000D02*
X150109422Y-51098000D01*
X150626578Y-52518000D02*
X150109422Y-52518000D01*
X110741422Y-54790000D02*
X111258578Y-54790000D01*
X110741422Y-56210000D02*
X111258578Y-56210000D01*
X150109422Y-53130000D02*
X150626578Y-53130000D01*
X150109422Y-54550000D02*
X150626578Y-54550000D01*
X150107122Y-55162000D02*
X150624278Y-55162000D01*
X150107122Y-56582000D02*
X150624278Y-56582000D01*
X105758578Y-59996000D02*
X105241422Y-59996000D01*
X105758578Y-61416000D02*
X105241422Y-61416000D01*
X117520000Y-63500000D02*
G75*
G03X117520000Y-63500000I-3270000J0D01*
G01*
X114250000Y-60270000D02*
X114250000Y-66730000D01*
X114290000Y-60270000D02*
X114290000Y-66730000D01*
X114330000Y-60270000D02*
X114330000Y-66730000D01*
X114370000Y-60272000D02*
X114370000Y-66728000D01*
X114410000Y-60273000D02*
X114410000Y-66727000D01*
X114450000Y-60276000D02*
X114450000Y-66724000D01*
X114490000Y-60278000D02*
X114490000Y-62460000D01*
X114490000Y-64540000D02*
X114490000Y-66722000D01*
X114530000Y-60282000D02*
X114530000Y-62460000D01*
X114530000Y-64540000D02*
X114530000Y-66718000D01*
X114570000Y-60285000D02*
X114570000Y-62460000D01*
X114570000Y-64540000D02*
X114570000Y-66715000D01*
X114610000Y-60289000D02*
X114610000Y-62460000D01*
X114610000Y-64540000D02*
X114610000Y-66711000D01*
X114650000Y-60294000D02*
X114650000Y-62460000D01*
X114650000Y-64540000D02*
X114650000Y-66706000D01*
X114690000Y-60299000D02*
X114690000Y-62460000D01*
X114690000Y-64540000D02*
X114690000Y-66701000D01*
X114730000Y-60305000D02*
X114730000Y-62460000D01*
X114730000Y-64540000D02*
X114730000Y-66695000D01*
X114770000Y-60311000D02*
X114770000Y-62460000D01*
X114770000Y-64540000D02*
X114770000Y-66689000D01*
X114810000Y-60318000D02*
X114810000Y-62460000D01*
X114810000Y-64540000D02*
X114810000Y-66682000D01*
X114850000Y-60325000D02*
X114850000Y-62460000D01*
X114850000Y-64540000D02*
X114850000Y-66675000D01*
X114890000Y-60333000D02*
X114890000Y-62460000D01*
X114890000Y-64540000D02*
X114890000Y-66667000D01*
X114930000Y-60341000D02*
X114930000Y-62460000D01*
X114930000Y-64540000D02*
X114930000Y-66659000D01*
X114971000Y-60350000D02*
X114971000Y-62460000D01*
X114971000Y-64540000D02*
X114971000Y-66650000D01*
X115011000Y-60359000D02*
X115011000Y-62460000D01*
X115011000Y-64540000D02*
X115011000Y-66641000D01*
X115051000Y-60369000D02*
X115051000Y-62460000D01*
X115051000Y-64540000D02*
X115051000Y-66631000D01*
X115091000Y-60379000D02*
X115091000Y-62460000D01*
X115091000Y-64540000D02*
X115091000Y-66621000D01*
X115131000Y-60390000D02*
X115131000Y-62460000D01*
X115131000Y-64540000D02*
X115131000Y-66610000D01*
X115171000Y-60402000D02*
X115171000Y-62460000D01*
X115171000Y-64540000D02*
X115171000Y-66598000D01*
X115211000Y-60414000D02*
X115211000Y-62460000D01*
X115211000Y-64540000D02*
X115211000Y-66586000D01*
X115251000Y-60426000D02*
X115251000Y-62460000D01*
X115251000Y-64540000D02*
X115251000Y-66574000D01*
X115291000Y-60439000D02*
X115291000Y-62460000D01*
X115291000Y-64540000D02*
X115291000Y-66561000D01*
X115331000Y-60453000D02*
X115331000Y-62460000D01*
X115331000Y-64540000D02*
X115331000Y-66547000D01*
X115371000Y-60467000D02*
X115371000Y-62460000D01*
X115371000Y-64540000D02*
X115371000Y-66533000D01*
X115411000Y-60482000D02*
X115411000Y-62460000D01*
X115411000Y-64540000D02*
X115411000Y-66518000D01*
X115451000Y-60498000D02*
X115451000Y-62460000D01*
X115451000Y-64540000D02*
X115451000Y-66502000D01*
X115491000Y-60514000D02*
X115491000Y-62460000D01*
X115491000Y-64540000D02*
X115491000Y-66486000D01*
X115531000Y-60530000D02*
X115531000Y-62460000D01*
X115531000Y-64540000D02*
X115531000Y-66470000D01*
X115571000Y-60548000D02*
X115571000Y-62460000D01*
X115571000Y-64540000D02*
X115571000Y-66452000D01*
X115611000Y-60566000D02*
X115611000Y-62460000D01*
X115611000Y-64540000D02*
X115611000Y-66434000D01*
X115651000Y-60584000D02*
X115651000Y-62460000D01*
X115651000Y-64540000D02*
X115651000Y-66416000D01*
X115691000Y-60604000D02*
X115691000Y-62460000D01*
X115691000Y-64540000D02*
X115691000Y-66396000D01*
X115731000Y-60624000D02*
X115731000Y-62460000D01*
X115731000Y-64540000D02*
X115731000Y-66376000D01*
X115771000Y-60644000D02*
X115771000Y-62460000D01*
X115771000Y-64540000D02*
X115771000Y-66356000D01*
X115811000Y-60666000D02*
X115811000Y-62460000D01*
X115811000Y-64540000D02*
X115811000Y-66334000D01*
X115851000Y-60688000D02*
X115851000Y-62460000D01*
X115851000Y-64540000D02*
X115851000Y-66312000D01*
X115891000Y-60710000D02*
X115891000Y-62460000D01*
X115891000Y-64540000D02*
X115891000Y-66290000D01*
X115931000Y-60734000D02*
X115931000Y-62460000D01*
X115931000Y-64540000D02*
X115931000Y-66266000D01*
X115971000Y-60758000D02*
X115971000Y-62460000D01*
X115971000Y-64540000D02*
X115971000Y-66242000D01*
X116011000Y-60784000D02*
X116011000Y-62460000D01*
X116011000Y-64540000D02*
X116011000Y-66216000D01*
X116051000Y-60810000D02*
X116051000Y-62460000D01*
X116051000Y-64540000D02*
X116051000Y-66190000D01*
X116091000Y-60836000D02*
X116091000Y-62460000D01*
X116091000Y-64540000D02*
X116091000Y-66164000D01*
X116131000Y-60864000D02*
X116131000Y-62460000D01*
X116131000Y-64540000D02*
X116131000Y-66136000D01*
X116171000Y-60893000D02*
X116171000Y-62460000D01*
X116171000Y-64540000D02*
X116171000Y-66107000D01*
X116211000Y-60922000D02*
X116211000Y-62460000D01*
X116211000Y-64540000D02*
X116211000Y-66078000D01*
X116251000Y-60952000D02*
X116251000Y-62460000D01*
X116251000Y-64540000D02*
X116251000Y-66048000D01*
X116291000Y-60984000D02*
X116291000Y-62460000D01*
X116291000Y-64540000D02*
X116291000Y-66016000D01*
X116331000Y-61016000D02*
X116331000Y-62460000D01*
X116331000Y-64540000D02*
X116331000Y-65984000D01*
X116371000Y-61050000D02*
X116371000Y-62460000D01*
X116371000Y-64540000D02*
X116371000Y-65950000D01*
X116411000Y-61084000D02*
X116411000Y-62460000D01*
X116411000Y-64540000D02*
X116411000Y-65916000D01*
X116451000Y-61120000D02*
X116451000Y-62460000D01*
X116451000Y-64540000D02*
X116451000Y-65880000D01*
X116491000Y-61157000D02*
X116491000Y-62460000D01*
X116491000Y-64540000D02*
X116491000Y-65843000D01*
X116531000Y-61195000D02*
X116531000Y-62460000D01*
X116531000Y-64540000D02*
X116531000Y-65805000D01*
X116571000Y-61235000D02*
X116571000Y-65765000D01*
X116611000Y-61276000D02*
X116611000Y-65724000D01*
X116651000Y-61318000D02*
X116651000Y-65682000D01*
X116691000Y-61363000D02*
X116691000Y-65637000D01*
X116731000Y-61408000D02*
X116731000Y-65592000D01*
X116771000Y-61456000D02*
X116771000Y-65544000D01*
X116811000Y-61505000D02*
X116811000Y-65495000D01*
X116851000Y-61556000D02*
X116851000Y-65444000D01*
X116891000Y-61610000D02*
X116891000Y-65390000D01*
X116931000Y-61666000D02*
X116931000Y-65334000D01*
X116971000Y-61724000D02*
X116971000Y-65276000D01*
X117011000Y-61786000D02*
X117011000Y-65214000D01*
X117051000Y-61850000D02*
X117051000Y-65150000D01*
X117091000Y-61919000D02*
X117091000Y-65081000D01*
X117131000Y-61991000D02*
X117131000Y-65009000D01*
X117171000Y-62068000D02*
X117171000Y-64932000D01*
X117211000Y-62150000D02*
X117211000Y-64850000D01*
X117251000Y-62238000D02*
X117251000Y-64762000D01*
X117291000Y-62335000D02*
X117291000Y-64665000D01*
X117331000Y-62441000D02*
X117331000Y-64559000D01*
X117371000Y-62560000D02*
X117371000Y-64440000D01*
X117411000Y-62698000D02*
X117411000Y-64302000D01*
X117451000Y-62867000D02*
X117451000Y-64133000D01*
X117491000Y-63098000D02*
X117491000Y-63902000D01*
X110749759Y-61661000D02*
X111379759Y-61661000D01*
X111064759Y-61346000D02*
X111064759Y-61976000D01*
D11*
X105916666Y-49202380D02*
X105916666Y-49916666D01*
X105869047Y-50059523D01*
X105773809Y-50154761D01*
X105630952Y-50202380D01*
X105535714Y-50202380D01*
X106916666Y-50202380D02*
X106345238Y-50202380D01*
X106630952Y-50202380D02*
X106630952Y-49202380D01*
X106535714Y-49345238D01*
X106440476Y-49440476D01*
X106345238Y-49488095D01*
X134159714Y-57062666D02*
X134635904Y-57062666D01*
X134064476Y-57348380D02*
X134397809Y-56348380D01*
X134731142Y-57348380D01*
X135588285Y-57348380D02*
X135016857Y-57348380D01*
X135302571Y-57348380D02*
X135302571Y-56348380D01*
X135207333Y-56491238D01*
X135112095Y-56586476D01*
X135016857Y-56634095D01*
X100925333Y-50903142D02*
X100877714Y-50950761D01*
X100734857Y-50998380D01*
X100639619Y-50998380D01*
X100496761Y-50950761D01*
X100401523Y-50855523D01*
X100353904Y-50760285D01*
X100306285Y-50569809D01*
X100306285Y-50426952D01*
X100353904Y-50236476D01*
X100401523Y-50141238D01*
X100496761Y-50046000D01*
X100639619Y-49998380D01*
X100734857Y-49998380D01*
X100877714Y-50046000D01*
X100925333Y-50093619D01*
X101877714Y-50998380D02*
X101306285Y-50998380D01*
X101592000Y-50998380D02*
X101592000Y-49998380D01*
X101496761Y-50141238D01*
X101401523Y-50236476D01*
X101306285Y-50284095D01*
X119166666Y-51452380D02*
X119166666Y-52166666D01*
X119119047Y-52309523D01*
X119023809Y-52404761D01*
X118880952Y-52452380D01*
X118785714Y-52452380D01*
X119785714Y-51880952D02*
X119690476Y-51833333D01*
X119642857Y-51785714D01*
X119595238Y-51690476D01*
X119595238Y-51642857D01*
X119642857Y-51547619D01*
X119690476Y-51500000D01*
X119785714Y-51452380D01*
X119976190Y-51452380D01*
X120071428Y-51500000D01*
X120119047Y-51547619D01*
X120166666Y-51642857D01*
X120166666Y-51690476D01*
X120119047Y-51785714D01*
X120071428Y-51833333D01*
X119976190Y-51880952D01*
X119785714Y-51880952D01*
X119690476Y-51928571D01*
X119642857Y-51976190D01*
X119595238Y-52071428D01*
X119595238Y-52261904D01*
X119642857Y-52357142D01*
X119690476Y-52404761D01*
X119785714Y-52452380D01*
X119976190Y-52452380D01*
X120071428Y-52404761D01*
X120119047Y-52357142D01*
X120166666Y-52261904D01*
X120166666Y-52071428D01*
X120119047Y-51976190D01*
X120071428Y-51928571D01*
X119976190Y-51880952D01*
X135405904Y-51674380D02*
X135405904Y-50674380D01*
X135644000Y-50674380D01*
X135786857Y-50722000D01*
X135882095Y-50817238D01*
X135929714Y-50912476D01*
X135977333Y-51102952D01*
X135977333Y-51245809D01*
X135929714Y-51436285D01*
X135882095Y-51531523D01*
X135786857Y-51626761D01*
X135644000Y-51674380D01*
X135405904Y-51674380D01*
X136929714Y-51674380D02*
X136358285Y-51674380D01*
X136644000Y-51674380D02*
X136644000Y-50674380D01*
X136548761Y-50817238D01*
X136453523Y-50912476D01*
X136358285Y-50960095D01*
X142009904Y-56928380D02*
X142009904Y-55928380D01*
X142248000Y-55928380D01*
X142390857Y-55976000D01*
X142486095Y-56071238D01*
X142533714Y-56166476D01*
X142581333Y-56356952D01*
X142581333Y-56499809D01*
X142533714Y-56690285D01*
X142486095Y-56785523D01*
X142390857Y-56880761D01*
X142248000Y-56928380D01*
X142009904Y-56928380D01*
X142962285Y-56023619D02*
X143009904Y-55976000D01*
X143105142Y-55928380D01*
X143343238Y-55928380D01*
X143438476Y-55976000D01*
X143486095Y-56023619D01*
X143533714Y-56118857D01*
X143533714Y-56214095D01*
X143486095Y-56356952D01*
X142914666Y-56928380D01*
X143533714Y-56928380D01*
X109166666Y-60452380D02*
X109166666Y-61166666D01*
X109119047Y-61309523D01*
X109023809Y-61404761D01*
X108880952Y-61452380D01*
X108785714Y-61452380D01*
X109547619Y-60452380D02*
X110166666Y-60452380D01*
X109833333Y-60833333D01*
X109976190Y-60833333D01*
X110071428Y-60880952D01*
X110119047Y-60928571D01*
X110166666Y-61023809D01*
X110166666Y-61261904D01*
X110119047Y-61357142D01*
X110071428Y-61404761D01*
X109976190Y-61452380D01*
X109690476Y-61452380D01*
X109595238Y-61404761D01*
X109547619Y-61357142D01*
X113460666Y-74516380D02*
X113460666Y-75230666D01*
X113413047Y-75373523D01*
X113317809Y-75468761D01*
X113174952Y-75516380D01*
X113079714Y-75516380D01*
X114365428Y-74849714D02*
X114365428Y-75516380D01*
X114127333Y-74468761D02*
X113889238Y-75183047D01*
X114508285Y-75183047D01*
X113458666Y-83222380D02*
X113458666Y-83936666D01*
X113411047Y-84079523D01*
X113315809Y-84174761D01*
X113172952Y-84222380D01*
X113077714Y-84222380D01*
X114411047Y-83222380D02*
X113934857Y-83222380D01*
X113887238Y-83698571D01*
X113934857Y-83650952D01*
X114030095Y-83603333D01*
X114268190Y-83603333D01*
X114363428Y-83650952D01*
X114411047Y-83698571D01*
X114458666Y-83793809D01*
X114458666Y-84031904D01*
X114411047Y-84127142D01*
X114363428Y-84174761D01*
X114268190Y-84222380D01*
X114030095Y-84222380D01*
X113934857Y-84174761D01*
X113887238Y-84127142D01*
X113458666Y-91908380D02*
X113458666Y-92622666D01*
X113411047Y-92765523D01*
X113315809Y-92860761D01*
X113172952Y-92908380D01*
X113077714Y-92908380D01*
X114363428Y-91908380D02*
X114172952Y-91908380D01*
X114077714Y-91956000D01*
X114030095Y-92003619D01*
X113934857Y-92146476D01*
X113887238Y-92336952D01*
X113887238Y-92717904D01*
X113934857Y-92813142D01*
X113982476Y-92860761D01*
X114077714Y-92908380D01*
X114268190Y-92908380D01*
X114363428Y-92860761D01*
X114411047Y-92813142D01*
X114458666Y-92717904D01*
X114458666Y-92479809D01*
X114411047Y-92384571D01*
X114363428Y-92336952D01*
X114268190Y-92289333D01*
X114077714Y-92289333D01*
X113982476Y-92336952D01*
X113934857Y-92384571D01*
X113887238Y-92479809D01*
X129206666Y-51776380D02*
X129206666Y-52490666D01*
X129159047Y-52633523D01*
X129063809Y-52728761D01*
X128920952Y-52776380D01*
X128825714Y-52776380D01*
X129587619Y-51776380D02*
X130254285Y-51776380D01*
X129825714Y-52776380D01*
X161416666Y-55702380D02*
X161416666Y-56416666D01*
X161369047Y-56559523D01*
X161273809Y-56654761D01*
X161130952Y-56702380D01*
X161035714Y-56702380D01*
X161892857Y-56702380D02*
X161892857Y-55702380D01*
X162273809Y-55702380D01*
X162369047Y-55750000D01*
X162416666Y-55797619D01*
X162464285Y-55892857D01*
X162464285Y-56035714D01*
X162416666Y-56130952D01*
X162369047Y-56178571D01*
X162273809Y-56226190D01*
X161892857Y-56226190D01*
X163416666Y-56702380D02*
X162845238Y-56702380D01*
X163130952Y-56702380D02*
X163130952Y-55702380D01*
X163035714Y-55845238D01*
X162940476Y-55940476D01*
X162845238Y-55988095D01*
X158404761Y-52297619D02*
X158309523Y-52250000D01*
X158214285Y-52154761D01*
X158071428Y-52011904D01*
X157976190Y-51964285D01*
X157880952Y-51964285D01*
X157928571Y-52202380D02*
X157833333Y-52154761D01*
X157738095Y-52059523D01*
X157690476Y-51869047D01*
X157690476Y-51535714D01*
X157738095Y-51345238D01*
X157833333Y-51250000D01*
X157928571Y-51202380D01*
X158119047Y-51202380D01*
X158214285Y-51250000D01*
X158309523Y-51345238D01*
X158357142Y-51535714D01*
X158357142Y-51869047D01*
X158309523Y-52059523D01*
X158214285Y-52154761D01*
X158119047Y-52202380D01*
X157928571Y-52202380D01*
X159309523Y-52202380D02*
X158738095Y-52202380D01*
X159023809Y-52202380D02*
X159023809Y-51202380D01*
X158928571Y-51345238D01*
X158833333Y-51440476D01*
X158738095Y-51488095D01*
X138366666Y-72190761D02*
X138509523Y-72238380D01*
X138747619Y-72238380D01*
X138842857Y-72190761D01*
X138890476Y-72143142D01*
X138938095Y-72047904D01*
X138938095Y-71952666D01*
X138890476Y-71857428D01*
X138842857Y-71809809D01*
X138747619Y-71762190D01*
X138557142Y-71714571D01*
X138461904Y-71666952D01*
X138414285Y-71619333D01*
X138366666Y-71524095D01*
X138366666Y-71428857D01*
X138414285Y-71333619D01*
X138461904Y-71286000D01*
X138557142Y-71238380D01*
X138795238Y-71238380D01*
X138938095Y-71286000D01*
X139271428Y-71238380D02*
X139509523Y-72238380D01*
X139700000Y-71524095D01*
X139890476Y-72238380D01*
X140128571Y-71238380D01*
X141033333Y-72238380D02*
X140461904Y-72238380D01*
X140747619Y-72238380D02*
X140747619Y-71238380D01*
X140652380Y-71381238D01*
X140557142Y-71476476D01*
X140461904Y-71524095D01*
X163238095Y-65452380D02*
X163238095Y-66261904D01*
X163285714Y-66357142D01*
X163333333Y-66404761D01*
X163428571Y-66452380D01*
X163619047Y-66452380D01*
X163714285Y-66404761D01*
X163761904Y-66357142D01*
X163809523Y-66261904D01*
X163809523Y-65452380D01*
X164809523Y-66452380D02*
X164238095Y-66452380D01*
X164523809Y-66452380D02*
X164523809Y-65452380D01*
X164428571Y-65595238D01*
X164333333Y-65690476D01*
X164238095Y-65738095D01*
X132833333Y-51952380D02*
X132500000Y-51476190D01*
X132261904Y-51952380D02*
X132261904Y-50952380D01*
X132642857Y-50952380D01*
X132738095Y-51000000D01*
X132785714Y-51047619D01*
X132833333Y-51142857D01*
X132833333Y-51285714D01*
X132785714Y-51380952D01*
X132738095Y-51428571D01*
X132642857Y-51476190D01*
X132261904Y-51476190D01*
X133785714Y-51952380D02*
X133214285Y-51952380D01*
X133500000Y-51952380D02*
X133500000Y-50952380D01*
X133404761Y-51095238D01*
X133309523Y-51190476D01*
X133214285Y-51238095D01*
X145883333Y-52260380D02*
X145550000Y-51784190D01*
X145311904Y-52260380D02*
X145311904Y-51260380D01*
X145692857Y-51260380D01*
X145788095Y-51308000D01*
X145835714Y-51355619D01*
X145883333Y-51450857D01*
X145883333Y-51593714D01*
X145835714Y-51688952D01*
X145788095Y-51736571D01*
X145692857Y-51784190D01*
X145311904Y-51784190D01*
X146264285Y-51355619D02*
X146311904Y-51308000D01*
X146407142Y-51260380D01*
X146645238Y-51260380D01*
X146740476Y-51308000D01*
X146788095Y-51355619D01*
X146835714Y-51450857D01*
X146835714Y-51546095D01*
X146788095Y-51688952D01*
X146216666Y-52260380D01*
X146835714Y-52260380D01*
X145883333Y-54292380D02*
X145550000Y-53816190D01*
X145311904Y-54292380D02*
X145311904Y-53292380D01*
X145692857Y-53292380D01*
X145788095Y-53340000D01*
X145835714Y-53387619D01*
X145883333Y-53482857D01*
X145883333Y-53625714D01*
X145835714Y-53720952D01*
X145788095Y-53768571D01*
X145692857Y-53816190D01*
X145311904Y-53816190D01*
X146216666Y-53292380D02*
X146835714Y-53292380D01*
X146502380Y-53673333D01*
X146645238Y-53673333D01*
X146740476Y-53720952D01*
X146788095Y-53768571D01*
X146835714Y-53863809D01*
X146835714Y-54101904D01*
X146788095Y-54197142D01*
X146740476Y-54244761D01*
X146645238Y-54292380D01*
X146359523Y-54292380D01*
X146264285Y-54244761D01*
X146216666Y-54197142D01*
X112117833Y-57960380D02*
X111784500Y-57484190D01*
X111546404Y-57960380D02*
X111546404Y-56960380D01*
X111927357Y-56960380D01*
X112022595Y-57008000D01*
X112070214Y-57055619D01*
X112117833Y-57150857D01*
X112117833Y-57293714D01*
X112070214Y-57388952D01*
X112022595Y-57436571D01*
X111927357Y-57484190D01*
X111546404Y-57484190D01*
X112974976Y-57293714D02*
X112974976Y-57960380D01*
X112736880Y-56912761D02*
X112498785Y-57627047D01*
X113117833Y-57627047D01*
X147661333Y-52260380D02*
X147328000Y-51784190D01*
X147089904Y-52260380D02*
X147089904Y-51260380D01*
X147470857Y-51260380D01*
X147566095Y-51308000D01*
X147613714Y-51355619D01*
X147661333Y-51450857D01*
X147661333Y-51593714D01*
X147613714Y-51688952D01*
X147566095Y-51736571D01*
X147470857Y-51784190D01*
X147089904Y-51784190D01*
X148566095Y-51260380D02*
X148089904Y-51260380D01*
X148042285Y-51736571D01*
X148089904Y-51688952D01*
X148185142Y-51641333D01*
X148423238Y-51641333D01*
X148518476Y-51688952D01*
X148566095Y-51736571D01*
X148613714Y-51831809D01*
X148613714Y-52069904D01*
X148566095Y-52165142D01*
X148518476Y-52212761D01*
X148423238Y-52260380D01*
X148185142Y-52260380D01*
X148089904Y-52212761D01*
X148042285Y-52165142D01*
X108333333Y-55952380D02*
X108000000Y-55476190D01*
X107761904Y-55952380D02*
X107761904Y-54952380D01*
X108142857Y-54952380D01*
X108238095Y-55000000D01*
X108285714Y-55047619D01*
X108333333Y-55142857D01*
X108333333Y-55285714D01*
X108285714Y-55380952D01*
X108238095Y-55428571D01*
X108142857Y-55476190D01*
X107761904Y-55476190D01*
X109190476Y-54952380D02*
X109000000Y-54952380D01*
X108904761Y-55000000D01*
X108857142Y-55047619D01*
X108761904Y-55190476D01*
X108714285Y-55380952D01*
X108714285Y-55761904D01*
X108761904Y-55857142D01*
X108809523Y-55904761D01*
X108904761Y-55952380D01*
X109095238Y-55952380D01*
X109190476Y-55904761D01*
X109238095Y-55857142D01*
X109285714Y-55761904D01*
X109285714Y-55523809D01*
X109238095Y-55428571D01*
X109190476Y-55380952D01*
X109095238Y-55333333D01*
X108904761Y-55333333D01*
X108809523Y-55380952D01*
X108761904Y-55428571D01*
X108714285Y-55523809D01*
X147661333Y-54292380D02*
X147328000Y-53816190D01*
X147089904Y-54292380D02*
X147089904Y-53292380D01*
X147470857Y-53292380D01*
X147566095Y-53340000D01*
X147613714Y-53387619D01*
X147661333Y-53482857D01*
X147661333Y-53625714D01*
X147613714Y-53720952D01*
X147566095Y-53768571D01*
X147470857Y-53816190D01*
X147089904Y-53816190D01*
X147994666Y-53292380D02*
X148661333Y-53292380D01*
X148232761Y-54292380D01*
X147661333Y-56324380D02*
X147328000Y-55848190D01*
X147089904Y-56324380D02*
X147089904Y-55324380D01*
X147470857Y-55324380D01*
X147566095Y-55372000D01*
X147613714Y-55419619D01*
X147661333Y-55514857D01*
X147661333Y-55657714D01*
X147613714Y-55752952D01*
X147566095Y-55800571D01*
X147470857Y-55848190D01*
X147089904Y-55848190D01*
X148232761Y-55752952D02*
X148137523Y-55705333D01*
X148089904Y-55657714D01*
X148042285Y-55562476D01*
X148042285Y-55514857D01*
X148089904Y-55419619D01*
X148137523Y-55372000D01*
X148232761Y-55324380D01*
X148423238Y-55324380D01*
X148518476Y-55372000D01*
X148566095Y-55419619D01*
X148613714Y-55514857D01*
X148613714Y-55562476D01*
X148566095Y-55657714D01*
X148518476Y-55705333D01*
X148423238Y-55752952D01*
X148232761Y-55752952D01*
X148137523Y-55800571D01*
X148089904Y-55848190D01*
X148042285Y-55943428D01*
X148042285Y-56133904D01*
X148089904Y-56229142D01*
X148137523Y-56276761D01*
X148232761Y-56324380D01*
X148423238Y-56324380D01*
X148518476Y-56276761D01*
X148566095Y-56229142D01*
X148613714Y-56133904D01*
X148613714Y-55943428D01*
X148566095Y-55848190D01*
X148518476Y-55800571D01*
X148423238Y-55752952D01*
X102539333Y-60809142D02*
X102491714Y-60856761D01*
X102348857Y-60904380D01*
X102253619Y-60904380D01*
X102110761Y-60856761D01*
X102015523Y-60761523D01*
X101967904Y-60666285D01*
X101920285Y-60475809D01*
X101920285Y-60332952D01*
X101967904Y-60142476D01*
X102015523Y-60047238D01*
X102110761Y-59952000D01*
X102253619Y-59904380D01*
X102348857Y-59904380D01*
X102491714Y-59952000D01*
X102539333Y-59999619D01*
X103444095Y-59904380D02*
X102967904Y-59904380D01*
X102920285Y-60380571D01*
X102967904Y-60332952D01*
X103063142Y-60285333D01*
X103301238Y-60285333D01*
X103396476Y-60332952D01*
X103444095Y-60380571D01*
X103491714Y-60475809D01*
X103491714Y-60713904D01*
X103444095Y-60809142D01*
X103396476Y-60856761D01*
X103301238Y-60904380D01*
X103063142Y-60904380D01*
X102967904Y-60856761D01*
X102920285Y-60809142D01*
X116333333Y-67857142D02*
X116285714Y-67904761D01*
X116142857Y-67952380D01*
X116047619Y-67952380D01*
X115904761Y-67904761D01*
X115809523Y-67809523D01*
X115761904Y-67714285D01*
X115714285Y-67523809D01*
X115714285Y-67380952D01*
X115761904Y-67190476D01*
X115809523Y-67095238D01*
X115904761Y-67000000D01*
X116047619Y-66952380D01*
X116142857Y-66952380D01*
X116285714Y-67000000D01*
X116333333Y-67047619D01*
X117190476Y-67285714D02*
X117190476Y-67952380D01*
X116952380Y-66904761D02*
X116714285Y-67619047D01*
X117333333Y-67619047D01*
M02*
